%TF.GenerationSoftware,KiCad,Pcbnew,8.0.1*%
%TF.CreationDate,2024-04-28T12:43:27+02:00*%
%TF.ProjectId,MainControllerNodeMCU-32S,4d61696e-436f-46e7-9472-6f6c6c65724e,rev?*%
%TF.SameCoordinates,Original*%
%TF.FileFunction,Soldermask,Bot*%
%TF.FilePolarity,Negative*%
%FSLAX46Y46*%
G04 Gerber Fmt 4.6, Leading zero omitted, Abs format (unit mm)*
G04 Created by KiCad (PCBNEW 8.0.1) date 2024-04-28 12:43:27*
%MOMM*%
%LPD*%
G01*
G04 APERTURE LIST*
G04 Aperture macros list*
%AMRoundRect*
0 Rectangle with rounded corners*
0 $1 Rounding radius*
0 $2 $3 $4 $5 $6 $7 $8 $9 X,Y pos of 4 corners*
0 Add a 4 corners polygon primitive as box body*
4,1,4,$2,$3,$4,$5,$6,$7,$8,$9,$2,$3,0*
0 Add four circle primitives for the rounded corners*
1,1,$1+$1,$2,$3*
1,1,$1+$1,$4,$5*
1,1,$1+$1,$6,$7*
1,1,$1+$1,$8,$9*
0 Add four rect primitives between the rounded corners*
20,1,$1+$1,$2,$3,$4,$5,0*
20,1,$1+$1,$4,$5,$6,$7,0*
20,1,$1+$1,$6,$7,$8,$9,0*
20,1,$1+$1,$8,$9,$2,$3,0*%
G04 Aperture macros list end*
%ADD10RoundRect,0.250000X-0.725000X0.600000X-0.725000X-0.600000X0.725000X-0.600000X0.725000X0.600000X0*%
%ADD11O,1.950000X1.700000*%
%ADD12C,3.200000*%
%ADD13R,1.700000X1.700000*%
%ADD14O,1.700000X1.700000*%
%ADD15C,2.082800*%
%ADD16RoundRect,0.250000X0.725000X-0.600000X0.725000X0.600000X-0.725000X0.600000X-0.725000X-0.600000X0*%
%ADD17C,1.728000*%
G04 APERTURE END LIST*
D10*
%TO.C,J_SW_1*%
X143246800Y-91878800D03*
D11*
X143246800Y-94378800D03*
X143246800Y-96878800D03*
X143246800Y-99378800D03*
%TD*%
D12*
%TO.C,MountingHole1*%
X159196800Y-75533200D03*
%TD*%
D13*
%TO.C,J_DP_1*%
X169946800Y-85983800D03*
D14*
X169946800Y-83443800D03*
X169946800Y-80903800D03*
X169946800Y-78363800D03*
X169946800Y-75823800D03*
X169946800Y-73283800D03*
X169946800Y-70743800D03*
X169946800Y-68203800D03*
%TD*%
D15*
%TO.C,U2*%
X154240000Y-85603800D03*
X156780000Y-85603800D03*
X161860000Y-85603800D03*
X159320000Y-85603800D03*
X164400000Y-85603800D03*
X149160000Y-85603800D03*
X151700000Y-85603800D03*
%TD*%
D16*
%TO.C,J_SC_1*%
X142196800Y-133603800D03*
D11*
X142196800Y-131103800D03*
X142196800Y-128603800D03*
X142196800Y-126103800D03*
%TD*%
D10*
%TO.C,J_SW_2*%
X143246800Y-70603800D03*
D11*
X143246800Y-73103800D03*
X143246800Y-75603800D03*
X143246800Y-78103800D03*
X143246800Y-80603800D03*
%TD*%
D17*
%TO.C,U1*%
X147784400Y-90451800D03*
X147784400Y-92991800D03*
X147784400Y-95531800D03*
X147784400Y-98071800D03*
X147784400Y-100611800D03*
X147784400Y-103151800D03*
X147784400Y-105691800D03*
X147784400Y-108231800D03*
X147784400Y-110771800D03*
X147784400Y-113311800D03*
X147784400Y-115851800D03*
X147784400Y-118391800D03*
X147784400Y-120931800D03*
X147784400Y-123471800D03*
X147784400Y-126011800D03*
X147784400Y-128551800D03*
X147784400Y-131091800D03*
X147784400Y-133631800D03*
X147784400Y-136171800D03*
X170644400Y-90451800D03*
X170644400Y-92991800D03*
X170644400Y-95531800D03*
X170644400Y-98071800D03*
X170644400Y-100611800D03*
X170644400Y-103151800D03*
X170644400Y-105691800D03*
X170644400Y-108231800D03*
X170644400Y-110771800D03*
X170644400Y-113311800D03*
X170644400Y-115851800D03*
X170644400Y-118391800D03*
X170644400Y-120931800D03*
X170644400Y-123471800D03*
X170644400Y-126011800D03*
X170644400Y-128551800D03*
X170644400Y-131091800D03*
X170644400Y-133631800D03*
X170644400Y-136171800D03*
%TD*%
D16*
%TO.C,J_SC_2*%
X142196800Y-115853800D03*
D11*
X142196800Y-113353800D03*
X142196800Y-110853800D03*
X142196800Y-108353800D03*
%TD*%
D12*
%TO.C,MountinHole2*%
X159196800Y-129603800D03*
%TD*%
M02*
