%TF.GenerationSoftware,KiCad,Pcbnew,8.0.1*%
%TF.CreationDate,2024-04-28T12:43:27+02:00*%
%TF.ProjectId,MainControllerNodeMCU-32S,4d61696e-436f-46e7-9472-6f6c6c65724e,rev?*%
%TF.SameCoordinates,Original*%
%TF.FileFunction,Copper,L1,Top*%
%TF.FilePolarity,Positive*%
%FSLAX46Y46*%
G04 Gerber Fmt 4.6, Leading zero omitted, Abs format (unit mm)*
G04 Created by KiCad (PCBNEW 8.0.1) date 2024-04-28 12:43:27*
%MOMM*%
%LPD*%
G01*
G04 APERTURE LIST*
G04 Aperture macros list*
%AMRoundRect*
0 Rectangle with rounded corners*
0 $1 Rounding radius*
0 $2 $3 $4 $5 $6 $7 $8 $9 X,Y pos of 4 corners*
0 Add a 4 corners polygon primitive as box body*
4,1,4,$2,$3,$4,$5,$6,$7,$8,$9,$2,$3,0*
0 Add four circle primitives for the rounded corners*
1,1,$1+$1,$2,$3*
1,1,$1+$1,$4,$5*
1,1,$1+$1,$6,$7*
1,1,$1+$1,$8,$9*
0 Add four rect primitives between the rounded corners*
20,1,$1+$1,$2,$3,$4,$5,0*
20,1,$1+$1,$4,$5,$6,$7,0*
20,1,$1+$1,$6,$7,$8,$9,0*
20,1,$1+$1,$8,$9,$2,$3,0*%
G04 Aperture macros list end*
%ADD10C,0.200000*%
%TA.AperFunction,NonConductor*%
%ADD11C,0.200000*%
%TD*%
%TA.AperFunction,ComponentPad*%
%ADD12RoundRect,0.250000X-0.725000X0.600000X-0.725000X-0.600000X0.725000X-0.600000X0.725000X0.600000X0*%
%TD*%
%TA.AperFunction,ComponentPad*%
%ADD13O,1.950000X1.700000*%
%TD*%
%TA.AperFunction,ComponentPad*%
%ADD14R,1.700000X1.700000*%
%TD*%
%TA.AperFunction,ComponentPad*%
%ADD15O,1.700000X1.700000*%
%TD*%
%TA.AperFunction,ComponentPad*%
%ADD16C,1.879600*%
%TD*%
%TA.AperFunction,ComponentPad*%
%ADD17RoundRect,0.250000X0.725000X-0.600000X0.725000X0.600000X-0.725000X0.600000X-0.725000X-0.600000X0*%
%TD*%
%TA.AperFunction,ComponentPad*%
%ADD18C,1.524000*%
%TD*%
%TA.AperFunction,Conductor*%
%ADD19C,1.000000*%
%TD*%
%TA.AperFunction,Conductor*%
%ADD20C,0.200000*%
%TD*%
G04 APERTURE END LIST*
D10*
D11*
X153409523Y-106137219D02*
X153409523Y-105137219D01*
X153409523Y-105137219D02*
X153742856Y-105851504D01*
X153742856Y-105851504D02*
X154076189Y-105137219D01*
X154076189Y-105137219D02*
X154076189Y-106137219D01*
X154980951Y-106137219D02*
X154980951Y-105613409D01*
X154980951Y-105613409D02*
X154933332Y-105518171D01*
X154933332Y-105518171D02*
X154838094Y-105470552D01*
X154838094Y-105470552D02*
X154647618Y-105470552D01*
X154647618Y-105470552D02*
X154552380Y-105518171D01*
X154980951Y-106089600D02*
X154885713Y-106137219D01*
X154885713Y-106137219D02*
X154647618Y-106137219D01*
X154647618Y-106137219D02*
X154552380Y-106089600D01*
X154552380Y-106089600D02*
X154504761Y-105994361D01*
X154504761Y-105994361D02*
X154504761Y-105899123D01*
X154504761Y-105899123D02*
X154552380Y-105803885D01*
X154552380Y-105803885D02*
X154647618Y-105756266D01*
X154647618Y-105756266D02*
X154885713Y-105756266D01*
X154885713Y-105756266D02*
X154980951Y-105708647D01*
X155457142Y-106137219D02*
X155457142Y-105470552D01*
X155457142Y-105137219D02*
X155409523Y-105184838D01*
X155409523Y-105184838D02*
X155457142Y-105232457D01*
X155457142Y-105232457D02*
X155504761Y-105184838D01*
X155504761Y-105184838D02*
X155457142Y-105137219D01*
X155457142Y-105137219D02*
X155457142Y-105232457D01*
X155933332Y-105470552D02*
X155933332Y-106137219D01*
X155933332Y-105565790D02*
X155980951Y-105518171D01*
X155980951Y-105518171D02*
X156076189Y-105470552D01*
X156076189Y-105470552D02*
X156219046Y-105470552D01*
X156219046Y-105470552D02*
X156314284Y-105518171D01*
X156314284Y-105518171D02*
X156361903Y-105613409D01*
X156361903Y-105613409D02*
X156361903Y-106137219D01*
X157409522Y-106041980D02*
X157361903Y-106089600D01*
X157361903Y-106089600D02*
X157219046Y-106137219D01*
X157219046Y-106137219D02*
X157123808Y-106137219D01*
X157123808Y-106137219D02*
X156980951Y-106089600D01*
X156980951Y-106089600D02*
X156885713Y-105994361D01*
X156885713Y-105994361D02*
X156838094Y-105899123D01*
X156838094Y-105899123D02*
X156790475Y-105708647D01*
X156790475Y-105708647D02*
X156790475Y-105565790D01*
X156790475Y-105565790D02*
X156838094Y-105375314D01*
X156838094Y-105375314D02*
X156885713Y-105280076D01*
X156885713Y-105280076D02*
X156980951Y-105184838D01*
X156980951Y-105184838D02*
X157123808Y-105137219D01*
X157123808Y-105137219D02*
X157219046Y-105137219D01*
X157219046Y-105137219D02*
X157361903Y-105184838D01*
X157361903Y-105184838D02*
X157409522Y-105232457D01*
X157980951Y-106137219D02*
X157885713Y-106089600D01*
X157885713Y-106089600D02*
X157838094Y-106041980D01*
X157838094Y-106041980D02*
X157790475Y-105946742D01*
X157790475Y-105946742D02*
X157790475Y-105661028D01*
X157790475Y-105661028D02*
X157838094Y-105565790D01*
X157838094Y-105565790D02*
X157885713Y-105518171D01*
X157885713Y-105518171D02*
X157980951Y-105470552D01*
X157980951Y-105470552D02*
X158123808Y-105470552D01*
X158123808Y-105470552D02*
X158219046Y-105518171D01*
X158219046Y-105518171D02*
X158266665Y-105565790D01*
X158266665Y-105565790D02*
X158314284Y-105661028D01*
X158314284Y-105661028D02*
X158314284Y-105946742D01*
X158314284Y-105946742D02*
X158266665Y-106041980D01*
X158266665Y-106041980D02*
X158219046Y-106089600D01*
X158219046Y-106089600D02*
X158123808Y-106137219D01*
X158123808Y-106137219D02*
X157980951Y-106137219D01*
X158742856Y-105470552D02*
X158742856Y-106137219D01*
X158742856Y-105565790D02*
X158790475Y-105518171D01*
X158790475Y-105518171D02*
X158885713Y-105470552D01*
X158885713Y-105470552D02*
X159028570Y-105470552D01*
X159028570Y-105470552D02*
X159123808Y-105518171D01*
X159123808Y-105518171D02*
X159171427Y-105613409D01*
X159171427Y-105613409D02*
X159171427Y-106137219D01*
X159504761Y-105470552D02*
X159885713Y-105470552D01*
X159647618Y-105137219D02*
X159647618Y-105994361D01*
X159647618Y-105994361D02*
X159695237Y-106089600D01*
X159695237Y-106089600D02*
X159790475Y-106137219D01*
X159790475Y-106137219D02*
X159885713Y-106137219D01*
X160219047Y-106137219D02*
X160219047Y-105470552D01*
X160219047Y-105661028D02*
X160266666Y-105565790D01*
X160266666Y-105565790D02*
X160314285Y-105518171D01*
X160314285Y-105518171D02*
X160409523Y-105470552D01*
X160409523Y-105470552D02*
X160504761Y-105470552D01*
X160980952Y-106137219D02*
X160885714Y-106089600D01*
X160885714Y-106089600D02*
X160838095Y-106041980D01*
X160838095Y-106041980D02*
X160790476Y-105946742D01*
X160790476Y-105946742D02*
X160790476Y-105661028D01*
X160790476Y-105661028D02*
X160838095Y-105565790D01*
X160838095Y-105565790D02*
X160885714Y-105518171D01*
X160885714Y-105518171D02*
X160980952Y-105470552D01*
X160980952Y-105470552D02*
X161123809Y-105470552D01*
X161123809Y-105470552D02*
X161219047Y-105518171D01*
X161219047Y-105518171D02*
X161266666Y-105565790D01*
X161266666Y-105565790D02*
X161314285Y-105661028D01*
X161314285Y-105661028D02*
X161314285Y-105946742D01*
X161314285Y-105946742D02*
X161266666Y-106041980D01*
X161266666Y-106041980D02*
X161219047Y-106089600D01*
X161219047Y-106089600D02*
X161123809Y-106137219D01*
X161123809Y-106137219D02*
X160980952Y-106137219D01*
X161885714Y-106137219D02*
X161790476Y-106089600D01*
X161790476Y-106089600D02*
X161742857Y-105994361D01*
X161742857Y-105994361D02*
X161742857Y-105137219D01*
X162409524Y-106137219D02*
X162314286Y-106089600D01*
X162314286Y-106089600D02*
X162266667Y-105994361D01*
X162266667Y-105994361D02*
X162266667Y-105137219D01*
X163171429Y-106089600D02*
X163076191Y-106137219D01*
X163076191Y-106137219D02*
X162885715Y-106137219D01*
X162885715Y-106137219D02*
X162790477Y-106089600D01*
X162790477Y-106089600D02*
X162742858Y-105994361D01*
X162742858Y-105994361D02*
X162742858Y-105613409D01*
X162742858Y-105613409D02*
X162790477Y-105518171D01*
X162790477Y-105518171D02*
X162885715Y-105470552D01*
X162885715Y-105470552D02*
X163076191Y-105470552D01*
X163076191Y-105470552D02*
X163171429Y-105518171D01*
X163171429Y-105518171D02*
X163219048Y-105613409D01*
X163219048Y-105613409D02*
X163219048Y-105708647D01*
X163219048Y-105708647D02*
X162742858Y-105803885D01*
X163647620Y-106137219D02*
X163647620Y-105470552D01*
X163647620Y-105661028D02*
X163695239Y-105565790D01*
X163695239Y-105565790D02*
X163742858Y-105518171D01*
X163742858Y-105518171D02*
X163838096Y-105470552D01*
X163838096Y-105470552D02*
X163933334Y-105470552D01*
X153338095Y-107747163D02*
X153338095Y-106747163D01*
X153338095Y-106747163D02*
X153909523Y-107747163D01*
X153909523Y-107747163D02*
X153909523Y-106747163D01*
X154528571Y-107747163D02*
X154433333Y-107699544D01*
X154433333Y-107699544D02*
X154385714Y-107651924D01*
X154385714Y-107651924D02*
X154338095Y-107556686D01*
X154338095Y-107556686D02*
X154338095Y-107270972D01*
X154338095Y-107270972D02*
X154385714Y-107175734D01*
X154385714Y-107175734D02*
X154433333Y-107128115D01*
X154433333Y-107128115D02*
X154528571Y-107080496D01*
X154528571Y-107080496D02*
X154671428Y-107080496D01*
X154671428Y-107080496D02*
X154766666Y-107128115D01*
X154766666Y-107128115D02*
X154814285Y-107175734D01*
X154814285Y-107175734D02*
X154861904Y-107270972D01*
X154861904Y-107270972D02*
X154861904Y-107556686D01*
X154861904Y-107556686D02*
X154814285Y-107651924D01*
X154814285Y-107651924D02*
X154766666Y-107699544D01*
X154766666Y-107699544D02*
X154671428Y-107747163D01*
X154671428Y-107747163D02*
X154528571Y-107747163D01*
X155719047Y-107747163D02*
X155719047Y-106747163D01*
X155719047Y-107699544D02*
X155623809Y-107747163D01*
X155623809Y-107747163D02*
X155433333Y-107747163D01*
X155433333Y-107747163D02*
X155338095Y-107699544D01*
X155338095Y-107699544D02*
X155290476Y-107651924D01*
X155290476Y-107651924D02*
X155242857Y-107556686D01*
X155242857Y-107556686D02*
X155242857Y-107270972D01*
X155242857Y-107270972D02*
X155290476Y-107175734D01*
X155290476Y-107175734D02*
X155338095Y-107128115D01*
X155338095Y-107128115D02*
X155433333Y-107080496D01*
X155433333Y-107080496D02*
X155623809Y-107080496D01*
X155623809Y-107080496D02*
X155719047Y-107128115D01*
X156576190Y-107699544D02*
X156480952Y-107747163D01*
X156480952Y-107747163D02*
X156290476Y-107747163D01*
X156290476Y-107747163D02*
X156195238Y-107699544D01*
X156195238Y-107699544D02*
X156147619Y-107604305D01*
X156147619Y-107604305D02*
X156147619Y-107223353D01*
X156147619Y-107223353D02*
X156195238Y-107128115D01*
X156195238Y-107128115D02*
X156290476Y-107080496D01*
X156290476Y-107080496D02*
X156480952Y-107080496D01*
X156480952Y-107080496D02*
X156576190Y-107128115D01*
X156576190Y-107128115D02*
X156623809Y-107223353D01*
X156623809Y-107223353D02*
X156623809Y-107318591D01*
X156623809Y-107318591D02*
X156147619Y-107413829D01*
X157052381Y-107747163D02*
X157052381Y-106747163D01*
X157052381Y-106747163D02*
X157385714Y-107461448D01*
X157385714Y-107461448D02*
X157719047Y-106747163D01*
X157719047Y-106747163D02*
X157719047Y-107747163D01*
X158766666Y-107651924D02*
X158719047Y-107699544D01*
X158719047Y-107699544D02*
X158576190Y-107747163D01*
X158576190Y-107747163D02*
X158480952Y-107747163D01*
X158480952Y-107747163D02*
X158338095Y-107699544D01*
X158338095Y-107699544D02*
X158242857Y-107604305D01*
X158242857Y-107604305D02*
X158195238Y-107509067D01*
X158195238Y-107509067D02*
X158147619Y-107318591D01*
X158147619Y-107318591D02*
X158147619Y-107175734D01*
X158147619Y-107175734D02*
X158195238Y-106985258D01*
X158195238Y-106985258D02*
X158242857Y-106890020D01*
X158242857Y-106890020D02*
X158338095Y-106794782D01*
X158338095Y-106794782D02*
X158480952Y-106747163D01*
X158480952Y-106747163D02*
X158576190Y-106747163D01*
X158576190Y-106747163D02*
X158719047Y-106794782D01*
X158719047Y-106794782D02*
X158766666Y-106842401D01*
X159195238Y-106747163D02*
X159195238Y-107556686D01*
X159195238Y-107556686D02*
X159242857Y-107651924D01*
X159242857Y-107651924D02*
X159290476Y-107699544D01*
X159290476Y-107699544D02*
X159385714Y-107747163D01*
X159385714Y-107747163D02*
X159576190Y-107747163D01*
X159576190Y-107747163D02*
X159671428Y-107699544D01*
X159671428Y-107699544D02*
X159719047Y-107651924D01*
X159719047Y-107651924D02*
X159766666Y-107556686D01*
X159766666Y-107556686D02*
X159766666Y-106747163D01*
X160242857Y-107366210D02*
X161004762Y-107366210D01*
X161385714Y-106747163D02*
X162004761Y-106747163D01*
X162004761Y-106747163D02*
X161671428Y-107128115D01*
X161671428Y-107128115D02*
X161814285Y-107128115D01*
X161814285Y-107128115D02*
X161909523Y-107175734D01*
X161909523Y-107175734D02*
X161957142Y-107223353D01*
X161957142Y-107223353D02*
X162004761Y-107318591D01*
X162004761Y-107318591D02*
X162004761Y-107556686D01*
X162004761Y-107556686D02*
X161957142Y-107651924D01*
X161957142Y-107651924D02*
X161909523Y-107699544D01*
X161909523Y-107699544D02*
X161814285Y-107747163D01*
X161814285Y-107747163D02*
X161528571Y-107747163D01*
X161528571Y-107747163D02*
X161433333Y-107699544D01*
X161433333Y-107699544D02*
X161385714Y-107651924D01*
X162385714Y-106842401D02*
X162433333Y-106794782D01*
X162433333Y-106794782D02*
X162528571Y-106747163D01*
X162528571Y-106747163D02*
X162766666Y-106747163D01*
X162766666Y-106747163D02*
X162861904Y-106794782D01*
X162861904Y-106794782D02*
X162909523Y-106842401D01*
X162909523Y-106842401D02*
X162957142Y-106937639D01*
X162957142Y-106937639D02*
X162957142Y-107032877D01*
X162957142Y-107032877D02*
X162909523Y-107175734D01*
X162909523Y-107175734D02*
X162338095Y-107747163D01*
X162338095Y-107747163D02*
X162957142Y-107747163D01*
X163338095Y-107699544D02*
X163480952Y-107747163D01*
X163480952Y-107747163D02*
X163719047Y-107747163D01*
X163719047Y-107747163D02*
X163814285Y-107699544D01*
X163814285Y-107699544D02*
X163861904Y-107651924D01*
X163861904Y-107651924D02*
X163909523Y-107556686D01*
X163909523Y-107556686D02*
X163909523Y-107461448D01*
X163909523Y-107461448D02*
X163861904Y-107366210D01*
X163861904Y-107366210D02*
X163814285Y-107318591D01*
X163814285Y-107318591D02*
X163719047Y-107270972D01*
X163719047Y-107270972D02*
X163528571Y-107223353D01*
X163528571Y-107223353D02*
X163433333Y-107175734D01*
X163433333Y-107175734D02*
X163385714Y-107128115D01*
X163385714Y-107128115D02*
X163338095Y-107032877D01*
X163338095Y-107032877D02*
X163338095Y-106937639D01*
X163338095Y-106937639D02*
X163385714Y-106842401D01*
X163385714Y-106842401D02*
X163433333Y-106794782D01*
X163433333Y-106794782D02*
X163528571Y-106747163D01*
X163528571Y-106747163D02*
X163766666Y-106747163D01*
X163766666Y-106747163D02*
X163909523Y-106794782D01*
X157171429Y-108690440D02*
X157409524Y-109357107D01*
X157409524Y-109357107D02*
X157647619Y-108690440D01*
X158219048Y-108357107D02*
X158314286Y-108357107D01*
X158314286Y-108357107D02*
X158409524Y-108404726D01*
X158409524Y-108404726D02*
X158457143Y-108452345D01*
X158457143Y-108452345D02*
X158504762Y-108547583D01*
X158504762Y-108547583D02*
X158552381Y-108738059D01*
X158552381Y-108738059D02*
X158552381Y-108976154D01*
X158552381Y-108976154D02*
X158504762Y-109166630D01*
X158504762Y-109166630D02*
X158457143Y-109261868D01*
X158457143Y-109261868D02*
X158409524Y-109309488D01*
X158409524Y-109309488D02*
X158314286Y-109357107D01*
X158314286Y-109357107D02*
X158219048Y-109357107D01*
X158219048Y-109357107D02*
X158123810Y-109309488D01*
X158123810Y-109309488D02*
X158076191Y-109261868D01*
X158076191Y-109261868D02*
X158028572Y-109166630D01*
X158028572Y-109166630D02*
X157980953Y-108976154D01*
X157980953Y-108976154D02*
X157980953Y-108738059D01*
X157980953Y-108738059D02*
X158028572Y-108547583D01*
X158028572Y-108547583D02*
X158076191Y-108452345D01*
X158076191Y-108452345D02*
X158123810Y-108404726D01*
X158123810Y-108404726D02*
X158219048Y-108357107D01*
X158980953Y-109261868D02*
X159028572Y-109309488D01*
X159028572Y-109309488D02*
X158980953Y-109357107D01*
X158980953Y-109357107D02*
X158933334Y-109309488D01*
X158933334Y-109309488D02*
X158980953Y-109261868D01*
X158980953Y-109261868D02*
X158980953Y-109357107D01*
X159980952Y-109357107D02*
X159409524Y-109357107D01*
X159695238Y-109357107D02*
X159695238Y-108357107D01*
X159695238Y-108357107D02*
X159600000Y-108499964D01*
X159600000Y-108499964D02*
X159504762Y-108595202D01*
X159504762Y-108595202D02*
X159409524Y-108642821D01*
D12*
%TO.P,J_SW_1,1,Pin_1*%
%TO.N,SW1*%
X143246800Y-91878800D03*
D13*
%TO.P,J_SW_1,2,Pin_2*%
%TO.N,SW2*%
X143246800Y-94378800D03*
%TO.P,J_SW_1,3,Pin_3*%
%TO.N,SW3*%
X143246800Y-96878800D03*
%TO.P,J_SW_1,4,Pin_4*%
%TO.N,GND*%
X143246800Y-99378800D03*
%TD*%
D14*
%TO.P,J_DP_1,1,Pin_1*%
%TO.N,+3.3V*%
X169946800Y-85983800D03*
D15*
%TO.P,J_DP_1,2,Pin_2*%
%TO.N,Display_SCK*%
X169946800Y-83443800D03*
%TO.P,J_DP_1,3,Pin_3*%
%TO.N,Display_SDA*%
X169946800Y-80903800D03*
%TO.P,J_DP_1,4,Pin_4*%
%TO.N,Display_A0*%
X169946800Y-78363800D03*
%TO.P,J_DP_1,5,Pin_5*%
%TO.N,Display_RESET*%
X169946800Y-75823800D03*
%TO.P,J_DP_1,6,Pin_6*%
%TO.N,Display_CS*%
X169946800Y-73283800D03*
%TO.P,J_DP_1,7,Pin_7*%
%TO.N,GND*%
X169946800Y-70743800D03*
%TO.P,J_DP_1,8,Pin_8*%
%TO.N,+5V*%
X169946800Y-68203800D03*
%TD*%
D16*
%TO.P,U2,1,DIN*%
%TO.N,MAX98357A_DIN*%
X154240000Y-85603800D03*
%TO.P,U2,2,GAIN_SLOT*%
%TO.N,GND*%
X156780000Y-85603800D03*
%TO.P,U2,3,GND*%
X161860000Y-85603800D03*
%TO.P,U2,4,~{SD_MODE}*%
%TO.N,unconnected-(U2-~{SD_MODE}-Pad4)*%
X159320000Y-85603800D03*
%TO.P,U2,5,VDD*%
%TO.N,+5V*%
X164400000Y-85603800D03*
%TO.P,U2,6,LRCLK*%
%TO.N,MAX98357A_LRCLK*%
X149160000Y-85603800D03*
%TO.P,U2,7,BCLK*%
%TO.N,MAX98357A_BCLK*%
X151700000Y-85603800D03*
%TD*%
D17*
%TO.P,J_SC_1,1,Pin_1*%
%TO.N,+3.3V*%
X142196800Y-133603800D03*
D13*
%TO.P,J_SC_1,2,Pin_2*%
%TO.N,HX711_1_DAT*%
X142196800Y-131103800D03*
%TO.P,J_SC_1,3,Pin_3*%
%TO.N,HX711_1_CLK*%
X142196800Y-128603800D03*
%TO.P,J_SC_1,4,Pin_4*%
%TO.N,GND*%
X142196800Y-126103800D03*
%TD*%
D12*
%TO.P,J_SW_2,1,Pin_1*%
%TO.N,+3.3V*%
X143246800Y-70603800D03*
D13*
%TO.P,J_SW_2,2,Pin_2*%
%TO.N,SW4*%
X143246800Y-73103800D03*
%TO.P,J_SW_2,3,Pin_3*%
%TO.N,SW5*%
X143246800Y-75603800D03*
%TO.P,J_SW_2,4,Pin_4*%
%TO.N,SW6*%
X143246800Y-78103800D03*
%TO.P,J_SW_2,5,Pin_5*%
%TO.N,GND*%
X143246800Y-80603800D03*
%TD*%
D18*
%TO.P,U1,J1_1,3.3V*%
%TO.N,+3.3V*%
X147784400Y-90451800D03*
%TO.P,U1,J1_2,EN*%
%TO.N,unconnected-(U1-EN-PadJ1_2)*%
X147784400Y-92991800D03*
%TO.P,U1,J1_3,IO36*%
%TO.N,SW4*%
X147784400Y-95531800D03*
%TO.P,U1,J1_4,IO39*%
%TO.N,SW5*%
X147784400Y-98071800D03*
%TO.P,U1,J1_5,IO34*%
%TO.N,unconnected-(U1-IO34-PadJ1_5)*%
X147784400Y-100611800D03*
%TO.P,U1,J1_6,IO35*%
%TO.N,SW6*%
X147784400Y-103151800D03*
%TO.P,U1,J1_7,IO32*%
%TO.N,unconnected-(U1-IO32-PadJ1_7)*%
X147784400Y-105691800D03*
%TO.P,U1,J1_8,IO33*%
%TO.N,unconnected-(U1-IO33-PadJ1_8)*%
X147784400Y-108231800D03*
%TO.P,U1,J1_9,IO25*%
%TO.N,MAX98357A_LRCLK*%
X147784400Y-110771800D03*
%TO.P,U1,J1_10,IO26*%
%TO.N,MAX98357A_BCLK*%
X147784400Y-113311800D03*
%TO.P,U1,J1_11,IO27*%
%TO.N,SW2*%
X147784400Y-115851800D03*
%TO.P,U1,J1_12,IO14*%
%TO.N,Display_RESET*%
X147784400Y-118391800D03*
%TO.P,U1,J1_13,IO12*%
%TO.N,unconnected-(U1-IO12-PadJ1_13)*%
X147784400Y-120931800D03*
%TO.P,U1,J1_14,GND*%
%TO.N,GND*%
X147784400Y-123471800D03*
%TO.P,U1,J1_15,IO13*%
%TO.N,SW3*%
X147784400Y-126011800D03*
%TO.P,U1,J1_16,IO9*%
%TO.N,unconnected-(U1-IO9-PadJ1_16)*%
X147784400Y-128551800D03*
%TO.P,U1,J1_17,IO10*%
%TO.N,unconnected-(U1-IO10-PadJ1_17)*%
X147784400Y-131091800D03*
%TO.P,U1,J1_18,IO11*%
%TO.N,unconnected-(U1-IO11-PadJ1_18)*%
X147784400Y-133631800D03*
%TO.P,U1,J1_19,5V*%
%TO.N,+5V*%
X147784400Y-136171800D03*
%TO.P,U1,J2_1,GND*%
%TO.N,GND*%
X170644400Y-90451800D03*
%TO.P,U1,J2_2,IO23*%
%TO.N,Display_SDA*%
X170644400Y-92991800D03*
%TO.P,U1,J2_3,IO22*%
%TO.N,MAX98357A_DIN*%
X170644400Y-95531800D03*
%TO.P,U1,J2_4,TX0*%
%TO.N,unconnected-(U1-TX0-PadJ2_4)*%
X170644400Y-98071800D03*
%TO.P,U1,J2_5,RX0*%
%TO.N,unconnected-(U1-RX0-PadJ2_5)*%
X170644400Y-100611800D03*
%TO.P,U1,J2_6,IO21*%
%TO.N,SW1*%
X170644400Y-103151800D03*
%TO.P,U1,J2_7,GND*%
%TO.N,GND*%
X170644400Y-105691800D03*
%TO.P,U1,J2_8,IO19*%
%TO.N,unconnected-(U1-IO19-PadJ2_8)*%
X170644400Y-108231800D03*
%TO.P,U1,J2_9,IO18*%
%TO.N,Display_SCK*%
X170644400Y-110771800D03*
%TO.P,U1,J2_10,IO5*%
%TO.N,HX711_1_DAT*%
X170644400Y-113311800D03*
%TO.P,U1,J2_11,IO17*%
%TO.N,Display_CS*%
X170644400Y-115851800D03*
%TO.P,U1,J2_12,IO16*%
%TO.N,HX711_2_DAT*%
X170644400Y-118391800D03*
%TO.P,U1,J2_13,IO4*%
%TO.N,HX711_1_CLK*%
X170644400Y-120931800D03*
%TO.P,U1,J2_14,IO0*%
%TO.N,unconnected-(U1-IO0-PadJ2_14)*%
X170644400Y-123471800D03*
%TO.P,U1,J2_15,IO2*%
%TO.N,Display_A0*%
X170644400Y-126011800D03*
%TO.P,U1,J2_16,IO15*%
%TO.N,HX711_2_CLK*%
X170644400Y-128551800D03*
%TO.P,U1,J2_17,IO8*%
%TO.N,unconnected-(U1-IO8-PadJ2_17)*%
X170644400Y-131091800D03*
%TO.P,U1,J2_18,IO7*%
%TO.N,unconnected-(U1-IO7-PadJ2_18)*%
X170644400Y-133631800D03*
%TO.P,U1,J2_19,IO6*%
%TO.N,unconnected-(U1-IO6-PadJ2_19)*%
X170644400Y-136171800D03*
%TD*%
D17*
%TO.P,J_SC_2,1,Pin_1*%
%TO.N,+3.3V*%
X142196800Y-115853800D03*
D13*
%TO.P,J_SC_2,2,Pin_2*%
%TO.N,HX711_2_DAT*%
X142196800Y-113353800D03*
%TO.P,J_SC_2,3,Pin_3*%
%TO.N,HX711_2_CLK*%
X142196800Y-110853800D03*
%TO.P,J_SC_2,4,Pin_4*%
%TO.N,GND*%
X142196800Y-108353800D03*
%TD*%
D19*
%TO.N,+5V*%
X169946800Y-68203800D02*
X164400000Y-73750600D01*
X164400000Y-73750600D02*
X164400000Y-85603800D01*
D20*
%TO.N,HX711_1_DAT*%
X143246800Y-132153800D02*
X171196800Y-132153800D01*
X172146800Y-131203800D02*
X172146800Y-114814200D01*
X172146800Y-114814200D02*
X170644400Y-113311800D01*
X171196800Y-132153800D02*
X172146800Y-131203800D01*
X142196800Y-131103800D02*
X143246800Y-132153800D01*
%TO.N,HX711_1_CLK*%
X142196800Y-128603800D02*
X143310800Y-127489800D01*
X164086400Y-127489800D02*
X170644400Y-120931800D01*
X143310800Y-127489800D02*
X164086400Y-127489800D01*
%TO.N,HX711_2_CLK*%
X171746800Y-117992305D02*
X171746800Y-127449400D01*
X142196800Y-110853800D02*
X143176800Y-111833800D01*
X171084295Y-117329800D02*
X171746800Y-117992305D01*
X143176800Y-111833800D02*
X164976800Y-111833800D01*
X170472800Y-117329800D02*
X171084295Y-117329800D01*
X164976800Y-111833800D02*
X170472800Y-117329800D01*
X171746800Y-127449400D02*
X170644400Y-128551800D01*
%TO.N,HX711_2_DAT*%
X142196800Y-113353800D02*
X143300800Y-112249800D01*
X164502400Y-112249800D02*
X170644400Y-118391800D01*
X143300800Y-112249800D02*
X164502400Y-112249800D01*
%TO.N,MAX98357A_DIN*%
X154240000Y-88397000D02*
X161374800Y-95531800D01*
X161374800Y-95531800D02*
X170644400Y-95531800D01*
X154240000Y-85603800D02*
X154240000Y-88397000D01*
D19*
%TO.N,+3.3V*%
X143246800Y-70603800D02*
X147196800Y-66653800D01*
X140521800Y-73328800D02*
X140521800Y-107803800D01*
X140521800Y-114178800D02*
X142196800Y-115853800D01*
X145546800Y-92689400D02*
X145546800Y-101003800D01*
X140521800Y-131928800D02*
X140521800Y-117528800D01*
X140521800Y-106028800D02*
X140521800Y-107803800D01*
X147196800Y-66653800D02*
X170588832Y-66653800D01*
X140521800Y-117528800D02*
X142196800Y-115853800D01*
X145546800Y-101003800D02*
X140521800Y-106028800D01*
X140521800Y-107803800D02*
X140521800Y-114178800D01*
X171546800Y-67611768D02*
X171546800Y-84383800D01*
X143246800Y-70603800D02*
X140521800Y-73328800D01*
X142196800Y-133603800D02*
X140521800Y-131928800D01*
X147784400Y-90451800D02*
X145546800Y-92689400D01*
X170588832Y-66653800D02*
X171546800Y-67611768D01*
X171546800Y-84383800D02*
X169946800Y-85983800D01*
D20*
%TO.N,SW1*%
X145735800Y-89389800D02*
X152232800Y-89389800D01*
X143246800Y-91878800D02*
X145735800Y-89389800D01*
X152232800Y-89389800D02*
X165994800Y-103151800D01*
X165994800Y-103151800D02*
X170644400Y-103151800D01*
%TD*%
%TA.AperFunction,Conductor*%
%TO.N,GND*%
G36*
X146506461Y-112869985D02*
G01*
X146552216Y-112922789D01*
X146562160Y-112991947D01*
X146559198Y-113006385D01*
X146550847Y-113037556D01*
X146536330Y-113091730D01*
X146536329Y-113091737D01*
X146517077Y-113311797D01*
X146517077Y-113311802D01*
X146536329Y-113531862D01*
X146536330Y-113531870D01*
X146593504Y-113745245D01*
X146593505Y-113745247D01*
X146593506Y-113745250D01*
X146652709Y-113872212D01*
X146686866Y-113945462D01*
X146686868Y-113945466D01*
X146813570Y-114126415D01*
X146813575Y-114126421D01*
X146969778Y-114282624D01*
X146969784Y-114282629D01*
X147150733Y-114409331D01*
X147150735Y-114409332D01*
X147150738Y-114409334D01*
X147270148Y-114465015D01*
X147279589Y-114469418D01*
X147332028Y-114515590D01*
X147351180Y-114582784D01*
X147330964Y-114649665D01*
X147279589Y-114694182D01*
X147150740Y-114754265D01*
X147150738Y-114754266D01*
X146969777Y-114880975D01*
X146813575Y-115037177D01*
X146686866Y-115218138D01*
X146686865Y-115218140D01*
X146593507Y-115418348D01*
X146593504Y-115418354D01*
X146536330Y-115631729D01*
X146536329Y-115631737D01*
X146517077Y-115851797D01*
X146517077Y-115851802D01*
X146536329Y-116071862D01*
X146536330Y-116071870D01*
X146593504Y-116285245D01*
X146593505Y-116285247D01*
X146593506Y-116285250D01*
X146686866Y-116485462D01*
X146686868Y-116485466D01*
X146813570Y-116666415D01*
X146813575Y-116666421D01*
X146969778Y-116822624D01*
X146969784Y-116822629D01*
X147150733Y-116949331D01*
X147150735Y-116949332D01*
X147150738Y-116949334D01*
X147270148Y-117005015D01*
X147279589Y-117009418D01*
X147332028Y-117055590D01*
X147351180Y-117122784D01*
X147330964Y-117189665D01*
X147279589Y-117234182D01*
X147150740Y-117294265D01*
X147150738Y-117294266D01*
X146969777Y-117420975D01*
X146813575Y-117577177D01*
X146686866Y-117758138D01*
X146686865Y-117758140D01*
X146593507Y-117958348D01*
X146593504Y-117958354D01*
X146536330Y-118171729D01*
X146536329Y-118171737D01*
X146517077Y-118391797D01*
X146517077Y-118391802D01*
X146536329Y-118611862D01*
X146536330Y-118611870D01*
X146593504Y-118825245D01*
X146593505Y-118825247D01*
X146593506Y-118825250D01*
X146686866Y-119025462D01*
X146686868Y-119025466D01*
X146813570Y-119206415D01*
X146813575Y-119206421D01*
X146969778Y-119362624D01*
X146969784Y-119362629D01*
X147150733Y-119489331D01*
X147150735Y-119489332D01*
X147150738Y-119489334D01*
X147270148Y-119545015D01*
X147279589Y-119549418D01*
X147332028Y-119595590D01*
X147351180Y-119662784D01*
X147330964Y-119729665D01*
X147279589Y-119774182D01*
X147150740Y-119834265D01*
X147150738Y-119834266D01*
X146969777Y-119960975D01*
X146813575Y-120117177D01*
X146686866Y-120298138D01*
X146686865Y-120298140D01*
X146593507Y-120498348D01*
X146593504Y-120498354D01*
X146536330Y-120711729D01*
X146536329Y-120711737D01*
X146517077Y-120931797D01*
X146517077Y-120931802D01*
X146536329Y-121151862D01*
X146536330Y-121151870D01*
X146593504Y-121365245D01*
X146593505Y-121365247D01*
X146593506Y-121365250D01*
X146686866Y-121565462D01*
X146686868Y-121565466D01*
X146813570Y-121746415D01*
X146813575Y-121746421D01*
X146969778Y-121902624D01*
X146969784Y-121902629D01*
X147150733Y-122029331D01*
X147150735Y-122029332D01*
X147150738Y-122029334D01*
X147280181Y-122089694D01*
X147332620Y-122135866D01*
X147351772Y-122203060D01*
X147331556Y-122269941D01*
X147280181Y-122314458D01*
X147150990Y-122374701D01*
X147086211Y-122420058D01*
X147648457Y-122982304D01*
X147588319Y-122998419D01*
X147472480Y-123065298D01*
X147377898Y-123159880D01*
X147311019Y-123275719D01*
X147294904Y-123335857D01*
X146732658Y-122773611D01*
X146687301Y-122838390D01*
X146593979Y-123038520D01*
X146593975Y-123038529D01*
X146536826Y-123251813D01*
X146536824Y-123251823D01*
X146517579Y-123471799D01*
X146517579Y-123471800D01*
X146536824Y-123691776D01*
X146536826Y-123691786D01*
X146593975Y-123905070D01*
X146593980Y-123905084D01*
X146687298Y-124105205D01*
X146687301Y-124105211D01*
X146732658Y-124169987D01*
X146732659Y-124169988D01*
X147294904Y-123607742D01*
X147311019Y-123667881D01*
X147377898Y-123783720D01*
X147472480Y-123878302D01*
X147588319Y-123945181D01*
X147648457Y-123961294D01*
X147086210Y-124523540D01*
X147150989Y-124568898D01*
X147280181Y-124629142D01*
X147332620Y-124675314D01*
X147351772Y-124742508D01*
X147331556Y-124809389D01*
X147280181Y-124853906D01*
X147150740Y-124914265D01*
X147150738Y-124914266D01*
X146969777Y-125040975D01*
X146813575Y-125197177D01*
X146686866Y-125378138D01*
X146686865Y-125378140D01*
X146593507Y-125578348D01*
X146593504Y-125578354D01*
X146536330Y-125791729D01*
X146536329Y-125791737D01*
X146517077Y-126011797D01*
X146517077Y-126011802D01*
X146536329Y-126231862D01*
X146536330Y-126231870D01*
X146593504Y-126445245D01*
X146593505Y-126445247D01*
X146593506Y-126445250D01*
X146686866Y-126645462D01*
X146686868Y-126645466D01*
X146720976Y-126694177D01*
X146743303Y-126760383D01*
X146726293Y-126828150D01*
X146675344Y-126875963D01*
X146619401Y-126889300D01*
X143639058Y-126889300D01*
X143572019Y-126869615D01*
X143526264Y-126816811D01*
X143516320Y-126747653D01*
X143528573Y-126709005D01*
X143572895Y-126622017D01*
X143638557Y-126419929D01*
X143638557Y-126419926D01*
X143649031Y-126353800D01*
X142600946Y-126353800D01*
X142639430Y-126287143D01*
X142671800Y-126166335D01*
X142671800Y-126041265D01*
X142639430Y-125920457D01*
X142600946Y-125853800D01*
X143649031Y-125853800D01*
X143638557Y-125787673D01*
X143638557Y-125787670D01*
X143572895Y-125585582D01*
X143476420Y-125396242D01*
X143351527Y-125224340D01*
X143351523Y-125224335D01*
X143201264Y-125074076D01*
X143201259Y-125074072D01*
X143029357Y-124949179D01*
X142840017Y-124852704D01*
X142637928Y-124787042D01*
X142446800Y-124756769D01*
X142446800Y-125699654D01*
X142380143Y-125661170D01*
X142259335Y-125628800D01*
X142134265Y-125628800D01*
X142013457Y-125661170D01*
X141946800Y-125699654D01*
X141946800Y-124756769D01*
X141755672Y-124787042D01*
X141755665Y-124787043D01*
X141684617Y-124810128D01*
X141614776Y-124812123D01*
X141554943Y-124776042D01*
X141524116Y-124713341D01*
X141522300Y-124692197D01*
X141522300Y-117994582D01*
X141541985Y-117927543D01*
X141558619Y-117906901D01*
X142224902Y-117240618D01*
X142286225Y-117207133D01*
X142312583Y-117204299D01*
X142971802Y-117204299D01*
X142971808Y-117204299D01*
X143074597Y-117193799D01*
X143241134Y-117138614D01*
X143390456Y-117046512D01*
X143514512Y-116922456D01*
X143606614Y-116773134D01*
X143661799Y-116606597D01*
X143672300Y-116503809D01*
X143672299Y-115203792D01*
X143661799Y-115101003D01*
X143606614Y-114934466D01*
X143514512Y-114785144D01*
X143390456Y-114661088D01*
X143241134Y-114568986D01*
X143241133Y-114568985D01*
X143235678Y-114565621D01*
X143188954Y-114513673D01*
X143177731Y-114444710D01*
X143205575Y-114380628D01*
X143213072Y-114372423D01*
X143351904Y-114233592D01*
X143476851Y-114061616D01*
X143573357Y-113872212D01*
X143639046Y-113670043D01*
X143672300Y-113460087D01*
X143672300Y-113247513D01*
X143639046Y-113037557D01*
X143630942Y-113012618D01*
X143628946Y-112942779D01*
X143665026Y-112882945D01*
X143727726Y-112852116D01*
X143748873Y-112850300D01*
X146439422Y-112850300D01*
X146506461Y-112869985D01*
G37*
%TD.AperFunction*%
%TA.AperFunction,Conductor*%
G36*
X164269342Y-112869985D02*
G01*
X164289984Y-112886619D01*
X169383484Y-117980120D01*
X169416969Y-118041443D01*
X169415578Y-118099893D01*
X169396332Y-118171724D01*
X169396329Y-118171738D01*
X169377077Y-118391797D01*
X169377077Y-118391802D01*
X169396329Y-118611862D01*
X169396330Y-118611870D01*
X169453504Y-118825245D01*
X169453505Y-118825247D01*
X169453506Y-118825250D01*
X169546866Y-119025462D01*
X169546868Y-119025466D01*
X169673570Y-119206415D01*
X169673575Y-119206421D01*
X169829778Y-119362624D01*
X169829784Y-119362629D01*
X170010733Y-119489331D01*
X170010735Y-119489332D01*
X170010738Y-119489334D01*
X170130148Y-119545015D01*
X170139589Y-119549418D01*
X170192028Y-119595590D01*
X170211180Y-119662784D01*
X170190964Y-119729665D01*
X170139589Y-119774182D01*
X170010740Y-119834265D01*
X170010738Y-119834266D01*
X169829777Y-119960975D01*
X169673575Y-120117177D01*
X169546866Y-120298138D01*
X169546865Y-120298140D01*
X169453507Y-120498348D01*
X169453504Y-120498354D01*
X169396330Y-120711729D01*
X169396329Y-120711737D01*
X169377077Y-120931797D01*
X169377077Y-120931800D01*
X169396329Y-121151862D01*
X169396330Y-121151866D01*
X169396330Y-121151870D01*
X169415578Y-121223704D01*
X169413915Y-121293554D01*
X169383484Y-121343478D01*
X163873984Y-126852981D01*
X163812661Y-126886466D01*
X163786303Y-126889300D01*
X148949399Y-126889300D01*
X148882360Y-126869615D01*
X148836605Y-126816811D01*
X148826661Y-126747653D01*
X148847824Y-126694177D01*
X148881931Y-126645466D01*
X148881930Y-126645466D01*
X148881934Y-126645462D01*
X148975294Y-126445250D01*
X149032470Y-126231868D01*
X149051723Y-126011800D01*
X149032470Y-125791732D01*
X148975294Y-125578350D01*
X148881934Y-125378139D01*
X148755226Y-125197180D01*
X148599020Y-125040974D01*
X148599016Y-125040971D01*
X148599015Y-125040970D01*
X148418066Y-124914268D01*
X148418062Y-124914266D01*
X148288618Y-124853905D01*
X148236179Y-124807732D01*
X148217027Y-124740539D01*
X148237243Y-124673658D01*
X148288619Y-124629140D01*
X148417816Y-124568895D01*
X148417817Y-124568894D01*
X148482588Y-124523541D01*
X147920342Y-123961294D01*
X147980481Y-123945181D01*
X148096320Y-123878302D01*
X148190902Y-123783720D01*
X148257781Y-123667881D01*
X148273895Y-123607742D01*
X148836141Y-124169988D01*
X148881494Y-124105217D01*
X148881500Y-124105207D01*
X148974819Y-123905084D01*
X148974824Y-123905070D01*
X149031973Y-123691786D01*
X149031975Y-123691776D01*
X149051221Y-123471800D01*
X149051221Y-123471799D01*
X149031975Y-123251823D01*
X149031973Y-123251813D01*
X148974824Y-123038529D01*
X148974820Y-123038520D01*
X148881496Y-122838386D01*
X148836141Y-122773611D01*
X148836140Y-122773610D01*
X148273894Y-123335856D01*
X148257781Y-123275719D01*
X148190902Y-123159880D01*
X148096320Y-123065298D01*
X147980481Y-122998419D01*
X147920342Y-122982305D01*
X148482588Y-122420059D01*
X148482587Y-122420058D01*
X148417811Y-122374701D01*
X148417805Y-122374698D01*
X148288619Y-122314458D01*
X148236179Y-122268286D01*
X148217027Y-122201093D01*
X148237243Y-122134211D01*
X148288619Y-122089694D01*
X148418062Y-122029334D01*
X148599020Y-121902626D01*
X148755226Y-121746420D01*
X148881934Y-121565462D01*
X148975294Y-121365250D01*
X149032470Y-121151868D01*
X149051723Y-120931800D01*
X149032470Y-120711732D01*
X148975294Y-120498350D01*
X148881934Y-120298139D01*
X148755226Y-120117180D01*
X148599020Y-119960974D01*
X148599016Y-119960971D01*
X148599015Y-119960970D01*
X148418066Y-119834268D01*
X148418058Y-119834264D01*
X148289211Y-119774182D01*
X148236771Y-119728010D01*
X148217619Y-119660817D01*
X148237835Y-119593935D01*
X148289211Y-119549418D01*
X148295202Y-119546624D01*
X148418062Y-119489334D01*
X148599020Y-119362626D01*
X148755226Y-119206420D01*
X148881934Y-119025462D01*
X148975294Y-118825250D01*
X149032470Y-118611868D01*
X149051723Y-118391800D01*
X149032470Y-118171732D01*
X148975294Y-117958350D01*
X148881934Y-117758139D01*
X148755226Y-117577180D01*
X148599020Y-117420974D01*
X148599016Y-117420971D01*
X148599015Y-117420970D01*
X148418066Y-117294268D01*
X148418058Y-117294264D01*
X148289211Y-117234182D01*
X148236771Y-117188010D01*
X148217619Y-117120817D01*
X148237835Y-117053935D01*
X148289211Y-117009418D01*
X148295202Y-117006624D01*
X148418062Y-116949334D01*
X148599020Y-116822626D01*
X148755226Y-116666420D01*
X148881934Y-116485462D01*
X148975294Y-116285250D01*
X149032470Y-116071868D01*
X149051723Y-115851800D01*
X149032470Y-115631732D01*
X148975294Y-115418350D01*
X148881934Y-115218139D01*
X148755226Y-115037180D01*
X148599020Y-114880974D01*
X148599016Y-114880971D01*
X148599015Y-114880970D01*
X148418066Y-114754268D01*
X148418058Y-114754264D01*
X148289211Y-114694182D01*
X148236771Y-114648010D01*
X148217619Y-114580817D01*
X148237835Y-114513935D01*
X148289211Y-114469418D01*
X148295202Y-114466624D01*
X148418062Y-114409334D01*
X148599020Y-114282626D01*
X148755226Y-114126420D01*
X148881934Y-113945462D01*
X148975294Y-113745250D01*
X149032470Y-113531868D01*
X149051723Y-113311800D01*
X149032470Y-113091732D01*
X149009603Y-113006392D01*
X149011266Y-112936544D01*
X149050428Y-112878681D01*
X149114656Y-112851177D01*
X149129378Y-112850300D01*
X164202303Y-112850300D01*
X164269342Y-112869985D01*
G37*
%TD.AperFunction*%
%TA.AperFunction,Conductor*%
G36*
X151999742Y-90009985D02*
G01*
X152020384Y-90026619D01*
X165509939Y-103516174D01*
X165509949Y-103516185D01*
X165514279Y-103520515D01*
X165514280Y-103520516D01*
X165626084Y-103632320D01*
X165712895Y-103682439D01*
X165712897Y-103682441D01*
X165750951Y-103704411D01*
X165763015Y-103711377D01*
X165915743Y-103752301D01*
X165915746Y-103752301D01*
X166081453Y-103752301D01*
X166081469Y-103752300D01*
X169459095Y-103752300D01*
X169526134Y-103771985D01*
X169560670Y-103805177D01*
X169644287Y-103924594D01*
X169673570Y-103966415D01*
X169673575Y-103966421D01*
X169829778Y-104122624D01*
X169829784Y-104122629D01*
X170010733Y-104249331D01*
X170010735Y-104249332D01*
X170010738Y-104249334D01*
X170139589Y-104309418D01*
X170140181Y-104309694D01*
X170192620Y-104355866D01*
X170211772Y-104423060D01*
X170191556Y-104489941D01*
X170140181Y-104534458D01*
X170010990Y-104594701D01*
X169946211Y-104640058D01*
X170508457Y-105202304D01*
X170448319Y-105218419D01*
X170332480Y-105285298D01*
X170237898Y-105379880D01*
X170171019Y-105495719D01*
X170154904Y-105555857D01*
X169592658Y-104993611D01*
X169547301Y-105058390D01*
X169453979Y-105258520D01*
X169453975Y-105258529D01*
X169396826Y-105471813D01*
X169396824Y-105471823D01*
X169377579Y-105691799D01*
X169377579Y-105691800D01*
X169396824Y-105911776D01*
X169396826Y-105911786D01*
X169453975Y-106125070D01*
X169453980Y-106125084D01*
X169547298Y-106325205D01*
X169547301Y-106325211D01*
X169592658Y-106389987D01*
X169592659Y-106389988D01*
X170154904Y-105827742D01*
X170171019Y-105887881D01*
X170237898Y-106003720D01*
X170332480Y-106098302D01*
X170448319Y-106165181D01*
X170508457Y-106181294D01*
X169946210Y-106743540D01*
X170010989Y-106788898D01*
X170140181Y-106849142D01*
X170192620Y-106895314D01*
X170211772Y-106962508D01*
X170191556Y-107029389D01*
X170140181Y-107073906D01*
X170010740Y-107134265D01*
X170010738Y-107134266D01*
X169829777Y-107260975D01*
X169673575Y-107417177D01*
X169546866Y-107598138D01*
X169546865Y-107598140D01*
X169453507Y-107798348D01*
X169453504Y-107798354D01*
X169396330Y-108011729D01*
X169396329Y-108011737D01*
X169377077Y-108231797D01*
X169377077Y-108231802D01*
X169396329Y-108451862D01*
X169396330Y-108451870D01*
X169453504Y-108665245D01*
X169453505Y-108665247D01*
X169453506Y-108665250D01*
X169455688Y-108669929D01*
X169546866Y-108865462D01*
X169546868Y-108865466D01*
X169673570Y-109046415D01*
X169673575Y-109046421D01*
X169829778Y-109202624D01*
X169829784Y-109202629D01*
X170010733Y-109329331D01*
X170010735Y-109329332D01*
X170010738Y-109329334D01*
X170126943Y-109383521D01*
X170139589Y-109389418D01*
X170192028Y-109435590D01*
X170211180Y-109502784D01*
X170190964Y-109569665D01*
X170139589Y-109614182D01*
X170010740Y-109674265D01*
X170010738Y-109674266D01*
X169829777Y-109800975D01*
X169673575Y-109957177D01*
X169546866Y-110138138D01*
X169546865Y-110138140D01*
X169453507Y-110338348D01*
X169453504Y-110338354D01*
X169396330Y-110551729D01*
X169396329Y-110551737D01*
X169377077Y-110771797D01*
X169377077Y-110771802D01*
X169396329Y-110991862D01*
X169396330Y-110991870D01*
X169453504Y-111205245D01*
X169453505Y-111205247D01*
X169453506Y-111205250D01*
X169466586Y-111233300D01*
X169546866Y-111405462D01*
X169546868Y-111405466D01*
X169673570Y-111586415D01*
X169673575Y-111586421D01*
X169829778Y-111742624D01*
X169829784Y-111742629D01*
X170010733Y-111869331D01*
X170010735Y-111869332D01*
X170010738Y-111869334D01*
X170130148Y-111925015D01*
X170139589Y-111929418D01*
X170192028Y-111975590D01*
X170211180Y-112042784D01*
X170190964Y-112109665D01*
X170139589Y-112154182D01*
X170010740Y-112214265D01*
X170010738Y-112214266D01*
X169829777Y-112340975D01*
X169673575Y-112497177D01*
X169546866Y-112678138D01*
X169546865Y-112678140D01*
X169453507Y-112878348D01*
X169453504Y-112878354D01*
X169396330Y-113091729D01*
X169396329Y-113091737D01*
X169377077Y-113311797D01*
X169377077Y-113311802D01*
X169396329Y-113531862D01*
X169396330Y-113531870D01*
X169453504Y-113745245D01*
X169453505Y-113745247D01*
X169453506Y-113745250D01*
X169512709Y-113872212D01*
X169546866Y-113945462D01*
X169546868Y-113945466D01*
X169673570Y-114126415D01*
X169673575Y-114126421D01*
X169829778Y-114282624D01*
X169829784Y-114282629D01*
X170010733Y-114409331D01*
X170010735Y-114409332D01*
X170010738Y-114409334D01*
X170130148Y-114465015D01*
X170139589Y-114469418D01*
X170192028Y-114515590D01*
X170211180Y-114582784D01*
X170190964Y-114649665D01*
X170139589Y-114694182D01*
X170010740Y-114754265D01*
X170010738Y-114754266D01*
X169829777Y-114880975D01*
X169673575Y-115037177D01*
X169546866Y-115218138D01*
X169546864Y-115218141D01*
X169514696Y-115287125D01*
X169468523Y-115339563D01*
X169401329Y-115358714D01*
X169334448Y-115338497D01*
X169314634Y-115322399D01*
X165464390Y-111472155D01*
X165464388Y-111472152D01*
X165345517Y-111353281D01*
X165345516Y-111353280D01*
X165258704Y-111303160D01*
X165258704Y-111303159D01*
X165258700Y-111303158D01*
X165208585Y-111274223D01*
X165055857Y-111233299D01*
X164897743Y-111233299D01*
X164890147Y-111233299D01*
X164890131Y-111233300D01*
X149129378Y-111233300D01*
X149062339Y-111213615D01*
X149016584Y-111160811D01*
X149006640Y-111091653D01*
X149009601Y-111077214D01*
X149032470Y-110991868D01*
X149051723Y-110771800D01*
X149032470Y-110551732D01*
X148975294Y-110338350D01*
X148881934Y-110138139D01*
X148755226Y-109957180D01*
X148599020Y-109800974D01*
X148599016Y-109800971D01*
X148599015Y-109800970D01*
X148418066Y-109674268D01*
X148418058Y-109674264D01*
X148289211Y-109614182D01*
X148236771Y-109568010D01*
X148217619Y-109500817D01*
X148237835Y-109433935D01*
X148289211Y-109389418D01*
X148301857Y-109383521D01*
X148418062Y-109329334D01*
X148599020Y-109202626D01*
X148755226Y-109046420D01*
X148881934Y-108865462D01*
X148975294Y-108665250D01*
X149032470Y-108451868D01*
X149051723Y-108231800D01*
X149032470Y-108011732D01*
X148975294Y-107798350D01*
X148881934Y-107598139D01*
X148755226Y-107417180D01*
X148599020Y-107260974D01*
X148599016Y-107260971D01*
X148599015Y-107260970D01*
X148418066Y-107134268D01*
X148418058Y-107134264D01*
X148289211Y-107074182D01*
X148236771Y-107028010D01*
X148217619Y-106960817D01*
X148237835Y-106893935D01*
X148289211Y-106849418D01*
X148295202Y-106846624D01*
X148418062Y-106789334D01*
X148599020Y-106662626D01*
X148755226Y-106506420D01*
X148881934Y-106325462D01*
X148975294Y-106125250D01*
X149032470Y-105911868D01*
X149051723Y-105691800D01*
X149032470Y-105471732D01*
X148975294Y-105258350D01*
X148881934Y-105058139D01*
X148755226Y-104877180D01*
X148599020Y-104720974D01*
X148599016Y-104720971D01*
X148599015Y-104720970D01*
X148418066Y-104594268D01*
X148418058Y-104594264D01*
X148289211Y-104534182D01*
X148285113Y-104530574D01*
X152730925Y-104530574D01*
X152730925Y-109963752D01*
X164538834Y-109963752D01*
X164538834Y-104530574D01*
X152730925Y-104530574D01*
X148285113Y-104530574D01*
X148236771Y-104488010D01*
X148217619Y-104420817D01*
X148237835Y-104353935D01*
X148289211Y-104309418D01*
X148295202Y-104306624D01*
X148418062Y-104249334D01*
X148599020Y-104122626D01*
X148755226Y-103966420D01*
X148881934Y-103785462D01*
X148975294Y-103585250D01*
X149032470Y-103371868D01*
X149051723Y-103151800D01*
X149032470Y-102931732D01*
X148975294Y-102718350D01*
X148881934Y-102518139D01*
X148755226Y-102337180D01*
X148599020Y-102180974D01*
X148599016Y-102180971D01*
X148599015Y-102180970D01*
X148418066Y-102054268D01*
X148418058Y-102054264D01*
X148289211Y-101994182D01*
X148236771Y-101948010D01*
X148217619Y-101880817D01*
X148237835Y-101813935D01*
X148289211Y-101769418D01*
X148295202Y-101766624D01*
X148418062Y-101709334D01*
X148599020Y-101582626D01*
X148755226Y-101426420D01*
X148881934Y-101245462D01*
X148975294Y-101045250D01*
X149032470Y-100831868D01*
X149051723Y-100611800D01*
X149032470Y-100391732D01*
X148975294Y-100178350D01*
X148881934Y-99978139D01*
X148795925Y-99855304D01*
X148755227Y-99797181D01*
X148716941Y-99758895D01*
X148599020Y-99640974D01*
X148599016Y-99640971D01*
X148599015Y-99640970D01*
X148418066Y-99514268D01*
X148418058Y-99514264D01*
X148289211Y-99454182D01*
X148236771Y-99408010D01*
X148217619Y-99340817D01*
X148237835Y-99273935D01*
X148289211Y-99229418D01*
X148295202Y-99226624D01*
X148418062Y-99169334D01*
X148599020Y-99042626D01*
X148755226Y-98886420D01*
X148881934Y-98705462D01*
X148975294Y-98505250D01*
X149032470Y-98291868D01*
X149051723Y-98071800D01*
X149032470Y-97851732D01*
X148975294Y-97638350D01*
X148881934Y-97438139D01*
X148755226Y-97257180D01*
X148599020Y-97100974D01*
X148599016Y-97100971D01*
X148599015Y-97100970D01*
X148418066Y-96974268D01*
X148418058Y-96974264D01*
X148289211Y-96914182D01*
X148236771Y-96868010D01*
X148217619Y-96800817D01*
X148237835Y-96733935D01*
X148289211Y-96689418D01*
X148295202Y-96686624D01*
X148418062Y-96629334D01*
X148599020Y-96502626D01*
X148755226Y-96346420D01*
X148881934Y-96165462D01*
X148975294Y-95965250D01*
X149032470Y-95751868D01*
X149047173Y-95583811D01*
X149051723Y-95531802D01*
X149051723Y-95531797D01*
X149040971Y-95408903D01*
X149032470Y-95311732D01*
X148975294Y-95098350D01*
X148881934Y-94898139D01*
X148755226Y-94717180D01*
X148599020Y-94560974D01*
X148599016Y-94560971D01*
X148599015Y-94560970D01*
X148418066Y-94434268D01*
X148418058Y-94434264D01*
X148289211Y-94374182D01*
X148236771Y-94328010D01*
X148217619Y-94260817D01*
X148237835Y-94193935D01*
X148289211Y-94149418D01*
X148295202Y-94146624D01*
X148418062Y-94089334D01*
X148599020Y-93962626D01*
X148755226Y-93806420D01*
X148881934Y-93625462D01*
X148975294Y-93425250D01*
X149032470Y-93211868D01*
X149051723Y-92991800D01*
X149047843Y-92947456D01*
X149034780Y-92798136D01*
X149032470Y-92771732D01*
X148975294Y-92558350D01*
X148881934Y-92358139D01*
X148755226Y-92177180D01*
X148599020Y-92020974D01*
X148599016Y-92020971D01*
X148599015Y-92020970D01*
X148418066Y-91894268D01*
X148418058Y-91894264D01*
X148289211Y-91834182D01*
X148236771Y-91788010D01*
X148217619Y-91720817D01*
X148237835Y-91653935D01*
X148289211Y-91609418D01*
X148295202Y-91606624D01*
X148418062Y-91549334D01*
X148599020Y-91422626D01*
X148755226Y-91266420D01*
X148881934Y-91085462D01*
X148975294Y-90885250D01*
X149032470Y-90671868D01*
X149051723Y-90451800D01*
X149032470Y-90231732D01*
X149009603Y-90146392D01*
X149011266Y-90076544D01*
X149050428Y-90018681D01*
X149114656Y-89991177D01*
X149129378Y-89990300D01*
X151932703Y-89990300D01*
X151999742Y-90009985D01*
G37*
%TD.AperFunction*%
%TA.AperFunction,Conductor*%
G36*
X168585918Y-71082113D02*
G01*
X168641851Y-71123985D01*
X168662359Y-71166202D01*
X168673366Y-71207283D01*
X168673370Y-71207292D01*
X168773199Y-71421378D01*
X168908694Y-71614882D01*
X169075717Y-71781905D01*
X169261395Y-71911919D01*
X169305019Y-71966496D01*
X169312212Y-72035995D01*
X169280690Y-72098349D01*
X169261395Y-72115069D01*
X169075394Y-72245308D01*
X168908305Y-72412397D01*
X168772765Y-72605969D01*
X168772764Y-72605971D01*
X168672898Y-72820135D01*
X168672894Y-72820144D01*
X168611738Y-73048386D01*
X168611736Y-73048396D01*
X168591141Y-73283799D01*
X168591141Y-73283800D01*
X168611736Y-73519203D01*
X168611738Y-73519213D01*
X168672894Y-73747455D01*
X168672896Y-73747459D01*
X168672897Y-73747463D01*
X168772765Y-73961630D01*
X168772767Y-73961634D01*
X168881081Y-74116321D01*
X168904202Y-74149342D01*
X168908301Y-74155195D01*
X168908306Y-74155202D01*
X169075397Y-74322293D01*
X169075403Y-74322298D01*
X169260958Y-74452225D01*
X169304583Y-74506802D01*
X169311777Y-74576300D01*
X169280254Y-74638655D01*
X169260958Y-74655375D01*
X169075397Y-74785305D01*
X168908305Y-74952397D01*
X168772765Y-75145969D01*
X168772764Y-75145971D01*
X168672898Y-75360135D01*
X168672894Y-75360144D01*
X168611738Y-75588386D01*
X168611736Y-75588396D01*
X168591141Y-75823799D01*
X168591141Y-75823800D01*
X168611736Y-76059203D01*
X168611738Y-76059213D01*
X168672894Y-76287455D01*
X168672896Y-76287459D01*
X168672897Y-76287463D01*
X168703650Y-76353412D01*
X168772765Y-76501630D01*
X168772767Y-76501634D01*
X168908301Y-76695195D01*
X168908306Y-76695202D01*
X169075397Y-76862293D01*
X169075403Y-76862298D01*
X169260958Y-76992225D01*
X169304583Y-77046802D01*
X169311777Y-77116300D01*
X169280254Y-77178655D01*
X169260958Y-77195375D01*
X169075397Y-77325305D01*
X168908305Y-77492397D01*
X168772765Y-77685969D01*
X168772764Y-77685971D01*
X168672898Y-77900135D01*
X168672894Y-77900144D01*
X168611738Y-78128386D01*
X168611736Y-78128396D01*
X168591141Y-78363799D01*
X168591141Y-78363800D01*
X168611736Y-78599203D01*
X168611738Y-78599213D01*
X168672894Y-78827455D01*
X168672896Y-78827459D01*
X168672897Y-78827463D01*
X168772765Y-79041630D01*
X168772767Y-79041634D01*
X168908301Y-79235195D01*
X168908306Y-79235202D01*
X169075397Y-79402293D01*
X169075403Y-79402298D01*
X169260958Y-79532225D01*
X169304583Y-79586802D01*
X169311777Y-79656300D01*
X169280254Y-79718655D01*
X169260958Y-79735375D01*
X169075397Y-79865305D01*
X168908305Y-80032397D01*
X168772765Y-80225969D01*
X168772764Y-80225971D01*
X168672898Y-80440135D01*
X168672894Y-80440144D01*
X168611738Y-80668386D01*
X168611736Y-80668396D01*
X168591141Y-80903799D01*
X168591141Y-80903800D01*
X168611736Y-81139203D01*
X168611738Y-81139213D01*
X168672894Y-81367455D01*
X168672896Y-81367459D01*
X168672897Y-81367463D01*
X168726894Y-81483259D01*
X168772765Y-81581630D01*
X168772767Y-81581634D01*
X168908301Y-81775195D01*
X168908306Y-81775202D01*
X169075397Y-81942293D01*
X169075403Y-81942298D01*
X169260958Y-82072225D01*
X169304583Y-82126802D01*
X169311777Y-82196300D01*
X169280254Y-82258655D01*
X169260958Y-82275375D01*
X169075397Y-82405305D01*
X168908305Y-82572397D01*
X168772765Y-82765969D01*
X168772764Y-82765971D01*
X168672898Y-82980135D01*
X168672894Y-82980144D01*
X168611738Y-83208386D01*
X168611736Y-83208396D01*
X168591141Y-83443799D01*
X168591141Y-83443800D01*
X168611736Y-83679203D01*
X168611738Y-83679213D01*
X168672894Y-83907455D01*
X168672896Y-83907459D01*
X168672897Y-83907463D01*
X168772765Y-84121630D01*
X168772767Y-84121634D01*
X168908301Y-84315195D01*
X168908306Y-84315202D01*
X169030230Y-84437126D01*
X169063715Y-84498449D01*
X169058731Y-84568141D01*
X169016859Y-84624074D01*
X168985883Y-84640989D01*
X168854469Y-84690003D01*
X168854464Y-84690006D01*
X168739255Y-84776252D01*
X168739252Y-84776255D01*
X168653006Y-84891464D01*
X168653002Y-84891471D01*
X168602708Y-85026317D01*
X168596301Y-85085916D01*
X168596300Y-85085935D01*
X168596300Y-86881670D01*
X168596301Y-86881676D01*
X168602708Y-86941283D01*
X168653002Y-87076128D01*
X168653006Y-87076135D01*
X168739252Y-87191344D01*
X168739255Y-87191347D01*
X168854464Y-87277593D01*
X168854471Y-87277597D01*
X168989317Y-87327891D01*
X168989316Y-87327891D01*
X168996244Y-87328635D01*
X169048927Y-87334300D01*
X170844672Y-87334299D01*
X170904283Y-87327891D01*
X171039131Y-87277596D01*
X171154346Y-87191346D01*
X171240596Y-87076131D01*
X171290891Y-86941283D01*
X171297300Y-86881673D01*
X171297299Y-86099581D01*
X171316983Y-86032543D01*
X171333618Y-86011901D01*
X172234619Y-85110902D01*
X172295942Y-85077417D01*
X172365634Y-85082401D01*
X172421567Y-85124273D01*
X172445984Y-85189737D01*
X172446300Y-85198583D01*
X172446300Y-113965103D01*
X172426615Y-114032142D01*
X172373811Y-114077897D01*
X172304653Y-114087841D01*
X172241097Y-114058816D01*
X172234619Y-114052784D01*
X171905314Y-113723479D01*
X171871829Y-113662156D01*
X171873221Y-113603702D01*
X171892469Y-113531872D01*
X171892469Y-113531870D01*
X171892470Y-113531868D01*
X171911723Y-113311800D01*
X171892470Y-113091732D01*
X171835294Y-112878350D01*
X171741934Y-112678139D01*
X171615226Y-112497180D01*
X171459020Y-112340974D01*
X171459016Y-112340971D01*
X171459015Y-112340970D01*
X171278066Y-112214268D01*
X171278058Y-112214264D01*
X171149211Y-112154182D01*
X171096771Y-112108010D01*
X171077619Y-112040817D01*
X171097835Y-111973935D01*
X171149211Y-111929418D01*
X171155202Y-111926624D01*
X171278062Y-111869334D01*
X171459020Y-111742626D01*
X171615226Y-111586420D01*
X171741934Y-111405462D01*
X171835294Y-111205250D01*
X171892470Y-110991868D01*
X171911723Y-110771800D01*
X171892470Y-110551732D01*
X171835294Y-110338350D01*
X171741934Y-110138139D01*
X171615226Y-109957180D01*
X171459020Y-109800974D01*
X171459016Y-109800971D01*
X171459015Y-109800970D01*
X171278066Y-109674268D01*
X171278058Y-109674264D01*
X171149211Y-109614182D01*
X171096771Y-109568010D01*
X171077619Y-109500817D01*
X171097835Y-109433935D01*
X171149211Y-109389418D01*
X171161857Y-109383521D01*
X171278062Y-109329334D01*
X171459020Y-109202626D01*
X171615226Y-109046420D01*
X171741934Y-108865462D01*
X171835294Y-108665250D01*
X171892470Y-108451868D01*
X171911723Y-108231800D01*
X171892470Y-108011732D01*
X171835294Y-107798350D01*
X171741934Y-107598139D01*
X171615226Y-107417180D01*
X171459020Y-107260974D01*
X171459016Y-107260971D01*
X171459015Y-107260970D01*
X171278066Y-107134268D01*
X171278062Y-107134266D01*
X171148618Y-107073905D01*
X171096179Y-107027732D01*
X171077027Y-106960539D01*
X171097243Y-106893658D01*
X171148619Y-106849140D01*
X171277816Y-106788895D01*
X171277817Y-106788894D01*
X171342588Y-106743541D01*
X170780342Y-106181294D01*
X170840481Y-106165181D01*
X170956320Y-106098302D01*
X171050902Y-106003720D01*
X171117781Y-105887881D01*
X171133895Y-105827742D01*
X171696141Y-106389988D01*
X171741494Y-106325217D01*
X171741500Y-106325207D01*
X171834819Y-106125084D01*
X171834824Y-106125070D01*
X171891973Y-105911786D01*
X171891975Y-105911776D01*
X171911221Y-105691800D01*
X171911221Y-105691799D01*
X171891975Y-105471823D01*
X171891973Y-105471813D01*
X171834824Y-105258529D01*
X171834820Y-105258520D01*
X171741496Y-105058386D01*
X171696141Y-104993611D01*
X171696140Y-104993610D01*
X171133894Y-105555856D01*
X171117781Y-105495719D01*
X171050902Y-105379880D01*
X170956320Y-105285298D01*
X170840481Y-105218419D01*
X170780342Y-105202305D01*
X171342588Y-104640059D01*
X171342587Y-104640058D01*
X171277811Y-104594701D01*
X171277805Y-104594698D01*
X171148619Y-104534458D01*
X171096179Y-104488286D01*
X171077027Y-104421093D01*
X171097243Y-104354211D01*
X171148619Y-104309694D01*
X171149211Y-104309418D01*
X171278062Y-104249334D01*
X171459020Y-104122626D01*
X171615226Y-103966420D01*
X171741934Y-103785462D01*
X171835294Y-103585250D01*
X171892470Y-103371868D01*
X171911723Y-103151800D01*
X171892470Y-102931732D01*
X171835294Y-102718350D01*
X171741934Y-102518139D01*
X171615226Y-102337180D01*
X171459020Y-102180974D01*
X171459016Y-102180971D01*
X171459015Y-102180970D01*
X171278066Y-102054268D01*
X171278058Y-102054264D01*
X171149211Y-101994182D01*
X171096771Y-101948010D01*
X171077619Y-101880817D01*
X171097835Y-101813935D01*
X171149211Y-101769418D01*
X171155202Y-101766624D01*
X171278062Y-101709334D01*
X171459020Y-101582626D01*
X171615226Y-101426420D01*
X171741934Y-101245462D01*
X171835294Y-101045250D01*
X171892470Y-100831868D01*
X171911723Y-100611800D01*
X171892470Y-100391732D01*
X171835294Y-100178350D01*
X171741934Y-99978139D01*
X171655925Y-99855304D01*
X171615227Y-99797181D01*
X171576941Y-99758895D01*
X171459020Y-99640974D01*
X171459016Y-99640971D01*
X171459015Y-99640970D01*
X171278066Y-99514268D01*
X171278058Y-99514264D01*
X171149211Y-99454182D01*
X171096771Y-99408010D01*
X171077619Y-99340817D01*
X171097835Y-99273935D01*
X171149211Y-99229418D01*
X171155202Y-99226624D01*
X171278062Y-99169334D01*
X171459020Y-99042626D01*
X171615226Y-98886420D01*
X171741934Y-98705462D01*
X171835294Y-98505250D01*
X171892470Y-98291868D01*
X171911723Y-98071800D01*
X171892470Y-97851732D01*
X171835294Y-97638350D01*
X171741934Y-97438139D01*
X171615226Y-97257180D01*
X171459020Y-97100974D01*
X171459016Y-97100971D01*
X171459015Y-97100970D01*
X171278066Y-96974268D01*
X171278058Y-96974264D01*
X171149211Y-96914182D01*
X171096771Y-96868010D01*
X171077619Y-96800817D01*
X171097835Y-96733935D01*
X171149211Y-96689418D01*
X171155202Y-96686624D01*
X171278062Y-96629334D01*
X171459020Y-96502626D01*
X171615226Y-96346420D01*
X171741934Y-96165462D01*
X171835294Y-95965250D01*
X171892470Y-95751868D01*
X171907173Y-95583811D01*
X171911723Y-95531802D01*
X171911723Y-95531797D01*
X171900971Y-95408903D01*
X171892470Y-95311732D01*
X171835294Y-95098350D01*
X171741934Y-94898139D01*
X171615226Y-94717180D01*
X171459020Y-94560974D01*
X171459016Y-94560971D01*
X171459015Y-94560970D01*
X171278066Y-94434268D01*
X171278058Y-94434264D01*
X171149211Y-94374182D01*
X171096771Y-94328010D01*
X171077619Y-94260817D01*
X171097835Y-94193935D01*
X171149211Y-94149418D01*
X171155202Y-94146624D01*
X171278062Y-94089334D01*
X171459020Y-93962626D01*
X171615226Y-93806420D01*
X171741934Y-93625462D01*
X171835294Y-93425250D01*
X171892470Y-93211868D01*
X171911723Y-92991800D01*
X171907843Y-92947456D01*
X171894780Y-92798136D01*
X171892470Y-92771732D01*
X171835294Y-92558350D01*
X171741934Y-92358139D01*
X171615226Y-92177180D01*
X171459020Y-92020974D01*
X171459016Y-92020971D01*
X171459015Y-92020970D01*
X171278066Y-91894268D01*
X171278062Y-91894266D01*
X171148618Y-91833905D01*
X171096179Y-91787732D01*
X171077027Y-91720539D01*
X171097243Y-91653658D01*
X171148619Y-91609140D01*
X171277816Y-91548895D01*
X171277817Y-91548894D01*
X171342588Y-91503541D01*
X170780342Y-90941294D01*
X170840481Y-90925181D01*
X170956320Y-90858302D01*
X171050902Y-90763720D01*
X171117781Y-90647881D01*
X171133895Y-90587742D01*
X171696141Y-91149988D01*
X171741494Y-91085217D01*
X171741500Y-91085207D01*
X171834819Y-90885084D01*
X171834824Y-90885070D01*
X171891973Y-90671786D01*
X171891975Y-90671776D01*
X171911221Y-90451800D01*
X171911221Y-90451799D01*
X171891975Y-90231823D01*
X171891973Y-90231813D01*
X171834824Y-90018529D01*
X171834820Y-90018520D01*
X171741496Y-89818386D01*
X171696141Y-89753611D01*
X171696140Y-89753610D01*
X171133894Y-90315856D01*
X171117781Y-90255719D01*
X171050902Y-90139880D01*
X170956320Y-90045298D01*
X170840481Y-89978419D01*
X170780342Y-89962305D01*
X171342588Y-89400059D01*
X171342587Y-89400058D01*
X171277811Y-89354701D01*
X171277805Y-89354698D01*
X171077684Y-89261380D01*
X171077670Y-89261375D01*
X170864386Y-89204226D01*
X170864376Y-89204224D01*
X170644401Y-89184979D01*
X170644399Y-89184979D01*
X170424423Y-89204224D01*
X170424413Y-89204226D01*
X170211129Y-89261375D01*
X170211120Y-89261379D01*
X170010990Y-89354701D01*
X169946211Y-89400058D01*
X170508457Y-89962304D01*
X170448319Y-89978419D01*
X170332480Y-90045298D01*
X170237898Y-90139880D01*
X170171019Y-90255719D01*
X170154904Y-90315857D01*
X169592658Y-89753611D01*
X169547301Y-89818390D01*
X169453979Y-90018520D01*
X169453975Y-90018529D01*
X169396826Y-90231813D01*
X169396824Y-90231823D01*
X169377579Y-90451799D01*
X169377579Y-90451800D01*
X169396824Y-90671776D01*
X169396826Y-90671786D01*
X169453975Y-90885070D01*
X169453980Y-90885084D01*
X169547298Y-91085205D01*
X169547301Y-91085211D01*
X169592658Y-91149987D01*
X169592659Y-91149988D01*
X170154904Y-90587742D01*
X170171019Y-90647881D01*
X170237898Y-90763720D01*
X170332480Y-90858302D01*
X170448319Y-90925181D01*
X170508457Y-90941294D01*
X169946210Y-91503540D01*
X170010989Y-91548898D01*
X170140181Y-91609142D01*
X170192620Y-91655314D01*
X170211772Y-91722508D01*
X170191556Y-91789389D01*
X170140181Y-91833906D01*
X170010740Y-91894265D01*
X170010738Y-91894266D01*
X169829777Y-92020975D01*
X169673575Y-92177177D01*
X169546866Y-92358138D01*
X169546865Y-92358140D01*
X169453507Y-92558348D01*
X169453504Y-92558354D01*
X169396330Y-92771729D01*
X169396329Y-92771737D01*
X169377077Y-92991797D01*
X169377077Y-92991802D01*
X169396329Y-93211862D01*
X169396330Y-93211870D01*
X169453504Y-93425245D01*
X169453505Y-93425247D01*
X169453506Y-93425250D01*
X169487900Y-93499008D01*
X169546866Y-93625462D01*
X169546868Y-93625466D01*
X169673570Y-93806415D01*
X169673575Y-93806421D01*
X169829778Y-93962624D01*
X169829784Y-93962629D01*
X170010733Y-94089331D01*
X170010735Y-94089332D01*
X170010738Y-94089334D01*
X170130148Y-94145015D01*
X170139589Y-94149418D01*
X170192028Y-94195590D01*
X170211180Y-94262784D01*
X170190964Y-94329665D01*
X170139589Y-94374182D01*
X170010740Y-94434265D01*
X170010738Y-94434266D01*
X169829777Y-94560975D01*
X169673575Y-94717177D01*
X169560671Y-94878423D01*
X169506094Y-94922048D01*
X169459096Y-94931300D01*
X161674897Y-94931300D01*
X161607858Y-94911615D01*
X161587216Y-94894981D01*
X154876819Y-88184584D01*
X154843334Y-88123261D01*
X154840500Y-88096903D01*
X154840500Y-86990397D01*
X154860185Y-86923358D01*
X154905483Y-86881342D01*
X154908041Y-86879957D01*
X155030469Y-86813703D01*
X155218832Y-86667095D01*
X155380494Y-86491482D01*
X155406489Y-86451693D01*
X155459631Y-86406337D01*
X155528862Y-86396912D01*
X155592199Y-86426412D01*
X155614105Y-86451691D01*
X155639903Y-86491177D01*
X155639907Y-86491183D01*
X155801504Y-86666722D01*
X155801514Y-86666731D01*
X155989801Y-86813281D01*
X155989810Y-86813287D01*
X156199650Y-86926846D01*
X156199660Y-86926851D01*
X156425338Y-87004326D01*
X156530000Y-87021790D01*
X156530000Y-86046051D01*
X156583919Y-86077181D01*
X156713120Y-86111800D01*
X156846880Y-86111800D01*
X156976081Y-86077181D01*
X157030000Y-86046051D01*
X157030000Y-87021789D01*
X157134661Y-87004326D01*
X157360339Y-86926851D01*
X157360349Y-86926846D01*
X157570189Y-86813287D01*
X157570198Y-86813281D01*
X157758485Y-86666731D01*
X157758495Y-86666722D01*
X157920098Y-86491176D01*
X157945893Y-86451694D01*
X157999039Y-86406337D01*
X158068270Y-86396913D01*
X158131606Y-86426414D01*
X158153511Y-86451694D01*
X158179506Y-86491482D01*
X158341168Y-86667095D01*
X158529531Y-86813703D01*
X158739455Y-86927309D01*
X158965216Y-87004812D01*
X159200653Y-87044100D01*
X159200654Y-87044100D01*
X159439346Y-87044100D01*
X159439347Y-87044100D01*
X159674784Y-87004812D01*
X159900545Y-86927309D01*
X160110469Y-86813703D01*
X160298832Y-86667095D01*
X160460494Y-86491482D01*
X160486489Y-86451693D01*
X160539631Y-86406337D01*
X160608862Y-86396912D01*
X160672199Y-86426412D01*
X160694105Y-86451691D01*
X160719903Y-86491177D01*
X160719907Y-86491183D01*
X160881504Y-86666722D01*
X160881514Y-86666731D01*
X161069801Y-86813281D01*
X161069810Y-86813287D01*
X161279650Y-86926846D01*
X161279660Y-86926851D01*
X161505338Y-87004326D01*
X161610000Y-87021790D01*
X161610000Y-86046051D01*
X161663919Y-86077181D01*
X161793120Y-86111800D01*
X161926880Y-86111800D01*
X162056081Y-86077181D01*
X162110000Y-86046051D01*
X162110000Y-87021789D01*
X162214661Y-87004326D01*
X162440339Y-86926851D01*
X162440349Y-86926846D01*
X162650189Y-86813287D01*
X162650198Y-86813281D01*
X162838485Y-86666731D01*
X162838495Y-86666722D01*
X163000098Y-86491176D01*
X163025893Y-86451694D01*
X163079039Y-86406337D01*
X163148270Y-86396913D01*
X163211606Y-86426414D01*
X163233511Y-86451694D01*
X163259506Y-86491482D01*
X163421168Y-86667095D01*
X163609531Y-86813703D01*
X163819455Y-86927309D01*
X164045216Y-87004812D01*
X164280653Y-87044100D01*
X164280654Y-87044100D01*
X164519346Y-87044100D01*
X164519347Y-87044100D01*
X164754784Y-87004812D01*
X164980545Y-86927309D01*
X165190469Y-86813703D01*
X165378832Y-86667095D01*
X165540494Y-86491482D01*
X165671047Y-86291656D01*
X165766929Y-86073067D01*
X165825525Y-85841678D01*
X165825526Y-85841669D01*
X165845236Y-85603805D01*
X165845236Y-85603794D01*
X165825526Y-85365930D01*
X165825524Y-85365918D01*
X165766929Y-85134532D01*
X165671048Y-84915947D01*
X165671047Y-84915944D01*
X165540494Y-84716118D01*
X165540492Y-84716116D01*
X165540491Y-84716114D01*
X165433270Y-84599639D01*
X165402348Y-84536984D01*
X165400500Y-84515657D01*
X165400500Y-74216381D01*
X165420185Y-74149342D01*
X165436814Y-74128705D01*
X168454908Y-71110611D01*
X168516226Y-71077129D01*
X168585918Y-71082113D01*
G37*
%TD.AperFunction*%
%TA.AperFunction,Conductor*%
G36*
X146679413Y-101254001D02*
G01*
X146717715Y-101289519D01*
X146813574Y-101426420D01*
X146813575Y-101426421D01*
X146969778Y-101582624D01*
X146969784Y-101582629D01*
X147150733Y-101709331D01*
X147150735Y-101709332D01*
X147150738Y-101709334D01*
X147270148Y-101765015D01*
X147279589Y-101769418D01*
X147332028Y-101815590D01*
X147351180Y-101882784D01*
X147330964Y-101949665D01*
X147279589Y-101994182D01*
X147150740Y-102054265D01*
X147150738Y-102054266D01*
X146969777Y-102180975D01*
X146813575Y-102337177D01*
X146686866Y-102518138D01*
X146686865Y-102518140D01*
X146593507Y-102718348D01*
X146593504Y-102718354D01*
X146536330Y-102931729D01*
X146536329Y-102931737D01*
X146517077Y-103151797D01*
X146517077Y-103151802D01*
X146536329Y-103371862D01*
X146536330Y-103371870D01*
X146593504Y-103585245D01*
X146593505Y-103585247D01*
X146593506Y-103585250D01*
X146615455Y-103632320D01*
X146686866Y-103785462D01*
X146686868Y-103785466D01*
X146813570Y-103966415D01*
X146813575Y-103966421D01*
X146969778Y-104122624D01*
X146969784Y-104122629D01*
X147150733Y-104249331D01*
X147150735Y-104249332D01*
X147150738Y-104249334D01*
X147270148Y-104305015D01*
X147279589Y-104309418D01*
X147332028Y-104355590D01*
X147351180Y-104422784D01*
X147330964Y-104489665D01*
X147279589Y-104534182D01*
X147150740Y-104594265D01*
X147150738Y-104594266D01*
X146969777Y-104720975D01*
X146813575Y-104877177D01*
X146686866Y-105058138D01*
X146686865Y-105058140D01*
X146593507Y-105258348D01*
X146593504Y-105258354D01*
X146536330Y-105471729D01*
X146536329Y-105471737D01*
X146517077Y-105691797D01*
X146517077Y-105691802D01*
X146536329Y-105911862D01*
X146536330Y-105911870D01*
X146593504Y-106125245D01*
X146593505Y-106125247D01*
X146593506Y-106125250D01*
X146612126Y-106165181D01*
X146686866Y-106325462D01*
X146686868Y-106325466D01*
X146813570Y-106506415D01*
X146813575Y-106506421D01*
X146969778Y-106662624D01*
X146969784Y-106662629D01*
X147150733Y-106789331D01*
X147150735Y-106789332D01*
X147150738Y-106789334D01*
X147270148Y-106845015D01*
X147279589Y-106849418D01*
X147332028Y-106895590D01*
X147351180Y-106962784D01*
X147330964Y-107029665D01*
X147279589Y-107074182D01*
X147150740Y-107134265D01*
X147150738Y-107134266D01*
X146969777Y-107260975D01*
X146813575Y-107417177D01*
X146686866Y-107598138D01*
X146686865Y-107598140D01*
X146593507Y-107798348D01*
X146593504Y-107798354D01*
X146536330Y-108011729D01*
X146536329Y-108011737D01*
X146517077Y-108231797D01*
X146517077Y-108231802D01*
X146536329Y-108451862D01*
X146536330Y-108451870D01*
X146593504Y-108665245D01*
X146593505Y-108665247D01*
X146593506Y-108665250D01*
X146595688Y-108669929D01*
X146686866Y-108865462D01*
X146686868Y-108865466D01*
X146813570Y-109046415D01*
X146813575Y-109046421D01*
X146969778Y-109202624D01*
X146969784Y-109202629D01*
X147150733Y-109329331D01*
X147150735Y-109329332D01*
X147150738Y-109329334D01*
X147266943Y-109383521D01*
X147279589Y-109389418D01*
X147332028Y-109435590D01*
X147351180Y-109502784D01*
X147330964Y-109569665D01*
X147279589Y-109614182D01*
X147150740Y-109674265D01*
X147150738Y-109674266D01*
X146969777Y-109800975D01*
X146813575Y-109957177D01*
X146686866Y-110138138D01*
X146686865Y-110138140D01*
X146593507Y-110338348D01*
X146593504Y-110338354D01*
X146536330Y-110551729D01*
X146536329Y-110551737D01*
X146517077Y-110771797D01*
X146517077Y-110771802D01*
X146536329Y-110991862D01*
X146536330Y-110991869D01*
X146543680Y-111019298D01*
X146559196Y-111077207D01*
X146557534Y-111147056D01*
X146518372Y-111204919D01*
X146454144Y-111232423D01*
X146439422Y-111233300D01*
X143774212Y-111233300D01*
X143707173Y-111213615D01*
X143661418Y-111160811D01*
X143651474Y-111091653D01*
X143651739Y-111089902D01*
X143672300Y-110960086D01*
X143672300Y-110747513D01*
X143639046Y-110537557D01*
X143573357Y-110335388D01*
X143476851Y-110145984D01*
X143476849Y-110145981D01*
X143476848Y-110145979D01*
X143351909Y-109974013D01*
X143201590Y-109823694D01*
X143201585Y-109823690D01*
X143036581Y-109703808D01*
X142993915Y-109648478D01*
X142987936Y-109578865D01*
X143020541Y-109517070D01*
X143036581Y-109503171D01*
X143201266Y-109383521D01*
X143351523Y-109233264D01*
X143351527Y-109233259D01*
X143476420Y-109061357D01*
X143572895Y-108872017D01*
X143638557Y-108669929D01*
X143638557Y-108669926D01*
X143649031Y-108603800D01*
X142600946Y-108603800D01*
X142639430Y-108537143D01*
X142671800Y-108416335D01*
X142671800Y-108291265D01*
X142639430Y-108170457D01*
X142600946Y-108103800D01*
X143649031Y-108103800D01*
X143638557Y-108037673D01*
X143638557Y-108037670D01*
X143572895Y-107835582D01*
X143476420Y-107646242D01*
X143351527Y-107474340D01*
X143351523Y-107474335D01*
X143201264Y-107324076D01*
X143201259Y-107324072D01*
X143029357Y-107199179D01*
X142840017Y-107102704D01*
X142637928Y-107037042D01*
X142446800Y-107006769D01*
X142446800Y-107949654D01*
X142380143Y-107911170D01*
X142259335Y-107878800D01*
X142134265Y-107878800D01*
X142013457Y-107911170D01*
X141946800Y-107949654D01*
X141946800Y-107006769D01*
X141755672Y-107037042D01*
X141755665Y-107037043D01*
X141684617Y-107060128D01*
X141614776Y-107062123D01*
X141554943Y-107026042D01*
X141524116Y-106963341D01*
X141522300Y-106942197D01*
X141522300Y-106494581D01*
X141541985Y-106427542D01*
X141558614Y-106406905D01*
X146184578Y-101780941D01*
X146184582Y-101780939D01*
X146323939Y-101641582D01*
X146433432Y-101477714D01*
X146501579Y-101313190D01*
X146545419Y-101258787D01*
X146611713Y-101236722D01*
X146679413Y-101254001D01*
G37*
%TD.AperFunction*%
%TA.AperFunction,Conductor*%
G36*
X168601336Y-67673985D02*
G01*
X168647091Y-67726789D01*
X168657035Y-67795947D01*
X168654072Y-67810393D01*
X168611738Y-67968386D01*
X168611736Y-67968396D01*
X168600755Y-68093898D01*
X168575302Y-68158966D01*
X168564908Y-68170770D01*
X166141098Y-70594581D01*
X163762221Y-72973458D01*
X163762218Y-72973461D01*
X163698716Y-73036963D01*
X163622859Y-73112819D01*
X163513371Y-73276680D01*
X163513364Y-73276693D01*
X163469605Y-73382341D01*
X163469604Y-73382343D01*
X163450965Y-73427338D01*
X163450966Y-73427339D01*
X163437950Y-73458761D01*
X163437947Y-73458769D01*
X163399500Y-73652056D01*
X163399500Y-84515657D01*
X163379815Y-84582696D01*
X163366730Y-84599639D01*
X163259507Y-84716115D01*
X163259504Y-84716119D01*
X163233508Y-84755908D01*
X163180361Y-84801263D01*
X163111129Y-84810685D01*
X163047794Y-84781182D01*
X163025892Y-84755906D01*
X163000093Y-84716419D01*
X163000092Y-84716416D01*
X162838495Y-84540877D01*
X162838485Y-84540868D01*
X162650198Y-84394318D01*
X162650189Y-84394312D01*
X162440349Y-84280753D01*
X162440339Y-84280748D01*
X162214663Y-84203274D01*
X162110000Y-84185809D01*
X162110000Y-85161548D01*
X162056081Y-85130419D01*
X161926880Y-85095800D01*
X161793120Y-85095800D01*
X161663919Y-85130419D01*
X161610000Y-85161548D01*
X161610000Y-84185809D01*
X161609999Y-84185809D01*
X161505336Y-84203274D01*
X161279660Y-84280748D01*
X161279650Y-84280753D01*
X161069810Y-84394312D01*
X161069801Y-84394318D01*
X160881514Y-84540868D01*
X160881504Y-84540877D01*
X160719907Y-84716416D01*
X160719899Y-84716427D01*
X160694106Y-84755907D01*
X160640960Y-84801264D01*
X160571728Y-84810687D01*
X160508393Y-84781185D01*
X160486489Y-84755906D01*
X160460696Y-84716427D01*
X160460494Y-84716118D01*
X160298832Y-84540505D01*
X160110469Y-84393897D01*
X160014152Y-84341772D01*
X159900546Y-84280291D01*
X159900541Y-84280289D01*
X159674786Y-84202788D01*
X159517826Y-84176596D01*
X159439347Y-84163500D01*
X159200653Y-84163500D01*
X159141793Y-84173322D01*
X158965213Y-84202788D01*
X158739458Y-84280289D01*
X158739453Y-84280291D01*
X158529529Y-84393898D01*
X158341167Y-84540505D01*
X158341165Y-84540507D01*
X158179508Y-84716115D01*
X158153510Y-84755908D01*
X158100363Y-84801264D01*
X158031131Y-84810687D01*
X157967796Y-84781184D01*
X157945894Y-84755907D01*
X157920100Y-84716427D01*
X157920092Y-84716416D01*
X157758495Y-84540877D01*
X157758485Y-84540868D01*
X157570198Y-84394318D01*
X157570189Y-84394312D01*
X157360349Y-84280753D01*
X157360339Y-84280748D01*
X157134663Y-84203274D01*
X157030000Y-84185809D01*
X157030000Y-85161548D01*
X156976081Y-85130419D01*
X156846880Y-85095800D01*
X156713120Y-85095800D01*
X156583919Y-85130419D01*
X156530000Y-85161548D01*
X156530000Y-84185809D01*
X156529999Y-84185809D01*
X156425336Y-84203274D01*
X156199660Y-84280748D01*
X156199650Y-84280753D01*
X155989810Y-84394312D01*
X155989801Y-84394318D01*
X155801514Y-84540868D01*
X155801504Y-84540877D01*
X155639907Y-84716416D01*
X155639899Y-84716427D01*
X155614106Y-84755907D01*
X155560960Y-84801264D01*
X155491728Y-84810687D01*
X155428393Y-84781185D01*
X155406489Y-84755906D01*
X155380696Y-84716427D01*
X155380494Y-84716118D01*
X155218832Y-84540505D01*
X155030469Y-84393897D01*
X154934152Y-84341772D01*
X154820546Y-84280291D01*
X154820541Y-84280289D01*
X154594786Y-84202788D01*
X154437826Y-84176596D01*
X154359347Y-84163500D01*
X154120653Y-84163500D01*
X154061793Y-84173322D01*
X153885213Y-84202788D01*
X153659458Y-84280289D01*
X153659453Y-84280291D01*
X153449529Y-84393898D01*
X153261169Y-84540504D01*
X153099508Y-84716115D01*
X153073808Y-84755452D01*
X153020661Y-84800808D01*
X152951430Y-84810231D01*
X152888094Y-84780728D01*
X152866192Y-84755452D01*
X152840494Y-84716118D01*
X152678832Y-84540505D01*
X152490469Y-84393897D01*
X152394152Y-84341772D01*
X152280546Y-84280291D01*
X152280541Y-84280289D01*
X152054786Y-84202788D01*
X151897826Y-84176596D01*
X151819347Y-84163500D01*
X151580653Y-84163500D01*
X151521793Y-84173322D01*
X151345213Y-84202788D01*
X151119458Y-84280289D01*
X151119453Y-84280291D01*
X150909529Y-84393898D01*
X150721169Y-84540504D01*
X150559508Y-84716115D01*
X150533808Y-84755452D01*
X150480661Y-84800808D01*
X150411430Y-84810231D01*
X150348094Y-84780728D01*
X150326192Y-84755452D01*
X150300494Y-84716118D01*
X150138832Y-84540505D01*
X149950469Y-84393897D01*
X149854152Y-84341772D01*
X149740546Y-84280291D01*
X149740541Y-84280289D01*
X149514786Y-84202788D01*
X149357826Y-84176596D01*
X149279347Y-84163500D01*
X149040653Y-84163500D01*
X148981793Y-84173322D01*
X148805213Y-84202788D01*
X148579458Y-84280289D01*
X148579453Y-84280291D01*
X148369529Y-84393898D01*
X148181169Y-84540504D01*
X148019506Y-84716117D01*
X147888951Y-84915947D01*
X147793070Y-85134532D01*
X147734475Y-85365918D01*
X147734473Y-85365930D01*
X147714764Y-85603794D01*
X147714764Y-85603805D01*
X147734473Y-85841669D01*
X147734475Y-85841681D01*
X147793070Y-86073067D01*
X147888951Y-86291652D01*
X147888953Y-86291656D01*
X148019506Y-86491482D01*
X148181168Y-86667095D01*
X148369531Y-86813703D01*
X148579455Y-86927309D01*
X148805216Y-87004812D01*
X149040653Y-87044100D01*
X149040654Y-87044100D01*
X149279346Y-87044100D01*
X149279347Y-87044100D01*
X149514784Y-87004812D01*
X149740545Y-86927309D01*
X149950469Y-86813703D01*
X150138832Y-86667095D01*
X150300494Y-86491482D01*
X150326191Y-86452150D01*
X150379337Y-86406793D01*
X150448568Y-86397369D01*
X150511904Y-86426871D01*
X150533809Y-86452150D01*
X150559506Y-86491482D01*
X150721168Y-86667095D01*
X150909531Y-86813703D01*
X151119455Y-86927309D01*
X151345216Y-87004812D01*
X151580653Y-87044100D01*
X151580654Y-87044100D01*
X151819346Y-87044100D01*
X151819347Y-87044100D01*
X152054784Y-87004812D01*
X152280545Y-86927309D01*
X152490469Y-86813703D01*
X152678832Y-86667095D01*
X152840494Y-86491482D01*
X152866191Y-86452150D01*
X152919337Y-86406793D01*
X152988568Y-86397369D01*
X153051904Y-86426871D01*
X153073809Y-86452150D01*
X153099506Y-86491482D01*
X153261168Y-86667095D01*
X153449530Y-86813702D01*
X153449533Y-86813704D01*
X153574517Y-86881342D01*
X153624108Y-86930561D01*
X153639500Y-86990397D01*
X153639500Y-88310330D01*
X153639499Y-88310348D01*
X153639499Y-88476054D01*
X153639498Y-88476054D01*
X153680423Y-88628785D01*
X153709358Y-88678900D01*
X153709359Y-88678904D01*
X153709360Y-88678904D01*
X153759479Y-88765714D01*
X153759481Y-88765717D01*
X153878349Y-88884585D01*
X153878355Y-88884590D01*
X160889939Y-95896174D01*
X160889949Y-95896185D01*
X160894279Y-95900515D01*
X160894280Y-95900516D01*
X161006084Y-96012320D01*
X161092895Y-96062439D01*
X161092897Y-96062441D01*
X161130951Y-96084411D01*
X161143015Y-96091377D01*
X161295743Y-96132301D01*
X161295746Y-96132301D01*
X161461453Y-96132301D01*
X161461469Y-96132300D01*
X169459095Y-96132300D01*
X169526134Y-96151985D01*
X169560670Y-96185177D01*
X169632875Y-96288296D01*
X169673570Y-96346415D01*
X169673575Y-96346421D01*
X169829778Y-96502624D01*
X169829784Y-96502629D01*
X170010733Y-96629331D01*
X170010735Y-96629332D01*
X170010738Y-96629334D01*
X170130148Y-96685015D01*
X170139589Y-96689418D01*
X170192028Y-96735590D01*
X170211180Y-96802784D01*
X170190964Y-96869665D01*
X170139589Y-96914182D01*
X170010740Y-96974265D01*
X170010738Y-96974266D01*
X169829777Y-97100975D01*
X169673575Y-97257177D01*
X169546866Y-97438138D01*
X169546865Y-97438140D01*
X169453507Y-97638348D01*
X169453504Y-97638354D01*
X169396330Y-97851729D01*
X169396329Y-97851737D01*
X169377077Y-98071797D01*
X169377077Y-98071802D01*
X169396329Y-98291862D01*
X169396330Y-98291870D01*
X169453504Y-98505245D01*
X169453505Y-98505247D01*
X169453506Y-98505250D01*
X169530909Y-98671242D01*
X169546866Y-98705462D01*
X169546868Y-98705466D01*
X169673570Y-98886415D01*
X169673575Y-98886421D01*
X169829778Y-99042624D01*
X169829784Y-99042629D01*
X170010733Y-99169331D01*
X170010735Y-99169332D01*
X170010738Y-99169334D01*
X170079266Y-99201289D01*
X170139589Y-99229418D01*
X170192028Y-99275590D01*
X170211180Y-99342784D01*
X170190964Y-99409665D01*
X170139589Y-99454182D01*
X170010740Y-99514265D01*
X170010738Y-99514266D01*
X169829777Y-99640975D01*
X169673575Y-99797177D01*
X169546866Y-99978138D01*
X169546865Y-99978140D01*
X169453507Y-100178348D01*
X169453504Y-100178354D01*
X169396330Y-100391729D01*
X169396329Y-100391737D01*
X169377077Y-100611797D01*
X169377077Y-100611802D01*
X169396329Y-100831862D01*
X169396330Y-100831870D01*
X169453504Y-101045245D01*
X169453505Y-101045247D01*
X169453506Y-101045250D01*
X169546866Y-101245462D01*
X169546868Y-101245466D01*
X169673570Y-101426415D01*
X169673575Y-101426421D01*
X169829778Y-101582624D01*
X169829784Y-101582629D01*
X170010733Y-101709331D01*
X170010735Y-101709332D01*
X170010738Y-101709334D01*
X170130148Y-101765015D01*
X170139589Y-101769418D01*
X170192028Y-101815590D01*
X170211180Y-101882784D01*
X170190964Y-101949665D01*
X170139589Y-101994182D01*
X170010740Y-102054265D01*
X170010738Y-102054266D01*
X169829777Y-102180975D01*
X169673575Y-102337177D01*
X169560671Y-102498423D01*
X169506094Y-102542048D01*
X169459096Y-102551300D01*
X166294897Y-102551300D01*
X166227858Y-102531615D01*
X166207216Y-102514981D01*
X152720390Y-89028155D01*
X152720388Y-89028152D01*
X152601517Y-88909281D01*
X152601516Y-88909280D01*
X152514704Y-88859160D01*
X152514704Y-88859159D01*
X152514700Y-88859158D01*
X152464585Y-88830223D01*
X152311857Y-88789299D01*
X152153743Y-88789299D01*
X152146147Y-88789299D01*
X152146131Y-88789300D01*
X145822470Y-88789300D01*
X145822454Y-88789299D01*
X145814858Y-88789299D01*
X145656743Y-88789299D01*
X145580379Y-88809761D01*
X145504014Y-88830223D01*
X145504009Y-88830226D01*
X145367090Y-88909275D01*
X145367082Y-88909281D01*
X143784382Y-90491981D01*
X143723059Y-90525466D01*
X143696701Y-90528300D01*
X142471798Y-90528300D01*
X142471781Y-90528301D01*
X142369003Y-90538800D01*
X142369000Y-90538801D01*
X142202468Y-90593985D01*
X142202463Y-90593987D01*
X142053142Y-90686089D01*
X141929089Y-90810142D01*
X141836987Y-90959463D01*
X141836986Y-90959466D01*
X141781801Y-91126003D01*
X141781801Y-91126004D01*
X141781800Y-91126004D01*
X141771300Y-91228783D01*
X141771300Y-92528801D01*
X141771301Y-92528818D01*
X141781800Y-92631596D01*
X141781801Y-92631599D01*
X141836985Y-92798131D01*
X141836987Y-92798136D01*
X141929089Y-92947457D01*
X142053144Y-93071512D01*
X142207920Y-93166978D01*
X142254645Y-93218926D01*
X142265868Y-93287888D01*
X142238024Y-93351971D01*
X142230506Y-93360198D01*
X142091689Y-93499015D01*
X141966751Y-93670979D01*
X141870244Y-93860385D01*
X141804553Y-94062560D01*
X141783483Y-94195590D01*
X141771300Y-94272513D01*
X141771300Y-94485087D01*
X141804554Y-94695043D01*
X141844807Y-94818929D01*
X141870244Y-94897214D01*
X141966751Y-95086620D01*
X142091690Y-95258586D01*
X142242009Y-95408905D01*
X142242014Y-95408909D01*
X142406593Y-95528482D01*
X142449259Y-95583811D01*
X142455238Y-95653425D01*
X142422633Y-95715220D01*
X142406593Y-95729118D01*
X142242014Y-95848690D01*
X142242009Y-95848694D01*
X142091690Y-95999013D01*
X141966751Y-96170979D01*
X141870244Y-96360385D01*
X141804553Y-96562560D01*
X141777410Y-96733935D01*
X141771300Y-96772513D01*
X141771300Y-96985087D01*
X141804554Y-97195043D01*
X141843629Y-97315304D01*
X141870244Y-97397214D01*
X141966751Y-97586620D01*
X142091690Y-97758586D01*
X142242009Y-97908905D01*
X142242014Y-97908909D01*
X142407018Y-98028791D01*
X142449684Y-98084120D01*
X142455663Y-98153734D01*
X142423058Y-98215529D01*
X142407018Y-98229427D01*
X142242340Y-98349072D01*
X142242335Y-98349076D01*
X142092076Y-98499335D01*
X142092072Y-98499340D01*
X141967179Y-98671242D01*
X141870704Y-98860582D01*
X141805042Y-99062670D01*
X141805042Y-99062673D01*
X141794569Y-99128800D01*
X142842654Y-99128800D01*
X142804170Y-99195457D01*
X142771800Y-99316265D01*
X142771800Y-99441335D01*
X142804170Y-99562143D01*
X142842654Y-99628800D01*
X141794569Y-99628800D01*
X141805042Y-99694926D01*
X141805042Y-99694929D01*
X141870704Y-99897017D01*
X141967179Y-100086357D01*
X142092072Y-100258259D01*
X142092076Y-100258264D01*
X142242335Y-100408523D01*
X142242340Y-100408527D01*
X142414242Y-100533420D01*
X142603582Y-100629895D01*
X142805672Y-100695557D01*
X142996800Y-100725829D01*
X142996800Y-99782945D01*
X143063457Y-99821430D01*
X143184265Y-99853800D01*
X143309335Y-99853800D01*
X143430143Y-99821430D01*
X143496800Y-99782945D01*
X143496800Y-100725828D01*
X143687927Y-100695557D01*
X143890017Y-100629895D01*
X144079357Y-100533420D01*
X144251259Y-100408527D01*
X144251264Y-100408523D01*
X144334619Y-100325169D01*
X144395942Y-100291684D01*
X144465634Y-100296668D01*
X144521567Y-100338540D01*
X144545984Y-100404004D01*
X144546300Y-100412850D01*
X144546300Y-100538018D01*
X144526615Y-100605057D01*
X144509981Y-100625699D01*
X141733981Y-103401699D01*
X141672658Y-103435184D01*
X141602966Y-103430200D01*
X141547033Y-103388328D01*
X141522616Y-103322864D01*
X141522300Y-103314018D01*
X141522300Y-73794581D01*
X141541985Y-73727542D01*
X141558615Y-73706904D01*
X141672961Y-73592558D01*
X141734283Y-73559074D01*
X141803975Y-73564058D01*
X141859908Y-73605930D01*
X141871126Y-73623945D01*
X141966751Y-73811620D01*
X142091690Y-73983586D01*
X142242009Y-74133905D01*
X142242014Y-74133909D01*
X142406593Y-74253482D01*
X142449259Y-74308811D01*
X142455238Y-74378425D01*
X142422633Y-74440220D01*
X142406593Y-74454118D01*
X142242014Y-74573690D01*
X142242009Y-74573694D01*
X142091690Y-74724013D01*
X141966751Y-74895979D01*
X141870244Y-75085385D01*
X141804553Y-75287560D01*
X141793058Y-75360137D01*
X141771300Y-75497513D01*
X141771300Y-75710087D01*
X141804554Y-75920043D01*
X141849773Y-76059213D01*
X141870244Y-76122214D01*
X141966751Y-76311620D01*
X142091690Y-76483586D01*
X142242009Y-76633905D01*
X142242014Y-76633909D01*
X142406593Y-76753482D01*
X142449259Y-76808811D01*
X142455238Y-76878425D01*
X142422633Y-76940220D01*
X142406593Y-76954118D01*
X142242014Y-77073690D01*
X142242009Y-77073694D01*
X142091690Y-77224013D01*
X141966751Y-77395979D01*
X141870244Y-77585385D01*
X141804553Y-77787560D01*
X141771300Y-77997513D01*
X141771300Y-78210086D01*
X141804553Y-78420039D01*
X141870244Y-78622214D01*
X141966751Y-78811620D01*
X142091690Y-78983586D01*
X142242009Y-79133905D01*
X142242014Y-79133909D01*
X142407018Y-79253791D01*
X142449684Y-79309120D01*
X142455663Y-79378734D01*
X142423058Y-79440529D01*
X142407018Y-79454427D01*
X142242340Y-79574072D01*
X142242335Y-79574076D01*
X142092076Y-79724335D01*
X142092072Y-79724340D01*
X141967179Y-79896242D01*
X141870704Y-80085582D01*
X141805042Y-80287670D01*
X141805042Y-80287673D01*
X141794569Y-80353800D01*
X142842654Y-80353800D01*
X142804170Y-80420457D01*
X142771800Y-80541265D01*
X142771800Y-80666335D01*
X142804170Y-80787143D01*
X142842654Y-80853800D01*
X141794569Y-80853800D01*
X141805042Y-80919926D01*
X141805042Y-80919929D01*
X141870704Y-81122017D01*
X141967179Y-81311357D01*
X142092072Y-81483259D01*
X142092076Y-81483264D01*
X142242335Y-81633523D01*
X142242340Y-81633527D01*
X142414242Y-81758420D01*
X142603582Y-81854895D01*
X142805672Y-81920557D01*
X142996800Y-81950829D01*
X142996800Y-81007945D01*
X143063457Y-81046430D01*
X143184265Y-81078800D01*
X143309335Y-81078800D01*
X143430143Y-81046430D01*
X143496800Y-81007945D01*
X143496800Y-81950828D01*
X143687927Y-81920557D01*
X143890017Y-81854895D01*
X144079357Y-81758420D01*
X144251259Y-81633527D01*
X144251264Y-81633523D01*
X144401523Y-81483264D01*
X144401527Y-81483259D01*
X144526420Y-81311357D01*
X144622895Y-81122017D01*
X144688557Y-80919929D01*
X144688557Y-80919926D01*
X144699031Y-80853800D01*
X143650946Y-80853800D01*
X143689430Y-80787143D01*
X143721800Y-80666335D01*
X143721800Y-80541265D01*
X143689430Y-80420457D01*
X143650946Y-80353800D01*
X144699031Y-80353800D01*
X144688557Y-80287673D01*
X144688557Y-80287670D01*
X144622895Y-80085582D01*
X144526420Y-79896242D01*
X144401527Y-79724340D01*
X144401523Y-79724335D01*
X144251264Y-79574076D01*
X144251259Y-79574072D01*
X144086581Y-79454427D01*
X144043915Y-79399097D01*
X144037936Y-79329484D01*
X144070541Y-79267689D01*
X144086576Y-79253794D01*
X144251592Y-79133904D01*
X144401904Y-78983592D01*
X144401906Y-78983588D01*
X144401909Y-78983586D01*
X144526848Y-78811620D01*
X144526847Y-78811620D01*
X144526851Y-78811616D01*
X144623357Y-78622212D01*
X144689046Y-78420043D01*
X144722300Y-78210087D01*
X144722300Y-77997513D01*
X144689046Y-77787557D01*
X144623357Y-77585388D01*
X144526851Y-77395984D01*
X144526849Y-77395981D01*
X144526848Y-77395979D01*
X144401909Y-77224013D01*
X144251592Y-77073696D01*
X144197450Y-77034360D01*
X144087004Y-76954116D01*
X144044340Y-76898789D01*
X144038361Y-76829176D01*
X144070966Y-76767380D01*
X144086999Y-76753486D01*
X144251592Y-76633904D01*
X144401904Y-76483592D01*
X144401906Y-76483588D01*
X144401909Y-76483586D01*
X144526848Y-76311620D01*
X144526847Y-76311620D01*
X144526851Y-76311616D01*
X144623357Y-76122212D01*
X144689046Y-75920043D01*
X144722300Y-75710087D01*
X144722300Y-75654488D01*
X157346300Y-75654488D01*
X157377961Y-75894985D01*
X157440747Y-76129304D01*
X157516265Y-76311620D01*
X157533576Y-76353412D01*
X157654864Y-76563489D01*
X157654866Y-76563492D01*
X157654867Y-76563493D01*
X157802533Y-76755936D01*
X157802539Y-76755943D01*
X157974056Y-76927460D01*
X157974063Y-76927466D01*
X158001800Y-76948749D01*
X158166511Y-77075136D01*
X158376588Y-77196424D01*
X158600700Y-77289254D01*
X158835011Y-77352038D01*
X159015386Y-77375784D01*
X159075511Y-77383700D01*
X159075512Y-77383700D01*
X159318089Y-77383700D01*
X159366188Y-77377367D01*
X159558589Y-77352038D01*
X159792900Y-77289254D01*
X160017012Y-77196424D01*
X160227089Y-77075136D01*
X160419538Y-76927465D01*
X160591065Y-76755938D01*
X160738736Y-76563489D01*
X160860024Y-76353412D01*
X160952854Y-76129300D01*
X161015638Y-75894989D01*
X161047300Y-75654488D01*
X161047300Y-75411912D01*
X161015638Y-75171411D01*
X160952854Y-74937100D01*
X160860024Y-74712988D01*
X160738736Y-74502911D01*
X160591065Y-74310462D01*
X160591060Y-74310456D01*
X160419543Y-74138939D01*
X160419536Y-74138933D01*
X160227093Y-73991267D01*
X160227092Y-73991266D01*
X160227089Y-73991264D01*
X160017012Y-73869976D01*
X160017005Y-73869973D01*
X159792904Y-73777147D01*
X159558585Y-73714361D01*
X159318089Y-73682700D01*
X159318088Y-73682700D01*
X159075512Y-73682700D01*
X159075511Y-73682700D01*
X158835014Y-73714361D01*
X158600695Y-73777147D01*
X158376594Y-73869973D01*
X158376585Y-73869977D01*
X158166506Y-73991267D01*
X157974063Y-74138933D01*
X157974056Y-74138939D01*
X157802539Y-74310456D01*
X157802533Y-74310463D01*
X157654867Y-74502906D01*
X157533577Y-74712985D01*
X157533573Y-74712994D01*
X157440747Y-74937095D01*
X157377961Y-75171414D01*
X157346300Y-75411911D01*
X157346300Y-75654488D01*
X144722300Y-75654488D01*
X144722300Y-75497513D01*
X144689046Y-75287557D01*
X144623357Y-75085388D01*
X144526851Y-74895984D01*
X144526849Y-74895981D01*
X144526848Y-74895979D01*
X144401909Y-74724013D01*
X144251592Y-74573696D01*
X144224207Y-74553800D01*
X144087004Y-74454116D01*
X144044340Y-74398789D01*
X144038361Y-74329176D01*
X144070966Y-74267380D01*
X144086999Y-74253486D01*
X144251592Y-74133904D01*
X144401904Y-73983592D01*
X144401906Y-73983588D01*
X144401909Y-73983586D01*
X144526848Y-73811620D01*
X144526847Y-73811620D01*
X144526851Y-73811616D01*
X144623357Y-73622212D01*
X144689046Y-73420043D01*
X144722300Y-73210087D01*
X144722300Y-72997513D01*
X144689046Y-72787557D01*
X144623357Y-72585388D01*
X144526851Y-72395984D01*
X144526849Y-72395981D01*
X144526848Y-72395979D01*
X144401909Y-72224013D01*
X144263094Y-72085198D01*
X144229609Y-72023875D01*
X144234593Y-71954183D01*
X144276465Y-71898250D01*
X144285679Y-71891978D01*
X144291131Y-71888614D01*
X144291134Y-71888614D01*
X144440456Y-71796512D01*
X144564512Y-71672456D01*
X144656614Y-71523134D01*
X144711799Y-71356597D01*
X144722300Y-71253809D01*
X144722299Y-70594580D01*
X144741983Y-70527542D01*
X144758613Y-70506905D01*
X147574902Y-67690619D01*
X147636225Y-67657134D01*
X147662583Y-67654300D01*
X168534297Y-67654300D01*
X168601336Y-67673985D01*
G37*
%TD.AperFunction*%
%TD*%
M02*
