%TF.GenerationSoftware,KiCad,Pcbnew,8.0.1*%
%TF.CreationDate,2024-04-28T12:45:51+02:00*%
%TF.ProjectId,MainControllerNodeMCU-32S,4d61696e-436f-46e7-9472-6f6c6c65724e,rev?*%
%TF.SameCoordinates,Original*%
%TF.FileFunction,Drillmap*%
%TF.FilePolarity,Positive*%
%FSLAX45Y45*%
G04 Gerber Fmt 4.5, Leading zero omitted, Abs format (unit mm)*
G04 Created by KiCad (PCBNEW 8.0.1) date 2024-04-28 12:45:51*
%MOMM*%
%LPD*%
G01*
G04 APERTURE LIST*
%ADD10C,0.050000*%
%ADD11C,0.200000*%
%ADD12C,0.320000*%
G04 APERTURE END LIST*
D10*
X13844680Y-6510380D02*
X17294680Y-6510380D01*
X17294680Y-13910380D01*
X13844680Y-13910380D01*
X13844680Y-6510380D01*
D11*
D12*
X15759680Y-7393320D02*
X16079680Y-7713320D01*
X16079680Y-7393320D02*
X15759680Y-7713320D01*
X15759680Y-12800380D02*
X16079680Y-13120380D01*
X16079680Y-12800380D02*
X15759680Y-13120380D01*
D11*
X14102957Y-14224364D02*
X14102957Y-14024364D01*
X14102957Y-14024364D02*
X14150576Y-14024364D01*
X14150576Y-14024364D02*
X14179147Y-14033888D01*
X14179147Y-14033888D02*
X14198195Y-14052935D01*
X14198195Y-14052935D02*
X14207719Y-14071983D01*
X14207719Y-14071983D02*
X14217242Y-14110078D01*
X14217242Y-14110078D02*
X14217242Y-14138649D01*
X14217242Y-14138649D02*
X14207719Y-14176745D01*
X14207719Y-14176745D02*
X14198195Y-14195792D01*
X14198195Y-14195792D02*
X14179147Y-14214840D01*
X14179147Y-14214840D02*
X14150576Y-14224364D01*
X14150576Y-14224364D02*
X14102957Y-14224364D01*
X14302957Y-14224364D02*
X14302957Y-14091030D01*
X14302957Y-14129126D02*
X14312481Y-14110078D01*
X14312481Y-14110078D02*
X14322004Y-14100554D01*
X14322004Y-14100554D02*
X14341052Y-14091030D01*
X14341052Y-14091030D02*
X14360100Y-14091030D01*
X14426766Y-14224364D02*
X14426766Y-14091030D01*
X14426766Y-14024364D02*
X14417242Y-14033888D01*
X14417242Y-14033888D02*
X14426766Y-14043411D01*
X14426766Y-14043411D02*
X14436290Y-14033888D01*
X14436290Y-14033888D02*
X14426766Y-14024364D01*
X14426766Y-14024364D02*
X14426766Y-14043411D01*
X14550576Y-14224364D02*
X14531528Y-14214840D01*
X14531528Y-14214840D02*
X14522004Y-14195792D01*
X14522004Y-14195792D02*
X14522004Y-14024364D01*
X14655338Y-14224364D02*
X14636290Y-14214840D01*
X14636290Y-14214840D02*
X14626766Y-14195792D01*
X14626766Y-14195792D02*
X14626766Y-14024364D01*
X14883909Y-14224364D02*
X14883909Y-14024364D01*
X14883909Y-14024364D02*
X14950576Y-14167221D01*
X14950576Y-14167221D02*
X15017242Y-14024364D01*
X15017242Y-14024364D02*
X15017242Y-14224364D01*
X15198195Y-14224364D02*
X15198195Y-14119602D01*
X15198195Y-14119602D02*
X15188671Y-14100554D01*
X15188671Y-14100554D02*
X15169623Y-14091030D01*
X15169623Y-14091030D02*
X15131528Y-14091030D01*
X15131528Y-14091030D02*
X15112481Y-14100554D01*
X15198195Y-14214840D02*
X15179147Y-14224364D01*
X15179147Y-14224364D02*
X15131528Y-14224364D01*
X15131528Y-14224364D02*
X15112481Y-14214840D01*
X15112481Y-14214840D02*
X15102957Y-14195792D01*
X15102957Y-14195792D02*
X15102957Y-14176745D01*
X15102957Y-14176745D02*
X15112481Y-14157697D01*
X15112481Y-14157697D02*
X15131528Y-14148173D01*
X15131528Y-14148173D02*
X15179147Y-14148173D01*
X15179147Y-14148173D02*
X15198195Y-14138649D01*
X15293433Y-14091030D02*
X15293433Y-14291030D01*
X15293433Y-14100554D02*
X15312481Y-14091030D01*
X15312481Y-14091030D02*
X15350576Y-14091030D01*
X15350576Y-14091030D02*
X15369623Y-14100554D01*
X15369623Y-14100554D02*
X15379147Y-14110078D01*
X15379147Y-14110078D02*
X15388671Y-14129126D01*
X15388671Y-14129126D02*
X15388671Y-14186268D01*
X15388671Y-14186268D02*
X15379147Y-14205316D01*
X15379147Y-14205316D02*
X15369623Y-14214840D01*
X15369623Y-14214840D02*
X15350576Y-14224364D01*
X15350576Y-14224364D02*
X15312481Y-14224364D01*
X15312481Y-14224364D02*
X15293433Y-14214840D01*
X15474385Y-14205316D02*
X15483909Y-14214840D01*
X15483909Y-14214840D02*
X15474385Y-14224364D01*
X15474385Y-14224364D02*
X15464862Y-14214840D01*
X15464862Y-14214840D02*
X15474385Y-14205316D01*
X15474385Y-14205316D02*
X15474385Y-14224364D01*
X15474385Y-14100554D02*
X15483909Y-14110078D01*
X15483909Y-14110078D02*
X15474385Y-14119602D01*
X15474385Y-14119602D02*
X15464862Y-14110078D01*
X15464862Y-14110078D02*
X15474385Y-14100554D01*
X15474385Y-14100554D02*
X15474385Y-14119602D01*
X13642180Y-14452880D02*
X13842180Y-14652880D01*
X13842180Y-14452880D02*
X13642180Y-14652880D01*
X14083909Y-14444364D02*
X14207719Y-14444364D01*
X14207719Y-14444364D02*
X14141052Y-14520554D01*
X14141052Y-14520554D02*
X14169623Y-14520554D01*
X14169623Y-14520554D02*
X14188671Y-14530078D01*
X14188671Y-14530078D02*
X14198195Y-14539602D01*
X14198195Y-14539602D02*
X14207719Y-14558649D01*
X14207719Y-14558649D02*
X14207719Y-14606268D01*
X14207719Y-14606268D02*
X14198195Y-14625316D01*
X14198195Y-14625316D02*
X14188671Y-14634840D01*
X14188671Y-14634840D02*
X14169623Y-14644364D01*
X14169623Y-14644364D02*
X14112481Y-14644364D01*
X14112481Y-14644364D02*
X14093433Y-14634840D01*
X14093433Y-14634840D02*
X14083909Y-14625316D01*
X14293433Y-14625316D02*
X14302957Y-14634840D01*
X14302957Y-14634840D02*
X14293433Y-14644364D01*
X14293433Y-14644364D02*
X14283909Y-14634840D01*
X14283909Y-14634840D02*
X14293433Y-14625316D01*
X14293433Y-14625316D02*
X14293433Y-14644364D01*
X14379147Y-14463411D02*
X14388671Y-14453888D01*
X14388671Y-14453888D02*
X14407719Y-14444364D01*
X14407719Y-14444364D02*
X14455338Y-14444364D01*
X14455338Y-14444364D02*
X14474385Y-14453888D01*
X14474385Y-14453888D02*
X14483909Y-14463411D01*
X14483909Y-14463411D02*
X14493433Y-14482459D01*
X14493433Y-14482459D02*
X14493433Y-14501507D01*
X14493433Y-14501507D02*
X14483909Y-14530078D01*
X14483909Y-14530078D02*
X14369623Y-14644364D01*
X14369623Y-14644364D02*
X14493433Y-14644364D01*
X14617242Y-14444364D02*
X14636290Y-14444364D01*
X14636290Y-14444364D02*
X14655338Y-14453888D01*
X14655338Y-14453888D02*
X14664862Y-14463411D01*
X14664862Y-14463411D02*
X14674385Y-14482459D01*
X14674385Y-14482459D02*
X14683909Y-14520554D01*
X14683909Y-14520554D02*
X14683909Y-14568173D01*
X14683909Y-14568173D02*
X14674385Y-14606268D01*
X14674385Y-14606268D02*
X14664862Y-14625316D01*
X14664862Y-14625316D02*
X14655338Y-14634840D01*
X14655338Y-14634840D02*
X14636290Y-14644364D01*
X14636290Y-14644364D02*
X14617242Y-14644364D01*
X14617242Y-14644364D02*
X14598195Y-14634840D01*
X14598195Y-14634840D02*
X14588671Y-14625316D01*
X14588671Y-14625316D02*
X14579147Y-14606268D01*
X14579147Y-14606268D02*
X14569623Y-14568173D01*
X14569623Y-14568173D02*
X14569623Y-14520554D01*
X14569623Y-14520554D02*
X14579147Y-14482459D01*
X14579147Y-14482459D02*
X14588671Y-14463411D01*
X14588671Y-14463411D02*
X14598195Y-14453888D01*
X14598195Y-14453888D02*
X14617242Y-14444364D01*
X14807719Y-14444364D02*
X14826766Y-14444364D01*
X14826766Y-14444364D02*
X14845814Y-14453888D01*
X14845814Y-14453888D02*
X14855338Y-14463411D01*
X14855338Y-14463411D02*
X14864862Y-14482459D01*
X14864862Y-14482459D02*
X14874385Y-14520554D01*
X14874385Y-14520554D02*
X14874385Y-14568173D01*
X14874385Y-14568173D02*
X14864862Y-14606268D01*
X14864862Y-14606268D02*
X14855338Y-14625316D01*
X14855338Y-14625316D02*
X14845814Y-14634840D01*
X14845814Y-14634840D02*
X14826766Y-14644364D01*
X14826766Y-14644364D02*
X14807719Y-14644364D01*
X14807719Y-14644364D02*
X14788671Y-14634840D01*
X14788671Y-14634840D02*
X14779147Y-14625316D01*
X14779147Y-14625316D02*
X14769623Y-14606268D01*
X14769623Y-14606268D02*
X14760100Y-14568173D01*
X14760100Y-14568173D02*
X14760100Y-14520554D01*
X14760100Y-14520554D02*
X14769623Y-14482459D01*
X14769623Y-14482459D02*
X14779147Y-14463411D01*
X14779147Y-14463411D02*
X14788671Y-14453888D01*
X14788671Y-14453888D02*
X14807719Y-14444364D01*
X14960100Y-14644364D02*
X14960100Y-14511030D01*
X14960100Y-14530078D02*
X14969623Y-14520554D01*
X14969623Y-14520554D02*
X14988671Y-14511030D01*
X14988671Y-14511030D02*
X15017243Y-14511030D01*
X15017243Y-14511030D02*
X15036290Y-14520554D01*
X15036290Y-14520554D02*
X15045814Y-14539602D01*
X15045814Y-14539602D02*
X15045814Y-14644364D01*
X15045814Y-14539602D02*
X15055338Y-14520554D01*
X15055338Y-14520554D02*
X15074385Y-14511030D01*
X15074385Y-14511030D02*
X15102957Y-14511030D01*
X15102957Y-14511030D02*
X15122004Y-14520554D01*
X15122004Y-14520554D02*
X15131528Y-14539602D01*
X15131528Y-14539602D02*
X15131528Y-14644364D01*
X15226766Y-14644364D02*
X15226766Y-14511030D01*
X15226766Y-14530078D02*
X15236290Y-14520554D01*
X15236290Y-14520554D02*
X15255338Y-14511030D01*
X15255338Y-14511030D02*
X15283909Y-14511030D01*
X15283909Y-14511030D02*
X15302957Y-14520554D01*
X15302957Y-14520554D02*
X15312481Y-14539602D01*
X15312481Y-14539602D02*
X15312481Y-14644364D01*
X15312481Y-14539602D02*
X15322004Y-14520554D01*
X15322004Y-14520554D02*
X15341052Y-14511030D01*
X15341052Y-14511030D02*
X15369623Y-14511030D01*
X15369623Y-14511030D02*
X15388671Y-14520554D01*
X15388671Y-14520554D02*
X15398195Y-14539602D01*
X15398195Y-14539602D02*
X15398195Y-14644364D01*
X15788671Y-14434840D02*
X15617243Y-14691983D01*
X16045814Y-14444364D02*
X16064862Y-14444364D01*
X16064862Y-14444364D02*
X16083909Y-14453888D01*
X16083909Y-14453888D02*
X16093433Y-14463411D01*
X16093433Y-14463411D02*
X16102957Y-14482459D01*
X16102957Y-14482459D02*
X16112481Y-14520554D01*
X16112481Y-14520554D02*
X16112481Y-14568173D01*
X16112481Y-14568173D02*
X16102957Y-14606268D01*
X16102957Y-14606268D02*
X16093433Y-14625316D01*
X16093433Y-14625316D02*
X16083909Y-14634840D01*
X16083909Y-14634840D02*
X16064862Y-14644364D01*
X16064862Y-14644364D02*
X16045814Y-14644364D01*
X16045814Y-14644364D02*
X16026766Y-14634840D01*
X16026766Y-14634840D02*
X16017243Y-14625316D01*
X16017243Y-14625316D02*
X16007719Y-14606268D01*
X16007719Y-14606268D02*
X15998195Y-14568173D01*
X15998195Y-14568173D02*
X15998195Y-14520554D01*
X15998195Y-14520554D02*
X16007719Y-14482459D01*
X16007719Y-14482459D02*
X16017243Y-14463411D01*
X16017243Y-14463411D02*
X16026766Y-14453888D01*
X16026766Y-14453888D02*
X16045814Y-14444364D01*
X16198195Y-14625316D02*
X16207719Y-14634840D01*
X16207719Y-14634840D02*
X16198195Y-14644364D01*
X16198195Y-14644364D02*
X16188671Y-14634840D01*
X16188671Y-14634840D02*
X16198195Y-14625316D01*
X16198195Y-14625316D02*
X16198195Y-14644364D01*
X16398195Y-14644364D02*
X16283909Y-14644364D01*
X16341052Y-14644364D02*
X16341052Y-14444364D01*
X16341052Y-14444364D02*
X16322005Y-14472935D01*
X16322005Y-14472935D02*
X16302957Y-14491983D01*
X16302957Y-14491983D02*
X16283909Y-14501507D01*
X16474386Y-14463411D02*
X16483909Y-14453888D01*
X16483909Y-14453888D02*
X16502957Y-14444364D01*
X16502957Y-14444364D02*
X16550576Y-14444364D01*
X16550576Y-14444364D02*
X16569624Y-14453888D01*
X16569624Y-14453888D02*
X16579147Y-14463411D01*
X16579147Y-14463411D02*
X16588671Y-14482459D01*
X16588671Y-14482459D02*
X16588671Y-14501507D01*
X16588671Y-14501507D02*
X16579147Y-14530078D01*
X16579147Y-14530078D02*
X16464862Y-14644364D01*
X16464862Y-14644364D02*
X16588671Y-14644364D01*
X16760100Y-14444364D02*
X16722005Y-14444364D01*
X16722005Y-14444364D02*
X16702957Y-14453888D01*
X16702957Y-14453888D02*
X16693433Y-14463411D01*
X16693433Y-14463411D02*
X16674386Y-14491983D01*
X16674386Y-14491983D02*
X16664862Y-14530078D01*
X16664862Y-14530078D02*
X16664862Y-14606268D01*
X16664862Y-14606268D02*
X16674386Y-14625316D01*
X16674386Y-14625316D02*
X16683909Y-14634840D01*
X16683909Y-14634840D02*
X16702957Y-14644364D01*
X16702957Y-14644364D02*
X16741052Y-14644364D01*
X16741052Y-14644364D02*
X16760100Y-14634840D01*
X16760100Y-14634840D02*
X16769624Y-14625316D01*
X16769624Y-14625316D02*
X16779148Y-14606268D01*
X16779148Y-14606268D02*
X16779148Y-14558649D01*
X16779148Y-14558649D02*
X16769624Y-14539602D01*
X16769624Y-14539602D02*
X16760100Y-14530078D01*
X16760100Y-14530078D02*
X16741052Y-14520554D01*
X16741052Y-14520554D02*
X16702957Y-14520554D01*
X16702957Y-14520554D02*
X16683909Y-14530078D01*
X16683909Y-14530078D02*
X16674386Y-14539602D01*
X16674386Y-14539602D02*
X16664862Y-14558649D01*
X16902957Y-14444364D02*
X16922005Y-14444364D01*
X16922005Y-14444364D02*
X16941052Y-14453888D01*
X16941052Y-14453888D02*
X16950576Y-14463411D01*
X16950576Y-14463411D02*
X16960100Y-14482459D01*
X16960100Y-14482459D02*
X16969624Y-14520554D01*
X16969624Y-14520554D02*
X16969624Y-14568173D01*
X16969624Y-14568173D02*
X16960100Y-14606268D01*
X16960100Y-14606268D02*
X16950576Y-14625316D01*
X16950576Y-14625316D02*
X16941052Y-14634840D01*
X16941052Y-14634840D02*
X16922005Y-14644364D01*
X16922005Y-14644364D02*
X16902957Y-14644364D01*
X16902957Y-14644364D02*
X16883909Y-14634840D01*
X16883909Y-14634840D02*
X16874386Y-14625316D01*
X16874386Y-14625316D02*
X16864862Y-14606268D01*
X16864862Y-14606268D02*
X16855338Y-14568173D01*
X16855338Y-14568173D02*
X16855338Y-14520554D01*
X16855338Y-14520554D02*
X16864862Y-14482459D01*
X16864862Y-14482459D02*
X16874386Y-14463411D01*
X16874386Y-14463411D02*
X16883909Y-14453888D01*
X16883909Y-14453888D02*
X16902957Y-14444364D01*
X17045814Y-14444364D02*
X17045814Y-14482459D01*
X17122005Y-14444364D02*
X17122005Y-14482459D01*
X17417243Y-14720554D02*
X17407719Y-14711030D01*
X17407719Y-14711030D02*
X17388671Y-14682459D01*
X17388671Y-14682459D02*
X17379148Y-14663411D01*
X17379148Y-14663411D02*
X17369624Y-14634840D01*
X17369624Y-14634840D02*
X17360100Y-14587221D01*
X17360100Y-14587221D02*
X17360100Y-14549126D01*
X17360100Y-14549126D02*
X17369624Y-14501507D01*
X17369624Y-14501507D02*
X17379148Y-14472935D01*
X17379148Y-14472935D02*
X17388671Y-14453888D01*
X17388671Y-14453888D02*
X17407719Y-14425316D01*
X17407719Y-14425316D02*
X17417243Y-14415792D01*
X17483910Y-14463411D02*
X17493433Y-14453888D01*
X17493433Y-14453888D02*
X17512481Y-14444364D01*
X17512481Y-14444364D02*
X17560100Y-14444364D01*
X17560100Y-14444364D02*
X17579148Y-14453888D01*
X17579148Y-14453888D02*
X17588671Y-14463411D01*
X17588671Y-14463411D02*
X17598195Y-14482459D01*
X17598195Y-14482459D02*
X17598195Y-14501507D01*
X17598195Y-14501507D02*
X17588671Y-14530078D01*
X17588671Y-14530078D02*
X17474386Y-14644364D01*
X17474386Y-14644364D02*
X17598195Y-14644364D01*
X17836291Y-14644364D02*
X17836291Y-14444364D01*
X17922005Y-14644364D02*
X17922005Y-14539602D01*
X17922005Y-14539602D02*
X17912481Y-14520554D01*
X17912481Y-14520554D02*
X17893433Y-14511030D01*
X17893433Y-14511030D02*
X17864862Y-14511030D01*
X17864862Y-14511030D02*
X17845814Y-14520554D01*
X17845814Y-14520554D02*
X17836291Y-14530078D01*
X18045814Y-14644364D02*
X18026767Y-14634840D01*
X18026767Y-14634840D02*
X18017243Y-14625316D01*
X18017243Y-14625316D02*
X18007719Y-14606268D01*
X18007719Y-14606268D02*
X18007719Y-14549126D01*
X18007719Y-14549126D02*
X18017243Y-14530078D01*
X18017243Y-14530078D02*
X18026767Y-14520554D01*
X18026767Y-14520554D02*
X18045814Y-14511030D01*
X18045814Y-14511030D02*
X18074386Y-14511030D01*
X18074386Y-14511030D02*
X18093433Y-14520554D01*
X18093433Y-14520554D02*
X18102957Y-14530078D01*
X18102957Y-14530078D02*
X18112481Y-14549126D01*
X18112481Y-14549126D02*
X18112481Y-14606268D01*
X18112481Y-14606268D02*
X18102957Y-14625316D01*
X18102957Y-14625316D02*
X18093433Y-14634840D01*
X18093433Y-14634840D02*
X18074386Y-14644364D01*
X18074386Y-14644364D02*
X18045814Y-14644364D01*
X18226767Y-14644364D02*
X18207719Y-14634840D01*
X18207719Y-14634840D02*
X18198195Y-14615792D01*
X18198195Y-14615792D02*
X18198195Y-14444364D01*
X18379148Y-14634840D02*
X18360100Y-14644364D01*
X18360100Y-14644364D02*
X18322005Y-14644364D01*
X18322005Y-14644364D02*
X18302957Y-14634840D01*
X18302957Y-14634840D02*
X18293433Y-14615792D01*
X18293433Y-14615792D02*
X18293433Y-14539602D01*
X18293433Y-14539602D02*
X18302957Y-14520554D01*
X18302957Y-14520554D02*
X18322005Y-14511030D01*
X18322005Y-14511030D02*
X18360100Y-14511030D01*
X18360100Y-14511030D02*
X18379148Y-14520554D01*
X18379148Y-14520554D02*
X18388672Y-14539602D01*
X18388672Y-14539602D02*
X18388672Y-14558649D01*
X18388672Y-14558649D02*
X18293433Y-14577697D01*
X18464862Y-14634840D02*
X18483910Y-14644364D01*
X18483910Y-14644364D02*
X18522005Y-14644364D01*
X18522005Y-14644364D02*
X18541053Y-14634840D01*
X18541053Y-14634840D02*
X18550576Y-14615792D01*
X18550576Y-14615792D02*
X18550576Y-14606268D01*
X18550576Y-14606268D02*
X18541053Y-14587221D01*
X18541053Y-14587221D02*
X18522005Y-14577697D01*
X18522005Y-14577697D02*
X18493433Y-14577697D01*
X18493433Y-14577697D02*
X18474386Y-14568173D01*
X18474386Y-14568173D02*
X18464862Y-14549126D01*
X18464862Y-14549126D02*
X18464862Y-14539602D01*
X18464862Y-14539602D02*
X18474386Y-14520554D01*
X18474386Y-14520554D02*
X18493433Y-14511030D01*
X18493433Y-14511030D02*
X18522005Y-14511030D01*
X18522005Y-14511030D02*
X18541053Y-14520554D01*
X18617243Y-14720554D02*
X18626767Y-14711030D01*
X18626767Y-14711030D02*
X18645814Y-14682459D01*
X18645814Y-14682459D02*
X18655338Y-14663411D01*
X18655338Y-14663411D02*
X18664862Y-14634840D01*
X18664862Y-14634840D02*
X18674386Y-14587221D01*
X18674386Y-14587221D02*
X18674386Y-14549126D01*
X18674386Y-14549126D02*
X18664862Y-14501507D01*
X18664862Y-14501507D02*
X18655338Y-14472935D01*
X18655338Y-14472935D02*
X18645814Y-14453888D01*
X18645814Y-14453888D02*
X18626767Y-14425316D01*
X18626767Y-14425316D02*
X18617243Y-14415792D01*
X18979148Y-14720554D02*
X18969624Y-14711030D01*
X18969624Y-14711030D02*
X18950576Y-14682459D01*
X18950576Y-14682459D02*
X18941053Y-14663411D01*
X18941053Y-14663411D02*
X18931529Y-14634840D01*
X18931529Y-14634840D02*
X18922005Y-14587221D01*
X18922005Y-14587221D02*
X18922005Y-14549126D01*
X18922005Y-14549126D02*
X18931529Y-14501507D01*
X18931529Y-14501507D02*
X18941053Y-14472935D01*
X18941053Y-14472935D02*
X18950576Y-14453888D01*
X18950576Y-14453888D02*
X18969624Y-14425316D01*
X18969624Y-14425316D02*
X18979148Y-14415792D01*
X19055338Y-14511030D02*
X19055338Y-14644364D01*
X19055338Y-14530078D02*
X19064862Y-14520554D01*
X19064862Y-14520554D02*
X19083910Y-14511030D01*
X19083910Y-14511030D02*
X19112481Y-14511030D01*
X19112481Y-14511030D02*
X19131529Y-14520554D01*
X19131529Y-14520554D02*
X19141053Y-14539602D01*
X19141053Y-14539602D02*
X19141053Y-14644364D01*
X19264862Y-14644364D02*
X19245814Y-14634840D01*
X19245814Y-14634840D02*
X19236291Y-14625316D01*
X19236291Y-14625316D02*
X19226767Y-14606268D01*
X19226767Y-14606268D02*
X19226767Y-14549126D01*
X19226767Y-14549126D02*
X19236291Y-14530078D01*
X19236291Y-14530078D02*
X19245814Y-14520554D01*
X19245814Y-14520554D02*
X19264862Y-14511030D01*
X19264862Y-14511030D02*
X19293434Y-14511030D01*
X19293434Y-14511030D02*
X19312481Y-14520554D01*
X19312481Y-14520554D02*
X19322005Y-14530078D01*
X19322005Y-14530078D02*
X19331529Y-14549126D01*
X19331529Y-14549126D02*
X19331529Y-14606268D01*
X19331529Y-14606268D02*
X19322005Y-14625316D01*
X19322005Y-14625316D02*
X19312481Y-14634840D01*
X19312481Y-14634840D02*
X19293434Y-14644364D01*
X19293434Y-14644364D02*
X19264862Y-14644364D01*
X19388672Y-14511030D02*
X19464862Y-14511030D01*
X19417243Y-14444364D02*
X19417243Y-14615792D01*
X19417243Y-14615792D02*
X19426767Y-14634840D01*
X19426767Y-14634840D02*
X19445814Y-14644364D01*
X19445814Y-14644364D02*
X19464862Y-14644364D01*
X19683910Y-14511030D02*
X19683910Y-14711030D01*
X19683910Y-14520554D02*
X19702957Y-14511030D01*
X19702957Y-14511030D02*
X19741053Y-14511030D01*
X19741053Y-14511030D02*
X19760100Y-14520554D01*
X19760100Y-14520554D02*
X19769624Y-14530078D01*
X19769624Y-14530078D02*
X19779148Y-14549126D01*
X19779148Y-14549126D02*
X19779148Y-14606268D01*
X19779148Y-14606268D02*
X19769624Y-14625316D01*
X19769624Y-14625316D02*
X19760100Y-14634840D01*
X19760100Y-14634840D02*
X19741053Y-14644364D01*
X19741053Y-14644364D02*
X19702957Y-14644364D01*
X19702957Y-14644364D02*
X19683910Y-14634840D01*
X19893434Y-14644364D02*
X19874386Y-14634840D01*
X19874386Y-14634840D02*
X19864862Y-14615792D01*
X19864862Y-14615792D02*
X19864862Y-14444364D01*
X20055338Y-14644364D02*
X20055338Y-14539602D01*
X20055338Y-14539602D02*
X20045815Y-14520554D01*
X20045815Y-14520554D02*
X20026767Y-14511030D01*
X20026767Y-14511030D02*
X19988672Y-14511030D01*
X19988672Y-14511030D02*
X19969624Y-14520554D01*
X20055338Y-14634840D02*
X20036291Y-14644364D01*
X20036291Y-14644364D02*
X19988672Y-14644364D01*
X19988672Y-14644364D02*
X19969624Y-14634840D01*
X19969624Y-14634840D02*
X19960100Y-14615792D01*
X19960100Y-14615792D02*
X19960100Y-14596745D01*
X19960100Y-14596745D02*
X19969624Y-14577697D01*
X19969624Y-14577697D02*
X19988672Y-14568173D01*
X19988672Y-14568173D02*
X20036291Y-14568173D01*
X20036291Y-14568173D02*
X20055338Y-14558649D01*
X20122005Y-14511030D02*
X20198195Y-14511030D01*
X20150576Y-14444364D02*
X20150576Y-14615792D01*
X20150576Y-14615792D02*
X20160100Y-14634840D01*
X20160100Y-14634840D02*
X20179148Y-14644364D01*
X20179148Y-14644364D02*
X20198195Y-14644364D01*
X20341053Y-14634840D02*
X20322005Y-14644364D01*
X20322005Y-14644364D02*
X20283910Y-14644364D01*
X20283910Y-14644364D02*
X20264862Y-14634840D01*
X20264862Y-14634840D02*
X20255338Y-14615792D01*
X20255338Y-14615792D02*
X20255338Y-14539602D01*
X20255338Y-14539602D02*
X20264862Y-14520554D01*
X20264862Y-14520554D02*
X20283910Y-14511030D01*
X20283910Y-14511030D02*
X20322005Y-14511030D01*
X20322005Y-14511030D02*
X20341053Y-14520554D01*
X20341053Y-14520554D02*
X20350576Y-14539602D01*
X20350576Y-14539602D02*
X20350576Y-14558649D01*
X20350576Y-14558649D02*
X20255338Y-14577697D01*
X20522005Y-14644364D02*
X20522005Y-14444364D01*
X20522005Y-14634840D02*
X20502957Y-14644364D01*
X20502957Y-14644364D02*
X20464862Y-14644364D01*
X20464862Y-14644364D02*
X20445815Y-14634840D01*
X20445815Y-14634840D02*
X20436291Y-14625316D01*
X20436291Y-14625316D02*
X20426767Y-14606268D01*
X20426767Y-14606268D02*
X20426767Y-14549126D01*
X20426767Y-14549126D02*
X20436291Y-14530078D01*
X20436291Y-14530078D02*
X20445815Y-14520554D01*
X20445815Y-14520554D02*
X20464862Y-14511030D01*
X20464862Y-14511030D02*
X20502957Y-14511030D01*
X20502957Y-14511030D02*
X20522005Y-14520554D01*
X20598196Y-14720554D02*
X20607719Y-14711030D01*
X20607719Y-14711030D02*
X20626767Y-14682459D01*
X20626767Y-14682459D02*
X20636291Y-14663411D01*
X20636291Y-14663411D02*
X20645815Y-14634840D01*
X20645815Y-14634840D02*
X20655338Y-14587221D01*
X20655338Y-14587221D02*
X20655338Y-14549126D01*
X20655338Y-14549126D02*
X20645815Y-14501507D01*
X20645815Y-14501507D02*
X20636291Y-14472935D01*
X20636291Y-14472935D02*
X20626767Y-14453888D01*
X20626767Y-14453888D02*
X20607719Y-14425316D01*
X20607719Y-14425316D02*
X20598196Y-14415792D01*
M02*
