%TF.GenerationSoftware,KiCad,Pcbnew,8.0.1*%
%TF.CreationDate,2024-04-28T12:43:27+02:00*%
%TF.ProjectId,MainControllerNodeMCU-32S,4d61696e-436f-46e7-9472-6f6c6c65724e,rev?*%
%TF.SameCoordinates,Original*%
%TF.FileFunction,Legend,Bot*%
%TF.FilePolarity,Positive*%
%FSLAX46Y46*%
G04 Gerber Fmt 4.6, Leading zero omitted, Abs format (unit mm)*
G04 Created by KiCad (PCBNEW 8.0.1) date 2024-04-28 12:43:27*
%MOMM*%
%LPD*%
G01*
G04 APERTURE LIST*
G04 Aperture macros list*
%AMRoundRect*
0 Rectangle with rounded corners*
0 $1 Rounding radius*
0 $2 $3 $4 $5 $6 $7 $8 $9 X,Y pos of 4 corners*
0 Add a 4 corners polygon primitive as box body*
4,1,4,$2,$3,$4,$5,$6,$7,$8,$9,$2,$3,0*
0 Add four circle primitives for the rounded corners*
1,1,$1+$1,$2,$3*
1,1,$1+$1,$4,$5*
1,1,$1+$1,$6,$7*
1,1,$1+$1,$8,$9*
0 Add four rect primitives between the rounded corners*
20,1,$1+$1,$2,$3,$4,$5,0*
20,1,$1+$1,$4,$5,$6,$7,0*
20,1,$1+$1,$6,$7,$8,$9,0*
20,1,$1+$1,$8,$9,$2,$3,0*%
G04 Aperture macros list end*
%ADD10C,0.150000*%
%ADD11C,0.100000*%
%ADD12RoundRect,0.250000X-0.725000X0.600000X-0.725000X-0.600000X0.725000X-0.600000X0.725000X0.600000X0*%
%ADD13O,1.950000X1.700000*%
%ADD14C,3.200000*%
%ADD15R,1.700000X1.700000*%
%ADD16O,1.700000X1.700000*%
%ADD17C,2.082800*%
%ADD18RoundRect,0.250000X0.725000X-0.600000X0.725000X0.600000X-0.725000X0.600000X-0.725000X-0.600000X0*%
%ADD19C,1.728000*%
G04 APERTURE END LIST*
D10*
X151030134Y-60408619D02*
X151649181Y-60408619D01*
X151649181Y-60408619D02*
X151315848Y-60789571D01*
X151315848Y-60789571D02*
X151458705Y-60789571D01*
X151458705Y-60789571D02*
X151553943Y-60837190D01*
X151553943Y-60837190D02*
X151601562Y-60884809D01*
X151601562Y-60884809D02*
X151649181Y-60980047D01*
X151649181Y-60980047D02*
X151649181Y-61218142D01*
X151649181Y-61218142D02*
X151601562Y-61313380D01*
X151601562Y-61313380D02*
X151553943Y-61361000D01*
X151553943Y-61361000D02*
X151458705Y-61408619D01*
X151458705Y-61408619D02*
X151172991Y-61408619D01*
X151172991Y-61408619D02*
X151077753Y-61361000D01*
X151077753Y-61361000D02*
X151030134Y-61313380D01*
X152506324Y-60741952D02*
X152506324Y-61408619D01*
X152268229Y-60361000D02*
X152030134Y-61075285D01*
X152030134Y-61075285D02*
X152649181Y-61075285D01*
X153030134Y-61313380D02*
X153077753Y-61361000D01*
X153077753Y-61361000D02*
X153030134Y-61408619D01*
X153030134Y-61408619D02*
X152982515Y-61361000D01*
X152982515Y-61361000D02*
X153030134Y-61313380D01*
X153030134Y-61313380D02*
X153030134Y-61408619D01*
X153982514Y-60408619D02*
X153506324Y-60408619D01*
X153506324Y-60408619D02*
X153458705Y-60884809D01*
X153458705Y-60884809D02*
X153506324Y-60837190D01*
X153506324Y-60837190D02*
X153601562Y-60789571D01*
X153601562Y-60789571D02*
X153839657Y-60789571D01*
X153839657Y-60789571D02*
X153934895Y-60837190D01*
X153934895Y-60837190D02*
X153982514Y-60884809D01*
X153982514Y-60884809D02*
X154030133Y-60980047D01*
X154030133Y-60980047D02*
X154030133Y-61218142D01*
X154030133Y-61218142D02*
X153982514Y-61313380D01*
X153982514Y-61313380D02*
X153934895Y-61361000D01*
X153934895Y-61361000D02*
X153839657Y-61408619D01*
X153839657Y-61408619D02*
X153601562Y-61408619D01*
X153601562Y-61408619D02*
X153506324Y-61361000D01*
X153506324Y-61361000D02*
X153458705Y-61313380D01*
X154649181Y-60408619D02*
X154744419Y-60408619D01*
X154744419Y-60408619D02*
X154839657Y-60456238D01*
X154839657Y-60456238D02*
X154887276Y-60503857D01*
X154887276Y-60503857D02*
X154934895Y-60599095D01*
X154934895Y-60599095D02*
X154982514Y-60789571D01*
X154982514Y-60789571D02*
X154982514Y-61027666D01*
X154982514Y-61027666D02*
X154934895Y-61218142D01*
X154934895Y-61218142D02*
X154887276Y-61313380D01*
X154887276Y-61313380D02*
X154839657Y-61361000D01*
X154839657Y-61361000D02*
X154744419Y-61408619D01*
X154744419Y-61408619D02*
X154649181Y-61408619D01*
X154649181Y-61408619D02*
X154553943Y-61361000D01*
X154553943Y-61361000D02*
X154506324Y-61313380D01*
X154506324Y-61313380D02*
X154458705Y-61218142D01*
X154458705Y-61218142D02*
X154411086Y-61027666D01*
X154411086Y-61027666D02*
X154411086Y-60789571D01*
X154411086Y-60789571D02*
X154458705Y-60599095D01*
X154458705Y-60599095D02*
X154506324Y-60503857D01*
X154506324Y-60503857D02*
X154553943Y-60456238D01*
X154553943Y-60456238D02*
X154649181Y-60408619D01*
X155601562Y-60408619D02*
X155696800Y-60408619D01*
X155696800Y-60408619D02*
X155792038Y-60456238D01*
X155792038Y-60456238D02*
X155839657Y-60503857D01*
X155839657Y-60503857D02*
X155887276Y-60599095D01*
X155887276Y-60599095D02*
X155934895Y-60789571D01*
X155934895Y-60789571D02*
X155934895Y-61027666D01*
X155934895Y-61027666D02*
X155887276Y-61218142D01*
X155887276Y-61218142D02*
X155839657Y-61313380D01*
X155839657Y-61313380D02*
X155792038Y-61361000D01*
X155792038Y-61361000D02*
X155696800Y-61408619D01*
X155696800Y-61408619D02*
X155601562Y-61408619D01*
X155601562Y-61408619D02*
X155506324Y-61361000D01*
X155506324Y-61361000D02*
X155458705Y-61313380D01*
X155458705Y-61313380D02*
X155411086Y-61218142D01*
X155411086Y-61218142D02*
X155363467Y-61027666D01*
X155363467Y-61027666D02*
X155363467Y-60789571D01*
X155363467Y-60789571D02*
X155411086Y-60599095D01*
X155411086Y-60599095D02*
X155458705Y-60503857D01*
X155458705Y-60503857D02*
X155506324Y-60456238D01*
X155506324Y-60456238D02*
X155601562Y-60408619D01*
X156553943Y-60408619D02*
X156649181Y-60408619D01*
X156649181Y-60408619D02*
X156744419Y-60456238D01*
X156744419Y-60456238D02*
X156792038Y-60503857D01*
X156792038Y-60503857D02*
X156839657Y-60599095D01*
X156839657Y-60599095D02*
X156887276Y-60789571D01*
X156887276Y-60789571D02*
X156887276Y-61027666D01*
X156887276Y-61027666D02*
X156839657Y-61218142D01*
X156839657Y-61218142D02*
X156792038Y-61313380D01*
X156792038Y-61313380D02*
X156744419Y-61361000D01*
X156744419Y-61361000D02*
X156649181Y-61408619D01*
X156649181Y-61408619D02*
X156553943Y-61408619D01*
X156553943Y-61408619D02*
X156458705Y-61361000D01*
X156458705Y-61361000D02*
X156411086Y-61313380D01*
X156411086Y-61313380D02*
X156363467Y-61218142D01*
X156363467Y-61218142D02*
X156315848Y-61027666D01*
X156315848Y-61027666D02*
X156315848Y-60789571D01*
X156315848Y-60789571D02*
X156363467Y-60599095D01*
X156363467Y-60599095D02*
X156411086Y-60503857D01*
X156411086Y-60503857D02*
X156458705Y-60456238D01*
X156458705Y-60456238D02*
X156553943Y-60408619D01*
X158077753Y-61408619D02*
X158077753Y-60741952D01*
X158077753Y-60837190D02*
X158125372Y-60789571D01*
X158125372Y-60789571D02*
X158220610Y-60741952D01*
X158220610Y-60741952D02*
X158363467Y-60741952D01*
X158363467Y-60741952D02*
X158458705Y-60789571D01*
X158458705Y-60789571D02*
X158506324Y-60884809D01*
X158506324Y-60884809D02*
X158506324Y-61408619D01*
X158506324Y-60884809D02*
X158553943Y-60789571D01*
X158553943Y-60789571D02*
X158649181Y-60741952D01*
X158649181Y-60741952D02*
X158792038Y-60741952D01*
X158792038Y-60741952D02*
X158887277Y-60789571D01*
X158887277Y-60789571D02*
X158934896Y-60884809D01*
X158934896Y-60884809D02*
X158934896Y-61408619D01*
X159411086Y-61408619D02*
X159411086Y-60741952D01*
X159411086Y-60837190D02*
X159458705Y-60789571D01*
X159458705Y-60789571D02*
X159553943Y-60741952D01*
X159553943Y-60741952D02*
X159696800Y-60741952D01*
X159696800Y-60741952D02*
X159792038Y-60789571D01*
X159792038Y-60789571D02*
X159839657Y-60884809D01*
X159839657Y-60884809D02*
X159839657Y-61408619D01*
X159839657Y-60884809D02*
X159887276Y-60789571D01*
X159887276Y-60789571D02*
X159982514Y-60741952D01*
X159982514Y-60741952D02*
X160125371Y-60741952D01*
X160125371Y-60741952D02*
X160220610Y-60789571D01*
X160220610Y-60789571D02*
X160268229Y-60884809D01*
X160268229Y-60884809D02*
X160268229Y-61408619D01*
D11*
X138446800Y-64603800D02*
X138446800Y-61517380D01*
X172946800Y-64603800D02*
X172946800Y-61517380D01*
X138446800Y-62103800D02*
X172946800Y-62103800D01*
X138446800Y-62103800D02*
X172946800Y-62103800D01*
X138446800Y-62103800D02*
X139573304Y-61517379D01*
X138446800Y-62103800D02*
X139573304Y-62690221D01*
X172946800Y-62103800D02*
X171820296Y-62690221D01*
X172946800Y-62103800D02*
X171820296Y-61517379D01*
D10*
X132251619Y-106770465D02*
X132251619Y-106103799D01*
X132251619Y-106103799D02*
X133251619Y-106532370D01*
X132584952Y-105294275D02*
X133251619Y-105294275D01*
X132204000Y-105532370D02*
X132918285Y-105770465D01*
X132918285Y-105770465D02*
X132918285Y-105151418D01*
X133156380Y-104770465D02*
X133204000Y-104722846D01*
X133204000Y-104722846D02*
X133251619Y-104770465D01*
X133251619Y-104770465D02*
X133204000Y-104818084D01*
X133204000Y-104818084D02*
X133156380Y-104770465D01*
X133156380Y-104770465D02*
X133251619Y-104770465D01*
X132251619Y-104103799D02*
X132251619Y-104008561D01*
X132251619Y-104008561D02*
X132299238Y-103913323D01*
X132299238Y-103913323D02*
X132346857Y-103865704D01*
X132346857Y-103865704D02*
X132442095Y-103818085D01*
X132442095Y-103818085D02*
X132632571Y-103770466D01*
X132632571Y-103770466D02*
X132870666Y-103770466D01*
X132870666Y-103770466D02*
X133061142Y-103818085D01*
X133061142Y-103818085D02*
X133156380Y-103865704D01*
X133156380Y-103865704D02*
X133204000Y-103913323D01*
X133204000Y-103913323D02*
X133251619Y-104008561D01*
X133251619Y-104008561D02*
X133251619Y-104103799D01*
X133251619Y-104103799D02*
X133204000Y-104199037D01*
X133204000Y-104199037D02*
X133156380Y-104246656D01*
X133156380Y-104246656D02*
X133061142Y-104294275D01*
X133061142Y-104294275D02*
X132870666Y-104341894D01*
X132870666Y-104341894D02*
X132632571Y-104341894D01*
X132632571Y-104341894D02*
X132442095Y-104294275D01*
X132442095Y-104294275D02*
X132346857Y-104246656D01*
X132346857Y-104246656D02*
X132299238Y-104199037D01*
X132299238Y-104199037D02*
X132251619Y-104103799D01*
X132251619Y-103151418D02*
X132251619Y-103056180D01*
X132251619Y-103056180D02*
X132299238Y-102960942D01*
X132299238Y-102960942D02*
X132346857Y-102913323D01*
X132346857Y-102913323D02*
X132442095Y-102865704D01*
X132442095Y-102865704D02*
X132632571Y-102818085D01*
X132632571Y-102818085D02*
X132870666Y-102818085D01*
X132870666Y-102818085D02*
X133061142Y-102865704D01*
X133061142Y-102865704D02*
X133156380Y-102913323D01*
X133156380Y-102913323D02*
X133204000Y-102960942D01*
X133204000Y-102960942D02*
X133251619Y-103056180D01*
X133251619Y-103056180D02*
X133251619Y-103151418D01*
X133251619Y-103151418D02*
X133204000Y-103246656D01*
X133204000Y-103246656D02*
X133156380Y-103294275D01*
X133156380Y-103294275D02*
X133061142Y-103341894D01*
X133061142Y-103341894D02*
X132870666Y-103389513D01*
X132870666Y-103389513D02*
X132632571Y-103389513D01*
X132632571Y-103389513D02*
X132442095Y-103341894D01*
X132442095Y-103341894D02*
X132346857Y-103294275D01*
X132346857Y-103294275D02*
X132299238Y-103246656D01*
X132299238Y-103246656D02*
X132251619Y-103151418D01*
X132251619Y-102199037D02*
X132251619Y-102103799D01*
X132251619Y-102103799D02*
X132299238Y-102008561D01*
X132299238Y-102008561D02*
X132346857Y-101960942D01*
X132346857Y-101960942D02*
X132442095Y-101913323D01*
X132442095Y-101913323D02*
X132632571Y-101865704D01*
X132632571Y-101865704D02*
X132870666Y-101865704D01*
X132870666Y-101865704D02*
X133061142Y-101913323D01*
X133061142Y-101913323D02*
X133156380Y-101960942D01*
X133156380Y-101960942D02*
X133204000Y-102008561D01*
X133204000Y-102008561D02*
X133251619Y-102103799D01*
X133251619Y-102103799D02*
X133251619Y-102199037D01*
X133251619Y-102199037D02*
X133204000Y-102294275D01*
X133204000Y-102294275D02*
X133156380Y-102341894D01*
X133156380Y-102341894D02*
X133061142Y-102389513D01*
X133061142Y-102389513D02*
X132870666Y-102437132D01*
X132870666Y-102437132D02*
X132632571Y-102437132D01*
X132632571Y-102437132D02*
X132442095Y-102389513D01*
X132442095Y-102389513D02*
X132346857Y-102341894D01*
X132346857Y-102341894D02*
X132299238Y-102294275D01*
X132299238Y-102294275D02*
X132251619Y-102199037D01*
X132251619Y-101246656D02*
X132251619Y-101151418D01*
X132251619Y-101151418D02*
X132299238Y-101056180D01*
X132299238Y-101056180D02*
X132346857Y-101008561D01*
X132346857Y-101008561D02*
X132442095Y-100960942D01*
X132442095Y-100960942D02*
X132632571Y-100913323D01*
X132632571Y-100913323D02*
X132870666Y-100913323D01*
X132870666Y-100913323D02*
X133061142Y-100960942D01*
X133061142Y-100960942D02*
X133156380Y-101008561D01*
X133156380Y-101008561D02*
X133204000Y-101056180D01*
X133204000Y-101056180D02*
X133251619Y-101151418D01*
X133251619Y-101151418D02*
X133251619Y-101246656D01*
X133251619Y-101246656D02*
X133204000Y-101341894D01*
X133204000Y-101341894D02*
X133156380Y-101389513D01*
X133156380Y-101389513D02*
X133061142Y-101437132D01*
X133061142Y-101437132D02*
X132870666Y-101484751D01*
X132870666Y-101484751D02*
X132632571Y-101484751D01*
X132632571Y-101484751D02*
X132442095Y-101437132D01*
X132442095Y-101437132D02*
X132346857Y-101389513D01*
X132346857Y-101389513D02*
X132299238Y-101341894D01*
X132299238Y-101341894D02*
X132251619Y-101246656D01*
X133251619Y-99722846D02*
X132584952Y-99722846D01*
X132680190Y-99722846D02*
X132632571Y-99675227D01*
X132632571Y-99675227D02*
X132584952Y-99579989D01*
X132584952Y-99579989D02*
X132584952Y-99437132D01*
X132584952Y-99437132D02*
X132632571Y-99341894D01*
X132632571Y-99341894D02*
X132727809Y-99294275D01*
X132727809Y-99294275D02*
X133251619Y-99294275D01*
X132727809Y-99294275D02*
X132632571Y-99246656D01*
X132632571Y-99246656D02*
X132584952Y-99151418D01*
X132584952Y-99151418D02*
X132584952Y-99008561D01*
X132584952Y-99008561D02*
X132632571Y-98913322D01*
X132632571Y-98913322D02*
X132727809Y-98865703D01*
X132727809Y-98865703D02*
X133251619Y-98865703D01*
X133251619Y-98389513D02*
X132584952Y-98389513D01*
X132680190Y-98389513D02*
X132632571Y-98341894D01*
X132632571Y-98341894D02*
X132584952Y-98246656D01*
X132584952Y-98246656D02*
X132584952Y-98103799D01*
X132584952Y-98103799D02*
X132632571Y-98008561D01*
X132632571Y-98008561D02*
X132727809Y-97960942D01*
X132727809Y-97960942D02*
X133251619Y-97960942D01*
X132727809Y-97960942D02*
X132632571Y-97913323D01*
X132632571Y-97913323D02*
X132584952Y-97818085D01*
X132584952Y-97818085D02*
X132584952Y-97675228D01*
X132584952Y-97675228D02*
X132632571Y-97579989D01*
X132632571Y-97579989D02*
X132727809Y-97532370D01*
X132727809Y-97532370D02*
X133251619Y-97532370D01*
D11*
X137946800Y-65103800D02*
X133360380Y-65103800D01*
X137946800Y-139103800D02*
X133360380Y-139103800D01*
X133946800Y-65103800D02*
X133946800Y-139103800D01*
X133946800Y-65103800D02*
X133946800Y-139103800D01*
X133946800Y-65103800D02*
X134533221Y-66230304D01*
X133946800Y-65103800D02*
X133360379Y-66230304D01*
X133946800Y-139103800D02*
X133360379Y-137977296D01*
X133946800Y-139103800D02*
X134533221Y-137977296D01*
%LPC*%
D12*
%TO.C,J_SW_1*%
X143246800Y-91878800D03*
D13*
X143246800Y-94378800D03*
X143246800Y-96878800D03*
X143246800Y-99378800D03*
%TD*%
D14*
%TO.C,MountingHole1*%
X159196800Y-75533200D03*
%TD*%
D15*
%TO.C,J_DP_1*%
X169946800Y-85983800D03*
D16*
X169946800Y-83443800D03*
X169946800Y-80903800D03*
X169946800Y-78363800D03*
X169946800Y-75823800D03*
X169946800Y-73283800D03*
X169946800Y-70743800D03*
X169946800Y-68203800D03*
%TD*%
D17*
%TO.C,U2*%
X154240000Y-85603800D03*
X156780000Y-85603800D03*
X161860000Y-85603800D03*
X159320000Y-85603800D03*
X164400000Y-85603800D03*
X149160000Y-85603800D03*
X151700000Y-85603800D03*
%TD*%
D18*
%TO.C,J_SC_1*%
X142196800Y-133603800D03*
D13*
X142196800Y-131103800D03*
X142196800Y-128603800D03*
X142196800Y-126103800D03*
%TD*%
D12*
%TO.C,J_SW_2*%
X143246800Y-70603800D03*
D13*
X143246800Y-73103800D03*
X143246800Y-75603800D03*
X143246800Y-78103800D03*
X143246800Y-80603800D03*
%TD*%
D19*
%TO.C,U1*%
X147784400Y-90451800D03*
X147784400Y-92991800D03*
X147784400Y-95531800D03*
X147784400Y-98071800D03*
X147784400Y-100611800D03*
X147784400Y-103151800D03*
X147784400Y-105691800D03*
X147784400Y-108231800D03*
X147784400Y-110771800D03*
X147784400Y-113311800D03*
X147784400Y-115851800D03*
X147784400Y-118391800D03*
X147784400Y-120931800D03*
X147784400Y-123471800D03*
X147784400Y-126011800D03*
X147784400Y-128551800D03*
X147784400Y-131091800D03*
X147784400Y-133631800D03*
X147784400Y-136171800D03*
X170644400Y-90451800D03*
X170644400Y-92991800D03*
X170644400Y-95531800D03*
X170644400Y-98071800D03*
X170644400Y-100611800D03*
X170644400Y-103151800D03*
X170644400Y-105691800D03*
X170644400Y-108231800D03*
X170644400Y-110771800D03*
X170644400Y-113311800D03*
X170644400Y-115851800D03*
X170644400Y-118391800D03*
X170644400Y-120931800D03*
X170644400Y-123471800D03*
X170644400Y-126011800D03*
X170644400Y-128551800D03*
X170644400Y-131091800D03*
X170644400Y-133631800D03*
X170644400Y-136171800D03*
%TD*%
D18*
%TO.C,J_SC_2*%
X142196800Y-115853800D03*
D13*
X142196800Y-113353800D03*
X142196800Y-110853800D03*
X142196800Y-108353800D03*
%TD*%
D14*
%TO.C,MountinHole2*%
X159196800Y-129603800D03*
%TD*%
%LPD*%
M02*
