%TF.GenerationSoftware,KiCad,Pcbnew,8.0.1*%
%TF.CreationDate,2024-04-28T12:43:27+02:00*%
%TF.ProjectId,MainControllerNodeMCU-32S,4d61696e-436f-46e7-9472-6f6c6c65724e,rev?*%
%TF.SameCoordinates,Original*%
%TF.FileFunction,Legend,Top*%
%TF.FilePolarity,Positive*%
%FSLAX46Y46*%
G04 Gerber Fmt 4.6, Leading zero omitted, Abs format (unit mm)*
G04 Created by KiCad (PCBNEW 8.0.1) date 2024-04-28 12:43:27*
%MOMM*%
%LPD*%
G01*
G04 APERTURE LIST*
G04 Aperture macros list*
%AMRoundRect*
0 Rectangle with rounded corners*
0 $1 Rounding radius*
0 $2 $3 $4 $5 $6 $7 $8 $9 X,Y pos of 4 corners*
0 Add a 4 corners polygon primitive as box body*
4,1,4,$2,$3,$4,$5,$6,$7,$8,$9,$2,$3,0*
0 Add four circle primitives for the rounded corners*
1,1,$1+$1,$2,$3*
1,1,$1+$1,$4,$5*
1,1,$1+$1,$6,$7*
1,1,$1+$1,$8,$9*
0 Add four rect primitives between the rounded corners*
20,1,$1+$1,$2,$3,$4,$5,0*
20,1,$1+$1,$4,$5,$6,$7,0*
20,1,$1+$1,$6,$7,$8,$9,0*
20,1,$1+$1,$8,$9,$2,$3,0*%
G04 Aperture macros list end*
%ADD10C,0.100000*%
%ADD11C,0.200000*%
%ADD12C,0.266700*%
%ADD13C,0.120000*%
%ADD14C,0.203200*%
%ADD15C,0.127000*%
%ADD16RoundRect,0.250000X-0.725000X0.600000X-0.725000X-0.600000X0.725000X-0.600000X0.725000X0.600000X0*%
%ADD17O,1.950000X1.700000*%
%ADD18C,3.200000*%
%ADD19R,1.700000X1.700000*%
%ADD20O,1.700000X1.700000*%
%ADD21C,2.082800*%
%ADD22RoundRect,0.250000X0.725000X-0.600000X0.725000X0.600000X-0.725000X0.600000X-0.725000X-0.600000X0*%
%ADD23C,1.728000*%
G04 APERTURE END LIST*
D10*
X146182433Y-71603799D02*
X146182433Y-71222847D01*
X146372909Y-71413323D02*
X145991957Y-71413323D01*
X145872909Y-71032370D02*
X145872909Y-70722846D01*
X145872909Y-70722846D02*
X146063385Y-70889513D01*
X146063385Y-70889513D02*
X146063385Y-70818084D01*
X146063385Y-70818084D02*
X146087195Y-70770465D01*
X146087195Y-70770465D02*
X146111004Y-70746656D01*
X146111004Y-70746656D02*
X146158623Y-70722846D01*
X146158623Y-70722846D02*
X146277671Y-70722846D01*
X146277671Y-70722846D02*
X146325290Y-70746656D01*
X146325290Y-70746656D02*
X146349100Y-70770465D01*
X146349100Y-70770465D02*
X146372909Y-70818084D01*
X146372909Y-70818084D02*
X146372909Y-70960941D01*
X146372909Y-70960941D02*
X146349100Y-71008560D01*
X146349100Y-71008560D02*
X146325290Y-71032370D01*
X146325290Y-70508561D02*
X146349100Y-70484751D01*
X146349100Y-70484751D02*
X146372909Y-70508561D01*
X146372909Y-70508561D02*
X146349100Y-70532370D01*
X146349100Y-70532370D02*
X146325290Y-70508561D01*
X146325290Y-70508561D02*
X146372909Y-70508561D01*
X145872909Y-70318085D02*
X145872909Y-70008561D01*
X145872909Y-70008561D02*
X146063385Y-70175228D01*
X146063385Y-70175228D02*
X146063385Y-70103799D01*
X146063385Y-70103799D02*
X146087195Y-70056180D01*
X146087195Y-70056180D02*
X146111004Y-70032371D01*
X146111004Y-70032371D02*
X146158623Y-70008561D01*
X146158623Y-70008561D02*
X146277671Y-70008561D01*
X146277671Y-70008561D02*
X146325290Y-70032371D01*
X146325290Y-70032371D02*
X146349100Y-70056180D01*
X146349100Y-70056180D02*
X146372909Y-70103799D01*
X146372909Y-70103799D02*
X146372909Y-70246656D01*
X146372909Y-70246656D02*
X146349100Y-70294275D01*
X146349100Y-70294275D02*
X146325290Y-70318085D01*
X145872909Y-69865704D02*
X146372909Y-69699038D01*
X146372909Y-69699038D02*
X145872909Y-69532371D01*
X146349100Y-97570465D02*
X146372909Y-97499037D01*
X146372909Y-97499037D02*
X146372909Y-97379989D01*
X146372909Y-97379989D02*
X146349100Y-97332370D01*
X146349100Y-97332370D02*
X146325290Y-97308561D01*
X146325290Y-97308561D02*
X146277671Y-97284751D01*
X146277671Y-97284751D02*
X146230052Y-97284751D01*
X146230052Y-97284751D02*
X146182433Y-97308561D01*
X146182433Y-97308561D02*
X146158623Y-97332370D01*
X146158623Y-97332370D02*
X146134814Y-97379989D01*
X146134814Y-97379989D02*
X146111004Y-97475227D01*
X146111004Y-97475227D02*
X146087195Y-97522846D01*
X146087195Y-97522846D02*
X146063385Y-97546656D01*
X146063385Y-97546656D02*
X146015766Y-97570465D01*
X146015766Y-97570465D02*
X145968147Y-97570465D01*
X145968147Y-97570465D02*
X145920528Y-97546656D01*
X145920528Y-97546656D02*
X145896719Y-97522846D01*
X145896719Y-97522846D02*
X145872909Y-97475227D01*
X145872909Y-97475227D02*
X145872909Y-97356180D01*
X145872909Y-97356180D02*
X145896719Y-97284751D01*
X145872909Y-97118085D02*
X146372909Y-96999037D01*
X146372909Y-96999037D02*
X146015766Y-96903799D01*
X146015766Y-96903799D02*
X146372909Y-96808561D01*
X146372909Y-96808561D02*
X145872909Y-96689514D01*
X145872909Y-96546656D02*
X145872909Y-96237132D01*
X145872909Y-96237132D02*
X146063385Y-96403799D01*
X146063385Y-96403799D02*
X146063385Y-96332370D01*
X146063385Y-96332370D02*
X146087195Y-96284751D01*
X146087195Y-96284751D02*
X146111004Y-96260942D01*
X146111004Y-96260942D02*
X146158623Y-96237132D01*
X146158623Y-96237132D02*
X146277671Y-96237132D01*
X146277671Y-96237132D02*
X146325290Y-96260942D01*
X146325290Y-96260942D02*
X146349100Y-96284751D01*
X146349100Y-96284751D02*
X146372909Y-96332370D01*
X146372909Y-96332370D02*
X146372909Y-96475227D01*
X146372909Y-96475227D02*
X146349100Y-96522846D01*
X146349100Y-96522846D02*
X146325290Y-96546656D01*
X146325290Y-129139514D02*
X146349100Y-129163323D01*
X146349100Y-129163323D02*
X146372909Y-129234752D01*
X146372909Y-129234752D02*
X146372909Y-129282371D01*
X146372909Y-129282371D02*
X146349100Y-129353799D01*
X146349100Y-129353799D02*
X146301480Y-129401418D01*
X146301480Y-129401418D02*
X146253861Y-129425228D01*
X146253861Y-129425228D02*
X146158623Y-129449037D01*
X146158623Y-129449037D02*
X146087195Y-129449037D01*
X146087195Y-129449037D02*
X145991957Y-129425228D01*
X145991957Y-129425228D02*
X145944338Y-129401418D01*
X145944338Y-129401418D02*
X145896719Y-129353799D01*
X145896719Y-129353799D02*
X145872909Y-129282371D01*
X145872909Y-129282371D02*
X145872909Y-129234752D01*
X145872909Y-129234752D02*
X145896719Y-129163323D01*
X145896719Y-129163323D02*
X145920528Y-129139514D01*
X146372909Y-128687133D02*
X146372909Y-128925228D01*
X146372909Y-128925228D02*
X145872909Y-128925228D01*
X146372909Y-128520466D02*
X145872909Y-128520466D01*
X146372909Y-128234752D02*
X146087195Y-128449037D01*
X145872909Y-128234752D02*
X146158623Y-128520466D01*
X146372909Y-127758561D02*
X146372909Y-128044275D01*
X146372909Y-127901418D02*
X145872909Y-127901418D01*
X145872909Y-127901418D02*
X145944338Y-127949037D01*
X145944338Y-127949037D02*
X145991957Y-127996656D01*
X145991957Y-127996656D02*
X146015766Y-128044275D01*
X146349100Y-95070465D02*
X146372909Y-94999037D01*
X146372909Y-94999037D02*
X146372909Y-94879989D01*
X146372909Y-94879989D02*
X146349100Y-94832370D01*
X146349100Y-94832370D02*
X146325290Y-94808561D01*
X146325290Y-94808561D02*
X146277671Y-94784751D01*
X146277671Y-94784751D02*
X146230052Y-94784751D01*
X146230052Y-94784751D02*
X146182433Y-94808561D01*
X146182433Y-94808561D02*
X146158623Y-94832370D01*
X146158623Y-94832370D02*
X146134814Y-94879989D01*
X146134814Y-94879989D02*
X146111004Y-94975227D01*
X146111004Y-94975227D02*
X146087195Y-95022846D01*
X146087195Y-95022846D02*
X146063385Y-95046656D01*
X146063385Y-95046656D02*
X146015766Y-95070465D01*
X146015766Y-95070465D02*
X145968147Y-95070465D01*
X145968147Y-95070465D02*
X145920528Y-95046656D01*
X145920528Y-95046656D02*
X145896719Y-95022846D01*
X145896719Y-95022846D02*
X145872909Y-94975227D01*
X145872909Y-94975227D02*
X145872909Y-94856180D01*
X145872909Y-94856180D02*
X145896719Y-94784751D01*
X145872909Y-94618085D02*
X146372909Y-94499037D01*
X146372909Y-94499037D02*
X146015766Y-94403799D01*
X146015766Y-94403799D02*
X146372909Y-94308561D01*
X146372909Y-94308561D02*
X145872909Y-94189514D01*
X145920528Y-94022846D02*
X145896719Y-93999037D01*
X145896719Y-93999037D02*
X145872909Y-93951418D01*
X145872909Y-93951418D02*
X145872909Y-93832370D01*
X145872909Y-93832370D02*
X145896719Y-93784751D01*
X145896719Y-93784751D02*
X145920528Y-93760942D01*
X145920528Y-93760942D02*
X145968147Y-93737132D01*
X145968147Y-93737132D02*
X146015766Y-93737132D01*
X146015766Y-93737132D02*
X146087195Y-93760942D01*
X146087195Y-93760942D02*
X146372909Y-94046656D01*
X146372909Y-94046656D02*
X146372909Y-93737132D01*
X146349100Y-92570465D02*
X146372909Y-92499037D01*
X146372909Y-92499037D02*
X146372909Y-92379989D01*
X146372909Y-92379989D02*
X146349100Y-92332370D01*
X146349100Y-92332370D02*
X146325290Y-92308561D01*
X146325290Y-92308561D02*
X146277671Y-92284751D01*
X146277671Y-92284751D02*
X146230052Y-92284751D01*
X146230052Y-92284751D02*
X146182433Y-92308561D01*
X146182433Y-92308561D02*
X146158623Y-92332370D01*
X146158623Y-92332370D02*
X146134814Y-92379989D01*
X146134814Y-92379989D02*
X146111004Y-92475227D01*
X146111004Y-92475227D02*
X146087195Y-92522846D01*
X146087195Y-92522846D02*
X146063385Y-92546656D01*
X146063385Y-92546656D02*
X146015766Y-92570465D01*
X146015766Y-92570465D02*
X145968147Y-92570465D01*
X145968147Y-92570465D02*
X145920528Y-92546656D01*
X145920528Y-92546656D02*
X145896719Y-92522846D01*
X145896719Y-92522846D02*
X145872909Y-92475227D01*
X145872909Y-92475227D02*
X145872909Y-92356180D01*
X145872909Y-92356180D02*
X145896719Y-92284751D01*
X145872909Y-92118085D02*
X146372909Y-91999037D01*
X146372909Y-91999037D02*
X146015766Y-91903799D01*
X146015766Y-91903799D02*
X146372909Y-91808561D01*
X146372909Y-91808561D02*
X145872909Y-91689514D01*
X146372909Y-91237132D02*
X146372909Y-91522846D01*
X146372909Y-91379989D02*
X145872909Y-91379989D01*
X145872909Y-91379989D02*
X145944338Y-91427608D01*
X145944338Y-91427608D02*
X145991957Y-91475227D01*
X145991957Y-91475227D02*
X146015766Y-91522846D01*
X146325290Y-111339514D02*
X146349100Y-111363323D01*
X146349100Y-111363323D02*
X146372909Y-111434752D01*
X146372909Y-111434752D02*
X146372909Y-111482371D01*
X146372909Y-111482371D02*
X146349100Y-111553799D01*
X146349100Y-111553799D02*
X146301480Y-111601418D01*
X146301480Y-111601418D02*
X146253861Y-111625228D01*
X146253861Y-111625228D02*
X146158623Y-111649037D01*
X146158623Y-111649037D02*
X146087195Y-111649037D01*
X146087195Y-111649037D02*
X145991957Y-111625228D01*
X145991957Y-111625228D02*
X145944338Y-111601418D01*
X145944338Y-111601418D02*
X145896719Y-111553799D01*
X145896719Y-111553799D02*
X145872909Y-111482371D01*
X145872909Y-111482371D02*
X145872909Y-111434752D01*
X145872909Y-111434752D02*
X145896719Y-111363323D01*
X145896719Y-111363323D02*
X145920528Y-111339514D01*
X146372909Y-110887133D02*
X146372909Y-111125228D01*
X146372909Y-111125228D02*
X145872909Y-111125228D01*
X146372909Y-110720466D02*
X145872909Y-110720466D01*
X146372909Y-110434752D02*
X146087195Y-110649037D01*
X145872909Y-110434752D02*
X146158623Y-110720466D01*
X145920528Y-110244275D02*
X145896719Y-110220466D01*
X145896719Y-110220466D02*
X145872909Y-110172847D01*
X145872909Y-110172847D02*
X145872909Y-110053799D01*
X145872909Y-110053799D02*
X145896719Y-110006180D01*
X145896719Y-110006180D02*
X145920528Y-109982371D01*
X145920528Y-109982371D02*
X145968147Y-109958561D01*
X145968147Y-109958561D02*
X146015766Y-109958561D01*
X146015766Y-109958561D02*
X146087195Y-109982371D01*
X146087195Y-109982371D02*
X146372909Y-110268085D01*
X146372909Y-110268085D02*
X146372909Y-109958561D01*
X146372909Y-114077608D02*
X145872909Y-114077608D01*
X145872909Y-114077608D02*
X145872909Y-113958560D01*
X145872909Y-113958560D02*
X145896719Y-113887132D01*
X145896719Y-113887132D02*
X145944338Y-113839513D01*
X145944338Y-113839513D02*
X145991957Y-113815703D01*
X145991957Y-113815703D02*
X146087195Y-113791894D01*
X146087195Y-113791894D02*
X146158623Y-113791894D01*
X146158623Y-113791894D02*
X146253861Y-113815703D01*
X146253861Y-113815703D02*
X146301480Y-113839513D01*
X146301480Y-113839513D02*
X146349100Y-113887132D01*
X146349100Y-113887132D02*
X146372909Y-113958560D01*
X146372909Y-113958560D02*
X146372909Y-114077608D01*
X146230052Y-113601417D02*
X146230052Y-113363322D01*
X146372909Y-113649036D02*
X145872909Y-113482370D01*
X145872909Y-113482370D02*
X146372909Y-113315703D01*
X145872909Y-113220465D02*
X145872909Y-112934751D01*
X146372909Y-113077608D02*
X145872909Y-113077608D01*
X145920528Y-112791894D02*
X145896719Y-112768085D01*
X145896719Y-112768085D02*
X145872909Y-112720466D01*
X145872909Y-112720466D02*
X145872909Y-112601418D01*
X145872909Y-112601418D02*
X145896719Y-112553799D01*
X145896719Y-112553799D02*
X145920528Y-112529990D01*
X145920528Y-112529990D02*
X145968147Y-112506180D01*
X145968147Y-112506180D02*
X146015766Y-112506180D01*
X146015766Y-112506180D02*
X146087195Y-112529990D01*
X146087195Y-112529990D02*
X146372909Y-112815704D01*
X146372909Y-112815704D02*
X146372909Y-112506180D01*
X145896719Y-126484752D02*
X145872909Y-126532371D01*
X145872909Y-126532371D02*
X145872909Y-126603800D01*
X145872909Y-126603800D02*
X145896719Y-126675228D01*
X145896719Y-126675228D02*
X145944338Y-126722847D01*
X145944338Y-126722847D02*
X145991957Y-126746657D01*
X145991957Y-126746657D02*
X146087195Y-126770466D01*
X146087195Y-126770466D02*
X146158623Y-126770466D01*
X146158623Y-126770466D02*
X146253861Y-126746657D01*
X146253861Y-126746657D02*
X146301480Y-126722847D01*
X146301480Y-126722847D02*
X146349100Y-126675228D01*
X146349100Y-126675228D02*
X146372909Y-126603800D01*
X146372909Y-126603800D02*
X146372909Y-126556181D01*
X146372909Y-126556181D02*
X146349100Y-126484752D01*
X146349100Y-126484752D02*
X146325290Y-126460943D01*
X146325290Y-126460943D02*
X146158623Y-126460943D01*
X146158623Y-126460943D02*
X146158623Y-126556181D01*
X146372909Y-126246657D02*
X145872909Y-126246657D01*
X145872909Y-126246657D02*
X146372909Y-125960943D01*
X146372909Y-125960943D02*
X145872909Y-125960943D01*
X146372909Y-125722847D02*
X145872909Y-125722847D01*
X145872909Y-125722847D02*
X145872909Y-125603799D01*
X145872909Y-125603799D02*
X145896719Y-125532371D01*
X145896719Y-125532371D02*
X145944338Y-125484752D01*
X145944338Y-125484752D02*
X145991957Y-125460942D01*
X145991957Y-125460942D02*
X146087195Y-125437133D01*
X146087195Y-125437133D02*
X146158623Y-125437133D01*
X146158623Y-125437133D02*
X146253861Y-125460942D01*
X146253861Y-125460942D02*
X146301480Y-125484752D01*
X146301480Y-125484752D02*
X146349100Y-125532371D01*
X146349100Y-125532371D02*
X146372909Y-125603799D01*
X146372909Y-125603799D02*
X146372909Y-125722847D01*
X146349100Y-73770465D02*
X146372909Y-73699037D01*
X146372909Y-73699037D02*
X146372909Y-73579989D01*
X146372909Y-73579989D02*
X146349100Y-73532370D01*
X146349100Y-73532370D02*
X146325290Y-73508561D01*
X146325290Y-73508561D02*
X146277671Y-73484751D01*
X146277671Y-73484751D02*
X146230052Y-73484751D01*
X146230052Y-73484751D02*
X146182433Y-73508561D01*
X146182433Y-73508561D02*
X146158623Y-73532370D01*
X146158623Y-73532370D02*
X146134814Y-73579989D01*
X146134814Y-73579989D02*
X146111004Y-73675227D01*
X146111004Y-73675227D02*
X146087195Y-73722846D01*
X146087195Y-73722846D02*
X146063385Y-73746656D01*
X146063385Y-73746656D02*
X146015766Y-73770465D01*
X146015766Y-73770465D02*
X145968147Y-73770465D01*
X145968147Y-73770465D02*
X145920528Y-73746656D01*
X145920528Y-73746656D02*
X145896719Y-73722846D01*
X145896719Y-73722846D02*
X145872909Y-73675227D01*
X145872909Y-73675227D02*
X145872909Y-73556180D01*
X145872909Y-73556180D02*
X145896719Y-73484751D01*
X145872909Y-73318085D02*
X146372909Y-73199037D01*
X146372909Y-73199037D02*
X146015766Y-73103799D01*
X146015766Y-73103799D02*
X146372909Y-73008561D01*
X146372909Y-73008561D02*
X145872909Y-72889514D01*
X146039576Y-72484751D02*
X146372909Y-72484751D01*
X145849100Y-72603799D02*
X146206242Y-72722846D01*
X146206242Y-72722846D02*
X146206242Y-72413323D01*
X145896719Y-108684752D02*
X145872909Y-108732371D01*
X145872909Y-108732371D02*
X145872909Y-108803800D01*
X145872909Y-108803800D02*
X145896719Y-108875228D01*
X145896719Y-108875228D02*
X145944338Y-108922847D01*
X145944338Y-108922847D02*
X145991957Y-108946657D01*
X145991957Y-108946657D02*
X146087195Y-108970466D01*
X146087195Y-108970466D02*
X146158623Y-108970466D01*
X146158623Y-108970466D02*
X146253861Y-108946657D01*
X146253861Y-108946657D02*
X146301480Y-108922847D01*
X146301480Y-108922847D02*
X146349100Y-108875228D01*
X146349100Y-108875228D02*
X146372909Y-108803800D01*
X146372909Y-108803800D02*
X146372909Y-108756181D01*
X146372909Y-108756181D02*
X146349100Y-108684752D01*
X146349100Y-108684752D02*
X146325290Y-108660943D01*
X146325290Y-108660943D02*
X146158623Y-108660943D01*
X146158623Y-108660943D02*
X146158623Y-108756181D01*
X146372909Y-108446657D02*
X145872909Y-108446657D01*
X145872909Y-108446657D02*
X146372909Y-108160943D01*
X146372909Y-108160943D02*
X145872909Y-108160943D01*
X146372909Y-107922847D02*
X145872909Y-107922847D01*
X145872909Y-107922847D02*
X145872909Y-107803799D01*
X145872909Y-107803799D02*
X145896719Y-107732371D01*
X145896719Y-107732371D02*
X145944338Y-107684752D01*
X145944338Y-107684752D02*
X145991957Y-107660942D01*
X145991957Y-107660942D02*
X146087195Y-107637133D01*
X146087195Y-107637133D02*
X146158623Y-107637133D01*
X146158623Y-107637133D02*
X146253861Y-107660942D01*
X146253861Y-107660942D02*
X146301480Y-107684752D01*
X146301480Y-107684752D02*
X146349100Y-107732371D01*
X146349100Y-107732371D02*
X146372909Y-107803799D01*
X146372909Y-107803799D02*
X146372909Y-107922847D01*
X146182433Y-134603799D02*
X146182433Y-134222847D01*
X146372909Y-134413323D02*
X145991957Y-134413323D01*
X145872909Y-134032370D02*
X145872909Y-133722846D01*
X145872909Y-133722846D02*
X146063385Y-133889513D01*
X146063385Y-133889513D02*
X146063385Y-133818084D01*
X146063385Y-133818084D02*
X146087195Y-133770465D01*
X146087195Y-133770465D02*
X146111004Y-133746656D01*
X146111004Y-133746656D02*
X146158623Y-133722846D01*
X146158623Y-133722846D02*
X146277671Y-133722846D01*
X146277671Y-133722846D02*
X146325290Y-133746656D01*
X146325290Y-133746656D02*
X146349100Y-133770465D01*
X146349100Y-133770465D02*
X146372909Y-133818084D01*
X146372909Y-133818084D02*
X146372909Y-133960941D01*
X146372909Y-133960941D02*
X146349100Y-134008560D01*
X146349100Y-134008560D02*
X146325290Y-134032370D01*
X146325290Y-133508561D02*
X146349100Y-133484751D01*
X146349100Y-133484751D02*
X146372909Y-133508561D01*
X146372909Y-133508561D02*
X146349100Y-133532370D01*
X146349100Y-133532370D02*
X146325290Y-133508561D01*
X146325290Y-133508561D02*
X146372909Y-133508561D01*
X145872909Y-133318085D02*
X145872909Y-133008561D01*
X145872909Y-133008561D02*
X146063385Y-133175228D01*
X146063385Y-133175228D02*
X146063385Y-133103799D01*
X146063385Y-133103799D02*
X146087195Y-133056180D01*
X146087195Y-133056180D02*
X146111004Y-133032371D01*
X146111004Y-133032371D02*
X146158623Y-133008561D01*
X146158623Y-133008561D02*
X146277671Y-133008561D01*
X146277671Y-133008561D02*
X146325290Y-133032371D01*
X146325290Y-133032371D02*
X146349100Y-133056180D01*
X146349100Y-133056180D02*
X146372909Y-133103799D01*
X146372909Y-133103799D02*
X146372909Y-133246656D01*
X146372909Y-133246656D02*
X146349100Y-133294275D01*
X146349100Y-133294275D02*
X146325290Y-133318085D01*
X145872909Y-132865704D02*
X146372909Y-132699038D01*
X146372909Y-132699038D02*
X145872909Y-132532371D01*
X145896719Y-80984752D02*
X145872909Y-81032371D01*
X145872909Y-81032371D02*
X145872909Y-81103800D01*
X145872909Y-81103800D02*
X145896719Y-81175228D01*
X145896719Y-81175228D02*
X145944338Y-81222847D01*
X145944338Y-81222847D02*
X145991957Y-81246657D01*
X145991957Y-81246657D02*
X146087195Y-81270466D01*
X146087195Y-81270466D02*
X146158623Y-81270466D01*
X146158623Y-81270466D02*
X146253861Y-81246657D01*
X146253861Y-81246657D02*
X146301480Y-81222847D01*
X146301480Y-81222847D02*
X146349100Y-81175228D01*
X146349100Y-81175228D02*
X146372909Y-81103800D01*
X146372909Y-81103800D02*
X146372909Y-81056181D01*
X146372909Y-81056181D02*
X146349100Y-80984752D01*
X146349100Y-80984752D02*
X146325290Y-80960943D01*
X146325290Y-80960943D02*
X146158623Y-80960943D01*
X146158623Y-80960943D02*
X146158623Y-81056181D01*
X146372909Y-80746657D02*
X145872909Y-80746657D01*
X145872909Y-80746657D02*
X146372909Y-80460943D01*
X146372909Y-80460943D02*
X145872909Y-80460943D01*
X146372909Y-80222847D02*
X145872909Y-80222847D01*
X145872909Y-80222847D02*
X145872909Y-80103799D01*
X145872909Y-80103799D02*
X145896719Y-80032371D01*
X145896719Y-80032371D02*
X145944338Y-79984752D01*
X145944338Y-79984752D02*
X145991957Y-79960942D01*
X145991957Y-79960942D02*
X146087195Y-79937133D01*
X146087195Y-79937133D02*
X146158623Y-79937133D01*
X146158623Y-79937133D02*
X146253861Y-79960942D01*
X146253861Y-79960942D02*
X146301480Y-79984752D01*
X146301480Y-79984752D02*
X146349100Y-80032371D01*
X146349100Y-80032371D02*
X146372909Y-80103799D01*
X146372909Y-80103799D02*
X146372909Y-80222847D01*
X145896719Y-99784752D02*
X145872909Y-99832371D01*
X145872909Y-99832371D02*
X145872909Y-99903800D01*
X145872909Y-99903800D02*
X145896719Y-99975228D01*
X145896719Y-99975228D02*
X145944338Y-100022847D01*
X145944338Y-100022847D02*
X145991957Y-100046657D01*
X145991957Y-100046657D02*
X146087195Y-100070466D01*
X146087195Y-100070466D02*
X146158623Y-100070466D01*
X146158623Y-100070466D02*
X146253861Y-100046657D01*
X146253861Y-100046657D02*
X146301480Y-100022847D01*
X146301480Y-100022847D02*
X146349100Y-99975228D01*
X146349100Y-99975228D02*
X146372909Y-99903800D01*
X146372909Y-99903800D02*
X146372909Y-99856181D01*
X146372909Y-99856181D02*
X146349100Y-99784752D01*
X146349100Y-99784752D02*
X146325290Y-99760943D01*
X146325290Y-99760943D02*
X146158623Y-99760943D01*
X146158623Y-99760943D02*
X146158623Y-99856181D01*
X146372909Y-99546657D02*
X145872909Y-99546657D01*
X145872909Y-99546657D02*
X146372909Y-99260943D01*
X146372909Y-99260943D02*
X145872909Y-99260943D01*
X146372909Y-99022847D02*
X145872909Y-99022847D01*
X145872909Y-99022847D02*
X145872909Y-98903799D01*
X145872909Y-98903799D02*
X145896719Y-98832371D01*
X145896719Y-98832371D02*
X145944338Y-98784752D01*
X145944338Y-98784752D02*
X145991957Y-98760942D01*
X145991957Y-98760942D02*
X146087195Y-98737133D01*
X146087195Y-98737133D02*
X146158623Y-98737133D01*
X146158623Y-98737133D02*
X146253861Y-98760942D01*
X146253861Y-98760942D02*
X146301480Y-98784752D01*
X146301480Y-98784752D02*
X146349100Y-98832371D01*
X146349100Y-98832371D02*
X146372909Y-98903799D01*
X146372909Y-98903799D02*
X146372909Y-99022847D01*
X146349100Y-76270465D02*
X146372909Y-76199037D01*
X146372909Y-76199037D02*
X146372909Y-76079989D01*
X146372909Y-76079989D02*
X146349100Y-76032370D01*
X146349100Y-76032370D02*
X146325290Y-76008561D01*
X146325290Y-76008561D02*
X146277671Y-75984751D01*
X146277671Y-75984751D02*
X146230052Y-75984751D01*
X146230052Y-75984751D02*
X146182433Y-76008561D01*
X146182433Y-76008561D02*
X146158623Y-76032370D01*
X146158623Y-76032370D02*
X146134814Y-76079989D01*
X146134814Y-76079989D02*
X146111004Y-76175227D01*
X146111004Y-76175227D02*
X146087195Y-76222846D01*
X146087195Y-76222846D02*
X146063385Y-76246656D01*
X146063385Y-76246656D02*
X146015766Y-76270465D01*
X146015766Y-76270465D02*
X145968147Y-76270465D01*
X145968147Y-76270465D02*
X145920528Y-76246656D01*
X145920528Y-76246656D02*
X145896719Y-76222846D01*
X145896719Y-76222846D02*
X145872909Y-76175227D01*
X145872909Y-76175227D02*
X145872909Y-76056180D01*
X145872909Y-76056180D02*
X145896719Y-75984751D01*
X145872909Y-75818085D02*
X146372909Y-75699037D01*
X146372909Y-75699037D02*
X146015766Y-75603799D01*
X146015766Y-75603799D02*
X146372909Y-75508561D01*
X146372909Y-75508561D02*
X145872909Y-75389514D01*
X146039576Y-74984751D02*
X146372909Y-74984751D01*
X145849100Y-75103799D02*
X146206242Y-75222846D01*
X146206242Y-75222846D02*
X146206242Y-74913323D01*
X146349100Y-78770465D02*
X146372909Y-78699037D01*
X146372909Y-78699037D02*
X146372909Y-78579989D01*
X146372909Y-78579989D02*
X146349100Y-78532370D01*
X146349100Y-78532370D02*
X146325290Y-78508561D01*
X146325290Y-78508561D02*
X146277671Y-78484751D01*
X146277671Y-78484751D02*
X146230052Y-78484751D01*
X146230052Y-78484751D02*
X146182433Y-78508561D01*
X146182433Y-78508561D02*
X146158623Y-78532370D01*
X146158623Y-78532370D02*
X146134814Y-78579989D01*
X146134814Y-78579989D02*
X146111004Y-78675227D01*
X146111004Y-78675227D02*
X146087195Y-78722846D01*
X146087195Y-78722846D02*
X146063385Y-78746656D01*
X146063385Y-78746656D02*
X146015766Y-78770465D01*
X146015766Y-78770465D02*
X145968147Y-78770465D01*
X145968147Y-78770465D02*
X145920528Y-78746656D01*
X145920528Y-78746656D02*
X145896719Y-78722846D01*
X145896719Y-78722846D02*
X145872909Y-78675227D01*
X145872909Y-78675227D02*
X145872909Y-78556180D01*
X145872909Y-78556180D02*
X145896719Y-78484751D01*
X145872909Y-78318085D02*
X146372909Y-78199037D01*
X146372909Y-78199037D02*
X146015766Y-78103799D01*
X146015766Y-78103799D02*
X146372909Y-78008561D01*
X146372909Y-78008561D02*
X145872909Y-77889514D01*
X145872909Y-77484751D02*
X145872909Y-77579989D01*
X145872909Y-77579989D02*
X145896719Y-77627608D01*
X145896719Y-77627608D02*
X145920528Y-77651418D01*
X145920528Y-77651418D02*
X145991957Y-77699037D01*
X145991957Y-77699037D02*
X146087195Y-77722846D01*
X146087195Y-77722846D02*
X146277671Y-77722846D01*
X146277671Y-77722846D02*
X146325290Y-77699037D01*
X146325290Y-77699037D02*
X146349100Y-77675227D01*
X146349100Y-77675227D02*
X146372909Y-77627608D01*
X146372909Y-77627608D02*
X146372909Y-77532370D01*
X146372909Y-77532370D02*
X146349100Y-77484751D01*
X146349100Y-77484751D02*
X146325290Y-77460942D01*
X146325290Y-77460942D02*
X146277671Y-77437132D01*
X146277671Y-77437132D02*
X146158623Y-77437132D01*
X146158623Y-77437132D02*
X146111004Y-77460942D01*
X146111004Y-77460942D02*
X146087195Y-77484751D01*
X146087195Y-77484751D02*
X146063385Y-77532370D01*
X146063385Y-77532370D02*
X146063385Y-77627608D01*
X146063385Y-77627608D02*
X146087195Y-77675227D01*
X146087195Y-77675227D02*
X146111004Y-77699037D01*
X146111004Y-77699037D02*
X146158623Y-77722846D01*
X146372909Y-131877608D02*
X145872909Y-131877608D01*
X145872909Y-131877608D02*
X145872909Y-131758560D01*
X145872909Y-131758560D02*
X145896719Y-131687132D01*
X145896719Y-131687132D02*
X145944338Y-131639513D01*
X145944338Y-131639513D02*
X145991957Y-131615703D01*
X145991957Y-131615703D02*
X146087195Y-131591894D01*
X146087195Y-131591894D02*
X146158623Y-131591894D01*
X146158623Y-131591894D02*
X146253861Y-131615703D01*
X146253861Y-131615703D02*
X146301480Y-131639513D01*
X146301480Y-131639513D02*
X146349100Y-131687132D01*
X146349100Y-131687132D02*
X146372909Y-131758560D01*
X146372909Y-131758560D02*
X146372909Y-131877608D01*
X146230052Y-131401417D02*
X146230052Y-131163322D01*
X146372909Y-131449036D02*
X145872909Y-131282370D01*
X145872909Y-131282370D02*
X146372909Y-131115703D01*
X145872909Y-131020465D02*
X145872909Y-130734751D01*
X146372909Y-130877608D02*
X145872909Y-130877608D01*
X146372909Y-130306180D02*
X146372909Y-130591894D01*
X146372909Y-130449037D02*
X145872909Y-130449037D01*
X145872909Y-130449037D02*
X145944338Y-130496656D01*
X145944338Y-130496656D02*
X145991957Y-130544275D01*
X145991957Y-130544275D02*
X146015766Y-130591894D01*
X146182433Y-116803799D02*
X146182433Y-116422847D01*
X146372909Y-116613323D02*
X145991957Y-116613323D01*
X145872909Y-116232370D02*
X145872909Y-115922846D01*
X145872909Y-115922846D02*
X146063385Y-116089513D01*
X146063385Y-116089513D02*
X146063385Y-116018084D01*
X146063385Y-116018084D02*
X146087195Y-115970465D01*
X146087195Y-115970465D02*
X146111004Y-115946656D01*
X146111004Y-115946656D02*
X146158623Y-115922846D01*
X146158623Y-115922846D02*
X146277671Y-115922846D01*
X146277671Y-115922846D02*
X146325290Y-115946656D01*
X146325290Y-115946656D02*
X146349100Y-115970465D01*
X146349100Y-115970465D02*
X146372909Y-116018084D01*
X146372909Y-116018084D02*
X146372909Y-116160941D01*
X146372909Y-116160941D02*
X146349100Y-116208560D01*
X146349100Y-116208560D02*
X146325290Y-116232370D01*
X146325290Y-115708561D02*
X146349100Y-115684751D01*
X146349100Y-115684751D02*
X146372909Y-115708561D01*
X146372909Y-115708561D02*
X146349100Y-115732370D01*
X146349100Y-115732370D02*
X146325290Y-115708561D01*
X146325290Y-115708561D02*
X146372909Y-115708561D01*
X145872909Y-115518085D02*
X145872909Y-115208561D01*
X145872909Y-115208561D02*
X146063385Y-115375228D01*
X146063385Y-115375228D02*
X146063385Y-115303799D01*
X146063385Y-115303799D02*
X146087195Y-115256180D01*
X146087195Y-115256180D02*
X146111004Y-115232371D01*
X146111004Y-115232371D02*
X146158623Y-115208561D01*
X146158623Y-115208561D02*
X146277671Y-115208561D01*
X146277671Y-115208561D02*
X146325290Y-115232371D01*
X146325290Y-115232371D02*
X146349100Y-115256180D01*
X146349100Y-115256180D02*
X146372909Y-115303799D01*
X146372909Y-115303799D02*
X146372909Y-115446656D01*
X146372909Y-115446656D02*
X146349100Y-115494275D01*
X146349100Y-115494275D02*
X146325290Y-115518085D01*
X145872909Y-115065704D02*
X146372909Y-114899038D01*
X146372909Y-114899038D02*
X145872909Y-114732371D01*
D11*
X141103942Y-87756019D02*
X141103942Y-88470304D01*
X141103942Y-88470304D02*
X141056323Y-88613161D01*
X141056323Y-88613161D02*
X140961085Y-88708400D01*
X140961085Y-88708400D02*
X140818228Y-88756019D01*
X140818228Y-88756019D02*
X140722990Y-88756019D01*
X141342038Y-88851257D02*
X142103942Y-88851257D01*
X142294419Y-88708400D02*
X142437276Y-88756019D01*
X142437276Y-88756019D02*
X142675371Y-88756019D01*
X142675371Y-88756019D02*
X142770609Y-88708400D01*
X142770609Y-88708400D02*
X142818228Y-88660780D01*
X142818228Y-88660780D02*
X142865847Y-88565542D01*
X142865847Y-88565542D02*
X142865847Y-88470304D01*
X142865847Y-88470304D02*
X142818228Y-88375066D01*
X142818228Y-88375066D02*
X142770609Y-88327447D01*
X142770609Y-88327447D02*
X142675371Y-88279828D01*
X142675371Y-88279828D02*
X142484895Y-88232209D01*
X142484895Y-88232209D02*
X142389657Y-88184590D01*
X142389657Y-88184590D02*
X142342038Y-88136971D01*
X142342038Y-88136971D02*
X142294419Y-88041733D01*
X142294419Y-88041733D02*
X142294419Y-87946495D01*
X142294419Y-87946495D02*
X142342038Y-87851257D01*
X142342038Y-87851257D02*
X142389657Y-87803638D01*
X142389657Y-87803638D02*
X142484895Y-87756019D01*
X142484895Y-87756019D02*
X142722990Y-87756019D01*
X142722990Y-87756019D02*
X142865847Y-87803638D01*
X143199181Y-87756019D02*
X143437276Y-88756019D01*
X143437276Y-88756019D02*
X143627752Y-88041733D01*
X143627752Y-88041733D02*
X143818228Y-88756019D01*
X143818228Y-88756019D02*
X144056324Y-87756019D01*
X144199181Y-88851257D02*
X144961085Y-88851257D01*
X145722990Y-88756019D02*
X145151562Y-88756019D01*
X145437276Y-88756019D02*
X145437276Y-87756019D01*
X145437276Y-87756019D02*
X145342038Y-87898876D01*
X145342038Y-87898876D02*
X145246800Y-87994114D01*
X145246800Y-87994114D02*
X145151562Y-88041733D01*
X166851561Y-87516819D02*
X166851561Y-88231104D01*
X166851561Y-88231104D02*
X166803942Y-88373961D01*
X166803942Y-88373961D02*
X166708704Y-88469200D01*
X166708704Y-88469200D02*
X166565847Y-88516819D01*
X166565847Y-88516819D02*
X166470609Y-88516819D01*
X167089657Y-88612057D02*
X167851561Y-88612057D01*
X168089657Y-88516819D02*
X168089657Y-87516819D01*
X168089657Y-87516819D02*
X168327752Y-87516819D01*
X168327752Y-87516819D02*
X168470609Y-87564438D01*
X168470609Y-87564438D02*
X168565847Y-87659676D01*
X168565847Y-87659676D02*
X168613466Y-87754914D01*
X168613466Y-87754914D02*
X168661085Y-87945390D01*
X168661085Y-87945390D02*
X168661085Y-88088247D01*
X168661085Y-88088247D02*
X168613466Y-88278723D01*
X168613466Y-88278723D02*
X168565847Y-88373961D01*
X168565847Y-88373961D02*
X168470609Y-88469200D01*
X168470609Y-88469200D02*
X168327752Y-88516819D01*
X168327752Y-88516819D02*
X168089657Y-88516819D01*
X169089657Y-88516819D02*
X169089657Y-87516819D01*
X169089657Y-87516819D02*
X169470609Y-87516819D01*
X169470609Y-87516819D02*
X169565847Y-87564438D01*
X169565847Y-87564438D02*
X169613466Y-87612057D01*
X169613466Y-87612057D02*
X169661085Y-87707295D01*
X169661085Y-87707295D02*
X169661085Y-87850152D01*
X169661085Y-87850152D02*
X169613466Y-87945390D01*
X169613466Y-87945390D02*
X169565847Y-87993009D01*
X169565847Y-87993009D02*
X169470609Y-88040628D01*
X169470609Y-88040628D02*
X169089657Y-88040628D01*
X169851562Y-88612057D02*
X170613466Y-88612057D01*
X171375371Y-88516819D02*
X170803943Y-88516819D01*
X171089657Y-88516819D02*
X171089657Y-87516819D01*
X171089657Y-87516819D02*
X170994419Y-87659676D01*
X170994419Y-87659676D02*
X170899181Y-87754914D01*
X170899181Y-87754914D02*
X170803943Y-87802533D01*
X155944895Y-87306019D02*
X155944895Y-88115542D01*
X155944895Y-88115542D02*
X155992514Y-88210780D01*
X155992514Y-88210780D02*
X156040133Y-88258400D01*
X156040133Y-88258400D02*
X156135371Y-88306019D01*
X156135371Y-88306019D02*
X156325847Y-88306019D01*
X156325847Y-88306019D02*
X156421085Y-88258400D01*
X156421085Y-88258400D02*
X156468704Y-88210780D01*
X156468704Y-88210780D02*
X156516323Y-88115542D01*
X156516323Y-88115542D02*
X156516323Y-87306019D01*
X156944895Y-87401257D02*
X156992514Y-87353638D01*
X156992514Y-87353638D02*
X157087752Y-87306019D01*
X157087752Y-87306019D02*
X157325847Y-87306019D01*
X157325847Y-87306019D02*
X157421085Y-87353638D01*
X157421085Y-87353638D02*
X157468704Y-87401257D01*
X157468704Y-87401257D02*
X157516323Y-87496495D01*
X157516323Y-87496495D02*
X157516323Y-87591733D01*
X157516323Y-87591733D02*
X157468704Y-87734590D01*
X157468704Y-87734590D02*
X156897276Y-88306019D01*
X156897276Y-88306019D02*
X157516323Y-88306019D01*
D10*
X159805200Y-84052134D02*
X159852819Y-83909277D01*
X159852819Y-83909277D02*
X159852819Y-83671182D01*
X159852819Y-83671182D02*
X159805200Y-83575944D01*
X159805200Y-83575944D02*
X159757580Y-83528325D01*
X159757580Y-83528325D02*
X159662342Y-83480706D01*
X159662342Y-83480706D02*
X159567104Y-83480706D01*
X159567104Y-83480706D02*
X159471866Y-83528325D01*
X159471866Y-83528325D02*
X159424247Y-83575944D01*
X159424247Y-83575944D02*
X159376628Y-83671182D01*
X159376628Y-83671182D02*
X159329009Y-83861658D01*
X159329009Y-83861658D02*
X159281390Y-83956896D01*
X159281390Y-83956896D02*
X159233771Y-84004515D01*
X159233771Y-84004515D02*
X159138533Y-84052134D01*
X159138533Y-84052134D02*
X159043295Y-84052134D01*
X159043295Y-84052134D02*
X158948057Y-84004515D01*
X158948057Y-84004515D02*
X158900438Y-83956896D01*
X158900438Y-83956896D02*
X158852819Y-83861658D01*
X158852819Y-83861658D02*
X158852819Y-83623563D01*
X158852819Y-83623563D02*
X158900438Y-83480706D01*
X159852819Y-83052134D02*
X158852819Y-83052134D01*
X158852819Y-83052134D02*
X158852819Y-82814039D01*
X158852819Y-82814039D02*
X158900438Y-82671182D01*
X158900438Y-82671182D02*
X158995676Y-82575944D01*
X158995676Y-82575944D02*
X159090914Y-82528325D01*
X159090914Y-82528325D02*
X159281390Y-82480706D01*
X159281390Y-82480706D02*
X159424247Y-82480706D01*
X159424247Y-82480706D02*
X159614723Y-82528325D01*
X159614723Y-82528325D02*
X159709961Y-82575944D01*
X159709961Y-82575944D02*
X159805200Y-82671182D01*
X159805200Y-82671182D02*
X159852819Y-82814039D01*
X159852819Y-82814039D02*
X159852819Y-83052134D01*
X158575200Y-84142611D02*
X158575200Y-82390230D01*
D12*
X161613954Y-68628132D02*
X161613954Y-67476666D01*
X162189687Y-68052399D02*
X161038221Y-68052399D01*
X152682132Y-67942845D02*
X151530666Y-67942845D01*
D10*
X154772819Y-84004515D02*
X153772819Y-84004515D01*
X153772819Y-84004515D02*
X153772819Y-83766420D01*
X153772819Y-83766420D02*
X153820438Y-83623563D01*
X153820438Y-83623563D02*
X153915676Y-83528325D01*
X153915676Y-83528325D02*
X154010914Y-83480706D01*
X154010914Y-83480706D02*
X154201390Y-83433087D01*
X154201390Y-83433087D02*
X154344247Y-83433087D01*
X154344247Y-83433087D02*
X154534723Y-83480706D01*
X154534723Y-83480706D02*
X154629961Y-83528325D01*
X154629961Y-83528325D02*
X154725200Y-83623563D01*
X154725200Y-83623563D02*
X154772819Y-83766420D01*
X154772819Y-83766420D02*
X154772819Y-84004515D01*
X154772819Y-83004515D02*
X153772819Y-83004515D01*
X154772819Y-82528325D02*
X153772819Y-82528325D01*
X153772819Y-82528325D02*
X154772819Y-81956897D01*
X154772819Y-81956897D02*
X153772819Y-81956897D01*
X156360438Y-83480706D02*
X156312819Y-83575944D01*
X156312819Y-83575944D02*
X156312819Y-83718801D01*
X156312819Y-83718801D02*
X156360438Y-83861658D01*
X156360438Y-83861658D02*
X156455676Y-83956896D01*
X156455676Y-83956896D02*
X156550914Y-84004515D01*
X156550914Y-84004515D02*
X156741390Y-84052134D01*
X156741390Y-84052134D02*
X156884247Y-84052134D01*
X156884247Y-84052134D02*
X157074723Y-84004515D01*
X157074723Y-84004515D02*
X157169961Y-83956896D01*
X157169961Y-83956896D02*
X157265200Y-83861658D01*
X157265200Y-83861658D02*
X157312819Y-83718801D01*
X157312819Y-83718801D02*
X157312819Y-83623563D01*
X157312819Y-83623563D02*
X157265200Y-83480706D01*
X157265200Y-83480706D02*
X157217580Y-83433087D01*
X157217580Y-83433087D02*
X156884247Y-83433087D01*
X156884247Y-83433087D02*
X156884247Y-83623563D01*
X157027104Y-83052134D02*
X157027104Y-82575944D01*
X157312819Y-83147372D02*
X156312819Y-82814039D01*
X156312819Y-82814039D02*
X157312819Y-82480706D01*
X157312819Y-82147372D02*
X156312819Y-82147372D01*
X157312819Y-81671182D02*
X156312819Y-81671182D01*
X156312819Y-81671182D02*
X157312819Y-81099754D01*
X157312819Y-81099754D02*
X156312819Y-81099754D01*
X164028057Y-84052134D02*
X163980438Y-84004515D01*
X163980438Y-84004515D02*
X163932819Y-83909277D01*
X163932819Y-83909277D02*
X163932819Y-83671182D01*
X163932819Y-83671182D02*
X163980438Y-83575944D01*
X163980438Y-83575944D02*
X164028057Y-83528325D01*
X164028057Y-83528325D02*
X164123295Y-83480706D01*
X164123295Y-83480706D02*
X164218533Y-83480706D01*
X164218533Y-83480706D02*
X164361390Y-83528325D01*
X164361390Y-83528325D02*
X164932819Y-84099753D01*
X164932819Y-84099753D02*
X164932819Y-83480706D01*
X164837580Y-83052134D02*
X164885200Y-83004515D01*
X164885200Y-83004515D02*
X164932819Y-83052134D01*
X164932819Y-83052134D02*
X164885200Y-83099753D01*
X164885200Y-83099753D02*
X164837580Y-83052134D01*
X164837580Y-83052134D02*
X164932819Y-83052134D01*
X163932819Y-82099754D02*
X163932819Y-82575944D01*
X163932819Y-82575944D02*
X164409009Y-82623563D01*
X164409009Y-82623563D02*
X164361390Y-82575944D01*
X164361390Y-82575944D02*
X164313771Y-82480706D01*
X164313771Y-82480706D02*
X164313771Y-82242611D01*
X164313771Y-82242611D02*
X164361390Y-82147373D01*
X164361390Y-82147373D02*
X164409009Y-82099754D01*
X164409009Y-82099754D02*
X164504247Y-82052135D01*
X164504247Y-82052135D02*
X164742342Y-82052135D01*
X164742342Y-82052135D02*
X164837580Y-82099754D01*
X164837580Y-82099754D02*
X164885200Y-82147373D01*
X164885200Y-82147373D02*
X164932819Y-82242611D01*
X164932819Y-82242611D02*
X164932819Y-82480706D01*
X164932819Y-82480706D02*
X164885200Y-82575944D01*
X164885200Y-82575944D02*
X164837580Y-82623563D01*
X164551866Y-81623563D02*
X164551866Y-80861659D01*
X163932819Y-79909278D02*
X163932819Y-80385468D01*
X163932819Y-80385468D02*
X164409009Y-80433087D01*
X164409009Y-80433087D02*
X164361390Y-80385468D01*
X164361390Y-80385468D02*
X164313771Y-80290230D01*
X164313771Y-80290230D02*
X164313771Y-80052135D01*
X164313771Y-80052135D02*
X164361390Y-79956897D01*
X164361390Y-79956897D02*
X164409009Y-79909278D01*
X164409009Y-79909278D02*
X164504247Y-79861659D01*
X164504247Y-79861659D02*
X164742342Y-79861659D01*
X164742342Y-79861659D02*
X164837580Y-79909278D01*
X164837580Y-79909278D02*
X164885200Y-79956897D01*
X164885200Y-79956897D02*
X164932819Y-80052135D01*
X164932819Y-80052135D02*
X164932819Y-80290230D01*
X164932819Y-80290230D02*
X164885200Y-80385468D01*
X164885200Y-80385468D02*
X164837580Y-80433087D01*
X164837580Y-79433087D02*
X164885200Y-79385468D01*
X164885200Y-79385468D02*
X164932819Y-79433087D01*
X164932819Y-79433087D02*
X164885200Y-79480706D01*
X164885200Y-79480706D02*
X164837580Y-79433087D01*
X164837580Y-79433087D02*
X164932819Y-79433087D01*
X163932819Y-78480707D02*
X163932819Y-78956897D01*
X163932819Y-78956897D02*
X164409009Y-79004516D01*
X164409009Y-79004516D02*
X164361390Y-78956897D01*
X164361390Y-78956897D02*
X164313771Y-78861659D01*
X164313771Y-78861659D02*
X164313771Y-78623564D01*
X164313771Y-78623564D02*
X164361390Y-78528326D01*
X164361390Y-78528326D02*
X164409009Y-78480707D01*
X164409009Y-78480707D02*
X164504247Y-78433088D01*
X164504247Y-78433088D02*
X164742342Y-78433088D01*
X164742342Y-78433088D02*
X164837580Y-78480707D01*
X164837580Y-78480707D02*
X164885200Y-78528326D01*
X164885200Y-78528326D02*
X164932819Y-78623564D01*
X164932819Y-78623564D02*
X164932819Y-78861659D01*
X164932819Y-78861659D02*
X164885200Y-78956897D01*
X164885200Y-78956897D02*
X164837580Y-79004516D01*
X163932819Y-78147373D02*
X164932819Y-77814040D01*
X164932819Y-77814040D02*
X163932819Y-77480707D01*
X161440438Y-83480706D02*
X161392819Y-83575944D01*
X161392819Y-83575944D02*
X161392819Y-83718801D01*
X161392819Y-83718801D02*
X161440438Y-83861658D01*
X161440438Y-83861658D02*
X161535676Y-83956896D01*
X161535676Y-83956896D02*
X161630914Y-84004515D01*
X161630914Y-84004515D02*
X161821390Y-84052134D01*
X161821390Y-84052134D02*
X161964247Y-84052134D01*
X161964247Y-84052134D02*
X162154723Y-84004515D01*
X162154723Y-84004515D02*
X162249961Y-83956896D01*
X162249961Y-83956896D02*
X162345200Y-83861658D01*
X162345200Y-83861658D02*
X162392819Y-83718801D01*
X162392819Y-83718801D02*
X162392819Y-83623563D01*
X162392819Y-83623563D02*
X162345200Y-83480706D01*
X162345200Y-83480706D02*
X162297580Y-83433087D01*
X162297580Y-83433087D02*
X161964247Y-83433087D01*
X161964247Y-83433087D02*
X161964247Y-83623563D01*
X162392819Y-83004515D02*
X161392819Y-83004515D01*
X161392819Y-83004515D02*
X162392819Y-82433087D01*
X162392819Y-82433087D02*
X161392819Y-82433087D01*
X162392819Y-81956896D02*
X161392819Y-81956896D01*
X161392819Y-81956896D02*
X161392819Y-81718801D01*
X161392819Y-81718801D02*
X161440438Y-81575944D01*
X161440438Y-81575944D02*
X161535676Y-81480706D01*
X161535676Y-81480706D02*
X161630914Y-81433087D01*
X161630914Y-81433087D02*
X161821390Y-81385468D01*
X161821390Y-81385468D02*
X161964247Y-81385468D01*
X161964247Y-81385468D02*
X162154723Y-81433087D01*
X162154723Y-81433087D02*
X162249961Y-81480706D01*
X162249961Y-81480706D02*
X162345200Y-81575944D01*
X162345200Y-81575944D02*
X162392819Y-81718801D01*
X162392819Y-81718801D02*
X162392819Y-81956896D01*
X151709009Y-83671182D02*
X151756628Y-83528325D01*
X151756628Y-83528325D02*
X151804247Y-83480706D01*
X151804247Y-83480706D02*
X151899485Y-83433087D01*
X151899485Y-83433087D02*
X152042342Y-83433087D01*
X152042342Y-83433087D02*
X152137580Y-83480706D01*
X152137580Y-83480706D02*
X152185200Y-83528325D01*
X152185200Y-83528325D02*
X152232819Y-83623563D01*
X152232819Y-83623563D02*
X152232819Y-84004515D01*
X152232819Y-84004515D02*
X151232819Y-84004515D01*
X151232819Y-84004515D02*
X151232819Y-83671182D01*
X151232819Y-83671182D02*
X151280438Y-83575944D01*
X151280438Y-83575944D02*
X151328057Y-83528325D01*
X151328057Y-83528325D02*
X151423295Y-83480706D01*
X151423295Y-83480706D02*
X151518533Y-83480706D01*
X151518533Y-83480706D02*
X151613771Y-83528325D01*
X151613771Y-83528325D02*
X151661390Y-83575944D01*
X151661390Y-83575944D02*
X151709009Y-83671182D01*
X151709009Y-83671182D02*
X151709009Y-84004515D01*
X152137580Y-82433087D02*
X152185200Y-82480706D01*
X152185200Y-82480706D02*
X152232819Y-82623563D01*
X152232819Y-82623563D02*
X152232819Y-82718801D01*
X152232819Y-82718801D02*
X152185200Y-82861658D01*
X152185200Y-82861658D02*
X152089961Y-82956896D01*
X152089961Y-82956896D02*
X151994723Y-83004515D01*
X151994723Y-83004515D02*
X151804247Y-83052134D01*
X151804247Y-83052134D02*
X151661390Y-83052134D01*
X151661390Y-83052134D02*
X151470914Y-83004515D01*
X151470914Y-83004515D02*
X151375676Y-82956896D01*
X151375676Y-82956896D02*
X151280438Y-82861658D01*
X151280438Y-82861658D02*
X151232819Y-82718801D01*
X151232819Y-82718801D02*
X151232819Y-82623563D01*
X151232819Y-82623563D02*
X151280438Y-82480706D01*
X151280438Y-82480706D02*
X151328057Y-82433087D01*
X152232819Y-81528325D02*
X152232819Y-82004515D01*
X152232819Y-82004515D02*
X151232819Y-82004515D01*
X152232819Y-81194991D02*
X151232819Y-81194991D01*
X152232819Y-80623563D02*
X151661390Y-81052134D01*
X151232819Y-80623563D02*
X151804247Y-81194991D01*
X149692819Y-83528325D02*
X149692819Y-84004515D01*
X149692819Y-84004515D02*
X148692819Y-84004515D01*
X149692819Y-82623563D02*
X149216628Y-82956896D01*
X149692819Y-83194991D02*
X148692819Y-83194991D01*
X148692819Y-83194991D02*
X148692819Y-82814039D01*
X148692819Y-82814039D02*
X148740438Y-82718801D01*
X148740438Y-82718801D02*
X148788057Y-82671182D01*
X148788057Y-82671182D02*
X148883295Y-82623563D01*
X148883295Y-82623563D02*
X149026152Y-82623563D01*
X149026152Y-82623563D02*
X149121390Y-82671182D01*
X149121390Y-82671182D02*
X149169009Y-82718801D01*
X149169009Y-82718801D02*
X149216628Y-82814039D01*
X149216628Y-82814039D02*
X149216628Y-83194991D01*
X149597580Y-81623563D02*
X149645200Y-81671182D01*
X149645200Y-81671182D02*
X149692819Y-81814039D01*
X149692819Y-81814039D02*
X149692819Y-81909277D01*
X149692819Y-81909277D02*
X149645200Y-82052134D01*
X149645200Y-82052134D02*
X149549961Y-82147372D01*
X149549961Y-82147372D02*
X149454723Y-82194991D01*
X149454723Y-82194991D02*
X149264247Y-82242610D01*
X149264247Y-82242610D02*
X149121390Y-82242610D01*
X149121390Y-82242610D02*
X148930914Y-82194991D01*
X148930914Y-82194991D02*
X148835676Y-82147372D01*
X148835676Y-82147372D02*
X148740438Y-82052134D01*
X148740438Y-82052134D02*
X148692819Y-81909277D01*
X148692819Y-81909277D02*
X148692819Y-81814039D01*
X148692819Y-81814039D02*
X148740438Y-81671182D01*
X148740438Y-81671182D02*
X148788057Y-81623563D01*
X149692819Y-80718801D02*
X149692819Y-81194991D01*
X149692819Y-81194991D02*
X148692819Y-81194991D01*
X149692819Y-80385467D02*
X148692819Y-80385467D01*
X149692819Y-79814039D02*
X149121390Y-80242610D01*
X148692819Y-79814039D02*
X149264247Y-80385467D01*
D11*
X140125371Y-136756019D02*
X140125371Y-137470304D01*
X140125371Y-137470304D02*
X140077752Y-137613161D01*
X140077752Y-137613161D02*
X139982514Y-137708400D01*
X139982514Y-137708400D02*
X139839657Y-137756019D01*
X139839657Y-137756019D02*
X139744419Y-137756019D01*
X140363467Y-137851257D02*
X141125371Y-137851257D01*
X141315848Y-137708400D02*
X141458705Y-137756019D01*
X141458705Y-137756019D02*
X141696800Y-137756019D01*
X141696800Y-137756019D02*
X141792038Y-137708400D01*
X141792038Y-137708400D02*
X141839657Y-137660780D01*
X141839657Y-137660780D02*
X141887276Y-137565542D01*
X141887276Y-137565542D02*
X141887276Y-137470304D01*
X141887276Y-137470304D02*
X141839657Y-137375066D01*
X141839657Y-137375066D02*
X141792038Y-137327447D01*
X141792038Y-137327447D02*
X141696800Y-137279828D01*
X141696800Y-137279828D02*
X141506324Y-137232209D01*
X141506324Y-137232209D02*
X141411086Y-137184590D01*
X141411086Y-137184590D02*
X141363467Y-137136971D01*
X141363467Y-137136971D02*
X141315848Y-137041733D01*
X141315848Y-137041733D02*
X141315848Y-136946495D01*
X141315848Y-136946495D02*
X141363467Y-136851257D01*
X141363467Y-136851257D02*
X141411086Y-136803638D01*
X141411086Y-136803638D02*
X141506324Y-136756019D01*
X141506324Y-136756019D02*
X141744419Y-136756019D01*
X141744419Y-136756019D02*
X141887276Y-136803638D01*
X142887276Y-137660780D02*
X142839657Y-137708400D01*
X142839657Y-137708400D02*
X142696800Y-137756019D01*
X142696800Y-137756019D02*
X142601562Y-137756019D01*
X142601562Y-137756019D02*
X142458705Y-137708400D01*
X142458705Y-137708400D02*
X142363467Y-137613161D01*
X142363467Y-137613161D02*
X142315848Y-137517923D01*
X142315848Y-137517923D02*
X142268229Y-137327447D01*
X142268229Y-137327447D02*
X142268229Y-137184590D01*
X142268229Y-137184590D02*
X142315848Y-136994114D01*
X142315848Y-136994114D02*
X142363467Y-136898876D01*
X142363467Y-136898876D02*
X142458705Y-136803638D01*
X142458705Y-136803638D02*
X142601562Y-136756019D01*
X142601562Y-136756019D02*
X142696800Y-136756019D01*
X142696800Y-136756019D02*
X142839657Y-136803638D01*
X142839657Y-136803638D02*
X142887276Y-136851257D01*
X143077753Y-137851257D02*
X143839657Y-137851257D01*
X144601562Y-137756019D02*
X144030134Y-137756019D01*
X144315848Y-137756019D02*
X144315848Y-136756019D01*
X144315848Y-136756019D02*
X144220610Y-136898876D01*
X144220610Y-136898876D02*
X144125372Y-136994114D01*
X144125372Y-136994114D02*
X144030134Y-137041733D01*
X141103942Y-66456019D02*
X141103942Y-67170304D01*
X141103942Y-67170304D02*
X141056323Y-67313161D01*
X141056323Y-67313161D02*
X140961085Y-67408400D01*
X140961085Y-67408400D02*
X140818228Y-67456019D01*
X140818228Y-67456019D02*
X140722990Y-67456019D01*
X141342038Y-67551257D02*
X142103942Y-67551257D01*
X142294419Y-67408400D02*
X142437276Y-67456019D01*
X142437276Y-67456019D02*
X142675371Y-67456019D01*
X142675371Y-67456019D02*
X142770609Y-67408400D01*
X142770609Y-67408400D02*
X142818228Y-67360780D01*
X142818228Y-67360780D02*
X142865847Y-67265542D01*
X142865847Y-67265542D02*
X142865847Y-67170304D01*
X142865847Y-67170304D02*
X142818228Y-67075066D01*
X142818228Y-67075066D02*
X142770609Y-67027447D01*
X142770609Y-67027447D02*
X142675371Y-66979828D01*
X142675371Y-66979828D02*
X142484895Y-66932209D01*
X142484895Y-66932209D02*
X142389657Y-66884590D01*
X142389657Y-66884590D02*
X142342038Y-66836971D01*
X142342038Y-66836971D02*
X142294419Y-66741733D01*
X142294419Y-66741733D02*
X142294419Y-66646495D01*
X142294419Y-66646495D02*
X142342038Y-66551257D01*
X142342038Y-66551257D02*
X142389657Y-66503638D01*
X142389657Y-66503638D02*
X142484895Y-66456019D01*
X142484895Y-66456019D02*
X142722990Y-66456019D01*
X142722990Y-66456019D02*
X142865847Y-66503638D01*
X143199181Y-66456019D02*
X143437276Y-67456019D01*
X143437276Y-67456019D02*
X143627752Y-66741733D01*
X143627752Y-66741733D02*
X143818228Y-67456019D01*
X143818228Y-67456019D02*
X144056324Y-66456019D01*
X144199181Y-67551257D02*
X144961085Y-67551257D01*
X145151562Y-66551257D02*
X145199181Y-66503638D01*
X145199181Y-66503638D02*
X145294419Y-66456019D01*
X145294419Y-66456019D02*
X145532514Y-66456019D01*
X145532514Y-66456019D02*
X145627752Y-66503638D01*
X145627752Y-66503638D02*
X145675371Y-66551257D01*
X145675371Y-66551257D02*
X145722990Y-66646495D01*
X145722990Y-66646495D02*
X145722990Y-66741733D01*
X145722990Y-66741733D02*
X145675371Y-66884590D01*
X145675371Y-66884590D02*
X145103943Y-67456019D01*
X145103943Y-67456019D02*
X145722990Y-67456019D01*
X158434895Y-136856019D02*
X158434895Y-137665542D01*
X158434895Y-137665542D02*
X158482514Y-137760780D01*
X158482514Y-137760780D02*
X158530133Y-137808400D01*
X158530133Y-137808400D02*
X158625371Y-137856019D01*
X158625371Y-137856019D02*
X158815847Y-137856019D01*
X158815847Y-137856019D02*
X158911085Y-137808400D01*
X158911085Y-137808400D02*
X158958704Y-137760780D01*
X158958704Y-137760780D02*
X159006323Y-137665542D01*
X159006323Y-137665542D02*
X159006323Y-136856019D01*
X160006323Y-137856019D02*
X159434895Y-137856019D01*
X159720609Y-137856019D02*
X159720609Y-136856019D01*
X159720609Y-136856019D02*
X159625371Y-136998876D01*
X159625371Y-136998876D02*
X159530133Y-137094114D01*
X159530133Y-137094114D02*
X159434895Y-137141733D01*
D10*
X149612284Y-108684219D02*
X149612284Y-107684219D01*
X150278950Y-107684219D02*
X150469426Y-107684219D01*
X150469426Y-107684219D02*
X150564664Y-107731838D01*
X150564664Y-107731838D02*
X150659902Y-107827076D01*
X150659902Y-107827076D02*
X150707521Y-108017552D01*
X150707521Y-108017552D02*
X150707521Y-108350885D01*
X150707521Y-108350885D02*
X150659902Y-108541361D01*
X150659902Y-108541361D02*
X150564664Y-108636600D01*
X150564664Y-108636600D02*
X150469426Y-108684219D01*
X150469426Y-108684219D02*
X150278950Y-108684219D01*
X150278950Y-108684219D02*
X150183712Y-108636600D01*
X150183712Y-108636600D02*
X150088474Y-108541361D01*
X150088474Y-108541361D02*
X150040855Y-108350885D01*
X150040855Y-108350885D02*
X150040855Y-108017552D01*
X150040855Y-108017552D02*
X150088474Y-107827076D01*
X150088474Y-107827076D02*
X150183712Y-107731838D01*
X150183712Y-107731838D02*
X150278950Y-107684219D01*
X151040855Y-107684219D02*
X151659902Y-107684219D01*
X151659902Y-107684219D02*
X151326569Y-108065171D01*
X151326569Y-108065171D02*
X151469426Y-108065171D01*
X151469426Y-108065171D02*
X151564664Y-108112790D01*
X151564664Y-108112790D02*
X151612283Y-108160409D01*
X151612283Y-108160409D02*
X151659902Y-108255647D01*
X151659902Y-108255647D02*
X151659902Y-108493742D01*
X151659902Y-108493742D02*
X151612283Y-108588980D01*
X151612283Y-108588980D02*
X151564664Y-108636600D01*
X151564664Y-108636600D02*
X151469426Y-108684219D01*
X151469426Y-108684219D02*
X151183712Y-108684219D01*
X151183712Y-108684219D02*
X151088474Y-108636600D01*
X151088474Y-108636600D02*
X151040855Y-108588980D01*
X151993236Y-107684219D02*
X152612283Y-107684219D01*
X152612283Y-107684219D02*
X152278950Y-108065171D01*
X152278950Y-108065171D02*
X152421807Y-108065171D01*
X152421807Y-108065171D02*
X152517045Y-108112790D01*
X152517045Y-108112790D02*
X152564664Y-108160409D01*
X152564664Y-108160409D02*
X152612283Y-108255647D01*
X152612283Y-108255647D02*
X152612283Y-108493742D01*
X152612283Y-108493742D02*
X152564664Y-108588980D01*
X152564664Y-108588980D02*
X152517045Y-108636600D01*
X152517045Y-108636600D02*
X152421807Y-108684219D01*
X152421807Y-108684219D02*
X152136093Y-108684219D01*
X152136093Y-108684219D02*
X152040855Y-108636600D01*
X152040855Y-108636600D02*
X151993236Y-108588980D01*
X166705372Y-100992219D02*
X166372039Y-100516028D01*
X166133944Y-100992219D02*
X166133944Y-99992219D01*
X166133944Y-99992219D02*
X166514896Y-99992219D01*
X166514896Y-99992219D02*
X166610134Y-100039838D01*
X166610134Y-100039838D02*
X166657753Y-100087457D01*
X166657753Y-100087457D02*
X166705372Y-100182695D01*
X166705372Y-100182695D02*
X166705372Y-100325552D01*
X166705372Y-100325552D02*
X166657753Y-100420790D01*
X166657753Y-100420790D02*
X166610134Y-100468409D01*
X166610134Y-100468409D02*
X166514896Y-100516028D01*
X166514896Y-100516028D02*
X166133944Y-100516028D01*
X167038706Y-99992219D02*
X167705372Y-100992219D01*
X167705372Y-99992219D02*
X167038706Y-100992219D01*
X168276801Y-99992219D02*
X168372039Y-99992219D01*
X168372039Y-99992219D02*
X168467277Y-100039838D01*
X168467277Y-100039838D02*
X168514896Y-100087457D01*
X168514896Y-100087457D02*
X168562515Y-100182695D01*
X168562515Y-100182695D02*
X168610134Y-100373171D01*
X168610134Y-100373171D02*
X168610134Y-100611266D01*
X168610134Y-100611266D02*
X168562515Y-100801742D01*
X168562515Y-100801742D02*
X168514896Y-100896980D01*
X168514896Y-100896980D02*
X168467277Y-100944600D01*
X168467277Y-100944600D02*
X168372039Y-100992219D01*
X168372039Y-100992219D02*
X168276801Y-100992219D01*
X168276801Y-100992219D02*
X168181563Y-100944600D01*
X168181563Y-100944600D02*
X168133944Y-100896980D01*
X168133944Y-100896980D02*
X168086325Y-100801742D01*
X168086325Y-100801742D02*
X168038706Y-100611266D01*
X168038706Y-100611266D02*
X168038706Y-100373171D01*
X168038706Y-100373171D02*
X168086325Y-100182695D01*
X168086325Y-100182695D02*
X168133944Y-100087457D01*
X168133944Y-100087457D02*
X168181563Y-100039838D01*
X168181563Y-100039838D02*
X168276801Y-99992219D01*
X166562516Y-123852219D02*
X166562516Y-122852219D01*
X167229182Y-122852219D02*
X167419658Y-122852219D01*
X167419658Y-122852219D02*
X167514896Y-122899838D01*
X167514896Y-122899838D02*
X167610134Y-122995076D01*
X167610134Y-122995076D02*
X167657753Y-123185552D01*
X167657753Y-123185552D02*
X167657753Y-123518885D01*
X167657753Y-123518885D02*
X167610134Y-123709361D01*
X167610134Y-123709361D02*
X167514896Y-123804600D01*
X167514896Y-123804600D02*
X167419658Y-123852219D01*
X167419658Y-123852219D02*
X167229182Y-123852219D01*
X167229182Y-123852219D02*
X167133944Y-123804600D01*
X167133944Y-123804600D02*
X167038706Y-123709361D01*
X167038706Y-123709361D02*
X166991087Y-123518885D01*
X166991087Y-123518885D02*
X166991087Y-123185552D01*
X166991087Y-123185552D02*
X167038706Y-122995076D01*
X167038706Y-122995076D02*
X167133944Y-122899838D01*
X167133944Y-122899838D02*
X167229182Y-122852219D01*
X168276801Y-122852219D02*
X168372039Y-122852219D01*
X168372039Y-122852219D02*
X168467277Y-122899838D01*
X168467277Y-122899838D02*
X168514896Y-122947457D01*
X168514896Y-122947457D02*
X168562515Y-123042695D01*
X168562515Y-123042695D02*
X168610134Y-123233171D01*
X168610134Y-123233171D02*
X168610134Y-123471266D01*
X168610134Y-123471266D02*
X168562515Y-123661742D01*
X168562515Y-123661742D02*
X168514896Y-123756980D01*
X168514896Y-123756980D02*
X168467277Y-123804600D01*
X168467277Y-123804600D02*
X168372039Y-123852219D01*
X168372039Y-123852219D02*
X168276801Y-123852219D01*
X168276801Y-123852219D02*
X168181563Y-123804600D01*
X168181563Y-123804600D02*
X168133944Y-123756980D01*
X168133944Y-123756980D02*
X168086325Y-123661742D01*
X168086325Y-123661742D02*
X168038706Y-123471266D01*
X168038706Y-123471266D02*
X168038706Y-123233171D01*
X168038706Y-123233171D02*
X168086325Y-123042695D01*
X168086325Y-123042695D02*
X168133944Y-122947457D01*
X168133944Y-122947457D02*
X168181563Y-122899838D01*
X168181563Y-122899838D02*
X168276801Y-122852219D01*
X149612284Y-126392219D02*
X149612284Y-125392219D01*
X150278950Y-125392219D02*
X150469426Y-125392219D01*
X150469426Y-125392219D02*
X150564664Y-125439838D01*
X150564664Y-125439838D02*
X150659902Y-125535076D01*
X150659902Y-125535076D02*
X150707521Y-125725552D01*
X150707521Y-125725552D02*
X150707521Y-126058885D01*
X150707521Y-126058885D02*
X150659902Y-126249361D01*
X150659902Y-126249361D02*
X150564664Y-126344600D01*
X150564664Y-126344600D02*
X150469426Y-126392219D01*
X150469426Y-126392219D02*
X150278950Y-126392219D01*
X150278950Y-126392219D02*
X150183712Y-126344600D01*
X150183712Y-126344600D02*
X150088474Y-126249361D01*
X150088474Y-126249361D02*
X150040855Y-126058885D01*
X150040855Y-126058885D02*
X150040855Y-125725552D01*
X150040855Y-125725552D02*
X150088474Y-125535076D01*
X150088474Y-125535076D02*
X150183712Y-125439838D01*
X150183712Y-125439838D02*
X150278950Y-125392219D01*
X151659902Y-126392219D02*
X151088474Y-126392219D01*
X151374188Y-126392219D02*
X151374188Y-125392219D01*
X151374188Y-125392219D02*
X151278950Y-125535076D01*
X151278950Y-125535076D02*
X151183712Y-125630314D01*
X151183712Y-125630314D02*
X151088474Y-125677933D01*
X151993236Y-125392219D02*
X152612283Y-125392219D01*
X152612283Y-125392219D02*
X152278950Y-125773171D01*
X152278950Y-125773171D02*
X152421807Y-125773171D01*
X152421807Y-125773171D02*
X152517045Y-125820790D01*
X152517045Y-125820790D02*
X152564664Y-125868409D01*
X152564664Y-125868409D02*
X152612283Y-125963647D01*
X152612283Y-125963647D02*
X152612283Y-126201742D01*
X152612283Y-126201742D02*
X152564664Y-126296980D01*
X152564664Y-126296980D02*
X152517045Y-126344600D01*
X152517045Y-126344600D02*
X152421807Y-126392219D01*
X152421807Y-126392219D02*
X152136093Y-126392219D01*
X152136093Y-126392219D02*
X152040855Y-126344600D01*
X152040855Y-126344600D02*
X151993236Y-126296980D01*
X165610135Y-103786219D02*
X165610135Y-102786219D01*
X166276801Y-102786219D02*
X166467277Y-102786219D01*
X166467277Y-102786219D02*
X166562515Y-102833838D01*
X166562515Y-102833838D02*
X166657753Y-102929076D01*
X166657753Y-102929076D02*
X166705372Y-103119552D01*
X166705372Y-103119552D02*
X166705372Y-103452885D01*
X166705372Y-103452885D02*
X166657753Y-103643361D01*
X166657753Y-103643361D02*
X166562515Y-103738600D01*
X166562515Y-103738600D02*
X166467277Y-103786219D01*
X166467277Y-103786219D02*
X166276801Y-103786219D01*
X166276801Y-103786219D02*
X166181563Y-103738600D01*
X166181563Y-103738600D02*
X166086325Y-103643361D01*
X166086325Y-103643361D02*
X166038706Y-103452885D01*
X166038706Y-103452885D02*
X166038706Y-103119552D01*
X166038706Y-103119552D02*
X166086325Y-102929076D01*
X166086325Y-102929076D02*
X166181563Y-102833838D01*
X166181563Y-102833838D02*
X166276801Y-102786219D01*
X167086325Y-102881457D02*
X167133944Y-102833838D01*
X167133944Y-102833838D02*
X167229182Y-102786219D01*
X167229182Y-102786219D02*
X167467277Y-102786219D01*
X167467277Y-102786219D02*
X167562515Y-102833838D01*
X167562515Y-102833838D02*
X167610134Y-102881457D01*
X167610134Y-102881457D02*
X167657753Y-102976695D01*
X167657753Y-102976695D02*
X167657753Y-103071933D01*
X167657753Y-103071933D02*
X167610134Y-103214790D01*
X167610134Y-103214790D02*
X167038706Y-103786219D01*
X167038706Y-103786219D02*
X167657753Y-103786219D01*
X168610134Y-103786219D02*
X168038706Y-103786219D01*
X168324420Y-103786219D02*
X168324420Y-102786219D01*
X168324420Y-102786219D02*
X168229182Y-102929076D01*
X168229182Y-102929076D02*
X168133944Y-103024314D01*
X168133944Y-103024314D02*
X168038706Y-103071933D01*
X150136093Y-122899838D02*
X150040855Y-122852219D01*
X150040855Y-122852219D02*
X149897998Y-122852219D01*
X149897998Y-122852219D02*
X149755141Y-122899838D01*
X149755141Y-122899838D02*
X149659903Y-122995076D01*
X149659903Y-122995076D02*
X149612284Y-123090314D01*
X149612284Y-123090314D02*
X149564665Y-123280790D01*
X149564665Y-123280790D02*
X149564665Y-123423647D01*
X149564665Y-123423647D02*
X149612284Y-123614123D01*
X149612284Y-123614123D02*
X149659903Y-123709361D01*
X149659903Y-123709361D02*
X149755141Y-123804600D01*
X149755141Y-123804600D02*
X149897998Y-123852219D01*
X149897998Y-123852219D02*
X149993236Y-123852219D01*
X149993236Y-123852219D02*
X150136093Y-123804600D01*
X150136093Y-123804600D02*
X150183712Y-123756980D01*
X150183712Y-123756980D02*
X150183712Y-123423647D01*
X150183712Y-123423647D02*
X149993236Y-123423647D01*
X150612284Y-123852219D02*
X150612284Y-122852219D01*
X150612284Y-122852219D02*
X151183712Y-123852219D01*
X151183712Y-123852219D02*
X151183712Y-122852219D01*
X151659903Y-123852219D02*
X151659903Y-122852219D01*
X151659903Y-122852219D02*
X151897998Y-122852219D01*
X151897998Y-122852219D02*
X152040855Y-122899838D01*
X152040855Y-122899838D02*
X152136093Y-122995076D01*
X152136093Y-122995076D02*
X152183712Y-123090314D01*
X152183712Y-123090314D02*
X152231331Y-123280790D01*
X152231331Y-123280790D02*
X152231331Y-123423647D01*
X152231331Y-123423647D02*
X152183712Y-123614123D01*
X152183712Y-123614123D02*
X152136093Y-123709361D01*
X152136093Y-123709361D02*
X152040855Y-123804600D01*
X152040855Y-123804600D02*
X151897998Y-123852219D01*
X151897998Y-123852219D02*
X151659903Y-123852219D01*
X165610135Y-95912219D02*
X165610135Y-94912219D01*
X166276801Y-94912219D02*
X166467277Y-94912219D01*
X166467277Y-94912219D02*
X166562515Y-94959838D01*
X166562515Y-94959838D02*
X166657753Y-95055076D01*
X166657753Y-95055076D02*
X166705372Y-95245552D01*
X166705372Y-95245552D02*
X166705372Y-95578885D01*
X166705372Y-95578885D02*
X166657753Y-95769361D01*
X166657753Y-95769361D02*
X166562515Y-95864600D01*
X166562515Y-95864600D02*
X166467277Y-95912219D01*
X166467277Y-95912219D02*
X166276801Y-95912219D01*
X166276801Y-95912219D02*
X166181563Y-95864600D01*
X166181563Y-95864600D02*
X166086325Y-95769361D01*
X166086325Y-95769361D02*
X166038706Y-95578885D01*
X166038706Y-95578885D02*
X166038706Y-95245552D01*
X166038706Y-95245552D02*
X166086325Y-95055076D01*
X166086325Y-95055076D02*
X166181563Y-94959838D01*
X166181563Y-94959838D02*
X166276801Y-94912219D01*
X167086325Y-95007457D02*
X167133944Y-94959838D01*
X167133944Y-94959838D02*
X167229182Y-94912219D01*
X167229182Y-94912219D02*
X167467277Y-94912219D01*
X167467277Y-94912219D02*
X167562515Y-94959838D01*
X167562515Y-94959838D02*
X167610134Y-95007457D01*
X167610134Y-95007457D02*
X167657753Y-95102695D01*
X167657753Y-95102695D02*
X167657753Y-95197933D01*
X167657753Y-95197933D02*
X167610134Y-95340790D01*
X167610134Y-95340790D02*
X167038706Y-95912219D01*
X167038706Y-95912219D02*
X167657753Y-95912219D01*
X168038706Y-95007457D02*
X168086325Y-94959838D01*
X168086325Y-94959838D02*
X168181563Y-94912219D01*
X168181563Y-94912219D02*
X168419658Y-94912219D01*
X168419658Y-94912219D02*
X168514896Y-94959838D01*
X168514896Y-94959838D02*
X168562515Y-95007457D01*
X168562515Y-95007457D02*
X168610134Y-95102695D01*
X168610134Y-95102695D02*
X168610134Y-95197933D01*
X168610134Y-95197933D02*
X168562515Y-95340790D01*
X168562515Y-95340790D02*
X167991087Y-95912219D01*
X167991087Y-95912219D02*
X168610134Y-95912219D01*
X165610135Y-111152219D02*
X165610135Y-110152219D01*
X166276801Y-110152219D02*
X166467277Y-110152219D01*
X166467277Y-110152219D02*
X166562515Y-110199838D01*
X166562515Y-110199838D02*
X166657753Y-110295076D01*
X166657753Y-110295076D02*
X166705372Y-110485552D01*
X166705372Y-110485552D02*
X166705372Y-110818885D01*
X166705372Y-110818885D02*
X166657753Y-111009361D01*
X166657753Y-111009361D02*
X166562515Y-111104600D01*
X166562515Y-111104600D02*
X166467277Y-111152219D01*
X166467277Y-111152219D02*
X166276801Y-111152219D01*
X166276801Y-111152219D02*
X166181563Y-111104600D01*
X166181563Y-111104600D02*
X166086325Y-111009361D01*
X166086325Y-111009361D02*
X166038706Y-110818885D01*
X166038706Y-110818885D02*
X166038706Y-110485552D01*
X166038706Y-110485552D02*
X166086325Y-110295076D01*
X166086325Y-110295076D02*
X166181563Y-110199838D01*
X166181563Y-110199838D02*
X166276801Y-110152219D01*
X167657753Y-111152219D02*
X167086325Y-111152219D01*
X167372039Y-111152219D02*
X167372039Y-110152219D01*
X167372039Y-110152219D02*
X167276801Y-110295076D01*
X167276801Y-110295076D02*
X167181563Y-110390314D01*
X167181563Y-110390314D02*
X167086325Y-110437933D01*
X168229182Y-110580790D02*
X168133944Y-110533171D01*
X168133944Y-110533171D02*
X168086325Y-110485552D01*
X168086325Y-110485552D02*
X168038706Y-110390314D01*
X168038706Y-110390314D02*
X168038706Y-110342695D01*
X168038706Y-110342695D02*
X168086325Y-110247457D01*
X168086325Y-110247457D02*
X168133944Y-110199838D01*
X168133944Y-110199838D02*
X168229182Y-110152219D01*
X168229182Y-110152219D02*
X168419658Y-110152219D01*
X168419658Y-110152219D02*
X168514896Y-110199838D01*
X168514896Y-110199838D02*
X168562515Y-110247457D01*
X168562515Y-110247457D02*
X168610134Y-110342695D01*
X168610134Y-110342695D02*
X168610134Y-110390314D01*
X168610134Y-110390314D02*
X168562515Y-110485552D01*
X168562515Y-110485552D02*
X168514896Y-110533171D01*
X168514896Y-110533171D02*
X168419658Y-110580790D01*
X168419658Y-110580790D02*
X168229182Y-110580790D01*
X168229182Y-110580790D02*
X168133944Y-110628409D01*
X168133944Y-110628409D02*
X168086325Y-110676028D01*
X168086325Y-110676028D02*
X168038706Y-110771266D01*
X168038706Y-110771266D02*
X168038706Y-110961742D01*
X168038706Y-110961742D02*
X168086325Y-111056980D01*
X168086325Y-111056980D02*
X168133944Y-111104600D01*
X168133944Y-111104600D02*
X168229182Y-111152219D01*
X168229182Y-111152219D02*
X168419658Y-111152219D01*
X168419658Y-111152219D02*
X168514896Y-111104600D01*
X168514896Y-111104600D02*
X168562515Y-111056980D01*
X168562515Y-111056980D02*
X168610134Y-110961742D01*
X168610134Y-110961742D02*
X168610134Y-110771266D01*
X168610134Y-110771266D02*
X168562515Y-110676028D01*
X168562515Y-110676028D02*
X168514896Y-110628409D01*
X168514896Y-110628409D02*
X168419658Y-110580790D01*
X165610135Y-129186219D02*
X165610135Y-128186219D01*
X166276801Y-128186219D02*
X166467277Y-128186219D01*
X166467277Y-128186219D02*
X166562515Y-128233838D01*
X166562515Y-128233838D02*
X166657753Y-128329076D01*
X166657753Y-128329076D02*
X166705372Y-128519552D01*
X166705372Y-128519552D02*
X166705372Y-128852885D01*
X166705372Y-128852885D02*
X166657753Y-129043361D01*
X166657753Y-129043361D02*
X166562515Y-129138600D01*
X166562515Y-129138600D02*
X166467277Y-129186219D01*
X166467277Y-129186219D02*
X166276801Y-129186219D01*
X166276801Y-129186219D02*
X166181563Y-129138600D01*
X166181563Y-129138600D02*
X166086325Y-129043361D01*
X166086325Y-129043361D02*
X166038706Y-128852885D01*
X166038706Y-128852885D02*
X166038706Y-128519552D01*
X166038706Y-128519552D02*
X166086325Y-128329076D01*
X166086325Y-128329076D02*
X166181563Y-128233838D01*
X166181563Y-128233838D02*
X166276801Y-128186219D01*
X167657753Y-129186219D02*
X167086325Y-129186219D01*
X167372039Y-129186219D02*
X167372039Y-128186219D01*
X167372039Y-128186219D02*
X167276801Y-128329076D01*
X167276801Y-128329076D02*
X167181563Y-128424314D01*
X167181563Y-128424314D02*
X167086325Y-128471933D01*
X168562515Y-128186219D02*
X168086325Y-128186219D01*
X168086325Y-128186219D02*
X168038706Y-128662409D01*
X168038706Y-128662409D02*
X168086325Y-128614790D01*
X168086325Y-128614790D02*
X168181563Y-128567171D01*
X168181563Y-128567171D02*
X168419658Y-128567171D01*
X168419658Y-128567171D02*
X168514896Y-128614790D01*
X168514896Y-128614790D02*
X168562515Y-128662409D01*
X168562515Y-128662409D02*
X168610134Y-128757647D01*
X168610134Y-128757647D02*
X168610134Y-128995742D01*
X168610134Y-128995742D02*
X168562515Y-129090980D01*
X168562515Y-129090980D02*
X168514896Y-129138600D01*
X168514896Y-129138600D02*
X168419658Y-129186219D01*
X168419658Y-129186219D02*
X168181563Y-129186219D01*
X168181563Y-129186219D02*
X168086325Y-129138600D01*
X168086325Y-129138600D02*
X168038706Y-129090980D01*
X166562516Y-121566219D02*
X166562516Y-120566219D01*
X167229182Y-120566219D02*
X167419658Y-120566219D01*
X167419658Y-120566219D02*
X167514896Y-120613838D01*
X167514896Y-120613838D02*
X167610134Y-120709076D01*
X167610134Y-120709076D02*
X167657753Y-120899552D01*
X167657753Y-120899552D02*
X167657753Y-121232885D01*
X167657753Y-121232885D02*
X167610134Y-121423361D01*
X167610134Y-121423361D02*
X167514896Y-121518600D01*
X167514896Y-121518600D02*
X167419658Y-121566219D01*
X167419658Y-121566219D02*
X167229182Y-121566219D01*
X167229182Y-121566219D02*
X167133944Y-121518600D01*
X167133944Y-121518600D02*
X167038706Y-121423361D01*
X167038706Y-121423361D02*
X166991087Y-121232885D01*
X166991087Y-121232885D02*
X166991087Y-120899552D01*
X166991087Y-120899552D02*
X167038706Y-120709076D01*
X167038706Y-120709076D02*
X167133944Y-120613838D01*
X167133944Y-120613838D02*
X167229182Y-120566219D01*
X168514896Y-120899552D02*
X168514896Y-121566219D01*
X168276801Y-120518600D02*
X168038706Y-121232885D01*
X168038706Y-121232885D02*
X168657753Y-121232885D01*
X166562516Y-131726219D02*
X166562516Y-130726219D01*
X167229182Y-130726219D02*
X167419658Y-130726219D01*
X167419658Y-130726219D02*
X167514896Y-130773838D01*
X167514896Y-130773838D02*
X167610134Y-130869076D01*
X167610134Y-130869076D02*
X167657753Y-131059552D01*
X167657753Y-131059552D02*
X167657753Y-131392885D01*
X167657753Y-131392885D02*
X167610134Y-131583361D01*
X167610134Y-131583361D02*
X167514896Y-131678600D01*
X167514896Y-131678600D02*
X167419658Y-131726219D01*
X167419658Y-131726219D02*
X167229182Y-131726219D01*
X167229182Y-131726219D02*
X167133944Y-131678600D01*
X167133944Y-131678600D02*
X167038706Y-131583361D01*
X167038706Y-131583361D02*
X166991087Y-131392885D01*
X166991087Y-131392885D02*
X166991087Y-131059552D01*
X166991087Y-131059552D02*
X167038706Y-130869076D01*
X167038706Y-130869076D02*
X167133944Y-130773838D01*
X167133944Y-130773838D02*
X167229182Y-130726219D01*
X168229182Y-131154790D02*
X168133944Y-131107171D01*
X168133944Y-131107171D02*
X168086325Y-131059552D01*
X168086325Y-131059552D02*
X168038706Y-130964314D01*
X168038706Y-130964314D02*
X168038706Y-130916695D01*
X168038706Y-130916695D02*
X168086325Y-130821457D01*
X168086325Y-130821457D02*
X168133944Y-130773838D01*
X168133944Y-130773838D02*
X168229182Y-130726219D01*
X168229182Y-130726219D02*
X168419658Y-130726219D01*
X168419658Y-130726219D02*
X168514896Y-130773838D01*
X168514896Y-130773838D02*
X168562515Y-130821457D01*
X168562515Y-130821457D02*
X168610134Y-130916695D01*
X168610134Y-130916695D02*
X168610134Y-130964314D01*
X168610134Y-130964314D02*
X168562515Y-131059552D01*
X168562515Y-131059552D02*
X168514896Y-131107171D01*
X168514896Y-131107171D02*
X168419658Y-131154790D01*
X168419658Y-131154790D02*
X168229182Y-131154790D01*
X168229182Y-131154790D02*
X168133944Y-131202409D01*
X168133944Y-131202409D02*
X168086325Y-131250028D01*
X168086325Y-131250028D02*
X168038706Y-131345266D01*
X168038706Y-131345266D02*
X168038706Y-131535742D01*
X168038706Y-131535742D02*
X168086325Y-131630980D01*
X168086325Y-131630980D02*
X168133944Y-131678600D01*
X168133944Y-131678600D02*
X168229182Y-131726219D01*
X168229182Y-131726219D02*
X168419658Y-131726219D01*
X168419658Y-131726219D02*
X168514896Y-131678600D01*
X168514896Y-131678600D02*
X168562515Y-131630980D01*
X168562515Y-131630980D02*
X168610134Y-131535742D01*
X168610134Y-131535742D02*
X168610134Y-131345266D01*
X168610134Y-131345266D02*
X168562515Y-131250028D01*
X168562515Y-131250028D02*
X168514896Y-131202409D01*
X168514896Y-131202409D02*
X168419658Y-131154790D01*
X166562516Y-126392219D02*
X166562516Y-125392219D01*
X167229182Y-125392219D02*
X167419658Y-125392219D01*
X167419658Y-125392219D02*
X167514896Y-125439838D01*
X167514896Y-125439838D02*
X167610134Y-125535076D01*
X167610134Y-125535076D02*
X167657753Y-125725552D01*
X167657753Y-125725552D02*
X167657753Y-126058885D01*
X167657753Y-126058885D02*
X167610134Y-126249361D01*
X167610134Y-126249361D02*
X167514896Y-126344600D01*
X167514896Y-126344600D02*
X167419658Y-126392219D01*
X167419658Y-126392219D02*
X167229182Y-126392219D01*
X167229182Y-126392219D02*
X167133944Y-126344600D01*
X167133944Y-126344600D02*
X167038706Y-126249361D01*
X167038706Y-126249361D02*
X166991087Y-126058885D01*
X166991087Y-126058885D02*
X166991087Y-125725552D01*
X166991087Y-125725552D02*
X167038706Y-125535076D01*
X167038706Y-125535076D02*
X167133944Y-125439838D01*
X167133944Y-125439838D02*
X167229182Y-125392219D01*
X168038706Y-125487457D02*
X168086325Y-125439838D01*
X168086325Y-125439838D02*
X168181563Y-125392219D01*
X168181563Y-125392219D02*
X168419658Y-125392219D01*
X168419658Y-125392219D02*
X168514896Y-125439838D01*
X168514896Y-125439838D02*
X168562515Y-125487457D01*
X168562515Y-125487457D02*
X168610134Y-125582695D01*
X168610134Y-125582695D02*
X168610134Y-125677933D01*
X168610134Y-125677933D02*
X168562515Y-125820790D01*
X168562515Y-125820790D02*
X167991087Y-126392219D01*
X167991087Y-126392219D02*
X168610134Y-126392219D01*
X149612284Y-95934219D02*
X149612284Y-94934219D01*
X150278950Y-94934219D02*
X150469426Y-94934219D01*
X150469426Y-94934219D02*
X150564664Y-94981838D01*
X150564664Y-94981838D02*
X150659902Y-95077076D01*
X150659902Y-95077076D02*
X150707521Y-95267552D01*
X150707521Y-95267552D02*
X150707521Y-95600885D01*
X150707521Y-95600885D02*
X150659902Y-95791361D01*
X150659902Y-95791361D02*
X150564664Y-95886600D01*
X150564664Y-95886600D02*
X150469426Y-95934219D01*
X150469426Y-95934219D02*
X150278950Y-95934219D01*
X150278950Y-95934219D02*
X150183712Y-95886600D01*
X150183712Y-95886600D02*
X150088474Y-95791361D01*
X150088474Y-95791361D02*
X150040855Y-95600885D01*
X150040855Y-95600885D02*
X150040855Y-95267552D01*
X150040855Y-95267552D02*
X150088474Y-95077076D01*
X150088474Y-95077076D02*
X150183712Y-94981838D01*
X150183712Y-94981838D02*
X150278950Y-94934219D01*
X151040855Y-94934219D02*
X151659902Y-94934219D01*
X151659902Y-94934219D02*
X151326569Y-95315171D01*
X151326569Y-95315171D02*
X151469426Y-95315171D01*
X151469426Y-95315171D02*
X151564664Y-95362790D01*
X151564664Y-95362790D02*
X151612283Y-95410409D01*
X151612283Y-95410409D02*
X151659902Y-95505647D01*
X151659902Y-95505647D02*
X151659902Y-95743742D01*
X151659902Y-95743742D02*
X151612283Y-95838980D01*
X151612283Y-95838980D02*
X151564664Y-95886600D01*
X151564664Y-95886600D02*
X151469426Y-95934219D01*
X151469426Y-95934219D02*
X151183712Y-95934219D01*
X151183712Y-95934219D02*
X151088474Y-95886600D01*
X151088474Y-95886600D02*
X151040855Y-95838980D01*
X152517045Y-94934219D02*
X152326569Y-94934219D01*
X152326569Y-94934219D02*
X152231331Y-94981838D01*
X152231331Y-94981838D02*
X152183712Y-95029457D01*
X152183712Y-95029457D02*
X152088474Y-95172314D01*
X152088474Y-95172314D02*
X152040855Y-95362790D01*
X152040855Y-95362790D02*
X152040855Y-95743742D01*
X152040855Y-95743742D02*
X152088474Y-95838980D01*
X152088474Y-95838980D02*
X152136093Y-95886600D01*
X152136093Y-95886600D02*
X152231331Y-95934219D01*
X152231331Y-95934219D02*
X152421807Y-95934219D01*
X152421807Y-95934219D02*
X152517045Y-95886600D01*
X152517045Y-95886600D02*
X152564664Y-95838980D01*
X152564664Y-95838980D02*
X152612283Y-95743742D01*
X152612283Y-95743742D02*
X152612283Y-95505647D01*
X152612283Y-95505647D02*
X152564664Y-95410409D01*
X152564664Y-95410409D02*
X152517045Y-95362790D01*
X152517045Y-95362790D02*
X152421807Y-95315171D01*
X152421807Y-95315171D02*
X152231331Y-95315171D01*
X152231331Y-95315171D02*
X152136093Y-95362790D01*
X152136093Y-95362790D02*
X152088474Y-95410409D01*
X152088474Y-95410409D02*
X152040855Y-95505647D01*
X149612284Y-131472219D02*
X149612284Y-130472219D01*
X150278950Y-130472219D02*
X150469426Y-130472219D01*
X150469426Y-130472219D02*
X150564664Y-130519838D01*
X150564664Y-130519838D02*
X150659902Y-130615076D01*
X150659902Y-130615076D02*
X150707521Y-130805552D01*
X150707521Y-130805552D02*
X150707521Y-131138885D01*
X150707521Y-131138885D02*
X150659902Y-131329361D01*
X150659902Y-131329361D02*
X150564664Y-131424600D01*
X150564664Y-131424600D02*
X150469426Y-131472219D01*
X150469426Y-131472219D02*
X150278950Y-131472219D01*
X150278950Y-131472219D02*
X150183712Y-131424600D01*
X150183712Y-131424600D02*
X150088474Y-131329361D01*
X150088474Y-131329361D02*
X150040855Y-131138885D01*
X150040855Y-131138885D02*
X150040855Y-130805552D01*
X150040855Y-130805552D02*
X150088474Y-130615076D01*
X150088474Y-130615076D02*
X150183712Y-130519838D01*
X150183712Y-130519838D02*
X150278950Y-130472219D01*
X151659902Y-131472219D02*
X151088474Y-131472219D01*
X151374188Y-131472219D02*
X151374188Y-130472219D01*
X151374188Y-130472219D02*
X151278950Y-130615076D01*
X151278950Y-130615076D02*
X151183712Y-130710314D01*
X151183712Y-130710314D02*
X151088474Y-130757933D01*
X152278950Y-130472219D02*
X152374188Y-130472219D01*
X152374188Y-130472219D02*
X152469426Y-130519838D01*
X152469426Y-130519838D02*
X152517045Y-130567457D01*
X152517045Y-130567457D02*
X152564664Y-130662695D01*
X152564664Y-130662695D02*
X152612283Y-130853171D01*
X152612283Y-130853171D02*
X152612283Y-131091266D01*
X152612283Y-131091266D02*
X152564664Y-131281742D01*
X152564664Y-131281742D02*
X152517045Y-131376980D01*
X152517045Y-131376980D02*
X152469426Y-131424600D01*
X152469426Y-131424600D02*
X152374188Y-131472219D01*
X152374188Y-131472219D02*
X152278950Y-131472219D01*
X152278950Y-131472219D02*
X152183712Y-131424600D01*
X152183712Y-131424600D02*
X152136093Y-131376980D01*
X152136093Y-131376980D02*
X152088474Y-131281742D01*
X152088474Y-131281742D02*
X152040855Y-131091266D01*
X152040855Y-131091266D02*
X152040855Y-130853171D01*
X152040855Y-130853171D02*
X152088474Y-130662695D01*
X152088474Y-130662695D02*
X152136093Y-130567457D01*
X152136093Y-130567457D02*
X152183712Y-130519838D01*
X152183712Y-130519838D02*
X152278950Y-130472219D01*
X149612284Y-121312219D02*
X149612284Y-120312219D01*
X150278950Y-120312219D02*
X150469426Y-120312219D01*
X150469426Y-120312219D02*
X150564664Y-120359838D01*
X150564664Y-120359838D02*
X150659902Y-120455076D01*
X150659902Y-120455076D02*
X150707521Y-120645552D01*
X150707521Y-120645552D02*
X150707521Y-120978885D01*
X150707521Y-120978885D02*
X150659902Y-121169361D01*
X150659902Y-121169361D02*
X150564664Y-121264600D01*
X150564664Y-121264600D02*
X150469426Y-121312219D01*
X150469426Y-121312219D02*
X150278950Y-121312219D01*
X150278950Y-121312219D02*
X150183712Y-121264600D01*
X150183712Y-121264600D02*
X150088474Y-121169361D01*
X150088474Y-121169361D02*
X150040855Y-120978885D01*
X150040855Y-120978885D02*
X150040855Y-120645552D01*
X150040855Y-120645552D02*
X150088474Y-120455076D01*
X150088474Y-120455076D02*
X150183712Y-120359838D01*
X150183712Y-120359838D02*
X150278950Y-120312219D01*
X151659902Y-121312219D02*
X151088474Y-121312219D01*
X151374188Y-121312219D02*
X151374188Y-120312219D01*
X151374188Y-120312219D02*
X151278950Y-120455076D01*
X151278950Y-120455076D02*
X151183712Y-120550314D01*
X151183712Y-120550314D02*
X151088474Y-120597933D01*
X152040855Y-120407457D02*
X152088474Y-120359838D01*
X152088474Y-120359838D02*
X152183712Y-120312219D01*
X152183712Y-120312219D02*
X152421807Y-120312219D01*
X152421807Y-120312219D02*
X152517045Y-120359838D01*
X152517045Y-120359838D02*
X152564664Y-120407457D01*
X152564664Y-120407457D02*
X152612283Y-120502695D01*
X152612283Y-120502695D02*
X152612283Y-120597933D01*
X152612283Y-120597933D02*
X152564664Y-120740790D01*
X152564664Y-120740790D02*
X151993236Y-121312219D01*
X151993236Y-121312219D02*
X152612283Y-121312219D01*
X149612284Y-92910409D02*
X149945617Y-92910409D01*
X150088474Y-93434219D02*
X149612284Y-93434219D01*
X149612284Y-93434219D02*
X149612284Y-92434219D01*
X149612284Y-92434219D02*
X150088474Y-92434219D01*
X150517046Y-93434219D02*
X150517046Y-92434219D01*
X150517046Y-92434219D02*
X151088474Y-93434219D01*
X151088474Y-93434219D02*
X151088474Y-92434219D01*
X149517046Y-89934219D02*
X150136093Y-89934219D01*
X150136093Y-89934219D02*
X149802760Y-90315171D01*
X149802760Y-90315171D02*
X149945617Y-90315171D01*
X149945617Y-90315171D02*
X150040855Y-90362790D01*
X150040855Y-90362790D02*
X150088474Y-90410409D01*
X150088474Y-90410409D02*
X150136093Y-90505647D01*
X150136093Y-90505647D02*
X150136093Y-90743742D01*
X150136093Y-90743742D02*
X150088474Y-90838980D01*
X150088474Y-90838980D02*
X150040855Y-90886600D01*
X150040855Y-90886600D02*
X149945617Y-90934219D01*
X149945617Y-90934219D02*
X149659903Y-90934219D01*
X149659903Y-90934219D02*
X149564665Y-90886600D01*
X149564665Y-90886600D02*
X149517046Y-90838980D01*
X150564665Y-90838980D02*
X150612284Y-90886600D01*
X150612284Y-90886600D02*
X150564665Y-90934219D01*
X150564665Y-90934219D02*
X150517046Y-90886600D01*
X150517046Y-90886600D02*
X150564665Y-90838980D01*
X150564665Y-90838980D02*
X150564665Y-90934219D01*
X150945617Y-89934219D02*
X151564664Y-89934219D01*
X151564664Y-89934219D02*
X151231331Y-90315171D01*
X151231331Y-90315171D02*
X151374188Y-90315171D01*
X151374188Y-90315171D02*
X151469426Y-90362790D01*
X151469426Y-90362790D02*
X151517045Y-90410409D01*
X151517045Y-90410409D02*
X151564664Y-90505647D01*
X151564664Y-90505647D02*
X151564664Y-90743742D01*
X151564664Y-90743742D02*
X151517045Y-90838980D01*
X151517045Y-90838980D02*
X151469426Y-90886600D01*
X151469426Y-90886600D02*
X151374188Y-90934219D01*
X151374188Y-90934219D02*
X151088474Y-90934219D01*
X151088474Y-90934219D02*
X150993236Y-90886600D01*
X150993236Y-90886600D02*
X150945617Y-90838980D01*
X151850379Y-89934219D02*
X152183712Y-90934219D01*
X152183712Y-90934219D02*
X152517045Y-89934219D01*
X166562516Y-134266219D02*
X166562516Y-133266219D01*
X167229182Y-133266219D02*
X167419658Y-133266219D01*
X167419658Y-133266219D02*
X167514896Y-133313838D01*
X167514896Y-133313838D02*
X167610134Y-133409076D01*
X167610134Y-133409076D02*
X167657753Y-133599552D01*
X167657753Y-133599552D02*
X167657753Y-133932885D01*
X167657753Y-133932885D02*
X167610134Y-134123361D01*
X167610134Y-134123361D02*
X167514896Y-134218600D01*
X167514896Y-134218600D02*
X167419658Y-134266219D01*
X167419658Y-134266219D02*
X167229182Y-134266219D01*
X167229182Y-134266219D02*
X167133944Y-134218600D01*
X167133944Y-134218600D02*
X167038706Y-134123361D01*
X167038706Y-134123361D02*
X166991087Y-133932885D01*
X166991087Y-133932885D02*
X166991087Y-133599552D01*
X166991087Y-133599552D02*
X167038706Y-133409076D01*
X167038706Y-133409076D02*
X167133944Y-133313838D01*
X167133944Y-133313838D02*
X167229182Y-133266219D01*
X167991087Y-133266219D02*
X168657753Y-133266219D01*
X168657753Y-133266219D02*
X168229182Y-134266219D01*
X149612284Y-106072219D02*
X149612284Y-105072219D01*
X150278950Y-105072219D02*
X150469426Y-105072219D01*
X150469426Y-105072219D02*
X150564664Y-105119838D01*
X150564664Y-105119838D02*
X150659902Y-105215076D01*
X150659902Y-105215076D02*
X150707521Y-105405552D01*
X150707521Y-105405552D02*
X150707521Y-105738885D01*
X150707521Y-105738885D02*
X150659902Y-105929361D01*
X150659902Y-105929361D02*
X150564664Y-106024600D01*
X150564664Y-106024600D02*
X150469426Y-106072219D01*
X150469426Y-106072219D02*
X150278950Y-106072219D01*
X150278950Y-106072219D02*
X150183712Y-106024600D01*
X150183712Y-106024600D02*
X150088474Y-105929361D01*
X150088474Y-105929361D02*
X150040855Y-105738885D01*
X150040855Y-105738885D02*
X150040855Y-105405552D01*
X150040855Y-105405552D02*
X150088474Y-105215076D01*
X150088474Y-105215076D02*
X150183712Y-105119838D01*
X150183712Y-105119838D02*
X150278950Y-105072219D01*
X151040855Y-105072219D02*
X151659902Y-105072219D01*
X151659902Y-105072219D02*
X151326569Y-105453171D01*
X151326569Y-105453171D02*
X151469426Y-105453171D01*
X151469426Y-105453171D02*
X151564664Y-105500790D01*
X151564664Y-105500790D02*
X151612283Y-105548409D01*
X151612283Y-105548409D02*
X151659902Y-105643647D01*
X151659902Y-105643647D02*
X151659902Y-105881742D01*
X151659902Y-105881742D02*
X151612283Y-105976980D01*
X151612283Y-105976980D02*
X151564664Y-106024600D01*
X151564664Y-106024600D02*
X151469426Y-106072219D01*
X151469426Y-106072219D02*
X151183712Y-106072219D01*
X151183712Y-106072219D02*
X151088474Y-106024600D01*
X151088474Y-106024600D02*
X151040855Y-105976980D01*
X152040855Y-105167457D02*
X152088474Y-105119838D01*
X152088474Y-105119838D02*
X152183712Y-105072219D01*
X152183712Y-105072219D02*
X152421807Y-105072219D01*
X152421807Y-105072219D02*
X152517045Y-105119838D01*
X152517045Y-105119838D02*
X152564664Y-105167457D01*
X152564664Y-105167457D02*
X152612283Y-105262695D01*
X152612283Y-105262695D02*
X152612283Y-105357933D01*
X152612283Y-105357933D02*
X152564664Y-105500790D01*
X152564664Y-105500790D02*
X151993236Y-106072219D01*
X151993236Y-106072219D02*
X152612283Y-106072219D01*
X165610135Y-119026219D02*
X165610135Y-118026219D01*
X166276801Y-118026219D02*
X166467277Y-118026219D01*
X166467277Y-118026219D02*
X166562515Y-118073838D01*
X166562515Y-118073838D02*
X166657753Y-118169076D01*
X166657753Y-118169076D02*
X166705372Y-118359552D01*
X166705372Y-118359552D02*
X166705372Y-118692885D01*
X166705372Y-118692885D02*
X166657753Y-118883361D01*
X166657753Y-118883361D02*
X166562515Y-118978600D01*
X166562515Y-118978600D02*
X166467277Y-119026219D01*
X166467277Y-119026219D02*
X166276801Y-119026219D01*
X166276801Y-119026219D02*
X166181563Y-118978600D01*
X166181563Y-118978600D02*
X166086325Y-118883361D01*
X166086325Y-118883361D02*
X166038706Y-118692885D01*
X166038706Y-118692885D02*
X166038706Y-118359552D01*
X166038706Y-118359552D02*
X166086325Y-118169076D01*
X166086325Y-118169076D02*
X166181563Y-118073838D01*
X166181563Y-118073838D02*
X166276801Y-118026219D01*
X167657753Y-119026219D02*
X167086325Y-119026219D01*
X167372039Y-119026219D02*
X167372039Y-118026219D01*
X167372039Y-118026219D02*
X167276801Y-118169076D01*
X167276801Y-118169076D02*
X167181563Y-118264314D01*
X167181563Y-118264314D02*
X167086325Y-118311933D01*
X168514896Y-118026219D02*
X168324420Y-118026219D01*
X168324420Y-118026219D02*
X168229182Y-118073838D01*
X168229182Y-118073838D02*
X168181563Y-118121457D01*
X168181563Y-118121457D02*
X168086325Y-118264314D01*
X168086325Y-118264314D02*
X168038706Y-118454790D01*
X168038706Y-118454790D02*
X168038706Y-118835742D01*
X168038706Y-118835742D02*
X168086325Y-118930980D01*
X168086325Y-118930980D02*
X168133944Y-118978600D01*
X168133944Y-118978600D02*
X168229182Y-119026219D01*
X168229182Y-119026219D02*
X168419658Y-119026219D01*
X168419658Y-119026219D02*
X168514896Y-118978600D01*
X168514896Y-118978600D02*
X168562515Y-118930980D01*
X168562515Y-118930980D02*
X168610134Y-118835742D01*
X168610134Y-118835742D02*
X168610134Y-118597647D01*
X168610134Y-118597647D02*
X168562515Y-118502409D01*
X168562515Y-118502409D02*
X168514896Y-118454790D01*
X168514896Y-118454790D02*
X168419658Y-118407171D01*
X168419658Y-118407171D02*
X168229182Y-118407171D01*
X168229182Y-118407171D02*
X168133944Y-118454790D01*
X168133944Y-118454790D02*
X168086325Y-118502409D01*
X168086325Y-118502409D02*
X168038706Y-118597647D01*
X149612284Y-118772219D02*
X149612284Y-117772219D01*
X150278950Y-117772219D02*
X150469426Y-117772219D01*
X150469426Y-117772219D02*
X150564664Y-117819838D01*
X150564664Y-117819838D02*
X150659902Y-117915076D01*
X150659902Y-117915076D02*
X150707521Y-118105552D01*
X150707521Y-118105552D02*
X150707521Y-118438885D01*
X150707521Y-118438885D02*
X150659902Y-118629361D01*
X150659902Y-118629361D02*
X150564664Y-118724600D01*
X150564664Y-118724600D02*
X150469426Y-118772219D01*
X150469426Y-118772219D02*
X150278950Y-118772219D01*
X150278950Y-118772219D02*
X150183712Y-118724600D01*
X150183712Y-118724600D02*
X150088474Y-118629361D01*
X150088474Y-118629361D02*
X150040855Y-118438885D01*
X150040855Y-118438885D02*
X150040855Y-118105552D01*
X150040855Y-118105552D02*
X150088474Y-117915076D01*
X150088474Y-117915076D02*
X150183712Y-117819838D01*
X150183712Y-117819838D02*
X150278950Y-117772219D01*
X151659902Y-118772219D02*
X151088474Y-118772219D01*
X151374188Y-118772219D02*
X151374188Y-117772219D01*
X151374188Y-117772219D02*
X151278950Y-117915076D01*
X151278950Y-117915076D02*
X151183712Y-118010314D01*
X151183712Y-118010314D02*
X151088474Y-118057933D01*
X152517045Y-118105552D02*
X152517045Y-118772219D01*
X152278950Y-117724600D02*
X152040855Y-118438885D01*
X152040855Y-118438885D02*
X152659902Y-118438885D01*
X150088474Y-135552219D02*
X149612284Y-135552219D01*
X149612284Y-135552219D02*
X149564665Y-136028409D01*
X149564665Y-136028409D02*
X149612284Y-135980790D01*
X149612284Y-135980790D02*
X149707522Y-135933171D01*
X149707522Y-135933171D02*
X149945617Y-135933171D01*
X149945617Y-135933171D02*
X150040855Y-135980790D01*
X150040855Y-135980790D02*
X150088474Y-136028409D01*
X150088474Y-136028409D02*
X150136093Y-136123647D01*
X150136093Y-136123647D02*
X150136093Y-136361742D01*
X150136093Y-136361742D02*
X150088474Y-136456980D01*
X150088474Y-136456980D02*
X150040855Y-136504600D01*
X150040855Y-136504600D02*
X149945617Y-136552219D01*
X149945617Y-136552219D02*
X149707522Y-136552219D01*
X149707522Y-136552219D02*
X149612284Y-136504600D01*
X149612284Y-136504600D02*
X149564665Y-136456980D01*
X150421808Y-135552219D02*
X150755141Y-136552219D01*
X150755141Y-136552219D02*
X151088474Y-135552219D01*
X149612284Y-111184219D02*
X149612284Y-110184219D01*
X150278950Y-110184219D02*
X150469426Y-110184219D01*
X150469426Y-110184219D02*
X150564664Y-110231838D01*
X150564664Y-110231838D02*
X150659902Y-110327076D01*
X150659902Y-110327076D02*
X150707521Y-110517552D01*
X150707521Y-110517552D02*
X150707521Y-110850885D01*
X150707521Y-110850885D02*
X150659902Y-111041361D01*
X150659902Y-111041361D02*
X150564664Y-111136600D01*
X150564664Y-111136600D02*
X150469426Y-111184219D01*
X150469426Y-111184219D02*
X150278950Y-111184219D01*
X150278950Y-111184219D02*
X150183712Y-111136600D01*
X150183712Y-111136600D02*
X150088474Y-111041361D01*
X150088474Y-111041361D02*
X150040855Y-110850885D01*
X150040855Y-110850885D02*
X150040855Y-110517552D01*
X150040855Y-110517552D02*
X150088474Y-110327076D01*
X150088474Y-110327076D02*
X150183712Y-110231838D01*
X150183712Y-110231838D02*
X150278950Y-110184219D01*
X151088474Y-110279457D02*
X151136093Y-110231838D01*
X151136093Y-110231838D02*
X151231331Y-110184219D01*
X151231331Y-110184219D02*
X151469426Y-110184219D01*
X151469426Y-110184219D02*
X151564664Y-110231838D01*
X151564664Y-110231838D02*
X151612283Y-110279457D01*
X151612283Y-110279457D02*
X151659902Y-110374695D01*
X151659902Y-110374695D02*
X151659902Y-110469933D01*
X151659902Y-110469933D02*
X151612283Y-110612790D01*
X151612283Y-110612790D02*
X151040855Y-111184219D01*
X151040855Y-111184219D02*
X151659902Y-111184219D01*
X152564664Y-110184219D02*
X152088474Y-110184219D01*
X152088474Y-110184219D02*
X152040855Y-110660409D01*
X152040855Y-110660409D02*
X152088474Y-110612790D01*
X152088474Y-110612790D02*
X152183712Y-110565171D01*
X152183712Y-110565171D02*
X152421807Y-110565171D01*
X152421807Y-110565171D02*
X152517045Y-110612790D01*
X152517045Y-110612790D02*
X152564664Y-110660409D01*
X152564664Y-110660409D02*
X152612283Y-110755647D01*
X152612283Y-110755647D02*
X152612283Y-110993742D01*
X152612283Y-110993742D02*
X152564664Y-111088980D01*
X152564664Y-111088980D02*
X152517045Y-111136600D01*
X152517045Y-111136600D02*
X152421807Y-111184219D01*
X152421807Y-111184219D02*
X152183712Y-111184219D01*
X152183712Y-111184219D02*
X152088474Y-111136600D01*
X152088474Y-111136600D02*
X152040855Y-111088980D01*
X166514896Y-90133838D02*
X166419658Y-90086219D01*
X166419658Y-90086219D02*
X166276801Y-90086219D01*
X166276801Y-90086219D02*
X166133944Y-90133838D01*
X166133944Y-90133838D02*
X166038706Y-90229076D01*
X166038706Y-90229076D02*
X165991087Y-90324314D01*
X165991087Y-90324314D02*
X165943468Y-90514790D01*
X165943468Y-90514790D02*
X165943468Y-90657647D01*
X165943468Y-90657647D02*
X165991087Y-90848123D01*
X165991087Y-90848123D02*
X166038706Y-90943361D01*
X166038706Y-90943361D02*
X166133944Y-91038600D01*
X166133944Y-91038600D02*
X166276801Y-91086219D01*
X166276801Y-91086219D02*
X166372039Y-91086219D01*
X166372039Y-91086219D02*
X166514896Y-91038600D01*
X166514896Y-91038600D02*
X166562515Y-90990980D01*
X166562515Y-90990980D02*
X166562515Y-90657647D01*
X166562515Y-90657647D02*
X166372039Y-90657647D01*
X166991087Y-91086219D02*
X166991087Y-90086219D01*
X166991087Y-90086219D02*
X167562515Y-91086219D01*
X167562515Y-91086219D02*
X167562515Y-90086219D01*
X168038706Y-91086219D02*
X168038706Y-90086219D01*
X168038706Y-90086219D02*
X168276801Y-90086219D01*
X168276801Y-90086219D02*
X168419658Y-90133838D01*
X168419658Y-90133838D02*
X168514896Y-90229076D01*
X168514896Y-90229076D02*
X168562515Y-90324314D01*
X168562515Y-90324314D02*
X168610134Y-90514790D01*
X168610134Y-90514790D02*
X168610134Y-90657647D01*
X168610134Y-90657647D02*
X168562515Y-90848123D01*
X168562515Y-90848123D02*
X168514896Y-90943361D01*
X168514896Y-90943361D02*
X168419658Y-91038600D01*
X168419658Y-91038600D02*
X168276801Y-91086219D01*
X168276801Y-91086219D02*
X168038706Y-91086219D01*
X149612284Y-134012219D02*
X149612284Y-133012219D01*
X150278950Y-133012219D02*
X150469426Y-133012219D01*
X150469426Y-133012219D02*
X150564664Y-133059838D01*
X150564664Y-133059838D02*
X150659902Y-133155076D01*
X150659902Y-133155076D02*
X150707521Y-133345552D01*
X150707521Y-133345552D02*
X150707521Y-133678885D01*
X150707521Y-133678885D02*
X150659902Y-133869361D01*
X150659902Y-133869361D02*
X150564664Y-133964600D01*
X150564664Y-133964600D02*
X150469426Y-134012219D01*
X150469426Y-134012219D02*
X150278950Y-134012219D01*
X150278950Y-134012219D02*
X150183712Y-133964600D01*
X150183712Y-133964600D02*
X150088474Y-133869361D01*
X150088474Y-133869361D02*
X150040855Y-133678885D01*
X150040855Y-133678885D02*
X150040855Y-133345552D01*
X150040855Y-133345552D02*
X150088474Y-133155076D01*
X150088474Y-133155076D02*
X150183712Y-133059838D01*
X150183712Y-133059838D02*
X150278950Y-133012219D01*
X151659902Y-134012219D02*
X151088474Y-134012219D01*
X151374188Y-134012219D02*
X151374188Y-133012219D01*
X151374188Y-133012219D02*
X151278950Y-133155076D01*
X151278950Y-133155076D02*
X151183712Y-133250314D01*
X151183712Y-133250314D02*
X151088474Y-133297933D01*
X152612283Y-134012219D02*
X152040855Y-134012219D01*
X152326569Y-134012219D02*
X152326569Y-133012219D01*
X152326569Y-133012219D02*
X152231331Y-133155076D01*
X152231331Y-133155076D02*
X152136093Y-133250314D01*
X152136093Y-133250314D02*
X152040855Y-133297933D01*
X149612284Y-113692219D02*
X149612284Y-112692219D01*
X150278950Y-112692219D02*
X150469426Y-112692219D01*
X150469426Y-112692219D02*
X150564664Y-112739838D01*
X150564664Y-112739838D02*
X150659902Y-112835076D01*
X150659902Y-112835076D02*
X150707521Y-113025552D01*
X150707521Y-113025552D02*
X150707521Y-113358885D01*
X150707521Y-113358885D02*
X150659902Y-113549361D01*
X150659902Y-113549361D02*
X150564664Y-113644600D01*
X150564664Y-113644600D02*
X150469426Y-113692219D01*
X150469426Y-113692219D02*
X150278950Y-113692219D01*
X150278950Y-113692219D02*
X150183712Y-113644600D01*
X150183712Y-113644600D02*
X150088474Y-113549361D01*
X150088474Y-113549361D02*
X150040855Y-113358885D01*
X150040855Y-113358885D02*
X150040855Y-113025552D01*
X150040855Y-113025552D02*
X150088474Y-112835076D01*
X150088474Y-112835076D02*
X150183712Y-112739838D01*
X150183712Y-112739838D02*
X150278950Y-112692219D01*
X151088474Y-112787457D02*
X151136093Y-112739838D01*
X151136093Y-112739838D02*
X151231331Y-112692219D01*
X151231331Y-112692219D02*
X151469426Y-112692219D01*
X151469426Y-112692219D02*
X151564664Y-112739838D01*
X151564664Y-112739838D02*
X151612283Y-112787457D01*
X151612283Y-112787457D02*
X151659902Y-112882695D01*
X151659902Y-112882695D02*
X151659902Y-112977933D01*
X151659902Y-112977933D02*
X151612283Y-113120790D01*
X151612283Y-113120790D02*
X151040855Y-113692219D01*
X151040855Y-113692219D02*
X151659902Y-113692219D01*
X152517045Y-112692219D02*
X152326569Y-112692219D01*
X152326569Y-112692219D02*
X152231331Y-112739838D01*
X152231331Y-112739838D02*
X152183712Y-112787457D01*
X152183712Y-112787457D02*
X152088474Y-112930314D01*
X152088474Y-112930314D02*
X152040855Y-113120790D01*
X152040855Y-113120790D02*
X152040855Y-113501742D01*
X152040855Y-113501742D02*
X152088474Y-113596980D01*
X152088474Y-113596980D02*
X152136093Y-113644600D01*
X152136093Y-113644600D02*
X152231331Y-113692219D01*
X152231331Y-113692219D02*
X152421807Y-113692219D01*
X152421807Y-113692219D02*
X152517045Y-113644600D01*
X152517045Y-113644600D02*
X152564664Y-113596980D01*
X152564664Y-113596980D02*
X152612283Y-113501742D01*
X152612283Y-113501742D02*
X152612283Y-113263647D01*
X152612283Y-113263647D02*
X152564664Y-113168409D01*
X152564664Y-113168409D02*
X152517045Y-113120790D01*
X152517045Y-113120790D02*
X152421807Y-113073171D01*
X152421807Y-113073171D02*
X152231331Y-113073171D01*
X152231331Y-113073171D02*
X152136093Y-113120790D01*
X152136093Y-113120790D02*
X152088474Y-113168409D01*
X152088474Y-113168409D02*
X152040855Y-113263647D01*
X166562516Y-136806219D02*
X166562516Y-135806219D01*
X167229182Y-135806219D02*
X167419658Y-135806219D01*
X167419658Y-135806219D02*
X167514896Y-135853838D01*
X167514896Y-135853838D02*
X167610134Y-135949076D01*
X167610134Y-135949076D02*
X167657753Y-136139552D01*
X167657753Y-136139552D02*
X167657753Y-136472885D01*
X167657753Y-136472885D02*
X167610134Y-136663361D01*
X167610134Y-136663361D02*
X167514896Y-136758600D01*
X167514896Y-136758600D02*
X167419658Y-136806219D01*
X167419658Y-136806219D02*
X167229182Y-136806219D01*
X167229182Y-136806219D02*
X167133944Y-136758600D01*
X167133944Y-136758600D02*
X167038706Y-136663361D01*
X167038706Y-136663361D02*
X166991087Y-136472885D01*
X166991087Y-136472885D02*
X166991087Y-136139552D01*
X166991087Y-136139552D02*
X167038706Y-135949076D01*
X167038706Y-135949076D02*
X167133944Y-135853838D01*
X167133944Y-135853838D02*
X167229182Y-135806219D01*
X168514896Y-135806219D02*
X168324420Y-135806219D01*
X168324420Y-135806219D02*
X168229182Y-135853838D01*
X168229182Y-135853838D02*
X168181563Y-135901457D01*
X168181563Y-135901457D02*
X168086325Y-136044314D01*
X168086325Y-136044314D02*
X168038706Y-136234790D01*
X168038706Y-136234790D02*
X168038706Y-136615742D01*
X168038706Y-136615742D02*
X168086325Y-136710980D01*
X168086325Y-136710980D02*
X168133944Y-136758600D01*
X168133944Y-136758600D02*
X168229182Y-136806219D01*
X168229182Y-136806219D02*
X168419658Y-136806219D01*
X168419658Y-136806219D02*
X168514896Y-136758600D01*
X168514896Y-136758600D02*
X168562515Y-136710980D01*
X168562515Y-136710980D02*
X168610134Y-136615742D01*
X168610134Y-136615742D02*
X168610134Y-136377647D01*
X168610134Y-136377647D02*
X168562515Y-136282409D01*
X168562515Y-136282409D02*
X168514896Y-136234790D01*
X168514896Y-136234790D02*
X168419658Y-136187171D01*
X168419658Y-136187171D02*
X168229182Y-136187171D01*
X168229182Y-136187171D02*
X168133944Y-136234790D01*
X168133944Y-136234790D02*
X168086325Y-136282409D01*
X168086325Y-136282409D02*
X168038706Y-136377647D01*
X149612284Y-100992219D02*
X149612284Y-99992219D01*
X150278950Y-99992219D02*
X150469426Y-99992219D01*
X150469426Y-99992219D02*
X150564664Y-100039838D01*
X150564664Y-100039838D02*
X150659902Y-100135076D01*
X150659902Y-100135076D02*
X150707521Y-100325552D01*
X150707521Y-100325552D02*
X150707521Y-100658885D01*
X150707521Y-100658885D02*
X150659902Y-100849361D01*
X150659902Y-100849361D02*
X150564664Y-100944600D01*
X150564664Y-100944600D02*
X150469426Y-100992219D01*
X150469426Y-100992219D02*
X150278950Y-100992219D01*
X150278950Y-100992219D02*
X150183712Y-100944600D01*
X150183712Y-100944600D02*
X150088474Y-100849361D01*
X150088474Y-100849361D02*
X150040855Y-100658885D01*
X150040855Y-100658885D02*
X150040855Y-100325552D01*
X150040855Y-100325552D02*
X150088474Y-100135076D01*
X150088474Y-100135076D02*
X150183712Y-100039838D01*
X150183712Y-100039838D02*
X150278950Y-99992219D01*
X151040855Y-99992219D02*
X151659902Y-99992219D01*
X151659902Y-99992219D02*
X151326569Y-100373171D01*
X151326569Y-100373171D02*
X151469426Y-100373171D01*
X151469426Y-100373171D02*
X151564664Y-100420790D01*
X151564664Y-100420790D02*
X151612283Y-100468409D01*
X151612283Y-100468409D02*
X151659902Y-100563647D01*
X151659902Y-100563647D02*
X151659902Y-100801742D01*
X151659902Y-100801742D02*
X151612283Y-100896980D01*
X151612283Y-100896980D02*
X151564664Y-100944600D01*
X151564664Y-100944600D02*
X151469426Y-100992219D01*
X151469426Y-100992219D02*
X151183712Y-100992219D01*
X151183712Y-100992219D02*
X151088474Y-100944600D01*
X151088474Y-100944600D02*
X151040855Y-100896980D01*
X152517045Y-100325552D02*
X152517045Y-100992219D01*
X152278950Y-99944600D02*
X152040855Y-100658885D01*
X152040855Y-100658885D02*
X152659902Y-100658885D01*
X149612284Y-128932219D02*
X149612284Y-127932219D01*
X150278950Y-127932219D02*
X150469426Y-127932219D01*
X150469426Y-127932219D02*
X150564664Y-127979838D01*
X150564664Y-127979838D02*
X150659902Y-128075076D01*
X150659902Y-128075076D02*
X150707521Y-128265552D01*
X150707521Y-128265552D02*
X150707521Y-128598885D01*
X150707521Y-128598885D02*
X150659902Y-128789361D01*
X150659902Y-128789361D02*
X150564664Y-128884600D01*
X150564664Y-128884600D02*
X150469426Y-128932219D01*
X150469426Y-128932219D02*
X150278950Y-128932219D01*
X150278950Y-128932219D02*
X150183712Y-128884600D01*
X150183712Y-128884600D02*
X150088474Y-128789361D01*
X150088474Y-128789361D02*
X150040855Y-128598885D01*
X150040855Y-128598885D02*
X150040855Y-128265552D01*
X150040855Y-128265552D02*
X150088474Y-128075076D01*
X150088474Y-128075076D02*
X150183712Y-127979838D01*
X150183712Y-127979838D02*
X150278950Y-127932219D01*
X151326569Y-127932219D02*
X151421807Y-127932219D01*
X151421807Y-127932219D02*
X151517045Y-127979838D01*
X151517045Y-127979838D02*
X151564664Y-128027457D01*
X151564664Y-128027457D02*
X151612283Y-128122695D01*
X151612283Y-128122695D02*
X151659902Y-128313171D01*
X151659902Y-128313171D02*
X151659902Y-128551266D01*
X151659902Y-128551266D02*
X151612283Y-128741742D01*
X151612283Y-128741742D02*
X151564664Y-128836980D01*
X151564664Y-128836980D02*
X151517045Y-128884600D01*
X151517045Y-128884600D02*
X151421807Y-128932219D01*
X151421807Y-128932219D02*
X151326569Y-128932219D01*
X151326569Y-128932219D02*
X151231331Y-128884600D01*
X151231331Y-128884600D02*
X151183712Y-128836980D01*
X151183712Y-128836980D02*
X151136093Y-128741742D01*
X151136093Y-128741742D02*
X151088474Y-128551266D01*
X151088474Y-128551266D02*
X151088474Y-128313171D01*
X151088474Y-128313171D02*
X151136093Y-128122695D01*
X151136093Y-128122695D02*
X151183712Y-128027457D01*
X151183712Y-128027457D02*
X151231331Y-127979838D01*
X151231331Y-127979838D02*
X151326569Y-127932219D01*
X152136093Y-128932219D02*
X152326569Y-128932219D01*
X152326569Y-128932219D02*
X152421807Y-128884600D01*
X152421807Y-128884600D02*
X152469426Y-128836980D01*
X152469426Y-128836980D02*
X152564664Y-128694123D01*
X152564664Y-128694123D02*
X152612283Y-128503647D01*
X152612283Y-128503647D02*
X152612283Y-128122695D01*
X152612283Y-128122695D02*
X152564664Y-128027457D01*
X152564664Y-128027457D02*
X152517045Y-127979838D01*
X152517045Y-127979838D02*
X152421807Y-127932219D01*
X152421807Y-127932219D02*
X152231331Y-127932219D01*
X152231331Y-127932219D02*
X152136093Y-127979838D01*
X152136093Y-127979838D02*
X152088474Y-128027457D01*
X152088474Y-128027457D02*
X152040855Y-128122695D01*
X152040855Y-128122695D02*
X152040855Y-128360790D01*
X152040855Y-128360790D02*
X152088474Y-128456028D01*
X152088474Y-128456028D02*
X152136093Y-128503647D01*
X152136093Y-128503647D02*
X152231331Y-128551266D01*
X152231331Y-128551266D02*
X152421807Y-128551266D01*
X152421807Y-128551266D02*
X152517045Y-128503647D01*
X152517045Y-128503647D02*
X152564664Y-128456028D01*
X152564664Y-128456028D02*
X152612283Y-128360790D01*
X165610135Y-93626219D02*
X165610135Y-92626219D01*
X166276801Y-92626219D02*
X166467277Y-92626219D01*
X166467277Y-92626219D02*
X166562515Y-92673838D01*
X166562515Y-92673838D02*
X166657753Y-92769076D01*
X166657753Y-92769076D02*
X166705372Y-92959552D01*
X166705372Y-92959552D02*
X166705372Y-93292885D01*
X166705372Y-93292885D02*
X166657753Y-93483361D01*
X166657753Y-93483361D02*
X166562515Y-93578600D01*
X166562515Y-93578600D02*
X166467277Y-93626219D01*
X166467277Y-93626219D02*
X166276801Y-93626219D01*
X166276801Y-93626219D02*
X166181563Y-93578600D01*
X166181563Y-93578600D02*
X166086325Y-93483361D01*
X166086325Y-93483361D02*
X166038706Y-93292885D01*
X166038706Y-93292885D02*
X166038706Y-92959552D01*
X166038706Y-92959552D02*
X166086325Y-92769076D01*
X166086325Y-92769076D02*
X166181563Y-92673838D01*
X166181563Y-92673838D02*
X166276801Y-92626219D01*
X167086325Y-92721457D02*
X167133944Y-92673838D01*
X167133944Y-92673838D02*
X167229182Y-92626219D01*
X167229182Y-92626219D02*
X167467277Y-92626219D01*
X167467277Y-92626219D02*
X167562515Y-92673838D01*
X167562515Y-92673838D02*
X167610134Y-92721457D01*
X167610134Y-92721457D02*
X167657753Y-92816695D01*
X167657753Y-92816695D02*
X167657753Y-92911933D01*
X167657753Y-92911933D02*
X167610134Y-93054790D01*
X167610134Y-93054790D02*
X167038706Y-93626219D01*
X167038706Y-93626219D02*
X167657753Y-93626219D01*
X167991087Y-92626219D02*
X168610134Y-92626219D01*
X168610134Y-92626219D02*
X168276801Y-93007171D01*
X168276801Y-93007171D02*
X168419658Y-93007171D01*
X168419658Y-93007171D02*
X168514896Y-93054790D01*
X168514896Y-93054790D02*
X168562515Y-93102409D01*
X168562515Y-93102409D02*
X168610134Y-93197647D01*
X168610134Y-93197647D02*
X168610134Y-93435742D01*
X168610134Y-93435742D02*
X168562515Y-93530980D01*
X168562515Y-93530980D02*
X168514896Y-93578600D01*
X168514896Y-93578600D02*
X168419658Y-93626219D01*
X168419658Y-93626219D02*
X168133944Y-93626219D01*
X168133944Y-93626219D02*
X168038706Y-93578600D01*
X168038706Y-93578600D02*
X167991087Y-93530980D01*
X166229182Y-97452219D02*
X166800610Y-97452219D01*
X166514896Y-98452219D02*
X166514896Y-97452219D01*
X167038706Y-97452219D02*
X167705372Y-98452219D01*
X167705372Y-97452219D02*
X167038706Y-98452219D01*
X168276801Y-97452219D02*
X168372039Y-97452219D01*
X168372039Y-97452219D02*
X168467277Y-97499838D01*
X168467277Y-97499838D02*
X168514896Y-97547457D01*
X168514896Y-97547457D02*
X168562515Y-97642695D01*
X168562515Y-97642695D02*
X168610134Y-97833171D01*
X168610134Y-97833171D02*
X168610134Y-98071266D01*
X168610134Y-98071266D02*
X168562515Y-98261742D01*
X168562515Y-98261742D02*
X168514896Y-98356980D01*
X168514896Y-98356980D02*
X168467277Y-98404600D01*
X168467277Y-98404600D02*
X168372039Y-98452219D01*
X168372039Y-98452219D02*
X168276801Y-98452219D01*
X168276801Y-98452219D02*
X168181563Y-98404600D01*
X168181563Y-98404600D02*
X168133944Y-98356980D01*
X168133944Y-98356980D02*
X168086325Y-98261742D01*
X168086325Y-98261742D02*
X168038706Y-98071266D01*
X168038706Y-98071266D02*
X168038706Y-97833171D01*
X168038706Y-97833171D02*
X168086325Y-97642695D01*
X168086325Y-97642695D02*
X168133944Y-97547457D01*
X168133944Y-97547457D02*
X168181563Y-97499838D01*
X168181563Y-97499838D02*
X168276801Y-97452219D01*
X149612284Y-116434219D02*
X149612284Y-115434219D01*
X150278950Y-115434219D02*
X150469426Y-115434219D01*
X150469426Y-115434219D02*
X150564664Y-115481838D01*
X150564664Y-115481838D02*
X150659902Y-115577076D01*
X150659902Y-115577076D02*
X150707521Y-115767552D01*
X150707521Y-115767552D02*
X150707521Y-116100885D01*
X150707521Y-116100885D02*
X150659902Y-116291361D01*
X150659902Y-116291361D02*
X150564664Y-116386600D01*
X150564664Y-116386600D02*
X150469426Y-116434219D01*
X150469426Y-116434219D02*
X150278950Y-116434219D01*
X150278950Y-116434219D02*
X150183712Y-116386600D01*
X150183712Y-116386600D02*
X150088474Y-116291361D01*
X150088474Y-116291361D02*
X150040855Y-116100885D01*
X150040855Y-116100885D02*
X150040855Y-115767552D01*
X150040855Y-115767552D02*
X150088474Y-115577076D01*
X150088474Y-115577076D02*
X150183712Y-115481838D01*
X150183712Y-115481838D02*
X150278950Y-115434219D01*
X151088474Y-115529457D02*
X151136093Y-115481838D01*
X151136093Y-115481838D02*
X151231331Y-115434219D01*
X151231331Y-115434219D02*
X151469426Y-115434219D01*
X151469426Y-115434219D02*
X151564664Y-115481838D01*
X151564664Y-115481838D02*
X151612283Y-115529457D01*
X151612283Y-115529457D02*
X151659902Y-115624695D01*
X151659902Y-115624695D02*
X151659902Y-115719933D01*
X151659902Y-115719933D02*
X151612283Y-115862790D01*
X151612283Y-115862790D02*
X151040855Y-116434219D01*
X151040855Y-116434219D02*
X151659902Y-116434219D01*
X151993236Y-115434219D02*
X152659902Y-115434219D01*
X152659902Y-115434219D02*
X152231331Y-116434219D01*
X149612284Y-103684219D02*
X149612284Y-102684219D01*
X150278950Y-102684219D02*
X150469426Y-102684219D01*
X150469426Y-102684219D02*
X150564664Y-102731838D01*
X150564664Y-102731838D02*
X150659902Y-102827076D01*
X150659902Y-102827076D02*
X150707521Y-103017552D01*
X150707521Y-103017552D02*
X150707521Y-103350885D01*
X150707521Y-103350885D02*
X150659902Y-103541361D01*
X150659902Y-103541361D02*
X150564664Y-103636600D01*
X150564664Y-103636600D02*
X150469426Y-103684219D01*
X150469426Y-103684219D02*
X150278950Y-103684219D01*
X150278950Y-103684219D02*
X150183712Y-103636600D01*
X150183712Y-103636600D02*
X150088474Y-103541361D01*
X150088474Y-103541361D02*
X150040855Y-103350885D01*
X150040855Y-103350885D02*
X150040855Y-103017552D01*
X150040855Y-103017552D02*
X150088474Y-102827076D01*
X150088474Y-102827076D02*
X150183712Y-102731838D01*
X150183712Y-102731838D02*
X150278950Y-102684219D01*
X151040855Y-102684219D02*
X151659902Y-102684219D01*
X151659902Y-102684219D02*
X151326569Y-103065171D01*
X151326569Y-103065171D02*
X151469426Y-103065171D01*
X151469426Y-103065171D02*
X151564664Y-103112790D01*
X151564664Y-103112790D02*
X151612283Y-103160409D01*
X151612283Y-103160409D02*
X151659902Y-103255647D01*
X151659902Y-103255647D02*
X151659902Y-103493742D01*
X151659902Y-103493742D02*
X151612283Y-103588980D01*
X151612283Y-103588980D02*
X151564664Y-103636600D01*
X151564664Y-103636600D02*
X151469426Y-103684219D01*
X151469426Y-103684219D02*
X151183712Y-103684219D01*
X151183712Y-103684219D02*
X151088474Y-103636600D01*
X151088474Y-103636600D02*
X151040855Y-103588980D01*
X152564664Y-102684219D02*
X152088474Y-102684219D01*
X152088474Y-102684219D02*
X152040855Y-103160409D01*
X152040855Y-103160409D02*
X152088474Y-103112790D01*
X152088474Y-103112790D02*
X152183712Y-103065171D01*
X152183712Y-103065171D02*
X152421807Y-103065171D01*
X152421807Y-103065171D02*
X152517045Y-103112790D01*
X152517045Y-103112790D02*
X152564664Y-103160409D01*
X152564664Y-103160409D02*
X152612283Y-103255647D01*
X152612283Y-103255647D02*
X152612283Y-103493742D01*
X152612283Y-103493742D02*
X152564664Y-103588980D01*
X152564664Y-103588980D02*
X152517045Y-103636600D01*
X152517045Y-103636600D02*
X152421807Y-103684219D01*
X152421807Y-103684219D02*
X152183712Y-103684219D01*
X152183712Y-103684219D02*
X152088474Y-103636600D01*
X152088474Y-103636600D02*
X152040855Y-103588980D01*
X166514896Y-105373838D02*
X166419658Y-105326219D01*
X166419658Y-105326219D02*
X166276801Y-105326219D01*
X166276801Y-105326219D02*
X166133944Y-105373838D01*
X166133944Y-105373838D02*
X166038706Y-105469076D01*
X166038706Y-105469076D02*
X165991087Y-105564314D01*
X165991087Y-105564314D02*
X165943468Y-105754790D01*
X165943468Y-105754790D02*
X165943468Y-105897647D01*
X165943468Y-105897647D02*
X165991087Y-106088123D01*
X165991087Y-106088123D02*
X166038706Y-106183361D01*
X166038706Y-106183361D02*
X166133944Y-106278600D01*
X166133944Y-106278600D02*
X166276801Y-106326219D01*
X166276801Y-106326219D02*
X166372039Y-106326219D01*
X166372039Y-106326219D02*
X166514896Y-106278600D01*
X166514896Y-106278600D02*
X166562515Y-106230980D01*
X166562515Y-106230980D02*
X166562515Y-105897647D01*
X166562515Y-105897647D02*
X166372039Y-105897647D01*
X166991087Y-106326219D02*
X166991087Y-105326219D01*
X166991087Y-105326219D02*
X167562515Y-106326219D01*
X167562515Y-106326219D02*
X167562515Y-105326219D01*
X168038706Y-106326219D02*
X168038706Y-105326219D01*
X168038706Y-105326219D02*
X168276801Y-105326219D01*
X168276801Y-105326219D02*
X168419658Y-105373838D01*
X168419658Y-105373838D02*
X168514896Y-105469076D01*
X168514896Y-105469076D02*
X168562515Y-105564314D01*
X168562515Y-105564314D02*
X168610134Y-105754790D01*
X168610134Y-105754790D02*
X168610134Y-105897647D01*
X168610134Y-105897647D02*
X168562515Y-106088123D01*
X168562515Y-106088123D02*
X168514896Y-106183361D01*
X168514896Y-106183361D02*
X168419658Y-106278600D01*
X168419658Y-106278600D02*
X168276801Y-106326219D01*
X168276801Y-106326219D02*
X168038706Y-106326219D01*
X149612284Y-98452219D02*
X149612284Y-97452219D01*
X150278950Y-97452219D02*
X150469426Y-97452219D01*
X150469426Y-97452219D02*
X150564664Y-97499838D01*
X150564664Y-97499838D02*
X150659902Y-97595076D01*
X150659902Y-97595076D02*
X150707521Y-97785552D01*
X150707521Y-97785552D02*
X150707521Y-98118885D01*
X150707521Y-98118885D02*
X150659902Y-98309361D01*
X150659902Y-98309361D02*
X150564664Y-98404600D01*
X150564664Y-98404600D02*
X150469426Y-98452219D01*
X150469426Y-98452219D02*
X150278950Y-98452219D01*
X150278950Y-98452219D02*
X150183712Y-98404600D01*
X150183712Y-98404600D02*
X150088474Y-98309361D01*
X150088474Y-98309361D02*
X150040855Y-98118885D01*
X150040855Y-98118885D02*
X150040855Y-97785552D01*
X150040855Y-97785552D02*
X150088474Y-97595076D01*
X150088474Y-97595076D02*
X150183712Y-97499838D01*
X150183712Y-97499838D02*
X150278950Y-97452219D01*
X151040855Y-97452219D02*
X151659902Y-97452219D01*
X151659902Y-97452219D02*
X151326569Y-97833171D01*
X151326569Y-97833171D02*
X151469426Y-97833171D01*
X151469426Y-97833171D02*
X151564664Y-97880790D01*
X151564664Y-97880790D02*
X151612283Y-97928409D01*
X151612283Y-97928409D02*
X151659902Y-98023647D01*
X151659902Y-98023647D02*
X151659902Y-98261742D01*
X151659902Y-98261742D02*
X151612283Y-98356980D01*
X151612283Y-98356980D02*
X151564664Y-98404600D01*
X151564664Y-98404600D02*
X151469426Y-98452219D01*
X151469426Y-98452219D02*
X151183712Y-98452219D01*
X151183712Y-98452219D02*
X151088474Y-98404600D01*
X151088474Y-98404600D02*
X151040855Y-98356980D01*
X152136093Y-98452219D02*
X152326569Y-98452219D01*
X152326569Y-98452219D02*
X152421807Y-98404600D01*
X152421807Y-98404600D02*
X152469426Y-98356980D01*
X152469426Y-98356980D02*
X152564664Y-98214123D01*
X152564664Y-98214123D02*
X152612283Y-98023647D01*
X152612283Y-98023647D02*
X152612283Y-97642695D01*
X152612283Y-97642695D02*
X152564664Y-97547457D01*
X152564664Y-97547457D02*
X152517045Y-97499838D01*
X152517045Y-97499838D02*
X152421807Y-97452219D01*
X152421807Y-97452219D02*
X152231331Y-97452219D01*
X152231331Y-97452219D02*
X152136093Y-97499838D01*
X152136093Y-97499838D02*
X152088474Y-97547457D01*
X152088474Y-97547457D02*
X152040855Y-97642695D01*
X152040855Y-97642695D02*
X152040855Y-97880790D01*
X152040855Y-97880790D02*
X152088474Y-97976028D01*
X152088474Y-97976028D02*
X152136093Y-98023647D01*
X152136093Y-98023647D02*
X152231331Y-98071266D01*
X152231331Y-98071266D02*
X152421807Y-98071266D01*
X152421807Y-98071266D02*
X152517045Y-98023647D01*
X152517045Y-98023647D02*
X152564664Y-97976028D01*
X152564664Y-97976028D02*
X152612283Y-97880790D01*
X165610135Y-116232219D02*
X165610135Y-115232219D01*
X166276801Y-115232219D02*
X166467277Y-115232219D01*
X166467277Y-115232219D02*
X166562515Y-115279838D01*
X166562515Y-115279838D02*
X166657753Y-115375076D01*
X166657753Y-115375076D02*
X166705372Y-115565552D01*
X166705372Y-115565552D02*
X166705372Y-115898885D01*
X166705372Y-115898885D02*
X166657753Y-116089361D01*
X166657753Y-116089361D02*
X166562515Y-116184600D01*
X166562515Y-116184600D02*
X166467277Y-116232219D01*
X166467277Y-116232219D02*
X166276801Y-116232219D01*
X166276801Y-116232219D02*
X166181563Y-116184600D01*
X166181563Y-116184600D02*
X166086325Y-116089361D01*
X166086325Y-116089361D02*
X166038706Y-115898885D01*
X166038706Y-115898885D02*
X166038706Y-115565552D01*
X166038706Y-115565552D02*
X166086325Y-115375076D01*
X166086325Y-115375076D02*
X166181563Y-115279838D01*
X166181563Y-115279838D02*
X166276801Y-115232219D01*
X167657753Y-116232219D02*
X167086325Y-116232219D01*
X167372039Y-116232219D02*
X167372039Y-115232219D01*
X167372039Y-115232219D02*
X167276801Y-115375076D01*
X167276801Y-115375076D02*
X167181563Y-115470314D01*
X167181563Y-115470314D02*
X167086325Y-115517933D01*
X167991087Y-115232219D02*
X168657753Y-115232219D01*
X168657753Y-115232219D02*
X168229182Y-116232219D01*
X165610135Y-108612219D02*
X165610135Y-107612219D01*
X166276801Y-107612219D02*
X166467277Y-107612219D01*
X166467277Y-107612219D02*
X166562515Y-107659838D01*
X166562515Y-107659838D02*
X166657753Y-107755076D01*
X166657753Y-107755076D02*
X166705372Y-107945552D01*
X166705372Y-107945552D02*
X166705372Y-108278885D01*
X166705372Y-108278885D02*
X166657753Y-108469361D01*
X166657753Y-108469361D02*
X166562515Y-108564600D01*
X166562515Y-108564600D02*
X166467277Y-108612219D01*
X166467277Y-108612219D02*
X166276801Y-108612219D01*
X166276801Y-108612219D02*
X166181563Y-108564600D01*
X166181563Y-108564600D02*
X166086325Y-108469361D01*
X166086325Y-108469361D02*
X166038706Y-108278885D01*
X166038706Y-108278885D02*
X166038706Y-107945552D01*
X166038706Y-107945552D02*
X166086325Y-107755076D01*
X166086325Y-107755076D02*
X166181563Y-107659838D01*
X166181563Y-107659838D02*
X166276801Y-107612219D01*
X167657753Y-108612219D02*
X167086325Y-108612219D01*
X167372039Y-108612219D02*
X167372039Y-107612219D01*
X167372039Y-107612219D02*
X167276801Y-107755076D01*
X167276801Y-107755076D02*
X167181563Y-107850314D01*
X167181563Y-107850314D02*
X167086325Y-107897933D01*
X168133944Y-108612219D02*
X168324420Y-108612219D01*
X168324420Y-108612219D02*
X168419658Y-108564600D01*
X168419658Y-108564600D02*
X168467277Y-108516980D01*
X168467277Y-108516980D02*
X168562515Y-108374123D01*
X168562515Y-108374123D02*
X168610134Y-108183647D01*
X168610134Y-108183647D02*
X168610134Y-107802695D01*
X168610134Y-107802695D02*
X168562515Y-107707457D01*
X168562515Y-107707457D02*
X168514896Y-107659838D01*
X168514896Y-107659838D02*
X168419658Y-107612219D01*
X168419658Y-107612219D02*
X168229182Y-107612219D01*
X168229182Y-107612219D02*
X168133944Y-107659838D01*
X168133944Y-107659838D02*
X168086325Y-107707457D01*
X168086325Y-107707457D02*
X168038706Y-107802695D01*
X168038706Y-107802695D02*
X168038706Y-108040790D01*
X168038706Y-108040790D02*
X168086325Y-108136028D01*
X168086325Y-108136028D02*
X168133944Y-108183647D01*
X168133944Y-108183647D02*
X168229182Y-108231266D01*
X168229182Y-108231266D02*
X168419658Y-108231266D01*
X168419658Y-108231266D02*
X168514896Y-108183647D01*
X168514896Y-108183647D02*
X168562515Y-108136028D01*
X168562515Y-108136028D02*
X168610134Y-108040790D01*
X166562516Y-113692219D02*
X166562516Y-112692219D01*
X167229182Y-112692219D02*
X167419658Y-112692219D01*
X167419658Y-112692219D02*
X167514896Y-112739838D01*
X167514896Y-112739838D02*
X167610134Y-112835076D01*
X167610134Y-112835076D02*
X167657753Y-113025552D01*
X167657753Y-113025552D02*
X167657753Y-113358885D01*
X167657753Y-113358885D02*
X167610134Y-113549361D01*
X167610134Y-113549361D02*
X167514896Y-113644600D01*
X167514896Y-113644600D02*
X167419658Y-113692219D01*
X167419658Y-113692219D02*
X167229182Y-113692219D01*
X167229182Y-113692219D02*
X167133944Y-113644600D01*
X167133944Y-113644600D02*
X167038706Y-113549361D01*
X167038706Y-113549361D02*
X166991087Y-113358885D01*
X166991087Y-113358885D02*
X166991087Y-113025552D01*
X166991087Y-113025552D02*
X167038706Y-112835076D01*
X167038706Y-112835076D02*
X167133944Y-112739838D01*
X167133944Y-112739838D02*
X167229182Y-112692219D01*
X168562515Y-112692219D02*
X168086325Y-112692219D01*
X168086325Y-112692219D02*
X168038706Y-113168409D01*
X168038706Y-113168409D02*
X168086325Y-113120790D01*
X168086325Y-113120790D02*
X168181563Y-113073171D01*
X168181563Y-113073171D02*
X168419658Y-113073171D01*
X168419658Y-113073171D02*
X168514896Y-113120790D01*
X168514896Y-113120790D02*
X168562515Y-113168409D01*
X168562515Y-113168409D02*
X168610134Y-113263647D01*
X168610134Y-113263647D02*
X168610134Y-113501742D01*
X168610134Y-113501742D02*
X168562515Y-113596980D01*
X168562515Y-113596980D02*
X168514896Y-113644600D01*
X168514896Y-113644600D02*
X168419658Y-113692219D01*
X168419658Y-113692219D02*
X168181563Y-113692219D01*
X168181563Y-113692219D02*
X168086325Y-113644600D01*
X168086325Y-113644600D02*
X168038706Y-113596980D01*
D11*
X140125371Y-119056019D02*
X140125371Y-119770304D01*
X140125371Y-119770304D02*
X140077752Y-119913161D01*
X140077752Y-119913161D02*
X139982514Y-120008400D01*
X139982514Y-120008400D02*
X139839657Y-120056019D01*
X139839657Y-120056019D02*
X139744419Y-120056019D01*
X140363467Y-120151257D02*
X141125371Y-120151257D01*
X141315848Y-120008400D02*
X141458705Y-120056019D01*
X141458705Y-120056019D02*
X141696800Y-120056019D01*
X141696800Y-120056019D02*
X141792038Y-120008400D01*
X141792038Y-120008400D02*
X141839657Y-119960780D01*
X141839657Y-119960780D02*
X141887276Y-119865542D01*
X141887276Y-119865542D02*
X141887276Y-119770304D01*
X141887276Y-119770304D02*
X141839657Y-119675066D01*
X141839657Y-119675066D02*
X141792038Y-119627447D01*
X141792038Y-119627447D02*
X141696800Y-119579828D01*
X141696800Y-119579828D02*
X141506324Y-119532209D01*
X141506324Y-119532209D02*
X141411086Y-119484590D01*
X141411086Y-119484590D02*
X141363467Y-119436971D01*
X141363467Y-119436971D02*
X141315848Y-119341733D01*
X141315848Y-119341733D02*
X141315848Y-119246495D01*
X141315848Y-119246495D02*
X141363467Y-119151257D01*
X141363467Y-119151257D02*
X141411086Y-119103638D01*
X141411086Y-119103638D02*
X141506324Y-119056019D01*
X141506324Y-119056019D02*
X141744419Y-119056019D01*
X141744419Y-119056019D02*
X141887276Y-119103638D01*
X142887276Y-119960780D02*
X142839657Y-120008400D01*
X142839657Y-120008400D02*
X142696800Y-120056019D01*
X142696800Y-120056019D02*
X142601562Y-120056019D01*
X142601562Y-120056019D02*
X142458705Y-120008400D01*
X142458705Y-120008400D02*
X142363467Y-119913161D01*
X142363467Y-119913161D02*
X142315848Y-119817923D01*
X142315848Y-119817923D02*
X142268229Y-119627447D01*
X142268229Y-119627447D02*
X142268229Y-119484590D01*
X142268229Y-119484590D02*
X142315848Y-119294114D01*
X142315848Y-119294114D02*
X142363467Y-119198876D01*
X142363467Y-119198876D02*
X142458705Y-119103638D01*
X142458705Y-119103638D02*
X142601562Y-119056019D01*
X142601562Y-119056019D02*
X142696800Y-119056019D01*
X142696800Y-119056019D02*
X142839657Y-119103638D01*
X142839657Y-119103638D02*
X142887276Y-119151257D01*
X143077753Y-120151257D02*
X143839657Y-120151257D01*
X144030134Y-119151257D02*
X144077753Y-119103638D01*
X144077753Y-119103638D02*
X144172991Y-119056019D01*
X144172991Y-119056019D02*
X144411086Y-119056019D01*
X144411086Y-119056019D02*
X144506324Y-119103638D01*
X144506324Y-119103638D02*
X144553943Y-119151257D01*
X144553943Y-119151257D02*
X144601562Y-119246495D01*
X144601562Y-119246495D02*
X144601562Y-119341733D01*
X144601562Y-119341733D02*
X144553943Y-119484590D01*
X144553943Y-119484590D02*
X143982515Y-120056019D01*
X143982515Y-120056019D02*
X144601562Y-120056019D01*
D13*
%TO.C,J_SW_1*%
X139736800Y-89318800D02*
X139736800Y-101938800D01*
X139736800Y-101938800D02*
X145706800Y-101938800D01*
X140496800Y-90078800D02*
X140496800Y-95628800D01*
X140496800Y-101178800D02*
X140496800Y-95628800D01*
X143446800Y-89328800D02*
X143446800Y-90078800D01*
X143446800Y-90078800D02*
X140496800Y-90078800D01*
X143446800Y-101178800D02*
X140496800Y-101178800D01*
X143446800Y-101928800D02*
X143446800Y-101178800D01*
X144946800Y-89328800D02*
X144946800Y-91128800D01*
X144946800Y-91128800D02*
X145696800Y-91128800D01*
X144946800Y-92628800D02*
X144946800Y-98628800D01*
X144946800Y-98628800D02*
X145696800Y-98628800D01*
X144946800Y-100128800D02*
X144946800Y-101928800D01*
X144946800Y-101928800D02*
X145696800Y-101928800D01*
X145696800Y-89328800D02*
X144946800Y-89328800D01*
X145696800Y-91128800D02*
X145696800Y-89328800D01*
X145696800Y-92628800D02*
X144946800Y-92628800D01*
X145696800Y-98628800D02*
X145696800Y-92628800D01*
X145696800Y-100128800D02*
X144946800Y-100128800D01*
X145696800Y-101928800D02*
X145696800Y-100128800D01*
X145706800Y-89318800D02*
X139736800Y-89318800D01*
X145706800Y-101938800D02*
X145706800Y-89318800D01*
X145996800Y-89028800D02*
X144746800Y-89028800D01*
X145996800Y-90278800D02*
X145996800Y-89028800D01*
%TO.C,J_DP_1*%
X168616800Y-84713800D02*
X168616800Y-66873800D01*
X171276800Y-66873800D02*
X168616800Y-66873800D01*
X171276800Y-84713800D02*
X168616800Y-84713800D01*
X171276800Y-84713800D02*
X171276800Y-66873800D01*
X171276800Y-85983800D02*
X171276800Y-87313800D01*
X171276800Y-87313800D02*
X169946800Y-87313800D01*
D14*
%TO.C,U2*%
X146620000Y-67823800D02*
X146620000Y-85603800D01*
X147890000Y-86873800D02*
X165670000Y-86873800D01*
X165670000Y-66553800D02*
X147890000Y-66553800D01*
X166940000Y-85603800D02*
X166940000Y-67823800D01*
D10*
X157465800Y-70160600D02*
X159599400Y-70160600D01*
X159599400Y-68027000D01*
X157465800Y-68027000D01*
X157465800Y-70160600D01*
D14*
X146620000Y-67823800D02*
G75*
G02*
X147890000Y-66553800I1270000J0D01*
G01*
X147890000Y-86873800D02*
G75*
G02*
X146620000Y-85603800I-1J1269999D01*
G01*
X165670000Y-66553800D02*
G75*
G02*
X166940000Y-67823800I0J-1270000D01*
G01*
X166940000Y-85603800D02*
G75*
G02*
X165670000Y-86873800I-1269999J-1D01*
G01*
D10*
X147835798Y-86057598D02*
G75*
G02*
X147080602Y-86057598I-377598J0D01*
G01*
X147080602Y-86057598D02*
G75*
G02*
X147835798Y-86057598I377598J0D01*
G01*
X156094502Y-69093800D02*
G75*
G02*
X153960298Y-69093800I-1067102J0D01*
G01*
X153960298Y-69093800D02*
G75*
G02*
X156094502Y-69093800I1067102J0D01*
G01*
X166502227Y-67392000D02*
G75*
G02*
X165752173Y-67392000I-375027J0D01*
G01*
X165752173Y-67392000D02*
G75*
G02*
X166502227Y-67392000I375027J0D01*
G01*
D13*
%TO.C,J_SC_1*%
X139446800Y-135203800D02*
X139446800Y-136453800D01*
X139446800Y-136453800D02*
X140696800Y-136453800D01*
X139736800Y-123543800D02*
X139736800Y-136163800D01*
X139736800Y-136163800D02*
X145706800Y-136163800D01*
X139746800Y-123553800D02*
X139746800Y-125353800D01*
X139746800Y-125353800D02*
X140496800Y-125353800D01*
X139746800Y-126853800D02*
X139746800Y-132853800D01*
X139746800Y-132853800D02*
X140496800Y-132853800D01*
X139746800Y-134353800D02*
X139746800Y-136153800D01*
X139746800Y-136153800D02*
X140496800Y-136153800D01*
X140496800Y-123553800D02*
X139746800Y-123553800D01*
X140496800Y-125353800D02*
X140496800Y-123553800D01*
X140496800Y-126853800D02*
X139746800Y-126853800D01*
X140496800Y-132853800D02*
X140496800Y-126853800D01*
X140496800Y-134353800D02*
X139746800Y-134353800D01*
X140496800Y-136153800D02*
X140496800Y-134353800D01*
X141996800Y-123553800D02*
X141996800Y-124303800D01*
X141996800Y-124303800D02*
X144946800Y-124303800D01*
X141996800Y-135403800D02*
X144946800Y-135403800D01*
X141996800Y-136153800D02*
X141996800Y-135403800D01*
X144946800Y-124303800D02*
X144946800Y-129853800D01*
X144946800Y-135403800D02*
X144946800Y-129853800D01*
X145706800Y-123543800D02*
X139736800Y-123543800D01*
X145706800Y-136163800D02*
X145706800Y-123543800D01*
%TO.C,J_SW_2*%
X139736800Y-68043800D02*
X139736800Y-83163800D01*
X139736800Y-83163800D02*
X145706800Y-83163800D01*
X140496800Y-68803800D02*
X140496800Y-75603800D01*
X140496800Y-82403800D02*
X140496800Y-75603800D01*
X143446800Y-68053800D02*
X143446800Y-68803800D01*
X143446800Y-68803800D02*
X140496800Y-68803800D01*
X143446800Y-82403800D02*
X140496800Y-82403800D01*
X143446800Y-83153800D02*
X143446800Y-82403800D01*
X144946800Y-68053800D02*
X144946800Y-69853800D01*
X144946800Y-69853800D02*
X145696800Y-69853800D01*
X144946800Y-71353800D02*
X144946800Y-79853800D01*
X144946800Y-79853800D02*
X145696800Y-79853800D01*
X144946800Y-81353800D02*
X144946800Y-83153800D01*
X144946800Y-83153800D02*
X145696800Y-83153800D01*
X145696800Y-68053800D02*
X144946800Y-68053800D01*
X145696800Y-69853800D02*
X145696800Y-68053800D01*
X145696800Y-71353800D02*
X144946800Y-71353800D01*
X145696800Y-79853800D02*
X145696800Y-71353800D01*
X145696800Y-81353800D02*
X144946800Y-81353800D01*
X145696800Y-83153800D02*
X145696800Y-81353800D01*
X145706800Y-68043800D02*
X139736800Y-68043800D01*
X145706800Y-83163800D02*
X145706800Y-68043800D01*
X145996800Y-67753800D02*
X144746800Y-67753800D01*
X145996800Y-69003800D02*
X145996800Y-67753800D01*
D15*
%TO.C,U1*%
X146514400Y-89181800D02*
X171914400Y-89181800D01*
X146514400Y-137441800D02*
X146514400Y-89181800D01*
X155284400Y-137441800D02*
X146514400Y-137441800D01*
X155284400Y-137441800D02*
X155284400Y-138091800D01*
X155284400Y-138091800D02*
X163144400Y-138091800D01*
X163144400Y-138091800D02*
X163144400Y-137441800D01*
X171914400Y-89181800D02*
X171914400Y-137441800D01*
X171914400Y-137441800D02*
X163144400Y-137441800D01*
D11*
X146766800Y-88675400D02*
G75*
G02*
X146566800Y-88675400I-100000J0D01*
G01*
X146566800Y-88675400D02*
G75*
G02*
X146766800Y-88675400I100000J0D01*
G01*
D13*
%TO.C,J_SC_2*%
X139446800Y-117453800D02*
X139446800Y-118703800D01*
X139446800Y-118703800D02*
X140696800Y-118703800D01*
X139736800Y-105793800D02*
X139736800Y-118413800D01*
X139736800Y-118413800D02*
X145706800Y-118413800D01*
X139746800Y-105803800D02*
X139746800Y-107603800D01*
X139746800Y-107603800D02*
X140496800Y-107603800D01*
X139746800Y-109103800D02*
X139746800Y-115103800D01*
X139746800Y-115103800D02*
X140496800Y-115103800D01*
X139746800Y-116603800D02*
X139746800Y-118403800D01*
X139746800Y-118403800D02*
X140496800Y-118403800D01*
X140496800Y-105803800D02*
X139746800Y-105803800D01*
X140496800Y-107603800D02*
X140496800Y-105803800D01*
X140496800Y-109103800D02*
X139746800Y-109103800D01*
X140496800Y-115103800D02*
X140496800Y-109103800D01*
X140496800Y-116603800D02*
X139746800Y-116603800D01*
X140496800Y-118403800D02*
X140496800Y-116603800D01*
X141996800Y-105803800D02*
X141996800Y-106553800D01*
X141996800Y-106553800D02*
X144946800Y-106553800D01*
X141996800Y-117653800D02*
X144946800Y-117653800D01*
X141996800Y-118403800D02*
X141996800Y-117653800D01*
X144946800Y-106553800D02*
X144946800Y-112103800D01*
X144946800Y-117653800D02*
X144946800Y-112103800D01*
X145706800Y-105793800D02*
X139736800Y-105793800D01*
X145706800Y-118413800D02*
X145706800Y-105793800D01*
%TD*%
%LPC*%
D16*
%TO.C,J_SW_1*%
X143246800Y-91878800D03*
D17*
X143246800Y-94378800D03*
X143246800Y-96878800D03*
X143246800Y-99378800D03*
%TD*%
D18*
%TO.C,MountingHole1*%
X159196800Y-75533200D03*
%TD*%
D19*
%TO.C,J_DP_1*%
X169946800Y-85983800D03*
D20*
X169946800Y-83443800D03*
X169946800Y-80903800D03*
X169946800Y-78363800D03*
X169946800Y-75823800D03*
X169946800Y-73283800D03*
X169946800Y-70743800D03*
X169946800Y-68203800D03*
%TD*%
D21*
%TO.C,U2*%
X154240000Y-85603800D03*
X156780000Y-85603800D03*
X161860000Y-85603800D03*
X159320000Y-85603800D03*
X164400000Y-85603800D03*
X149160000Y-85603800D03*
X151700000Y-85603800D03*
%TD*%
D22*
%TO.C,J_SC_1*%
X142196800Y-133603800D03*
D17*
X142196800Y-131103800D03*
X142196800Y-128603800D03*
X142196800Y-126103800D03*
%TD*%
D16*
%TO.C,J_SW_2*%
X143246800Y-70603800D03*
D17*
X143246800Y-73103800D03*
X143246800Y-75603800D03*
X143246800Y-78103800D03*
X143246800Y-80603800D03*
%TD*%
D23*
%TO.C,U1*%
X147784400Y-90451800D03*
X147784400Y-92991800D03*
X147784400Y-95531800D03*
X147784400Y-98071800D03*
X147784400Y-100611800D03*
X147784400Y-103151800D03*
X147784400Y-105691800D03*
X147784400Y-108231800D03*
X147784400Y-110771800D03*
X147784400Y-113311800D03*
X147784400Y-115851800D03*
X147784400Y-118391800D03*
X147784400Y-120931800D03*
X147784400Y-123471800D03*
X147784400Y-126011800D03*
X147784400Y-128551800D03*
X147784400Y-131091800D03*
X147784400Y-133631800D03*
X147784400Y-136171800D03*
X170644400Y-90451800D03*
X170644400Y-92991800D03*
X170644400Y-95531800D03*
X170644400Y-98071800D03*
X170644400Y-100611800D03*
X170644400Y-103151800D03*
X170644400Y-105691800D03*
X170644400Y-108231800D03*
X170644400Y-110771800D03*
X170644400Y-113311800D03*
X170644400Y-115851800D03*
X170644400Y-118391800D03*
X170644400Y-120931800D03*
X170644400Y-123471800D03*
X170644400Y-126011800D03*
X170644400Y-128551800D03*
X170644400Y-131091800D03*
X170644400Y-133631800D03*
X170644400Y-136171800D03*
%TD*%
D22*
%TO.C,J_SC_2*%
X142196800Y-115853800D03*
D17*
X142196800Y-113353800D03*
X142196800Y-110853800D03*
X142196800Y-108353800D03*
%TD*%
D18*
%TO.C,MountinHole2*%
X159196800Y-129603800D03*
%TD*%
%LPD*%
M02*
