M48
; DRILL file {KiCad 8.0.1} date 2024-04-28T12:45:25+0200
; FORMAT={-:-/ absolute / metric / decimal}
; #@! TF.CreationDate,2024-04-28T12:45:25+02:00
; #@! TF.GenerationSoftware,Kicad,Pcbnew,8.0.1
; #@! TF.FileFunction,Plated,1,2,PTH
FMAT,2
METRIC
; #@! TA.AperFunction,Plated,PTH,ComponentDrill
T1C0.950
; #@! TA.AperFunction,Plated,PTH,ComponentDrill
T2C1.000
; #@! TA.AperFunction,Plated,PTH,ComponentDrill
T3C1.016
%
G90
G05
T1
X142.197Y-108.354
X142.197Y-110.854
X142.197Y-113.354
X142.197Y-115.854
X142.197Y-126.104
X142.197Y-128.604
X142.197Y-131.104
X142.197Y-133.604
X143.247Y-70.604
X143.247Y-73.104
X143.247Y-75.604
X143.247Y-78.104
X143.247Y-80.604
X143.247Y-91.879
X143.247Y-94.379
X143.247Y-96.879
X143.247Y-99.379
T2
X169.947Y-68.204
X169.947Y-70.744
X169.947Y-73.284
X169.947Y-75.824
X169.947Y-78.364
X169.947Y-80.904
X169.947Y-83.444
X169.947Y-85.984
T3
X147.784Y-90.452
X147.784Y-92.992
X147.784Y-95.532
X147.784Y-98.072
X147.784Y-100.612
X147.784Y-103.152
X147.784Y-105.692
X147.784Y-108.232
X147.784Y-110.772
X147.784Y-113.312
X147.784Y-115.852
X147.784Y-118.392
X147.784Y-120.932
X147.784Y-123.472
X147.784Y-126.012
X147.784Y-128.552
X147.784Y-131.092
X147.784Y-133.632
X147.784Y-136.172
X149.16Y-85.604
X151.7Y-85.604
X154.24Y-85.604
X156.78Y-85.604
X159.32Y-85.604
X161.86Y-85.604
X164.4Y-85.604
X170.644Y-90.452
X170.644Y-92.992
X170.644Y-95.532
X170.644Y-98.072
X170.644Y-100.612
X170.644Y-103.152
X170.644Y-105.692
X170.644Y-108.232
X170.644Y-110.772
X170.644Y-113.312
X170.644Y-115.852
X170.644Y-118.392
X170.644Y-120.932
X170.644Y-123.472
X170.644Y-126.012
X170.644Y-128.552
X170.644Y-131.092
X170.644Y-133.632
X170.644Y-136.172
M30
