%TF.GenerationSoftware,KiCad,Pcbnew,8.0.1*%
%TF.CreationDate,2024-04-28T12:45:51+02:00*%
%TF.ProjectId,MainControllerNodeMCU-32S,4d61696e-436f-46e7-9472-6f6c6c65724e,rev?*%
%TF.SameCoordinates,Original*%
%TF.FileFunction,Drillmap*%
%TF.FilePolarity,Positive*%
%FSLAX45Y45*%
G04 Gerber Fmt 4.5, Leading zero omitted, Abs format (unit mm)*
G04 Created by KiCad (PCBNEW 8.0.1) date 2024-04-28 12:45:51*
%MOMM*%
%LPD*%
G01*
G04 APERTURE LIST*
%ADD10C,0.050000*%
%ADD11C,0.200000*%
%ADD12C,0.100000*%
%ADD13C,0.101600*%
G04 APERTURE END LIST*
D10*
X13844680Y-6510380D02*
X17294680Y-6510380D01*
X17294680Y-13910380D01*
X13844680Y-13910380D01*
X13844680Y-6510380D01*
D11*
D12*
X14172180Y-10787880D02*
X14267180Y-10882880D01*
X14267180Y-10787880D02*
X14172180Y-10882880D01*
X14172180Y-11037880D02*
X14267180Y-11132880D01*
X14267180Y-11037880D02*
X14172180Y-11132880D01*
X14172180Y-11287880D02*
X14267180Y-11382880D01*
X14267180Y-11287880D02*
X14172180Y-11382880D01*
X14172180Y-11537880D02*
X14267180Y-11632880D01*
X14267180Y-11537880D02*
X14172180Y-11632880D01*
X14172180Y-12562880D02*
X14267180Y-12657880D01*
X14267180Y-12562880D02*
X14172180Y-12657880D01*
X14172180Y-12812880D02*
X14267180Y-12907880D01*
X14267180Y-12812880D02*
X14172180Y-12907880D01*
X14172180Y-13062880D02*
X14267180Y-13157880D01*
X14267180Y-13062880D02*
X14172180Y-13157880D01*
X14172180Y-13312880D02*
X14267180Y-13407880D01*
X14267180Y-13312880D02*
X14172180Y-13407880D01*
X14277180Y-7012880D02*
X14372180Y-7107880D01*
X14372180Y-7012880D02*
X14277180Y-7107880D01*
X14277180Y-7262880D02*
X14372180Y-7357880D01*
X14372180Y-7262880D02*
X14277180Y-7357880D01*
X14277180Y-7512880D02*
X14372180Y-7607880D01*
X14372180Y-7512880D02*
X14277180Y-7607880D01*
X14277180Y-7762880D02*
X14372180Y-7857880D01*
X14372180Y-7762880D02*
X14277180Y-7857880D01*
X14277180Y-8012880D02*
X14372180Y-8107880D01*
X14372180Y-8012880D02*
X14277180Y-8107880D01*
X14277180Y-9140380D02*
X14372180Y-9235380D01*
X14372180Y-9140380D02*
X14277180Y-9235380D01*
X14277180Y-9390380D02*
X14372180Y-9485380D01*
X14372180Y-9390380D02*
X14277180Y-9485380D01*
X14277180Y-9640380D02*
X14372180Y-9735380D01*
X14372180Y-9640380D02*
X14277180Y-9735380D01*
X14277180Y-9890380D02*
X14372180Y-9985380D01*
X14372180Y-9890380D02*
X14277180Y-9985380D01*
X17044680Y-6820380D02*
G75*
G02*
X16944680Y-6820380I-50000J0D01*
G01*
X16944680Y-6820380D02*
G75*
G02*
X17044680Y-6820380I50000J0D01*
G01*
X17044680Y-7074380D02*
G75*
G02*
X16944680Y-7074380I-50000J0D01*
G01*
X16944680Y-7074380D02*
G75*
G02*
X17044680Y-7074380I50000J0D01*
G01*
X17044680Y-7328380D02*
G75*
G02*
X16944680Y-7328380I-50000J0D01*
G01*
X16944680Y-7328380D02*
G75*
G02*
X17044680Y-7328380I50000J0D01*
G01*
X17044680Y-7582380D02*
G75*
G02*
X16944680Y-7582380I-50000J0D01*
G01*
X16944680Y-7582380D02*
G75*
G02*
X17044680Y-7582380I50000J0D01*
G01*
X17044680Y-7836380D02*
G75*
G02*
X16944680Y-7836380I-50000J0D01*
G01*
X16944680Y-7836380D02*
G75*
G02*
X17044680Y-7836380I50000J0D01*
G01*
X17044680Y-8090380D02*
G75*
G02*
X16944680Y-8090380I-50000J0D01*
G01*
X16944680Y-8090380D02*
G75*
G02*
X17044680Y-8090380I50000J0D01*
G01*
X17044680Y-8344380D02*
G75*
G02*
X16944680Y-8344380I-50000J0D01*
G01*
X16944680Y-8344380D02*
G75*
G02*
X17044680Y-8344380I50000J0D01*
G01*
X17044680Y-8598380D02*
G75*
G02*
X16944680Y-8598380I-50000J0D01*
G01*
X16944680Y-8598380D02*
G75*
G02*
X17044680Y-8598380I50000J0D01*
G01*
D13*
X14778440Y-8994380D02*
X14778440Y-9095980D01*
X14727640Y-9045180D02*
X14829240Y-9045180D01*
X14778440Y-9248380D02*
X14778440Y-9349980D01*
X14727640Y-9299180D02*
X14829240Y-9299180D01*
X14778440Y-9502380D02*
X14778440Y-9603980D01*
X14727640Y-9553180D02*
X14829240Y-9553180D01*
X14778440Y-9756380D02*
X14778440Y-9857980D01*
X14727640Y-9807180D02*
X14829240Y-9807180D01*
X14778440Y-10010380D02*
X14778440Y-10111980D01*
X14727640Y-10061180D02*
X14829240Y-10061180D01*
X14778440Y-10264380D02*
X14778440Y-10365980D01*
X14727640Y-10315180D02*
X14829240Y-10315180D01*
X14778440Y-10518380D02*
X14778440Y-10619980D01*
X14727640Y-10569180D02*
X14829240Y-10569180D01*
X14778440Y-10772380D02*
X14778440Y-10873980D01*
X14727640Y-10823180D02*
X14829240Y-10823180D01*
X14778440Y-11026380D02*
X14778440Y-11127980D01*
X14727640Y-11077180D02*
X14829240Y-11077180D01*
X14778440Y-11280380D02*
X14778440Y-11381980D01*
X14727640Y-11331180D02*
X14829240Y-11331180D01*
X14778440Y-11534380D02*
X14778440Y-11635980D01*
X14727640Y-11585180D02*
X14829240Y-11585180D01*
X14778440Y-11788380D02*
X14778440Y-11889980D01*
X14727640Y-11839180D02*
X14829240Y-11839180D01*
X14778440Y-12042380D02*
X14778440Y-12143980D01*
X14727640Y-12093180D02*
X14829240Y-12093180D01*
X14778440Y-12296380D02*
X14778440Y-12397980D01*
X14727640Y-12347180D02*
X14829240Y-12347180D01*
X14778440Y-12550380D02*
X14778440Y-12651980D01*
X14727640Y-12601180D02*
X14829240Y-12601180D01*
X14778440Y-12804380D02*
X14778440Y-12905980D01*
X14727640Y-12855180D02*
X14829240Y-12855180D01*
X14778440Y-13058380D02*
X14778440Y-13159980D01*
X14727640Y-13109180D02*
X14829240Y-13109180D01*
X14778440Y-13312380D02*
X14778440Y-13413980D01*
X14727640Y-13363180D02*
X14829240Y-13363180D01*
X14778440Y-13566380D02*
X14778440Y-13667980D01*
X14727640Y-13617180D02*
X14829240Y-13617180D01*
X14916000Y-8509580D02*
X14916000Y-8611180D01*
X14865200Y-8560380D02*
X14966800Y-8560380D01*
X15170000Y-8509580D02*
X15170000Y-8611180D01*
X15119200Y-8560380D02*
X15220800Y-8560380D01*
X15424000Y-8509580D02*
X15424000Y-8611180D01*
X15373200Y-8560380D02*
X15474800Y-8560380D01*
X15678000Y-8509580D02*
X15678000Y-8611180D01*
X15627200Y-8560380D02*
X15728800Y-8560380D01*
X15932000Y-8509580D02*
X15932000Y-8611180D01*
X15881200Y-8560380D02*
X15982800Y-8560380D01*
X16186000Y-8509580D02*
X16186000Y-8611180D01*
X16135200Y-8560380D02*
X16236800Y-8560380D01*
X16440000Y-8509580D02*
X16440000Y-8611180D01*
X16389200Y-8560380D02*
X16490800Y-8560380D01*
X17064440Y-8994380D02*
X17064440Y-9095980D01*
X17013640Y-9045180D02*
X17115240Y-9045180D01*
X17064440Y-9248380D02*
X17064440Y-9349980D01*
X17013640Y-9299180D02*
X17115240Y-9299180D01*
X17064440Y-9502380D02*
X17064440Y-9603980D01*
X17013640Y-9553180D02*
X17115240Y-9553180D01*
X17064440Y-9756380D02*
X17064440Y-9857980D01*
X17013640Y-9807180D02*
X17115240Y-9807180D01*
X17064440Y-10010380D02*
X17064440Y-10111980D01*
X17013640Y-10061180D02*
X17115240Y-10061180D01*
X17064440Y-10264380D02*
X17064440Y-10365980D01*
X17013640Y-10315180D02*
X17115240Y-10315180D01*
X17064440Y-10518380D02*
X17064440Y-10619980D01*
X17013640Y-10569180D02*
X17115240Y-10569180D01*
X17064440Y-10772380D02*
X17064440Y-10873980D01*
X17013640Y-10823180D02*
X17115240Y-10823180D01*
X17064440Y-11026380D02*
X17064440Y-11127980D01*
X17013640Y-11077180D02*
X17115240Y-11077180D01*
X17064440Y-11280380D02*
X17064440Y-11381980D01*
X17013640Y-11331180D02*
X17115240Y-11331180D01*
X17064440Y-11534380D02*
X17064440Y-11635980D01*
X17013640Y-11585180D02*
X17115240Y-11585180D01*
X17064440Y-11788380D02*
X17064440Y-11889980D01*
X17013640Y-11839180D02*
X17115240Y-11839180D01*
X17064440Y-12042380D02*
X17064440Y-12143980D01*
X17013640Y-12093180D02*
X17115240Y-12093180D01*
X17064440Y-12296380D02*
X17064440Y-12397980D01*
X17013640Y-12347180D02*
X17115240Y-12347180D01*
X17064440Y-12550380D02*
X17064440Y-12651980D01*
X17013640Y-12601180D02*
X17115240Y-12601180D01*
X17064440Y-12804380D02*
X17064440Y-12905980D01*
X17013640Y-12855180D02*
X17115240Y-12855180D01*
X17064440Y-13058380D02*
X17064440Y-13159980D01*
X17013640Y-13109180D02*
X17115240Y-13109180D01*
X17064440Y-13312380D02*
X17064440Y-13413980D01*
X17013640Y-13363180D02*
X17115240Y-13363180D01*
X17064440Y-13566380D02*
X17064440Y-13667980D01*
X17013640Y-13617180D02*
X17115240Y-13617180D01*
D11*
X14102957Y-14224364D02*
X14102957Y-14024364D01*
X14102957Y-14024364D02*
X14150576Y-14024364D01*
X14150576Y-14024364D02*
X14179147Y-14033888D01*
X14179147Y-14033888D02*
X14198195Y-14052935D01*
X14198195Y-14052935D02*
X14207719Y-14071983D01*
X14207719Y-14071983D02*
X14217242Y-14110078D01*
X14217242Y-14110078D02*
X14217242Y-14138649D01*
X14217242Y-14138649D02*
X14207719Y-14176745D01*
X14207719Y-14176745D02*
X14198195Y-14195792D01*
X14198195Y-14195792D02*
X14179147Y-14214840D01*
X14179147Y-14214840D02*
X14150576Y-14224364D01*
X14150576Y-14224364D02*
X14102957Y-14224364D01*
X14302957Y-14224364D02*
X14302957Y-14091030D01*
X14302957Y-14129126D02*
X14312481Y-14110078D01*
X14312481Y-14110078D02*
X14322004Y-14100554D01*
X14322004Y-14100554D02*
X14341052Y-14091030D01*
X14341052Y-14091030D02*
X14360100Y-14091030D01*
X14426766Y-14224364D02*
X14426766Y-14091030D01*
X14426766Y-14024364D02*
X14417242Y-14033888D01*
X14417242Y-14033888D02*
X14426766Y-14043411D01*
X14426766Y-14043411D02*
X14436290Y-14033888D01*
X14436290Y-14033888D02*
X14426766Y-14024364D01*
X14426766Y-14024364D02*
X14426766Y-14043411D01*
X14550576Y-14224364D02*
X14531528Y-14214840D01*
X14531528Y-14214840D02*
X14522004Y-14195792D01*
X14522004Y-14195792D02*
X14522004Y-14024364D01*
X14655338Y-14224364D02*
X14636290Y-14214840D01*
X14636290Y-14214840D02*
X14626766Y-14195792D01*
X14626766Y-14195792D02*
X14626766Y-14024364D01*
X14883909Y-14224364D02*
X14883909Y-14024364D01*
X14883909Y-14024364D02*
X14950576Y-14167221D01*
X14950576Y-14167221D02*
X15017242Y-14024364D01*
X15017242Y-14024364D02*
X15017242Y-14224364D01*
X15198195Y-14224364D02*
X15198195Y-14119602D01*
X15198195Y-14119602D02*
X15188671Y-14100554D01*
X15188671Y-14100554D02*
X15169623Y-14091030D01*
X15169623Y-14091030D02*
X15131528Y-14091030D01*
X15131528Y-14091030D02*
X15112481Y-14100554D01*
X15198195Y-14214840D02*
X15179147Y-14224364D01*
X15179147Y-14224364D02*
X15131528Y-14224364D01*
X15131528Y-14224364D02*
X15112481Y-14214840D01*
X15112481Y-14214840D02*
X15102957Y-14195792D01*
X15102957Y-14195792D02*
X15102957Y-14176745D01*
X15102957Y-14176745D02*
X15112481Y-14157697D01*
X15112481Y-14157697D02*
X15131528Y-14148173D01*
X15131528Y-14148173D02*
X15179147Y-14148173D01*
X15179147Y-14148173D02*
X15198195Y-14138649D01*
X15293433Y-14091030D02*
X15293433Y-14291030D01*
X15293433Y-14100554D02*
X15312481Y-14091030D01*
X15312481Y-14091030D02*
X15350576Y-14091030D01*
X15350576Y-14091030D02*
X15369623Y-14100554D01*
X15369623Y-14100554D02*
X15379147Y-14110078D01*
X15379147Y-14110078D02*
X15388671Y-14129126D01*
X15388671Y-14129126D02*
X15388671Y-14186268D01*
X15388671Y-14186268D02*
X15379147Y-14205316D01*
X15379147Y-14205316D02*
X15369623Y-14214840D01*
X15369623Y-14214840D02*
X15350576Y-14224364D01*
X15350576Y-14224364D02*
X15312481Y-14224364D01*
X15312481Y-14224364D02*
X15293433Y-14214840D01*
X15474385Y-14205316D02*
X15483909Y-14214840D01*
X15483909Y-14214840D02*
X15474385Y-14224364D01*
X15474385Y-14224364D02*
X15464862Y-14214840D01*
X15464862Y-14214840D02*
X15474385Y-14205316D01*
X15474385Y-14205316D02*
X15474385Y-14224364D01*
X15474385Y-14100554D02*
X15483909Y-14110078D01*
X15483909Y-14110078D02*
X15474385Y-14119602D01*
X15474385Y-14119602D02*
X15464862Y-14110078D01*
X15464862Y-14110078D02*
X15474385Y-14100554D01*
X15474385Y-14100554D02*
X15474385Y-14119602D01*
D12*
X13747180Y-14505380D02*
X13842180Y-14600380D01*
X13842180Y-14505380D02*
X13747180Y-14600380D01*
D11*
X14141052Y-14444364D02*
X14160100Y-14444364D01*
X14160100Y-14444364D02*
X14179147Y-14453888D01*
X14179147Y-14453888D02*
X14188671Y-14463411D01*
X14188671Y-14463411D02*
X14198195Y-14482459D01*
X14198195Y-14482459D02*
X14207719Y-14520554D01*
X14207719Y-14520554D02*
X14207719Y-14568173D01*
X14207719Y-14568173D02*
X14198195Y-14606268D01*
X14198195Y-14606268D02*
X14188671Y-14625316D01*
X14188671Y-14625316D02*
X14179147Y-14634840D01*
X14179147Y-14634840D02*
X14160100Y-14644364D01*
X14160100Y-14644364D02*
X14141052Y-14644364D01*
X14141052Y-14644364D02*
X14122004Y-14634840D01*
X14122004Y-14634840D02*
X14112481Y-14625316D01*
X14112481Y-14625316D02*
X14102957Y-14606268D01*
X14102957Y-14606268D02*
X14093433Y-14568173D01*
X14093433Y-14568173D02*
X14093433Y-14520554D01*
X14093433Y-14520554D02*
X14102957Y-14482459D01*
X14102957Y-14482459D02*
X14112481Y-14463411D01*
X14112481Y-14463411D02*
X14122004Y-14453888D01*
X14122004Y-14453888D02*
X14141052Y-14444364D01*
X14293433Y-14625316D02*
X14302957Y-14634840D01*
X14302957Y-14634840D02*
X14293433Y-14644364D01*
X14293433Y-14644364D02*
X14283909Y-14634840D01*
X14283909Y-14634840D02*
X14293433Y-14625316D01*
X14293433Y-14625316D02*
X14293433Y-14644364D01*
X14398195Y-14644364D02*
X14436290Y-14644364D01*
X14436290Y-14644364D02*
X14455338Y-14634840D01*
X14455338Y-14634840D02*
X14464862Y-14625316D01*
X14464862Y-14625316D02*
X14483909Y-14596745D01*
X14483909Y-14596745D02*
X14493433Y-14558649D01*
X14493433Y-14558649D02*
X14493433Y-14482459D01*
X14493433Y-14482459D02*
X14483909Y-14463411D01*
X14483909Y-14463411D02*
X14474385Y-14453888D01*
X14474385Y-14453888D02*
X14455338Y-14444364D01*
X14455338Y-14444364D02*
X14417242Y-14444364D01*
X14417242Y-14444364D02*
X14398195Y-14453888D01*
X14398195Y-14453888D02*
X14388671Y-14463411D01*
X14388671Y-14463411D02*
X14379147Y-14482459D01*
X14379147Y-14482459D02*
X14379147Y-14530078D01*
X14379147Y-14530078D02*
X14388671Y-14549126D01*
X14388671Y-14549126D02*
X14398195Y-14558649D01*
X14398195Y-14558649D02*
X14417242Y-14568173D01*
X14417242Y-14568173D02*
X14455338Y-14568173D01*
X14455338Y-14568173D02*
X14474385Y-14558649D01*
X14474385Y-14558649D02*
X14483909Y-14549126D01*
X14483909Y-14549126D02*
X14493433Y-14530078D01*
X14674385Y-14444364D02*
X14579147Y-14444364D01*
X14579147Y-14444364D02*
X14569623Y-14539602D01*
X14569623Y-14539602D02*
X14579147Y-14530078D01*
X14579147Y-14530078D02*
X14598195Y-14520554D01*
X14598195Y-14520554D02*
X14645814Y-14520554D01*
X14645814Y-14520554D02*
X14664862Y-14530078D01*
X14664862Y-14530078D02*
X14674385Y-14539602D01*
X14674385Y-14539602D02*
X14683909Y-14558649D01*
X14683909Y-14558649D02*
X14683909Y-14606268D01*
X14683909Y-14606268D02*
X14674385Y-14625316D01*
X14674385Y-14625316D02*
X14664862Y-14634840D01*
X14664862Y-14634840D02*
X14645814Y-14644364D01*
X14645814Y-14644364D02*
X14598195Y-14644364D01*
X14598195Y-14644364D02*
X14579147Y-14634840D01*
X14579147Y-14634840D02*
X14569623Y-14625316D01*
X14807719Y-14444364D02*
X14826766Y-14444364D01*
X14826766Y-14444364D02*
X14845814Y-14453888D01*
X14845814Y-14453888D02*
X14855338Y-14463411D01*
X14855338Y-14463411D02*
X14864862Y-14482459D01*
X14864862Y-14482459D02*
X14874385Y-14520554D01*
X14874385Y-14520554D02*
X14874385Y-14568173D01*
X14874385Y-14568173D02*
X14864862Y-14606268D01*
X14864862Y-14606268D02*
X14855338Y-14625316D01*
X14855338Y-14625316D02*
X14845814Y-14634840D01*
X14845814Y-14634840D02*
X14826766Y-14644364D01*
X14826766Y-14644364D02*
X14807719Y-14644364D01*
X14807719Y-14644364D02*
X14788671Y-14634840D01*
X14788671Y-14634840D02*
X14779147Y-14625316D01*
X14779147Y-14625316D02*
X14769623Y-14606268D01*
X14769623Y-14606268D02*
X14760100Y-14568173D01*
X14760100Y-14568173D02*
X14760100Y-14520554D01*
X14760100Y-14520554D02*
X14769623Y-14482459D01*
X14769623Y-14482459D02*
X14779147Y-14463411D01*
X14779147Y-14463411D02*
X14788671Y-14453888D01*
X14788671Y-14453888D02*
X14807719Y-14444364D01*
X14960100Y-14644364D02*
X14960100Y-14511030D01*
X14960100Y-14530078D02*
X14969623Y-14520554D01*
X14969623Y-14520554D02*
X14988671Y-14511030D01*
X14988671Y-14511030D02*
X15017243Y-14511030D01*
X15017243Y-14511030D02*
X15036290Y-14520554D01*
X15036290Y-14520554D02*
X15045814Y-14539602D01*
X15045814Y-14539602D02*
X15045814Y-14644364D01*
X15045814Y-14539602D02*
X15055338Y-14520554D01*
X15055338Y-14520554D02*
X15074385Y-14511030D01*
X15074385Y-14511030D02*
X15102957Y-14511030D01*
X15102957Y-14511030D02*
X15122004Y-14520554D01*
X15122004Y-14520554D02*
X15131528Y-14539602D01*
X15131528Y-14539602D02*
X15131528Y-14644364D01*
X15226766Y-14644364D02*
X15226766Y-14511030D01*
X15226766Y-14530078D02*
X15236290Y-14520554D01*
X15236290Y-14520554D02*
X15255338Y-14511030D01*
X15255338Y-14511030D02*
X15283909Y-14511030D01*
X15283909Y-14511030D02*
X15302957Y-14520554D01*
X15302957Y-14520554D02*
X15312481Y-14539602D01*
X15312481Y-14539602D02*
X15312481Y-14644364D01*
X15312481Y-14539602D02*
X15322004Y-14520554D01*
X15322004Y-14520554D02*
X15341052Y-14511030D01*
X15341052Y-14511030D02*
X15369623Y-14511030D01*
X15369623Y-14511030D02*
X15388671Y-14520554D01*
X15388671Y-14520554D02*
X15398195Y-14539602D01*
X15398195Y-14539602D02*
X15398195Y-14644364D01*
X15788671Y-14434840D02*
X15617243Y-14691983D01*
X16045814Y-14444364D02*
X16064862Y-14444364D01*
X16064862Y-14444364D02*
X16083909Y-14453888D01*
X16083909Y-14453888D02*
X16093433Y-14463411D01*
X16093433Y-14463411D02*
X16102957Y-14482459D01*
X16102957Y-14482459D02*
X16112481Y-14520554D01*
X16112481Y-14520554D02*
X16112481Y-14568173D01*
X16112481Y-14568173D02*
X16102957Y-14606268D01*
X16102957Y-14606268D02*
X16093433Y-14625316D01*
X16093433Y-14625316D02*
X16083909Y-14634840D01*
X16083909Y-14634840D02*
X16064862Y-14644364D01*
X16064862Y-14644364D02*
X16045814Y-14644364D01*
X16045814Y-14644364D02*
X16026766Y-14634840D01*
X16026766Y-14634840D02*
X16017243Y-14625316D01*
X16017243Y-14625316D02*
X16007719Y-14606268D01*
X16007719Y-14606268D02*
X15998195Y-14568173D01*
X15998195Y-14568173D02*
X15998195Y-14520554D01*
X15998195Y-14520554D02*
X16007719Y-14482459D01*
X16007719Y-14482459D02*
X16017243Y-14463411D01*
X16017243Y-14463411D02*
X16026766Y-14453888D01*
X16026766Y-14453888D02*
X16045814Y-14444364D01*
X16198195Y-14625316D02*
X16207719Y-14634840D01*
X16207719Y-14634840D02*
X16198195Y-14644364D01*
X16198195Y-14644364D02*
X16188671Y-14634840D01*
X16188671Y-14634840D02*
X16198195Y-14625316D01*
X16198195Y-14625316D02*
X16198195Y-14644364D01*
X16331528Y-14444364D02*
X16350576Y-14444364D01*
X16350576Y-14444364D02*
X16369624Y-14453888D01*
X16369624Y-14453888D02*
X16379147Y-14463411D01*
X16379147Y-14463411D02*
X16388671Y-14482459D01*
X16388671Y-14482459D02*
X16398195Y-14520554D01*
X16398195Y-14520554D02*
X16398195Y-14568173D01*
X16398195Y-14568173D02*
X16388671Y-14606268D01*
X16388671Y-14606268D02*
X16379147Y-14625316D01*
X16379147Y-14625316D02*
X16369624Y-14634840D01*
X16369624Y-14634840D02*
X16350576Y-14644364D01*
X16350576Y-14644364D02*
X16331528Y-14644364D01*
X16331528Y-14644364D02*
X16312481Y-14634840D01*
X16312481Y-14634840D02*
X16302957Y-14625316D01*
X16302957Y-14625316D02*
X16293433Y-14606268D01*
X16293433Y-14606268D02*
X16283909Y-14568173D01*
X16283909Y-14568173D02*
X16283909Y-14520554D01*
X16283909Y-14520554D02*
X16293433Y-14482459D01*
X16293433Y-14482459D02*
X16302957Y-14463411D01*
X16302957Y-14463411D02*
X16312481Y-14453888D01*
X16312481Y-14453888D02*
X16331528Y-14444364D01*
X16464862Y-14444364D02*
X16588671Y-14444364D01*
X16588671Y-14444364D02*
X16522005Y-14520554D01*
X16522005Y-14520554D02*
X16550576Y-14520554D01*
X16550576Y-14520554D02*
X16569624Y-14530078D01*
X16569624Y-14530078D02*
X16579147Y-14539602D01*
X16579147Y-14539602D02*
X16588671Y-14558649D01*
X16588671Y-14558649D02*
X16588671Y-14606268D01*
X16588671Y-14606268D02*
X16579147Y-14625316D01*
X16579147Y-14625316D02*
X16569624Y-14634840D01*
X16569624Y-14634840D02*
X16550576Y-14644364D01*
X16550576Y-14644364D02*
X16493433Y-14644364D01*
X16493433Y-14644364D02*
X16474386Y-14634840D01*
X16474386Y-14634840D02*
X16464862Y-14625316D01*
X16655338Y-14444364D02*
X16788671Y-14444364D01*
X16788671Y-14444364D02*
X16702957Y-14644364D01*
X16950576Y-14511030D02*
X16950576Y-14644364D01*
X16902957Y-14434840D02*
X16855338Y-14577697D01*
X16855338Y-14577697D02*
X16979148Y-14577697D01*
X17045814Y-14444364D02*
X17045814Y-14482459D01*
X17122005Y-14444364D02*
X17122005Y-14482459D01*
X17417243Y-14720554D02*
X17407719Y-14711030D01*
X17407719Y-14711030D02*
X17388671Y-14682459D01*
X17388671Y-14682459D02*
X17379148Y-14663411D01*
X17379148Y-14663411D02*
X17369624Y-14634840D01*
X17369624Y-14634840D02*
X17360100Y-14587221D01*
X17360100Y-14587221D02*
X17360100Y-14549126D01*
X17360100Y-14549126D02*
X17369624Y-14501507D01*
X17369624Y-14501507D02*
X17379148Y-14472935D01*
X17379148Y-14472935D02*
X17388671Y-14453888D01*
X17388671Y-14453888D02*
X17407719Y-14425316D01*
X17407719Y-14425316D02*
X17417243Y-14415792D01*
X17598195Y-14644364D02*
X17483910Y-14644364D01*
X17541052Y-14644364D02*
X17541052Y-14444364D01*
X17541052Y-14444364D02*
X17522005Y-14472935D01*
X17522005Y-14472935D02*
X17502957Y-14491983D01*
X17502957Y-14491983D02*
X17483910Y-14501507D01*
X17664862Y-14444364D02*
X17798195Y-14444364D01*
X17798195Y-14444364D02*
X17712481Y-14644364D01*
X18026767Y-14644364D02*
X18026767Y-14444364D01*
X18112481Y-14644364D02*
X18112481Y-14539602D01*
X18112481Y-14539602D02*
X18102957Y-14520554D01*
X18102957Y-14520554D02*
X18083910Y-14511030D01*
X18083910Y-14511030D02*
X18055338Y-14511030D01*
X18055338Y-14511030D02*
X18036291Y-14520554D01*
X18036291Y-14520554D02*
X18026767Y-14530078D01*
X18236291Y-14644364D02*
X18217243Y-14634840D01*
X18217243Y-14634840D02*
X18207719Y-14625316D01*
X18207719Y-14625316D02*
X18198195Y-14606268D01*
X18198195Y-14606268D02*
X18198195Y-14549126D01*
X18198195Y-14549126D02*
X18207719Y-14530078D01*
X18207719Y-14530078D02*
X18217243Y-14520554D01*
X18217243Y-14520554D02*
X18236291Y-14511030D01*
X18236291Y-14511030D02*
X18264862Y-14511030D01*
X18264862Y-14511030D02*
X18283910Y-14520554D01*
X18283910Y-14520554D02*
X18293433Y-14530078D01*
X18293433Y-14530078D02*
X18302957Y-14549126D01*
X18302957Y-14549126D02*
X18302957Y-14606268D01*
X18302957Y-14606268D02*
X18293433Y-14625316D01*
X18293433Y-14625316D02*
X18283910Y-14634840D01*
X18283910Y-14634840D02*
X18264862Y-14644364D01*
X18264862Y-14644364D02*
X18236291Y-14644364D01*
X18417243Y-14644364D02*
X18398195Y-14634840D01*
X18398195Y-14634840D02*
X18388672Y-14615792D01*
X18388672Y-14615792D02*
X18388672Y-14444364D01*
X18569624Y-14634840D02*
X18550576Y-14644364D01*
X18550576Y-14644364D02*
X18512481Y-14644364D01*
X18512481Y-14644364D02*
X18493433Y-14634840D01*
X18493433Y-14634840D02*
X18483910Y-14615792D01*
X18483910Y-14615792D02*
X18483910Y-14539602D01*
X18483910Y-14539602D02*
X18493433Y-14520554D01*
X18493433Y-14520554D02*
X18512481Y-14511030D01*
X18512481Y-14511030D02*
X18550576Y-14511030D01*
X18550576Y-14511030D02*
X18569624Y-14520554D01*
X18569624Y-14520554D02*
X18579148Y-14539602D01*
X18579148Y-14539602D02*
X18579148Y-14558649D01*
X18579148Y-14558649D02*
X18483910Y-14577697D01*
X18655338Y-14634840D02*
X18674386Y-14644364D01*
X18674386Y-14644364D02*
X18712481Y-14644364D01*
X18712481Y-14644364D02*
X18731529Y-14634840D01*
X18731529Y-14634840D02*
X18741053Y-14615792D01*
X18741053Y-14615792D02*
X18741053Y-14606268D01*
X18741053Y-14606268D02*
X18731529Y-14587221D01*
X18731529Y-14587221D02*
X18712481Y-14577697D01*
X18712481Y-14577697D02*
X18683910Y-14577697D01*
X18683910Y-14577697D02*
X18664862Y-14568173D01*
X18664862Y-14568173D02*
X18655338Y-14549126D01*
X18655338Y-14549126D02*
X18655338Y-14539602D01*
X18655338Y-14539602D02*
X18664862Y-14520554D01*
X18664862Y-14520554D02*
X18683910Y-14511030D01*
X18683910Y-14511030D02*
X18712481Y-14511030D01*
X18712481Y-14511030D02*
X18731529Y-14520554D01*
X18807719Y-14720554D02*
X18817243Y-14711030D01*
X18817243Y-14711030D02*
X18836291Y-14682459D01*
X18836291Y-14682459D02*
X18845814Y-14663411D01*
X18845814Y-14663411D02*
X18855338Y-14634840D01*
X18855338Y-14634840D02*
X18864862Y-14587221D01*
X18864862Y-14587221D02*
X18864862Y-14549126D01*
X18864862Y-14549126D02*
X18855338Y-14501507D01*
X18855338Y-14501507D02*
X18845814Y-14472935D01*
X18845814Y-14472935D02*
X18836291Y-14453888D01*
X18836291Y-14453888D02*
X18817243Y-14425316D01*
X18817243Y-14425316D02*
X18807719Y-14415792D01*
D12*
X13842180Y-14816880D02*
G75*
G02*
X13742180Y-14816880I-50000J0D01*
G01*
X13742180Y-14816880D02*
G75*
G02*
X13842180Y-14816880I50000J0D01*
G01*
D11*
X14207719Y-14908364D02*
X14093433Y-14908364D01*
X14150576Y-14908364D02*
X14150576Y-14708364D01*
X14150576Y-14708364D02*
X14131528Y-14736935D01*
X14131528Y-14736935D02*
X14112481Y-14755983D01*
X14112481Y-14755983D02*
X14093433Y-14765507D01*
X14293433Y-14889316D02*
X14302957Y-14898840D01*
X14302957Y-14898840D02*
X14293433Y-14908364D01*
X14293433Y-14908364D02*
X14283909Y-14898840D01*
X14283909Y-14898840D02*
X14293433Y-14889316D01*
X14293433Y-14889316D02*
X14293433Y-14908364D01*
X14426766Y-14708364D02*
X14445814Y-14708364D01*
X14445814Y-14708364D02*
X14464862Y-14717888D01*
X14464862Y-14717888D02*
X14474385Y-14727411D01*
X14474385Y-14727411D02*
X14483909Y-14746459D01*
X14483909Y-14746459D02*
X14493433Y-14784554D01*
X14493433Y-14784554D02*
X14493433Y-14832173D01*
X14493433Y-14832173D02*
X14483909Y-14870268D01*
X14483909Y-14870268D02*
X14474385Y-14889316D01*
X14474385Y-14889316D02*
X14464862Y-14898840D01*
X14464862Y-14898840D02*
X14445814Y-14908364D01*
X14445814Y-14908364D02*
X14426766Y-14908364D01*
X14426766Y-14908364D02*
X14407719Y-14898840D01*
X14407719Y-14898840D02*
X14398195Y-14889316D01*
X14398195Y-14889316D02*
X14388671Y-14870268D01*
X14388671Y-14870268D02*
X14379147Y-14832173D01*
X14379147Y-14832173D02*
X14379147Y-14784554D01*
X14379147Y-14784554D02*
X14388671Y-14746459D01*
X14388671Y-14746459D02*
X14398195Y-14727411D01*
X14398195Y-14727411D02*
X14407719Y-14717888D01*
X14407719Y-14717888D02*
X14426766Y-14708364D01*
X14617242Y-14708364D02*
X14636290Y-14708364D01*
X14636290Y-14708364D02*
X14655338Y-14717888D01*
X14655338Y-14717888D02*
X14664862Y-14727411D01*
X14664862Y-14727411D02*
X14674385Y-14746459D01*
X14674385Y-14746459D02*
X14683909Y-14784554D01*
X14683909Y-14784554D02*
X14683909Y-14832173D01*
X14683909Y-14832173D02*
X14674385Y-14870268D01*
X14674385Y-14870268D02*
X14664862Y-14889316D01*
X14664862Y-14889316D02*
X14655338Y-14898840D01*
X14655338Y-14898840D02*
X14636290Y-14908364D01*
X14636290Y-14908364D02*
X14617242Y-14908364D01*
X14617242Y-14908364D02*
X14598195Y-14898840D01*
X14598195Y-14898840D02*
X14588671Y-14889316D01*
X14588671Y-14889316D02*
X14579147Y-14870268D01*
X14579147Y-14870268D02*
X14569623Y-14832173D01*
X14569623Y-14832173D02*
X14569623Y-14784554D01*
X14569623Y-14784554D02*
X14579147Y-14746459D01*
X14579147Y-14746459D02*
X14588671Y-14727411D01*
X14588671Y-14727411D02*
X14598195Y-14717888D01*
X14598195Y-14717888D02*
X14617242Y-14708364D01*
X14807719Y-14708364D02*
X14826766Y-14708364D01*
X14826766Y-14708364D02*
X14845814Y-14717888D01*
X14845814Y-14717888D02*
X14855338Y-14727411D01*
X14855338Y-14727411D02*
X14864862Y-14746459D01*
X14864862Y-14746459D02*
X14874385Y-14784554D01*
X14874385Y-14784554D02*
X14874385Y-14832173D01*
X14874385Y-14832173D02*
X14864862Y-14870268D01*
X14864862Y-14870268D02*
X14855338Y-14889316D01*
X14855338Y-14889316D02*
X14845814Y-14898840D01*
X14845814Y-14898840D02*
X14826766Y-14908364D01*
X14826766Y-14908364D02*
X14807719Y-14908364D01*
X14807719Y-14908364D02*
X14788671Y-14898840D01*
X14788671Y-14898840D02*
X14779147Y-14889316D01*
X14779147Y-14889316D02*
X14769623Y-14870268D01*
X14769623Y-14870268D02*
X14760100Y-14832173D01*
X14760100Y-14832173D02*
X14760100Y-14784554D01*
X14760100Y-14784554D02*
X14769623Y-14746459D01*
X14769623Y-14746459D02*
X14779147Y-14727411D01*
X14779147Y-14727411D02*
X14788671Y-14717888D01*
X14788671Y-14717888D02*
X14807719Y-14708364D01*
X14960100Y-14908364D02*
X14960100Y-14775030D01*
X14960100Y-14794078D02*
X14969623Y-14784554D01*
X14969623Y-14784554D02*
X14988671Y-14775030D01*
X14988671Y-14775030D02*
X15017243Y-14775030D01*
X15017243Y-14775030D02*
X15036290Y-14784554D01*
X15036290Y-14784554D02*
X15045814Y-14803602D01*
X15045814Y-14803602D02*
X15045814Y-14908364D01*
X15045814Y-14803602D02*
X15055338Y-14784554D01*
X15055338Y-14784554D02*
X15074385Y-14775030D01*
X15074385Y-14775030D02*
X15102957Y-14775030D01*
X15102957Y-14775030D02*
X15122004Y-14784554D01*
X15122004Y-14784554D02*
X15131528Y-14803602D01*
X15131528Y-14803602D02*
X15131528Y-14908364D01*
X15226766Y-14908364D02*
X15226766Y-14775030D01*
X15226766Y-14794078D02*
X15236290Y-14784554D01*
X15236290Y-14784554D02*
X15255338Y-14775030D01*
X15255338Y-14775030D02*
X15283909Y-14775030D01*
X15283909Y-14775030D02*
X15302957Y-14784554D01*
X15302957Y-14784554D02*
X15312481Y-14803602D01*
X15312481Y-14803602D02*
X15312481Y-14908364D01*
X15312481Y-14803602D02*
X15322004Y-14784554D01*
X15322004Y-14784554D02*
X15341052Y-14775030D01*
X15341052Y-14775030D02*
X15369623Y-14775030D01*
X15369623Y-14775030D02*
X15388671Y-14784554D01*
X15388671Y-14784554D02*
X15398195Y-14803602D01*
X15398195Y-14803602D02*
X15398195Y-14908364D01*
X15788671Y-14698840D02*
X15617243Y-14955983D01*
X16045814Y-14708364D02*
X16064862Y-14708364D01*
X16064862Y-14708364D02*
X16083909Y-14717888D01*
X16083909Y-14717888D02*
X16093433Y-14727411D01*
X16093433Y-14727411D02*
X16102957Y-14746459D01*
X16102957Y-14746459D02*
X16112481Y-14784554D01*
X16112481Y-14784554D02*
X16112481Y-14832173D01*
X16112481Y-14832173D02*
X16102957Y-14870268D01*
X16102957Y-14870268D02*
X16093433Y-14889316D01*
X16093433Y-14889316D02*
X16083909Y-14898840D01*
X16083909Y-14898840D02*
X16064862Y-14908364D01*
X16064862Y-14908364D02*
X16045814Y-14908364D01*
X16045814Y-14908364D02*
X16026766Y-14898840D01*
X16026766Y-14898840D02*
X16017243Y-14889316D01*
X16017243Y-14889316D02*
X16007719Y-14870268D01*
X16007719Y-14870268D02*
X15998195Y-14832173D01*
X15998195Y-14832173D02*
X15998195Y-14784554D01*
X15998195Y-14784554D02*
X16007719Y-14746459D01*
X16007719Y-14746459D02*
X16017243Y-14727411D01*
X16017243Y-14727411D02*
X16026766Y-14717888D01*
X16026766Y-14717888D02*
X16045814Y-14708364D01*
X16198195Y-14889316D02*
X16207719Y-14898840D01*
X16207719Y-14898840D02*
X16198195Y-14908364D01*
X16198195Y-14908364D02*
X16188671Y-14898840D01*
X16188671Y-14898840D02*
X16198195Y-14889316D01*
X16198195Y-14889316D02*
X16198195Y-14908364D01*
X16331528Y-14708364D02*
X16350576Y-14708364D01*
X16350576Y-14708364D02*
X16369624Y-14717888D01*
X16369624Y-14717888D02*
X16379147Y-14727411D01*
X16379147Y-14727411D02*
X16388671Y-14746459D01*
X16388671Y-14746459D02*
X16398195Y-14784554D01*
X16398195Y-14784554D02*
X16398195Y-14832173D01*
X16398195Y-14832173D02*
X16388671Y-14870268D01*
X16388671Y-14870268D02*
X16379147Y-14889316D01*
X16379147Y-14889316D02*
X16369624Y-14898840D01*
X16369624Y-14898840D02*
X16350576Y-14908364D01*
X16350576Y-14908364D02*
X16331528Y-14908364D01*
X16331528Y-14908364D02*
X16312481Y-14898840D01*
X16312481Y-14898840D02*
X16302957Y-14889316D01*
X16302957Y-14889316D02*
X16293433Y-14870268D01*
X16293433Y-14870268D02*
X16283909Y-14832173D01*
X16283909Y-14832173D02*
X16283909Y-14784554D01*
X16283909Y-14784554D02*
X16293433Y-14746459D01*
X16293433Y-14746459D02*
X16302957Y-14727411D01*
X16302957Y-14727411D02*
X16312481Y-14717888D01*
X16312481Y-14717888D02*
X16331528Y-14708364D01*
X16464862Y-14708364D02*
X16588671Y-14708364D01*
X16588671Y-14708364D02*
X16522005Y-14784554D01*
X16522005Y-14784554D02*
X16550576Y-14784554D01*
X16550576Y-14784554D02*
X16569624Y-14794078D01*
X16569624Y-14794078D02*
X16579147Y-14803602D01*
X16579147Y-14803602D02*
X16588671Y-14822649D01*
X16588671Y-14822649D02*
X16588671Y-14870268D01*
X16588671Y-14870268D02*
X16579147Y-14889316D01*
X16579147Y-14889316D02*
X16569624Y-14898840D01*
X16569624Y-14898840D02*
X16550576Y-14908364D01*
X16550576Y-14908364D02*
X16493433Y-14908364D01*
X16493433Y-14908364D02*
X16474386Y-14898840D01*
X16474386Y-14898840D02*
X16464862Y-14889316D01*
X16683909Y-14908364D02*
X16722005Y-14908364D01*
X16722005Y-14908364D02*
X16741052Y-14898840D01*
X16741052Y-14898840D02*
X16750576Y-14889316D01*
X16750576Y-14889316D02*
X16769624Y-14860745D01*
X16769624Y-14860745D02*
X16779148Y-14822649D01*
X16779148Y-14822649D02*
X16779148Y-14746459D01*
X16779148Y-14746459D02*
X16769624Y-14727411D01*
X16769624Y-14727411D02*
X16760100Y-14717888D01*
X16760100Y-14717888D02*
X16741052Y-14708364D01*
X16741052Y-14708364D02*
X16702957Y-14708364D01*
X16702957Y-14708364D02*
X16683909Y-14717888D01*
X16683909Y-14717888D02*
X16674386Y-14727411D01*
X16674386Y-14727411D02*
X16664862Y-14746459D01*
X16664862Y-14746459D02*
X16664862Y-14794078D01*
X16664862Y-14794078D02*
X16674386Y-14813126D01*
X16674386Y-14813126D02*
X16683909Y-14822649D01*
X16683909Y-14822649D02*
X16702957Y-14832173D01*
X16702957Y-14832173D02*
X16741052Y-14832173D01*
X16741052Y-14832173D02*
X16760100Y-14822649D01*
X16760100Y-14822649D02*
X16769624Y-14813126D01*
X16769624Y-14813126D02*
X16779148Y-14794078D01*
X16950576Y-14775030D02*
X16950576Y-14908364D01*
X16902957Y-14698840D02*
X16855338Y-14841697D01*
X16855338Y-14841697D02*
X16979148Y-14841697D01*
X17045814Y-14708364D02*
X17045814Y-14746459D01*
X17122005Y-14708364D02*
X17122005Y-14746459D01*
X17417243Y-14984554D02*
X17407719Y-14975030D01*
X17407719Y-14975030D02*
X17388671Y-14946459D01*
X17388671Y-14946459D02*
X17379148Y-14927411D01*
X17379148Y-14927411D02*
X17369624Y-14898840D01*
X17369624Y-14898840D02*
X17360100Y-14851221D01*
X17360100Y-14851221D02*
X17360100Y-14813126D01*
X17360100Y-14813126D02*
X17369624Y-14765507D01*
X17369624Y-14765507D02*
X17379148Y-14736935D01*
X17379148Y-14736935D02*
X17388671Y-14717888D01*
X17388671Y-14717888D02*
X17407719Y-14689316D01*
X17407719Y-14689316D02*
X17417243Y-14679792D01*
X17522005Y-14794078D02*
X17502957Y-14784554D01*
X17502957Y-14784554D02*
X17493433Y-14775030D01*
X17493433Y-14775030D02*
X17483910Y-14755983D01*
X17483910Y-14755983D02*
X17483910Y-14746459D01*
X17483910Y-14746459D02*
X17493433Y-14727411D01*
X17493433Y-14727411D02*
X17502957Y-14717888D01*
X17502957Y-14717888D02*
X17522005Y-14708364D01*
X17522005Y-14708364D02*
X17560100Y-14708364D01*
X17560100Y-14708364D02*
X17579148Y-14717888D01*
X17579148Y-14717888D02*
X17588671Y-14727411D01*
X17588671Y-14727411D02*
X17598195Y-14746459D01*
X17598195Y-14746459D02*
X17598195Y-14755983D01*
X17598195Y-14755983D02*
X17588671Y-14775030D01*
X17588671Y-14775030D02*
X17579148Y-14784554D01*
X17579148Y-14784554D02*
X17560100Y-14794078D01*
X17560100Y-14794078D02*
X17522005Y-14794078D01*
X17522005Y-14794078D02*
X17502957Y-14803602D01*
X17502957Y-14803602D02*
X17493433Y-14813126D01*
X17493433Y-14813126D02*
X17483910Y-14832173D01*
X17483910Y-14832173D02*
X17483910Y-14870268D01*
X17483910Y-14870268D02*
X17493433Y-14889316D01*
X17493433Y-14889316D02*
X17502957Y-14898840D01*
X17502957Y-14898840D02*
X17522005Y-14908364D01*
X17522005Y-14908364D02*
X17560100Y-14908364D01*
X17560100Y-14908364D02*
X17579148Y-14898840D01*
X17579148Y-14898840D02*
X17588671Y-14889316D01*
X17588671Y-14889316D02*
X17598195Y-14870268D01*
X17598195Y-14870268D02*
X17598195Y-14832173D01*
X17598195Y-14832173D02*
X17588671Y-14813126D01*
X17588671Y-14813126D02*
X17579148Y-14803602D01*
X17579148Y-14803602D02*
X17560100Y-14794078D01*
X17836291Y-14908364D02*
X17836291Y-14708364D01*
X17922005Y-14908364D02*
X17922005Y-14803602D01*
X17922005Y-14803602D02*
X17912481Y-14784554D01*
X17912481Y-14784554D02*
X17893433Y-14775030D01*
X17893433Y-14775030D02*
X17864862Y-14775030D01*
X17864862Y-14775030D02*
X17845814Y-14784554D01*
X17845814Y-14784554D02*
X17836291Y-14794078D01*
X18045814Y-14908364D02*
X18026767Y-14898840D01*
X18026767Y-14898840D02*
X18017243Y-14889316D01*
X18017243Y-14889316D02*
X18007719Y-14870268D01*
X18007719Y-14870268D02*
X18007719Y-14813126D01*
X18007719Y-14813126D02*
X18017243Y-14794078D01*
X18017243Y-14794078D02*
X18026767Y-14784554D01*
X18026767Y-14784554D02*
X18045814Y-14775030D01*
X18045814Y-14775030D02*
X18074386Y-14775030D01*
X18074386Y-14775030D02*
X18093433Y-14784554D01*
X18093433Y-14784554D02*
X18102957Y-14794078D01*
X18102957Y-14794078D02*
X18112481Y-14813126D01*
X18112481Y-14813126D02*
X18112481Y-14870268D01*
X18112481Y-14870268D02*
X18102957Y-14889316D01*
X18102957Y-14889316D02*
X18093433Y-14898840D01*
X18093433Y-14898840D02*
X18074386Y-14908364D01*
X18074386Y-14908364D02*
X18045814Y-14908364D01*
X18226767Y-14908364D02*
X18207719Y-14898840D01*
X18207719Y-14898840D02*
X18198195Y-14879792D01*
X18198195Y-14879792D02*
X18198195Y-14708364D01*
X18379148Y-14898840D02*
X18360100Y-14908364D01*
X18360100Y-14908364D02*
X18322005Y-14908364D01*
X18322005Y-14908364D02*
X18302957Y-14898840D01*
X18302957Y-14898840D02*
X18293433Y-14879792D01*
X18293433Y-14879792D02*
X18293433Y-14803602D01*
X18293433Y-14803602D02*
X18302957Y-14784554D01*
X18302957Y-14784554D02*
X18322005Y-14775030D01*
X18322005Y-14775030D02*
X18360100Y-14775030D01*
X18360100Y-14775030D02*
X18379148Y-14784554D01*
X18379148Y-14784554D02*
X18388672Y-14803602D01*
X18388672Y-14803602D02*
X18388672Y-14822649D01*
X18388672Y-14822649D02*
X18293433Y-14841697D01*
X18464862Y-14898840D02*
X18483910Y-14908364D01*
X18483910Y-14908364D02*
X18522005Y-14908364D01*
X18522005Y-14908364D02*
X18541053Y-14898840D01*
X18541053Y-14898840D02*
X18550576Y-14879792D01*
X18550576Y-14879792D02*
X18550576Y-14870268D01*
X18550576Y-14870268D02*
X18541053Y-14851221D01*
X18541053Y-14851221D02*
X18522005Y-14841697D01*
X18522005Y-14841697D02*
X18493433Y-14841697D01*
X18493433Y-14841697D02*
X18474386Y-14832173D01*
X18474386Y-14832173D02*
X18464862Y-14813126D01*
X18464862Y-14813126D02*
X18464862Y-14803602D01*
X18464862Y-14803602D02*
X18474386Y-14784554D01*
X18474386Y-14784554D02*
X18493433Y-14775030D01*
X18493433Y-14775030D02*
X18522005Y-14775030D01*
X18522005Y-14775030D02*
X18541053Y-14784554D01*
X18617243Y-14984554D02*
X18626767Y-14975030D01*
X18626767Y-14975030D02*
X18645814Y-14946459D01*
X18645814Y-14946459D02*
X18655338Y-14927411D01*
X18655338Y-14927411D02*
X18664862Y-14898840D01*
X18664862Y-14898840D02*
X18674386Y-14851221D01*
X18674386Y-14851221D02*
X18674386Y-14813126D01*
X18674386Y-14813126D02*
X18664862Y-14765507D01*
X18664862Y-14765507D02*
X18655338Y-14736935D01*
X18655338Y-14736935D02*
X18645814Y-14717888D01*
X18645814Y-14717888D02*
X18626767Y-14689316D01*
X18626767Y-14689316D02*
X18617243Y-14679792D01*
D13*
X13791380Y-15030080D02*
X13791380Y-15131680D01*
X13740580Y-15080880D02*
X13842180Y-15080880D01*
D11*
X14207719Y-15172364D02*
X14093433Y-15172364D01*
X14150576Y-15172364D02*
X14150576Y-14972364D01*
X14150576Y-14972364D02*
X14131528Y-15000935D01*
X14131528Y-15000935D02*
X14112481Y-15019983D01*
X14112481Y-15019983D02*
X14093433Y-15029507D01*
X14293433Y-15153316D02*
X14302957Y-15162840D01*
X14302957Y-15162840D02*
X14293433Y-15172364D01*
X14293433Y-15172364D02*
X14283909Y-15162840D01*
X14283909Y-15162840D02*
X14293433Y-15153316D01*
X14293433Y-15153316D02*
X14293433Y-15172364D01*
X14426766Y-14972364D02*
X14445814Y-14972364D01*
X14445814Y-14972364D02*
X14464862Y-14981888D01*
X14464862Y-14981888D02*
X14474385Y-14991411D01*
X14474385Y-14991411D02*
X14483909Y-15010459D01*
X14483909Y-15010459D02*
X14493433Y-15048554D01*
X14493433Y-15048554D02*
X14493433Y-15096173D01*
X14493433Y-15096173D02*
X14483909Y-15134268D01*
X14483909Y-15134268D02*
X14474385Y-15153316D01*
X14474385Y-15153316D02*
X14464862Y-15162840D01*
X14464862Y-15162840D02*
X14445814Y-15172364D01*
X14445814Y-15172364D02*
X14426766Y-15172364D01*
X14426766Y-15172364D02*
X14407719Y-15162840D01*
X14407719Y-15162840D02*
X14398195Y-15153316D01*
X14398195Y-15153316D02*
X14388671Y-15134268D01*
X14388671Y-15134268D02*
X14379147Y-15096173D01*
X14379147Y-15096173D02*
X14379147Y-15048554D01*
X14379147Y-15048554D02*
X14388671Y-15010459D01*
X14388671Y-15010459D02*
X14398195Y-14991411D01*
X14398195Y-14991411D02*
X14407719Y-14981888D01*
X14407719Y-14981888D02*
X14426766Y-14972364D01*
X14683909Y-15172364D02*
X14569623Y-15172364D01*
X14626766Y-15172364D02*
X14626766Y-14972364D01*
X14626766Y-14972364D02*
X14607719Y-15000935D01*
X14607719Y-15000935D02*
X14588671Y-15019983D01*
X14588671Y-15019983D02*
X14569623Y-15029507D01*
X14855338Y-14972364D02*
X14817242Y-14972364D01*
X14817242Y-14972364D02*
X14798195Y-14981888D01*
X14798195Y-14981888D02*
X14788671Y-14991411D01*
X14788671Y-14991411D02*
X14769623Y-15019983D01*
X14769623Y-15019983D02*
X14760100Y-15058078D01*
X14760100Y-15058078D02*
X14760100Y-15134268D01*
X14760100Y-15134268D02*
X14769623Y-15153316D01*
X14769623Y-15153316D02*
X14779147Y-15162840D01*
X14779147Y-15162840D02*
X14798195Y-15172364D01*
X14798195Y-15172364D02*
X14836290Y-15172364D01*
X14836290Y-15172364D02*
X14855338Y-15162840D01*
X14855338Y-15162840D02*
X14864862Y-15153316D01*
X14864862Y-15153316D02*
X14874385Y-15134268D01*
X14874385Y-15134268D02*
X14874385Y-15086649D01*
X14874385Y-15086649D02*
X14864862Y-15067602D01*
X14864862Y-15067602D02*
X14855338Y-15058078D01*
X14855338Y-15058078D02*
X14836290Y-15048554D01*
X14836290Y-15048554D02*
X14798195Y-15048554D01*
X14798195Y-15048554D02*
X14779147Y-15058078D01*
X14779147Y-15058078D02*
X14769623Y-15067602D01*
X14769623Y-15067602D02*
X14760100Y-15086649D01*
X14960100Y-15172364D02*
X14960100Y-15039030D01*
X14960100Y-15058078D02*
X14969623Y-15048554D01*
X14969623Y-15048554D02*
X14988671Y-15039030D01*
X14988671Y-15039030D02*
X15017243Y-15039030D01*
X15017243Y-15039030D02*
X15036290Y-15048554D01*
X15036290Y-15048554D02*
X15045814Y-15067602D01*
X15045814Y-15067602D02*
X15045814Y-15172364D01*
X15045814Y-15067602D02*
X15055338Y-15048554D01*
X15055338Y-15048554D02*
X15074385Y-15039030D01*
X15074385Y-15039030D02*
X15102957Y-15039030D01*
X15102957Y-15039030D02*
X15122004Y-15048554D01*
X15122004Y-15048554D02*
X15131528Y-15067602D01*
X15131528Y-15067602D02*
X15131528Y-15172364D01*
X15226766Y-15172364D02*
X15226766Y-15039030D01*
X15226766Y-15058078D02*
X15236290Y-15048554D01*
X15236290Y-15048554D02*
X15255338Y-15039030D01*
X15255338Y-15039030D02*
X15283909Y-15039030D01*
X15283909Y-15039030D02*
X15302957Y-15048554D01*
X15302957Y-15048554D02*
X15312481Y-15067602D01*
X15312481Y-15067602D02*
X15312481Y-15172364D01*
X15312481Y-15067602D02*
X15322004Y-15048554D01*
X15322004Y-15048554D02*
X15341052Y-15039030D01*
X15341052Y-15039030D02*
X15369623Y-15039030D01*
X15369623Y-15039030D02*
X15388671Y-15048554D01*
X15388671Y-15048554D02*
X15398195Y-15067602D01*
X15398195Y-15067602D02*
X15398195Y-15172364D01*
X15788671Y-14962840D02*
X15617243Y-15219983D01*
X16045814Y-14972364D02*
X16064862Y-14972364D01*
X16064862Y-14972364D02*
X16083909Y-14981888D01*
X16083909Y-14981888D02*
X16093433Y-14991411D01*
X16093433Y-14991411D02*
X16102957Y-15010459D01*
X16102957Y-15010459D02*
X16112481Y-15048554D01*
X16112481Y-15048554D02*
X16112481Y-15096173D01*
X16112481Y-15096173D02*
X16102957Y-15134268D01*
X16102957Y-15134268D02*
X16093433Y-15153316D01*
X16093433Y-15153316D02*
X16083909Y-15162840D01*
X16083909Y-15162840D02*
X16064862Y-15172364D01*
X16064862Y-15172364D02*
X16045814Y-15172364D01*
X16045814Y-15172364D02*
X16026766Y-15162840D01*
X16026766Y-15162840D02*
X16017243Y-15153316D01*
X16017243Y-15153316D02*
X16007719Y-15134268D01*
X16007719Y-15134268D02*
X15998195Y-15096173D01*
X15998195Y-15096173D02*
X15998195Y-15048554D01*
X15998195Y-15048554D02*
X16007719Y-15010459D01*
X16007719Y-15010459D02*
X16017243Y-14991411D01*
X16017243Y-14991411D02*
X16026766Y-14981888D01*
X16026766Y-14981888D02*
X16045814Y-14972364D01*
X16198195Y-15153316D02*
X16207719Y-15162840D01*
X16207719Y-15162840D02*
X16198195Y-15172364D01*
X16198195Y-15172364D02*
X16188671Y-15162840D01*
X16188671Y-15162840D02*
X16198195Y-15153316D01*
X16198195Y-15153316D02*
X16198195Y-15172364D01*
X16331528Y-14972364D02*
X16350576Y-14972364D01*
X16350576Y-14972364D02*
X16369624Y-14981888D01*
X16369624Y-14981888D02*
X16379147Y-14991411D01*
X16379147Y-14991411D02*
X16388671Y-15010459D01*
X16388671Y-15010459D02*
X16398195Y-15048554D01*
X16398195Y-15048554D02*
X16398195Y-15096173D01*
X16398195Y-15096173D02*
X16388671Y-15134268D01*
X16388671Y-15134268D02*
X16379147Y-15153316D01*
X16379147Y-15153316D02*
X16369624Y-15162840D01*
X16369624Y-15162840D02*
X16350576Y-15172364D01*
X16350576Y-15172364D02*
X16331528Y-15172364D01*
X16331528Y-15172364D02*
X16312481Y-15162840D01*
X16312481Y-15162840D02*
X16302957Y-15153316D01*
X16302957Y-15153316D02*
X16293433Y-15134268D01*
X16293433Y-15134268D02*
X16283909Y-15096173D01*
X16283909Y-15096173D02*
X16283909Y-15048554D01*
X16283909Y-15048554D02*
X16293433Y-15010459D01*
X16293433Y-15010459D02*
X16302957Y-14991411D01*
X16302957Y-14991411D02*
X16312481Y-14981888D01*
X16312481Y-14981888D02*
X16331528Y-14972364D01*
X16569624Y-15039030D02*
X16569624Y-15172364D01*
X16522005Y-14962840D02*
X16474386Y-15105697D01*
X16474386Y-15105697D02*
X16598195Y-15105697D01*
X16712481Y-14972364D02*
X16731528Y-14972364D01*
X16731528Y-14972364D02*
X16750576Y-14981888D01*
X16750576Y-14981888D02*
X16760100Y-14991411D01*
X16760100Y-14991411D02*
X16769624Y-15010459D01*
X16769624Y-15010459D02*
X16779148Y-15048554D01*
X16779148Y-15048554D02*
X16779148Y-15096173D01*
X16779148Y-15096173D02*
X16769624Y-15134268D01*
X16769624Y-15134268D02*
X16760100Y-15153316D01*
X16760100Y-15153316D02*
X16750576Y-15162840D01*
X16750576Y-15162840D02*
X16731528Y-15172364D01*
X16731528Y-15172364D02*
X16712481Y-15172364D01*
X16712481Y-15172364D02*
X16693433Y-15162840D01*
X16693433Y-15162840D02*
X16683909Y-15153316D01*
X16683909Y-15153316D02*
X16674386Y-15134268D01*
X16674386Y-15134268D02*
X16664862Y-15096173D01*
X16664862Y-15096173D02*
X16664862Y-15048554D01*
X16664862Y-15048554D02*
X16674386Y-15010459D01*
X16674386Y-15010459D02*
X16683909Y-14991411D01*
X16683909Y-14991411D02*
X16693433Y-14981888D01*
X16693433Y-14981888D02*
X16712481Y-14972364D01*
X16902957Y-14972364D02*
X16922005Y-14972364D01*
X16922005Y-14972364D02*
X16941052Y-14981888D01*
X16941052Y-14981888D02*
X16950576Y-14991411D01*
X16950576Y-14991411D02*
X16960100Y-15010459D01*
X16960100Y-15010459D02*
X16969624Y-15048554D01*
X16969624Y-15048554D02*
X16969624Y-15096173D01*
X16969624Y-15096173D02*
X16960100Y-15134268D01*
X16960100Y-15134268D02*
X16950576Y-15153316D01*
X16950576Y-15153316D02*
X16941052Y-15162840D01*
X16941052Y-15162840D02*
X16922005Y-15172364D01*
X16922005Y-15172364D02*
X16902957Y-15172364D01*
X16902957Y-15172364D02*
X16883909Y-15162840D01*
X16883909Y-15162840D02*
X16874386Y-15153316D01*
X16874386Y-15153316D02*
X16864862Y-15134268D01*
X16864862Y-15134268D02*
X16855338Y-15096173D01*
X16855338Y-15096173D02*
X16855338Y-15048554D01*
X16855338Y-15048554D02*
X16864862Y-15010459D01*
X16864862Y-15010459D02*
X16874386Y-14991411D01*
X16874386Y-14991411D02*
X16883909Y-14981888D01*
X16883909Y-14981888D02*
X16902957Y-14972364D01*
X17045814Y-14972364D02*
X17045814Y-15010459D01*
X17122005Y-14972364D02*
X17122005Y-15010459D01*
X17417243Y-15248554D02*
X17407719Y-15239030D01*
X17407719Y-15239030D02*
X17388671Y-15210459D01*
X17388671Y-15210459D02*
X17379148Y-15191411D01*
X17379148Y-15191411D02*
X17369624Y-15162840D01*
X17369624Y-15162840D02*
X17360100Y-15115221D01*
X17360100Y-15115221D02*
X17360100Y-15077126D01*
X17360100Y-15077126D02*
X17369624Y-15029507D01*
X17369624Y-15029507D02*
X17379148Y-15000935D01*
X17379148Y-15000935D02*
X17388671Y-14981888D01*
X17388671Y-14981888D02*
X17407719Y-14953316D01*
X17407719Y-14953316D02*
X17417243Y-14943792D01*
X17579148Y-15039030D02*
X17579148Y-15172364D01*
X17531529Y-14962840D02*
X17483910Y-15105697D01*
X17483910Y-15105697D02*
X17607719Y-15105697D01*
X17779148Y-14972364D02*
X17683910Y-14972364D01*
X17683910Y-14972364D02*
X17674386Y-15067602D01*
X17674386Y-15067602D02*
X17683910Y-15058078D01*
X17683910Y-15058078D02*
X17702957Y-15048554D01*
X17702957Y-15048554D02*
X17750576Y-15048554D01*
X17750576Y-15048554D02*
X17769624Y-15058078D01*
X17769624Y-15058078D02*
X17779148Y-15067602D01*
X17779148Y-15067602D02*
X17788671Y-15086649D01*
X17788671Y-15086649D02*
X17788671Y-15134268D01*
X17788671Y-15134268D02*
X17779148Y-15153316D01*
X17779148Y-15153316D02*
X17769624Y-15162840D01*
X17769624Y-15162840D02*
X17750576Y-15172364D01*
X17750576Y-15172364D02*
X17702957Y-15172364D01*
X17702957Y-15172364D02*
X17683910Y-15162840D01*
X17683910Y-15162840D02*
X17674386Y-15153316D01*
X18026767Y-15172364D02*
X18026767Y-14972364D01*
X18112481Y-15172364D02*
X18112481Y-15067602D01*
X18112481Y-15067602D02*
X18102957Y-15048554D01*
X18102957Y-15048554D02*
X18083910Y-15039030D01*
X18083910Y-15039030D02*
X18055338Y-15039030D01*
X18055338Y-15039030D02*
X18036291Y-15048554D01*
X18036291Y-15048554D02*
X18026767Y-15058078D01*
X18236291Y-15172364D02*
X18217243Y-15162840D01*
X18217243Y-15162840D02*
X18207719Y-15153316D01*
X18207719Y-15153316D02*
X18198195Y-15134268D01*
X18198195Y-15134268D02*
X18198195Y-15077126D01*
X18198195Y-15077126D02*
X18207719Y-15058078D01*
X18207719Y-15058078D02*
X18217243Y-15048554D01*
X18217243Y-15048554D02*
X18236291Y-15039030D01*
X18236291Y-15039030D02*
X18264862Y-15039030D01*
X18264862Y-15039030D02*
X18283910Y-15048554D01*
X18283910Y-15048554D02*
X18293433Y-15058078D01*
X18293433Y-15058078D02*
X18302957Y-15077126D01*
X18302957Y-15077126D02*
X18302957Y-15134268D01*
X18302957Y-15134268D02*
X18293433Y-15153316D01*
X18293433Y-15153316D02*
X18283910Y-15162840D01*
X18283910Y-15162840D02*
X18264862Y-15172364D01*
X18264862Y-15172364D02*
X18236291Y-15172364D01*
X18417243Y-15172364D02*
X18398195Y-15162840D01*
X18398195Y-15162840D02*
X18388672Y-15143792D01*
X18388672Y-15143792D02*
X18388672Y-14972364D01*
X18569624Y-15162840D02*
X18550576Y-15172364D01*
X18550576Y-15172364D02*
X18512481Y-15172364D01*
X18512481Y-15172364D02*
X18493433Y-15162840D01*
X18493433Y-15162840D02*
X18483910Y-15143792D01*
X18483910Y-15143792D02*
X18483910Y-15067602D01*
X18483910Y-15067602D02*
X18493433Y-15048554D01*
X18493433Y-15048554D02*
X18512481Y-15039030D01*
X18512481Y-15039030D02*
X18550576Y-15039030D01*
X18550576Y-15039030D02*
X18569624Y-15048554D01*
X18569624Y-15048554D02*
X18579148Y-15067602D01*
X18579148Y-15067602D02*
X18579148Y-15086649D01*
X18579148Y-15086649D02*
X18483910Y-15105697D01*
X18655338Y-15162840D02*
X18674386Y-15172364D01*
X18674386Y-15172364D02*
X18712481Y-15172364D01*
X18712481Y-15172364D02*
X18731529Y-15162840D01*
X18731529Y-15162840D02*
X18741053Y-15143792D01*
X18741053Y-15143792D02*
X18741053Y-15134268D01*
X18741053Y-15134268D02*
X18731529Y-15115221D01*
X18731529Y-15115221D02*
X18712481Y-15105697D01*
X18712481Y-15105697D02*
X18683910Y-15105697D01*
X18683910Y-15105697D02*
X18664862Y-15096173D01*
X18664862Y-15096173D02*
X18655338Y-15077126D01*
X18655338Y-15077126D02*
X18655338Y-15067602D01*
X18655338Y-15067602D02*
X18664862Y-15048554D01*
X18664862Y-15048554D02*
X18683910Y-15039030D01*
X18683910Y-15039030D02*
X18712481Y-15039030D01*
X18712481Y-15039030D02*
X18731529Y-15048554D01*
X18807719Y-15248554D02*
X18817243Y-15239030D01*
X18817243Y-15239030D02*
X18836291Y-15210459D01*
X18836291Y-15210459D02*
X18845814Y-15191411D01*
X18845814Y-15191411D02*
X18855338Y-15162840D01*
X18855338Y-15162840D02*
X18864862Y-15115221D01*
X18864862Y-15115221D02*
X18864862Y-15077126D01*
X18864862Y-15077126D02*
X18855338Y-15029507D01*
X18855338Y-15029507D02*
X18845814Y-15000935D01*
X18845814Y-15000935D02*
X18836291Y-14981888D01*
X18836291Y-14981888D02*
X18817243Y-14953316D01*
X18817243Y-14953316D02*
X18807719Y-14943792D01*
M02*
