M48
; DRILL file {KiCad 8.0.1} date 2024-04-28T18:39:31+0200
; FORMAT={-:-/ absolute / metric / decimal}
; #@! TF.CreationDate,2024-04-28T18:39:31+02:00
; #@! TF.GenerationSoftware,Kicad,Pcbnew,8.0.1
; #@! TF.FileFunction,Plated,1,2,PTH
FMAT,2
METRIC
; #@! TA.AperFunction,Plated,PTH,ComponentDrill
T1C0.950
; #@! TA.AperFunction,Plated,PTH,ComponentDrill
T2C1.016
%
G90
G05
T1
X112.25Y-116.345
X114.75Y-116.345
X117.25Y-116.345
X119.75Y-116.345
X128.5Y-115.295
X131.0Y-115.295
X133.5Y-115.295
X136.0Y-115.295
X144.7Y-116.345
X147.2Y-116.345
X149.7Y-116.345
X152.2Y-116.345
X160.85Y-115.295
X163.35Y-115.295
X165.85Y-115.295
X168.35Y-115.295
T2
X110.81Y-95.52
X110.81Y-98.06
X110.81Y-100.6
X110.81Y-103.14
X110.81Y-105.68
X131.13Y-103.14
X131.13Y-105.68
X138.75Y-95.52
X138.75Y-98.06
X138.75Y-100.6
X138.75Y-103.14
X138.75Y-105.68
X142.0Y-95.52
X142.0Y-98.06
X142.0Y-100.6
X142.0Y-103.14
X142.0Y-105.68
X162.32Y-103.14
X162.32Y-105.68
X169.94Y-95.52
X169.94Y-98.06
X169.94Y-100.6
X169.94Y-103.14
X169.94Y-105.68
M30
