%TF.GenerationSoftware,KiCad,Pcbnew,8.0.1*%
%TF.CreationDate,2024-04-28T18:39:05+02:00*%
%TF.ProjectId,ScaleModule,5363616c-654d-46f6-9475-6c652e6b6963,v0.1*%
%TF.SameCoordinates,Original*%
%TF.FileFunction,Copper,L2,Bot*%
%TF.FilePolarity,Positive*%
%FSLAX46Y46*%
G04 Gerber Fmt 4.6, Leading zero omitted, Abs format (unit mm)*
G04 Created by KiCad (PCBNEW 8.0.1) date 2024-04-28 18:39:05*
%MOMM*%
%LPD*%
G01*
G04 APERTURE LIST*
G04 Aperture macros list*
%AMRoundRect*
0 Rectangle with rounded corners*
0 $1 Rounding radius*
0 $2 $3 $4 $5 $6 $7 $8 $9 X,Y pos of 4 corners*
0 Add a 4 corners polygon primitive as box body*
4,1,4,$2,$3,$4,$5,$6,$7,$8,$9,$2,$3,0*
0 Add four circle primitives for the rounded corners*
1,1,$1+$1,$2,$3*
1,1,$1+$1,$4,$5*
1,1,$1+$1,$6,$7*
1,1,$1+$1,$8,$9*
0 Add four rect primitives between the rounded corners*
20,1,$1+$1,$2,$3,$4,$5,0*
20,1,$1+$1,$4,$5,$6,$7,0*
20,1,$1+$1,$6,$7,$8,$9,0*
20,1,$1+$1,$8,$9,$2,$3,0*%
G04 Aperture macros list end*
%TA.AperFunction,ComponentPad*%
%ADD10RoundRect,0.250000X-0.600000X-0.725000X0.600000X-0.725000X0.600000X0.725000X-0.600000X0.725000X0*%
%TD*%
%TA.AperFunction,ComponentPad*%
%ADD11O,1.700000X1.950000*%
%TD*%
%TA.AperFunction,ComponentPad*%
%ADD12RoundRect,0.250000X0.600000X0.725000X-0.600000X0.725000X-0.600000X-0.725000X0.600000X-0.725000X0*%
%TD*%
%TA.AperFunction,ComponentPad*%
%ADD13C,1.879600*%
%TD*%
G04 APERTURE END LIST*
D10*
%TO.P,J2_2,1,Pin_1*%
%TO.N,+3.3V*%
X160850000Y-115295000D03*
D11*
%TO.P,J2_2,2,Pin_2*%
%TO.N,Net-(J2_2-Pin_2)*%
X163350000Y-115295000D03*
%TO.P,J2_2,3,Pin_3*%
%TO.N,Net-(J2_2-Pin_3)*%
X165850000Y-115295000D03*
%TO.P,J2_2,4,Pin_4*%
%TO.N,GND*%
X168350000Y-115295000D03*
%TD*%
D12*
%TO.P,J2_1,1,Pin_1*%
%TO.N,Net-(J2_1-Pin_1)*%
X152200000Y-116345000D03*
D11*
%TO.P,J2_1,2,Pin_2*%
%TO.N,Net-(J2_1-Pin_2)*%
X149700000Y-116345000D03*
%TO.P,J2_1,3,Pin_3*%
%TO.N,Net-(J2_1-Pin_3)*%
X147200000Y-116345000D03*
%TO.P,J2_1,4,Pin_4*%
%TO.N,Net-(J2_1-Pin_4)*%
X144700000Y-116345000D03*
%TD*%
D10*
%TO.P,J1_2,1,Pin_1*%
%TO.N,+3.3V*%
X128500000Y-115295000D03*
D11*
%TO.P,J1_2,2,Pin_2*%
%TO.N,Net-(J1_2-Pin_2)*%
X131000000Y-115295000D03*
%TO.P,J1_2,3,Pin_3*%
%TO.N,Net-(J1_2-Pin_3)*%
X133500000Y-115295000D03*
%TO.P,J1_2,4,Pin_4*%
%TO.N,GND*%
X136000000Y-115295000D03*
%TD*%
D12*
%TO.P,J1_1,1,Pin_1*%
%TO.N,Net-(J1_1-Pin_1)*%
X119750000Y-116345000D03*
D11*
%TO.P,J1_1,2,Pin_2*%
%TO.N,Net-(J1_1-Pin_2)*%
X117250000Y-116345000D03*
%TO.P,J1_1,3,Pin_3*%
%TO.N,Net-(J1_1-Pin_3)*%
X114750000Y-116345000D03*
%TO.P,J1_1,4,Pin_4*%
%TO.N,Net-(J1_1-Pin_4)*%
X112250000Y-116345000D03*
%TD*%
D13*
%TO.P,U1,1,RED*%
%TO.N,Net-(J1_1-Pin_1)*%
X110810000Y-95520000D03*
%TO.P,U1,2,BLK*%
%TO.N,Net-(J1_1-Pin_2)*%
X110810000Y-98060000D03*
%TO.P,U1,3,WHT*%
%TO.N,Net-(J1_1-Pin_3)*%
X110810000Y-100600000D03*
%TO.P,U1,4,GRN*%
%TO.N,Net-(J1_1-Pin_4)*%
X110810000Y-103140000D03*
%TO.P,U1,5,YLW*%
%TO.N,unconnected-(U1-YLW-Pad5)*%
X110810000Y-105680000D03*
%TO.P,U1,6,GND*%
%TO.N,GND*%
X138750000Y-105680000D03*
%TO.P,U1,7,CLK*%
%TO.N,Net-(J1_2-Pin_3)*%
X138750000Y-103140000D03*
%TO.P,U1,8,DAT*%
%TO.N,Net-(J1_2-Pin_2)*%
X138750000Y-100600000D03*
%TO.P,U1,9,VCC*%
%TO.N,+3.3V*%
X138750000Y-98060000D03*
%TO.P,U1,10,VDD*%
X138750000Y-95520000D03*
%TO.P,U1,11,B+*%
%TO.N,unconnected-(U1-B+-Pad11)*%
X131130000Y-103140000D03*
%TO.P,U1,12,B-*%
%TO.N,unconnected-(U1-B--Pad12)*%
X131130000Y-105680000D03*
%TD*%
%TO.P,U2,1,RED*%
%TO.N,Net-(J2_1-Pin_1)*%
X142000000Y-95520000D03*
%TO.P,U2,2,BLK*%
%TO.N,Net-(J2_1-Pin_2)*%
X142000000Y-98060000D03*
%TO.P,U2,3,WHT*%
%TO.N,Net-(J2_1-Pin_3)*%
X142000000Y-100600000D03*
%TO.P,U2,4,GRN*%
%TO.N,Net-(J2_1-Pin_4)*%
X142000000Y-103140000D03*
%TO.P,U2,5,YLW*%
%TO.N,unconnected-(U2-YLW-Pad5)*%
X142000000Y-105680000D03*
%TO.P,U2,6,GND*%
%TO.N,GND*%
X169940000Y-105680000D03*
%TO.P,U2,7,CLK*%
%TO.N,Net-(J2_2-Pin_3)*%
X169940000Y-103140000D03*
%TO.P,U2,8,DAT*%
%TO.N,Net-(J2_2-Pin_2)*%
X169940000Y-100600000D03*
%TO.P,U2,9,VCC*%
%TO.N,+3.3V*%
X169940000Y-98060000D03*
%TO.P,U2,10,VDD*%
X169940000Y-95520000D03*
%TO.P,U2,11,B+*%
%TO.N,unconnected-(U2-B+-Pad11)*%
X162320000Y-103140000D03*
%TO.P,U2,12,B-*%
%TO.N,unconnected-(U2-B--Pad12)*%
X162320000Y-105680000D03*
%TD*%
%TA.AperFunction,Conductor*%
%TO.N,GND*%
G36*
X171042539Y-89340185D02*
G01*
X171088294Y-89392989D01*
X171099500Y-89444500D01*
X171099500Y-94343678D01*
X171079815Y-94410717D01*
X171027011Y-94456472D01*
X170957853Y-94466416D01*
X170899338Y-94441532D01*
X170730470Y-94310098D01*
X170730469Y-94310097D01*
X170634152Y-94257972D01*
X170520546Y-94196491D01*
X170520541Y-94196489D01*
X170294786Y-94118988D01*
X170137826Y-94092796D01*
X170059347Y-94079700D01*
X169820653Y-94079700D01*
X169761793Y-94089522D01*
X169585213Y-94118988D01*
X169359458Y-94196489D01*
X169359453Y-94196491D01*
X169149529Y-94310098D01*
X168961169Y-94456704D01*
X168799506Y-94632317D01*
X168668951Y-94832147D01*
X168573070Y-95050732D01*
X168514475Y-95282118D01*
X168514473Y-95282130D01*
X168494764Y-95519994D01*
X168494764Y-95520005D01*
X168514473Y-95757869D01*
X168514475Y-95757881D01*
X168573070Y-95989267D01*
X168668951Y-96207852D01*
X168668953Y-96207856D01*
X168799506Y-96407682D01*
X168961168Y-96583295D01*
X168961171Y-96583297D01*
X168961174Y-96583300D01*
X169101020Y-96692147D01*
X169141833Y-96748857D01*
X169145508Y-96818630D01*
X169110876Y-96879313D01*
X169101020Y-96887853D01*
X168961174Y-96996699D01*
X168961171Y-96996702D01*
X168799506Y-97172317D01*
X168668951Y-97372147D01*
X168573070Y-97590732D01*
X168514475Y-97822118D01*
X168514473Y-97822130D01*
X168494764Y-98059994D01*
X168494764Y-98060005D01*
X168514473Y-98297869D01*
X168514475Y-98297881D01*
X168573070Y-98529267D01*
X168668951Y-98747852D01*
X168668953Y-98747856D01*
X168799506Y-98947682D01*
X168961168Y-99123295D01*
X168961171Y-99123297D01*
X168961174Y-99123300D01*
X169101020Y-99232147D01*
X169141833Y-99288857D01*
X169145508Y-99358630D01*
X169110876Y-99419313D01*
X169101020Y-99427853D01*
X168961174Y-99536699D01*
X168961171Y-99536702D01*
X168799506Y-99712317D01*
X168668951Y-99912147D01*
X168573070Y-100130732D01*
X168514475Y-100362118D01*
X168514473Y-100362130D01*
X168494764Y-100599994D01*
X168494764Y-100600005D01*
X168514473Y-100837869D01*
X168514475Y-100837881D01*
X168573070Y-101069267D01*
X168668951Y-101287852D01*
X168668953Y-101287856D01*
X168799506Y-101487682D01*
X168961168Y-101663295D01*
X168961171Y-101663297D01*
X168961174Y-101663300D01*
X169101020Y-101772147D01*
X169141833Y-101828857D01*
X169145508Y-101898630D01*
X169110876Y-101959313D01*
X169101020Y-101967853D01*
X168961174Y-102076699D01*
X168961171Y-102076702D01*
X168799506Y-102252317D01*
X168668951Y-102452147D01*
X168573070Y-102670732D01*
X168514475Y-102902118D01*
X168514473Y-102902130D01*
X168494764Y-103139994D01*
X168494764Y-103140005D01*
X168514473Y-103377869D01*
X168514475Y-103377881D01*
X168573070Y-103609267D01*
X168668951Y-103827852D01*
X168668953Y-103827856D01*
X168799506Y-104027682D01*
X168961168Y-104203295D01*
X169101426Y-104312462D01*
X169142239Y-104369172D01*
X169145914Y-104438945D01*
X169113006Y-104496608D01*
X169112839Y-104499286D01*
X169804058Y-105190504D01*
X169743919Y-105206619D01*
X169628080Y-105273498D01*
X169533498Y-105368080D01*
X169466619Y-105483919D01*
X169450504Y-105544058D01*
X168760056Y-104853610D01*
X168669392Y-104992383D01*
X168669390Y-104992387D01*
X168573545Y-105210895D01*
X168514969Y-105442203D01*
X168514967Y-105442211D01*
X168495265Y-105679993D01*
X168495265Y-105680006D01*
X168514967Y-105917788D01*
X168514969Y-105917796D01*
X168573545Y-106149104D01*
X168669392Y-106367617D01*
X168760055Y-106506388D01*
X169450504Y-105815940D01*
X169466619Y-105876081D01*
X169533498Y-105991920D01*
X169628080Y-106086502D01*
X169743919Y-106153381D01*
X169804057Y-106169495D01*
X169112840Y-106860712D01*
X169112840Y-106860713D01*
X169149802Y-106889482D01*
X169149807Y-106889485D01*
X169359650Y-107003046D01*
X169359660Y-107003051D01*
X169585335Y-107080525D01*
X169820696Y-107119800D01*
X170059304Y-107119800D01*
X170294664Y-107080525D01*
X170520339Y-107003051D01*
X170520349Y-107003046D01*
X170730191Y-106889486D01*
X170730197Y-106889481D01*
X170767158Y-106860713D01*
X170767159Y-106860711D01*
X170075942Y-106169494D01*
X170136081Y-106153381D01*
X170251920Y-106086502D01*
X170346502Y-105991920D01*
X170413381Y-105876081D01*
X170429495Y-105815941D01*
X171063181Y-106449627D01*
X171096666Y-106510950D01*
X171099500Y-106537308D01*
X171099500Y-118595500D01*
X171079815Y-118662539D01*
X171027011Y-118708294D01*
X170975500Y-118719500D01*
X109824500Y-118719500D01*
X109757461Y-118699815D01*
X109711706Y-118647011D01*
X109700500Y-118595500D01*
X109700500Y-116576286D01*
X110899500Y-116576286D01*
X110932753Y-116786239D01*
X110998444Y-116988414D01*
X111094951Y-117177820D01*
X111219890Y-117349786D01*
X111370213Y-117500109D01*
X111542179Y-117625048D01*
X111542181Y-117625049D01*
X111542184Y-117625051D01*
X111731588Y-117721557D01*
X111933757Y-117787246D01*
X112143713Y-117820500D01*
X112143714Y-117820500D01*
X112356286Y-117820500D01*
X112356287Y-117820500D01*
X112566243Y-117787246D01*
X112768412Y-117721557D01*
X112957816Y-117625051D01*
X112979789Y-117609086D01*
X113129786Y-117500109D01*
X113129788Y-117500106D01*
X113129792Y-117500104D01*
X113280104Y-117349792D01*
X113399683Y-117185204D01*
X113455011Y-117142540D01*
X113524624Y-117136561D01*
X113586420Y-117169166D01*
X113600313Y-117185199D01*
X113703925Y-117327809D01*
X113719896Y-117349792D01*
X113870213Y-117500109D01*
X114042179Y-117625048D01*
X114042181Y-117625049D01*
X114042184Y-117625051D01*
X114231588Y-117721557D01*
X114433757Y-117787246D01*
X114643713Y-117820500D01*
X114643714Y-117820500D01*
X114856286Y-117820500D01*
X114856287Y-117820500D01*
X115066243Y-117787246D01*
X115268412Y-117721557D01*
X115457816Y-117625051D01*
X115479789Y-117609086D01*
X115629786Y-117500109D01*
X115629788Y-117500106D01*
X115629792Y-117500104D01*
X115780104Y-117349792D01*
X115899683Y-117185204D01*
X115955011Y-117142540D01*
X116024624Y-117136561D01*
X116086420Y-117169166D01*
X116100313Y-117185199D01*
X116203925Y-117327809D01*
X116219896Y-117349792D01*
X116370213Y-117500109D01*
X116542179Y-117625048D01*
X116542181Y-117625049D01*
X116542184Y-117625051D01*
X116731588Y-117721557D01*
X116933757Y-117787246D01*
X117143713Y-117820500D01*
X117143714Y-117820500D01*
X117356286Y-117820500D01*
X117356287Y-117820500D01*
X117566243Y-117787246D01*
X117768412Y-117721557D01*
X117957816Y-117625051D01*
X118129792Y-117500104D01*
X118268604Y-117361291D01*
X118329923Y-117327809D01*
X118399615Y-117332793D01*
X118455549Y-117374664D01*
X118461821Y-117383878D01*
X118465185Y-117389333D01*
X118465186Y-117389334D01*
X118557288Y-117538656D01*
X118681344Y-117662712D01*
X118830666Y-117754814D01*
X118997203Y-117809999D01*
X119099991Y-117820500D01*
X120400008Y-117820499D01*
X120502797Y-117809999D01*
X120669334Y-117754814D01*
X120818656Y-117662712D01*
X120942712Y-117538656D01*
X121034814Y-117389334D01*
X121089999Y-117222797D01*
X121100500Y-117120009D01*
X121100499Y-116070001D01*
X127149500Y-116070001D01*
X127149501Y-116070018D01*
X127160000Y-116172796D01*
X127160001Y-116172799D01*
X127205894Y-116311294D01*
X127215186Y-116339334D01*
X127307288Y-116488656D01*
X127431344Y-116612712D01*
X127580666Y-116704814D01*
X127747203Y-116759999D01*
X127849991Y-116770500D01*
X129150008Y-116770499D01*
X129252797Y-116759999D01*
X129419334Y-116704814D01*
X129568656Y-116612712D01*
X129692712Y-116488656D01*
X129784814Y-116339334D01*
X129784814Y-116339331D01*
X129788178Y-116333879D01*
X129840126Y-116287154D01*
X129909088Y-116275931D01*
X129973170Y-116303774D01*
X129981398Y-116311294D01*
X130120213Y-116450109D01*
X130292179Y-116575048D01*
X130292181Y-116575049D01*
X130292184Y-116575051D01*
X130481588Y-116671557D01*
X130683757Y-116737246D01*
X130893713Y-116770500D01*
X130893714Y-116770500D01*
X131106286Y-116770500D01*
X131106287Y-116770500D01*
X131316243Y-116737246D01*
X131518412Y-116671557D01*
X131707816Y-116575051D01*
X131729789Y-116559086D01*
X131879786Y-116450109D01*
X131879788Y-116450106D01*
X131879792Y-116450104D01*
X132030104Y-116299792D01*
X132149683Y-116135204D01*
X132205011Y-116092540D01*
X132274624Y-116086561D01*
X132336420Y-116119166D01*
X132350313Y-116135199D01*
X132452560Y-116275931D01*
X132469896Y-116299792D01*
X132620213Y-116450109D01*
X132792179Y-116575048D01*
X132792181Y-116575049D01*
X132792184Y-116575051D01*
X132981588Y-116671557D01*
X133183757Y-116737246D01*
X133393713Y-116770500D01*
X133393714Y-116770500D01*
X133606286Y-116770500D01*
X133606287Y-116770500D01*
X133816243Y-116737246D01*
X134018412Y-116671557D01*
X134207816Y-116575051D01*
X134229789Y-116559086D01*
X134379786Y-116450109D01*
X134379788Y-116450106D01*
X134379792Y-116450104D01*
X134530104Y-116299792D01*
X134649991Y-116134779D01*
X134705320Y-116092115D01*
X134774933Y-116086136D01*
X134836729Y-116118741D01*
X134850627Y-116134781D01*
X134970272Y-116299459D01*
X134970276Y-116299464D01*
X135120535Y-116449723D01*
X135120540Y-116449727D01*
X135292442Y-116574620D01*
X135481782Y-116671095D01*
X135683871Y-116736757D01*
X135750000Y-116747231D01*
X135750000Y-115699145D01*
X135816657Y-115737630D01*
X135937465Y-115770000D01*
X136062535Y-115770000D01*
X136183343Y-115737630D01*
X136250000Y-115699145D01*
X136250000Y-116747230D01*
X136316126Y-116736757D01*
X136316129Y-116736757D01*
X136518217Y-116671095D01*
X136704287Y-116576286D01*
X143349500Y-116576286D01*
X143382753Y-116786239D01*
X143448444Y-116988414D01*
X143544951Y-117177820D01*
X143669890Y-117349786D01*
X143820213Y-117500109D01*
X143992179Y-117625048D01*
X143992181Y-117625049D01*
X143992184Y-117625051D01*
X144181588Y-117721557D01*
X144383757Y-117787246D01*
X144593713Y-117820500D01*
X144593714Y-117820500D01*
X144806286Y-117820500D01*
X144806287Y-117820500D01*
X145016243Y-117787246D01*
X145218412Y-117721557D01*
X145407816Y-117625051D01*
X145429789Y-117609086D01*
X145579786Y-117500109D01*
X145579788Y-117500106D01*
X145579792Y-117500104D01*
X145730104Y-117349792D01*
X145849683Y-117185204D01*
X145905011Y-117142540D01*
X145974624Y-117136561D01*
X146036420Y-117169166D01*
X146050313Y-117185199D01*
X146153925Y-117327809D01*
X146169896Y-117349792D01*
X146320213Y-117500109D01*
X146492179Y-117625048D01*
X146492181Y-117625049D01*
X146492184Y-117625051D01*
X146681588Y-117721557D01*
X146883757Y-117787246D01*
X147093713Y-117820500D01*
X147093714Y-117820500D01*
X147306286Y-117820500D01*
X147306287Y-117820500D01*
X147516243Y-117787246D01*
X147718412Y-117721557D01*
X147907816Y-117625051D01*
X147929789Y-117609086D01*
X148079786Y-117500109D01*
X148079788Y-117500106D01*
X148079792Y-117500104D01*
X148230104Y-117349792D01*
X148349683Y-117185204D01*
X148405011Y-117142540D01*
X148474624Y-117136561D01*
X148536420Y-117169166D01*
X148550313Y-117185199D01*
X148653925Y-117327809D01*
X148669896Y-117349792D01*
X148820213Y-117500109D01*
X148992179Y-117625048D01*
X148992181Y-117625049D01*
X148992184Y-117625051D01*
X149181588Y-117721557D01*
X149383757Y-117787246D01*
X149593713Y-117820500D01*
X149593714Y-117820500D01*
X149806286Y-117820500D01*
X149806287Y-117820500D01*
X150016243Y-117787246D01*
X150218412Y-117721557D01*
X150407816Y-117625051D01*
X150579792Y-117500104D01*
X150718604Y-117361291D01*
X150779923Y-117327809D01*
X150849615Y-117332793D01*
X150905549Y-117374664D01*
X150911821Y-117383878D01*
X150915185Y-117389333D01*
X150915186Y-117389334D01*
X151007288Y-117538656D01*
X151131344Y-117662712D01*
X151280666Y-117754814D01*
X151447203Y-117809999D01*
X151549991Y-117820500D01*
X152850008Y-117820499D01*
X152952797Y-117809999D01*
X153119334Y-117754814D01*
X153268656Y-117662712D01*
X153392712Y-117538656D01*
X153484814Y-117389334D01*
X153539999Y-117222797D01*
X153550500Y-117120009D01*
X153550499Y-116070001D01*
X159499500Y-116070001D01*
X159499501Y-116070018D01*
X159510000Y-116172796D01*
X159510001Y-116172799D01*
X159555894Y-116311294D01*
X159565186Y-116339334D01*
X159657288Y-116488656D01*
X159781344Y-116612712D01*
X159930666Y-116704814D01*
X160097203Y-116759999D01*
X160199991Y-116770500D01*
X161500008Y-116770499D01*
X161602797Y-116759999D01*
X161769334Y-116704814D01*
X161918656Y-116612712D01*
X162042712Y-116488656D01*
X162134814Y-116339334D01*
X162134814Y-116339331D01*
X162138178Y-116333879D01*
X162190126Y-116287154D01*
X162259088Y-116275931D01*
X162323170Y-116303774D01*
X162331398Y-116311294D01*
X162470213Y-116450109D01*
X162642179Y-116575048D01*
X162642181Y-116575049D01*
X162642184Y-116575051D01*
X162831588Y-116671557D01*
X163033757Y-116737246D01*
X163243713Y-116770500D01*
X163243714Y-116770500D01*
X163456286Y-116770500D01*
X163456287Y-116770500D01*
X163666243Y-116737246D01*
X163868412Y-116671557D01*
X164057816Y-116575051D01*
X164079789Y-116559086D01*
X164229786Y-116450109D01*
X164229788Y-116450106D01*
X164229792Y-116450104D01*
X164380104Y-116299792D01*
X164499683Y-116135204D01*
X164555011Y-116092540D01*
X164624624Y-116086561D01*
X164686420Y-116119166D01*
X164700313Y-116135199D01*
X164802560Y-116275931D01*
X164819896Y-116299792D01*
X164970213Y-116450109D01*
X165142179Y-116575048D01*
X165142181Y-116575049D01*
X165142184Y-116575051D01*
X165331588Y-116671557D01*
X165533757Y-116737246D01*
X165743713Y-116770500D01*
X165743714Y-116770500D01*
X165956286Y-116770500D01*
X165956287Y-116770500D01*
X166166243Y-116737246D01*
X166368412Y-116671557D01*
X166557816Y-116575051D01*
X166579789Y-116559086D01*
X166729786Y-116450109D01*
X166729788Y-116450106D01*
X166729792Y-116450104D01*
X166880104Y-116299792D01*
X166999991Y-116134779D01*
X167055320Y-116092115D01*
X167124933Y-116086136D01*
X167186729Y-116118741D01*
X167200627Y-116134781D01*
X167320272Y-116299459D01*
X167320276Y-116299464D01*
X167470535Y-116449723D01*
X167470540Y-116449727D01*
X167642442Y-116574620D01*
X167831782Y-116671095D01*
X168033871Y-116736757D01*
X168100000Y-116747231D01*
X168100000Y-115699145D01*
X168166657Y-115737630D01*
X168287465Y-115770000D01*
X168412535Y-115770000D01*
X168533343Y-115737630D01*
X168600000Y-115699145D01*
X168600000Y-116747230D01*
X168666126Y-116736757D01*
X168666129Y-116736757D01*
X168868217Y-116671095D01*
X169057557Y-116574620D01*
X169229459Y-116449727D01*
X169229464Y-116449723D01*
X169379723Y-116299464D01*
X169379727Y-116299459D01*
X169504620Y-116127557D01*
X169601095Y-115938217D01*
X169666757Y-115736130D01*
X169666757Y-115736127D01*
X169697030Y-115545000D01*
X168754146Y-115545000D01*
X168792630Y-115478343D01*
X168825000Y-115357535D01*
X168825000Y-115232465D01*
X168792630Y-115111657D01*
X168754146Y-115045000D01*
X169697030Y-115045000D01*
X169666757Y-114853872D01*
X169666757Y-114853869D01*
X169601095Y-114651782D01*
X169504620Y-114462442D01*
X169379727Y-114290540D01*
X169379723Y-114290535D01*
X169229464Y-114140276D01*
X169229459Y-114140272D01*
X169057557Y-114015379D01*
X168868215Y-113918903D01*
X168666124Y-113853241D01*
X168600000Y-113842768D01*
X168600000Y-114890854D01*
X168533343Y-114852370D01*
X168412535Y-114820000D01*
X168287465Y-114820000D01*
X168166657Y-114852370D01*
X168100000Y-114890854D01*
X168100000Y-113842768D01*
X168099999Y-113842768D01*
X168033875Y-113853241D01*
X167831784Y-113918903D01*
X167642442Y-114015379D01*
X167470540Y-114140272D01*
X167470535Y-114140276D01*
X167320276Y-114290535D01*
X167320272Y-114290540D01*
X167200627Y-114455218D01*
X167145297Y-114497884D01*
X167075684Y-114503863D01*
X167013889Y-114471257D01*
X166999991Y-114455218D01*
X166880109Y-114290214D01*
X166880105Y-114290209D01*
X166729786Y-114139890D01*
X166557820Y-114014951D01*
X166368414Y-113918444D01*
X166368413Y-113918443D01*
X166368412Y-113918443D01*
X166166243Y-113852754D01*
X166166241Y-113852753D01*
X166166240Y-113852753D01*
X166004957Y-113827208D01*
X165956287Y-113819500D01*
X165743713Y-113819500D01*
X165695042Y-113827208D01*
X165533760Y-113852753D01*
X165331585Y-113918444D01*
X165142179Y-114014951D01*
X164970213Y-114139890D01*
X164819894Y-114290209D01*
X164819890Y-114290214D01*
X164700318Y-114454793D01*
X164644989Y-114497459D01*
X164575375Y-114503438D01*
X164513580Y-114470833D01*
X164499682Y-114454793D01*
X164380109Y-114290214D01*
X164380105Y-114290209D01*
X164229786Y-114139890D01*
X164057820Y-114014951D01*
X163868414Y-113918444D01*
X163868413Y-113918443D01*
X163868412Y-113918443D01*
X163666243Y-113852754D01*
X163666241Y-113852753D01*
X163666240Y-113852753D01*
X163504957Y-113827208D01*
X163456287Y-113819500D01*
X163243713Y-113819500D01*
X163195042Y-113827208D01*
X163033760Y-113852753D01*
X162831585Y-113918444D01*
X162642179Y-114014951D01*
X162470215Y-114139889D01*
X162331398Y-114278706D01*
X162270075Y-114312190D01*
X162200383Y-114307206D01*
X162144450Y-114265334D01*
X162138178Y-114256120D01*
X162042712Y-114101344D01*
X161918657Y-113977289D01*
X161918656Y-113977288D01*
X161769334Y-113885186D01*
X161602797Y-113830001D01*
X161602795Y-113830000D01*
X161500010Y-113819500D01*
X160199998Y-113819500D01*
X160199981Y-113819501D01*
X160097203Y-113830000D01*
X160097200Y-113830001D01*
X159930668Y-113885185D01*
X159930663Y-113885187D01*
X159781342Y-113977289D01*
X159657289Y-114101342D01*
X159565187Y-114250663D01*
X159565185Y-114250668D01*
X159560325Y-114265334D01*
X159510001Y-114417203D01*
X159510001Y-114417204D01*
X159510000Y-114417204D01*
X159499500Y-114519983D01*
X159499500Y-116070001D01*
X153550499Y-116070001D01*
X153550499Y-115569992D01*
X153546034Y-115526287D01*
X153539999Y-115467203D01*
X153539998Y-115467200D01*
X153505823Y-115364068D01*
X153484814Y-115300666D01*
X153392712Y-115151344D01*
X153268656Y-115027288D01*
X153119334Y-114935186D01*
X152952797Y-114880001D01*
X152952795Y-114880000D01*
X152850010Y-114869500D01*
X151549998Y-114869500D01*
X151549981Y-114869501D01*
X151447203Y-114880000D01*
X151447200Y-114880001D01*
X151280668Y-114935185D01*
X151280663Y-114935187D01*
X151131342Y-115027289D01*
X151007289Y-115151342D01*
X150911821Y-115306121D01*
X150859873Y-115352845D01*
X150790910Y-115364068D01*
X150726828Y-115336224D01*
X150718601Y-115328705D01*
X150579786Y-115189890D01*
X150407820Y-115064951D01*
X150218414Y-114968444D01*
X150218413Y-114968443D01*
X150218412Y-114968443D01*
X150016243Y-114902754D01*
X150016241Y-114902753D01*
X150016240Y-114902753D01*
X149854957Y-114877208D01*
X149806287Y-114869500D01*
X149593713Y-114869500D01*
X149545042Y-114877208D01*
X149383760Y-114902753D01*
X149181585Y-114968444D01*
X148992179Y-115064951D01*
X148820213Y-115189890D01*
X148669894Y-115340209D01*
X148669890Y-115340214D01*
X148550318Y-115504793D01*
X148494989Y-115547459D01*
X148425375Y-115553438D01*
X148363580Y-115520833D01*
X148349682Y-115504793D01*
X148230109Y-115340214D01*
X148230105Y-115340209D01*
X148079786Y-115189890D01*
X147907820Y-115064951D01*
X147718414Y-114968444D01*
X147718413Y-114968443D01*
X147718412Y-114968443D01*
X147516243Y-114902754D01*
X147516241Y-114902753D01*
X147516240Y-114902753D01*
X147354957Y-114877208D01*
X147306287Y-114869500D01*
X147093713Y-114869500D01*
X147045042Y-114877208D01*
X146883760Y-114902753D01*
X146681585Y-114968444D01*
X146492179Y-115064951D01*
X146320213Y-115189890D01*
X146169894Y-115340209D01*
X146169890Y-115340214D01*
X146050318Y-115504793D01*
X145994989Y-115547459D01*
X145925375Y-115553438D01*
X145863580Y-115520833D01*
X145849682Y-115504793D01*
X145730109Y-115340214D01*
X145730105Y-115340209D01*
X145579786Y-115189890D01*
X145407820Y-115064951D01*
X145218414Y-114968444D01*
X145218413Y-114968443D01*
X145218412Y-114968443D01*
X145016243Y-114902754D01*
X145016241Y-114902753D01*
X145016240Y-114902753D01*
X144854957Y-114877208D01*
X144806287Y-114869500D01*
X144593713Y-114869500D01*
X144545042Y-114877208D01*
X144383760Y-114902753D01*
X144181585Y-114968444D01*
X143992179Y-115064951D01*
X143820213Y-115189890D01*
X143669890Y-115340213D01*
X143544951Y-115512179D01*
X143448444Y-115701585D01*
X143382753Y-115903760D01*
X143349500Y-116113713D01*
X143349500Y-116576286D01*
X136704287Y-116576286D01*
X136707557Y-116574620D01*
X136879459Y-116449727D01*
X136879464Y-116449723D01*
X137029723Y-116299464D01*
X137029727Y-116299459D01*
X137154620Y-116127557D01*
X137251095Y-115938217D01*
X137316757Y-115736130D01*
X137316757Y-115736127D01*
X137347030Y-115545000D01*
X136404146Y-115545000D01*
X136442630Y-115478343D01*
X136475000Y-115357535D01*
X136475000Y-115232465D01*
X136442630Y-115111657D01*
X136404146Y-115045000D01*
X137347030Y-115045000D01*
X137316757Y-114853872D01*
X137316757Y-114853869D01*
X137251095Y-114651782D01*
X137154620Y-114462442D01*
X137029727Y-114290540D01*
X137029723Y-114290535D01*
X136879464Y-114140276D01*
X136879459Y-114140272D01*
X136707557Y-114015379D01*
X136518215Y-113918903D01*
X136316124Y-113853241D01*
X136250000Y-113842768D01*
X136250000Y-114890854D01*
X136183343Y-114852370D01*
X136062535Y-114820000D01*
X135937465Y-114820000D01*
X135816657Y-114852370D01*
X135750000Y-114890854D01*
X135750000Y-113842768D01*
X135749999Y-113842768D01*
X135683875Y-113853241D01*
X135481784Y-113918903D01*
X135292442Y-114015379D01*
X135120540Y-114140272D01*
X135120535Y-114140276D01*
X134970276Y-114290535D01*
X134970272Y-114290540D01*
X134850627Y-114455218D01*
X134795297Y-114497884D01*
X134725684Y-114503863D01*
X134663889Y-114471257D01*
X134649991Y-114455218D01*
X134530109Y-114290214D01*
X134530105Y-114290209D01*
X134379786Y-114139890D01*
X134207820Y-114014951D01*
X134018414Y-113918444D01*
X134018413Y-113918443D01*
X134018412Y-113918443D01*
X133816243Y-113852754D01*
X133816241Y-113852753D01*
X133816240Y-113852753D01*
X133654957Y-113827208D01*
X133606287Y-113819500D01*
X133393713Y-113819500D01*
X133345042Y-113827208D01*
X133183760Y-113852753D01*
X132981585Y-113918444D01*
X132792179Y-114014951D01*
X132620213Y-114139890D01*
X132469894Y-114290209D01*
X132469890Y-114290214D01*
X132350318Y-114454793D01*
X132294989Y-114497459D01*
X132225375Y-114503438D01*
X132163580Y-114470833D01*
X132149682Y-114454793D01*
X132030109Y-114290214D01*
X132030105Y-114290209D01*
X131879786Y-114139890D01*
X131707820Y-114014951D01*
X131518414Y-113918444D01*
X131518413Y-113918443D01*
X131518412Y-113918443D01*
X131316243Y-113852754D01*
X131316241Y-113852753D01*
X131316240Y-113852753D01*
X131154957Y-113827208D01*
X131106287Y-113819500D01*
X130893713Y-113819500D01*
X130845042Y-113827208D01*
X130683760Y-113852753D01*
X130481585Y-113918444D01*
X130292179Y-114014951D01*
X130120215Y-114139889D01*
X129981398Y-114278706D01*
X129920075Y-114312190D01*
X129850383Y-114307206D01*
X129794450Y-114265334D01*
X129788178Y-114256120D01*
X129692712Y-114101344D01*
X129568657Y-113977289D01*
X129568656Y-113977288D01*
X129419334Y-113885186D01*
X129252797Y-113830001D01*
X129252795Y-113830000D01*
X129150010Y-113819500D01*
X127849998Y-113819500D01*
X127849981Y-113819501D01*
X127747203Y-113830000D01*
X127747200Y-113830001D01*
X127580668Y-113885185D01*
X127580663Y-113885187D01*
X127431342Y-113977289D01*
X127307289Y-114101342D01*
X127215187Y-114250663D01*
X127215185Y-114250668D01*
X127210325Y-114265334D01*
X127160001Y-114417203D01*
X127160001Y-114417204D01*
X127160000Y-114417204D01*
X127149500Y-114519983D01*
X127149500Y-116070001D01*
X121100499Y-116070001D01*
X121100499Y-115569992D01*
X121096034Y-115526287D01*
X121089999Y-115467203D01*
X121089998Y-115467200D01*
X121055823Y-115364068D01*
X121034814Y-115300666D01*
X120942712Y-115151344D01*
X120818656Y-115027288D01*
X120669334Y-114935186D01*
X120502797Y-114880001D01*
X120502795Y-114880000D01*
X120400010Y-114869500D01*
X119099998Y-114869500D01*
X119099981Y-114869501D01*
X118997203Y-114880000D01*
X118997200Y-114880001D01*
X118830668Y-114935185D01*
X118830663Y-114935187D01*
X118681342Y-115027289D01*
X118557289Y-115151342D01*
X118461821Y-115306121D01*
X118409873Y-115352845D01*
X118340910Y-115364068D01*
X118276828Y-115336224D01*
X118268601Y-115328705D01*
X118129786Y-115189890D01*
X117957820Y-115064951D01*
X117768414Y-114968444D01*
X117768413Y-114968443D01*
X117768412Y-114968443D01*
X117566243Y-114902754D01*
X117566241Y-114902753D01*
X117566240Y-114902753D01*
X117404957Y-114877208D01*
X117356287Y-114869500D01*
X117143713Y-114869500D01*
X117095042Y-114877208D01*
X116933760Y-114902753D01*
X116731585Y-114968444D01*
X116542179Y-115064951D01*
X116370213Y-115189890D01*
X116219894Y-115340209D01*
X116219890Y-115340214D01*
X116100318Y-115504793D01*
X116044989Y-115547459D01*
X115975375Y-115553438D01*
X115913580Y-115520833D01*
X115899682Y-115504793D01*
X115780109Y-115340214D01*
X115780105Y-115340209D01*
X115629786Y-115189890D01*
X115457820Y-115064951D01*
X115268414Y-114968444D01*
X115268413Y-114968443D01*
X115268412Y-114968443D01*
X115066243Y-114902754D01*
X115066241Y-114902753D01*
X115066240Y-114902753D01*
X114904957Y-114877208D01*
X114856287Y-114869500D01*
X114643713Y-114869500D01*
X114595042Y-114877208D01*
X114433760Y-114902753D01*
X114231585Y-114968444D01*
X114042179Y-115064951D01*
X113870213Y-115189890D01*
X113719894Y-115340209D01*
X113719890Y-115340214D01*
X113600318Y-115504793D01*
X113544989Y-115547459D01*
X113475375Y-115553438D01*
X113413580Y-115520833D01*
X113399682Y-115504793D01*
X113280109Y-115340214D01*
X113280105Y-115340209D01*
X113129786Y-115189890D01*
X112957820Y-115064951D01*
X112768414Y-114968444D01*
X112768413Y-114968443D01*
X112768412Y-114968443D01*
X112566243Y-114902754D01*
X112566241Y-114902753D01*
X112566240Y-114902753D01*
X112404957Y-114877208D01*
X112356287Y-114869500D01*
X112143713Y-114869500D01*
X112095042Y-114877208D01*
X111933760Y-114902753D01*
X111731585Y-114968444D01*
X111542179Y-115064951D01*
X111370213Y-115189890D01*
X111219890Y-115340213D01*
X111094951Y-115512179D01*
X110998444Y-115701585D01*
X110932753Y-115903760D01*
X110899500Y-116113713D01*
X110899500Y-116576286D01*
X109700500Y-116576286D01*
X109700500Y-106895237D01*
X109720185Y-106828198D01*
X109772989Y-106782443D01*
X109842147Y-106772499D01*
X109900660Y-106797382D01*
X109985397Y-106863336D01*
X110018988Y-106889481D01*
X110019531Y-106889903D01*
X110229455Y-107003509D01*
X110455216Y-107081012D01*
X110690653Y-107120300D01*
X110690654Y-107120300D01*
X110929346Y-107120300D01*
X110929347Y-107120300D01*
X111164784Y-107081012D01*
X111390545Y-107003509D01*
X111600469Y-106889903D01*
X111788832Y-106743295D01*
X111950494Y-106567682D01*
X112081047Y-106367856D01*
X112176929Y-106149267D01*
X112235525Y-105917878D01*
X112235532Y-105917796D01*
X112255236Y-105680005D01*
X129684764Y-105680005D01*
X129704473Y-105917869D01*
X129704475Y-105917881D01*
X129763070Y-106149267D01*
X129858847Y-106367614D01*
X129858953Y-106367856D01*
X129989506Y-106567682D01*
X130151168Y-106743295D01*
X130339531Y-106889903D01*
X130549455Y-107003509D01*
X130775216Y-107081012D01*
X131010653Y-107120300D01*
X131010654Y-107120300D01*
X131249346Y-107120300D01*
X131249347Y-107120300D01*
X131484784Y-107081012D01*
X131710545Y-107003509D01*
X131920469Y-106889903D01*
X132108832Y-106743295D01*
X132270494Y-106567682D01*
X132401047Y-106367856D01*
X132496929Y-106149267D01*
X132555525Y-105917878D01*
X132555532Y-105917796D01*
X132575236Y-105680005D01*
X132575236Y-105679994D01*
X132555526Y-105442130D01*
X132555524Y-105442118D01*
X132496929Y-105210732D01*
X132441191Y-105083664D01*
X132401047Y-104992144D01*
X132270494Y-104792318D01*
X132108832Y-104616705D01*
X131968978Y-104507853D01*
X131928166Y-104451143D01*
X131924491Y-104381370D01*
X131959122Y-104320687D01*
X131968979Y-104312146D01*
X132108832Y-104203295D01*
X132270494Y-104027682D01*
X132401047Y-103827856D01*
X132496929Y-103609267D01*
X132555525Y-103377878D01*
X132575236Y-103140005D01*
X137304764Y-103140005D01*
X137324473Y-103377869D01*
X137324475Y-103377881D01*
X137383070Y-103609267D01*
X137478951Y-103827852D01*
X137478953Y-103827856D01*
X137609506Y-104027682D01*
X137771168Y-104203295D01*
X137911426Y-104312462D01*
X137952239Y-104369172D01*
X137955914Y-104438945D01*
X137923006Y-104496608D01*
X137922839Y-104499286D01*
X138614058Y-105190504D01*
X138553919Y-105206619D01*
X138438080Y-105273498D01*
X138343498Y-105368080D01*
X138276619Y-105483919D01*
X138260504Y-105544058D01*
X137570056Y-104853610D01*
X137479392Y-104992383D01*
X137479390Y-104992387D01*
X137383545Y-105210895D01*
X137324969Y-105442203D01*
X137324967Y-105442211D01*
X137305265Y-105679993D01*
X137305265Y-105680006D01*
X137324967Y-105917788D01*
X137324969Y-105917796D01*
X137383545Y-106149104D01*
X137479392Y-106367617D01*
X137570055Y-106506388D01*
X138260504Y-105815940D01*
X138276619Y-105876081D01*
X138343498Y-105991920D01*
X138438080Y-106086502D01*
X138553919Y-106153381D01*
X138614057Y-106169495D01*
X137922840Y-106860712D01*
X137922840Y-106860713D01*
X137959802Y-106889482D01*
X137959807Y-106889485D01*
X138169650Y-107003046D01*
X138169660Y-107003051D01*
X138395335Y-107080525D01*
X138630696Y-107119800D01*
X138869304Y-107119800D01*
X139104664Y-107080525D01*
X139330339Y-107003051D01*
X139330349Y-107003046D01*
X139540191Y-106889486D01*
X139540197Y-106889481D01*
X139577158Y-106860713D01*
X139577159Y-106860711D01*
X138885942Y-106169494D01*
X138946081Y-106153381D01*
X139061920Y-106086502D01*
X139156502Y-105991920D01*
X139223381Y-105876081D01*
X139239495Y-105815942D01*
X139929942Y-106506389D01*
X140020608Y-106367614D01*
X140116454Y-106149104D01*
X140175030Y-105917796D01*
X140175032Y-105917788D01*
X140194735Y-105680006D01*
X140194735Y-105680005D01*
X140554764Y-105680005D01*
X140574473Y-105917869D01*
X140574475Y-105917881D01*
X140633070Y-106149267D01*
X140728847Y-106367614D01*
X140728953Y-106367856D01*
X140859506Y-106567682D01*
X141021168Y-106743295D01*
X141209531Y-106889903D01*
X141419455Y-107003509D01*
X141645216Y-107081012D01*
X141880653Y-107120300D01*
X141880654Y-107120300D01*
X142119346Y-107120300D01*
X142119347Y-107120300D01*
X142354784Y-107081012D01*
X142580545Y-107003509D01*
X142790469Y-106889903D01*
X142978832Y-106743295D01*
X143140494Y-106567682D01*
X143271047Y-106367856D01*
X143366929Y-106149267D01*
X143425525Y-105917878D01*
X143425532Y-105917796D01*
X143445236Y-105680005D01*
X160874764Y-105680005D01*
X160894473Y-105917869D01*
X160894475Y-105917881D01*
X160953070Y-106149267D01*
X161048847Y-106367614D01*
X161048953Y-106367856D01*
X161179506Y-106567682D01*
X161341168Y-106743295D01*
X161529531Y-106889903D01*
X161739455Y-107003509D01*
X161965216Y-107081012D01*
X162200653Y-107120300D01*
X162200654Y-107120300D01*
X162439346Y-107120300D01*
X162439347Y-107120300D01*
X162674784Y-107081012D01*
X162900545Y-107003509D01*
X163110469Y-106889903D01*
X163298832Y-106743295D01*
X163460494Y-106567682D01*
X163591047Y-106367856D01*
X163686929Y-106149267D01*
X163745525Y-105917878D01*
X163745532Y-105917796D01*
X163765236Y-105680005D01*
X163765236Y-105679994D01*
X163745526Y-105442130D01*
X163745524Y-105442118D01*
X163686929Y-105210732D01*
X163631191Y-105083664D01*
X163591047Y-104992144D01*
X163460494Y-104792318D01*
X163298832Y-104616705D01*
X163158978Y-104507853D01*
X163118166Y-104451143D01*
X163114491Y-104381370D01*
X163149122Y-104320687D01*
X163158979Y-104312146D01*
X163298832Y-104203295D01*
X163460494Y-104027682D01*
X163591047Y-103827856D01*
X163686929Y-103609267D01*
X163745525Y-103377878D01*
X163765236Y-103140000D01*
X163745525Y-102902122D01*
X163686929Y-102670733D01*
X163591047Y-102452144D01*
X163460494Y-102252318D01*
X163298832Y-102076705D01*
X163110469Y-101930097D01*
X162999420Y-101870000D01*
X162900546Y-101816491D01*
X162900541Y-101816489D01*
X162674786Y-101738988D01*
X162517826Y-101712796D01*
X162439347Y-101699700D01*
X162200653Y-101699700D01*
X162141793Y-101709522D01*
X161965213Y-101738988D01*
X161739458Y-101816489D01*
X161739453Y-101816491D01*
X161529529Y-101930098D01*
X161341169Y-102076704D01*
X161179506Y-102252317D01*
X161048951Y-102452147D01*
X160953070Y-102670732D01*
X160894475Y-102902118D01*
X160894473Y-102902130D01*
X160874764Y-103139994D01*
X160874764Y-103140005D01*
X160894473Y-103377869D01*
X160894475Y-103377881D01*
X160953070Y-103609267D01*
X161048951Y-103827852D01*
X161048953Y-103827856D01*
X161179506Y-104027682D01*
X161341168Y-104203295D01*
X161341171Y-104203297D01*
X161341174Y-104203300D01*
X161481020Y-104312147D01*
X161521833Y-104368857D01*
X161525508Y-104438630D01*
X161490876Y-104499313D01*
X161481020Y-104507853D01*
X161341174Y-104616699D01*
X161341171Y-104616702D01*
X161179506Y-104792317D01*
X161048951Y-104992147D01*
X160953070Y-105210732D01*
X160894475Y-105442118D01*
X160894473Y-105442130D01*
X160874764Y-105679994D01*
X160874764Y-105680005D01*
X143445236Y-105680005D01*
X143445236Y-105679994D01*
X143425526Y-105442130D01*
X143425524Y-105442118D01*
X143366929Y-105210732D01*
X143311191Y-105083664D01*
X143271047Y-104992144D01*
X143140494Y-104792318D01*
X142978832Y-104616705D01*
X142838978Y-104507853D01*
X142798166Y-104451143D01*
X142794491Y-104381370D01*
X142829122Y-104320687D01*
X142838979Y-104312146D01*
X142978832Y-104203295D01*
X143140494Y-104027682D01*
X143271047Y-103827856D01*
X143366929Y-103609267D01*
X143425525Y-103377878D01*
X143445236Y-103140000D01*
X143425525Y-102902122D01*
X143366929Y-102670733D01*
X143271047Y-102452144D01*
X143140494Y-102252318D01*
X142978832Y-102076705D01*
X142838978Y-101967853D01*
X142798166Y-101911143D01*
X142794491Y-101841370D01*
X142829122Y-101780687D01*
X142838979Y-101772146D01*
X142978832Y-101663295D01*
X143140494Y-101487682D01*
X143271047Y-101287856D01*
X143366929Y-101069267D01*
X143425525Y-100837878D01*
X143435186Y-100721288D01*
X154119500Y-100721288D01*
X154151161Y-100961785D01*
X154213947Y-101196104D01*
X154251952Y-101287856D01*
X154306776Y-101420212D01*
X154428064Y-101630289D01*
X154428066Y-101630292D01*
X154428067Y-101630293D01*
X154575733Y-101822736D01*
X154575739Y-101822743D01*
X154747256Y-101994260D01*
X154747262Y-101994265D01*
X154939711Y-102141936D01*
X155149788Y-102263224D01*
X155373900Y-102356054D01*
X155608211Y-102418838D01*
X155788586Y-102442584D01*
X155848711Y-102450500D01*
X155848712Y-102450500D01*
X156091289Y-102450500D01*
X156139388Y-102444167D01*
X156331789Y-102418838D01*
X156566100Y-102356054D01*
X156790212Y-102263224D01*
X157000289Y-102141936D01*
X157192738Y-101994265D01*
X157364265Y-101822738D01*
X157511936Y-101630289D01*
X157633224Y-101420212D01*
X157726054Y-101196100D01*
X157788838Y-100961789D01*
X157820500Y-100721288D01*
X157820500Y-100478712D01*
X157788838Y-100238211D01*
X157726054Y-100003900D01*
X157633224Y-99779788D01*
X157511936Y-99569711D01*
X157364265Y-99377262D01*
X157364260Y-99377256D01*
X157192743Y-99205739D01*
X157192736Y-99205733D01*
X157000293Y-99058067D01*
X157000292Y-99058066D01*
X157000289Y-99058064D01*
X156790212Y-98936776D01*
X156790205Y-98936773D01*
X156566104Y-98843947D01*
X156331785Y-98781161D01*
X156091289Y-98749500D01*
X156091288Y-98749500D01*
X155848712Y-98749500D01*
X155848711Y-98749500D01*
X155608214Y-98781161D01*
X155373895Y-98843947D01*
X155149794Y-98936773D01*
X155149785Y-98936777D01*
X154939706Y-99058067D01*
X154747263Y-99205733D01*
X154747256Y-99205739D01*
X154575739Y-99377256D01*
X154575733Y-99377263D01*
X154428067Y-99569706D01*
X154306777Y-99779785D01*
X154306773Y-99779794D01*
X154213947Y-100003895D01*
X154151161Y-100238214D01*
X154119500Y-100478711D01*
X154119500Y-100721288D01*
X143435186Y-100721288D01*
X143445236Y-100600000D01*
X143425525Y-100362122D01*
X143366929Y-100130733D01*
X143271047Y-99912144D01*
X143140494Y-99712318D01*
X142978832Y-99536705D01*
X142838978Y-99427853D01*
X142798166Y-99371143D01*
X142794491Y-99301370D01*
X142829122Y-99240687D01*
X142838979Y-99232146D01*
X142872907Y-99205739D01*
X142978832Y-99123295D01*
X143140494Y-98947682D01*
X143271047Y-98747856D01*
X143366929Y-98529267D01*
X143425525Y-98297878D01*
X143445236Y-98060000D01*
X143425525Y-97822122D01*
X143366929Y-97590733D01*
X143271047Y-97372144D01*
X143140494Y-97172318D01*
X142978832Y-96996705D01*
X142838978Y-96887853D01*
X142798166Y-96831143D01*
X142794491Y-96761370D01*
X142829122Y-96700687D01*
X142838979Y-96692146D01*
X142978832Y-96583295D01*
X143140494Y-96407682D01*
X143271047Y-96207856D01*
X143366929Y-95989267D01*
X143425525Y-95757878D01*
X143445236Y-95520000D01*
X143425525Y-95282122D01*
X143366929Y-95050733D01*
X143271047Y-94832144D01*
X143140494Y-94632318D01*
X142978832Y-94456705D01*
X142790469Y-94310097D01*
X142694152Y-94257972D01*
X142580546Y-94196491D01*
X142580541Y-94196489D01*
X142354786Y-94118988D01*
X142197826Y-94092796D01*
X142119347Y-94079700D01*
X141880653Y-94079700D01*
X141821793Y-94089522D01*
X141645213Y-94118988D01*
X141419458Y-94196489D01*
X141419453Y-94196491D01*
X141209529Y-94310098D01*
X141021169Y-94456704D01*
X140859506Y-94632317D01*
X140728951Y-94832147D01*
X140633070Y-95050732D01*
X140574475Y-95282118D01*
X140574473Y-95282130D01*
X140554764Y-95519994D01*
X140554764Y-95520005D01*
X140574473Y-95757869D01*
X140574475Y-95757881D01*
X140633070Y-95989267D01*
X140728951Y-96207852D01*
X140728953Y-96207856D01*
X140859506Y-96407682D01*
X141021168Y-96583295D01*
X141021171Y-96583297D01*
X141021174Y-96583300D01*
X141161020Y-96692147D01*
X141201833Y-96748857D01*
X141205508Y-96818630D01*
X141170876Y-96879313D01*
X141161020Y-96887853D01*
X141021174Y-96996699D01*
X141021171Y-96996702D01*
X140859506Y-97172317D01*
X140728951Y-97372147D01*
X140633070Y-97590732D01*
X140574475Y-97822118D01*
X140574473Y-97822130D01*
X140554764Y-98059994D01*
X140554764Y-98060005D01*
X140574473Y-98297869D01*
X140574475Y-98297881D01*
X140633070Y-98529267D01*
X140728951Y-98747852D01*
X140728953Y-98747856D01*
X140859506Y-98947682D01*
X141021168Y-99123295D01*
X141021171Y-99123297D01*
X141021174Y-99123300D01*
X141161020Y-99232147D01*
X141201833Y-99288857D01*
X141205508Y-99358630D01*
X141170876Y-99419313D01*
X141161020Y-99427853D01*
X141021174Y-99536699D01*
X141021171Y-99536702D01*
X140859506Y-99712317D01*
X140728951Y-99912147D01*
X140633070Y-100130732D01*
X140574475Y-100362118D01*
X140574473Y-100362130D01*
X140554764Y-100599994D01*
X140554764Y-100600005D01*
X140574473Y-100837869D01*
X140574475Y-100837881D01*
X140633070Y-101069267D01*
X140728951Y-101287852D01*
X140728953Y-101287856D01*
X140859506Y-101487682D01*
X141021168Y-101663295D01*
X141021171Y-101663297D01*
X141021174Y-101663300D01*
X141161020Y-101772147D01*
X141201833Y-101828857D01*
X141205508Y-101898630D01*
X141170876Y-101959313D01*
X141161020Y-101967853D01*
X141021174Y-102076699D01*
X141021171Y-102076702D01*
X140859506Y-102252317D01*
X140728951Y-102452147D01*
X140633070Y-102670732D01*
X140574475Y-102902118D01*
X140574473Y-102902130D01*
X140554764Y-103139994D01*
X140554764Y-103140005D01*
X140574473Y-103377869D01*
X140574475Y-103377881D01*
X140633070Y-103609267D01*
X140728951Y-103827852D01*
X140728953Y-103827856D01*
X140859506Y-104027682D01*
X141021168Y-104203295D01*
X141021171Y-104203297D01*
X141021174Y-104203300D01*
X141161020Y-104312147D01*
X141201833Y-104368857D01*
X141205508Y-104438630D01*
X141170876Y-104499313D01*
X141161020Y-104507853D01*
X141021174Y-104616699D01*
X141021171Y-104616702D01*
X140859506Y-104792317D01*
X140728951Y-104992147D01*
X140633070Y-105210732D01*
X140574475Y-105442118D01*
X140574473Y-105442130D01*
X140554764Y-105679994D01*
X140554764Y-105680005D01*
X140194735Y-105680005D01*
X140194735Y-105679993D01*
X140175032Y-105442211D01*
X140175030Y-105442203D01*
X140116454Y-105210895D01*
X140020607Y-104992382D01*
X139929942Y-104853609D01*
X139239494Y-105544057D01*
X139223381Y-105483919D01*
X139156502Y-105368080D01*
X139061920Y-105273498D01*
X138946081Y-105206619D01*
X138885941Y-105190504D01*
X139577158Y-104499286D01*
X139576684Y-104491649D01*
X139547760Y-104451459D01*
X139544085Y-104381686D01*
X139578717Y-104321003D01*
X139588573Y-104312462D01*
X139728832Y-104203295D01*
X139890494Y-104027682D01*
X140021047Y-103827856D01*
X140116929Y-103609267D01*
X140175525Y-103377878D01*
X140195236Y-103140000D01*
X140175525Y-102902122D01*
X140116929Y-102670733D01*
X140021047Y-102452144D01*
X139890494Y-102252318D01*
X139728832Y-102076705D01*
X139588978Y-101967853D01*
X139548166Y-101911143D01*
X139544491Y-101841370D01*
X139579122Y-101780687D01*
X139588979Y-101772146D01*
X139728832Y-101663295D01*
X139890494Y-101487682D01*
X140021047Y-101287856D01*
X140116929Y-101069267D01*
X140175525Y-100837878D01*
X140195236Y-100600000D01*
X140175525Y-100362122D01*
X140116929Y-100130733D01*
X140021047Y-99912144D01*
X139890494Y-99712318D01*
X139728832Y-99536705D01*
X139588978Y-99427853D01*
X139548166Y-99371143D01*
X139544491Y-99301370D01*
X139579122Y-99240687D01*
X139588979Y-99232146D01*
X139622907Y-99205739D01*
X139728832Y-99123295D01*
X139890494Y-98947682D01*
X140021047Y-98747856D01*
X140116929Y-98529267D01*
X140175525Y-98297878D01*
X140195236Y-98060000D01*
X140175525Y-97822122D01*
X140116929Y-97590733D01*
X140021047Y-97372144D01*
X139890494Y-97172318D01*
X139728832Y-96996705D01*
X139588978Y-96887853D01*
X139548166Y-96831143D01*
X139544491Y-96761370D01*
X139579122Y-96700687D01*
X139588979Y-96692146D01*
X139728832Y-96583295D01*
X139890494Y-96407682D01*
X140021047Y-96207856D01*
X140116929Y-95989267D01*
X140175525Y-95757878D01*
X140195236Y-95520000D01*
X140175525Y-95282122D01*
X140116929Y-95050733D01*
X140021047Y-94832144D01*
X139890494Y-94632318D01*
X139728832Y-94456705D01*
X139540469Y-94310097D01*
X139444152Y-94257972D01*
X139330546Y-94196491D01*
X139330541Y-94196489D01*
X139104786Y-94118988D01*
X138947826Y-94092796D01*
X138869347Y-94079700D01*
X138630653Y-94079700D01*
X138571793Y-94089522D01*
X138395213Y-94118988D01*
X138169458Y-94196489D01*
X138169453Y-94196491D01*
X137959529Y-94310098D01*
X137771169Y-94456704D01*
X137609506Y-94632317D01*
X137478951Y-94832147D01*
X137383070Y-95050732D01*
X137324475Y-95282118D01*
X137324473Y-95282130D01*
X137304764Y-95519994D01*
X137304764Y-95520005D01*
X137324473Y-95757869D01*
X137324475Y-95757881D01*
X137383070Y-95989267D01*
X137478951Y-96207852D01*
X137478953Y-96207856D01*
X137609506Y-96407682D01*
X137771168Y-96583295D01*
X137771171Y-96583297D01*
X137771174Y-96583300D01*
X137911020Y-96692147D01*
X137951833Y-96748857D01*
X137955508Y-96818630D01*
X137920876Y-96879313D01*
X137911020Y-96887853D01*
X137771174Y-96996699D01*
X137771171Y-96996702D01*
X137609506Y-97172317D01*
X137478951Y-97372147D01*
X137383070Y-97590732D01*
X137324475Y-97822118D01*
X137324473Y-97822130D01*
X137304764Y-98059994D01*
X137304764Y-98060005D01*
X137324473Y-98297869D01*
X137324475Y-98297881D01*
X137383070Y-98529267D01*
X137478951Y-98747852D01*
X137478953Y-98747856D01*
X137609506Y-98947682D01*
X137771168Y-99123295D01*
X137771171Y-99123297D01*
X137771174Y-99123300D01*
X137911020Y-99232147D01*
X137951833Y-99288857D01*
X137955508Y-99358630D01*
X137920876Y-99419313D01*
X137911020Y-99427853D01*
X137771174Y-99536699D01*
X137771171Y-99536702D01*
X137609506Y-99712317D01*
X137478951Y-99912147D01*
X137383070Y-100130732D01*
X137324475Y-100362118D01*
X137324473Y-100362130D01*
X137304764Y-100599994D01*
X137304764Y-100600005D01*
X137324473Y-100837869D01*
X137324475Y-100837881D01*
X137383070Y-101069267D01*
X137478951Y-101287852D01*
X137478953Y-101287856D01*
X137609506Y-101487682D01*
X137771168Y-101663295D01*
X137771171Y-101663297D01*
X137771174Y-101663300D01*
X137911020Y-101772147D01*
X137951833Y-101828857D01*
X137955508Y-101898630D01*
X137920876Y-101959313D01*
X137911020Y-101967853D01*
X137771174Y-102076699D01*
X137771171Y-102076702D01*
X137609506Y-102252317D01*
X137478951Y-102452147D01*
X137383070Y-102670732D01*
X137324475Y-102902118D01*
X137324473Y-102902130D01*
X137304764Y-103139994D01*
X137304764Y-103140005D01*
X132575236Y-103140005D01*
X132575236Y-103140000D01*
X132555525Y-102902122D01*
X132496929Y-102670733D01*
X132401047Y-102452144D01*
X132270494Y-102252318D01*
X132108832Y-102076705D01*
X131920469Y-101930097D01*
X131809420Y-101870000D01*
X131710546Y-101816491D01*
X131710541Y-101816489D01*
X131484786Y-101738988D01*
X131327826Y-101712796D01*
X131249347Y-101699700D01*
X131010653Y-101699700D01*
X130951793Y-101709522D01*
X130775213Y-101738988D01*
X130549458Y-101816489D01*
X130549453Y-101816491D01*
X130339529Y-101930098D01*
X130151169Y-102076704D01*
X129989506Y-102252317D01*
X129858951Y-102452147D01*
X129763070Y-102670732D01*
X129704475Y-102902118D01*
X129704473Y-102902130D01*
X129684764Y-103139994D01*
X129684764Y-103140005D01*
X129704473Y-103377869D01*
X129704475Y-103377881D01*
X129763070Y-103609267D01*
X129858951Y-103827852D01*
X129858953Y-103827856D01*
X129989506Y-104027682D01*
X130151168Y-104203295D01*
X130151171Y-104203297D01*
X130151174Y-104203300D01*
X130291020Y-104312147D01*
X130331833Y-104368857D01*
X130335508Y-104438630D01*
X130300876Y-104499313D01*
X130291020Y-104507853D01*
X130151174Y-104616699D01*
X130151171Y-104616702D01*
X129989506Y-104792317D01*
X129858951Y-104992147D01*
X129763070Y-105210732D01*
X129704475Y-105442118D01*
X129704473Y-105442130D01*
X129684764Y-105679994D01*
X129684764Y-105680005D01*
X112255236Y-105680005D01*
X112255236Y-105679994D01*
X112235526Y-105442130D01*
X112235524Y-105442118D01*
X112176929Y-105210732D01*
X112121191Y-105083664D01*
X112081047Y-104992144D01*
X111950494Y-104792318D01*
X111788832Y-104616705D01*
X111648978Y-104507853D01*
X111608166Y-104451143D01*
X111604491Y-104381370D01*
X111639122Y-104320687D01*
X111648979Y-104312146D01*
X111788832Y-104203295D01*
X111950494Y-104027682D01*
X112081047Y-103827856D01*
X112176929Y-103609267D01*
X112235525Y-103377878D01*
X112255236Y-103140000D01*
X112235525Y-102902122D01*
X112176929Y-102670733D01*
X112081047Y-102452144D01*
X111950494Y-102252318D01*
X111788832Y-102076705D01*
X111648978Y-101967853D01*
X111608166Y-101911143D01*
X111604491Y-101841370D01*
X111639122Y-101780687D01*
X111648979Y-101772146D01*
X111788832Y-101663295D01*
X111950494Y-101487682D01*
X112081047Y-101287856D01*
X112176929Y-101069267D01*
X112235525Y-100837878D01*
X112245186Y-100721288D01*
X122929500Y-100721288D01*
X122961161Y-100961785D01*
X123023947Y-101196104D01*
X123061952Y-101287856D01*
X123116776Y-101420212D01*
X123238064Y-101630289D01*
X123238066Y-101630292D01*
X123238067Y-101630293D01*
X123385733Y-101822736D01*
X123385739Y-101822743D01*
X123557256Y-101994260D01*
X123557262Y-101994265D01*
X123749711Y-102141936D01*
X123959788Y-102263224D01*
X124183900Y-102356054D01*
X124418211Y-102418838D01*
X124598586Y-102442584D01*
X124658711Y-102450500D01*
X124658712Y-102450500D01*
X124901289Y-102450500D01*
X124949388Y-102444167D01*
X125141789Y-102418838D01*
X125376100Y-102356054D01*
X125600212Y-102263224D01*
X125810289Y-102141936D01*
X126002738Y-101994265D01*
X126174265Y-101822738D01*
X126321936Y-101630289D01*
X126443224Y-101420212D01*
X126536054Y-101196100D01*
X126598838Y-100961789D01*
X126630500Y-100721288D01*
X126630500Y-100478712D01*
X126598838Y-100238211D01*
X126536054Y-100003900D01*
X126443224Y-99779788D01*
X126321936Y-99569711D01*
X126174265Y-99377262D01*
X126174260Y-99377256D01*
X126002743Y-99205739D01*
X126002736Y-99205733D01*
X125810293Y-99058067D01*
X125810292Y-99058066D01*
X125810289Y-99058064D01*
X125600212Y-98936776D01*
X125600205Y-98936773D01*
X125376104Y-98843947D01*
X125141785Y-98781161D01*
X124901289Y-98749500D01*
X124901288Y-98749500D01*
X124658712Y-98749500D01*
X124658711Y-98749500D01*
X124418214Y-98781161D01*
X124183895Y-98843947D01*
X123959794Y-98936773D01*
X123959785Y-98936777D01*
X123749706Y-99058067D01*
X123557263Y-99205733D01*
X123557256Y-99205739D01*
X123385739Y-99377256D01*
X123385733Y-99377263D01*
X123238067Y-99569706D01*
X123116777Y-99779785D01*
X123116773Y-99779794D01*
X123023947Y-100003895D01*
X122961161Y-100238214D01*
X122929500Y-100478711D01*
X122929500Y-100721288D01*
X112245186Y-100721288D01*
X112255236Y-100600000D01*
X112235525Y-100362122D01*
X112176929Y-100130733D01*
X112081047Y-99912144D01*
X111950494Y-99712318D01*
X111788832Y-99536705D01*
X111648978Y-99427853D01*
X111608166Y-99371143D01*
X111604491Y-99301370D01*
X111639122Y-99240687D01*
X111648979Y-99232146D01*
X111682907Y-99205739D01*
X111788832Y-99123295D01*
X111950494Y-98947682D01*
X112081047Y-98747856D01*
X112176929Y-98529267D01*
X112235525Y-98297878D01*
X112255236Y-98060000D01*
X112235525Y-97822122D01*
X112176929Y-97590733D01*
X112081047Y-97372144D01*
X111950494Y-97172318D01*
X111788832Y-96996705D01*
X111648978Y-96887853D01*
X111608166Y-96831143D01*
X111604491Y-96761370D01*
X111639122Y-96700687D01*
X111648979Y-96692146D01*
X111788832Y-96583295D01*
X111950494Y-96407682D01*
X112081047Y-96207856D01*
X112176929Y-95989267D01*
X112235525Y-95757878D01*
X112255236Y-95520000D01*
X112235525Y-95282122D01*
X112176929Y-95050733D01*
X112081047Y-94832144D01*
X111950494Y-94632318D01*
X111788832Y-94456705D01*
X111600469Y-94310097D01*
X111504152Y-94257972D01*
X111390546Y-94196491D01*
X111390541Y-94196489D01*
X111164786Y-94118988D01*
X111007826Y-94092796D01*
X110929347Y-94079700D01*
X110690653Y-94079700D01*
X110631793Y-94089522D01*
X110455213Y-94118988D01*
X110229458Y-94196489D01*
X110229453Y-94196491D01*
X110019529Y-94310098D01*
X109900662Y-94402616D01*
X109835668Y-94428258D01*
X109767128Y-94414691D01*
X109716803Y-94366223D01*
X109700500Y-94304762D01*
X109700500Y-89444500D01*
X109720185Y-89377461D01*
X109772989Y-89331706D01*
X109824500Y-89320500D01*
X170975500Y-89320500D01*
X171042539Y-89340185D01*
G37*
%TD.AperFunction*%
%TA.AperFunction,Conductor*%
G36*
X171032872Y-104206392D02*
G01*
X171083197Y-104254860D01*
X171099500Y-104316321D01*
X171099500Y-104822691D01*
X171079815Y-104889730D01*
X171063181Y-104910372D01*
X170429495Y-105544057D01*
X170413381Y-105483919D01*
X170346502Y-105368080D01*
X170251920Y-105273498D01*
X170136081Y-105206619D01*
X170075941Y-105190504D01*
X170767158Y-104499286D01*
X170766684Y-104491649D01*
X170737760Y-104451459D01*
X170734085Y-104381686D01*
X170768717Y-104321003D01*
X170778573Y-104312463D01*
X170899338Y-104218468D01*
X170964332Y-104192825D01*
X171032872Y-104206392D01*
G37*
%TD.AperFunction*%
%TD*%
M02*
