%TF.GenerationSoftware,KiCad,Pcbnew,8.0.1*%
%TF.CreationDate,2024-04-28T18:39:05+02:00*%
%TF.ProjectId,ScaleModule,5363616c-654d-46f6-9475-6c652e6b6963,v0.1*%
%TF.SameCoordinates,Original*%
%TF.FileFunction,Legend,Bot*%
%TF.FilePolarity,Positive*%
%FSLAX46Y46*%
G04 Gerber Fmt 4.6, Leading zero omitted, Abs format (unit mm)*
G04 Created by KiCad (PCBNEW 8.0.1) date 2024-04-28 18:39:05*
%MOMM*%
%LPD*%
G01*
G04 APERTURE LIST*
G04 Aperture macros list*
%AMRoundRect*
0 Rectangle with rounded corners*
0 $1 Rounding radius*
0 $2 $3 $4 $5 $6 $7 $8 $9 X,Y pos of 4 corners*
0 Add a 4 corners polygon primitive as box body*
4,1,4,$2,$3,$4,$5,$6,$7,$8,$9,$2,$3,0*
0 Add four circle primitives for the rounded corners*
1,1,$1+$1,$2,$3*
1,1,$1+$1,$4,$5*
1,1,$1+$1,$6,$7*
1,1,$1+$1,$8,$9*
0 Add four rect primitives between the rounded corners*
20,1,$1+$1,$2,$3,$4,$5,0*
20,1,$1+$1,$4,$5,$6,$7,0*
20,1,$1+$1,$6,$7,$8,$9,0*
20,1,$1+$1,$8,$9,$2,$3,0*%
G04 Aperture macros list end*
%ADD10C,0.150000*%
%ADD11C,0.100000*%
%ADD12RoundRect,0.250000X-0.600000X-0.725000X0.600000X-0.725000X0.600000X0.725000X-0.600000X0.725000X0*%
%ADD13O,1.700000X1.950000*%
%ADD14RoundRect,0.250000X0.600000X0.725000X-0.600000X0.725000X-0.600000X-0.725000X0.600000X-0.725000X0*%
%ADD15C,3.200000*%
%ADD16C,2.083600*%
G04 APERTURE END LIST*
D10*
X175904819Y-108686665D02*
X175904819Y-108067618D01*
X175904819Y-108067618D02*
X176285771Y-108400951D01*
X176285771Y-108400951D02*
X176285771Y-108258094D01*
X176285771Y-108258094D02*
X176333390Y-108162856D01*
X176333390Y-108162856D02*
X176381009Y-108115237D01*
X176381009Y-108115237D02*
X176476247Y-108067618D01*
X176476247Y-108067618D02*
X176714342Y-108067618D01*
X176714342Y-108067618D02*
X176809580Y-108115237D01*
X176809580Y-108115237D02*
X176857200Y-108162856D01*
X176857200Y-108162856D02*
X176904819Y-108258094D01*
X176904819Y-108258094D02*
X176904819Y-108543808D01*
X176904819Y-108543808D02*
X176857200Y-108639046D01*
X176857200Y-108639046D02*
X176809580Y-108686665D01*
X175904819Y-107448570D02*
X175904819Y-107353332D01*
X175904819Y-107353332D02*
X175952438Y-107258094D01*
X175952438Y-107258094D02*
X176000057Y-107210475D01*
X176000057Y-107210475D02*
X176095295Y-107162856D01*
X176095295Y-107162856D02*
X176285771Y-107115237D01*
X176285771Y-107115237D02*
X176523866Y-107115237D01*
X176523866Y-107115237D02*
X176714342Y-107162856D01*
X176714342Y-107162856D02*
X176809580Y-107210475D01*
X176809580Y-107210475D02*
X176857200Y-107258094D01*
X176857200Y-107258094D02*
X176904819Y-107353332D01*
X176904819Y-107353332D02*
X176904819Y-107448570D01*
X176904819Y-107448570D02*
X176857200Y-107543808D01*
X176857200Y-107543808D02*
X176809580Y-107591427D01*
X176809580Y-107591427D02*
X176714342Y-107639046D01*
X176714342Y-107639046D02*
X176523866Y-107686665D01*
X176523866Y-107686665D02*
X176285771Y-107686665D01*
X176285771Y-107686665D02*
X176095295Y-107639046D01*
X176095295Y-107639046D02*
X176000057Y-107591427D01*
X176000057Y-107591427D02*
X175952438Y-107543808D01*
X175952438Y-107543808D02*
X175904819Y-107448570D01*
X176809580Y-106686665D02*
X176857200Y-106639046D01*
X176857200Y-106639046D02*
X176904819Y-106686665D01*
X176904819Y-106686665D02*
X176857200Y-106734284D01*
X176857200Y-106734284D02*
X176809580Y-106686665D01*
X176809580Y-106686665D02*
X176904819Y-106686665D01*
X176238152Y-105781904D02*
X176904819Y-105781904D01*
X175857200Y-106019999D02*
X176571485Y-106258094D01*
X176571485Y-106258094D02*
X176571485Y-105639047D01*
X175904819Y-105067618D02*
X175904819Y-104972380D01*
X175904819Y-104972380D02*
X175952438Y-104877142D01*
X175952438Y-104877142D02*
X176000057Y-104829523D01*
X176000057Y-104829523D02*
X176095295Y-104781904D01*
X176095295Y-104781904D02*
X176285771Y-104734285D01*
X176285771Y-104734285D02*
X176523866Y-104734285D01*
X176523866Y-104734285D02*
X176714342Y-104781904D01*
X176714342Y-104781904D02*
X176809580Y-104829523D01*
X176809580Y-104829523D02*
X176857200Y-104877142D01*
X176857200Y-104877142D02*
X176904819Y-104972380D01*
X176904819Y-104972380D02*
X176904819Y-105067618D01*
X176904819Y-105067618D02*
X176857200Y-105162856D01*
X176857200Y-105162856D02*
X176809580Y-105210475D01*
X176809580Y-105210475D02*
X176714342Y-105258094D01*
X176714342Y-105258094D02*
X176523866Y-105305713D01*
X176523866Y-105305713D02*
X176285771Y-105305713D01*
X176285771Y-105305713D02*
X176095295Y-105258094D01*
X176095295Y-105258094D02*
X176000057Y-105210475D01*
X176000057Y-105210475D02*
X175952438Y-105162856D01*
X175952438Y-105162856D02*
X175904819Y-105067618D01*
X175904819Y-104115237D02*
X175904819Y-104019999D01*
X175904819Y-104019999D02*
X175952438Y-103924761D01*
X175952438Y-103924761D02*
X176000057Y-103877142D01*
X176000057Y-103877142D02*
X176095295Y-103829523D01*
X176095295Y-103829523D02*
X176285771Y-103781904D01*
X176285771Y-103781904D02*
X176523866Y-103781904D01*
X176523866Y-103781904D02*
X176714342Y-103829523D01*
X176714342Y-103829523D02*
X176809580Y-103877142D01*
X176809580Y-103877142D02*
X176857200Y-103924761D01*
X176857200Y-103924761D02*
X176904819Y-104019999D01*
X176904819Y-104019999D02*
X176904819Y-104115237D01*
X176904819Y-104115237D02*
X176857200Y-104210475D01*
X176857200Y-104210475D02*
X176809580Y-104258094D01*
X176809580Y-104258094D02*
X176714342Y-104305713D01*
X176714342Y-104305713D02*
X176523866Y-104353332D01*
X176523866Y-104353332D02*
X176285771Y-104353332D01*
X176285771Y-104353332D02*
X176095295Y-104305713D01*
X176095295Y-104305713D02*
X176000057Y-104258094D01*
X176000057Y-104258094D02*
X175952438Y-104210475D01*
X175952438Y-104210475D02*
X175904819Y-104115237D01*
X175904819Y-103162856D02*
X175904819Y-103067618D01*
X175904819Y-103067618D02*
X175952438Y-102972380D01*
X175952438Y-102972380D02*
X176000057Y-102924761D01*
X176000057Y-102924761D02*
X176095295Y-102877142D01*
X176095295Y-102877142D02*
X176285771Y-102829523D01*
X176285771Y-102829523D02*
X176523866Y-102829523D01*
X176523866Y-102829523D02*
X176714342Y-102877142D01*
X176714342Y-102877142D02*
X176809580Y-102924761D01*
X176809580Y-102924761D02*
X176857200Y-102972380D01*
X176857200Y-102972380D02*
X176904819Y-103067618D01*
X176904819Y-103067618D02*
X176904819Y-103162856D01*
X176904819Y-103162856D02*
X176857200Y-103258094D01*
X176857200Y-103258094D02*
X176809580Y-103305713D01*
X176809580Y-103305713D02*
X176714342Y-103353332D01*
X176714342Y-103353332D02*
X176523866Y-103400951D01*
X176523866Y-103400951D02*
X176285771Y-103400951D01*
X176285771Y-103400951D02*
X176095295Y-103353332D01*
X176095295Y-103353332D02*
X176000057Y-103305713D01*
X176000057Y-103305713D02*
X175952438Y-103258094D01*
X175952438Y-103258094D02*
X175904819Y-103162856D01*
X176904819Y-101639046D02*
X176238152Y-101639046D01*
X176333390Y-101639046D02*
X176285771Y-101591427D01*
X176285771Y-101591427D02*
X176238152Y-101496189D01*
X176238152Y-101496189D02*
X176238152Y-101353332D01*
X176238152Y-101353332D02*
X176285771Y-101258094D01*
X176285771Y-101258094D02*
X176381009Y-101210475D01*
X176381009Y-101210475D02*
X176904819Y-101210475D01*
X176381009Y-101210475D02*
X176285771Y-101162856D01*
X176285771Y-101162856D02*
X176238152Y-101067618D01*
X176238152Y-101067618D02*
X176238152Y-100924761D01*
X176238152Y-100924761D02*
X176285771Y-100829522D01*
X176285771Y-100829522D02*
X176381009Y-100781903D01*
X176381009Y-100781903D02*
X176904819Y-100781903D01*
X176904819Y-100305713D02*
X176238152Y-100305713D01*
X176333390Y-100305713D02*
X176285771Y-100258094D01*
X176285771Y-100258094D02*
X176238152Y-100162856D01*
X176238152Y-100162856D02*
X176238152Y-100019999D01*
X176238152Y-100019999D02*
X176285771Y-99924761D01*
X176285771Y-99924761D02*
X176381009Y-99877142D01*
X176381009Y-99877142D02*
X176904819Y-99877142D01*
X176381009Y-99877142D02*
X176285771Y-99829523D01*
X176285771Y-99829523D02*
X176238152Y-99734285D01*
X176238152Y-99734285D02*
X176238152Y-99591428D01*
X176238152Y-99591428D02*
X176285771Y-99496189D01*
X176285771Y-99496189D02*
X176381009Y-99448570D01*
X176381009Y-99448570D02*
X176904819Y-99448570D01*
D11*
X172100000Y-88820000D02*
X178186420Y-88820000D01*
X172100000Y-119220000D02*
X178186420Y-119220000D01*
X177600000Y-88820000D02*
X177600000Y-119220000D01*
X177600000Y-88820000D02*
X177600000Y-119220000D01*
X177600000Y-88820000D02*
X178186421Y-89946504D01*
X177600000Y-88820000D02*
X177013579Y-89946504D01*
X177600000Y-119220000D02*
X177013579Y-118093496D01*
X177600000Y-119220000D02*
X178186421Y-118093496D01*
D10*
X136257143Y-83324820D02*
X136066667Y-83324820D01*
X136066667Y-83324820D02*
X135971429Y-83372439D01*
X135971429Y-83372439D02*
X135923810Y-83420058D01*
X135923810Y-83420058D02*
X135828572Y-83562915D01*
X135828572Y-83562915D02*
X135780953Y-83753391D01*
X135780953Y-83753391D02*
X135780953Y-84134343D01*
X135780953Y-84134343D02*
X135828572Y-84229581D01*
X135828572Y-84229581D02*
X135876191Y-84277201D01*
X135876191Y-84277201D02*
X135971429Y-84324820D01*
X135971429Y-84324820D02*
X136161905Y-84324820D01*
X136161905Y-84324820D02*
X136257143Y-84277201D01*
X136257143Y-84277201D02*
X136304762Y-84229581D01*
X136304762Y-84229581D02*
X136352381Y-84134343D01*
X136352381Y-84134343D02*
X136352381Y-83896248D01*
X136352381Y-83896248D02*
X136304762Y-83801010D01*
X136304762Y-83801010D02*
X136257143Y-83753391D01*
X136257143Y-83753391D02*
X136161905Y-83705772D01*
X136161905Y-83705772D02*
X135971429Y-83705772D01*
X135971429Y-83705772D02*
X135876191Y-83753391D01*
X135876191Y-83753391D02*
X135828572Y-83801010D01*
X135828572Y-83801010D02*
X135780953Y-83896248D01*
X136733334Y-83420058D02*
X136780953Y-83372439D01*
X136780953Y-83372439D02*
X136876191Y-83324820D01*
X136876191Y-83324820D02*
X137114286Y-83324820D01*
X137114286Y-83324820D02*
X137209524Y-83372439D01*
X137209524Y-83372439D02*
X137257143Y-83420058D01*
X137257143Y-83420058D02*
X137304762Y-83515296D01*
X137304762Y-83515296D02*
X137304762Y-83610534D01*
X137304762Y-83610534D02*
X137257143Y-83753391D01*
X137257143Y-83753391D02*
X136685715Y-84324820D01*
X136685715Y-84324820D02*
X137304762Y-84324820D01*
X137733334Y-84229581D02*
X137780953Y-84277201D01*
X137780953Y-84277201D02*
X137733334Y-84324820D01*
X137733334Y-84324820D02*
X137685715Y-84277201D01*
X137685715Y-84277201D02*
X137733334Y-84229581D01*
X137733334Y-84229581D02*
X137733334Y-84324820D01*
X138638095Y-83658153D02*
X138638095Y-84324820D01*
X138400000Y-83277201D02*
X138161905Y-83991486D01*
X138161905Y-83991486D02*
X138780952Y-83991486D01*
X139352381Y-83324820D02*
X139447619Y-83324820D01*
X139447619Y-83324820D02*
X139542857Y-83372439D01*
X139542857Y-83372439D02*
X139590476Y-83420058D01*
X139590476Y-83420058D02*
X139638095Y-83515296D01*
X139638095Y-83515296D02*
X139685714Y-83705772D01*
X139685714Y-83705772D02*
X139685714Y-83943867D01*
X139685714Y-83943867D02*
X139638095Y-84134343D01*
X139638095Y-84134343D02*
X139590476Y-84229581D01*
X139590476Y-84229581D02*
X139542857Y-84277201D01*
X139542857Y-84277201D02*
X139447619Y-84324820D01*
X139447619Y-84324820D02*
X139352381Y-84324820D01*
X139352381Y-84324820D02*
X139257143Y-84277201D01*
X139257143Y-84277201D02*
X139209524Y-84229581D01*
X139209524Y-84229581D02*
X139161905Y-84134343D01*
X139161905Y-84134343D02*
X139114286Y-83943867D01*
X139114286Y-83943867D02*
X139114286Y-83705772D01*
X139114286Y-83705772D02*
X139161905Y-83515296D01*
X139161905Y-83515296D02*
X139209524Y-83420058D01*
X139209524Y-83420058D02*
X139257143Y-83372439D01*
X139257143Y-83372439D02*
X139352381Y-83324820D01*
X140304762Y-83324820D02*
X140400000Y-83324820D01*
X140400000Y-83324820D02*
X140495238Y-83372439D01*
X140495238Y-83372439D02*
X140542857Y-83420058D01*
X140542857Y-83420058D02*
X140590476Y-83515296D01*
X140590476Y-83515296D02*
X140638095Y-83705772D01*
X140638095Y-83705772D02*
X140638095Y-83943867D01*
X140638095Y-83943867D02*
X140590476Y-84134343D01*
X140590476Y-84134343D02*
X140542857Y-84229581D01*
X140542857Y-84229581D02*
X140495238Y-84277201D01*
X140495238Y-84277201D02*
X140400000Y-84324820D01*
X140400000Y-84324820D02*
X140304762Y-84324820D01*
X140304762Y-84324820D02*
X140209524Y-84277201D01*
X140209524Y-84277201D02*
X140161905Y-84229581D01*
X140161905Y-84229581D02*
X140114286Y-84134343D01*
X140114286Y-84134343D02*
X140066667Y-83943867D01*
X140066667Y-83943867D02*
X140066667Y-83705772D01*
X140066667Y-83705772D02*
X140114286Y-83515296D01*
X140114286Y-83515296D02*
X140161905Y-83420058D01*
X140161905Y-83420058D02*
X140209524Y-83372439D01*
X140209524Y-83372439D02*
X140304762Y-83324820D01*
X141257143Y-83324820D02*
X141352381Y-83324820D01*
X141352381Y-83324820D02*
X141447619Y-83372439D01*
X141447619Y-83372439D02*
X141495238Y-83420058D01*
X141495238Y-83420058D02*
X141542857Y-83515296D01*
X141542857Y-83515296D02*
X141590476Y-83705772D01*
X141590476Y-83705772D02*
X141590476Y-83943867D01*
X141590476Y-83943867D02*
X141542857Y-84134343D01*
X141542857Y-84134343D02*
X141495238Y-84229581D01*
X141495238Y-84229581D02*
X141447619Y-84277201D01*
X141447619Y-84277201D02*
X141352381Y-84324820D01*
X141352381Y-84324820D02*
X141257143Y-84324820D01*
X141257143Y-84324820D02*
X141161905Y-84277201D01*
X141161905Y-84277201D02*
X141114286Y-84229581D01*
X141114286Y-84229581D02*
X141066667Y-84134343D01*
X141066667Y-84134343D02*
X141019048Y-83943867D01*
X141019048Y-83943867D02*
X141019048Y-83705772D01*
X141019048Y-83705772D02*
X141066667Y-83515296D01*
X141066667Y-83515296D02*
X141114286Y-83420058D01*
X141114286Y-83420058D02*
X141161905Y-83372439D01*
X141161905Y-83372439D02*
X141257143Y-83324820D01*
X142780953Y-84324820D02*
X142780953Y-83658153D01*
X142780953Y-83753391D02*
X142828572Y-83705772D01*
X142828572Y-83705772D02*
X142923810Y-83658153D01*
X142923810Y-83658153D02*
X143066667Y-83658153D01*
X143066667Y-83658153D02*
X143161905Y-83705772D01*
X143161905Y-83705772D02*
X143209524Y-83801010D01*
X143209524Y-83801010D02*
X143209524Y-84324820D01*
X143209524Y-83801010D02*
X143257143Y-83705772D01*
X143257143Y-83705772D02*
X143352381Y-83658153D01*
X143352381Y-83658153D02*
X143495238Y-83658153D01*
X143495238Y-83658153D02*
X143590477Y-83705772D01*
X143590477Y-83705772D02*
X143638096Y-83801010D01*
X143638096Y-83801010D02*
X143638096Y-84324820D01*
X144114286Y-84324820D02*
X144114286Y-83658153D01*
X144114286Y-83753391D02*
X144161905Y-83705772D01*
X144161905Y-83705772D02*
X144257143Y-83658153D01*
X144257143Y-83658153D02*
X144400000Y-83658153D01*
X144400000Y-83658153D02*
X144495238Y-83705772D01*
X144495238Y-83705772D02*
X144542857Y-83801010D01*
X144542857Y-83801010D02*
X144542857Y-84324820D01*
X144542857Y-83801010D02*
X144590476Y-83705772D01*
X144590476Y-83705772D02*
X144685714Y-83658153D01*
X144685714Y-83658153D02*
X144828571Y-83658153D01*
X144828571Y-83658153D02*
X144923810Y-83705772D01*
X144923810Y-83705772D02*
X144971429Y-83801010D01*
X144971429Y-83801010D02*
X144971429Y-84324820D01*
D11*
X171600000Y-88320000D02*
X171600000Y-84433581D01*
X109200000Y-88320000D02*
X109200000Y-84433581D01*
X171600000Y-85020001D02*
X109200000Y-85020001D01*
X171600000Y-85020001D02*
X109200000Y-85020001D01*
X171600000Y-85020001D02*
X170473496Y-85606422D01*
X171600000Y-85020001D02*
X170473496Y-84433580D01*
X109200000Y-85020001D02*
X110326504Y-84433580D01*
X109200000Y-85020001D02*
X110326504Y-85606422D01*
%LPC*%
D12*
%TO.C,J2_2*%
X160850000Y-115295000D03*
D13*
X163350000Y-115295000D03*
X165850000Y-115295000D03*
X168350000Y-115295000D03*
%TD*%
D14*
%TO.C,J2_1*%
X152200000Y-116345000D03*
D13*
X149700000Y-116345000D03*
X147200000Y-116345000D03*
X144700000Y-116345000D03*
%TD*%
D12*
%TO.C,J1_2*%
X128500000Y-115295000D03*
D13*
X131000000Y-115295000D03*
X133500000Y-115295000D03*
X136000000Y-115295000D03*
%TD*%
D14*
%TO.C,J1_1*%
X119750000Y-116345000D03*
D13*
X117250000Y-116345000D03*
X114750000Y-116345000D03*
X112250000Y-116345000D03*
%TD*%
D15*
%TO.C,MountingHole1*%
X124780000Y-100600000D03*
%TD*%
D16*
%TO.C,U1*%
X110810000Y-95520000D03*
X110810000Y-98060000D03*
X110810000Y-100600000D03*
X110810000Y-103140000D03*
X110810000Y-105680000D03*
X138750000Y-105680000D03*
X138750000Y-103140000D03*
X138750000Y-100600000D03*
X138750000Y-98060000D03*
X138750000Y-95520000D03*
X131130000Y-103140000D03*
X131130000Y-105680000D03*
%TD*%
D15*
%TO.C,MountingHole2*%
X155970000Y-100600000D03*
%TD*%
D16*
%TO.C,U2*%
X142000000Y-95520000D03*
X142000000Y-98060000D03*
X142000000Y-100600000D03*
X142000000Y-103140000D03*
X142000000Y-105680000D03*
X169940000Y-105680000D03*
X169940000Y-103140000D03*
X169940000Y-100600000D03*
X169940000Y-98060000D03*
X169940000Y-95520000D03*
X162320000Y-103140000D03*
X162320000Y-105680000D03*
%TD*%
%LPD*%
M02*
