%TF.GenerationSoftware,KiCad,Pcbnew,8.0.1*%
%TF.CreationDate,2024-04-28T18:39:33+02:00*%
%TF.ProjectId,ScaleModule,5363616c-654d-46f6-9475-6c652e6b6963,v0.1*%
%TF.SameCoordinates,Original*%
%TF.FileFunction,Drillmap*%
%TF.FilePolarity,Positive*%
%FSLAX45Y45*%
G04 Gerber Fmt 4.5, Leading zero omitted, Abs format (unit mm)*
G04 Created by KiCad (PCBNEW 8.0.1) date 2024-04-28 18:39:33*
%MOMM*%
%LPD*%
G01*
G04 APERTURE LIST*
%ADD10C,0.050000*%
%ADD11C,0.200000*%
%ADD12C,0.100000*%
%ADD13C,0.101600*%
G04 APERTURE END LIST*
D10*
X10920000Y-8882000D02*
X17160000Y-8882000D01*
X17160000Y-11922000D01*
X10920000Y-11922000D01*
X10920000Y-8882000D01*
D11*
D12*
X11177500Y-11587000D02*
X11272500Y-11682000D01*
X11272500Y-11587000D02*
X11177500Y-11682000D01*
X11427500Y-11587000D02*
X11522500Y-11682000D01*
X11522500Y-11587000D02*
X11427500Y-11682000D01*
X11677500Y-11587000D02*
X11772500Y-11682000D01*
X11772500Y-11587000D02*
X11677500Y-11682000D01*
X11927500Y-11587000D02*
X12022500Y-11682000D01*
X12022500Y-11587000D02*
X11927500Y-11682000D01*
X12802500Y-11482000D02*
X12897500Y-11577000D01*
X12897500Y-11482000D02*
X12802500Y-11577000D01*
X13052500Y-11482000D02*
X13147500Y-11577000D01*
X13147500Y-11482000D02*
X13052500Y-11577000D01*
X13302500Y-11482000D02*
X13397500Y-11577000D01*
X13397500Y-11482000D02*
X13302500Y-11577000D01*
X13552500Y-11482000D02*
X13647500Y-11577000D01*
X13647500Y-11482000D02*
X13552500Y-11577000D01*
X14422500Y-11587000D02*
X14517500Y-11682000D01*
X14517500Y-11587000D02*
X14422500Y-11682000D01*
X14672500Y-11587000D02*
X14767500Y-11682000D01*
X14767500Y-11587000D02*
X14672500Y-11682000D01*
X14922500Y-11587000D02*
X15017500Y-11682000D01*
X15017500Y-11587000D02*
X14922500Y-11682000D01*
X15172500Y-11587000D02*
X15267500Y-11682000D01*
X15267500Y-11587000D02*
X15172500Y-11682000D01*
X16037500Y-11482000D02*
X16132500Y-11577000D01*
X16132500Y-11482000D02*
X16037500Y-11577000D01*
X16287500Y-11482000D02*
X16382500Y-11577000D01*
X16382500Y-11482000D02*
X16287500Y-11577000D01*
X16537500Y-11482000D02*
X16632500Y-11577000D01*
X16632500Y-11482000D02*
X16537500Y-11577000D01*
X16787500Y-11482000D02*
X16882500Y-11577000D01*
X16882500Y-11482000D02*
X16787500Y-11577000D01*
D13*
X11131800Y-9552000D02*
G75*
G02*
X11030200Y-9552000I-50800J0D01*
G01*
X11030200Y-9552000D02*
G75*
G02*
X11131800Y-9552000I50800J0D01*
G01*
X11131800Y-9806000D02*
G75*
G02*
X11030200Y-9806000I-50800J0D01*
G01*
X11030200Y-9806000D02*
G75*
G02*
X11131800Y-9806000I50800J0D01*
G01*
X11131800Y-10060000D02*
G75*
G02*
X11030200Y-10060000I-50800J0D01*
G01*
X11030200Y-10060000D02*
G75*
G02*
X11131800Y-10060000I50800J0D01*
G01*
X11131800Y-10314000D02*
G75*
G02*
X11030200Y-10314000I-50800J0D01*
G01*
X11030200Y-10314000D02*
G75*
G02*
X11131800Y-10314000I50800J0D01*
G01*
X11131800Y-10568000D02*
G75*
G02*
X11030200Y-10568000I-50800J0D01*
G01*
X11030200Y-10568000D02*
G75*
G02*
X11131800Y-10568000I50800J0D01*
G01*
X13163800Y-10314000D02*
G75*
G02*
X13062200Y-10314000I-50800J0D01*
G01*
X13062200Y-10314000D02*
G75*
G02*
X13163800Y-10314000I50800J0D01*
G01*
X13163800Y-10568000D02*
G75*
G02*
X13062200Y-10568000I-50800J0D01*
G01*
X13062200Y-10568000D02*
G75*
G02*
X13163800Y-10568000I50800J0D01*
G01*
X13925800Y-9552000D02*
G75*
G02*
X13824200Y-9552000I-50800J0D01*
G01*
X13824200Y-9552000D02*
G75*
G02*
X13925800Y-9552000I50800J0D01*
G01*
X13925800Y-9806000D02*
G75*
G02*
X13824200Y-9806000I-50800J0D01*
G01*
X13824200Y-9806000D02*
G75*
G02*
X13925800Y-9806000I50800J0D01*
G01*
X13925800Y-10060000D02*
G75*
G02*
X13824200Y-10060000I-50800J0D01*
G01*
X13824200Y-10060000D02*
G75*
G02*
X13925800Y-10060000I50800J0D01*
G01*
X13925800Y-10314000D02*
G75*
G02*
X13824200Y-10314000I-50800J0D01*
G01*
X13824200Y-10314000D02*
G75*
G02*
X13925800Y-10314000I50800J0D01*
G01*
X13925800Y-10568000D02*
G75*
G02*
X13824200Y-10568000I-50800J0D01*
G01*
X13824200Y-10568000D02*
G75*
G02*
X13925800Y-10568000I50800J0D01*
G01*
X14250800Y-9552000D02*
G75*
G02*
X14149200Y-9552000I-50800J0D01*
G01*
X14149200Y-9552000D02*
G75*
G02*
X14250800Y-9552000I50800J0D01*
G01*
X14250800Y-9806000D02*
G75*
G02*
X14149200Y-9806000I-50800J0D01*
G01*
X14149200Y-9806000D02*
G75*
G02*
X14250800Y-9806000I50800J0D01*
G01*
X14250800Y-10060000D02*
G75*
G02*
X14149200Y-10060000I-50800J0D01*
G01*
X14149200Y-10060000D02*
G75*
G02*
X14250800Y-10060000I50800J0D01*
G01*
X14250800Y-10314000D02*
G75*
G02*
X14149200Y-10314000I-50800J0D01*
G01*
X14149200Y-10314000D02*
G75*
G02*
X14250800Y-10314000I50800J0D01*
G01*
X14250800Y-10568000D02*
G75*
G02*
X14149200Y-10568000I-50800J0D01*
G01*
X14149200Y-10568000D02*
G75*
G02*
X14250800Y-10568000I50800J0D01*
G01*
X16282800Y-10314000D02*
G75*
G02*
X16181200Y-10314000I-50800J0D01*
G01*
X16181200Y-10314000D02*
G75*
G02*
X16282800Y-10314000I50800J0D01*
G01*
X16282800Y-10568000D02*
G75*
G02*
X16181200Y-10568000I-50800J0D01*
G01*
X16181200Y-10568000D02*
G75*
G02*
X16282800Y-10568000I50800J0D01*
G01*
X17044800Y-9552000D02*
G75*
G02*
X16943200Y-9552000I-50800J0D01*
G01*
X16943200Y-9552000D02*
G75*
G02*
X17044800Y-9552000I50800J0D01*
G01*
X17044800Y-9806000D02*
G75*
G02*
X16943200Y-9806000I-50800J0D01*
G01*
X16943200Y-9806000D02*
G75*
G02*
X17044800Y-9806000I50800J0D01*
G01*
X17044800Y-10060000D02*
G75*
G02*
X16943200Y-10060000I-50800J0D01*
G01*
X16943200Y-10060000D02*
G75*
G02*
X17044800Y-10060000I50800J0D01*
G01*
X17044800Y-10314000D02*
G75*
G02*
X16943200Y-10314000I-50800J0D01*
G01*
X16943200Y-10314000D02*
G75*
G02*
X17044800Y-10314000I50800J0D01*
G01*
X17044800Y-10568000D02*
G75*
G02*
X16943200Y-10568000I-50800J0D01*
G01*
X16943200Y-10568000D02*
G75*
G02*
X17044800Y-10568000I50800J0D01*
G01*
D11*
X11178277Y-12235984D02*
X11178277Y-12035984D01*
X11178277Y-12035984D02*
X11225896Y-12035984D01*
X11225896Y-12035984D02*
X11254467Y-12045508D01*
X11254467Y-12045508D02*
X11273515Y-12064555D01*
X11273515Y-12064555D02*
X11283039Y-12083603D01*
X11283039Y-12083603D02*
X11292562Y-12121698D01*
X11292562Y-12121698D02*
X11292562Y-12150269D01*
X11292562Y-12150269D02*
X11283039Y-12188365D01*
X11283039Y-12188365D02*
X11273515Y-12207412D01*
X11273515Y-12207412D02*
X11254467Y-12226460D01*
X11254467Y-12226460D02*
X11225896Y-12235984D01*
X11225896Y-12235984D02*
X11178277Y-12235984D01*
X11378277Y-12235984D02*
X11378277Y-12102650D01*
X11378277Y-12140746D02*
X11387801Y-12121698D01*
X11387801Y-12121698D02*
X11397324Y-12112174D01*
X11397324Y-12112174D02*
X11416372Y-12102650D01*
X11416372Y-12102650D02*
X11435420Y-12102650D01*
X11502086Y-12235984D02*
X11502086Y-12102650D01*
X11502086Y-12035984D02*
X11492562Y-12045508D01*
X11492562Y-12045508D02*
X11502086Y-12055031D01*
X11502086Y-12055031D02*
X11511610Y-12045508D01*
X11511610Y-12045508D02*
X11502086Y-12035984D01*
X11502086Y-12035984D02*
X11502086Y-12055031D01*
X11625896Y-12235984D02*
X11606848Y-12226460D01*
X11606848Y-12226460D02*
X11597324Y-12207412D01*
X11597324Y-12207412D02*
X11597324Y-12035984D01*
X11730658Y-12235984D02*
X11711610Y-12226460D01*
X11711610Y-12226460D02*
X11702086Y-12207412D01*
X11702086Y-12207412D02*
X11702086Y-12035984D01*
X11959229Y-12235984D02*
X11959229Y-12035984D01*
X11959229Y-12035984D02*
X12025896Y-12178841D01*
X12025896Y-12178841D02*
X12092562Y-12035984D01*
X12092562Y-12035984D02*
X12092562Y-12235984D01*
X12273515Y-12235984D02*
X12273515Y-12131222D01*
X12273515Y-12131222D02*
X12263991Y-12112174D01*
X12263991Y-12112174D02*
X12244943Y-12102650D01*
X12244943Y-12102650D02*
X12206848Y-12102650D01*
X12206848Y-12102650D02*
X12187801Y-12112174D01*
X12273515Y-12226460D02*
X12254467Y-12235984D01*
X12254467Y-12235984D02*
X12206848Y-12235984D01*
X12206848Y-12235984D02*
X12187801Y-12226460D01*
X12187801Y-12226460D02*
X12178277Y-12207412D01*
X12178277Y-12207412D02*
X12178277Y-12188365D01*
X12178277Y-12188365D02*
X12187801Y-12169317D01*
X12187801Y-12169317D02*
X12206848Y-12159793D01*
X12206848Y-12159793D02*
X12254467Y-12159793D01*
X12254467Y-12159793D02*
X12273515Y-12150269D01*
X12368753Y-12102650D02*
X12368753Y-12302650D01*
X12368753Y-12112174D02*
X12387801Y-12102650D01*
X12387801Y-12102650D02*
X12425896Y-12102650D01*
X12425896Y-12102650D02*
X12444943Y-12112174D01*
X12444943Y-12112174D02*
X12454467Y-12121698D01*
X12454467Y-12121698D02*
X12463991Y-12140746D01*
X12463991Y-12140746D02*
X12463991Y-12197888D01*
X12463991Y-12197888D02*
X12454467Y-12216936D01*
X12454467Y-12216936D02*
X12444943Y-12226460D01*
X12444943Y-12226460D02*
X12425896Y-12235984D01*
X12425896Y-12235984D02*
X12387801Y-12235984D01*
X12387801Y-12235984D02*
X12368753Y-12226460D01*
X12549705Y-12216936D02*
X12559229Y-12226460D01*
X12559229Y-12226460D02*
X12549705Y-12235984D01*
X12549705Y-12235984D02*
X12540182Y-12226460D01*
X12540182Y-12226460D02*
X12549705Y-12216936D01*
X12549705Y-12216936D02*
X12549705Y-12235984D01*
X12549705Y-12112174D02*
X12559229Y-12121698D01*
X12559229Y-12121698D02*
X12549705Y-12131222D01*
X12549705Y-12131222D02*
X12540182Y-12121698D01*
X12540182Y-12121698D02*
X12549705Y-12112174D01*
X12549705Y-12112174D02*
X12549705Y-12131222D01*
D12*
X10822500Y-12517000D02*
X10917500Y-12612000D01*
X10917500Y-12517000D02*
X10822500Y-12612000D01*
D11*
X11216372Y-12455984D02*
X11235420Y-12455984D01*
X11235420Y-12455984D02*
X11254467Y-12465508D01*
X11254467Y-12465508D02*
X11263991Y-12475031D01*
X11263991Y-12475031D02*
X11273515Y-12494079D01*
X11273515Y-12494079D02*
X11283039Y-12532174D01*
X11283039Y-12532174D02*
X11283039Y-12579793D01*
X11283039Y-12579793D02*
X11273515Y-12617888D01*
X11273515Y-12617888D02*
X11263991Y-12636936D01*
X11263991Y-12636936D02*
X11254467Y-12646460D01*
X11254467Y-12646460D02*
X11235420Y-12655984D01*
X11235420Y-12655984D02*
X11216372Y-12655984D01*
X11216372Y-12655984D02*
X11197324Y-12646460D01*
X11197324Y-12646460D02*
X11187801Y-12636936D01*
X11187801Y-12636936D02*
X11178277Y-12617888D01*
X11178277Y-12617888D02*
X11168753Y-12579793D01*
X11168753Y-12579793D02*
X11168753Y-12532174D01*
X11168753Y-12532174D02*
X11178277Y-12494079D01*
X11178277Y-12494079D02*
X11187801Y-12475031D01*
X11187801Y-12475031D02*
X11197324Y-12465508D01*
X11197324Y-12465508D02*
X11216372Y-12455984D01*
X11368753Y-12636936D02*
X11378277Y-12646460D01*
X11378277Y-12646460D02*
X11368753Y-12655984D01*
X11368753Y-12655984D02*
X11359229Y-12646460D01*
X11359229Y-12646460D02*
X11368753Y-12636936D01*
X11368753Y-12636936D02*
X11368753Y-12655984D01*
X11473515Y-12655984D02*
X11511610Y-12655984D01*
X11511610Y-12655984D02*
X11530658Y-12646460D01*
X11530658Y-12646460D02*
X11540182Y-12636936D01*
X11540182Y-12636936D02*
X11559229Y-12608365D01*
X11559229Y-12608365D02*
X11568753Y-12570269D01*
X11568753Y-12570269D02*
X11568753Y-12494079D01*
X11568753Y-12494079D02*
X11559229Y-12475031D01*
X11559229Y-12475031D02*
X11549705Y-12465508D01*
X11549705Y-12465508D02*
X11530658Y-12455984D01*
X11530658Y-12455984D02*
X11492562Y-12455984D01*
X11492562Y-12455984D02*
X11473515Y-12465508D01*
X11473515Y-12465508D02*
X11463991Y-12475031D01*
X11463991Y-12475031D02*
X11454467Y-12494079D01*
X11454467Y-12494079D02*
X11454467Y-12541698D01*
X11454467Y-12541698D02*
X11463991Y-12560746D01*
X11463991Y-12560746D02*
X11473515Y-12570269D01*
X11473515Y-12570269D02*
X11492562Y-12579793D01*
X11492562Y-12579793D02*
X11530658Y-12579793D01*
X11530658Y-12579793D02*
X11549705Y-12570269D01*
X11549705Y-12570269D02*
X11559229Y-12560746D01*
X11559229Y-12560746D02*
X11568753Y-12541698D01*
X11749705Y-12455984D02*
X11654467Y-12455984D01*
X11654467Y-12455984D02*
X11644943Y-12551222D01*
X11644943Y-12551222D02*
X11654467Y-12541698D01*
X11654467Y-12541698D02*
X11673515Y-12532174D01*
X11673515Y-12532174D02*
X11721134Y-12532174D01*
X11721134Y-12532174D02*
X11740182Y-12541698D01*
X11740182Y-12541698D02*
X11749705Y-12551222D01*
X11749705Y-12551222D02*
X11759229Y-12570269D01*
X11759229Y-12570269D02*
X11759229Y-12617888D01*
X11759229Y-12617888D02*
X11749705Y-12636936D01*
X11749705Y-12636936D02*
X11740182Y-12646460D01*
X11740182Y-12646460D02*
X11721134Y-12655984D01*
X11721134Y-12655984D02*
X11673515Y-12655984D01*
X11673515Y-12655984D02*
X11654467Y-12646460D01*
X11654467Y-12646460D02*
X11644943Y-12636936D01*
X11883039Y-12455984D02*
X11902086Y-12455984D01*
X11902086Y-12455984D02*
X11921134Y-12465508D01*
X11921134Y-12465508D02*
X11930658Y-12475031D01*
X11930658Y-12475031D02*
X11940182Y-12494079D01*
X11940182Y-12494079D02*
X11949705Y-12532174D01*
X11949705Y-12532174D02*
X11949705Y-12579793D01*
X11949705Y-12579793D02*
X11940182Y-12617888D01*
X11940182Y-12617888D02*
X11930658Y-12636936D01*
X11930658Y-12636936D02*
X11921134Y-12646460D01*
X11921134Y-12646460D02*
X11902086Y-12655984D01*
X11902086Y-12655984D02*
X11883039Y-12655984D01*
X11883039Y-12655984D02*
X11863991Y-12646460D01*
X11863991Y-12646460D02*
X11854467Y-12636936D01*
X11854467Y-12636936D02*
X11844943Y-12617888D01*
X11844943Y-12617888D02*
X11835420Y-12579793D01*
X11835420Y-12579793D02*
X11835420Y-12532174D01*
X11835420Y-12532174D02*
X11844943Y-12494079D01*
X11844943Y-12494079D02*
X11854467Y-12475031D01*
X11854467Y-12475031D02*
X11863991Y-12465508D01*
X11863991Y-12465508D02*
X11883039Y-12455984D01*
X12035420Y-12655984D02*
X12035420Y-12522650D01*
X12035420Y-12541698D02*
X12044943Y-12532174D01*
X12044943Y-12532174D02*
X12063991Y-12522650D01*
X12063991Y-12522650D02*
X12092563Y-12522650D01*
X12092563Y-12522650D02*
X12111610Y-12532174D01*
X12111610Y-12532174D02*
X12121134Y-12551222D01*
X12121134Y-12551222D02*
X12121134Y-12655984D01*
X12121134Y-12551222D02*
X12130658Y-12532174D01*
X12130658Y-12532174D02*
X12149705Y-12522650D01*
X12149705Y-12522650D02*
X12178277Y-12522650D01*
X12178277Y-12522650D02*
X12197324Y-12532174D01*
X12197324Y-12532174D02*
X12206848Y-12551222D01*
X12206848Y-12551222D02*
X12206848Y-12655984D01*
X12302086Y-12655984D02*
X12302086Y-12522650D01*
X12302086Y-12541698D02*
X12311610Y-12532174D01*
X12311610Y-12532174D02*
X12330658Y-12522650D01*
X12330658Y-12522650D02*
X12359229Y-12522650D01*
X12359229Y-12522650D02*
X12378277Y-12532174D01*
X12378277Y-12532174D02*
X12387801Y-12551222D01*
X12387801Y-12551222D02*
X12387801Y-12655984D01*
X12387801Y-12551222D02*
X12397324Y-12532174D01*
X12397324Y-12532174D02*
X12416372Y-12522650D01*
X12416372Y-12522650D02*
X12444943Y-12522650D01*
X12444943Y-12522650D02*
X12463991Y-12532174D01*
X12463991Y-12532174D02*
X12473515Y-12551222D01*
X12473515Y-12551222D02*
X12473515Y-12655984D01*
X12863991Y-12446460D02*
X12692563Y-12703603D01*
X13121134Y-12455984D02*
X13140182Y-12455984D01*
X13140182Y-12455984D02*
X13159229Y-12465508D01*
X13159229Y-12465508D02*
X13168753Y-12475031D01*
X13168753Y-12475031D02*
X13178277Y-12494079D01*
X13178277Y-12494079D02*
X13187801Y-12532174D01*
X13187801Y-12532174D02*
X13187801Y-12579793D01*
X13187801Y-12579793D02*
X13178277Y-12617888D01*
X13178277Y-12617888D02*
X13168753Y-12636936D01*
X13168753Y-12636936D02*
X13159229Y-12646460D01*
X13159229Y-12646460D02*
X13140182Y-12655984D01*
X13140182Y-12655984D02*
X13121134Y-12655984D01*
X13121134Y-12655984D02*
X13102086Y-12646460D01*
X13102086Y-12646460D02*
X13092563Y-12636936D01*
X13092563Y-12636936D02*
X13083039Y-12617888D01*
X13083039Y-12617888D02*
X13073515Y-12579793D01*
X13073515Y-12579793D02*
X13073515Y-12532174D01*
X13073515Y-12532174D02*
X13083039Y-12494079D01*
X13083039Y-12494079D02*
X13092563Y-12475031D01*
X13092563Y-12475031D02*
X13102086Y-12465508D01*
X13102086Y-12465508D02*
X13121134Y-12455984D01*
X13273515Y-12636936D02*
X13283039Y-12646460D01*
X13283039Y-12646460D02*
X13273515Y-12655984D01*
X13273515Y-12655984D02*
X13263991Y-12646460D01*
X13263991Y-12646460D02*
X13273515Y-12636936D01*
X13273515Y-12636936D02*
X13273515Y-12655984D01*
X13406848Y-12455984D02*
X13425896Y-12455984D01*
X13425896Y-12455984D02*
X13444944Y-12465508D01*
X13444944Y-12465508D02*
X13454467Y-12475031D01*
X13454467Y-12475031D02*
X13463991Y-12494079D01*
X13463991Y-12494079D02*
X13473515Y-12532174D01*
X13473515Y-12532174D02*
X13473515Y-12579793D01*
X13473515Y-12579793D02*
X13463991Y-12617888D01*
X13463991Y-12617888D02*
X13454467Y-12636936D01*
X13454467Y-12636936D02*
X13444944Y-12646460D01*
X13444944Y-12646460D02*
X13425896Y-12655984D01*
X13425896Y-12655984D02*
X13406848Y-12655984D01*
X13406848Y-12655984D02*
X13387801Y-12646460D01*
X13387801Y-12646460D02*
X13378277Y-12636936D01*
X13378277Y-12636936D02*
X13368753Y-12617888D01*
X13368753Y-12617888D02*
X13359229Y-12579793D01*
X13359229Y-12579793D02*
X13359229Y-12532174D01*
X13359229Y-12532174D02*
X13368753Y-12494079D01*
X13368753Y-12494079D02*
X13378277Y-12475031D01*
X13378277Y-12475031D02*
X13387801Y-12465508D01*
X13387801Y-12465508D02*
X13406848Y-12455984D01*
X13540182Y-12455984D02*
X13663991Y-12455984D01*
X13663991Y-12455984D02*
X13597325Y-12532174D01*
X13597325Y-12532174D02*
X13625896Y-12532174D01*
X13625896Y-12532174D02*
X13644944Y-12541698D01*
X13644944Y-12541698D02*
X13654467Y-12551222D01*
X13654467Y-12551222D02*
X13663991Y-12570269D01*
X13663991Y-12570269D02*
X13663991Y-12617888D01*
X13663991Y-12617888D02*
X13654467Y-12636936D01*
X13654467Y-12636936D02*
X13644944Y-12646460D01*
X13644944Y-12646460D02*
X13625896Y-12655984D01*
X13625896Y-12655984D02*
X13568753Y-12655984D01*
X13568753Y-12655984D02*
X13549706Y-12646460D01*
X13549706Y-12646460D02*
X13540182Y-12636936D01*
X13730658Y-12455984D02*
X13863991Y-12455984D01*
X13863991Y-12455984D02*
X13778277Y-12655984D01*
X14025896Y-12522650D02*
X14025896Y-12655984D01*
X13978277Y-12446460D02*
X13930658Y-12589317D01*
X13930658Y-12589317D02*
X14054467Y-12589317D01*
X14121134Y-12455984D02*
X14121134Y-12494079D01*
X14197325Y-12455984D02*
X14197325Y-12494079D01*
X14492563Y-12732174D02*
X14483039Y-12722650D01*
X14483039Y-12722650D02*
X14463991Y-12694079D01*
X14463991Y-12694079D02*
X14454468Y-12675031D01*
X14454468Y-12675031D02*
X14444944Y-12646460D01*
X14444944Y-12646460D02*
X14435420Y-12598841D01*
X14435420Y-12598841D02*
X14435420Y-12560746D01*
X14435420Y-12560746D02*
X14444944Y-12513127D01*
X14444944Y-12513127D02*
X14454468Y-12484555D01*
X14454468Y-12484555D02*
X14463991Y-12465508D01*
X14463991Y-12465508D02*
X14483039Y-12436936D01*
X14483039Y-12436936D02*
X14492563Y-12427412D01*
X14673515Y-12655984D02*
X14559229Y-12655984D01*
X14616372Y-12655984D02*
X14616372Y-12455984D01*
X14616372Y-12455984D02*
X14597325Y-12484555D01*
X14597325Y-12484555D02*
X14578277Y-12503603D01*
X14578277Y-12503603D02*
X14559229Y-12513127D01*
X14844944Y-12455984D02*
X14806848Y-12455984D01*
X14806848Y-12455984D02*
X14787801Y-12465508D01*
X14787801Y-12465508D02*
X14778277Y-12475031D01*
X14778277Y-12475031D02*
X14759229Y-12503603D01*
X14759229Y-12503603D02*
X14749706Y-12541698D01*
X14749706Y-12541698D02*
X14749706Y-12617888D01*
X14749706Y-12617888D02*
X14759229Y-12636936D01*
X14759229Y-12636936D02*
X14768753Y-12646460D01*
X14768753Y-12646460D02*
X14787801Y-12655984D01*
X14787801Y-12655984D02*
X14825896Y-12655984D01*
X14825896Y-12655984D02*
X14844944Y-12646460D01*
X14844944Y-12646460D02*
X14854468Y-12636936D01*
X14854468Y-12636936D02*
X14863991Y-12617888D01*
X14863991Y-12617888D02*
X14863991Y-12570269D01*
X14863991Y-12570269D02*
X14854468Y-12551222D01*
X14854468Y-12551222D02*
X14844944Y-12541698D01*
X14844944Y-12541698D02*
X14825896Y-12532174D01*
X14825896Y-12532174D02*
X14787801Y-12532174D01*
X14787801Y-12532174D02*
X14768753Y-12541698D01*
X14768753Y-12541698D02*
X14759229Y-12551222D01*
X14759229Y-12551222D02*
X14749706Y-12570269D01*
X15102087Y-12655984D02*
X15102087Y-12455984D01*
X15187801Y-12655984D02*
X15187801Y-12551222D01*
X15187801Y-12551222D02*
X15178277Y-12532174D01*
X15178277Y-12532174D02*
X15159230Y-12522650D01*
X15159230Y-12522650D02*
X15130658Y-12522650D01*
X15130658Y-12522650D02*
X15111610Y-12532174D01*
X15111610Y-12532174D02*
X15102087Y-12541698D01*
X15311610Y-12655984D02*
X15292563Y-12646460D01*
X15292563Y-12646460D02*
X15283039Y-12636936D01*
X15283039Y-12636936D02*
X15273515Y-12617888D01*
X15273515Y-12617888D02*
X15273515Y-12560746D01*
X15273515Y-12560746D02*
X15283039Y-12541698D01*
X15283039Y-12541698D02*
X15292563Y-12532174D01*
X15292563Y-12532174D02*
X15311610Y-12522650D01*
X15311610Y-12522650D02*
X15340182Y-12522650D01*
X15340182Y-12522650D02*
X15359230Y-12532174D01*
X15359230Y-12532174D02*
X15368753Y-12541698D01*
X15368753Y-12541698D02*
X15378277Y-12560746D01*
X15378277Y-12560746D02*
X15378277Y-12617888D01*
X15378277Y-12617888D02*
X15368753Y-12636936D01*
X15368753Y-12636936D02*
X15359230Y-12646460D01*
X15359230Y-12646460D02*
X15340182Y-12655984D01*
X15340182Y-12655984D02*
X15311610Y-12655984D01*
X15492563Y-12655984D02*
X15473515Y-12646460D01*
X15473515Y-12646460D02*
X15463991Y-12627412D01*
X15463991Y-12627412D02*
X15463991Y-12455984D01*
X15644944Y-12646460D02*
X15625896Y-12655984D01*
X15625896Y-12655984D02*
X15587801Y-12655984D01*
X15587801Y-12655984D02*
X15568753Y-12646460D01*
X15568753Y-12646460D02*
X15559230Y-12627412D01*
X15559230Y-12627412D02*
X15559230Y-12551222D01*
X15559230Y-12551222D02*
X15568753Y-12532174D01*
X15568753Y-12532174D02*
X15587801Y-12522650D01*
X15587801Y-12522650D02*
X15625896Y-12522650D01*
X15625896Y-12522650D02*
X15644944Y-12532174D01*
X15644944Y-12532174D02*
X15654468Y-12551222D01*
X15654468Y-12551222D02*
X15654468Y-12570269D01*
X15654468Y-12570269D02*
X15559230Y-12589317D01*
X15730658Y-12646460D02*
X15749706Y-12655984D01*
X15749706Y-12655984D02*
X15787801Y-12655984D01*
X15787801Y-12655984D02*
X15806849Y-12646460D01*
X15806849Y-12646460D02*
X15816372Y-12627412D01*
X15816372Y-12627412D02*
X15816372Y-12617888D01*
X15816372Y-12617888D02*
X15806849Y-12598841D01*
X15806849Y-12598841D02*
X15787801Y-12589317D01*
X15787801Y-12589317D02*
X15759230Y-12589317D01*
X15759230Y-12589317D02*
X15740182Y-12579793D01*
X15740182Y-12579793D02*
X15730658Y-12560746D01*
X15730658Y-12560746D02*
X15730658Y-12551222D01*
X15730658Y-12551222D02*
X15740182Y-12532174D01*
X15740182Y-12532174D02*
X15759230Y-12522650D01*
X15759230Y-12522650D02*
X15787801Y-12522650D01*
X15787801Y-12522650D02*
X15806849Y-12532174D01*
X15883039Y-12732174D02*
X15892563Y-12722650D01*
X15892563Y-12722650D02*
X15911611Y-12694079D01*
X15911611Y-12694079D02*
X15921134Y-12675031D01*
X15921134Y-12675031D02*
X15930658Y-12646460D01*
X15930658Y-12646460D02*
X15940182Y-12598841D01*
X15940182Y-12598841D02*
X15940182Y-12560746D01*
X15940182Y-12560746D02*
X15930658Y-12513127D01*
X15930658Y-12513127D02*
X15921134Y-12484555D01*
X15921134Y-12484555D02*
X15911611Y-12465508D01*
X15911611Y-12465508D02*
X15892563Y-12436936D01*
X15892563Y-12436936D02*
X15883039Y-12427412D01*
D13*
X10917500Y-12828500D02*
G75*
G02*
X10815900Y-12828500I-50800J0D01*
G01*
X10815900Y-12828500D02*
G75*
G02*
X10917500Y-12828500I50800J0D01*
G01*
D11*
X11283039Y-12919984D02*
X11168753Y-12919984D01*
X11225896Y-12919984D02*
X11225896Y-12719984D01*
X11225896Y-12719984D02*
X11206848Y-12748555D01*
X11206848Y-12748555D02*
X11187801Y-12767603D01*
X11187801Y-12767603D02*
X11168753Y-12777127D01*
X11368753Y-12900936D02*
X11378277Y-12910460D01*
X11378277Y-12910460D02*
X11368753Y-12919984D01*
X11368753Y-12919984D02*
X11359229Y-12910460D01*
X11359229Y-12910460D02*
X11368753Y-12900936D01*
X11368753Y-12900936D02*
X11368753Y-12919984D01*
X11502086Y-12719984D02*
X11521134Y-12719984D01*
X11521134Y-12719984D02*
X11540182Y-12729508D01*
X11540182Y-12729508D02*
X11549705Y-12739031D01*
X11549705Y-12739031D02*
X11559229Y-12758079D01*
X11559229Y-12758079D02*
X11568753Y-12796174D01*
X11568753Y-12796174D02*
X11568753Y-12843793D01*
X11568753Y-12843793D02*
X11559229Y-12881888D01*
X11559229Y-12881888D02*
X11549705Y-12900936D01*
X11549705Y-12900936D02*
X11540182Y-12910460D01*
X11540182Y-12910460D02*
X11521134Y-12919984D01*
X11521134Y-12919984D02*
X11502086Y-12919984D01*
X11502086Y-12919984D02*
X11483039Y-12910460D01*
X11483039Y-12910460D02*
X11473515Y-12900936D01*
X11473515Y-12900936D02*
X11463991Y-12881888D01*
X11463991Y-12881888D02*
X11454467Y-12843793D01*
X11454467Y-12843793D02*
X11454467Y-12796174D01*
X11454467Y-12796174D02*
X11463991Y-12758079D01*
X11463991Y-12758079D02*
X11473515Y-12739031D01*
X11473515Y-12739031D02*
X11483039Y-12729508D01*
X11483039Y-12729508D02*
X11502086Y-12719984D01*
X11759229Y-12919984D02*
X11644943Y-12919984D01*
X11702086Y-12919984D02*
X11702086Y-12719984D01*
X11702086Y-12719984D02*
X11683039Y-12748555D01*
X11683039Y-12748555D02*
X11663991Y-12767603D01*
X11663991Y-12767603D02*
X11644943Y-12777127D01*
X11930658Y-12719984D02*
X11892562Y-12719984D01*
X11892562Y-12719984D02*
X11873515Y-12729508D01*
X11873515Y-12729508D02*
X11863991Y-12739031D01*
X11863991Y-12739031D02*
X11844943Y-12767603D01*
X11844943Y-12767603D02*
X11835420Y-12805698D01*
X11835420Y-12805698D02*
X11835420Y-12881888D01*
X11835420Y-12881888D02*
X11844943Y-12900936D01*
X11844943Y-12900936D02*
X11854467Y-12910460D01*
X11854467Y-12910460D02*
X11873515Y-12919984D01*
X11873515Y-12919984D02*
X11911610Y-12919984D01*
X11911610Y-12919984D02*
X11930658Y-12910460D01*
X11930658Y-12910460D02*
X11940182Y-12900936D01*
X11940182Y-12900936D02*
X11949705Y-12881888D01*
X11949705Y-12881888D02*
X11949705Y-12834269D01*
X11949705Y-12834269D02*
X11940182Y-12815222D01*
X11940182Y-12815222D02*
X11930658Y-12805698D01*
X11930658Y-12805698D02*
X11911610Y-12796174D01*
X11911610Y-12796174D02*
X11873515Y-12796174D01*
X11873515Y-12796174D02*
X11854467Y-12805698D01*
X11854467Y-12805698D02*
X11844943Y-12815222D01*
X11844943Y-12815222D02*
X11835420Y-12834269D01*
X12035420Y-12919984D02*
X12035420Y-12786650D01*
X12035420Y-12805698D02*
X12044943Y-12796174D01*
X12044943Y-12796174D02*
X12063991Y-12786650D01*
X12063991Y-12786650D02*
X12092563Y-12786650D01*
X12092563Y-12786650D02*
X12111610Y-12796174D01*
X12111610Y-12796174D02*
X12121134Y-12815222D01*
X12121134Y-12815222D02*
X12121134Y-12919984D01*
X12121134Y-12815222D02*
X12130658Y-12796174D01*
X12130658Y-12796174D02*
X12149705Y-12786650D01*
X12149705Y-12786650D02*
X12178277Y-12786650D01*
X12178277Y-12786650D02*
X12197324Y-12796174D01*
X12197324Y-12796174D02*
X12206848Y-12815222D01*
X12206848Y-12815222D02*
X12206848Y-12919984D01*
X12302086Y-12919984D02*
X12302086Y-12786650D01*
X12302086Y-12805698D02*
X12311610Y-12796174D01*
X12311610Y-12796174D02*
X12330658Y-12786650D01*
X12330658Y-12786650D02*
X12359229Y-12786650D01*
X12359229Y-12786650D02*
X12378277Y-12796174D01*
X12378277Y-12796174D02*
X12387801Y-12815222D01*
X12387801Y-12815222D02*
X12387801Y-12919984D01*
X12387801Y-12815222D02*
X12397324Y-12796174D01*
X12397324Y-12796174D02*
X12416372Y-12786650D01*
X12416372Y-12786650D02*
X12444943Y-12786650D01*
X12444943Y-12786650D02*
X12463991Y-12796174D01*
X12463991Y-12796174D02*
X12473515Y-12815222D01*
X12473515Y-12815222D02*
X12473515Y-12919984D01*
X12863991Y-12710460D02*
X12692563Y-12967603D01*
X13121134Y-12719984D02*
X13140182Y-12719984D01*
X13140182Y-12719984D02*
X13159229Y-12729508D01*
X13159229Y-12729508D02*
X13168753Y-12739031D01*
X13168753Y-12739031D02*
X13178277Y-12758079D01*
X13178277Y-12758079D02*
X13187801Y-12796174D01*
X13187801Y-12796174D02*
X13187801Y-12843793D01*
X13187801Y-12843793D02*
X13178277Y-12881888D01*
X13178277Y-12881888D02*
X13168753Y-12900936D01*
X13168753Y-12900936D02*
X13159229Y-12910460D01*
X13159229Y-12910460D02*
X13140182Y-12919984D01*
X13140182Y-12919984D02*
X13121134Y-12919984D01*
X13121134Y-12919984D02*
X13102086Y-12910460D01*
X13102086Y-12910460D02*
X13092563Y-12900936D01*
X13092563Y-12900936D02*
X13083039Y-12881888D01*
X13083039Y-12881888D02*
X13073515Y-12843793D01*
X13073515Y-12843793D02*
X13073515Y-12796174D01*
X13073515Y-12796174D02*
X13083039Y-12758079D01*
X13083039Y-12758079D02*
X13092563Y-12739031D01*
X13092563Y-12739031D02*
X13102086Y-12729508D01*
X13102086Y-12729508D02*
X13121134Y-12719984D01*
X13273515Y-12900936D02*
X13283039Y-12910460D01*
X13283039Y-12910460D02*
X13273515Y-12919984D01*
X13273515Y-12919984D02*
X13263991Y-12910460D01*
X13263991Y-12910460D02*
X13273515Y-12900936D01*
X13273515Y-12900936D02*
X13273515Y-12919984D01*
X13406848Y-12719984D02*
X13425896Y-12719984D01*
X13425896Y-12719984D02*
X13444944Y-12729508D01*
X13444944Y-12729508D02*
X13454467Y-12739031D01*
X13454467Y-12739031D02*
X13463991Y-12758079D01*
X13463991Y-12758079D02*
X13473515Y-12796174D01*
X13473515Y-12796174D02*
X13473515Y-12843793D01*
X13473515Y-12843793D02*
X13463991Y-12881888D01*
X13463991Y-12881888D02*
X13454467Y-12900936D01*
X13454467Y-12900936D02*
X13444944Y-12910460D01*
X13444944Y-12910460D02*
X13425896Y-12919984D01*
X13425896Y-12919984D02*
X13406848Y-12919984D01*
X13406848Y-12919984D02*
X13387801Y-12910460D01*
X13387801Y-12910460D02*
X13378277Y-12900936D01*
X13378277Y-12900936D02*
X13368753Y-12881888D01*
X13368753Y-12881888D02*
X13359229Y-12843793D01*
X13359229Y-12843793D02*
X13359229Y-12796174D01*
X13359229Y-12796174D02*
X13368753Y-12758079D01*
X13368753Y-12758079D02*
X13378277Y-12739031D01*
X13378277Y-12739031D02*
X13387801Y-12729508D01*
X13387801Y-12729508D02*
X13406848Y-12719984D01*
X13644944Y-12786650D02*
X13644944Y-12919984D01*
X13597325Y-12710460D02*
X13549706Y-12853317D01*
X13549706Y-12853317D02*
X13673515Y-12853317D01*
X13787801Y-12719984D02*
X13806848Y-12719984D01*
X13806848Y-12719984D02*
X13825896Y-12729508D01*
X13825896Y-12729508D02*
X13835420Y-12739031D01*
X13835420Y-12739031D02*
X13844944Y-12758079D01*
X13844944Y-12758079D02*
X13854467Y-12796174D01*
X13854467Y-12796174D02*
X13854467Y-12843793D01*
X13854467Y-12843793D02*
X13844944Y-12881888D01*
X13844944Y-12881888D02*
X13835420Y-12900936D01*
X13835420Y-12900936D02*
X13825896Y-12910460D01*
X13825896Y-12910460D02*
X13806848Y-12919984D01*
X13806848Y-12919984D02*
X13787801Y-12919984D01*
X13787801Y-12919984D02*
X13768753Y-12910460D01*
X13768753Y-12910460D02*
X13759229Y-12900936D01*
X13759229Y-12900936D02*
X13749706Y-12881888D01*
X13749706Y-12881888D02*
X13740182Y-12843793D01*
X13740182Y-12843793D02*
X13740182Y-12796174D01*
X13740182Y-12796174D02*
X13749706Y-12758079D01*
X13749706Y-12758079D02*
X13759229Y-12739031D01*
X13759229Y-12739031D02*
X13768753Y-12729508D01*
X13768753Y-12729508D02*
X13787801Y-12719984D01*
X13978277Y-12719984D02*
X13997325Y-12719984D01*
X13997325Y-12719984D02*
X14016372Y-12729508D01*
X14016372Y-12729508D02*
X14025896Y-12739031D01*
X14025896Y-12739031D02*
X14035420Y-12758079D01*
X14035420Y-12758079D02*
X14044944Y-12796174D01*
X14044944Y-12796174D02*
X14044944Y-12843793D01*
X14044944Y-12843793D02*
X14035420Y-12881888D01*
X14035420Y-12881888D02*
X14025896Y-12900936D01*
X14025896Y-12900936D02*
X14016372Y-12910460D01*
X14016372Y-12910460D02*
X13997325Y-12919984D01*
X13997325Y-12919984D02*
X13978277Y-12919984D01*
X13978277Y-12919984D02*
X13959229Y-12910460D01*
X13959229Y-12910460D02*
X13949706Y-12900936D01*
X13949706Y-12900936D02*
X13940182Y-12881888D01*
X13940182Y-12881888D02*
X13930658Y-12843793D01*
X13930658Y-12843793D02*
X13930658Y-12796174D01*
X13930658Y-12796174D02*
X13940182Y-12758079D01*
X13940182Y-12758079D02*
X13949706Y-12739031D01*
X13949706Y-12739031D02*
X13959229Y-12729508D01*
X13959229Y-12729508D02*
X13978277Y-12719984D01*
X14121134Y-12719984D02*
X14121134Y-12758079D01*
X14197325Y-12719984D02*
X14197325Y-12758079D01*
X14492563Y-12996174D02*
X14483039Y-12986650D01*
X14483039Y-12986650D02*
X14463991Y-12958079D01*
X14463991Y-12958079D02*
X14454468Y-12939031D01*
X14454468Y-12939031D02*
X14444944Y-12910460D01*
X14444944Y-12910460D02*
X14435420Y-12862841D01*
X14435420Y-12862841D02*
X14435420Y-12824746D01*
X14435420Y-12824746D02*
X14444944Y-12777127D01*
X14444944Y-12777127D02*
X14454468Y-12748555D01*
X14454468Y-12748555D02*
X14463991Y-12729508D01*
X14463991Y-12729508D02*
X14483039Y-12700936D01*
X14483039Y-12700936D02*
X14492563Y-12691412D01*
X14559229Y-12739031D02*
X14568753Y-12729508D01*
X14568753Y-12729508D02*
X14587801Y-12719984D01*
X14587801Y-12719984D02*
X14635420Y-12719984D01*
X14635420Y-12719984D02*
X14654468Y-12729508D01*
X14654468Y-12729508D02*
X14663991Y-12739031D01*
X14663991Y-12739031D02*
X14673515Y-12758079D01*
X14673515Y-12758079D02*
X14673515Y-12777127D01*
X14673515Y-12777127D02*
X14663991Y-12805698D01*
X14663991Y-12805698D02*
X14549706Y-12919984D01*
X14549706Y-12919984D02*
X14673515Y-12919984D01*
X14844944Y-12786650D02*
X14844944Y-12919984D01*
X14797325Y-12710460D02*
X14749706Y-12853317D01*
X14749706Y-12853317D02*
X14873515Y-12853317D01*
X15102087Y-12919984D02*
X15102087Y-12719984D01*
X15187801Y-12919984D02*
X15187801Y-12815222D01*
X15187801Y-12815222D02*
X15178277Y-12796174D01*
X15178277Y-12796174D02*
X15159230Y-12786650D01*
X15159230Y-12786650D02*
X15130658Y-12786650D01*
X15130658Y-12786650D02*
X15111610Y-12796174D01*
X15111610Y-12796174D02*
X15102087Y-12805698D01*
X15311610Y-12919984D02*
X15292563Y-12910460D01*
X15292563Y-12910460D02*
X15283039Y-12900936D01*
X15283039Y-12900936D02*
X15273515Y-12881888D01*
X15273515Y-12881888D02*
X15273515Y-12824746D01*
X15273515Y-12824746D02*
X15283039Y-12805698D01*
X15283039Y-12805698D02*
X15292563Y-12796174D01*
X15292563Y-12796174D02*
X15311610Y-12786650D01*
X15311610Y-12786650D02*
X15340182Y-12786650D01*
X15340182Y-12786650D02*
X15359230Y-12796174D01*
X15359230Y-12796174D02*
X15368753Y-12805698D01*
X15368753Y-12805698D02*
X15378277Y-12824746D01*
X15378277Y-12824746D02*
X15378277Y-12881888D01*
X15378277Y-12881888D02*
X15368753Y-12900936D01*
X15368753Y-12900936D02*
X15359230Y-12910460D01*
X15359230Y-12910460D02*
X15340182Y-12919984D01*
X15340182Y-12919984D02*
X15311610Y-12919984D01*
X15492563Y-12919984D02*
X15473515Y-12910460D01*
X15473515Y-12910460D02*
X15463991Y-12891412D01*
X15463991Y-12891412D02*
X15463991Y-12719984D01*
X15644944Y-12910460D02*
X15625896Y-12919984D01*
X15625896Y-12919984D02*
X15587801Y-12919984D01*
X15587801Y-12919984D02*
X15568753Y-12910460D01*
X15568753Y-12910460D02*
X15559230Y-12891412D01*
X15559230Y-12891412D02*
X15559230Y-12815222D01*
X15559230Y-12815222D02*
X15568753Y-12796174D01*
X15568753Y-12796174D02*
X15587801Y-12786650D01*
X15587801Y-12786650D02*
X15625896Y-12786650D01*
X15625896Y-12786650D02*
X15644944Y-12796174D01*
X15644944Y-12796174D02*
X15654468Y-12815222D01*
X15654468Y-12815222D02*
X15654468Y-12834269D01*
X15654468Y-12834269D02*
X15559230Y-12853317D01*
X15730658Y-12910460D02*
X15749706Y-12919984D01*
X15749706Y-12919984D02*
X15787801Y-12919984D01*
X15787801Y-12919984D02*
X15806849Y-12910460D01*
X15806849Y-12910460D02*
X15816372Y-12891412D01*
X15816372Y-12891412D02*
X15816372Y-12881888D01*
X15816372Y-12881888D02*
X15806849Y-12862841D01*
X15806849Y-12862841D02*
X15787801Y-12853317D01*
X15787801Y-12853317D02*
X15759230Y-12853317D01*
X15759230Y-12853317D02*
X15740182Y-12843793D01*
X15740182Y-12843793D02*
X15730658Y-12824746D01*
X15730658Y-12824746D02*
X15730658Y-12815222D01*
X15730658Y-12815222D02*
X15740182Y-12796174D01*
X15740182Y-12796174D02*
X15759230Y-12786650D01*
X15759230Y-12786650D02*
X15787801Y-12786650D01*
X15787801Y-12786650D02*
X15806849Y-12796174D01*
X15883039Y-12996174D02*
X15892563Y-12986650D01*
X15892563Y-12986650D02*
X15911611Y-12958079D01*
X15911611Y-12958079D02*
X15921134Y-12939031D01*
X15921134Y-12939031D02*
X15930658Y-12910460D01*
X15930658Y-12910460D02*
X15940182Y-12862841D01*
X15940182Y-12862841D02*
X15940182Y-12824746D01*
X15940182Y-12824746D02*
X15930658Y-12777127D01*
X15930658Y-12777127D02*
X15921134Y-12748555D01*
X15921134Y-12748555D02*
X15911611Y-12729508D01*
X15911611Y-12729508D02*
X15892563Y-12700936D01*
X15892563Y-12700936D02*
X15883039Y-12691412D01*
M02*
