%TF.GenerationSoftware,KiCad,Pcbnew,8.0.1*%
%TF.CreationDate,2024-04-28T18:54:05+02:00*%
%TF.ProjectId,SwitchesModule,53776974-6368-4657-934d-6f64756c652e,v0.1*%
%TF.SameCoordinates,Original*%
%TF.FileFunction,Drillmap*%
%TF.FilePolarity,Positive*%
%FSLAX45Y45*%
G04 Gerber Fmt 4.5, Leading zero omitted, Abs format (unit mm)*
G04 Created by KiCad (PCBNEW 8.0.1) date 2024-04-28 18:54:05*
%MOMM*%
%LPD*%
G01*
G04 APERTURE LIST*
%ADD10C,0.050000*%
%ADD11C,0.200000*%
%ADD12C,0.100000*%
%ADD13C,0.119888*%
%ADD14C,0.150000*%
G04 APERTURE END LIST*
D10*
X11942910Y-8784686D02*
X17242910Y-8784686D01*
X17242910Y-11684686D01*
X11942910Y-11684686D01*
X11942910Y-8784686D01*
D11*
D12*
X12841984Y-10234510D02*
X12921984Y-10314510D01*
X12921984Y-10234510D02*
X12841984Y-10314510D01*
X13085592Y-9154800D02*
X13165592Y-9234800D01*
X13165592Y-9154800D02*
X13085592Y-9234800D01*
X13285592Y-9154800D02*
X13365592Y-9234800D01*
X13365592Y-9154800D02*
X13285592Y-9234800D01*
X13485592Y-9154800D02*
X13565592Y-9234800D01*
X13565592Y-9154800D02*
X13485592Y-9234800D01*
X13603984Y-10234510D02*
X13683984Y-10314510D01*
X13683984Y-10234510D02*
X13603984Y-10314510D01*
X14162200Y-10234510D02*
X14242200Y-10314510D01*
X14242200Y-10234510D02*
X14162200Y-10314510D01*
X14343200Y-9154800D02*
X14423200Y-9234800D01*
X14423200Y-9154800D02*
X14343200Y-9234800D01*
X14543200Y-9154800D02*
X14623200Y-9234800D01*
X14623200Y-9154800D02*
X14543200Y-9234800D01*
X14743200Y-9154800D02*
X14823200Y-9234800D01*
X14823200Y-9154800D02*
X14743200Y-9234800D01*
X14924200Y-10234510D02*
X15004200Y-10314510D01*
X15004200Y-10234510D02*
X14924200Y-10314510D01*
X15482416Y-10234510D02*
X15562416Y-10314510D01*
X15562416Y-10234510D02*
X15482416Y-10314510D01*
X15600808Y-9154800D02*
X15680808Y-9234800D01*
X15680808Y-9154800D02*
X15600808Y-9234800D01*
X15800808Y-9154800D02*
X15880808Y-9234800D01*
X15880808Y-9154800D02*
X15800808Y-9234800D01*
X16000808Y-9154800D02*
X16080808Y-9234800D01*
X16080808Y-9154800D02*
X16000808Y-9234800D01*
X16244416Y-10234510D02*
X16324416Y-10314510D01*
X16324416Y-10234510D02*
X16244416Y-10314510D01*
X12307810Y-9787826D02*
G75*
G02*
X12212810Y-9787826I-47500J0D01*
G01*
X12212810Y-9787826D02*
G75*
G02*
X12307810Y-9787826I47500J0D01*
G01*
X12307810Y-10037826D02*
G75*
G02*
X12212810Y-10037826I-47500J0D01*
G01*
X12212810Y-10037826D02*
G75*
G02*
X12307810Y-10037826I47500J0D01*
G01*
X12307810Y-10287826D02*
G75*
G02*
X12212810Y-10287826I-47500J0D01*
G01*
X12212810Y-10287826D02*
G75*
G02*
X12307810Y-10287826I47500J0D01*
G01*
X12307810Y-10537826D02*
G75*
G02*
X12212810Y-10537826I-47500J0D01*
G01*
X12212810Y-10537826D02*
G75*
G02*
X12307810Y-10537826I47500J0D01*
G01*
X12307810Y-10787826D02*
G75*
G02*
X12212810Y-10787826I-47500J0D01*
G01*
X12212810Y-10787826D02*
G75*
G02*
X12307810Y-10787826I47500J0D01*
G01*
X16953470Y-10037826D02*
G75*
G02*
X16858470Y-10037826I-47500J0D01*
G01*
X16858470Y-10037826D02*
G75*
G02*
X16953470Y-10037826I47500J0D01*
G01*
X16953470Y-10287826D02*
G75*
G02*
X16858470Y-10287826I-47500J0D01*
G01*
X16858470Y-10287826D02*
G75*
G02*
X16953470Y-10287826I47500J0D01*
G01*
X16953470Y-10537826D02*
G75*
G02*
X16858470Y-10537826I-47500J0D01*
G01*
X16858470Y-10537826D02*
G75*
G02*
X16953470Y-10537826I47500J0D01*
G01*
X16953470Y-10787826D02*
G75*
G02*
X16858470Y-10787826I-47500J0D01*
G01*
X16858470Y-10787826D02*
G75*
G02*
X16953470Y-10787826I47500J0D01*
G01*
D13*
X13013048Y-9589726D02*
X13013048Y-9709614D01*
X12953104Y-9649670D02*
X13072992Y-9649670D01*
X13013048Y-10839406D02*
X13013048Y-10959294D01*
X12953104Y-10899350D02*
X13072992Y-10899350D01*
X13512920Y-9589726D02*
X13512920Y-9709614D01*
X13452976Y-9649670D02*
X13572864Y-9649670D01*
X13512920Y-10839406D02*
X13512920Y-10959294D01*
X13452976Y-10899350D02*
X13572864Y-10899350D01*
X14333264Y-9589726D02*
X14333264Y-9709614D01*
X14273320Y-9649670D02*
X14393208Y-9649670D01*
X14333264Y-10839406D02*
X14333264Y-10959294D01*
X14273320Y-10899350D02*
X14393208Y-10899350D01*
X14833136Y-9589726D02*
X14833136Y-9709614D01*
X14773192Y-9649670D02*
X14893080Y-9649670D01*
X14833136Y-10839406D02*
X14833136Y-10959294D01*
X14773192Y-10899350D02*
X14893080Y-10899350D01*
X15653480Y-9589726D02*
X15653480Y-9709614D01*
X15593536Y-9649670D02*
X15713424Y-9649670D01*
X15653480Y-10839406D02*
X15653480Y-10959294D01*
X15593536Y-10899350D02*
X15713424Y-10899350D01*
X16153352Y-9589726D02*
X16153352Y-9709614D01*
X16093408Y-9649670D02*
X16213296Y-9649670D01*
X16153352Y-10839406D02*
X16153352Y-10959294D01*
X16093408Y-10899350D02*
X16213296Y-10899350D01*
D14*
X12968625Y-9247834D02*
X12968625Y-9141767D01*
X12862558Y-9141767D01*
X12862558Y-9247834D01*
X12968625Y-9247834D01*
X13788625Y-9247834D02*
X13788625Y-9141767D01*
X13682558Y-9141767D01*
X13682558Y-9247834D01*
X13788625Y-9247834D01*
X14226233Y-9247834D02*
X14226233Y-9141767D01*
X14120166Y-9141767D01*
X14120166Y-9247834D01*
X14226233Y-9247834D01*
X15046233Y-9247834D02*
X15046233Y-9141767D01*
X14940166Y-9141767D01*
X14940166Y-9247834D01*
X15046233Y-9247834D01*
X15483841Y-9247834D02*
X15483841Y-9141767D01*
X15377774Y-9141767D01*
X15377774Y-9247834D01*
X15483841Y-9247834D01*
X16303841Y-9247834D02*
X16303841Y-9141767D01*
X16197774Y-9141767D01*
X16197774Y-9247834D01*
X16303841Y-9247834D01*
D11*
X12201187Y-11998670D02*
X12201187Y-11798670D01*
X12201187Y-11798670D02*
X12248806Y-11798670D01*
X12248806Y-11798670D02*
X12277377Y-11808194D01*
X12277377Y-11808194D02*
X12296425Y-11827241D01*
X12296425Y-11827241D02*
X12305949Y-11846289D01*
X12305949Y-11846289D02*
X12315472Y-11884384D01*
X12315472Y-11884384D02*
X12315472Y-11912955D01*
X12315472Y-11912955D02*
X12305949Y-11951051D01*
X12305949Y-11951051D02*
X12296425Y-11970098D01*
X12296425Y-11970098D02*
X12277377Y-11989146D01*
X12277377Y-11989146D02*
X12248806Y-11998670D01*
X12248806Y-11998670D02*
X12201187Y-11998670D01*
X12401187Y-11998670D02*
X12401187Y-11865336D01*
X12401187Y-11903432D02*
X12410711Y-11884384D01*
X12410711Y-11884384D02*
X12420234Y-11874860D01*
X12420234Y-11874860D02*
X12439282Y-11865336D01*
X12439282Y-11865336D02*
X12458330Y-11865336D01*
X12524996Y-11998670D02*
X12524996Y-11865336D01*
X12524996Y-11798670D02*
X12515472Y-11808194D01*
X12515472Y-11808194D02*
X12524996Y-11817717D01*
X12524996Y-11817717D02*
X12534520Y-11808194D01*
X12534520Y-11808194D02*
X12524996Y-11798670D01*
X12524996Y-11798670D02*
X12524996Y-11817717D01*
X12648806Y-11998670D02*
X12629758Y-11989146D01*
X12629758Y-11989146D02*
X12620234Y-11970098D01*
X12620234Y-11970098D02*
X12620234Y-11798670D01*
X12753568Y-11998670D02*
X12734520Y-11989146D01*
X12734520Y-11989146D02*
X12724996Y-11970098D01*
X12724996Y-11970098D02*
X12724996Y-11798670D01*
X12982139Y-11998670D02*
X12982139Y-11798670D01*
X12982139Y-11798670D02*
X13048806Y-11941527D01*
X13048806Y-11941527D02*
X13115472Y-11798670D01*
X13115472Y-11798670D02*
X13115472Y-11998670D01*
X13296425Y-11998670D02*
X13296425Y-11893908D01*
X13296425Y-11893908D02*
X13286901Y-11874860D01*
X13286901Y-11874860D02*
X13267853Y-11865336D01*
X13267853Y-11865336D02*
X13229758Y-11865336D01*
X13229758Y-11865336D02*
X13210711Y-11874860D01*
X13296425Y-11989146D02*
X13277377Y-11998670D01*
X13277377Y-11998670D02*
X13229758Y-11998670D01*
X13229758Y-11998670D02*
X13210711Y-11989146D01*
X13210711Y-11989146D02*
X13201187Y-11970098D01*
X13201187Y-11970098D02*
X13201187Y-11951051D01*
X13201187Y-11951051D02*
X13210711Y-11932003D01*
X13210711Y-11932003D02*
X13229758Y-11922479D01*
X13229758Y-11922479D02*
X13277377Y-11922479D01*
X13277377Y-11922479D02*
X13296425Y-11912955D01*
X13391663Y-11865336D02*
X13391663Y-12065336D01*
X13391663Y-11874860D02*
X13410711Y-11865336D01*
X13410711Y-11865336D02*
X13448806Y-11865336D01*
X13448806Y-11865336D02*
X13467853Y-11874860D01*
X13467853Y-11874860D02*
X13477377Y-11884384D01*
X13477377Y-11884384D02*
X13486901Y-11903432D01*
X13486901Y-11903432D02*
X13486901Y-11960574D01*
X13486901Y-11960574D02*
X13477377Y-11979622D01*
X13477377Y-11979622D02*
X13467853Y-11989146D01*
X13467853Y-11989146D02*
X13448806Y-11998670D01*
X13448806Y-11998670D02*
X13410711Y-11998670D01*
X13410711Y-11998670D02*
X13391663Y-11989146D01*
X13572615Y-11979622D02*
X13582139Y-11989146D01*
X13582139Y-11989146D02*
X13572615Y-11998670D01*
X13572615Y-11998670D02*
X13563092Y-11989146D01*
X13563092Y-11989146D02*
X13572615Y-11979622D01*
X13572615Y-11979622D02*
X13572615Y-11998670D01*
X13572615Y-11874860D02*
X13582139Y-11884384D01*
X13582139Y-11884384D02*
X13572615Y-11893908D01*
X13572615Y-11893908D02*
X13563092Y-11884384D01*
X13563092Y-11884384D02*
X13572615Y-11874860D01*
X13572615Y-11874860D02*
X13572615Y-11893908D01*
D12*
X11860410Y-12287186D02*
X11940410Y-12367186D01*
X11940410Y-12287186D02*
X11860410Y-12367186D01*
D11*
X12239282Y-12218670D02*
X12258330Y-12218670D01*
X12258330Y-12218670D02*
X12277377Y-12228194D01*
X12277377Y-12228194D02*
X12286901Y-12237717D01*
X12286901Y-12237717D02*
X12296425Y-12256765D01*
X12296425Y-12256765D02*
X12305949Y-12294860D01*
X12305949Y-12294860D02*
X12305949Y-12342479D01*
X12305949Y-12342479D02*
X12296425Y-12380574D01*
X12296425Y-12380574D02*
X12286901Y-12399622D01*
X12286901Y-12399622D02*
X12277377Y-12409146D01*
X12277377Y-12409146D02*
X12258330Y-12418670D01*
X12258330Y-12418670D02*
X12239282Y-12418670D01*
X12239282Y-12418670D02*
X12220234Y-12409146D01*
X12220234Y-12409146D02*
X12210711Y-12399622D01*
X12210711Y-12399622D02*
X12201187Y-12380574D01*
X12201187Y-12380574D02*
X12191663Y-12342479D01*
X12191663Y-12342479D02*
X12191663Y-12294860D01*
X12191663Y-12294860D02*
X12201187Y-12256765D01*
X12201187Y-12256765D02*
X12210711Y-12237717D01*
X12210711Y-12237717D02*
X12220234Y-12228194D01*
X12220234Y-12228194D02*
X12239282Y-12218670D01*
X12391663Y-12399622D02*
X12401187Y-12409146D01*
X12401187Y-12409146D02*
X12391663Y-12418670D01*
X12391663Y-12418670D02*
X12382139Y-12409146D01*
X12382139Y-12409146D02*
X12391663Y-12399622D01*
X12391663Y-12399622D02*
X12391663Y-12418670D01*
X12515472Y-12304384D02*
X12496425Y-12294860D01*
X12496425Y-12294860D02*
X12486901Y-12285336D01*
X12486901Y-12285336D02*
X12477377Y-12266289D01*
X12477377Y-12266289D02*
X12477377Y-12256765D01*
X12477377Y-12256765D02*
X12486901Y-12237717D01*
X12486901Y-12237717D02*
X12496425Y-12228194D01*
X12496425Y-12228194D02*
X12515472Y-12218670D01*
X12515472Y-12218670D02*
X12553568Y-12218670D01*
X12553568Y-12218670D02*
X12572615Y-12228194D01*
X12572615Y-12228194D02*
X12582139Y-12237717D01*
X12582139Y-12237717D02*
X12591663Y-12256765D01*
X12591663Y-12256765D02*
X12591663Y-12266289D01*
X12591663Y-12266289D02*
X12582139Y-12285336D01*
X12582139Y-12285336D02*
X12572615Y-12294860D01*
X12572615Y-12294860D02*
X12553568Y-12304384D01*
X12553568Y-12304384D02*
X12515472Y-12304384D01*
X12515472Y-12304384D02*
X12496425Y-12313908D01*
X12496425Y-12313908D02*
X12486901Y-12323432D01*
X12486901Y-12323432D02*
X12477377Y-12342479D01*
X12477377Y-12342479D02*
X12477377Y-12380574D01*
X12477377Y-12380574D02*
X12486901Y-12399622D01*
X12486901Y-12399622D02*
X12496425Y-12409146D01*
X12496425Y-12409146D02*
X12515472Y-12418670D01*
X12515472Y-12418670D02*
X12553568Y-12418670D01*
X12553568Y-12418670D02*
X12572615Y-12409146D01*
X12572615Y-12409146D02*
X12582139Y-12399622D01*
X12582139Y-12399622D02*
X12591663Y-12380574D01*
X12591663Y-12380574D02*
X12591663Y-12342479D01*
X12591663Y-12342479D02*
X12582139Y-12323432D01*
X12582139Y-12323432D02*
X12572615Y-12313908D01*
X12572615Y-12313908D02*
X12553568Y-12304384D01*
X12715472Y-12218670D02*
X12734520Y-12218670D01*
X12734520Y-12218670D02*
X12753568Y-12228194D01*
X12753568Y-12228194D02*
X12763092Y-12237717D01*
X12763092Y-12237717D02*
X12772615Y-12256765D01*
X12772615Y-12256765D02*
X12782139Y-12294860D01*
X12782139Y-12294860D02*
X12782139Y-12342479D01*
X12782139Y-12342479D02*
X12772615Y-12380574D01*
X12772615Y-12380574D02*
X12763092Y-12399622D01*
X12763092Y-12399622D02*
X12753568Y-12409146D01*
X12753568Y-12409146D02*
X12734520Y-12418670D01*
X12734520Y-12418670D02*
X12715472Y-12418670D01*
X12715472Y-12418670D02*
X12696425Y-12409146D01*
X12696425Y-12409146D02*
X12686901Y-12399622D01*
X12686901Y-12399622D02*
X12677377Y-12380574D01*
X12677377Y-12380574D02*
X12667853Y-12342479D01*
X12667853Y-12342479D02*
X12667853Y-12294860D01*
X12667853Y-12294860D02*
X12677377Y-12256765D01*
X12677377Y-12256765D02*
X12686901Y-12237717D01*
X12686901Y-12237717D02*
X12696425Y-12228194D01*
X12696425Y-12228194D02*
X12715472Y-12218670D01*
X12905949Y-12218670D02*
X12924996Y-12218670D01*
X12924996Y-12218670D02*
X12944044Y-12228194D01*
X12944044Y-12228194D02*
X12953568Y-12237717D01*
X12953568Y-12237717D02*
X12963092Y-12256765D01*
X12963092Y-12256765D02*
X12972615Y-12294860D01*
X12972615Y-12294860D02*
X12972615Y-12342479D01*
X12972615Y-12342479D02*
X12963092Y-12380574D01*
X12963092Y-12380574D02*
X12953568Y-12399622D01*
X12953568Y-12399622D02*
X12944044Y-12409146D01*
X12944044Y-12409146D02*
X12924996Y-12418670D01*
X12924996Y-12418670D02*
X12905949Y-12418670D01*
X12905949Y-12418670D02*
X12886901Y-12409146D01*
X12886901Y-12409146D02*
X12877377Y-12399622D01*
X12877377Y-12399622D02*
X12867853Y-12380574D01*
X12867853Y-12380574D02*
X12858330Y-12342479D01*
X12858330Y-12342479D02*
X12858330Y-12294860D01*
X12858330Y-12294860D02*
X12867853Y-12256765D01*
X12867853Y-12256765D02*
X12877377Y-12237717D01*
X12877377Y-12237717D02*
X12886901Y-12228194D01*
X12886901Y-12228194D02*
X12905949Y-12218670D01*
X13058330Y-12418670D02*
X13058330Y-12285336D01*
X13058330Y-12304384D02*
X13067853Y-12294860D01*
X13067853Y-12294860D02*
X13086901Y-12285336D01*
X13086901Y-12285336D02*
X13115473Y-12285336D01*
X13115473Y-12285336D02*
X13134520Y-12294860D01*
X13134520Y-12294860D02*
X13144044Y-12313908D01*
X13144044Y-12313908D02*
X13144044Y-12418670D01*
X13144044Y-12313908D02*
X13153568Y-12294860D01*
X13153568Y-12294860D02*
X13172615Y-12285336D01*
X13172615Y-12285336D02*
X13201187Y-12285336D01*
X13201187Y-12285336D02*
X13220234Y-12294860D01*
X13220234Y-12294860D02*
X13229758Y-12313908D01*
X13229758Y-12313908D02*
X13229758Y-12418670D01*
X13324996Y-12418670D02*
X13324996Y-12285336D01*
X13324996Y-12304384D02*
X13334520Y-12294860D01*
X13334520Y-12294860D02*
X13353568Y-12285336D01*
X13353568Y-12285336D02*
X13382139Y-12285336D01*
X13382139Y-12285336D02*
X13401187Y-12294860D01*
X13401187Y-12294860D02*
X13410711Y-12313908D01*
X13410711Y-12313908D02*
X13410711Y-12418670D01*
X13410711Y-12313908D02*
X13420234Y-12294860D01*
X13420234Y-12294860D02*
X13439282Y-12285336D01*
X13439282Y-12285336D02*
X13467853Y-12285336D01*
X13467853Y-12285336D02*
X13486901Y-12294860D01*
X13486901Y-12294860D02*
X13496425Y-12313908D01*
X13496425Y-12313908D02*
X13496425Y-12418670D01*
X13886901Y-12209146D02*
X13715473Y-12466289D01*
X14144044Y-12218670D02*
X14163092Y-12218670D01*
X14163092Y-12218670D02*
X14182139Y-12228194D01*
X14182139Y-12228194D02*
X14191663Y-12237717D01*
X14191663Y-12237717D02*
X14201187Y-12256765D01*
X14201187Y-12256765D02*
X14210711Y-12294860D01*
X14210711Y-12294860D02*
X14210711Y-12342479D01*
X14210711Y-12342479D02*
X14201187Y-12380574D01*
X14201187Y-12380574D02*
X14191663Y-12399622D01*
X14191663Y-12399622D02*
X14182139Y-12409146D01*
X14182139Y-12409146D02*
X14163092Y-12418670D01*
X14163092Y-12418670D02*
X14144044Y-12418670D01*
X14144044Y-12418670D02*
X14124996Y-12409146D01*
X14124996Y-12409146D02*
X14115473Y-12399622D01*
X14115473Y-12399622D02*
X14105949Y-12380574D01*
X14105949Y-12380574D02*
X14096425Y-12342479D01*
X14096425Y-12342479D02*
X14096425Y-12294860D01*
X14096425Y-12294860D02*
X14105949Y-12256765D01*
X14105949Y-12256765D02*
X14115473Y-12237717D01*
X14115473Y-12237717D02*
X14124996Y-12228194D01*
X14124996Y-12228194D02*
X14144044Y-12218670D01*
X14296425Y-12399622D02*
X14305949Y-12409146D01*
X14305949Y-12409146D02*
X14296425Y-12418670D01*
X14296425Y-12418670D02*
X14286901Y-12409146D01*
X14286901Y-12409146D02*
X14296425Y-12399622D01*
X14296425Y-12399622D02*
X14296425Y-12418670D01*
X14429758Y-12218670D02*
X14448806Y-12218670D01*
X14448806Y-12218670D02*
X14467854Y-12228194D01*
X14467854Y-12228194D02*
X14477377Y-12237717D01*
X14477377Y-12237717D02*
X14486901Y-12256765D01*
X14486901Y-12256765D02*
X14496425Y-12294860D01*
X14496425Y-12294860D02*
X14496425Y-12342479D01*
X14496425Y-12342479D02*
X14486901Y-12380574D01*
X14486901Y-12380574D02*
X14477377Y-12399622D01*
X14477377Y-12399622D02*
X14467854Y-12409146D01*
X14467854Y-12409146D02*
X14448806Y-12418670D01*
X14448806Y-12418670D02*
X14429758Y-12418670D01*
X14429758Y-12418670D02*
X14410711Y-12409146D01*
X14410711Y-12409146D02*
X14401187Y-12399622D01*
X14401187Y-12399622D02*
X14391663Y-12380574D01*
X14391663Y-12380574D02*
X14382139Y-12342479D01*
X14382139Y-12342479D02*
X14382139Y-12294860D01*
X14382139Y-12294860D02*
X14391663Y-12256765D01*
X14391663Y-12256765D02*
X14401187Y-12237717D01*
X14401187Y-12237717D02*
X14410711Y-12228194D01*
X14410711Y-12228194D02*
X14429758Y-12218670D01*
X14563092Y-12218670D02*
X14686901Y-12218670D01*
X14686901Y-12218670D02*
X14620235Y-12294860D01*
X14620235Y-12294860D02*
X14648806Y-12294860D01*
X14648806Y-12294860D02*
X14667854Y-12304384D01*
X14667854Y-12304384D02*
X14677377Y-12313908D01*
X14677377Y-12313908D02*
X14686901Y-12332955D01*
X14686901Y-12332955D02*
X14686901Y-12380574D01*
X14686901Y-12380574D02*
X14677377Y-12399622D01*
X14677377Y-12399622D02*
X14667854Y-12409146D01*
X14667854Y-12409146D02*
X14648806Y-12418670D01*
X14648806Y-12418670D02*
X14591663Y-12418670D01*
X14591663Y-12418670D02*
X14572616Y-12409146D01*
X14572616Y-12409146D02*
X14563092Y-12399622D01*
X14877377Y-12418670D02*
X14763092Y-12418670D01*
X14820235Y-12418670D02*
X14820235Y-12218670D01*
X14820235Y-12218670D02*
X14801187Y-12247241D01*
X14801187Y-12247241D02*
X14782139Y-12266289D01*
X14782139Y-12266289D02*
X14763092Y-12275813D01*
X15058330Y-12218670D02*
X14963092Y-12218670D01*
X14963092Y-12218670D02*
X14953568Y-12313908D01*
X14953568Y-12313908D02*
X14963092Y-12304384D01*
X14963092Y-12304384D02*
X14982139Y-12294860D01*
X14982139Y-12294860D02*
X15029758Y-12294860D01*
X15029758Y-12294860D02*
X15048806Y-12304384D01*
X15048806Y-12304384D02*
X15058330Y-12313908D01*
X15058330Y-12313908D02*
X15067854Y-12332955D01*
X15067854Y-12332955D02*
X15067854Y-12380574D01*
X15067854Y-12380574D02*
X15058330Y-12399622D01*
X15058330Y-12399622D02*
X15048806Y-12409146D01*
X15048806Y-12409146D02*
X15029758Y-12418670D01*
X15029758Y-12418670D02*
X14982139Y-12418670D01*
X14982139Y-12418670D02*
X14963092Y-12409146D01*
X14963092Y-12409146D02*
X14953568Y-12399622D01*
X15144044Y-12218670D02*
X15144044Y-12256765D01*
X15220235Y-12218670D02*
X15220235Y-12256765D01*
X15515473Y-12494860D02*
X15505949Y-12485336D01*
X15505949Y-12485336D02*
X15486901Y-12456765D01*
X15486901Y-12456765D02*
X15477378Y-12437717D01*
X15477378Y-12437717D02*
X15467854Y-12409146D01*
X15467854Y-12409146D02*
X15458330Y-12361527D01*
X15458330Y-12361527D02*
X15458330Y-12323432D01*
X15458330Y-12323432D02*
X15467854Y-12275813D01*
X15467854Y-12275813D02*
X15477378Y-12247241D01*
X15477378Y-12247241D02*
X15486901Y-12228194D01*
X15486901Y-12228194D02*
X15505949Y-12199622D01*
X15505949Y-12199622D02*
X15515473Y-12190098D01*
X15696425Y-12418670D02*
X15582139Y-12418670D01*
X15639282Y-12418670D02*
X15639282Y-12218670D01*
X15639282Y-12218670D02*
X15620235Y-12247241D01*
X15620235Y-12247241D02*
X15601187Y-12266289D01*
X15601187Y-12266289D02*
X15582139Y-12275813D01*
X15877378Y-12218670D02*
X15782139Y-12218670D01*
X15782139Y-12218670D02*
X15772616Y-12313908D01*
X15772616Y-12313908D02*
X15782139Y-12304384D01*
X15782139Y-12304384D02*
X15801187Y-12294860D01*
X15801187Y-12294860D02*
X15848806Y-12294860D01*
X15848806Y-12294860D02*
X15867854Y-12304384D01*
X15867854Y-12304384D02*
X15877378Y-12313908D01*
X15877378Y-12313908D02*
X15886901Y-12332955D01*
X15886901Y-12332955D02*
X15886901Y-12380574D01*
X15886901Y-12380574D02*
X15877378Y-12399622D01*
X15877378Y-12399622D02*
X15867854Y-12409146D01*
X15867854Y-12409146D02*
X15848806Y-12418670D01*
X15848806Y-12418670D02*
X15801187Y-12418670D01*
X15801187Y-12418670D02*
X15782139Y-12409146D01*
X15782139Y-12409146D02*
X15772616Y-12399622D01*
X16124997Y-12418670D02*
X16124997Y-12218670D01*
X16210711Y-12418670D02*
X16210711Y-12313908D01*
X16210711Y-12313908D02*
X16201187Y-12294860D01*
X16201187Y-12294860D02*
X16182140Y-12285336D01*
X16182140Y-12285336D02*
X16153568Y-12285336D01*
X16153568Y-12285336D02*
X16134520Y-12294860D01*
X16134520Y-12294860D02*
X16124997Y-12304384D01*
X16334520Y-12418670D02*
X16315473Y-12409146D01*
X16315473Y-12409146D02*
X16305949Y-12399622D01*
X16305949Y-12399622D02*
X16296425Y-12380574D01*
X16296425Y-12380574D02*
X16296425Y-12323432D01*
X16296425Y-12323432D02*
X16305949Y-12304384D01*
X16305949Y-12304384D02*
X16315473Y-12294860D01*
X16315473Y-12294860D02*
X16334520Y-12285336D01*
X16334520Y-12285336D02*
X16363092Y-12285336D01*
X16363092Y-12285336D02*
X16382140Y-12294860D01*
X16382140Y-12294860D02*
X16391663Y-12304384D01*
X16391663Y-12304384D02*
X16401187Y-12323432D01*
X16401187Y-12323432D02*
X16401187Y-12380574D01*
X16401187Y-12380574D02*
X16391663Y-12399622D01*
X16391663Y-12399622D02*
X16382140Y-12409146D01*
X16382140Y-12409146D02*
X16363092Y-12418670D01*
X16363092Y-12418670D02*
X16334520Y-12418670D01*
X16515473Y-12418670D02*
X16496425Y-12409146D01*
X16496425Y-12409146D02*
X16486901Y-12390098D01*
X16486901Y-12390098D02*
X16486901Y-12218670D01*
X16667854Y-12409146D02*
X16648806Y-12418670D01*
X16648806Y-12418670D02*
X16610711Y-12418670D01*
X16610711Y-12418670D02*
X16591663Y-12409146D01*
X16591663Y-12409146D02*
X16582140Y-12390098D01*
X16582140Y-12390098D02*
X16582140Y-12313908D01*
X16582140Y-12313908D02*
X16591663Y-12294860D01*
X16591663Y-12294860D02*
X16610711Y-12285336D01*
X16610711Y-12285336D02*
X16648806Y-12285336D01*
X16648806Y-12285336D02*
X16667854Y-12294860D01*
X16667854Y-12294860D02*
X16677378Y-12313908D01*
X16677378Y-12313908D02*
X16677378Y-12332955D01*
X16677378Y-12332955D02*
X16582140Y-12352003D01*
X16753568Y-12409146D02*
X16772616Y-12418670D01*
X16772616Y-12418670D02*
X16810711Y-12418670D01*
X16810711Y-12418670D02*
X16829759Y-12409146D01*
X16829759Y-12409146D02*
X16839283Y-12390098D01*
X16839283Y-12390098D02*
X16839283Y-12380574D01*
X16839283Y-12380574D02*
X16829759Y-12361527D01*
X16829759Y-12361527D02*
X16810711Y-12352003D01*
X16810711Y-12352003D02*
X16782140Y-12352003D01*
X16782140Y-12352003D02*
X16763092Y-12342479D01*
X16763092Y-12342479D02*
X16753568Y-12323432D01*
X16753568Y-12323432D02*
X16753568Y-12313908D01*
X16753568Y-12313908D02*
X16763092Y-12294860D01*
X16763092Y-12294860D02*
X16782140Y-12285336D01*
X16782140Y-12285336D02*
X16810711Y-12285336D01*
X16810711Y-12285336D02*
X16829759Y-12294860D01*
X16905949Y-12494860D02*
X16915473Y-12485336D01*
X16915473Y-12485336D02*
X16934521Y-12456765D01*
X16934521Y-12456765D02*
X16944044Y-12437717D01*
X16944044Y-12437717D02*
X16953568Y-12409146D01*
X16953568Y-12409146D02*
X16963092Y-12361527D01*
X16963092Y-12361527D02*
X16963092Y-12323432D01*
X16963092Y-12323432D02*
X16953568Y-12275813D01*
X16953568Y-12275813D02*
X16944044Y-12247241D01*
X16944044Y-12247241D02*
X16934521Y-12228194D01*
X16934521Y-12228194D02*
X16915473Y-12199622D01*
X16915473Y-12199622D02*
X16905949Y-12190098D01*
D12*
X11940410Y-12591186D02*
G75*
G02*
X11845410Y-12591186I-47500J0D01*
G01*
X11845410Y-12591186D02*
G75*
G02*
X11940410Y-12591186I47500J0D01*
G01*
D11*
X12239282Y-12482670D02*
X12258330Y-12482670D01*
X12258330Y-12482670D02*
X12277377Y-12492194D01*
X12277377Y-12492194D02*
X12286901Y-12501717D01*
X12286901Y-12501717D02*
X12296425Y-12520765D01*
X12296425Y-12520765D02*
X12305949Y-12558860D01*
X12305949Y-12558860D02*
X12305949Y-12606479D01*
X12305949Y-12606479D02*
X12296425Y-12644574D01*
X12296425Y-12644574D02*
X12286901Y-12663622D01*
X12286901Y-12663622D02*
X12277377Y-12673146D01*
X12277377Y-12673146D02*
X12258330Y-12682670D01*
X12258330Y-12682670D02*
X12239282Y-12682670D01*
X12239282Y-12682670D02*
X12220234Y-12673146D01*
X12220234Y-12673146D02*
X12210711Y-12663622D01*
X12210711Y-12663622D02*
X12201187Y-12644574D01*
X12201187Y-12644574D02*
X12191663Y-12606479D01*
X12191663Y-12606479D02*
X12191663Y-12558860D01*
X12191663Y-12558860D02*
X12201187Y-12520765D01*
X12201187Y-12520765D02*
X12210711Y-12501717D01*
X12210711Y-12501717D02*
X12220234Y-12492194D01*
X12220234Y-12492194D02*
X12239282Y-12482670D01*
X12391663Y-12663622D02*
X12401187Y-12673146D01*
X12401187Y-12673146D02*
X12391663Y-12682670D01*
X12391663Y-12682670D02*
X12382139Y-12673146D01*
X12382139Y-12673146D02*
X12391663Y-12663622D01*
X12391663Y-12663622D02*
X12391663Y-12682670D01*
X12496425Y-12682670D02*
X12534520Y-12682670D01*
X12534520Y-12682670D02*
X12553568Y-12673146D01*
X12553568Y-12673146D02*
X12563092Y-12663622D01*
X12563092Y-12663622D02*
X12582139Y-12635051D01*
X12582139Y-12635051D02*
X12591663Y-12596955D01*
X12591663Y-12596955D02*
X12591663Y-12520765D01*
X12591663Y-12520765D02*
X12582139Y-12501717D01*
X12582139Y-12501717D02*
X12572615Y-12492194D01*
X12572615Y-12492194D02*
X12553568Y-12482670D01*
X12553568Y-12482670D02*
X12515472Y-12482670D01*
X12515472Y-12482670D02*
X12496425Y-12492194D01*
X12496425Y-12492194D02*
X12486901Y-12501717D01*
X12486901Y-12501717D02*
X12477377Y-12520765D01*
X12477377Y-12520765D02*
X12477377Y-12568384D01*
X12477377Y-12568384D02*
X12486901Y-12587432D01*
X12486901Y-12587432D02*
X12496425Y-12596955D01*
X12496425Y-12596955D02*
X12515472Y-12606479D01*
X12515472Y-12606479D02*
X12553568Y-12606479D01*
X12553568Y-12606479D02*
X12572615Y-12596955D01*
X12572615Y-12596955D02*
X12582139Y-12587432D01*
X12582139Y-12587432D02*
X12591663Y-12568384D01*
X12772615Y-12482670D02*
X12677377Y-12482670D01*
X12677377Y-12482670D02*
X12667853Y-12577908D01*
X12667853Y-12577908D02*
X12677377Y-12568384D01*
X12677377Y-12568384D02*
X12696425Y-12558860D01*
X12696425Y-12558860D02*
X12744044Y-12558860D01*
X12744044Y-12558860D02*
X12763092Y-12568384D01*
X12763092Y-12568384D02*
X12772615Y-12577908D01*
X12772615Y-12577908D02*
X12782139Y-12596955D01*
X12782139Y-12596955D02*
X12782139Y-12644574D01*
X12782139Y-12644574D02*
X12772615Y-12663622D01*
X12772615Y-12663622D02*
X12763092Y-12673146D01*
X12763092Y-12673146D02*
X12744044Y-12682670D01*
X12744044Y-12682670D02*
X12696425Y-12682670D01*
X12696425Y-12682670D02*
X12677377Y-12673146D01*
X12677377Y-12673146D02*
X12667853Y-12663622D01*
X12905949Y-12482670D02*
X12924996Y-12482670D01*
X12924996Y-12482670D02*
X12944044Y-12492194D01*
X12944044Y-12492194D02*
X12953568Y-12501717D01*
X12953568Y-12501717D02*
X12963092Y-12520765D01*
X12963092Y-12520765D02*
X12972615Y-12558860D01*
X12972615Y-12558860D02*
X12972615Y-12606479D01*
X12972615Y-12606479D02*
X12963092Y-12644574D01*
X12963092Y-12644574D02*
X12953568Y-12663622D01*
X12953568Y-12663622D02*
X12944044Y-12673146D01*
X12944044Y-12673146D02*
X12924996Y-12682670D01*
X12924996Y-12682670D02*
X12905949Y-12682670D01*
X12905949Y-12682670D02*
X12886901Y-12673146D01*
X12886901Y-12673146D02*
X12877377Y-12663622D01*
X12877377Y-12663622D02*
X12867853Y-12644574D01*
X12867853Y-12644574D02*
X12858330Y-12606479D01*
X12858330Y-12606479D02*
X12858330Y-12558860D01*
X12858330Y-12558860D02*
X12867853Y-12520765D01*
X12867853Y-12520765D02*
X12877377Y-12501717D01*
X12877377Y-12501717D02*
X12886901Y-12492194D01*
X12886901Y-12492194D02*
X12905949Y-12482670D01*
X13058330Y-12682670D02*
X13058330Y-12549336D01*
X13058330Y-12568384D02*
X13067853Y-12558860D01*
X13067853Y-12558860D02*
X13086901Y-12549336D01*
X13086901Y-12549336D02*
X13115473Y-12549336D01*
X13115473Y-12549336D02*
X13134520Y-12558860D01*
X13134520Y-12558860D02*
X13144044Y-12577908D01*
X13144044Y-12577908D02*
X13144044Y-12682670D01*
X13144044Y-12577908D02*
X13153568Y-12558860D01*
X13153568Y-12558860D02*
X13172615Y-12549336D01*
X13172615Y-12549336D02*
X13201187Y-12549336D01*
X13201187Y-12549336D02*
X13220234Y-12558860D01*
X13220234Y-12558860D02*
X13229758Y-12577908D01*
X13229758Y-12577908D02*
X13229758Y-12682670D01*
X13324996Y-12682670D02*
X13324996Y-12549336D01*
X13324996Y-12568384D02*
X13334520Y-12558860D01*
X13334520Y-12558860D02*
X13353568Y-12549336D01*
X13353568Y-12549336D02*
X13382139Y-12549336D01*
X13382139Y-12549336D02*
X13401187Y-12558860D01*
X13401187Y-12558860D02*
X13410711Y-12577908D01*
X13410711Y-12577908D02*
X13410711Y-12682670D01*
X13410711Y-12577908D02*
X13420234Y-12558860D01*
X13420234Y-12558860D02*
X13439282Y-12549336D01*
X13439282Y-12549336D02*
X13467853Y-12549336D01*
X13467853Y-12549336D02*
X13486901Y-12558860D01*
X13486901Y-12558860D02*
X13496425Y-12577908D01*
X13496425Y-12577908D02*
X13496425Y-12682670D01*
X13886901Y-12473146D02*
X13715473Y-12730289D01*
X14144044Y-12482670D02*
X14163092Y-12482670D01*
X14163092Y-12482670D02*
X14182139Y-12492194D01*
X14182139Y-12492194D02*
X14191663Y-12501717D01*
X14191663Y-12501717D02*
X14201187Y-12520765D01*
X14201187Y-12520765D02*
X14210711Y-12558860D01*
X14210711Y-12558860D02*
X14210711Y-12606479D01*
X14210711Y-12606479D02*
X14201187Y-12644574D01*
X14201187Y-12644574D02*
X14191663Y-12663622D01*
X14191663Y-12663622D02*
X14182139Y-12673146D01*
X14182139Y-12673146D02*
X14163092Y-12682670D01*
X14163092Y-12682670D02*
X14144044Y-12682670D01*
X14144044Y-12682670D02*
X14124996Y-12673146D01*
X14124996Y-12673146D02*
X14115473Y-12663622D01*
X14115473Y-12663622D02*
X14105949Y-12644574D01*
X14105949Y-12644574D02*
X14096425Y-12606479D01*
X14096425Y-12606479D02*
X14096425Y-12558860D01*
X14096425Y-12558860D02*
X14105949Y-12520765D01*
X14105949Y-12520765D02*
X14115473Y-12501717D01*
X14115473Y-12501717D02*
X14124996Y-12492194D01*
X14124996Y-12492194D02*
X14144044Y-12482670D01*
X14296425Y-12663622D02*
X14305949Y-12673146D01*
X14305949Y-12673146D02*
X14296425Y-12682670D01*
X14296425Y-12682670D02*
X14286901Y-12673146D01*
X14286901Y-12673146D02*
X14296425Y-12663622D01*
X14296425Y-12663622D02*
X14296425Y-12682670D01*
X14429758Y-12482670D02*
X14448806Y-12482670D01*
X14448806Y-12482670D02*
X14467854Y-12492194D01*
X14467854Y-12492194D02*
X14477377Y-12501717D01*
X14477377Y-12501717D02*
X14486901Y-12520765D01*
X14486901Y-12520765D02*
X14496425Y-12558860D01*
X14496425Y-12558860D02*
X14496425Y-12606479D01*
X14496425Y-12606479D02*
X14486901Y-12644574D01*
X14486901Y-12644574D02*
X14477377Y-12663622D01*
X14477377Y-12663622D02*
X14467854Y-12673146D01*
X14467854Y-12673146D02*
X14448806Y-12682670D01*
X14448806Y-12682670D02*
X14429758Y-12682670D01*
X14429758Y-12682670D02*
X14410711Y-12673146D01*
X14410711Y-12673146D02*
X14401187Y-12663622D01*
X14401187Y-12663622D02*
X14391663Y-12644574D01*
X14391663Y-12644574D02*
X14382139Y-12606479D01*
X14382139Y-12606479D02*
X14382139Y-12558860D01*
X14382139Y-12558860D02*
X14391663Y-12520765D01*
X14391663Y-12520765D02*
X14401187Y-12501717D01*
X14401187Y-12501717D02*
X14410711Y-12492194D01*
X14410711Y-12492194D02*
X14429758Y-12482670D01*
X14563092Y-12482670D02*
X14686901Y-12482670D01*
X14686901Y-12482670D02*
X14620235Y-12558860D01*
X14620235Y-12558860D02*
X14648806Y-12558860D01*
X14648806Y-12558860D02*
X14667854Y-12568384D01*
X14667854Y-12568384D02*
X14677377Y-12577908D01*
X14677377Y-12577908D02*
X14686901Y-12596955D01*
X14686901Y-12596955D02*
X14686901Y-12644574D01*
X14686901Y-12644574D02*
X14677377Y-12663622D01*
X14677377Y-12663622D02*
X14667854Y-12673146D01*
X14667854Y-12673146D02*
X14648806Y-12682670D01*
X14648806Y-12682670D02*
X14591663Y-12682670D01*
X14591663Y-12682670D02*
X14572616Y-12673146D01*
X14572616Y-12673146D02*
X14563092Y-12663622D01*
X14753568Y-12482670D02*
X14886901Y-12482670D01*
X14886901Y-12482670D02*
X14801187Y-12682670D01*
X15048806Y-12549336D02*
X15048806Y-12682670D01*
X15001187Y-12473146D02*
X14953568Y-12616003D01*
X14953568Y-12616003D02*
X15077377Y-12616003D01*
X15144044Y-12482670D02*
X15144044Y-12520765D01*
X15220235Y-12482670D02*
X15220235Y-12520765D01*
X15515473Y-12758860D02*
X15505949Y-12749336D01*
X15505949Y-12749336D02*
X15486901Y-12720765D01*
X15486901Y-12720765D02*
X15477378Y-12701717D01*
X15477378Y-12701717D02*
X15467854Y-12673146D01*
X15467854Y-12673146D02*
X15458330Y-12625527D01*
X15458330Y-12625527D02*
X15458330Y-12587432D01*
X15458330Y-12587432D02*
X15467854Y-12539813D01*
X15467854Y-12539813D02*
X15477378Y-12511241D01*
X15477378Y-12511241D02*
X15486901Y-12492194D01*
X15486901Y-12492194D02*
X15505949Y-12463622D01*
X15505949Y-12463622D02*
X15515473Y-12454098D01*
X15601187Y-12682670D02*
X15639282Y-12682670D01*
X15639282Y-12682670D02*
X15658330Y-12673146D01*
X15658330Y-12673146D02*
X15667854Y-12663622D01*
X15667854Y-12663622D02*
X15686901Y-12635051D01*
X15686901Y-12635051D02*
X15696425Y-12596955D01*
X15696425Y-12596955D02*
X15696425Y-12520765D01*
X15696425Y-12520765D02*
X15686901Y-12501717D01*
X15686901Y-12501717D02*
X15677378Y-12492194D01*
X15677378Y-12492194D02*
X15658330Y-12482670D01*
X15658330Y-12482670D02*
X15620235Y-12482670D01*
X15620235Y-12482670D02*
X15601187Y-12492194D01*
X15601187Y-12492194D02*
X15591663Y-12501717D01*
X15591663Y-12501717D02*
X15582139Y-12520765D01*
X15582139Y-12520765D02*
X15582139Y-12568384D01*
X15582139Y-12568384D02*
X15591663Y-12587432D01*
X15591663Y-12587432D02*
X15601187Y-12596955D01*
X15601187Y-12596955D02*
X15620235Y-12606479D01*
X15620235Y-12606479D02*
X15658330Y-12606479D01*
X15658330Y-12606479D02*
X15677378Y-12596955D01*
X15677378Y-12596955D02*
X15686901Y-12587432D01*
X15686901Y-12587432D02*
X15696425Y-12568384D01*
X15934520Y-12682670D02*
X15934520Y-12482670D01*
X16020235Y-12682670D02*
X16020235Y-12577908D01*
X16020235Y-12577908D02*
X16010711Y-12558860D01*
X16010711Y-12558860D02*
X15991663Y-12549336D01*
X15991663Y-12549336D02*
X15963092Y-12549336D01*
X15963092Y-12549336D02*
X15944044Y-12558860D01*
X15944044Y-12558860D02*
X15934520Y-12568384D01*
X16144044Y-12682670D02*
X16124997Y-12673146D01*
X16124997Y-12673146D02*
X16115473Y-12663622D01*
X16115473Y-12663622D02*
X16105949Y-12644574D01*
X16105949Y-12644574D02*
X16105949Y-12587432D01*
X16105949Y-12587432D02*
X16115473Y-12568384D01*
X16115473Y-12568384D02*
X16124997Y-12558860D01*
X16124997Y-12558860D02*
X16144044Y-12549336D01*
X16144044Y-12549336D02*
X16172616Y-12549336D01*
X16172616Y-12549336D02*
X16191663Y-12558860D01*
X16191663Y-12558860D02*
X16201187Y-12568384D01*
X16201187Y-12568384D02*
X16210711Y-12587432D01*
X16210711Y-12587432D02*
X16210711Y-12644574D01*
X16210711Y-12644574D02*
X16201187Y-12663622D01*
X16201187Y-12663622D02*
X16191663Y-12673146D01*
X16191663Y-12673146D02*
X16172616Y-12682670D01*
X16172616Y-12682670D02*
X16144044Y-12682670D01*
X16324997Y-12682670D02*
X16305949Y-12673146D01*
X16305949Y-12673146D02*
X16296425Y-12654098D01*
X16296425Y-12654098D02*
X16296425Y-12482670D01*
X16477378Y-12673146D02*
X16458330Y-12682670D01*
X16458330Y-12682670D02*
X16420235Y-12682670D01*
X16420235Y-12682670D02*
X16401187Y-12673146D01*
X16401187Y-12673146D02*
X16391663Y-12654098D01*
X16391663Y-12654098D02*
X16391663Y-12577908D01*
X16391663Y-12577908D02*
X16401187Y-12558860D01*
X16401187Y-12558860D02*
X16420235Y-12549336D01*
X16420235Y-12549336D02*
X16458330Y-12549336D01*
X16458330Y-12549336D02*
X16477378Y-12558860D01*
X16477378Y-12558860D02*
X16486901Y-12577908D01*
X16486901Y-12577908D02*
X16486901Y-12596955D01*
X16486901Y-12596955D02*
X16391663Y-12616003D01*
X16563092Y-12673146D02*
X16582140Y-12682670D01*
X16582140Y-12682670D02*
X16620235Y-12682670D01*
X16620235Y-12682670D02*
X16639282Y-12673146D01*
X16639282Y-12673146D02*
X16648806Y-12654098D01*
X16648806Y-12654098D02*
X16648806Y-12644574D01*
X16648806Y-12644574D02*
X16639282Y-12625527D01*
X16639282Y-12625527D02*
X16620235Y-12616003D01*
X16620235Y-12616003D02*
X16591663Y-12616003D01*
X16591663Y-12616003D02*
X16572616Y-12606479D01*
X16572616Y-12606479D02*
X16563092Y-12587432D01*
X16563092Y-12587432D02*
X16563092Y-12577908D01*
X16563092Y-12577908D02*
X16572616Y-12558860D01*
X16572616Y-12558860D02*
X16591663Y-12549336D01*
X16591663Y-12549336D02*
X16620235Y-12549336D01*
X16620235Y-12549336D02*
X16639282Y-12558860D01*
X16715473Y-12758860D02*
X16724997Y-12749336D01*
X16724997Y-12749336D02*
X16744044Y-12720765D01*
X16744044Y-12720765D02*
X16753568Y-12701717D01*
X16753568Y-12701717D02*
X16763092Y-12673146D01*
X16763092Y-12673146D02*
X16772616Y-12625527D01*
X16772616Y-12625527D02*
X16772616Y-12587432D01*
X16772616Y-12587432D02*
X16763092Y-12539813D01*
X16763092Y-12539813D02*
X16753568Y-12511241D01*
X16753568Y-12511241D02*
X16744044Y-12492194D01*
X16744044Y-12492194D02*
X16724997Y-12463622D01*
X16724997Y-12463622D02*
X16715473Y-12454098D01*
D13*
X11880466Y-12795242D02*
X11880466Y-12915130D01*
X11820522Y-12855186D02*
X11940410Y-12855186D01*
D11*
X12305949Y-12946670D02*
X12191663Y-12946670D01*
X12248806Y-12946670D02*
X12248806Y-12746670D01*
X12248806Y-12746670D02*
X12229758Y-12775241D01*
X12229758Y-12775241D02*
X12210711Y-12794289D01*
X12210711Y-12794289D02*
X12191663Y-12803813D01*
X12391663Y-12927622D02*
X12401187Y-12937146D01*
X12401187Y-12937146D02*
X12391663Y-12946670D01*
X12391663Y-12946670D02*
X12382139Y-12937146D01*
X12382139Y-12937146D02*
X12391663Y-12927622D01*
X12391663Y-12927622D02*
X12391663Y-12946670D01*
X12591663Y-12946670D02*
X12477377Y-12946670D01*
X12534520Y-12946670D02*
X12534520Y-12746670D01*
X12534520Y-12746670D02*
X12515472Y-12775241D01*
X12515472Y-12775241D02*
X12496425Y-12794289D01*
X12496425Y-12794289D02*
X12477377Y-12803813D01*
X12686901Y-12946670D02*
X12724996Y-12946670D01*
X12724996Y-12946670D02*
X12744044Y-12937146D01*
X12744044Y-12937146D02*
X12753568Y-12927622D01*
X12753568Y-12927622D02*
X12772615Y-12899051D01*
X12772615Y-12899051D02*
X12782139Y-12860955D01*
X12782139Y-12860955D02*
X12782139Y-12784765D01*
X12782139Y-12784765D02*
X12772615Y-12765717D01*
X12772615Y-12765717D02*
X12763092Y-12756194D01*
X12763092Y-12756194D02*
X12744044Y-12746670D01*
X12744044Y-12746670D02*
X12705949Y-12746670D01*
X12705949Y-12746670D02*
X12686901Y-12756194D01*
X12686901Y-12756194D02*
X12677377Y-12765717D01*
X12677377Y-12765717D02*
X12667853Y-12784765D01*
X12667853Y-12784765D02*
X12667853Y-12832384D01*
X12667853Y-12832384D02*
X12677377Y-12851432D01*
X12677377Y-12851432D02*
X12686901Y-12860955D01*
X12686901Y-12860955D02*
X12705949Y-12870479D01*
X12705949Y-12870479D02*
X12744044Y-12870479D01*
X12744044Y-12870479D02*
X12763092Y-12860955D01*
X12763092Y-12860955D02*
X12772615Y-12851432D01*
X12772615Y-12851432D02*
X12782139Y-12832384D01*
X12877377Y-12946670D02*
X12915472Y-12946670D01*
X12915472Y-12946670D02*
X12934520Y-12937146D01*
X12934520Y-12937146D02*
X12944044Y-12927622D01*
X12944044Y-12927622D02*
X12963092Y-12899051D01*
X12963092Y-12899051D02*
X12972615Y-12860955D01*
X12972615Y-12860955D02*
X12972615Y-12784765D01*
X12972615Y-12784765D02*
X12963092Y-12765717D01*
X12963092Y-12765717D02*
X12953568Y-12756194D01*
X12953568Y-12756194D02*
X12934520Y-12746670D01*
X12934520Y-12746670D02*
X12896425Y-12746670D01*
X12896425Y-12746670D02*
X12877377Y-12756194D01*
X12877377Y-12756194D02*
X12867853Y-12765717D01*
X12867853Y-12765717D02*
X12858330Y-12784765D01*
X12858330Y-12784765D02*
X12858330Y-12832384D01*
X12858330Y-12832384D02*
X12867853Y-12851432D01*
X12867853Y-12851432D02*
X12877377Y-12860955D01*
X12877377Y-12860955D02*
X12896425Y-12870479D01*
X12896425Y-12870479D02*
X12934520Y-12870479D01*
X12934520Y-12870479D02*
X12953568Y-12860955D01*
X12953568Y-12860955D02*
X12963092Y-12851432D01*
X12963092Y-12851432D02*
X12972615Y-12832384D01*
X13058330Y-12946670D02*
X13058330Y-12813336D01*
X13058330Y-12832384D02*
X13067853Y-12822860D01*
X13067853Y-12822860D02*
X13086901Y-12813336D01*
X13086901Y-12813336D02*
X13115473Y-12813336D01*
X13115473Y-12813336D02*
X13134520Y-12822860D01*
X13134520Y-12822860D02*
X13144044Y-12841908D01*
X13144044Y-12841908D02*
X13144044Y-12946670D01*
X13144044Y-12841908D02*
X13153568Y-12822860D01*
X13153568Y-12822860D02*
X13172615Y-12813336D01*
X13172615Y-12813336D02*
X13201187Y-12813336D01*
X13201187Y-12813336D02*
X13220234Y-12822860D01*
X13220234Y-12822860D02*
X13229758Y-12841908D01*
X13229758Y-12841908D02*
X13229758Y-12946670D01*
X13324996Y-12946670D02*
X13324996Y-12813336D01*
X13324996Y-12832384D02*
X13334520Y-12822860D01*
X13334520Y-12822860D02*
X13353568Y-12813336D01*
X13353568Y-12813336D02*
X13382139Y-12813336D01*
X13382139Y-12813336D02*
X13401187Y-12822860D01*
X13401187Y-12822860D02*
X13410711Y-12841908D01*
X13410711Y-12841908D02*
X13410711Y-12946670D01*
X13410711Y-12841908D02*
X13420234Y-12822860D01*
X13420234Y-12822860D02*
X13439282Y-12813336D01*
X13439282Y-12813336D02*
X13467853Y-12813336D01*
X13467853Y-12813336D02*
X13486901Y-12822860D01*
X13486901Y-12822860D02*
X13496425Y-12841908D01*
X13496425Y-12841908D02*
X13496425Y-12946670D01*
X13886901Y-12737146D02*
X13715473Y-12994289D01*
X14144044Y-12746670D02*
X14163092Y-12746670D01*
X14163092Y-12746670D02*
X14182139Y-12756194D01*
X14182139Y-12756194D02*
X14191663Y-12765717D01*
X14191663Y-12765717D02*
X14201187Y-12784765D01*
X14201187Y-12784765D02*
X14210711Y-12822860D01*
X14210711Y-12822860D02*
X14210711Y-12870479D01*
X14210711Y-12870479D02*
X14201187Y-12908574D01*
X14201187Y-12908574D02*
X14191663Y-12927622D01*
X14191663Y-12927622D02*
X14182139Y-12937146D01*
X14182139Y-12937146D02*
X14163092Y-12946670D01*
X14163092Y-12946670D02*
X14144044Y-12946670D01*
X14144044Y-12946670D02*
X14124996Y-12937146D01*
X14124996Y-12937146D02*
X14115473Y-12927622D01*
X14115473Y-12927622D02*
X14105949Y-12908574D01*
X14105949Y-12908574D02*
X14096425Y-12870479D01*
X14096425Y-12870479D02*
X14096425Y-12822860D01*
X14096425Y-12822860D02*
X14105949Y-12784765D01*
X14105949Y-12784765D02*
X14115473Y-12765717D01*
X14115473Y-12765717D02*
X14124996Y-12756194D01*
X14124996Y-12756194D02*
X14144044Y-12746670D01*
X14296425Y-12927622D02*
X14305949Y-12937146D01*
X14305949Y-12937146D02*
X14296425Y-12946670D01*
X14296425Y-12946670D02*
X14286901Y-12937146D01*
X14286901Y-12937146D02*
X14296425Y-12927622D01*
X14296425Y-12927622D02*
X14296425Y-12946670D01*
X14429758Y-12746670D02*
X14448806Y-12746670D01*
X14448806Y-12746670D02*
X14467854Y-12756194D01*
X14467854Y-12756194D02*
X14477377Y-12765717D01*
X14477377Y-12765717D02*
X14486901Y-12784765D01*
X14486901Y-12784765D02*
X14496425Y-12822860D01*
X14496425Y-12822860D02*
X14496425Y-12870479D01*
X14496425Y-12870479D02*
X14486901Y-12908574D01*
X14486901Y-12908574D02*
X14477377Y-12927622D01*
X14477377Y-12927622D02*
X14467854Y-12937146D01*
X14467854Y-12937146D02*
X14448806Y-12946670D01*
X14448806Y-12946670D02*
X14429758Y-12946670D01*
X14429758Y-12946670D02*
X14410711Y-12937146D01*
X14410711Y-12937146D02*
X14401187Y-12927622D01*
X14401187Y-12927622D02*
X14391663Y-12908574D01*
X14391663Y-12908574D02*
X14382139Y-12870479D01*
X14382139Y-12870479D02*
X14382139Y-12822860D01*
X14382139Y-12822860D02*
X14391663Y-12784765D01*
X14391663Y-12784765D02*
X14401187Y-12765717D01*
X14401187Y-12765717D02*
X14410711Y-12756194D01*
X14410711Y-12756194D02*
X14429758Y-12746670D01*
X14667854Y-12813336D02*
X14667854Y-12946670D01*
X14620235Y-12737146D02*
X14572616Y-12880003D01*
X14572616Y-12880003D02*
X14696425Y-12880003D01*
X14753568Y-12746670D02*
X14886901Y-12746670D01*
X14886901Y-12746670D02*
X14801187Y-12946670D01*
X14953568Y-12765717D02*
X14963092Y-12756194D01*
X14963092Y-12756194D02*
X14982139Y-12746670D01*
X14982139Y-12746670D02*
X15029758Y-12746670D01*
X15029758Y-12746670D02*
X15048806Y-12756194D01*
X15048806Y-12756194D02*
X15058330Y-12765717D01*
X15058330Y-12765717D02*
X15067854Y-12784765D01*
X15067854Y-12784765D02*
X15067854Y-12803813D01*
X15067854Y-12803813D02*
X15058330Y-12832384D01*
X15058330Y-12832384D02*
X14944044Y-12946670D01*
X14944044Y-12946670D02*
X15067854Y-12946670D01*
X15144044Y-12746670D02*
X15144044Y-12784765D01*
X15220235Y-12746670D02*
X15220235Y-12784765D01*
X15515473Y-13022860D02*
X15505949Y-13013336D01*
X15505949Y-13013336D02*
X15486901Y-12984765D01*
X15486901Y-12984765D02*
X15477378Y-12965717D01*
X15477378Y-12965717D02*
X15467854Y-12937146D01*
X15467854Y-12937146D02*
X15458330Y-12889527D01*
X15458330Y-12889527D02*
X15458330Y-12851432D01*
X15458330Y-12851432D02*
X15467854Y-12803813D01*
X15467854Y-12803813D02*
X15477378Y-12775241D01*
X15477378Y-12775241D02*
X15486901Y-12756194D01*
X15486901Y-12756194D02*
X15505949Y-12727622D01*
X15505949Y-12727622D02*
X15515473Y-12718098D01*
X15696425Y-12946670D02*
X15582139Y-12946670D01*
X15639282Y-12946670D02*
X15639282Y-12746670D01*
X15639282Y-12746670D02*
X15620235Y-12775241D01*
X15620235Y-12775241D02*
X15601187Y-12794289D01*
X15601187Y-12794289D02*
X15582139Y-12803813D01*
X15772616Y-12765717D02*
X15782139Y-12756194D01*
X15782139Y-12756194D02*
X15801187Y-12746670D01*
X15801187Y-12746670D02*
X15848806Y-12746670D01*
X15848806Y-12746670D02*
X15867854Y-12756194D01*
X15867854Y-12756194D02*
X15877378Y-12765717D01*
X15877378Y-12765717D02*
X15886901Y-12784765D01*
X15886901Y-12784765D02*
X15886901Y-12803813D01*
X15886901Y-12803813D02*
X15877378Y-12832384D01*
X15877378Y-12832384D02*
X15763092Y-12946670D01*
X15763092Y-12946670D02*
X15886901Y-12946670D01*
X16124997Y-12946670D02*
X16124997Y-12746670D01*
X16210711Y-12946670D02*
X16210711Y-12841908D01*
X16210711Y-12841908D02*
X16201187Y-12822860D01*
X16201187Y-12822860D02*
X16182140Y-12813336D01*
X16182140Y-12813336D02*
X16153568Y-12813336D01*
X16153568Y-12813336D02*
X16134520Y-12822860D01*
X16134520Y-12822860D02*
X16124997Y-12832384D01*
X16334520Y-12946670D02*
X16315473Y-12937146D01*
X16315473Y-12937146D02*
X16305949Y-12927622D01*
X16305949Y-12927622D02*
X16296425Y-12908574D01*
X16296425Y-12908574D02*
X16296425Y-12851432D01*
X16296425Y-12851432D02*
X16305949Y-12832384D01*
X16305949Y-12832384D02*
X16315473Y-12822860D01*
X16315473Y-12822860D02*
X16334520Y-12813336D01*
X16334520Y-12813336D02*
X16363092Y-12813336D01*
X16363092Y-12813336D02*
X16382140Y-12822860D01*
X16382140Y-12822860D02*
X16391663Y-12832384D01*
X16391663Y-12832384D02*
X16401187Y-12851432D01*
X16401187Y-12851432D02*
X16401187Y-12908574D01*
X16401187Y-12908574D02*
X16391663Y-12927622D01*
X16391663Y-12927622D02*
X16382140Y-12937146D01*
X16382140Y-12937146D02*
X16363092Y-12946670D01*
X16363092Y-12946670D02*
X16334520Y-12946670D01*
X16515473Y-12946670D02*
X16496425Y-12937146D01*
X16496425Y-12937146D02*
X16486901Y-12918098D01*
X16486901Y-12918098D02*
X16486901Y-12746670D01*
X16667854Y-12937146D02*
X16648806Y-12946670D01*
X16648806Y-12946670D02*
X16610711Y-12946670D01*
X16610711Y-12946670D02*
X16591663Y-12937146D01*
X16591663Y-12937146D02*
X16582140Y-12918098D01*
X16582140Y-12918098D02*
X16582140Y-12841908D01*
X16582140Y-12841908D02*
X16591663Y-12822860D01*
X16591663Y-12822860D02*
X16610711Y-12813336D01*
X16610711Y-12813336D02*
X16648806Y-12813336D01*
X16648806Y-12813336D02*
X16667854Y-12822860D01*
X16667854Y-12822860D02*
X16677378Y-12841908D01*
X16677378Y-12841908D02*
X16677378Y-12860955D01*
X16677378Y-12860955D02*
X16582140Y-12880003D01*
X16753568Y-12937146D02*
X16772616Y-12946670D01*
X16772616Y-12946670D02*
X16810711Y-12946670D01*
X16810711Y-12946670D02*
X16829759Y-12937146D01*
X16829759Y-12937146D02*
X16839283Y-12918098D01*
X16839283Y-12918098D02*
X16839283Y-12908574D01*
X16839283Y-12908574D02*
X16829759Y-12889527D01*
X16829759Y-12889527D02*
X16810711Y-12880003D01*
X16810711Y-12880003D02*
X16782140Y-12880003D01*
X16782140Y-12880003D02*
X16763092Y-12870479D01*
X16763092Y-12870479D02*
X16753568Y-12851432D01*
X16753568Y-12851432D02*
X16753568Y-12841908D01*
X16753568Y-12841908D02*
X16763092Y-12822860D01*
X16763092Y-12822860D02*
X16782140Y-12813336D01*
X16782140Y-12813336D02*
X16810711Y-12813336D01*
X16810711Y-12813336D02*
X16829759Y-12822860D01*
X16905949Y-13022860D02*
X16915473Y-13013336D01*
X16915473Y-13013336D02*
X16934521Y-12984765D01*
X16934521Y-12984765D02*
X16944044Y-12965717D01*
X16944044Y-12965717D02*
X16953568Y-12937146D01*
X16953568Y-12937146D02*
X16963092Y-12889527D01*
X16963092Y-12889527D02*
X16963092Y-12851432D01*
X16963092Y-12851432D02*
X16953568Y-12803813D01*
X16953568Y-12803813D02*
X16944044Y-12775241D01*
X16944044Y-12775241D02*
X16934521Y-12756194D01*
X16934521Y-12756194D02*
X16915473Y-12727622D01*
X16915473Y-12727622D02*
X16905949Y-12718098D01*
D14*
X11918443Y-13172219D02*
X11918443Y-13066152D01*
X11812376Y-13066152D01*
X11812376Y-13172219D01*
X11918443Y-13172219D01*
D11*
X12305949Y-13210670D02*
X12191663Y-13210670D01*
X12248806Y-13210670D02*
X12248806Y-13010670D01*
X12248806Y-13010670D02*
X12229758Y-13039241D01*
X12229758Y-13039241D02*
X12210711Y-13058289D01*
X12210711Y-13058289D02*
X12191663Y-13067813D01*
X12391663Y-13191622D02*
X12401187Y-13201146D01*
X12401187Y-13201146D02*
X12391663Y-13210670D01*
X12391663Y-13210670D02*
X12382139Y-13201146D01*
X12382139Y-13201146D02*
X12391663Y-13191622D01*
X12391663Y-13191622D02*
X12391663Y-13210670D01*
X12582139Y-13010670D02*
X12486901Y-13010670D01*
X12486901Y-13010670D02*
X12477377Y-13105908D01*
X12477377Y-13105908D02*
X12486901Y-13096384D01*
X12486901Y-13096384D02*
X12505949Y-13086860D01*
X12505949Y-13086860D02*
X12553568Y-13086860D01*
X12553568Y-13086860D02*
X12572615Y-13096384D01*
X12572615Y-13096384D02*
X12582139Y-13105908D01*
X12582139Y-13105908D02*
X12591663Y-13124955D01*
X12591663Y-13124955D02*
X12591663Y-13172574D01*
X12591663Y-13172574D02*
X12582139Y-13191622D01*
X12582139Y-13191622D02*
X12572615Y-13201146D01*
X12572615Y-13201146D02*
X12553568Y-13210670D01*
X12553568Y-13210670D02*
X12505949Y-13210670D01*
X12505949Y-13210670D02*
X12486901Y-13201146D01*
X12486901Y-13201146D02*
X12477377Y-13191622D01*
X12715472Y-13010670D02*
X12734520Y-13010670D01*
X12734520Y-13010670D02*
X12753568Y-13020194D01*
X12753568Y-13020194D02*
X12763092Y-13029717D01*
X12763092Y-13029717D02*
X12772615Y-13048765D01*
X12772615Y-13048765D02*
X12782139Y-13086860D01*
X12782139Y-13086860D02*
X12782139Y-13134479D01*
X12782139Y-13134479D02*
X12772615Y-13172574D01*
X12772615Y-13172574D02*
X12763092Y-13191622D01*
X12763092Y-13191622D02*
X12753568Y-13201146D01*
X12753568Y-13201146D02*
X12734520Y-13210670D01*
X12734520Y-13210670D02*
X12715472Y-13210670D01*
X12715472Y-13210670D02*
X12696425Y-13201146D01*
X12696425Y-13201146D02*
X12686901Y-13191622D01*
X12686901Y-13191622D02*
X12677377Y-13172574D01*
X12677377Y-13172574D02*
X12667853Y-13134479D01*
X12667853Y-13134479D02*
X12667853Y-13086860D01*
X12667853Y-13086860D02*
X12677377Y-13048765D01*
X12677377Y-13048765D02*
X12686901Y-13029717D01*
X12686901Y-13029717D02*
X12696425Y-13020194D01*
X12696425Y-13020194D02*
X12715472Y-13010670D01*
X12905949Y-13010670D02*
X12924996Y-13010670D01*
X12924996Y-13010670D02*
X12944044Y-13020194D01*
X12944044Y-13020194D02*
X12953568Y-13029717D01*
X12953568Y-13029717D02*
X12963092Y-13048765D01*
X12963092Y-13048765D02*
X12972615Y-13086860D01*
X12972615Y-13086860D02*
X12972615Y-13134479D01*
X12972615Y-13134479D02*
X12963092Y-13172574D01*
X12963092Y-13172574D02*
X12953568Y-13191622D01*
X12953568Y-13191622D02*
X12944044Y-13201146D01*
X12944044Y-13201146D02*
X12924996Y-13210670D01*
X12924996Y-13210670D02*
X12905949Y-13210670D01*
X12905949Y-13210670D02*
X12886901Y-13201146D01*
X12886901Y-13201146D02*
X12877377Y-13191622D01*
X12877377Y-13191622D02*
X12867853Y-13172574D01*
X12867853Y-13172574D02*
X12858330Y-13134479D01*
X12858330Y-13134479D02*
X12858330Y-13086860D01*
X12858330Y-13086860D02*
X12867853Y-13048765D01*
X12867853Y-13048765D02*
X12877377Y-13029717D01*
X12877377Y-13029717D02*
X12886901Y-13020194D01*
X12886901Y-13020194D02*
X12905949Y-13010670D01*
X13058330Y-13210670D02*
X13058330Y-13077336D01*
X13058330Y-13096384D02*
X13067853Y-13086860D01*
X13067853Y-13086860D02*
X13086901Y-13077336D01*
X13086901Y-13077336D02*
X13115473Y-13077336D01*
X13115473Y-13077336D02*
X13134520Y-13086860D01*
X13134520Y-13086860D02*
X13144044Y-13105908D01*
X13144044Y-13105908D02*
X13144044Y-13210670D01*
X13144044Y-13105908D02*
X13153568Y-13086860D01*
X13153568Y-13086860D02*
X13172615Y-13077336D01*
X13172615Y-13077336D02*
X13201187Y-13077336D01*
X13201187Y-13077336D02*
X13220234Y-13086860D01*
X13220234Y-13086860D02*
X13229758Y-13105908D01*
X13229758Y-13105908D02*
X13229758Y-13210670D01*
X13324996Y-13210670D02*
X13324996Y-13077336D01*
X13324996Y-13096384D02*
X13334520Y-13086860D01*
X13334520Y-13086860D02*
X13353568Y-13077336D01*
X13353568Y-13077336D02*
X13382139Y-13077336D01*
X13382139Y-13077336D02*
X13401187Y-13086860D01*
X13401187Y-13086860D02*
X13410711Y-13105908D01*
X13410711Y-13105908D02*
X13410711Y-13210670D01*
X13410711Y-13105908D02*
X13420234Y-13086860D01*
X13420234Y-13086860D02*
X13439282Y-13077336D01*
X13439282Y-13077336D02*
X13467853Y-13077336D01*
X13467853Y-13077336D02*
X13486901Y-13086860D01*
X13486901Y-13086860D02*
X13496425Y-13105908D01*
X13496425Y-13105908D02*
X13496425Y-13210670D01*
X13886901Y-13001146D02*
X13715473Y-13258289D01*
X14144044Y-13010670D02*
X14163092Y-13010670D01*
X14163092Y-13010670D02*
X14182139Y-13020194D01*
X14182139Y-13020194D02*
X14191663Y-13029717D01*
X14191663Y-13029717D02*
X14201187Y-13048765D01*
X14201187Y-13048765D02*
X14210711Y-13086860D01*
X14210711Y-13086860D02*
X14210711Y-13134479D01*
X14210711Y-13134479D02*
X14201187Y-13172574D01*
X14201187Y-13172574D02*
X14191663Y-13191622D01*
X14191663Y-13191622D02*
X14182139Y-13201146D01*
X14182139Y-13201146D02*
X14163092Y-13210670D01*
X14163092Y-13210670D02*
X14144044Y-13210670D01*
X14144044Y-13210670D02*
X14124996Y-13201146D01*
X14124996Y-13201146D02*
X14115473Y-13191622D01*
X14115473Y-13191622D02*
X14105949Y-13172574D01*
X14105949Y-13172574D02*
X14096425Y-13134479D01*
X14096425Y-13134479D02*
X14096425Y-13086860D01*
X14096425Y-13086860D02*
X14105949Y-13048765D01*
X14105949Y-13048765D02*
X14115473Y-13029717D01*
X14115473Y-13029717D02*
X14124996Y-13020194D01*
X14124996Y-13020194D02*
X14144044Y-13010670D01*
X14296425Y-13191622D02*
X14305949Y-13201146D01*
X14305949Y-13201146D02*
X14296425Y-13210670D01*
X14296425Y-13210670D02*
X14286901Y-13201146D01*
X14286901Y-13201146D02*
X14296425Y-13191622D01*
X14296425Y-13191622D02*
X14296425Y-13210670D01*
X14429758Y-13010670D02*
X14448806Y-13010670D01*
X14448806Y-13010670D02*
X14467854Y-13020194D01*
X14467854Y-13020194D02*
X14477377Y-13029717D01*
X14477377Y-13029717D02*
X14486901Y-13048765D01*
X14486901Y-13048765D02*
X14496425Y-13086860D01*
X14496425Y-13086860D02*
X14496425Y-13134479D01*
X14496425Y-13134479D02*
X14486901Y-13172574D01*
X14486901Y-13172574D02*
X14477377Y-13191622D01*
X14477377Y-13191622D02*
X14467854Y-13201146D01*
X14467854Y-13201146D02*
X14448806Y-13210670D01*
X14448806Y-13210670D02*
X14429758Y-13210670D01*
X14429758Y-13210670D02*
X14410711Y-13201146D01*
X14410711Y-13201146D02*
X14401187Y-13191622D01*
X14401187Y-13191622D02*
X14391663Y-13172574D01*
X14391663Y-13172574D02*
X14382139Y-13134479D01*
X14382139Y-13134479D02*
X14382139Y-13086860D01*
X14382139Y-13086860D02*
X14391663Y-13048765D01*
X14391663Y-13048765D02*
X14401187Y-13029717D01*
X14401187Y-13029717D02*
X14410711Y-13020194D01*
X14410711Y-13020194D02*
X14429758Y-13010670D01*
X14677377Y-13010670D02*
X14582139Y-13010670D01*
X14582139Y-13010670D02*
X14572616Y-13105908D01*
X14572616Y-13105908D02*
X14582139Y-13096384D01*
X14582139Y-13096384D02*
X14601187Y-13086860D01*
X14601187Y-13086860D02*
X14648806Y-13086860D01*
X14648806Y-13086860D02*
X14667854Y-13096384D01*
X14667854Y-13096384D02*
X14677377Y-13105908D01*
X14677377Y-13105908D02*
X14686901Y-13124955D01*
X14686901Y-13124955D02*
X14686901Y-13172574D01*
X14686901Y-13172574D02*
X14677377Y-13191622D01*
X14677377Y-13191622D02*
X14667854Y-13201146D01*
X14667854Y-13201146D02*
X14648806Y-13210670D01*
X14648806Y-13210670D02*
X14601187Y-13210670D01*
X14601187Y-13210670D02*
X14582139Y-13201146D01*
X14582139Y-13201146D02*
X14572616Y-13191622D01*
X14782139Y-13210670D02*
X14820235Y-13210670D01*
X14820235Y-13210670D02*
X14839282Y-13201146D01*
X14839282Y-13201146D02*
X14848806Y-13191622D01*
X14848806Y-13191622D02*
X14867854Y-13163051D01*
X14867854Y-13163051D02*
X14877377Y-13124955D01*
X14877377Y-13124955D02*
X14877377Y-13048765D01*
X14877377Y-13048765D02*
X14867854Y-13029717D01*
X14867854Y-13029717D02*
X14858330Y-13020194D01*
X14858330Y-13020194D02*
X14839282Y-13010670D01*
X14839282Y-13010670D02*
X14801187Y-13010670D01*
X14801187Y-13010670D02*
X14782139Y-13020194D01*
X14782139Y-13020194D02*
X14772616Y-13029717D01*
X14772616Y-13029717D02*
X14763092Y-13048765D01*
X14763092Y-13048765D02*
X14763092Y-13096384D01*
X14763092Y-13096384D02*
X14772616Y-13115432D01*
X14772616Y-13115432D02*
X14782139Y-13124955D01*
X14782139Y-13124955D02*
X14801187Y-13134479D01*
X14801187Y-13134479D02*
X14839282Y-13134479D01*
X14839282Y-13134479D02*
X14858330Y-13124955D01*
X14858330Y-13124955D02*
X14867854Y-13115432D01*
X14867854Y-13115432D02*
X14877377Y-13096384D01*
X15067854Y-13210670D02*
X14953568Y-13210670D01*
X15010711Y-13210670D02*
X15010711Y-13010670D01*
X15010711Y-13010670D02*
X14991663Y-13039241D01*
X14991663Y-13039241D02*
X14972616Y-13058289D01*
X14972616Y-13058289D02*
X14953568Y-13067813D01*
X15144044Y-13010670D02*
X15144044Y-13048765D01*
X15220235Y-13010670D02*
X15220235Y-13048765D01*
X15515473Y-13286860D02*
X15505949Y-13277336D01*
X15505949Y-13277336D02*
X15486901Y-13248765D01*
X15486901Y-13248765D02*
X15477378Y-13229717D01*
X15477378Y-13229717D02*
X15467854Y-13201146D01*
X15467854Y-13201146D02*
X15458330Y-13153527D01*
X15458330Y-13153527D02*
X15458330Y-13115432D01*
X15458330Y-13115432D02*
X15467854Y-13067813D01*
X15467854Y-13067813D02*
X15477378Y-13039241D01*
X15477378Y-13039241D02*
X15486901Y-13020194D01*
X15486901Y-13020194D02*
X15505949Y-12991622D01*
X15505949Y-12991622D02*
X15515473Y-12982098D01*
X15677378Y-13010670D02*
X15639282Y-13010670D01*
X15639282Y-13010670D02*
X15620235Y-13020194D01*
X15620235Y-13020194D02*
X15610711Y-13029717D01*
X15610711Y-13029717D02*
X15591663Y-13058289D01*
X15591663Y-13058289D02*
X15582139Y-13096384D01*
X15582139Y-13096384D02*
X15582139Y-13172574D01*
X15582139Y-13172574D02*
X15591663Y-13191622D01*
X15591663Y-13191622D02*
X15601187Y-13201146D01*
X15601187Y-13201146D02*
X15620235Y-13210670D01*
X15620235Y-13210670D02*
X15658330Y-13210670D01*
X15658330Y-13210670D02*
X15677378Y-13201146D01*
X15677378Y-13201146D02*
X15686901Y-13191622D01*
X15686901Y-13191622D02*
X15696425Y-13172574D01*
X15696425Y-13172574D02*
X15696425Y-13124955D01*
X15696425Y-13124955D02*
X15686901Y-13105908D01*
X15686901Y-13105908D02*
X15677378Y-13096384D01*
X15677378Y-13096384D02*
X15658330Y-13086860D01*
X15658330Y-13086860D02*
X15620235Y-13086860D01*
X15620235Y-13086860D02*
X15601187Y-13096384D01*
X15601187Y-13096384D02*
X15591663Y-13105908D01*
X15591663Y-13105908D02*
X15582139Y-13124955D01*
X15934520Y-13210670D02*
X15934520Y-13010670D01*
X16020235Y-13210670D02*
X16020235Y-13105908D01*
X16020235Y-13105908D02*
X16010711Y-13086860D01*
X16010711Y-13086860D02*
X15991663Y-13077336D01*
X15991663Y-13077336D02*
X15963092Y-13077336D01*
X15963092Y-13077336D02*
X15944044Y-13086860D01*
X15944044Y-13086860D02*
X15934520Y-13096384D01*
X16144044Y-13210670D02*
X16124997Y-13201146D01*
X16124997Y-13201146D02*
X16115473Y-13191622D01*
X16115473Y-13191622D02*
X16105949Y-13172574D01*
X16105949Y-13172574D02*
X16105949Y-13115432D01*
X16105949Y-13115432D02*
X16115473Y-13096384D01*
X16115473Y-13096384D02*
X16124997Y-13086860D01*
X16124997Y-13086860D02*
X16144044Y-13077336D01*
X16144044Y-13077336D02*
X16172616Y-13077336D01*
X16172616Y-13077336D02*
X16191663Y-13086860D01*
X16191663Y-13086860D02*
X16201187Y-13096384D01*
X16201187Y-13096384D02*
X16210711Y-13115432D01*
X16210711Y-13115432D02*
X16210711Y-13172574D01*
X16210711Y-13172574D02*
X16201187Y-13191622D01*
X16201187Y-13191622D02*
X16191663Y-13201146D01*
X16191663Y-13201146D02*
X16172616Y-13210670D01*
X16172616Y-13210670D02*
X16144044Y-13210670D01*
X16324997Y-13210670D02*
X16305949Y-13201146D01*
X16305949Y-13201146D02*
X16296425Y-13182098D01*
X16296425Y-13182098D02*
X16296425Y-13010670D01*
X16477378Y-13201146D02*
X16458330Y-13210670D01*
X16458330Y-13210670D02*
X16420235Y-13210670D01*
X16420235Y-13210670D02*
X16401187Y-13201146D01*
X16401187Y-13201146D02*
X16391663Y-13182098D01*
X16391663Y-13182098D02*
X16391663Y-13105908D01*
X16391663Y-13105908D02*
X16401187Y-13086860D01*
X16401187Y-13086860D02*
X16420235Y-13077336D01*
X16420235Y-13077336D02*
X16458330Y-13077336D01*
X16458330Y-13077336D02*
X16477378Y-13086860D01*
X16477378Y-13086860D02*
X16486901Y-13105908D01*
X16486901Y-13105908D02*
X16486901Y-13124955D01*
X16486901Y-13124955D02*
X16391663Y-13144003D01*
X16563092Y-13201146D02*
X16582140Y-13210670D01*
X16582140Y-13210670D02*
X16620235Y-13210670D01*
X16620235Y-13210670D02*
X16639282Y-13201146D01*
X16639282Y-13201146D02*
X16648806Y-13182098D01*
X16648806Y-13182098D02*
X16648806Y-13172574D01*
X16648806Y-13172574D02*
X16639282Y-13153527D01*
X16639282Y-13153527D02*
X16620235Y-13144003D01*
X16620235Y-13144003D02*
X16591663Y-13144003D01*
X16591663Y-13144003D02*
X16572616Y-13134479D01*
X16572616Y-13134479D02*
X16563092Y-13115432D01*
X16563092Y-13115432D02*
X16563092Y-13105908D01*
X16563092Y-13105908D02*
X16572616Y-13086860D01*
X16572616Y-13086860D02*
X16591663Y-13077336D01*
X16591663Y-13077336D02*
X16620235Y-13077336D01*
X16620235Y-13077336D02*
X16639282Y-13086860D01*
X16715473Y-13286860D02*
X16724997Y-13277336D01*
X16724997Y-13277336D02*
X16744044Y-13248765D01*
X16744044Y-13248765D02*
X16753568Y-13229717D01*
X16753568Y-13229717D02*
X16763092Y-13201146D01*
X16763092Y-13201146D02*
X16772616Y-13153527D01*
X16772616Y-13153527D02*
X16772616Y-13115432D01*
X16772616Y-13115432D02*
X16763092Y-13067813D01*
X16763092Y-13067813D02*
X16753568Y-13039241D01*
X16753568Y-13039241D02*
X16744044Y-13020194D01*
X16744044Y-13020194D02*
X16724997Y-12991622D01*
X16724997Y-12991622D02*
X16715473Y-12982098D01*
M02*
