%TF.GenerationSoftware,KiCad,Pcbnew,8.0.1*%
%TF.CreationDate,2024-04-28T18:53:44+02:00*%
%TF.ProjectId,SwitchesModule,53776974-6368-4657-934d-6f64756c652e,v0.1*%
%TF.SameCoordinates,Original*%
%TF.FileFunction,Legend,Top*%
%TF.FilePolarity,Positive*%
%FSLAX46Y46*%
G04 Gerber Fmt 4.6, Leading zero omitted, Abs format (unit mm)*
G04 Created by KiCad (PCBNEW 8.0.1) date 2024-04-28 18:53:44*
%MOMM*%
%LPD*%
G01*
G04 APERTURE LIST*
G04 Aperture macros list*
%AMRoundRect*
0 Rectangle with rounded corners*
0 $1 Rounding radius*
0 $2 $3 $4 $5 $6 $7 $8 $9 X,Y pos of 4 corners*
0 Add a 4 corners polygon primitive as box body*
4,1,4,$2,$3,$4,$5,$6,$7,$8,$9,$2,$3,0*
0 Add four circle primitives for the rounded corners*
1,1,$1+$1,$2,$3*
1,1,$1+$1,$4,$5*
1,1,$1+$1,$6,$7*
1,1,$1+$1,$8,$9*
0 Add four rect primitives between the rounded corners*
20,1,$1+$1,$2,$3,$4,$5,0*
20,1,$1+$1,$4,$5,$6,$7,0*
20,1,$1+$1,$6,$7,$8,$9,0*
20,1,$1+$1,$8,$9,$2,$3,0*%
G04 Aperture macros list end*
%ADD10C,0.150000*%
%ADD11C,0.203200*%
%ADD12C,0.698500*%
%ADD13C,0.120000*%
%ADD14C,2.362200*%
%ADD15O,2.200000X3.500000*%
%ADD16R,1.500000X2.500000*%
%ADD17O,1.500000X2.500000*%
%ADD18C,3.200000*%
%ADD19C,1.600000*%
%ADD20O,1.600000X1.600000*%
%ADD21RoundRect,0.250000X0.725000X-0.600000X0.725000X0.600000X-0.725000X0.600000X-0.725000X-0.600000X0*%
%ADD22O,1.950000X1.700000*%
%ADD23RoundRect,0.250000X-0.725000X0.600000X-0.725000X-0.600000X0.725000X-0.600000X0.725000X0.600000X0*%
G04 APERTURE END LIST*
D10*
X157693367Y-95934060D02*
X157836224Y-95981679D01*
X157836224Y-95981679D02*
X158074319Y-95981679D01*
X158074319Y-95981679D02*
X158169557Y-95934060D01*
X158169557Y-95934060D02*
X158217176Y-95886440D01*
X158217176Y-95886440D02*
X158264795Y-95791202D01*
X158264795Y-95791202D02*
X158264795Y-95695964D01*
X158264795Y-95695964D02*
X158217176Y-95600726D01*
X158217176Y-95600726D02*
X158169557Y-95553107D01*
X158169557Y-95553107D02*
X158074319Y-95505488D01*
X158074319Y-95505488D02*
X157883843Y-95457869D01*
X157883843Y-95457869D02*
X157788605Y-95410250D01*
X157788605Y-95410250D02*
X157740986Y-95362631D01*
X157740986Y-95362631D02*
X157693367Y-95267393D01*
X157693367Y-95267393D02*
X157693367Y-95172155D01*
X157693367Y-95172155D02*
X157740986Y-95076917D01*
X157740986Y-95076917D02*
X157788605Y-95029298D01*
X157788605Y-95029298D02*
X157883843Y-94981679D01*
X157883843Y-94981679D02*
X158121938Y-94981679D01*
X158121938Y-94981679D02*
X158264795Y-95029298D01*
X158598129Y-94981679D02*
X158836224Y-95981679D01*
X158836224Y-95981679D02*
X159026700Y-95267393D01*
X159026700Y-95267393D02*
X159217176Y-95981679D01*
X159217176Y-95981679D02*
X159455272Y-94981679D01*
X159740986Y-94981679D02*
X160360033Y-94981679D01*
X160360033Y-94981679D02*
X160026700Y-95362631D01*
X160026700Y-95362631D02*
X160169557Y-95362631D01*
X160169557Y-95362631D02*
X160264795Y-95410250D01*
X160264795Y-95410250D02*
X160312414Y-95457869D01*
X160312414Y-95457869D02*
X160360033Y-95553107D01*
X160360033Y-95553107D02*
X160360033Y-95791202D01*
X160360033Y-95791202D02*
X160312414Y-95886440D01*
X160312414Y-95886440D02*
X160264795Y-95934060D01*
X160264795Y-95934060D02*
X160169557Y-95981679D01*
X160169557Y-95981679D02*
X159883843Y-95981679D01*
X159883843Y-95981679D02*
X159788605Y-95934060D01*
X159788605Y-95934060D02*
X159740986Y-95886440D01*
X144510767Y-89279260D02*
X144653624Y-89326879D01*
X144653624Y-89326879D02*
X144891719Y-89326879D01*
X144891719Y-89326879D02*
X144986957Y-89279260D01*
X144986957Y-89279260D02*
X145034576Y-89231640D01*
X145034576Y-89231640D02*
X145082195Y-89136402D01*
X145082195Y-89136402D02*
X145082195Y-89041164D01*
X145082195Y-89041164D02*
X145034576Y-88945926D01*
X145034576Y-88945926D02*
X144986957Y-88898307D01*
X144986957Y-88898307D02*
X144891719Y-88850688D01*
X144891719Y-88850688D02*
X144701243Y-88803069D01*
X144701243Y-88803069D02*
X144606005Y-88755450D01*
X144606005Y-88755450D02*
X144558386Y-88707831D01*
X144558386Y-88707831D02*
X144510767Y-88612593D01*
X144510767Y-88612593D02*
X144510767Y-88517355D01*
X144510767Y-88517355D02*
X144558386Y-88422117D01*
X144558386Y-88422117D02*
X144606005Y-88374498D01*
X144606005Y-88374498D02*
X144701243Y-88326879D01*
X144701243Y-88326879D02*
X144939338Y-88326879D01*
X144939338Y-88326879D02*
X145082195Y-88374498D01*
X145415529Y-88326879D02*
X145653624Y-89326879D01*
X145653624Y-89326879D02*
X145844100Y-88612593D01*
X145844100Y-88612593D02*
X146034576Y-89326879D01*
X146034576Y-89326879D02*
X146272672Y-88326879D01*
X147129814Y-88326879D02*
X146653624Y-88326879D01*
X146653624Y-88326879D02*
X146606005Y-88803069D01*
X146606005Y-88803069D02*
X146653624Y-88755450D01*
X146653624Y-88755450D02*
X146748862Y-88707831D01*
X146748862Y-88707831D02*
X146986957Y-88707831D01*
X146986957Y-88707831D02*
X147082195Y-88755450D01*
X147082195Y-88755450D02*
X147129814Y-88803069D01*
X147129814Y-88803069D02*
X147177433Y-88898307D01*
X147177433Y-88898307D02*
X147177433Y-89136402D01*
X147177433Y-89136402D02*
X147129814Y-89231640D01*
X147129814Y-89231640D02*
X147082195Y-89279260D01*
X147082195Y-89279260D02*
X146986957Y-89326879D01*
X146986957Y-89326879D02*
X146748862Y-89326879D01*
X146748862Y-89326879D02*
X146653624Y-89279260D01*
X146653624Y-89279260D02*
X146606005Y-89231640D01*
X140932452Y-88326879D02*
X141122928Y-88326879D01*
X141122928Y-88326879D02*
X141218166Y-88374498D01*
X141218166Y-88374498D02*
X141313404Y-88469736D01*
X141313404Y-88469736D02*
X141361023Y-88660212D01*
X141361023Y-88660212D02*
X141361023Y-88993545D01*
X141361023Y-88993545D02*
X141313404Y-89184021D01*
X141313404Y-89184021D02*
X141218166Y-89279260D01*
X141218166Y-89279260D02*
X141122928Y-89326879D01*
X141122928Y-89326879D02*
X140932452Y-89326879D01*
X140932452Y-89326879D02*
X140837214Y-89279260D01*
X140837214Y-89279260D02*
X140741976Y-89184021D01*
X140741976Y-89184021D02*
X140694357Y-88993545D01*
X140694357Y-88993545D02*
X140694357Y-88660212D01*
X140694357Y-88660212D02*
X140741976Y-88469736D01*
X140741976Y-88469736D02*
X140837214Y-88374498D01*
X140837214Y-88374498D02*
X140932452Y-88326879D01*
X141789595Y-89326879D02*
X141789595Y-88326879D01*
X141789595Y-88326879D02*
X142361023Y-89326879D01*
X142361023Y-89326879D02*
X142361023Y-88326879D01*
X149158919Y-88326879D02*
X149349395Y-88326879D01*
X149349395Y-88326879D02*
X149444633Y-88374498D01*
X149444633Y-88374498D02*
X149539871Y-88469736D01*
X149539871Y-88469736D02*
X149587490Y-88660212D01*
X149587490Y-88660212D02*
X149587490Y-88993545D01*
X149587490Y-88993545D02*
X149539871Y-89184021D01*
X149539871Y-89184021D02*
X149444633Y-89279260D01*
X149444633Y-89279260D02*
X149349395Y-89326879D01*
X149349395Y-89326879D02*
X149158919Y-89326879D01*
X149158919Y-89326879D02*
X149063681Y-89279260D01*
X149063681Y-89279260D02*
X148968443Y-89184021D01*
X148968443Y-89184021D02*
X148920824Y-88993545D01*
X148920824Y-88993545D02*
X148920824Y-88660212D01*
X148920824Y-88660212D02*
X148968443Y-88469736D01*
X148968443Y-88469736D02*
X149063681Y-88374498D01*
X149063681Y-88374498D02*
X149158919Y-88326879D01*
X150349395Y-88803069D02*
X150016062Y-88803069D01*
X150016062Y-89326879D02*
X150016062Y-88326879D01*
X150016062Y-88326879D02*
X150492252Y-88326879D01*
X151206538Y-88803069D02*
X150873205Y-88803069D01*
X150873205Y-89326879D02*
X150873205Y-88326879D01*
X150873205Y-88326879D02*
X151349395Y-88326879D01*
X131302767Y-95934060D02*
X131445624Y-95981679D01*
X131445624Y-95981679D02*
X131683719Y-95981679D01*
X131683719Y-95981679D02*
X131778957Y-95934060D01*
X131778957Y-95934060D02*
X131826576Y-95886440D01*
X131826576Y-95886440D02*
X131874195Y-95791202D01*
X131874195Y-95791202D02*
X131874195Y-95695964D01*
X131874195Y-95695964D02*
X131826576Y-95600726D01*
X131826576Y-95600726D02*
X131778957Y-95553107D01*
X131778957Y-95553107D02*
X131683719Y-95505488D01*
X131683719Y-95505488D02*
X131493243Y-95457869D01*
X131493243Y-95457869D02*
X131398005Y-95410250D01*
X131398005Y-95410250D02*
X131350386Y-95362631D01*
X131350386Y-95362631D02*
X131302767Y-95267393D01*
X131302767Y-95267393D02*
X131302767Y-95172155D01*
X131302767Y-95172155D02*
X131350386Y-95076917D01*
X131350386Y-95076917D02*
X131398005Y-95029298D01*
X131398005Y-95029298D02*
X131493243Y-94981679D01*
X131493243Y-94981679D02*
X131731338Y-94981679D01*
X131731338Y-94981679D02*
X131874195Y-95029298D01*
X132207529Y-94981679D02*
X132445624Y-95981679D01*
X132445624Y-95981679D02*
X132636100Y-95267393D01*
X132636100Y-95267393D02*
X132826576Y-95981679D01*
X132826576Y-95981679D02*
X133064672Y-94981679D01*
X133969433Y-95981679D02*
X133398005Y-95981679D01*
X133683719Y-95981679D02*
X133683719Y-94981679D01*
X133683719Y-94981679D02*
X133588481Y-95124536D01*
X133588481Y-95124536D02*
X133493243Y-95219774D01*
X133493243Y-95219774D02*
X133398005Y-95267393D01*
X157076207Y-89279260D02*
X157219064Y-89326879D01*
X157219064Y-89326879D02*
X157457159Y-89326879D01*
X157457159Y-89326879D02*
X157552397Y-89279260D01*
X157552397Y-89279260D02*
X157600016Y-89231640D01*
X157600016Y-89231640D02*
X157647635Y-89136402D01*
X157647635Y-89136402D02*
X157647635Y-89041164D01*
X157647635Y-89041164D02*
X157600016Y-88945926D01*
X157600016Y-88945926D02*
X157552397Y-88898307D01*
X157552397Y-88898307D02*
X157457159Y-88850688D01*
X157457159Y-88850688D02*
X157266683Y-88803069D01*
X157266683Y-88803069D02*
X157171445Y-88755450D01*
X157171445Y-88755450D02*
X157123826Y-88707831D01*
X157123826Y-88707831D02*
X157076207Y-88612593D01*
X157076207Y-88612593D02*
X157076207Y-88517355D01*
X157076207Y-88517355D02*
X157123826Y-88422117D01*
X157123826Y-88422117D02*
X157171445Y-88374498D01*
X157171445Y-88374498D02*
X157266683Y-88326879D01*
X157266683Y-88326879D02*
X157504778Y-88326879D01*
X157504778Y-88326879D02*
X157647635Y-88374498D01*
X157980969Y-88326879D02*
X158219064Y-89326879D01*
X158219064Y-89326879D02*
X158409540Y-88612593D01*
X158409540Y-88612593D02*
X158600016Y-89326879D01*
X158600016Y-89326879D02*
X158838112Y-88326879D01*
X159647635Y-88326879D02*
X159457159Y-88326879D01*
X159457159Y-88326879D02*
X159361921Y-88374498D01*
X159361921Y-88374498D02*
X159314302Y-88422117D01*
X159314302Y-88422117D02*
X159219064Y-88564974D01*
X159219064Y-88564974D02*
X159171445Y-88755450D01*
X159171445Y-88755450D02*
X159171445Y-89136402D01*
X159171445Y-89136402D02*
X159219064Y-89231640D01*
X159219064Y-89231640D02*
X159266683Y-89279260D01*
X159266683Y-89279260D02*
X159361921Y-89326879D01*
X159361921Y-89326879D02*
X159552397Y-89326879D01*
X159552397Y-89326879D02*
X159647635Y-89279260D01*
X159647635Y-89279260D02*
X159695254Y-89231640D01*
X159695254Y-89231640D02*
X159742873Y-89136402D01*
X159742873Y-89136402D02*
X159742873Y-88898307D01*
X159742873Y-88898307D02*
X159695254Y-88803069D01*
X159695254Y-88803069D02*
X159647635Y-88755450D01*
X159647635Y-88755450D02*
X159552397Y-88707831D01*
X159552397Y-88707831D02*
X159361921Y-88707831D01*
X159361921Y-88707831D02*
X159266683Y-88755450D01*
X159266683Y-88755450D02*
X159219064Y-88803069D01*
X159219064Y-88803069D02*
X159171445Y-88898307D01*
X161698959Y-88326879D02*
X161889435Y-88326879D01*
X161889435Y-88326879D02*
X161984673Y-88374498D01*
X161984673Y-88374498D02*
X162079911Y-88469736D01*
X162079911Y-88469736D02*
X162127530Y-88660212D01*
X162127530Y-88660212D02*
X162127530Y-88993545D01*
X162127530Y-88993545D02*
X162079911Y-89184021D01*
X162079911Y-89184021D02*
X161984673Y-89279260D01*
X161984673Y-89279260D02*
X161889435Y-89326879D01*
X161889435Y-89326879D02*
X161698959Y-89326879D01*
X161698959Y-89326879D02*
X161603721Y-89279260D01*
X161603721Y-89279260D02*
X161508483Y-89184021D01*
X161508483Y-89184021D02*
X161460864Y-88993545D01*
X161460864Y-88993545D02*
X161460864Y-88660212D01*
X161460864Y-88660212D02*
X161508483Y-88469736D01*
X161508483Y-88469736D02*
X161603721Y-88374498D01*
X161603721Y-88374498D02*
X161698959Y-88326879D01*
X162889435Y-88803069D02*
X162556102Y-88803069D01*
X162556102Y-89326879D02*
X162556102Y-88326879D01*
X162556102Y-88326879D02*
X163032292Y-88326879D01*
X163746578Y-88803069D02*
X163413245Y-88803069D01*
X163413245Y-89326879D02*
X163413245Y-88326879D01*
X163413245Y-88326879D02*
X163889435Y-88326879D01*
X153497892Y-88326879D02*
X153688368Y-88326879D01*
X153688368Y-88326879D02*
X153783606Y-88374498D01*
X153783606Y-88374498D02*
X153878844Y-88469736D01*
X153878844Y-88469736D02*
X153926463Y-88660212D01*
X153926463Y-88660212D02*
X153926463Y-88993545D01*
X153926463Y-88993545D02*
X153878844Y-89184021D01*
X153878844Y-89184021D02*
X153783606Y-89279260D01*
X153783606Y-89279260D02*
X153688368Y-89326879D01*
X153688368Y-89326879D02*
X153497892Y-89326879D01*
X153497892Y-89326879D02*
X153402654Y-89279260D01*
X153402654Y-89279260D02*
X153307416Y-89184021D01*
X153307416Y-89184021D02*
X153259797Y-88993545D01*
X153259797Y-88993545D02*
X153259797Y-88660212D01*
X153259797Y-88660212D02*
X153307416Y-88469736D01*
X153307416Y-88469736D02*
X153402654Y-88374498D01*
X153402654Y-88374498D02*
X153497892Y-88326879D01*
X154355035Y-89326879D02*
X154355035Y-88326879D01*
X154355035Y-88326879D02*
X154926463Y-89326879D01*
X154926463Y-89326879D02*
X154926463Y-88326879D01*
X144485367Y-95934060D02*
X144628224Y-95981679D01*
X144628224Y-95981679D02*
X144866319Y-95981679D01*
X144866319Y-95981679D02*
X144961557Y-95934060D01*
X144961557Y-95934060D02*
X145009176Y-95886440D01*
X145009176Y-95886440D02*
X145056795Y-95791202D01*
X145056795Y-95791202D02*
X145056795Y-95695964D01*
X145056795Y-95695964D02*
X145009176Y-95600726D01*
X145009176Y-95600726D02*
X144961557Y-95553107D01*
X144961557Y-95553107D02*
X144866319Y-95505488D01*
X144866319Y-95505488D02*
X144675843Y-95457869D01*
X144675843Y-95457869D02*
X144580605Y-95410250D01*
X144580605Y-95410250D02*
X144532986Y-95362631D01*
X144532986Y-95362631D02*
X144485367Y-95267393D01*
X144485367Y-95267393D02*
X144485367Y-95172155D01*
X144485367Y-95172155D02*
X144532986Y-95076917D01*
X144532986Y-95076917D02*
X144580605Y-95029298D01*
X144580605Y-95029298D02*
X144675843Y-94981679D01*
X144675843Y-94981679D02*
X144913938Y-94981679D01*
X144913938Y-94981679D02*
X145056795Y-95029298D01*
X145390129Y-94981679D02*
X145628224Y-95981679D01*
X145628224Y-95981679D02*
X145818700Y-95267393D01*
X145818700Y-95267393D02*
X146009176Y-95981679D01*
X146009176Y-95981679D02*
X146247272Y-94981679D01*
X146580605Y-95076917D02*
X146628224Y-95029298D01*
X146628224Y-95029298D02*
X146723462Y-94981679D01*
X146723462Y-94981679D02*
X146961557Y-94981679D01*
X146961557Y-94981679D02*
X147056795Y-95029298D01*
X147056795Y-95029298D02*
X147104414Y-95076917D01*
X147104414Y-95076917D02*
X147152033Y-95172155D01*
X147152033Y-95172155D02*
X147152033Y-95267393D01*
X147152033Y-95267393D02*
X147104414Y-95410250D01*
X147104414Y-95410250D02*
X146532986Y-95981679D01*
X146532986Y-95981679D02*
X147152033Y-95981679D01*
X131970727Y-89279260D02*
X132113584Y-89326879D01*
X132113584Y-89326879D02*
X132351679Y-89326879D01*
X132351679Y-89326879D02*
X132446917Y-89279260D01*
X132446917Y-89279260D02*
X132494536Y-89231640D01*
X132494536Y-89231640D02*
X132542155Y-89136402D01*
X132542155Y-89136402D02*
X132542155Y-89041164D01*
X132542155Y-89041164D02*
X132494536Y-88945926D01*
X132494536Y-88945926D02*
X132446917Y-88898307D01*
X132446917Y-88898307D02*
X132351679Y-88850688D01*
X132351679Y-88850688D02*
X132161203Y-88803069D01*
X132161203Y-88803069D02*
X132065965Y-88755450D01*
X132065965Y-88755450D02*
X132018346Y-88707831D01*
X132018346Y-88707831D02*
X131970727Y-88612593D01*
X131970727Y-88612593D02*
X131970727Y-88517355D01*
X131970727Y-88517355D02*
X132018346Y-88422117D01*
X132018346Y-88422117D02*
X132065965Y-88374498D01*
X132065965Y-88374498D02*
X132161203Y-88326879D01*
X132161203Y-88326879D02*
X132399298Y-88326879D01*
X132399298Y-88326879D02*
X132542155Y-88374498D01*
X132875489Y-88326879D02*
X133113584Y-89326879D01*
X133113584Y-89326879D02*
X133304060Y-88612593D01*
X133304060Y-88612593D02*
X133494536Y-89326879D01*
X133494536Y-89326879D02*
X133732632Y-88326879D01*
X134542155Y-88660212D02*
X134542155Y-89326879D01*
X134304060Y-88279260D02*
X134065965Y-88993545D01*
X134065965Y-88993545D02*
X134685012Y-88993545D01*
X128367012Y-88326879D02*
X128557488Y-88326879D01*
X128557488Y-88326879D02*
X128652726Y-88374498D01*
X128652726Y-88374498D02*
X128747964Y-88469736D01*
X128747964Y-88469736D02*
X128795583Y-88660212D01*
X128795583Y-88660212D02*
X128795583Y-88993545D01*
X128795583Y-88993545D02*
X128747964Y-89184021D01*
X128747964Y-89184021D02*
X128652726Y-89279260D01*
X128652726Y-89279260D02*
X128557488Y-89326879D01*
X128557488Y-89326879D02*
X128367012Y-89326879D01*
X128367012Y-89326879D02*
X128271774Y-89279260D01*
X128271774Y-89279260D02*
X128176536Y-89184021D01*
X128176536Y-89184021D02*
X128128917Y-88993545D01*
X128128917Y-88993545D02*
X128128917Y-88660212D01*
X128128917Y-88660212D02*
X128176536Y-88469736D01*
X128176536Y-88469736D02*
X128271774Y-88374498D01*
X128271774Y-88374498D02*
X128367012Y-88326879D01*
X129224155Y-89326879D02*
X129224155Y-88326879D01*
X129224155Y-88326879D02*
X129795583Y-89326879D01*
X129795583Y-89326879D02*
X129795583Y-88326879D01*
X136568079Y-88326879D02*
X136758555Y-88326879D01*
X136758555Y-88326879D02*
X136853793Y-88374498D01*
X136853793Y-88374498D02*
X136949031Y-88469736D01*
X136949031Y-88469736D02*
X136996650Y-88660212D01*
X136996650Y-88660212D02*
X136996650Y-88993545D01*
X136996650Y-88993545D02*
X136949031Y-89184021D01*
X136949031Y-89184021D02*
X136853793Y-89279260D01*
X136853793Y-89279260D02*
X136758555Y-89326879D01*
X136758555Y-89326879D02*
X136568079Y-89326879D01*
X136568079Y-89326879D02*
X136472841Y-89279260D01*
X136472841Y-89279260D02*
X136377603Y-89184021D01*
X136377603Y-89184021D02*
X136329984Y-88993545D01*
X136329984Y-88993545D02*
X136329984Y-88660212D01*
X136329984Y-88660212D02*
X136377603Y-88469736D01*
X136377603Y-88469736D02*
X136472841Y-88374498D01*
X136472841Y-88374498D02*
X136568079Y-88326879D01*
X137758555Y-88803069D02*
X137425222Y-88803069D01*
X137425222Y-89326879D02*
X137425222Y-88326879D01*
X137425222Y-88326879D02*
X137901412Y-88326879D01*
X138615698Y-88803069D02*
X138282365Y-88803069D01*
X138282365Y-89326879D02*
X138282365Y-88326879D01*
X138282365Y-88326879D02*
X138758555Y-88326879D01*
D11*
%TO.C,SW3*%
X153034680Y-107743820D02*
X153034680Y-97746380D01*
X154035440Y-96745620D02*
X155036200Y-96745620D01*
X155036200Y-108744580D02*
X154035440Y-108744580D01*
X158035940Y-96745620D02*
X160032380Y-96745620D01*
X160032380Y-108744580D02*
X158035940Y-108744580D01*
X163032120Y-96745620D02*
X164032880Y-96745620D01*
X164032880Y-108744580D02*
X163032120Y-108744580D01*
X165033640Y-97746380D02*
X165033640Y-107743820D01*
X153034680Y-97746380D02*
G75*
G02*
X154035440Y-96745620I1000760J0D01*
G01*
X154035440Y-108744580D02*
G75*
G02*
X153034680Y-107743820I1J1000761D01*
G01*
X164032880Y-96745620D02*
G75*
G02*
X165033640Y-97746380I0J-1000760D01*
G01*
X165033640Y-107743820D02*
G75*
G02*
X164032880Y-108744580I-1000761J1D01*
G01*
D12*
X154835540Y-98246760D02*
G75*
G02*
X154236100Y-98246760I-299720J0D01*
G01*
X154236100Y-98246760D02*
G75*
G02*
X154835540Y-98246760I299720J0D01*
G01*
X154835540Y-107243440D02*
G75*
G02*
X154236100Y-107243440I-299720J0D01*
G01*
X154236100Y-107243440D02*
G75*
G02*
X154835540Y-107243440I299720J0D01*
G01*
D11*
X162531740Y-102745100D02*
G75*
G02*
X155536580Y-102745100I-3497580J0D01*
G01*
X155536580Y-102745100D02*
G75*
G02*
X162531740Y-102745100I3497580J0D01*
G01*
D12*
X163832220Y-98246760D02*
G75*
G02*
X163232780Y-98246760I-299720J0D01*
G01*
X163232780Y-98246760D02*
G75*
G02*
X163832220Y-98246760I299720J0D01*
G01*
X163832220Y-107243440D02*
G75*
G02*
X163232780Y-107243440I-299720J0D01*
G01*
X163232780Y-107243440D02*
G75*
G02*
X163832220Y-107243440I299720J0D01*
G01*
D13*
%TO.C,SW5*%
X141422000Y-89688000D02*
X150242000Y-89688000D01*
X141422000Y-89998000D02*
X141422000Y-89688000D01*
X141422000Y-94208000D02*
X141422000Y-93898000D01*
X143332000Y-88988000D02*
X143832000Y-89488000D01*
X143832000Y-89488000D02*
X144332000Y-88988000D01*
X144332000Y-88988000D02*
X143332000Y-88988000D01*
X150242000Y-89688000D02*
X150242000Y-89998000D01*
X150242000Y-94208000D02*
X141422000Y-94208000D01*
X150242000Y-94208000D02*
X150242000Y-93898000D01*
D11*
%TO.C,SW1*%
X126630360Y-107743820D02*
X126630360Y-97746380D01*
X127631120Y-96745620D02*
X128631880Y-96745620D01*
X128631880Y-108744580D02*
X127631120Y-108744580D01*
X131631620Y-96745620D02*
X133628060Y-96745620D01*
X133628060Y-108744580D02*
X131631620Y-108744580D01*
X136627800Y-96745620D02*
X137628560Y-96745620D01*
X137628560Y-108744580D02*
X136627800Y-108744580D01*
X138629320Y-97746380D02*
X138629320Y-107743820D01*
X126630360Y-97746380D02*
G75*
G02*
X127631120Y-96745620I1000760J0D01*
G01*
X127631120Y-108744580D02*
G75*
G02*
X126630360Y-107743820I1J1000761D01*
G01*
X137628560Y-96745620D02*
G75*
G02*
X138629320Y-97746380I0J-1000760D01*
G01*
X138629320Y-107743820D02*
G75*
G02*
X137628560Y-108744580I-1000761J1D01*
G01*
D12*
X128431220Y-98246760D02*
G75*
G02*
X127831780Y-98246760I-299720J0D01*
G01*
X127831780Y-98246760D02*
G75*
G02*
X128431220Y-98246760I299720J0D01*
G01*
X128431220Y-107243440D02*
G75*
G02*
X127831780Y-107243440I-299720J0D01*
G01*
X127831780Y-107243440D02*
G75*
G02*
X128431220Y-107243440I299720J0D01*
G01*
D11*
X136127420Y-102745100D02*
G75*
G02*
X129132260Y-102745100I-3497580J0D01*
G01*
X129132260Y-102745100D02*
G75*
G02*
X136127420Y-102745100I3497580J0D01*
G01*
D12*
X137427900Y-98246760D02*
G75*
G02*
X136828460Y-98246760I-299720J0D01*
G01*
X136828460Y-98246760D02*
G75*
G02*
X137427900Y-98246760I299720J0D01*
G01*
X137427900Y-107243440D02*
G75*
G02*
X136828460Y-107243440I-299720J0D01*
G01*
X136828460Y-107243440D02*
G75*
G02*
X137427900Y-107243440I299720J0D01*
G01*
D13*
%TO.C,SW6*%
X153998080Y-89688000D02*
X162818080Y-89688000D01*
X153998080Y-89998000D02*
X153998080Y-89688000D01*
X153998080Y-94208000D02*
X153998080Y-93898000D01*
X155908080Y-88988000D02*
X156408080Y-89488000D01*
X156408080Y-89488000D02*
X156908080Y-88988000D01*
X156908080Y-88988000D02*
X155908080Y-88988000D01*
X162818080Y-89688000D02*
X162818080Y-89998000D01*
X162818080Y-94208000D02*
X153998080Y-94208000D01*
X162818080Y-94208000D02*
X162818080Y-93898000D01*
D11*
%TO.C,SW2*%
X139832520Y-107743820D02*
X139832520Y-97746380D01*
X140833280Y-96745620D02*
X141834040Y-96745620D01*
X141834040Y-108744580D02*
X140833280Y-108744580D01*
X144833780Y-96745620D02*
X146830220Y-96745620D01*
X146830220Y-108744580D02*
X144833780Y-108744580D01*
X149829960Y-96745620D02*
X150830720Y-96745620D01*
X150830720Y-108744580D02*
X149829960Y-108744580D01*
X151831480Y-97746380D02*
X151831480Y-107743820D01*
X139832520Y-97746380D02*
G75*
G02*
X140833280Y-96745620I1000760J0D01*
G01*
X140833280Y-108744580D02*
G75*
G02*
X139832520Y-107743820I1J1000761D01*
G01*
X150830720Y-96745620D02*
G75*
G02*
X151831480Y-97746380I0J-1000760D01*
G01*
X151831480Y-107743820D02*
G75*
G02*
X150830720Y-108744580I-1000761J1D01*
G01*
D12*
X141633380Y-98246760D02*
G75*
G02*
X141033940Y-98246760I-299720J0D01*
G01*
X141033940Y-98246760D02*
G75*
G02*
X141633380Y-98246760I299720J0D01*
G01*
X141633380Y-107243440D02*
G75*
G02*
X141033940Y-107243440I-299720J0D01*
G01*
X141033940Y-107243440D02*
G75*
G02*
X141633380Y-107243440I299720J0D01*
G01*
D11*
X149329580Y-102745100D02*
G75*
G02*
X142334420Y-102745100I-3497580J0D01*
G01*
X142334420Y-102745100D02*
G75*
G02*
X149329580Y-102745100I3497580J0D01*
G01*
D12*
X150630060Y-98246760D02*
G75*
G02*
X150030620Y-98246760I-299720J0D01*
G01*
X150030620Y-98246760D02*
G75*
G02*
X150630060Y-98246760I299720J0D01*
G01*
X150630060Y-107243440D02*
G75*
G02*
X150030620Y-107243440I-299720J0D01*
G01*
X150030620Y-107243440D02*
G75*
G02*
X150630060Y-107243440I299720J0D01*
G01*
D13*
%TO.C,SW4*%
X128845920Y-89688000D02*
X137665920Y-89688000D01*
X128845920Y-89998000D02*
X128845920Y-89688000D01*
X128845920Y-94208000D02*
X128845920Y-93898000D01*
X130755920Y-88988000D02*
X131255920Y-89488000D01*
X131255920Y-89488000D02*
X131755920Y-88988000D01*
X131755920Y-88988000D02*
X130755920Y-88988000D01*
X137665920Y-89688000D02*
X137665920Y-89998000D01*
X137665920Y-94208000D02*
X128845920Y-94208000D01*
X137665920Y-94208000D02*
X137665920Y-93898000D01*
%TD*%
%LPC*%
D14*
%TO.C,SW3*%
X161533520Y-96496700D03*
X161533520Y-108993500D03*
X156534800Y-96496700D03*
X156534800Y-108993500D03*
%TD*%
D15*
%TO.C,SW5*%
X141732000Y-91948000D03*
X149932000Y-91948000D03*
D16*
X143832000Y-91948000D03*
D17*
X145832000Y-91948000D03*
X147832000Y-91948000D03*
%TD*%
D14*
%TO.C,SW1*%
X135129200Y-96496700D03*
X135129200Y-108993500D03*
X130130480Y-96496700D03*
X130130480Y-108993500D03*
%TD*%
D15*
%TO.C,SW6*%
X154308080Y-91948000D03*
X162508080Y-91948000D03*
D16*
X156408080Y-91948000D03*
D17*
X158408080Y-91948000D03*
X160408080Y-91948000D03*
%TD*%
D18*
%TO.C,MountingHole1*%
X123593700Y-91437460D03*
%TD*%
D14*
%TO.C,SW2*%
X148331360Y-96496700D03*
X148331360Y-108993500D03*
X143332640Y-96496700D03*
X143332640Y-108993500D03*
%TD*%
D18*
%TO.C,MountingHole2*%
X167992900Y-91437460D03*
%TD*%
%TO.C,MountingHole3*%
X145844100Y-113078260D03*
%TD*%
D15*
%TO.C,SW4*%
X129155920Y-91948000D03*
X137355920Y-91948000D03*
D16*
X131255920Y-91948000D03*
D17*
X133255920Y-91948000D03*
X135255920Y-91948000D03*
%TD*%
D19*
%TO.C,R2*%
X142022000Y-102745100D03*
D20*
X149642000Y-102745100D03*
%TD*%
D21*
%TO.C,J1*%
X169059700Y-107878260D03*
D22*
X169059700Y-105378260D03*
X169059700Y-102878260D03*
X169059700Y-100378260D03*
%TD*%
D19*
%TO.C,R1*%
X128819840Y-102745100D03*
D20*
X136439840Y-102745100D03*
%TD*%
D19*
%TO.C,R3*%
X155224160Y-102745100D03*
D20*
X162844160Y-102745100D03*
%TD*%
D23*
%TO.C,J2*%
X122603100Y-97878260D03*
D22*
X122603100Y-100378260D03*
X122603100Y-102878260D03*
X122603100Y-105378260D03*
X122603100Y-107878260D03*
%TD*%
%LPD*%
M02*
