M48
; DRILL file {KiCad 8.0.1} date 2024-04-28T18:54:04+0200
; FORMAT={-:-/ absolute / metric / decimal}
; #@! TF.CreationDate,2024-04-28T18:54:04+02:00
; #@! TF.GenerationSoftware,Kicad,Pcbnew,8.0.1
; #@! TF.FileFunction,Plated,1,2,PTH
FMAT,2
METRIC
; #@! TA.AperFunction,Plated,PTH,ComponentDrill
T1C0.800
; #@! TA.AperFunction,Plated,PTH,ComponentDrill
T2C0.950
; #@! TA.AperFunction,Plated,PTH,ComponentDrill
T3C1.199
; #@! TA.AperFunction,Plated,PTH,ComponentDrill
T4C1.500
%
G90
G05
T1
X128.82Y-102.745
X131.256Y-91.948
X133.256Y-91.948
X135.256Y-91.948
X136.44Y-102.745
X142.022Y-102.745
X143.832Y-91.948
X145.832Y-91.948
X147.832Y-91.948
X149.642Y-102.745
X155.224Y-102.745
X156.408Y-91.948
X158.408Y-91.948
X160.408Y-91.948
X162.844Y-102.745
T2
X122.603Y-97.878
X122.603Y-100.378
X122.603Y-102.878
X122.603Y-105.378
X122.603Y-107.878
X169.06Y-100.378
X169.06Y-102.878
X169.06Y-105.378
X169.06Y-107.878
T3
X130.13Y-96.497
X130.13Y-108.993
X135.129Y-96.497
X135.129Y-108.993
X143.333Y-96.497
X143.333Y-108.993
X148.331Y-96.497
X148.331Y-108.993
X156.535Y-96.497
X156.535Y-108.993
X161.534Y-96.497
X161.534Y-108.993
T4
X129.156Y-91.948
X137.356Y-91.948
X141.732Y-91.948
X149.932Y-91.948
X154.308Y-91.948
X162.508Y-91.948
M30
