%TF.GenerationSoftware,KiCad,Pcbnew,8.0.1*%
%TF.CreationDate,2024-04-28T18:53:44+02:00*%
%TF.ProjectId,SwitchesModule,53776974-6368-4657-934d-6f64756c652e,v0.1*%
%TF.SameCoordinates,Original*%
%TF.FileFunction,Copper,L2,Bot*%
%TF.FilePolarity,Positive*%
%FSLAX46Y46*%
G04 Gerber Fmt 4.6, Leading zero omitted, Abs format (unit mm)*
G04 Created by KiCad (PCBNEW 8.0.1) date 2024-04-28 18:53:44*
%MOMM*%
%LPD*%
G01*
G04 APERTURE LIST*
G04 Aperture macros list*
%AMRoundRect*
0 Rectangle with rounded corners*
0 $1 Rounding radius*
0 $2 $3 $4 $5 $6 $7 $8 $9 X,Y pos of 4 corners*
0 Add a 4 corners polygon primitive as box body*
4,1,4,$2,$3,$4,$5,$6,$7,$8,$9,$2,$3,0*
0 Add four circle primitives for the rounded corners*
1,1,$1+$1,$2,$3*
1,1,$1+$1,$4,$5*
1,1,$1+$1,$6,$7*
1,1,$1+$1,$8,$9*
0 Add four rect primitives between the rounded corners*
20,1,$1+$1,$2,$3,$4,$5,0*
20,1,$1+$1,$4,$5,$6,$7,0*
20,1,$1+$1,$6,$7,$8,$9,0*
20,1,$1+$1,$8,$9,$2,$3,0*%
G04 Aperture macros list end*
%TA.AperFunction,ComponentPad*%
%ADD10C,2.159000*%
%TD*%
%TA.AperFunction,ComponentPad*%
%ADD11O,2.200000X3.500000*%
%TD*%
%TA.AperFunction,ComponentPad*%
%ADD12R,1.500000X2.500000*%
%TD*%
%TA.AperFunction,ComponentPad*%
%ADD13O,1.500000X2.500000*%
%TD*%
%TA.AperFunction,ComponentPad*%
%ADD14C,1.600000*%
%TD*%
%TA.AperFunction,ComponentPad*%
%ADD15O,1.600000X1.600000*%
%TD*%
%TA.AperFunction,ComponentPad*%
%ADD16RoundRect,0.250000X0.725000X-0.600000X0.725000X0.600000X-0.725000X0.600000X-0.725000X-0.600000X0*%
%TD*%
%TA.AperFunction,ComponentPad*%
%ADD17O,1.950000X1.700000*%
%TD*%
%TA.AperFunction,ComponentPad*%
%ADD18RoundRect,0.250000X-0.725000X0.600000X-0.725000X-0.600000X0.725000X-0.600000X0.725000X0.600000X0*%
%TD*%
%TA.AperFunction,Conductor*%
%ADD19C,0.200000*%
%TD*%
G04 APERTURE END LIST*
D10*
%TO.P,SW3,1,1*%
%TO.N,Net-(J1-Pin_3)*%
X161533520Y-96496700D03*
%TO.P,SW3,2,2*%
%TO.N,unconnected-(SW3-Pad2)*%
X161533520Y-108993500D03*
%TO.P,SW3,3,K*%
%TO.N,GND*%
X156534800Y-96496700D03*
%TO.P,SW3,4,A*%
%TO.N,unconnected-(SW3-A-Pad4)*%
X156534800Y-108993500D03*
%TD*%
D11*
%TO.P,SW5,*%
%TO.N,*%
X141732000Y-91948000D03*
X149932000Y-91948000D03*
D12*
%TO.P,SW5,1,O*%
%TO.N,GND*%
X143832000Y-91948000D03*
D13*
%TO.P,SW5,2,P*%
%TO.N,Net-(J2-Pin_3)*%
X145832000Y-91948000D03*
%TO.P,SW5,3,S*%
%TO.N,unconnected-(SW5-S-Pad3)*%
X147832000Y-91948000D03*
%TD*%
D10*
%TO.P,SW1,1,1*%
%TO.N,Net-(J1-Pin_1)*%
X135129200Y-96496700D03*
%TO.P,SW1,2,2*%
%TO.N,unconnected-(SW1-Pad2)*%
X135129200Y-108993500D03*
%TO.P,SW1,3,K*%
%TO.N,GND*%
X130130480Y-96496700D03*
%TO.P,SW1,4,A*%
%TO.N,unconnected-(SW1-A-Pad4)*%
X130130480Y-108993500D03*
%TD*%
D11*
%TO.P,SW6,*%
%TO.N,*%
X154308080Y-91948000D03*
X162508080Y-91948000D03*
D12*
%TO.P,SW6,1,O*%
%TO.N,GND*%
X156408080Y-91948000D03*
D13*
%TO.P,SW6,2,P*%
%TO.N,Net-(J2-Pin_4)*%
X158408080Y-91948000D03*
%TO.P,SW6,3,S*%
%TO.N,unconnected-(SW6-S-Pad3)*%
X160408080Y-91948000D03*
%TD*%
D10*
%TO.P,SW2,1,1*%
%TO.N,Net-(J1-Pin_2)*%
X148331360Y-96496700D03*
%TO.P,SW2,2,2*%
%TO.N,unconnected-(SW2-Pad2)*%
X148331360Y-108993500D03*
%TO.P,SW2,3,K*%
%TO.N,GND*%
X143332640Y-96496700D03*
%TO.P,SW2,4,A*%
%TO.N,unconnected-(SW2-A-Pad4)*%
X143332640Y-108993500D03*
%TD*%
D11*
%TO.P,SW4,*%
%TO.N,*%
X129155920Y-91948000D03*
X137355920Y-91948000D03*
D12*
%TO.P,SW4,1,O*%
%TO.N,GND*%
X131255920Y-91948000D03*
D13*
%TO.P,SW4,2,P*%
%TO.N,Net-(J2-Pin_2)*%
X133255920Y-91948000D03*
%TO.P,SW4,3,S*%
%TO.N,unconnected-(SW4-S-Pad3)*%
X135255920Y-91948000D03*
%TD*%
D14*
%TO.P,R2,1*%
%TO.N,+3.3V*%
X142022000Y-102745100D03*
D15*
%TO.P,R2,2*%
%TO.N,Net-(J2-Pin_3)*%
X149642000Y-102745100D03*
%TD*%
D16*
%TO.P,J1,1,Pin_1*%
%TO.N,Net-(J1-Pin_1)*%
X169059700Y-107878260D03*
D17*
%TO.P,J1,2,Pin_2*%
%TO.N,Net-(J1-Pin_2)*%
X169059700Y-105378260D03*
%TO.P,J1,3,Pin_3*%
%TO.N,Net-(J1-Pin_3)*%
X169059700Y-102878260D03*
%TO.P,J1,4,Pin_4*%
%TO.N,GND*%
X169059700Y-100378260D03*
%TD*%
D14*
%TO.P,R1,1*%
%TO.N,+3.3V*%
X128819840Y-102745100D03*
D15*
%TO.P,R1,2*%
%TO.N,Net-(J2-Pin_2)*%
X136439840Y-102745100D03*
%TD*%
D14*
%TO.P,R3,1*%
%TO.N,+3.3V*%
X155224160Y-102745100D03*
D15*
%TO.P,R3,2*%
%TO.N,Net-(J2-Pin_4)*%
X162844160Y-102745100D03*
%TD*%
D18*
%TO.P,J2,1,Pin_1*%
%TO.N,+3.3V*%
X122603100Y-97878260D03*
D17*
%TO.P,J2,2,Pin_2*%
%TO.N,Net-(J2-Pin_2)*%
X122603100Y-100378260D03*
%TO.P,J2,3,Pin_3*%
%TO.N,Net-(J2-Pin_3)*%
X122603100Y-102878260D03*
%TO.P,J2,4,Pin_4*%
%TO.N,Net-(J2-Pin_4)*%
X122603100Y-105378260D03*
%TO.P,J2,5,Pin_5*%
%TO.N,GND*%
X122603100Y-107878260D03*
%TD*%
D19*
%TO.N,Net-(J2-Pin_2)*%
X128199828Y-100378260D02*
X133255920Y-95322168D01*
X122603100Y-100378260D02*
X128199828Y-100378260D01*
X133255920Y-95322168D02*
X133255920Y-91948000D01*
%TO.N,Net-(J2-Pin_3)*%
X122603100Y-102878260D02*
X123836260Y-101645100D01*
X123836260Y-101645100D02*
X140157660Y-101645100D01*
X145832000Y-95970760D02*
X145832000Y-91948000D01*
X140157660Y-101645100D02*
X145832000Y-95970760D01*
%TO.N,Net-(J2-Pin_4)*%
X122603100Y-105378260D02*
X154229900Y-105378260D01*
X154229900Y-105378260D02*
X158408080Y-101200080D01*
X158408080Y-101200080D02*
X158408080Y-91948000D01*
%TO.N,+3.3V*%
X142022000Y-102745100D02*
X143122000Y-103845100D01*
X128819840Y-102745100D02*
X130103000Y-104028260D01*
X143122000Y-103845100D02*
X154124160Y-103845100D01*
X140738840Y-104028260D02*
X142022000Y-102745100D01*
X154124160Y-103845100D02*
X155224160Y-102745100D01*
X130103000Y-104028260D02*
X140738840Y-104028260D01*
%TD*%
%TA.AperFunction,Conductor*%
%TO.N,GND*%
G36*
X171871639Y-88367045D02*
G01*
X171917394Y-88419849D01*
X171928600Y-88471360D01*
X171928600Y-116222360D01*
X171908915Y-116289399D01*
X171856111Y-116335154D01*
X171804600Y-116346360D01*
X120053600Y-116346360D01*
X119986561Y-116326675D01*
X119940806Y-116273871D01*
X119929600Y-116222360D01*
X119929600Y-113199548D01*
X143993600Y-113199548D01*
X144025261Y-113440045D01*
X144088047Y-113674364D01*
X144180873Y-113898465D01*
X144180876Y-113898472D01*
X144302164Y-114108549D01*
X144302166Y-114108552D01*
X144302167Y-114108553D01*
X144449833Y-114300996D01*
X144449839Y-114301003D01*
X144621356Y-114472520D01*
X144621362Y-114472525D01*
X144813811Y-114620196D01*
X145023888Y-114741484D01*
X145248000Y-114834314D01*
X145482311Y-114897098D01*
X145662686Y-114920844D01*
X145722811Y-114928760D01*
X145722812Y-114928760D01*
X145965389Y-114928760D01*
X146013488Y-114922427D01*
X146205889Y-114897098D01*
X146440200Y-114834314D01*
X146664312Y-114741484D01*
X146874389Y-114620196D01*
X147066838Y-114472525D01*
X147238365Y-114300998D01*
X147386036Y-114108549D01*
X147507324Y-113898472D01*
X147600154Y-113674360D01*
X147662938Y-113440049D01*
X147694600Y-113199548D01*
X147694600Y-112956972D01*
X147662938Y-112716471D01*
X147600154Y-112482160D01*
X147507324Y-112258048D01*
X147386036Y-112047971D01*
X147238365Y-111855522D01*
X147238360Y-111855516D01*
X147066843Y-111683999D01*
X147066836Y-111683993D01*
X146874393Y-111536327D01*
X146874392Y-111536326D01*
X146874389Y-111536324D01*
X146664312Y-111415036D01*
X146664305Y-111415033D01*
X146440204Y-111322207D01*
X146205885Y-111259421D01*
X145965389Y-111227760D01*
X145965388Y-111227760D01*
X145722812Y-111227760D01*
X145722811Y-111227760D01*
X145482314Y-111259421D01*
X145247995Y-111322207D01*
X145023894Y-111415033D01*
X145023885Y-111415037D01*
X144813806Y-111536327D01*
X144621363Y-111683993D01*
X144621356Y-111683999D01*
X144449839Y-111855516D01*
X144449833Y-111855523D01*
X144302167Y-112047966D01*
X144180877Y-112258045D01*
X144180873Y-112258054D01*
X144088047Y-112482155D01*
X144025261Y-112716474D01*
X143993600Y-112956971D01*
X143993600Y-113199548D01*
X119929600Y-113199548D01*
X119929600Y-105484547D01*
X121127600Y-105484547D01*
X121160854Y-105694503D01*
X121174586Y-105736767D01*
X121226544Y-105896674D01*
X121323051Y-106086080D01*
X121447990Y-106258046D01*
X121598309Y-106408365D01*
X121598314Y-106408369D01*
X121763318Y-106528251D01*
X121805984Y-106583580D01*
X121811963Y-106653194D01*
X121779358Y-106714989D01*
X121763318Y-106728887D01*
X121598640Y-106848532D01*
X121598635Y-106848536D01*
X121448376Y-106998795D01*
X121448372Y-106998800D01*
X121323479Y-107170702D01*
X121227004Y-107360042D01*
X121161342Y-107562130D01*
X121161342Y-107562133D01*
X121150869Y-107628260D01*
X122198954Y-107628260D01*
X122160470Y-107694917D01*
X122128100Y-107815725D01*
X122128100Y-107940795D01*
X122160470Y-108061603D01*
X122198954Y-108128260D01*
X121150869Y-108128260D01*
X121161342Y-108194386D01*
X121161342Y-108194389D01*
X121227004Y-108396477D01*
X121323479Y-108585817D01*
X121448372Y-108757719D01*
X121448376Y-108757724D01*
X121598635Y-108907983D01*
X121598640Y-108907987D01*
X121770542Y-109032880D01*
X121959882Y-109129355D01*
X122161972Y-109195017D01*
X122353100Y-109225289D01*
X122353100Y-108282405D01*
X122419757Y-108320890D01*
X122540565Y-108353260D01*
X122665635Y-108353260D01*
X122786443Y-108320890D01*
X122853100Y-108282405D01*
X122853100Y-109225288D01*
X123044227Y-109195017D01*
X123246317Y-109129355D01*
X123435657Y-109032880D01*
X123489859Y-108993500D01*
X128545594Y-108993500D01*
X128565107Y-109241434D01*
X128623164Y-109483259D01*
X128718335Y-109713023D01*
X128848276Y-109925068D01*
X128848277Y-109925070D01*
X128848280Y-109925073D01*
X129009796Y-110114184D01*
X129156186Y-110239213D01*
X129198909Y-110275702D01*
X129198911Y-110275703D01*
X129410956Y-110405644D01*
X129640720Y-110500815D01*
X129640721Y-110500815D01*
X129640723Y-110500816D01*
X129882549Y-110558873D01*
X130130480Y-110578386D01*
X130378411Y-110558873D01*
X130620237Y-110500816D01*
X130850003Y-110405644D01*
X131062053Y-110275700D01*
X131251164Y-110114184D01*
X131412680Y-109925073D01*
X131542624Y-109713023D01*
X131637796Y-109483257D01*
X131695853Y-109241431D01*
X131715366Y-108993500D01*
X133544314Y-108993500D01*
X133563827Y-109241434D01*
X133621884Y-109483259D01*
X133717055Y-109713023D01*
X133846996Y-109925068D01*
X133846997Y-109925070D01*
X133847000Y-109925073D01*
X134008516Y-110114184D01*
X134154906Y-110239213D01*
X134197629Y-110275702D01*
X134197631Y-110275703D01*
X134409676Y-110405644D01*
X134639440Y-110500815D01*
X134639441Y-110500815D01*
X134639443Y-110500816D01*
X134881269Y-110558873D01*
X135129200Y-110578386D01*
X135377131Y-110558873D01*
X135618957Y-110500816D01*
X135848723Y-110405644D01*
X136060773Y-110275700D01*
X136249884Y-110114184D01*
X136411400Y-109925073D01*
X136541344Y-109713023D01*
X136636516Y-109483257D01*
X136694573Y-109241431D01*
X136714086Y-108993500D01*
X141747754Y-108993500D01*
X141767267Y-109241434D01*
X141825324Y-109483259D01*
X141920495Y-109713023D01*
X142050436Y-109925068D01*
X142050437Y-109925070D01*
X142050440Y-109925073D01*
X142211956Y-110114184D01*
X142358346Y-110239213D01*
X142401069Y-110275702D01*
X142401071Y-110275703D01*
X142613116Y-110405644D01*
X142842880Y-110500815D01*
X142842881Y-110500815D01*
X142842883Y-110500816D01*
X143084709Y-110558873D01*
X143332640Y-110578386D01*
X143580571Y-110558873D01*
X143822397Y-110500816D01*
X144052163Y-110405644D01*
X144264213Y-110275700D01*
X144453324Y-110114184D01*
X144614840Y-109925073D01*
X144744784Y-109713023D01*
X144839956Y-109483257D01*
X144898013Y-109241431D01*
X144917526Y-108993500D01*
X146746474Y-108993500D01*
X146765987Y-109241434D01*
X146824044Y-109483259D01*
X146919215Y-109713023D01*
X147049156Y-109925068D01*
X147049157Y-109925070D01*
X147049160Y-109925073D01*
X147210676Y-110114184D01*
X147357066Y-110239213D01*
X147399789Y-110275702D01*
X147399791Y-110275703D01*
X147611836Y-110405644D01*
X147841600Y-110500815D01*
X147841601Y-110500815D01*
X147841603Y-110500816D01*
X148083429Y-110558873D01*
X148331360Y-110578386D01*
X148579291Y-110558873D01*
X148821117Y-110500816D01*
X149050883Y-110405644D01*
X149262933Y-110275700D01*
X149452044Y-110114184D01*
X149613560Y-109925073D01*
X149743504Y-109713023D01*
X149838676Y-109483257D01*
X149896733Y-109241431D01*
X149916246Y-108993500D01*
X154949914Y-108993500D01*
X154969427Y-109241434D01*
X155027484Y-109483259D01*
X155122655Y-109713023D01*
X155252596Y-109925068D01*
X155252597Y-109925070D01*
X155252600Y-109925073D01*
X155414116Y-110114184D01*
X155560506Y-110239213D01*
X155603229Y-110275702D01*
X155603231Y-110275703D01*
X155815276Y-110405644D01*
X156045040Y-110500815D01*
X156045041Y-110500815D01*
X156045043Y-110500816D01*
X156286869Y-110558873D01*
X156534800Y-110578386D01*
X156782731Y-110558873D01*
X157024557Y-110500816D01*
X157254323Y-110405644D01*
X157466373Y-110275700D01*
X157655484Y-110114184D01*
X157817000Y-109925073D01*
X157946944Y-109713023D01*
X158042116Y-109483257D01*
X158100173Y-109241431D01*
X158119686Y-108993500D01*
X159948634Y-108993500D01*
X159968147Y-109241434D01*
X160026204Y-109483259D01*
X160121375Y-109713023D01*
X160251316Y-109925068D01*
X160251317Y-109925070D01*
X160251320Y-109925073D01*
X160412836Y-110114184D01*
X160559226Y-110239213D01*
X160601949Y-110275702D01*
X160601951Y-110275703D01*
X160813996Y-110405644D01*
X161043760Y-110500815D01*
X161043761Y-110500815D01*
X161043763Y-110500816D01*
X161285589Y-110558873D01*
X161533520Y-110578386D01*
X161781451Y-110558873D01*
X162023277Y-110500816D01*
X162253043Y-110405644D01*
X162465093Y-110275700D01*
X162654204Y-110114184D01*
X162815720Y-109925073D01*
X162945664Y-109713023D01*
X163040836Y-109483257D01*
X163098893Y-109241431D01*
X163118406Y-108993500D01*
X163098893Y-108745569D01*
X163046722Y-108528261D01*
X167584200Y-108528261D01*
X167584201Y-108528278D01*
X167594700Y-108631056D01*
X167594701Y-108631059D01*
X167636673Y-108757719D01*
X167649886Y-108797594D01*
X167741988Y-108946916D01*
X167866044Y-109070972D01*
X168015366Y-109163074D01*
X168181903Y-109218259D01*
X168284691Y-109228760D01*
X169834708Y-109228759D01*
X169937497Y-109218259D01*
X170104034Y-109163074D01*
X170253356Y-109070972D01*
X170377412Y-108946916D01*
X170469514Y-108797594D01*
X170524699Y-108631057D01*
X170535200Y-108528269D01*
X170535199Y-107228252D01*
X170524699Y-107125463D01*
X170469514Y-106958926D01*
X170377412Y-106809604D01*
X170253356Y-106685548D01*
X170104034Y-106593446D01*
X170104033Y-106593445D01*
X170098578Y-106590081D01*
X170051854Y-106538133D01*
X170040631Y-106469170D01*
X170068475Y-106405088D01*
X170075972Y-106396883D01*
X170214804Y-106258052D01*
X170339751Y-106086076D01*
X170436257Y-105896672D01*
X170501946Y-105694503D01*
X170535200Y-105484547D01*
X170535200Y-105271973D01*
X170501946Y-105062017D01*
X170436257Y-104859848D01*
X170339751Y-104670444D01*
X170339749Y-104670441D01*
X170339748Y-104670439D01*
X170214809Y-104498473D01*
X170064492Y-104348156D01*
X170064484Y-104348150D01*
X169899904Y-104228576D01*
X169857240Y-104173249D01*
X169851261Y-104103636D01*
X169883866Y-104041840D01*
X169899899Y-104027946D01*
X170064492Y-103908364D01*
X170214804Y-103758052D01*
X170214806Y-103758048D01*
X170214809Y-103758046D01*
X170339748Y-103586080D01*
X170339747Y-103586080D01*
X170339751Y-103586076D01*
X170436257Y-103396672D01*
X170501946Y-103194503D01*
X170535200Y-102984547D01*
X170535200Y-102771973D01*
X170501946Y-102562017D01*
X170436257Y-102359848D01*
X170339751Y-102170444D01*
X170339749Y-102170441D01*
X170339748Y-102170439D01*
X170214809Y-101998473D01*
X170064490Y-101848154D01*
X170064485Y-101848150D01*
X169899481Y-101728268D01*
X169856815Y-101672938D01*
X169850836Y-101603325D01*
X169883441Y-101541530D01*
X169899481Y-101527631D01*
X170064166Y-101407981D01*
X170214423Y-101257724D01*
X170214427Y-101257719D01*
X170339320Y-101085817D01*
X170435795Y-100896477D01*
X170501457Y-100694389D01*
X170501457Y-100694386D01*
X170511931Y-100628260D01*
X169463846Y-100628260D01*
X169502330Y-100561603D01*
X169534700Y-100440795D01*
X169534700Y-100315725D01*
X169502330Y-100194917D01*
X169463846Y-100128260D01*
X170511931Y-100128260D01*
X170501457Y-100062133D01*
X170501457Y-100062130D01*
X170435795Y-99860042D01*
X170339320Y-99670702D01*
X170214427Y-99498800D01*
X170214423Y-99498795D01*
X170064164Y-99348536D01*
X170064159Y-99348532D01*
X169892257Y-99223639D01*
X169702917Y-99127164D01*
X169500828Y-99061502D01*
X169309700Y-99031229D01*
X169309700Y-99974114D01*
X169243043Y-99935630D01*
X169122235Y-99903260D01*
X168997165Y-99903260D01*
X168876357Y-99935630D01*
X168809700Y-99974114D01*
X168809700Y-99031229D01*
X168618572Y-99061502D01*
X168618569Y-99061502D01*
X168416482Y-99127164D01*
X168227142Y-99223639D01*
X168055240Y-99348532D01*
X168055235Y-99348536D01*
X167904976Y-99498795D01*
X167904972Y-99498800D01*
X167780079Y-99670702D01*
X167683604Y-99860042D01*
X167617942Y-100062130D01*
X167617942Y-100062133D01*
X167607469Y-100128260D01*
X168655554Y-100128260D01*
X168617070Y-100194917D01*
X168584700Y-100315725D01*
X168584700Y-100440795D01*
X168617070Y-100561603D01*
X168655554Y-100628260D01*
X167607469Y-100628260D01*
X167617942Y-100694386D01*
X167617942Y-100694389D01*
X167683604Y-100896477D01*
X167780079Y-101085817D01*
X167904972Y-101257719D01*
X167904976Y-101257724D01*
X168055235Y-101407983D01*
X168055240Y-101407987D01*
X168219918Y-101527632D01*
X168262584Y-101582961D01*
X168268563Y-101652575D01*
X168235958Y-101714370D01*
X168219918Y-101728268D01*
X168054914Y-101848150D01*
X168054909Y-101848154D01*
X167904590Y-101998473D01*
X167779651Y-102170439D01*
X167683144Y-102359845D01*
X167683143Y-102359847D01*
X167683143Y-102359848D01*
X167669547Y-102401693D01*
X167617453Y-102562020D01*
X167584200Y-102771973D01*
X167584200Y-102984546D01*
X167616994Y-103191602D01*
X167617454Y-103194503D01*
X167681443Y-103391441D01*
X167683144Y-103396674D01*
X167779651Y-103586080D01*
X167904590Y-103758046D01*
X168054909Y-103908365D01*
X168054914Y-103908369D01*
X168219493Y-104027942D01*
X168262159Y-104083271D01*
X168268138Y-104152885D01*
X168235533Y-104214680D01*
X168219493Y-104228578D01*
X168054914Y-104348150D01*
X168054909Y-104348154D01*
X167904590Y-104498473D01*
X167779651Y-104670439D01*
X167683144Y-104859845D01*
X167617453Y-105062020D01*
X167584200Y-105271973D01*
X167584200Y-105484547D01*
X167617454Y-105694503D01*
X167631186Y-105736767D01*
X167683144Y-105896674D01*
X167779651Y-106086080D01*
X167904590Y-106258046D01*
X168043405Y-106396861D01*
X168076890Y-106458184D01*
X168071906Y-106527876D01*
X168030034Y-106583809D01*
X168020821Y-106590081D01*
X167866042Y-106685549D01*
X167741989Y-106809602D01*
X167649887Y-106958923D01*
X167649886Y-106958926D01*
X167594701Y-107125463D01*
X167594701Y-107125464D01*
X167594700Y-107125464D01*
X167584200Y-107228243D01*
X167584200Y-108528261D01*
X163046722Y-108528261D01*
X163040836Y-108503743D01*
X162945664Y-108273977D01*
X162945664Y-108273976D01*
X162815723Y-108061931D01*
X162815722Y-108061929D01*
X162779233Y-108019206D01*
X162654204Y-107872816D01*
X162529173Y-107766030D01*
X162465090Y-107711297D01*
X162465088Y-107711296D01*
X162253043Y-107581355D01*
X162023279Y-107486184D01*
X161781454Y-107428127D01*
X161533520Y-107408614D01*
X161285585Y-107428127D01*
X161043760Y-107486184D01*
X160813996Y-107581355D01*
X160601951Y-107711296D01*
X160601949Y-107711297D01*
X160412836Y-107872816D01*
X160251317Y-108061929D01*
X160251316Y-108061931D01*
X160121375Y-108273976D01*
X160026204Y-108503740D01*
X159968147Y-108745565D01*
X159948634Y-108993500D01*
X158119686Y-108993500D01*
X158100173Y-108745569D01*
X158042116Y-108503743D01*
X157946944Y-108273977D01*
X157946944Y-108273976D01*
X157817003Y-108061931D01*
X157817002Y-108061929D01*
X157780513Y-108019206D01*
X157655484Y-107872816D01*
X157530453Y-107766030D01*
X157466370Y-107711297D01*
X157466368Y-107711296D01*
X157254323Y-107581355D01*
X157024559Y-107486184D01*
X156782734Y-107428127D01*
X156534800Y-107408614D01*
X156286865Y-107428127D01*
X156045040Y-107486184D01*
X155815276Y-107581355D01*
X155603231Y-107711296D01*
X155603229Y-107711297D01*
X155414116Y-107872816D01*
X155252597Y-108061929D01*
X155252596Y-108061931D01*
X155122655Y-108273976D01*
X155027484Y-108503740D01*
X154969427Y-108745565D01*
X154949914Y-108993500D01*
X149916246Y-108993500D01*
X149896733Y-108745569D01*
X149838676Y-108503743D01*
X149743504Y-108273977D01*
X149743504Y-108273976D01*
X149613563Y-108061931D01*
X149613562Y-108061929D01*
X149577073Y-108019206D01*
X149452044Y-107872816D01*
X149327013Y-107766030D01*
X149262930Y-107711297D01*
X149262928Y-107711296D01*
X149050883Y-107581355D01*
X148821119Y-107486184D01*
X148579294Y-107428127D01*
X148331360Y-107408614D01*
X148083425Y-107428127D01*
X147841600Y-107486184D01*
X147611836Y-107581355D01*
X147399791Y-107711296D01*
X147399789Y-107711297D01*
X147210676Y-107872816D01*
X147049157Y-108061929D01*
X147049156Y-108061931D01*
X146919215Y-108273976D01*
X146824044Y-108503740D01*
X146765987Y-108745565D01*
X146746474Y-108993500D01*
X144917526Y-108993500D01*
X144898013Y-108745569D01*
X144839956Y-108503743D01*
X144744784Y-108273977D01*
X144744784Y-108273976D01*
X144614843Y-108061931D01*
X144614842Y-108061929D01*
X144578353Y-108019206D01*
X144453324Y-107872816D01*
X144328293Y-107766030D01*
X144264210Y-107711297D01*
X144264208Y-107711296D01*
X144052163Y-107581355D01*
X143822399Y-107486184D01*
X143580574Y-107428127D01*
X143332640Y-107408614D01*
X143084705Y-107428127D01*
X142842880Y-107486184D01*
X142613116Y-107581355D01*
X142401071Y-107711296D01*
X142401069Y-107711297D01*
X142211956Y-107872816D01*
X142050437Y-108061929D01*
X142050436Y-108061931D01*
X141920495Y-108273976D01*
X141825324Y-108503740D01*
X141767267Y-108745565D01*
X141747754Y-108993500D01*
X136714086Y-108993500D01*
X136694573Y-108745569D01*
X136636516Y-108503743D01*
X136541344Y-108273977D01*
X136541344Y-108273976D01*
X136411403Y-108061931D01*
X136411402Y-108061929D01*
X136374913Y-108019206D01*
X136249884Y-107872816D01*
X136124853Y-107766030D01*
X136060770Y-107711297D01*
X136060768Y-107711296D01*
X135848723Y-107581355D01*
X135618959Y-107486184D01*
X135377134Y-107428127D01*
X135129200Y-107408614D01*
X134881265Y-107428127D01*
X134639440Y-107486184D01*
X134409676Y-107581355D01*
X134197631Y-107711296D01*
X134197629Y-107711297D01*
X134008516Y-107872816D01*
X133846997Y-108061929D01*
X133846996Y-108061931D01*
X133717055Y-108273976D01*
X133621884Y-108503740D01*
X133563827Y-108745565D01*
X133544314Y-108993500D01*
X131715366Y-108993500D01*
X131695853Y-108745569D01*
X131637796Y-108503743D01*
X131542624Y-108273977D01*
X131542624Y-108273976D01*
X131412683Y-108061931D01*
X131412682Y-108061929D01*
X131376193Y-108019206D01*
X131251164Y-107872816D01*
X131126133Y-107766030D01*
X131062050Y-107711297D01*
X131062048Y-107711296D01*
X130850003Y-107581355D01*
X130620239Y-107486184D01*
X130378414Y-107428127D01*
X130130480Y-107408614D01*
X129882545Y-107428127D01*
X129640720Y-107486184D01*
X129410956Y-107581355D01*
X129198911Y-107711296D01*
X129198909Y-107711297D01*
X129009796Y-107872816D01*
X128848277Y-108061929D01*
X128848276Y-108061931D01*
X128718335Y-108273976D01*
X128623164Y-108503740D01*
X128565107Y-108745565D01*
X128545594Y-108993500D01*
X123489859Y-108993500D01*
X123607559Y-108907987D01*
X123607564Y-108907983D01*
X123757823Y-108757724D01*
X123757827Y-108757719D01*
X123882720Y-108585817D01*
X123979195Y-108396477D01*
X124044857Y-108194389D01*
X124044857Y-108194386D01*
X124055331Y-108128260D01*
X123007246Y-108128260D01*
X123045730Y-108061603D01*
X123078100Y-107940795D01*
X123078100Y-107815725D01*
X123045730Y-107694917D01*
X123007246Y-107628260D01*
X124055331Y-107628260D01*
X124044857Y-107562133D01*
X124044857Y-107562130D01*
X123979195Y-107360042D01*
X123882720Y-107170702D01*
X123757827Y-106998800D01*
X123757823Y-106998795D01*
X123607564Y-106848536D01*
X123607559Y-106848532D01*
X123442881Y-106728887D01*
X123400215Y-106673557D01*
X123394236Y-106603944D01*
X123426841Y-106542149D01*
X123442876Y-106528254D01*
X123607892Y-106408364D01*
X123758204Y-106258052D01*
X123758206Y-106258048D01*
X123758209Y-106258046D01*
X123816761Y-106177453D01*
X123883151Y-106086076D01*
X123883449Y-106085490D01*
X123903335Y-106046465D01*
X123951309Y-105995669D01*
X124013819Y-105978760D01*
X154143231Y-105978760D01*
X154143247Y-105978761D01*
X154150843Y-105978761D01*
X154308954Y-105978761D01*
X154308957Y-105978761D01*
X154461685Y-105937837D01*
X154511804Y-105908899D01*
X154598616Y-105858780D01*
X154710420Y-105746976D01*
X154710420Y-105746974D01*
X154720628Y-105736767D01*
X154720630Y-105736764D01*
X157712293Y-102745101D01*
X161538692Y-102745101D01*
X161558524Y-102971786D01*
X161558526Y-102971797D01*
X161617418Y-103191588D01*
X161617421Y-103191597D01*
X161713591Y-103397832D01*
X161713592Y-103397834D01*
X161844114Y-103584241D01*
X162005018Y-103745145D01*
X162005021Y-103745147D01*
X162191426Y-103875668D01*
X162397664Y-103971839D01*
X162617468Y-104030735D01*
X162779390Y-104044901D01*
X162844158Y-104050568D01*
X162844160Y-104050568D01*
X162844162Y-104050568D01*
X162900833Y-104045609D01*
X163070852Y-104030735D01*
X163290656Y-103971839D01*
X163496894Y-103875668D01*
X163683299Y-103745147D01*
X163844207Y-103584239D01*
X163974728Y-103397834D01*
X164070899Y-103191596D01*
X164129795Y-102971792D01*
X164149628Y-102745100D01*
X164129795Y-102518408D01*
X164070899Y-102298604D01*
X163974728Y-102092366D01*
X163844207Y-101905961D01*
X163844205Y-101905958D01*
X163683301Y-101745054D01*
X163496894Y-101614532D01*
X163496892Y-101614531D01*
X163290657Y-101518361D01*
X163290648Y-101518358D01*
X163070857Y-101459466D01*
X163070853Y-101459465D01*
X163070852Y-101459465D01*
X163070851Y-101459464D01*
X163070846Y-101459464D01*
X162844162Y-101439632D01*
X162844158Y-101439632D01*
X162617473Y-101459464D01*
X162617462Y-101459466D01*
X162397671Y-101518358D01*
X162397662Y-101518361D01*
X162191427Y-101614531D01*
X162191425Y-101614532D01*
X162005018Y-101745054D01*
X161844114Y-101905958D01*
X161713592Y-102092365D01*
X161713591Y-102092367D01*
X161617421Y-102298602D01*
X161617418Y-102298611D01*
X161558526Y-102518402D01*
X161558524Y-102518413D01*
X161538692Y-102745098D01*
X161538692Y-102745101D01*
X157712293Y-102745101D01*
X158766586Y-101690808D01*
X158766591Y-101690804D01*
X158776794Y-101680600D01*
X158776796Y-101680600D01*
X158888600Y-101568796D01*
X158951722Y-101459465D01*
X158967657Y-101431865D01*
X159008581Y-101279137D01*
X159008581Y-101121023D01*
X159008581Y-101113428D01*
X159008580Y-101113410D01*
X159008580Y-96496700D01*
X159948634Y-96496700D01*
X159968147Y-96744634D01*
X160026204Y-96986459D01*
X160121375Y-97216223D01*
X160251316Y-97428268D01*
X160251317Y-97428270D01*
X160251320Y-97428273D01*
X160412836Y-97617384D01*
X160559226Y-97742413D01*
X160601949Y-97778902D01*
X160601951Y-97778903D01*
X160813996Y-97908844D01*
X161043760Y-98004015D01*
X161043761Y-98004015D01*
X161043763Y-98004016D01*
X161285589Y-98062073D01*
X161533520Y-98081586D01*
X161781451Y-98062073D01*
X162023277Y-98004016D01*
X162253043Y-97908844D01*
X162465093Y-97778900D01*
X162654204Y-97617384D01*
X162815720Y-97428273D01*
X162945664Y-97216223D01*
X163040836Y-96986457D01*
X163098893Y-96744631D01*
X163118406Y-96496700D01*
X163098893Y-96248769D01*
X163040836Y-96006943D01*
X163012331Y-95938125D01*
X162945664Y-95777176D01*
X162815723Y-95565131D01*
X162815722Y-95565129D01*
X162779233Y-95522406D01*
X162654204Y-95376016D01*
X162498588Y-95243107D01*
X162465090Y-95214497D01*
X162465088Y-95214496D01*
X162253043Y-95084555D01*
X162023279Y-94989384D01*
X161781454Y-94931327D01*
X161533520Y-94911814D01*
X161285585Y-94931327D01*
X161043760Y-94989384D01*
X160813996Y-95084555D01*
X160601951Y-95214496D01*
X160601949Y-95214497D01*
X160412836Y-95376016D01*
X160251317Y-95565129D01*
X160251316Y-95565131D01*
X160121375Y-95777176D01*
X160026204Y-96006940D01*
X159968147Y-96248765D01*
X159948634Y-96496700D01*
X159008580Y-96496700D01*
X159008580Y-93620596D01*
X159028265Y-93553557D01*
X159059694Y-93520278D01*
X159063483Y-93517524D01*
X159063485Y-93517524D01*
X159222726Y-93401828D01*
X159320399Y-93304155D01*
X159381722Y-93270670D01*
X159451414Y-93275654D01*
X159495761Y-93304155D01*
X159593434Y-93401828D01*
X159752675Y-93517524D01*
X159822784Y-93553246D01*
X159928050Y-93606882D01*
X159928052Y-93606882D01*
X159928055Y-93606884D01*
X160028397Y-93639487D01*
X160115253Y-93667709D01*
X160309658Y-93698500D01*
X160309663Y-93698500D01*
X160506502Y-93698500D01*
X160700906Y-93667709D01*
X160888105Y-93606884D01*
X161063485Y-93517524D01*
X161063489Y-93517520D01*
X161067167Y-93515647D01*
X161135836Y-93502751D01*
X161200577Y-93529027D01*
X161223779Y-93553245D01*
X161287287Y-93640656D01*
X161287289Y-93640658D01*
X161465425Y-93818794D01*
X161465430Y-93818798D01*
X161643197Y-93947952D01*
X161669235Y-93966870D01*
X161812264Y-94039747D01*
X161893696Y-94081239D01*
X161893698Y-94081239D01*
X161893701Y-94081241D01*
X162133295Y-94159090D01*
X162382118Y-94198500D01*
X162382119Y-94198500D01*
X162634041Y-94198500D01*
X162634042Y-94198500D01*
X162882865Y-94159090D01*
X163122459Y-94081241D01*
X163346925Y-93966870D01*
X163550736Y-93818793D01*
X163728873Y-93640656D01*
X163876950Y-93436845D01*
X163991321Y-93212379D01*
X164069170Y-92972785D01*
X164108580Y-92723962D01*
X164108580Y-91558748D01*
X166142400Y-91558748D01*
X166174061Y-91799245D01*
X166236847Y-92033564D01*
X166303139Y-92193606D01*
X166329676Y-92257672D01*
X166450964Y-92467749D01*
X166450966Y-92467752D01*
X166450967Y-92467753D01*
X166598633Y-92660196D01*
X166598639Y-92660203D01*
X166770156Y-92831720D01*
X166770162Y-92831725D01*
X166962611Y-92979396D01*
X167172688Y-93100684D01*
X167396800Y-93193514D01*
X167631111Y-93256298D01*
X167811486Y-93280044D01*
X167871611Y-93287960D01*
X167871612Y-93287960D01*
X168114189Y-93287960D01*
X168162288Y-93281627D01*
X168354689Y-93256298D01*
X168589000Y-93193514D01*
X168813112Y-93100684D01*
X169023189Y-92979396D01*
X169215638Y-92831725D01*
X169387165Y-92660198D01*
X169534836Y-92467749D01*
X169656124Y-92257672D01*
X169748954Y-92033560D01*
X169811738Y-91799249D01*
X169843400Y-91558748D01*
X169843400Y-91316172D01*
X169811738Y-91075671D01*
X169748954Y-90841360D01*
X169656124Y-90617248D01*
X169534836Y-90407171D01*
X169387165Y-90214722D01*
X169387160Y-90214716D01*
X169215643Y-90043199D01*
X169215636Y-90043193D01*
X169023193Y-89895527D01*
X169023192Y-89895526D01*
X169023189Y-89895524D01*
X168813112Y-89774236D01*
X168813105Y-89774233D01*
X168589004Y-89681407D01*
X168354685Y-89618621D01*
X168114189Y-89586960D01*
X168114188Y-89586960D01*
X167871612Y-89586960D01*
X167871611Y-89586960D01*
X167631114Y-89618621D01*
X167396795Y-89681407D01*
X167172694Y-89774233D01*
X167172685Y-89774237D01*
X166962606Y-89895527D01*
X166770163Y-90043193D01*
X166770156Y-90043199D01*
X166598639Y-90214716D01*
X166598633Y-90214723D01*
X166450967Y-90407166D01*
X166329677Y-90617245D01*
X166329673Y-90617254D01*
X166236847Y-90841355D01*
X166174061Y-91075674D01*
X166142400Y-91316171D01*
X166142400Y-91558748D01*
X164108580Y-91558748D01*
X164108580Y-91172038D01*
X164069170Y-90923215D01*
X163991321Y-90683621D01*
X163991319Y-90683618D01*
X163991319Y-90683616D01*
X163944559Y-90591845D01*
X163876950Y-90459155D01*
X163823378Y-90385419D01*
X163728878Y-90255350D01*
X163728874Y-90255345D01*
X163550734Y-90077205D01*
X163550729Y-90077201D01*
X163346928Y-89929132D01*
X163346927Y-89929131D01*
X163346925Y-89929130D01*
X163276827Y-89893413D01*
X163122463Y-89814760D01*
X162882865Y-89736910D01*
X162634042Y-89697500D01*
X162382118Y-89697500D01*
X162257706Y-89717205D01*
X162133294Y-89736910D01*
X161893696Y-89814760D01*
X161669231Y-89929132D01*
X161465430Y-90077201D01*
X161465425Y-90077205D01*
X161287289Y-90255341D01*
X161287282Y-90255350D01*
X161223779Y-90342753D01*
X161168449Y-90385419D01*
X161098836Y-90391397D01*
X161067167Y-90380352D01*
X160888109Y-90289117D01*
X160700906Y-90228290D01*
X160506502Y-90197500D01*
X160506497Y-90197500D01*
X160309663Y-90197500D01*
X160309658Y-90197500D01*
X160115253Y-90228290D01*
X159928050Y-90289117D01*
X159752674Y-90378476D01*
X159683746Y-90428556D01*
X159593434Y-90494172D01*
X159593432Y-90494174D01*
X159593431Y-90494174D01*
X159495761Y-90591845D01*
X159434438Y-90625330D01*
X159364746Y-90620346D01*
X159320399Y-90591845D01*
X159222728Y-90494174D01*
X159222726Y-90494172D01*
X159063485Y-90378476D01*
X158888109Y-90289117D01*
X158700906Y-90228290D01*
X158506502Y-90197500D01*
X158506497Y-90197500D01*
X158309663Y-90197500D01*
X158309658Y-90197500D01*
X158115253Y-90228290D01*
X157928050Y-90289117D01*
X157752673Y-90378477D01*
X157752665Y-90378482D01*
X157716060Y-90405077D01*
X157650253Y-90428556D01*
X157582199Y-90412730D01*
X157543910Y-90379070D01*
X157515267Y-90340809D01*
X157400173Y-90254649D01*
X157400166Y-90254645D01*
X157265459Y-90204403D01*
X157265452Y-90204401D01*
X157205924Y-90198000D01*
X156658080Y-90198000D01*
X156658080Y-91632314D01*
X156653686Y-91627920D01*
X156562474Y-91575259D01*
X156460741Y-91548000D01*
X156355419Y-91548000D01*
X156253686Y-91575259D01*
X156162474Y-91627920D01*
X156158080Y-91632314D01*
X156158080Y-90198000D01*
X155610252Y-90198000D01*
X155610233Y-90198001D01*
X155543981Y-90205124D01*
X155475222Y-90192719D01*
X155443045Y-90169516D01*
X155350734Y-90077205D01*
X155350729Y-90077201D01*
X155146928Y-89929132D01*
X155146927Y-89929131D01*
X155146925Y-89929130D01*
X155076827Y-89893413D01*
X154922463Y-89814760D01*
X154682865Y-89736910D01*
X154434042Y-89697500D01*
X154182118Y-89697500D01*
X154057706Y-89717205D01*
X153933294Y-89736910D01*
X153693696Y-89814760D01*
X153469231Y-89929132D01*
X153265430Y-90077201D01*
X153265425Y-90077205D01*
X153087285Y-90255345D01*
X153087281Y-90255350D01*
X152939212Y-90459151D01*
X152824840Y-90683616D01*
X152746990Y-90923214D01*
X152707580Y-91172038D01*
X152707580Y-92723961D01*
X152746990Y-92972785D01*
X152824840Y-93212383D01*
X152857079Y-93275654D01*
X152921366Y-93401825D01*
X152939212Y-93436848D01*
X153087281Y-93640649D01*
X153087285Y-93640654D01*
X153265425Y-93818794D01*
X153265430Y-93818798D01*
X153443197Y-93947952D01*
X153469235Y-93966870D01*
X153612264Y-94039747D01*
X153693696Y-94081239D01*
X153693698Y-94081239D01*
X153693701Y-94081241D01*
X153933295Y-94159090D01*
X154182118Y-94198500D01*
X154182119Y-94198500D01*
X154434041Y-94198500D01*
X154434042Y-94198500D01*
X154682865Y-94159090D01*
X154922459Y-94081241D01*
X155146925Y-93966870D01*
X155350736Y-93818793D01*
X155443048Y-93726480D01*
X155504367Y-93692998D01*
X155543983Y-93690875D01*
X155610238Y-93697999D01*
X155610252Y-93698000D01*
X156158080Y-93698000D01*
X156158080Y-92263686D01*
X156162474Y-92268080D01*
X156253686Y-92320741D01*
X156355419Y-92348000D01*
X156460741Y-92348000D01*
X156562474Y-92320741D01*
X156653686Y-92268080D01*
X156658080Y-92263686D01*
X156658080Y-93698000D01*
X157205908Y-93698000D01*
X157205924Y-93697999D01*
X157265452Y-93691598D01*
X157265459Y-93691596D01*
X157400166Y-93641354D01*
X157400173Y-93641350D01*
X157515266Y-93555190D01*
X157543909Y-93516930D01*
X157599843Y-93475059D01*
X157669535Y-93470075D01*
X157716061Y-93490923D01*
X157756465Y-93520278D01*
X157799131Y-93575607D01*
X157807580Y-93620596D01*
X157807580Y-95526111D01*
X157787895Y-95593150D01*
X157771261Y-95613792D01*
X157098955Y-96286097D01*
X157093390Y-96265325D01*
X157014472Y-96128635D01*
X156902865Y-96017028D01*
X156766175Y-95938110D01*
X156745403Y-95932544D01*
X157464194Y-95213752D01*
X157254095Y-95085003D01*
X157024397Y-94989859D01*
X156782648Y-94931821D01*
X156782649Y-94931821D01*
X156534800Y-94912316D01*
X156286950Y-94931821D01*
X156045202Y-94989859D01*
X155815512Y-95085000D01*
X155815506Y-95085003D01*
X155605404Y-95213752D01*
X156324197Y-95932544D01*
X156303425Y-95938110D01*
X156166735Y-96017028D01*
X156055128Y-96128635D01*
X155976210Y-96265325D01*
X155970644Y-96286096D01*
X155251852Y-95567304D01*
X155123103Y-95777406D01*
X155123100Y-95777412D01*
X155027959Y-96007102D01*
X154969921Y-96248850D01*
X154950416Y-96496700D01*
X154969921Y-96744549D01*
X155027959Y-96986297D01*
X155123103Y-97215995D01*
X155251852Y-97426094D01*
X155970644Y-96707302D01*
X155976210Y-96728075D01*
X156055128Y-96864765D01*
X156166735Y-96976372D01*
X156303425Y-97055290D01*
X156324196Y-97060855D01*
X155605404Y-97779646D01*
X155815504Y-97908396D01*
X156045202Y-98003540D01*
X156286951Y-98061578D01*
X156286950Y-98061578D01*
X156534800Y-98081083D01*
X156782649Y-98061578D01*
X157024396Y-98003540D01*
X157254100Y-97908393D01*
X157464194Y-97779646D01*
X156745402Y-97060855D01*
X156766175Y-97055290D01*
X156902865Y-96976372D01*
X157014472Y-96864765D01*
X157093390Y-96728075D01*
X157098955Y-96707302D01*
X157771261Y-97379608D01*
X157804746Y-97440931D01*
X157807580Y-97467289D01*
X157807580Y-100899982D01*
X157787895Y-100967021D01*
X157771261Y-100987663D01*
X156579116Y-102179807D01*
X156517793Y-102213292D01*
X156448101Y-102208308D01*
X156392168Y-102166436D01*
X156379053Y-102144531D01*
X156354728Y-102092366D01*
X156224207Y-101905961D01*
X156224205Y-101905958D01*
X156063301Y-101745054D01*
X155876894Y-101614532D01*
X155876892Y-101614531D01*
X155670657Y-101518361D01*
X155670648Y-101518358D01*
X155450857Y-101459466D01*
X155450853Y-101459465D01*
X155450852Y-101459465D01*
X155450851Y-101459464D01*
X155450846Y-101459464D01*
X155224162Y-101439632D01*
X155224158Y-101439632D01*
X154997473Y-101459464D01*
X154997462Y-101459466D01*
X154777671Y-101518358D01*
X154777662Y-101518361D01*
X154571427Y-101614531D01*
X154571425Y-101614532D01*
X154385018Y-101745054D01*
X154224114Y-101905958D01*
X154093592Y-102092365D01*
X154093591Y-102092367D01*
X153997421Y-102298602D01*
X153997418Y-102298611D01*
X153938526Y-102518402D01*
X153938524Y-102518413D01*
X153918692Y-102745098D01*
X153918692Y-102745101D01*
X153938524Y-102971786D01*
X153938526Y-102971797D01*
X153964312Y-103068031D01*
X153962649Y-103137881D01*
X153932220Y-103187803D01*
X153911745Y-103208279D01*
X153850423Y-103241766D01*
X153824062Y-103244600D01*
X151016137Y-103244600D01*
X150949098Y-103224915D01*
X150903343Y-103172111D01*
X150893399Y-103102953D01*
X150896362Y-103088507D01*
X150924217Y-102984547D01*
X150927635Y-102971792D01*
X150947468Y-102745100D01*
X150927635Y-102518408D01*
X150868739Y-102298604D01*
X150772568Y-102092366D01*
X150642047Y-101905961D01*
X150642045Y-101905958D01*
X150481141Y-101745054D01*
X150294734Y-101614532D01*
X150294732Y-101614531D01*
X150088497Y-101518361D01*
X150088488Y-101518358D01*
X149868697Y-101459466D01*
X149868693Y-101459465D01*
X149868692Y-101459465D01*
X149868691Y-101459464D01*
X149868686Y-101459464D01*
X149642002Y-101439632D01*
X149641998Y-101439632D01*
X149415313Y-101459464D01*
X149415302Y-101459466D01*
X149195511Y-101518358D01*
X149195502Y-101518361D01*
X148989267Y-101614531D01*
X148989265Y-101614532D01*
X148802858Y-101745054D01*
X148641954Y-101905958D01*
X148511432Y-102092365D01*
X148511431Y-102092367D01*
X148415261Y-102298602D01*
X148415258Y-102298611D01*
X148356366Y-102518402D01*
X148356364Y-102518413D01*
X148336532Y-102745098D01*
X148336532Y-102745101D01*
X148356364Y-102971786D01*
X148356366Y-102971797D01*
X148387638Y-103088507D01*
X148385975Y-103158357D01*
X148346812Y-103216219D01*
X148282583Y-103243723D01*
X148267863Y-103244600D01*
X143422097Y-103244600D01*
X143355058Y-103224915D01*
X143334416Y-103208281D01*
X143313941Y-103187806D01*
X143280456Y-103126483D01*
X143281847Y-103068031D01*
X143304217Y-102984547D01*
X143307635Y-102971792D01*
X143327468Y-102745100D01*
X143307635Y-102518408D01*
X143248739Y-102298604D01*
X143152568Y-102092366D01*
X143022047Y-101905961D01*
X143022045Y-101905958D01*
X142861141Y-101745054D01*
X142674734Y-101614532D01*
X142674732Y-101614531D01*
X142468497Y-101518361D01*
X142468488Y-101518358D01*
X142248697Y-101459466D01*
X142248693Y-101459465D01*
X142248692Y-101459465D01*
X142248691Y-101459464D01*
X142248686Y-101459464D01*
X142022002Y-101439632D01*
X142021998Y-101439632D01*
X141795313Y-101459464D01*
X141795302Y-101459466D01*
X141575511Y-101518358D01*
X141575502Y-101518362D01*
X141384902Y-101607240D01*
X141315824Y-101617732D01*
X141252040Y-101589212D01*
X141213801Y-101530735D01*
X141213247Y-101460868D01*
X141244814Y-101407179D01*
X146155296Y-96496700D01*
X146746474Y-96496700D01*
X146765987Y-96744634D01*
X146824044Y-96986459D01*
X146919215Y-97216223D01*
X147049156Y-97428268D01*
X147049157Y-97428270D01*
X147049160Y-97428273D01*
X147210676Y-97617384D01*
X147357066Y-97742413D01*
X147399789Y-97778902D01*
X147399791Y-97778903D01*
X147611836Y-97908844D01*
X147841600Y-98004015D01*
X147841601Y-98004015D01*
X147841603Y-98004016D01*
X148083429Y-98062073D01*
X148331360Y-98081586D01*
X148579291Y-98062073D01*
X148821117Y-98004016D01*
X149050883Y-97908844D01*
X149262933Y-97778900D01*
X149452044Y-97617384D01*
X149613560Y-97428273D01*
X149743504Y-97216223D01*
X149838676Y-96986457D01*
X149896733Y-96744631D01*
X149916246Y-96496700D01*
X149896733Y-96248769D01*
X149838676Y-96006943D01*
X149810171Y-95938125D01*
X149743504Y-95777176D01*
X149613563Y-95565131D01*
X149613562Y-95565129D01*
X149577073Y-95522406D01*
X149452044Y-95376016D01*
X149296428Y-95243107D01*
X149262930Y-95214497D01*
X149262928Y-95214496D01*
X149050883Y-95084555D01*
X148821119Y-94989384D01*
X148579294Y-94931327D01*
X148331360Y-94911814D01*
X148083425Y-94931327D01*
X147841600Y-94989384D01*
X147611836Y-95084555D01*
X147399791Y-95214496D01*
X147399789Y-95214497D01*
X147210676Y-95376016D01*
X147049157Y-95565129D01*
X147049156Y-95565131D01*
X146919215Y-95777176D01*
X146824044Y-96006940D01*
X146765987Y-96248765D01*
X146746474Y-96496700D01*
X146155296Y-96496700D01*
X146312520Y-96339476D01*
X146391577Y-96202544D01*
X146432501Y-96049817D01*
X146432501Y-95891702D01*
X146432501Y-95884107D01*
X146432500Y-95884089D01*
X146432500Y-93620596D01*
X146452185Y-93553557D01*
X146483614Y-93520278D01*
X146487403Y-93517524D01*
X146487405Y-93517524D01*
X146646646Y-93401828D01*
X146744319Y-93304155D01*
X146805642Y-93270670D01*
X146875334Y-93275654D01*
X146919681Y-93304155D01*
X147017354Y-93401828D01*
X147176595Y-93517524D01*
X147246704Y-93553246D01*
X147351970Y-93606882D01*
X147351972Y-93606882D01*
X147351975Y-93606884D01*
X147452317Y-93639487D01*
X147539173Y-93667709D01*
X147733578Y-93698500D01*
X147733583Y-93698500D01*
X147930422Y-93698500D01*
X148124826Y-93667709D01*
X148312025Y-93606884D01*
X148487405Y-93517524D01*
X148487409Y-93517520D01*
X148491087Y-93515647D01*
X148559756Y-93502751D01*
X148624497Y-93529027D01*
X148647699Y-93553245D01*
X148711207Y-93640656D01*
X148711209Y-93640658D01*
X148889345Y-93818794D01*
X148889350Y-93818798D01*
X149067117Y-93947952D01*
X149093155Y-93966870D01*
X149236184Y-94039747D01*
X149317616Y-94081239D01*
X149317618Y-94081239D01*
X149317621Y-94081241D01*
X149557215Y-94159090D01*
X149806038Y-94198500D01*
X149806039Y-94198500D01*
X150057961Y-94198500D01*
X150057962Y-94198500D01*
X150306785Y-94159090D01*
X150546379Y-94081241D01*
X150770845Y-93966870D01*
X150974656Y-93818793D01*
X151152793Y-93640656D01*
X151300870Y-93436845D01*
X151415241Y-93212379D01*
X151493090Y-92972785D01*
X151532500Y-92723962D01*
X151532500Y-91172038D01*
X151493090Y-90923215D01*
X151415241Y-90683621D01*
X151415239Y-90683618D01*
X151415239Y-90683616D01*
X151368479Y-90591845D01*
X151300870Y-90459155D01*
X151247298Y-90385419D01*
X151152798Y-90255350D01*
X151152794Y-90255345D01*
X150974654Y-90077205D01*
X150974649Y-90077201D01*
X150770848Y-89929132D01*
X150770847Y-89929131D01*
X150770845Y-89929130D01*
X150700747Y-89893413D01*
X150546383Y-89814760D01*
X150306785Y-89736910D01*
X150057962Y-89697500D01*
X149806038Y-89697500D01*
X149681626Y-89717205D01*
X149557214Y-89736910D01*
X149317616Y-89814760D01*
X149093151Y-89929132D01*
X148889350Y-90077201D01*
X148889345Y-90077205D01*
X148711209Y-90255341D01*
X148711202Y-90255350D01*
X148647699Y-90342753D01*
X148592369Y-90385419D01*
X148522756Y-90391397D01*
X148491087Y-90380352D01*
X148312029Y-90289117D01*
X148124826Y-90228290D01*
X147930422Y-90197500D01*
X147930417Y-90197500D01*
X147733583Y-90197500D01*
X147733578Y-90197500D01*
X147539173Y-90228290D01*
X147351970Y-90289117D01*
X147176594Y-90378476D01*
X147107666Y-90428556D01*
X147017354Y-90494172D01*
X147017352Y-90494174D01*
X147017351Y-90494174D01*
X146919681Y-90591845D01*
X146858358Y-90625330D01*
X146788666Y-90620346D01*
X146744319Y-90591845D01*
X146646648Y-90494174D01*
X146646646Y-90494172D01*
X146487405Y-90378476D01*
X146312029Y-90289117D01*
X146124826Y-90228290D01*
X145930422Y-90197500D01*
X145930417Y-90197500D01*
X145733583Y-90197500D01*
X145733578Y-90197500D01*
X145539173Y-90228290D01*
X145351970Y-90289117D01*
X145176593Y-90378477D01*
X145176585Y-90378482D01*
X145139980Y-90405077D01*
X145074173Y-90428556D01*
X145006119Y-90412730D01*
X144967830Y-90379070D01*
X144939187Y-90340809D01*
X144824093Y-90254649D01*
X144824086Y-90254645D01*
X144689379Y-90204403D01*
X144689372Y-90204401D01*
X144629844Y-90198000D01*
X144082000Y-90198000D01*
X144082000Y-91632314D01*
X144077606Y-91627920D01*
X143986394Y-91575259D01*
X143884661Y-91548000D01*
X143779339Y-91548000D01*
X143677606Y-91575259D01*
X143586394Y-91627920D01*
X143582000Y-91632314D01*
X143582000Y-90198000D01*
X143034172Y-90198000D01*
X143034153Y-90198001D01*
X142967901Y-90205124D01*
X142899142Y-90192719D01*
X142866965Y-90169516D01*
X142774654Y-90077205D01*
X142774649Y-90077201D01*
X142570848Y-89929132D01*
X142570847Y-89929131D01*
X142570845Y-89929130D01*
X142500747Y-89893413D01*
X142346383Y-89814760D01*
X142106785Y-89736910D01*
X141857962Y-89697500D01*
X141606038Y-89697500D01*
X141481626Y-89717205D01*
X141357214Y-89736910D01*
X141117616Y-89814760D01*
X140893151Y-89929132D01*
X140689350Y-90077201D01*
X140689345Y-90077205D01*
X140511205Y-90255345D01*
X140511201Y-90255350D01*
X140363132Y-90459151D01*
X140248760Y-90683616D01*
X140170910Y-90923214D01*
X140131500Y-91172038D01*
X140131500Y-92723961D01*
X140170910Y-92972785D01*
X140248760Y-93212383D01*
X140280999Y-93275654D01*
X140345286Y-93401825D01*
X140363132Y-93436848D01*
X140511201Y-93640649D01*
X140511205Y-93640654D01*
X140689345Y-93818794D01*
X140689350Y-93818798D01*
X140867117Y-93947952D01*
X140893155Y-93966870D01*
X141036184Y-94039747D01*
X141117616Y-94081239D01*
X141117618Y-94081239D01*
X141117621Y-94081241D01*
X141357215Y-94159090D01*
X141606038Y-94198500D01*
X141606039Y-94198500D01*
X141857961Y-94198500D01*
X141857962Y-94198500D01*
X142106785Y-94159090D01*
X142346379Y-94081241D01*
X142570845Y-93966870D01*
X142774656Y-93818793D01*
X142866968Y-93726480D01*
X142928287Y-93692998D01*
X142967903Y-93690875D01*
X143034158Y-93697999D01*
X143034172Y-93698000D01*
X143582000Y-93698000D01*
X143582000Y-92263686D01*
X143586394Y-92268080D01*
X143677606Y-92320741D01*
X143779339Y-92348000D01*
X143884661Y-92348000D01*
X143986394Y-92320741D01*
X144077606Y-92268080D01*
X144082000Y-92263686D01*
X144082000Y-93698000D01*
X144629828Y-93698000D01*
X144629844Y-93697999D01*
X144689372Y-93691598D01*
X144689379Y-93691596D01*
X144824086Y-93641354D01*
X144824093Y-93641350D01*
X144939186Y-93555190D01*
X144967829Y-93516930D01*
X145023763Y-93475059D01*
X145093455Y-93470075D01*
X145139981Y-93490923D01*
X145180385Y-93520278D01*
X145223051Y-93575607D01*
X145231500Y-93620596D01*
X145231500Y-95670661D01*
X145211815Y-95737700D01*
X145195181Y-95758342D01*
X145002026Y-95951496D01*
X144940703Y-95984981D01*
X144871011Y-95979997D01*
X144815078Y-95938125D01*
X144799784Y-95911268D01*
X144744336Y-95777404D01*
X144615586Y-95567304D01*
X143896795Y-96286096D01*
X143891230Y-96265325D01*
X143812312Y-96128635D01*
X143700705Y-96017028D01*
X143564015Y-95938110D01*
X143543243Y-95932544D01*
X144262034Y-95213752D01*
X144051935Y-95085003D01*
X143822237Y-94989859D01*
X143580488Y-94931821D01*
X143580489Y-94931821D01*
X143332640Y-94912316D01*
X143084790Y-94931821D01*
X142843042Y-94989859D01*
X142613352Y-95085000D01*
X142613346Y-95085003D01*
X142403244Y-95213752D01*
X143122037Y-95932544D01*
X143101265Y-95938110D01*
X142964575Y-96017028D01*
X142852968Y-96128635D01*
X142774050Y-96265325D01*
X142768484Y-96286096D01*
X142049692Y-95567304D01*
X141920943Y-95777406D01*
X141920940Y-95777412D01*
X141825799Y-96007102D01*
X141767761Y-96248850D01*
X141748256Y-96496700D01*
X141767761Y-96744549D01*
X141825799Y-96986297D01*
X141920943Y-97215995D01*
X142049692Y-97426094D01*
X142768484Y-96707302D01*
X142774050Y-96728075D01*
X142852968Y-96864765D01*
X142964575Y-96976372D01*
X143101265Y-97055290D01*
X143122036Y-97060855D01*
X142403244Y-97779646D01*
X142613344Y-97908396D01*
X142747208Y-97963844D01*
X142801611Y-98007685D01*
X142823676Y-98073979D01*
X142806397Y-98141678D01*
X142787436Y-98166086D01*
X139945244Y-101008281D01*
X139883921Y-101041766D01*
X139857563Y-101044600D01*
X128682087Y-101044600D01*
X128615048Y-101024915D01*
X128569293Y-100972111D01*
X128559349Y-100902953D01*
X128588374Y-100839397D01*
X128594405Y-100832919D01*
X128606434Y-100820890D01*
X128680348Y-100746976D01*
X128680348Y-100746974D01*
X128690556Y-100736767D01*
X128690558Y-100736764D01*
X133374653Y-96052668D01*
X133435974Y-96019185D01*
X133505666Y-96024169D01*
X133561599Y-96066041D01*
X133586016Y-96131505D01*
X133582906Y-96169297D01*
X133574924Y-96202545D01*
X133563827Y-96248769D01*
X133556689Y-96339469D01*
X133544314Y-96496700D01*
X133563827Y-96744634D01*
X133621884Y-96986459D01*
X133717055Y-97216223D01*
X133846996Y-97428268D01*
X133846997Y-97428270D01*
X133847000Y-97428273D01*
X134008516Y-97617384D01*
X134154906Y-97742413D01*
X134197629Y-97778902D01*
X134197631Y-97778903D01*
X134409676Y-97908844D01*
X134639440Y-98004015D01*
X134639441Y-98004015D01*
X134639443Y-98004016D01*
X134881269Y-98062073D01*
X135129200Y-98081586D01*
X135377131Y-98062073D01*
X135618957Y-98004016D01*
X135848723Y-97908844D01*
X136060773Y-97778900D01*
X136249884Y-97617384D01*
X136411400Y-97428273D01*
X136541344Y-97216223D01*
X136636516Y-96986457D01*
X136694573Y-96744631D01*
X136714086Y-96496700D01*
X136694573Y-96248769D01*
X136636516Y-96006943D01*
X136608011Y-95938125D01*
X136541344Y-95777176D01*
X136411403Y-95565131D01*
X136411402Y-95565129D01*
X136374913Y-95522406D01*
X136249884Y-95376016D01*
X136094268Y-95243107D01*
X136060770Y-95214497D01*
X136060768Y-95214496D01*
X135848723Y-95084555D01*
X135618959Y-94989384D01*
X135377134Y-94931327D01*
X135129200Y-94911814D01*
X134881265Y-94931327D01*
X134639440Y-94989384D01*
X134409676Y-95084555D01*
X134197631Y-95214496D01*
X134197629Y-95214497D01*
X134060953Y-95331231D01*
X133997191Y-95359802D01*
X133928106Y-95349365D01*
X133875630Y-95303234D01*
X133859886Y-95248900D01*
X133857179Y-95249201D01*
X133857178Y-95249192D01*
X133856518Y-95237277D01*
X133856421Y-95236941D01*
X133856421Y-95235516D01*
X133856420Y-95235498D01*
X133856420Y-93620596D01*
X133876105Y-93553557D01*
X133907534Y-93520278D01*
X133911323Y-93517524D01*
X133911325Y-93517524D01*
X134070566Y-93401828D01*
X134168239Y-93304155D01*
X134229562Y-93270670D01*
X134299254Y-93275654D01*
X134343601Y-93304155D01*
X134441274Y-93401828D01*
X134600515Y-93517524D01*
X134670624Y-93553246D01*
X134775890Y-93606882D01*
X134775892Y-93606882D01*
X134775895Y-93606884D01*
X134876237Y-93639487D01*
X134963093Y-93667709D01*
X135157498Y-93698500D01*
X135157503Y-93698500D01*
X135354342Y-93698500D01*
X135548746Y-93667709D01*
X135735945Y-93606884D01*
X135911325Y-93517524D01*
X135911329Y-93517520D01*
X135915007Y-93515647D01*
X135983676Y-93502751D01*
X136048417Y-93529027D01*
X136071619Y-93553245D01*
X136135127Y-93640656D01*
X136135129Y-93640658D01*
X136313265Y-93818794D01*
X136313270Y-93818798D01*
X136491037Y-93947952D01*
X136517075Y-93966870D01*
X136660104Y-94039747D01*
X136741536Y-94081239D01*
X136741538Y-94081239D01*
X136741541Y-94081241D01*
X136981135Y-94159090D01*
X137229958Y-94198500D01*
X137229959Y-94198500D01*
X137481881Y-94198500D01*
X137481882Y-94198500D01*
X137730705Y-94159090D01*
X137970299Y-94081241D01*
X138194765Y-93966870D01*
X138398576Y-93818793D01*
X138576713Y-93640656D01*
X138724790Y-93436845D01*
X138839161Y-93212379D01*
X138917010Y-92972785D01*
X138956420Y-92723962D01*
X138956420Y-91172038D01*
X138917010Y-90923215D01*
X138839161Y-90683621D01*
X138839159Y-90683618D01*
X138839159Y-90683616D01*
X138792399Y-90591845D01*
X138724790Y-90459155D01*
X138671218Y-90385419D01*
X138576718Y-90255350D01*
X138576714Y-90255345D01*
X138398574Y-90077205D01*
X138398569Y-90077201D01*
X138194768Y-89929132D01*
X138194767Y-89929131D01*
X138194765Y-89929130D01*
X138124667Y-89893413D01*
X137970303Y-89814760D01*
X137730705Y-89736910D01*
X137481882Y-89697500D01*
X137229958Y-89697500D01*
X137105546Y-89717205D01*
X136981134Y-89736910D01*
X136741536Y-89814760D01*
X136517071Y-89929132D01*
X136313270Y-90077201D01*
X136313265Y-90077205D01*
X136135129Y-90255341D01*
X136135122Y-90255350D01*
X136071619Y-90342753D01*
X136016289Y-90385419D01*
X135946676Y-90391397D01*
X135915007Y-90380352D01*
X135735949Y-90289117D01*
X135548746Y-90228290D01*
X135354342Y-90197500D01*
X135354337Y-90197500D01*
X135157503Y-90197500D01*
X135157498Y-90197500D01*
X134963093Y-90228290D01*
X134775890Y-90289117D01*
X134600514Y-90378476D01*
X134531586Y-90428556D01*
X134441274Y-90494172D01*
X134441272Y-90494174D01*
X134441271Y-90494174D01*
X134343601Y-90591845D01*
X134282278Y-90625330D01*
X134212586Y-90620346D01*
X134168239Y-90591845D01*
X134070568Y-90494174D01*
X134070566Y-90494172D01*
X133911325Y-90378476D01*
X133735949Y-90289117D01*
X133548746Y-90228290D01*
X133354342Y-90197500D01*
X133354337Y-90197500D01*
X133157503Y-90197500D01*
X133157498Y-90197500D01*
X132963093Y-90228290D01*
X132775890Y-90289117D01*
X132600513Y-90378477D01*
X132600505Y-90378482D01*
X132563900Y-90405077D01*
X132498093Y-90428556D01*
X132430039Y-90412730D01*
X132391750Y-90379070D01*
X132363107Y-90340809D01*
X132248013Y-90254649D01*
X132248006Y-90254645D01*
X132113299Y-90204403D01*
X132113292Y-90204401D01*
X132053764Y-90198000D01*
X131505920Y-90198000D01*
X131505920Y-91632314D01*
X131501526Y-91627920D01*
X131410314Y-91575259D01*
X131308581Y-91548000D01*
X131203259Y-91548000D01*
X131101526Y-91575259D01*
X131010314Y-91627920D01*
X131005920Y-91632314D01*
X131005920Y-90198000D01*
X130458092Y-90198000D01*
X130458073Y-90198001D01*
X130391821Y-90205124D01*
X130323062Y-90192719D01*
X130290885Y-90169516D01*
X130198574Y-90077205D01*
X130198569Y-90077201D01*
X129994768Y-89929132D01*
X129994767Y-89929131D01*
X129994765Y-89929130D01*
X129924667Y-89893413D01*
X129770303Y-89814760D01*
X129530705Y-89736910D01*
X129281882Y-89697500D01*
X129029958Y-89697500D01*
X128905546Y-89717205D01*
X128781134Y-89736910D01*
X128541536Y-89814760D01*
X128317071Y-89929132D01*
X128113270Y-90077201D01*
X128113265Y-90077205D01*
X127935125Y-90255345D01*
X127935121Y-90255350D01*
X127787052Y-90459151D01*
X127672680Y-90683616D01*
X127594830Y-90923214D01*
X127555420Y-91172038D01*
X127555420Y-92723961D01*
X127594830Y-92972785D01*
X127672680Y-93212383D01*
X127704919Y-93275654D01*
X127769206Y-93401825D01*
X127787052Y-93436848D01*
X127935121Y-93640649D01*
X127935125Y-93640654D01*
X128113265Y-93818794D01*
X128113270Y-93818798D01*
X128291037Y-93947952D01*
X128317075Y-93966870D01*
X128460104Y-94039747D01*
X128541536Y-94081239D01*
X128541538Y-94081239D01*
X128541541Y-94081241D01*
X128781135Y-94159090D01*
X129029958Y-94198500D01*
X129029959Y-94198500D01*
X129281881Y-94198500D01*
X129281882Y-94198500D01*
X129530705Y-94159090D01*
X129770299Y-94081241D01*
X129994765Y-93966870D01*
X130198576Y-93818793D01*
X130290888Y-93726480D01*
X130352207Y-93692998D01*
X130391823Y-93690875D01*
X130458078Y-93697999D01*
X130458092Y-93698000D01*
X131005920Y-93698000D01*
X131005920Y-92263686D01*
X131010314Y-92268080D01*
X131101526Y-92320741D01*
X131203259Y-92348000D01*
X131308581Y-92348000D01*
X131410314Y-92320741D01*
X131501526Y-92268080D01*
X131505920Y-92263686D01*
X131505920Y-93698000D01*
X132053748Y-93698000D01*
X132053764Y-93697999D01*
X132113292Y-93691598D01*
X132113299Y-93691596D01*
X132248006Y-93641354D01*
X132248013Y-93641350D01*
X132363106Y-93555190D01*
X132391749Y-93516930D01*
X132447683Y-93475059D01*
X132517375Y-93470075D01*
X132563901Y-93490923D01*
X132604305Y-93520278D01*
X132646971Y-93575607D01*
X132655420Y-93620596D01*
X132655420Y-95022070D01*
X132635735Y-95089109D01*
X132619101Y-95109751D01*
X131793273Y-95935578D01*
X131731950Y-95969063D01*
X131662258Y-95964079D01*
X131606325Y-95922207D01*
X131591031Y-95895350D01*
X131542176Y-95777404D01*
X131413426Y-95567304D01*
X130694635Y-96286096D01*
X130689070Y-96265325D01*
X130610152Y-96128635D01*
X130498545Y-96017028D01*
X130361855Y-95938110D01*
X130341083Y-95932544D01*
X131059874Y-95213752D01*
X130849775Y-95085003D01*
X130620077Y-94989859D01*
X130378328Y-94931821D01*
X130378329Y-94931821D01*
X130130480Y-94912316D01*
X129882630Y-94931821D01*
X129640882Y-94989859D01*
X129411192Y-95085000D01*
X129411186Y-95085003D01*
X129201084Y-95213752D01*
X129919877Y-95932544D01*
X129899105Y-95938110D01*
X129762415Y-96017028D01*
X129650808Y-96128635D01*
X129571890Y-96265325D01*
X129566324Y-96286096D01*
X128847532Y-95567304D01*
X128718783Y-95777406D01*
X128718780Y-95777412D01*
X128623639Y-96007102D01*
X128565601Y-96248850D01*
X128546096Y-96496700D01*
X128565601Y-96744549D01*
X128623639Y-96986297D01*
X128718783Y-97215995D01*
X128847532Y-97426094D01*
X129566324Y-96707302D01*
X129571890Y-96728075D01*
X129650808Y-96864765D01*
X129762415Y-96976372D01*
X129899105Y-97055290D01*
X129919876Y-97060855D01*
X129201084Y-97779646D01*
X129411184Y-97908396D01*
X129529130Y-97957251D01*
X129583533Y-98001092D01*
X129605598Y-98067386D01*
X129588319Y-98135086D01*
X129569358Y-98159493D01*
X127987412Y-99741441D01*
X127926089Y-99774926D01*
X127899731Y-99777760D01*
X124013819Y-99777760D01*
X123946780Y-99758075D01*
X123903335Y-99710055D01*
X123883152Y-99670445D01*
X123883151Y-99670444D01*
X123758209Y-99498473D01*
X123619394Y-99359658D01*
X123585909Y-99298335D01*
X123590893Y-99228643D01*
X123632765Y-99172710D01*
X123641979Y-99166438D01*
X123647431Y-99163074D01*
X123647434Y-99163074D01*
X123796756Y-99070972D01*
X123920812Y-98946916D01*
X124012914Y-98797594D01*
X124068099Y-98631057D01*
X124078600Y-98528269D01*
X124078599Y-97228252D01*
X124068099Y-97125463D01*
X124012914Y-96958926D01*
X123920812Y-96809604D01*
X123796756Y-96685548D01*
X123647434Y-96593446D01*
X123480897Y-96538261D01*
X123480895Y-96538260D01*
X123378110Y-96527760D01*
X121828098Y-96527760D01*
X121828081Y-96527761D01*
X121725303Y-96538260D01*
X121725300Y-96538261D01*
X121558768Y-96593445D01*
X121558763Y-96593447D01*
X121409442Y-96685549D01*
X121285389Y-96809602D01*
X121193287Y-96958923D01*
X121193286Y-96958926D01*
X121138101Y-97125463D01*
X121138101Y-97125464D01*
X121138100Y-97125464D01*
X121127600Y-97228243D01*
X121127600Y-98528261D01*
X121127601Y-98528278D01*
X121138100Y-98631056D01*
X121138101Y-98631059D01*
X121193285Y-98797591D01*
X121193287Y-98797596D01*
X121285389Y-98946917D01*
X121409444Y-99070972D01*
X121564220Y-99166438D01*
X121610945Y-99218386D01*
X121622168Y-99287348D01*
X121594324Y-99351431D01*
X121586806Y-99359658D01*
X121447989Y-99498475D01*
X121323051Y-99670439D01*
X121226544Y-99859845D01*
X121160853Y-100062020D01*
X121127600Y-100271973D01*
X121127600Y-100484547D01*
X121160854Y-100694503D01*
X121205828Y-100832919D01*
X121226544Y-100896674D01*
X121323051Y-101086080D01*
X121447990Y-101258046D01*
X121598309Y-101408365D01*
X121598314Y-101408369D01*
X121762893Y-101527942D01*
X121805559Y-101583271D01*
X121811538Y-101652885D01*
X121778933Y-101714680D01*
X121762893Y-101728578D01*
X121598314Y-101848150D01*
X121598309Y-101848154D01*
X121447990Y-101998473D01*
X121323051Y-102170439D01*
X121226544Y-102359845D01*
X121226543Y-102359847D01*
X121226543Y-102359848D01*
X121212947Y-102401693D01*
X121160853Y-102562020D01*
X121127600Y-102771973D01*
X121127600Y-102984546D01*
X121160394Y-103191602D01*
X121160854Y-103194503D01*
X121224843Y-103391441D01*
X121226544Y-103396674D01*
X121323051Y-103586080D01*
X121447990Y-103758046D01*
X121598309Y-103908365D01*
X121598314Y-103908369D01*
X121762893Y-104027942D01*
X121805559Y-104083271D01*
X121811538Y-104152885D01*
X121778933Y-104214680D01*
X121762893Y-104228578D01*
X121598314Y-104348150D01*
X121598309Y-104348154D01*
X121447990Y-104498473D01*
X121323051Y-104670439D01*
X121226544Y-104859845D01*
X121160853Y-105062020D01*
X121127600Y-105271973D01*
X121127600Y-105484547D01*
X119929600Y-105484547D01*
X119929600Y-91558748D01*
X121743200Y-91558748D01*
X121774861Y-91799245D01*
X121837647Y-92033564D01*
X121903939Y-92193606D01*
X121930476Y-92257672D01*
X122051764Y-92467749D01*
X122051766Y-92467752D01*
X122051767Y-92467753D01*
X122199433Y-92660196D01*
X122199439Y-92660203D01*
X122370956Y-92831720D01*
X122370962Y-92831725D01*
X122563411Y-92979396D01*
X122773488Y-93100684D01*
X122997600Y-93193514D01*
X123231911Y-93256298D01*
X123412286Y-93280044D01*
X123472411Y-93287960D01*
X123472412Y-93287960D01*
X123714989Y-93287960D01*
X123763088Y-93281627D01*
X123955489Y-93256298D01*
X124189800Y-93193514D01*
X124413912Y-93100684D01*
X124623989Y-92979396D01*
X124816438Y-92831725D01*
X124987965Y-92660198D01*
X125135636Y-92467749D01*
X125256924Y-92257672D01*
X125349754Y-92033560D01*
X125412538Y-91799249D01*
X125444200Y-91558748D01*
X125444200Y-91316172D01*
X125412538Y-91075671D01*
X125349754Y-90841360D01*
X125256924Y-90617248D01*
X125135636Y-90407171D01*
X124987965Y-90214722D01*
X124987960Y-90214716D01*
X124816443Y-90043199D01*
X124816436Y-90043193D01*
X124623993Y-89895527D01*
X124623992Y-89895526D01*
X124623989Y-89895524D01*
X124413912Y-89774236D01*
X124413905Y-89774233D01*
X124189804Y-89681407D01*
X123955485Y-89618621D01*
X123714989Y-89586960D01*
X123714988Y-89586960D01*
X123472412Y-89586960D01*
X123472411Y-89586960D01*
X123231914Y-89618621D01*
X122997595Y-89681407D01*
X122773494Y-89774233D01*
X122773485Y-89774237D01*
X122563406Y-89895527D01*
X122370963Y-90043193D01*
X122370956Y-90043199D01*
X122199439Y-90214716D01*
X122199433Y-90214723D01*
X122051767Y-90407166D01*
X121930477Y-90617245D01*
X121930473Y-90617254D01*
X121837647Y-90841355D01*
X121774861Y-91075674D01*
X121743200Y-91316171D01*
X121743200Y-91558748D01*
X119929600Y-91558748D01*
X119929600Y-88471360D01*
X119949285Y-88404321D01*
X120002089Y-88358566D01*
X120053600Y-88347360D01*
X171804600Y-88347360D01*
X171871639Y-88367045D01*
G37*
%TD.AperFunction*%
%TD*%
M02*
