%TF.GenerationSoftware,KiCad,Pcbnew,8.0.1*%
%TF.CreationDate,2024-04-28T18:53:44+02:00*%
%TF.ProjectId,SwitchesModule,53776974-6368-4657-934d-6f64756c652e,v0.1*%
%TF.SameCoordinates,Original*%
%TF.FileFunction,Legend,Bot*%
%TF.FilePolarity,Positive*%
%FSLAX46Y46*%
G04 Gerber Fmt 4.6, Leading zero omitted, Abs format (unit mm)*
G04 Created by KiCad (PCBNEW 8.0.1) date 2024-04-28 18:53:44*
%MOMM*%
%LPD*%
G01*
G04 APERTURE LIST*
G04 Aperture macros list*
%AMRoundRect*
0 Rectangle with rounded corners*
0 $1 Rounding radius*
0 $2 $3 $4 $5 $6 $7 $8 $9 X,Y pos of 4 corners*
0 Add a 4 corners polygon primitive as box body*
4,1,4,$2,$3,$4,$5,$6,$7,$8,$9,$2,$3,0*
0 Add four circle primitives for the rounded corners*
1,1,$1+$1,$2,$3*
1,1,$1+$1,$4,$5*
1,1,$1+$1,$6,$7*
1,1,$1+$1,$8,$9*
0 Add four rect primitives between the rounded corners*
20,1,$1+$1,$2,$3,$4,$5,0*
20,1,$1+$1,$4,$5,$6,$7,0*
20,1,$1+$1,$6,$7,$8,$9,0*
20,1,$1+$1,$8,$9,$2,$3,0*%
G04 Aperture macros list end*
%ADD10C,0.100000*%
%ADD11C,0.150000*%
%ADD12C,0.120000*%
%ADD13C,2.362200*%
%ADD14O,2.200000X3.500000*%
%ADD15R,1.500000X2.500000*%
%ADD16O,1.500000X2.500000*%
%ADD17C,3.200000*%
%ADD18C,1.600000*%
%ADD19O,1.600000X1.600000*%
%ADD20RoundRect,0.250000X0.725000X-0.600000X0.725000X0.600000X-0.725000X0.600000X-0.725000X-0.600000X0*%
%ADD21O,1.950000X1.700000*%
%ADD22RoundRect,0.250000X-0.725000X0.600000X-0.725000X-0.600000X0.725000X-0.600000X0.725000X0.600000X0*%
G04 APERTURE END LIST*
D10*
X127653459Y-105635160D02*
X127582031Y-105658969D01*
X127582031Y-105658969D02*
X127462983Y-105658969D01*
X127462983Y-105658969D02*
X127415364Y-105635160D01*
X127415364Y-105635160D02*
X127391555Y-105611350D01*
X127391555Y-105611350D02*
X127367745Y-105563731D01*
X127367745Y-105563731D02*
X127367745Y-105516112D01*
X127367745Y-105516112D02*
X127391555Y-105468493D01*
X127391555Y-105468493D02*
X127415364Y-105444683D01*
X127415364Y-105444683D02*
X127462983Y-105420874D01*
X127462983Y-105420874D02*
X127558221Y-105397064D01*
X127558221Y-105397064D02*
X127605840Y-105373255D01*
X127605840Y-105373255D02*
X127629650Y-105349445D01*
X127629650Y-105349445D02*
X127653459Y-105301826D01*
X127653459Y-105301826D02*
X127653459Y-105254207D01*
X127653459Y-105254207D02*
X127629650Y-105206588D01*
X127629650Y-105206588D02*
X127605840Y-105182779D01*
X127605840Y-105182779D02*
X127558221Y-105158969D01*
X127558221Y-105158969D02*
X127439174Y-105158969D01*
X127439174Y-105158969D02*
X127367745Y-105182779D01*
X127201079Y-105158969D02*
X127082031Y-105658969D01*
X127082031Y-105658969D02*
X126986793Y-105301826D01*
X126986793Y-105301826D02*
X126891555Y-105658969D01*
X126891555Y-105658969D02*
X126772508Y-105158969D01*
X126367745Y-105158969D02*
X126462983Y-105158969D01*
X126462983Y-105158969D02*
X126510602Y-105182779D01*
X126510602Y-105182779D02*
X126534412Y-105206588D01*
X126534412Y-105206588D02*
X126582031Y-105278017D01*
X126582031Y-105278017D02*
X126605840Y-105373255D01*
X126605840Y-105373255D02*
X126605840Y-105563731D01*
X126605840Y-105563731D02*
X126582031Y-105611350D01*
X126582031Y-105611350D02*
X126558221Y-105635160D01*
X126558221Y-105635160D02*
X126510602Y-105658969D01*
X126510602Y-105658969D02*
X126415364Y-105658969D01*
X126415364Y-105658969D02*
X126367745Y-105635160D01*
X126367745Y-105635160D02*
X126343936Y-105611350D01*
X126343936Y-105611350D02*
X126320126Y-105563731D01*
X126320126Y-105563731D02*
X126320126Y-105444683D01*
X126320126Y-105444683D02*
X126343936Y-105397064D01*
X126343936Y-105397064D02*
X126367745Y-105373255D01*
X126367745Y-105373255D02*
X126415364Y-105349445D01*
X126415364Y-105349445D02*
X126510602Y-105349445D01*
X126510602Y-105349445D02*
X126558221Y-105373255D01*
X126558221Y-105373255D02*
X126582031Y-105397064D01*
X126582031Y-105397064D02*
X126605840Y-105444683D01*
X127653459Y-100555160D02*
X127582031Y-100578969D01*
X127582031Y-100578969D02*
X127462983Y-100578969D01*
X127462983Y-100578969D02*
X127415364Y-100555160D01*
X127415364Y-100555160D02*
X127391555Y-100531350D01*
X127391555Y-100531350D02*
X127367745Y-100483731D01*
X127367745Y-100483731D02*
X127367745Y-100436112D01*
X127367745Y-100436112D02*
X127391555Y-100388493D01*
X127391555Y-100388493D02*
X127415364Y-100364683D01*
X127415364Y-100364683D02*
X127462983Y-100340874D01*
X127462983Y-100340874D02*
X127558221Y-100317064D01*
X127558221Y-100317064D02*
X127605840Y-100293255D01*
X127605840Y-100293255D02*
X127629650Y-100269445D01*
X127629650Y-100269445D02*
X127653459Y-100221826D01*
X127653459Y-100221826D02*
X127653459Y-100174207D01*
X127653459Y-100174207D02*
X127629650Y-100126588D01*
X127629650Y-100126588D02*
X127605840Y-100102779D01*
X127605840Y-100102779D02*
X127558221Y-100078969D01*
X127558221Y-100078969D02*
X127439174Y-100078969D01*
X127439174Y-100078969D02*
X127367745Y-100102779D01*
X127201079Y-100078969D02*
X127082031Y-100578969D01*
X127082031Y-100578969D02*
X126986793Y-100221826D01*
X126986793Y-100221826D02*
X126891555Y-100578969D01*
X126891555Y-100578969D02*
X126772508Y-100078969D01*
X126367745Y-100245636D02*
X126367745Y-100578969D01*
X126486793Y-100055160D02*
X126605840Y-100412302D01*
X126605840Y-100412302D02*
X126296317Y-100412302D01*
X165368072Y-105635160D02*
X165296644Y-105658969D01*
X165296644Y-105658969D02*
X165177596Y-105658969D01*
X165177596Y-105658969D02*
X165129977Y-105635160D01*
X165129977Y-105635160D02*
X165106168Y-105611350D01*
X165106168Y-105611350D02*
X165082358Y-105563731D01*
X165082358Y-105563731D02*
X165082358Y-105516112D01*
X165082358Y-105516112D02*
X165106168Y-105468493D01*
X165106168Y-105468493D02*
X165129977Y-105444683D01*
X165129977Y-105444683D02*
X165177596Y-105420874D01*
X165177596Y-105420874D02*
X165272834Y-105397064D01*
X165272834Y-105397064D02*
X165320453Y-105373255D01*
X165320453Y-105373255D02*
X165344263Y-105349445D01*
X165344263Y-105349445D02*
X165368072Y-105301826D01*
X165368072Y-105301826D02*
X165368072Y-105254207D01*
X165368072Y-105254207D02*
X165344263Y-105206588D01*
X165344263Y-105206588D02*
X165320453Y-105182779D01*
X165320453Y-105182779D02*
X165272834Y-105158969D01*
X165272834Y-105158969D02*
X165153787Y-105158969D01*
X165153787Y-105158969D02*
X165082358Y-105182779D01*
X164915692Y-105158969D02*
X164796644Y-105658969D01*
X164796644Y-105658969D02*
X164701406Y-105301826D01*
X164701406Y-105301826D02*
X164606168Y-105658969D01*
X164606168Y-105658969D02*
X164487121Y-105158969D01*
X164320453Y-105206588D02*
X164296644Y-105182779D01*
X164296644Y-105182779D02*
X164249025Y-105158969D01*
X164249025Y-105158969D02*
X164129977Y-105158969D01*
X164129977Y-105158969D02*
X164082358Y-105182779D01*
X164082358Y-105182779D02*
X164058549Y-105206588D01*
X164058549Y-105206588D02*
X164034739Y-105254207D01*
X164034739Y-105254207D02*
X164034739Y-105301826D01*
X164034739Y-105301826D02*
X164058549Y-105373255D01*
X164058549Y-105373255D02*
X164344263Y-105658969D01*
X164344263Y-105658969D02*
X164034739Y-105658969D01*
X165082358Y-100102779D02*
X165129977Y-100078969D01*
X165129977Y-100078969D02*
X165201406Y-100078969D01*
X165201406Y-100078969D02*
X165272834Y-100102779D01*
X165272834Y-100102779D02*
X165320453Y-100150398D01*
X165320453Y-100150398D02*
X165344263Y-100198017D01*
X165344263Y-100198017D02*
X165368072Y-100293255D01*
X165368072Y-100293255D02*
X165368072Y-100364683D01*
X165368072Y-100364683D02*
X165344263Y-100459921D01*
X165344263Y-100459921D02*
X165320453Y-100507540D01*
X165320453Y-100507540D02*
X165272834Y-100555160D01*
X165272834Y-100555160D02*
X165201406Y-100578969D01*
X165201406Y-100578969D02*
X165153787Y-100578969D01*
X165153787Y-100578969D02*
X165082358Y-100555160D01*
X165082358Y-100555160D02*
X165058549Y-100531350D01*
X165058549Y-100531350D02*
X165058549Y-100364683D01*
X165058549Y-100364683D02*
X165153787Y-100364683D01*
X164844263Y-100578969D02*
X164844263Y-100078969D01*
X164844263Y-100078969D02*
X164558549Y-100578969D01*
X164558549Y-100578969D02*
X164558549Y-100078969D01*
X164320453Y-100578969D02*
X164320453Y-100078969D01*
X164320453Y-100078969D02*
X164201405Y-100078969D01*
X164201405Y-100078969D02*
X164129977Y-100102779D01*
X164129977Y-100102779D02*
X164082358Y-100150398D01*
X164082358Y-100150398D02*
X164058548Y-100198017D01*
X164058548Y-100198017D02*
X164034739Y-100293255D01*
X164034739Y-100293255D02*
X164034739Y-100364683D01*
X164034739Y-100364683D02*
X164058548Y-100459921D01*
X164058548Y-100459921D02*
X164082358Y-100507540D01*
X164082358Y-100507540D02*
X164129977Y-100555160D01*
X164129977Y-100555160D02*
X164201405Y-100578969D01*
X164201405Y-100578969D02*
X164320453Y-100578969D01*
X165368072Y-108175160D02*
X165296644Y-108198969D01*
X165296644Y-108198969D02*
X165177596Y-108198969D01*
X165177596Y-108198969D02*
X165129977Y-108175160D01*
X165129977Y-108175160D02*
X165106168Y-108151350D01*
X165106168Y-108151350D02*
X165082358Y-108103731D01*
X165082358Y-108103731D02*
X165082358Y-108056112D01*
X165082358Y-108056112D02*
X165106168Y-108008493D01*
X165106168Y-108008493D02*
X165129977Y-107984683D01*
X165129977Y-107984683D02*
X165177596Y-107960874D01*
X165177596Y-107960874D02*
X165272834Y-107937064D01*
X165272834Y-107937064D02*
X165320453Y-107913255D01*
X165320453Y-107913255D02*
X165344263Y-107889445D01*
X165344263Y-107889445D02*
X165368072Y-107841826D01*
X165368072Y-107841826D02*
X165368072Y-107794207D01*
X165368072Y-107794207D02*
X165344263Y-107746588D01*
X165344263Y-107746588D02*
X165320453Y-107722779D01*
X165320453Y-107722779D02*
X165272834Y-107698969D01*
X165272834Y-107698969D02*
X165153787Y-107698969D01*
X165153787Y-107698969D02*
X165082358Y-107722779D01*
X164915692Y-107698969D02*
X164796644Y-108198969D01*
X164796644Y-108198969D02*
X164701406Y-107841826D01*
X164701406Y-107841826D02*
X164606168Y-108198969D01*
X164606168Y-108198969D02*
X164487121Y-107698969D01*
X164034739Y-108198969D02*
X164320453Y-108198969D01*
X164177596Y-108198969D02*
X164177596Y-107698969D01*
X164177596Y-107698969D02*
X164225215Y-107770398D01*
X164225215Y-107770398D02*
X164272834Y-107818017D01*
X164272834Y-107818017D02*
X164320453Y-107841826D01*
X165368072Y-103095160D02*
X165296644Y-103118969D01*
X165296644Y-103118969D02*
X165177596Y-103118969D01*
X165177596Y-103118969D02*
X165129977Y-103095160D01*
X165129977Y-103095160D02*
X165106168Y-103071350D01*
X165106168Y-103071350D02*
X165082358Y-103023731D01*
X165082358Y-103023731D02*
X165082358Y-102976112D01*
X165082358Y-102976112D02*
X165106168Y-102928493D01*
X165106168Y-102928493D02*
X165129977Y-102904683D01*
X165129977Y-102904683D02*
X165177596Y-102880874D01*
X165177596Y-102880874D02*
X165272834Y-102857064D01*
X165272834Y-102857064D02*
X165320453Y-102833255D01*
X165320453Y-102833255D02*
X165344263Y-102809445D01*
X165344263Y-102809445D02*
X165368072Y-102761826D01*
X165368072Y-102761826D02*
X165368072Y-102714207D01*
X165368072Y-102714207D02*
X165344263Y-102666588D01*
X165344263Y-102666588D02*
X165320453Y-102642779D01*
X165320453Y-102642779D02*
X165272834Y-102618969D01*
X165272834Y-102618969D02*
X165153787Y-102618969D01*
X165153787Y-102618969D02*
X165082358Y-102642779D01*
X164915692Y-102618969D02*
X164796644Y-103118969D01*
X164796644Y-103118969D02*
X164701406Y-102761826D01*
X164701406Y-102761826D02*
X164606168Y-103118969D01*
X164606168Y-103118969D02*
X164487121Y-102618969D01*
X164344263Y-102618969D02*
X164034739Y-102618969D01*
X164034739Y-102618969D02*
X164201406Y-102809445D01*
X164201406Y-102809445D02*
X164129977Y-102809445D01*
X164129977Y-102809445D02*
X164082358Y-102833255D01*
X164082358Y-102833255D02*
X164058549Y-102857064D01*
X164058549Y-102857064D02*
X164034739Y-102904683D01*
X164034739Y-102904683D02*
X164034739Y-103023731D01*
X164034739Y-103023731D02*
X164058549Y-103071350D01*
X164058549Y-103071350D02*
X164082358Y-103095160D01*
X164082358Y-103095160D02*
X164129977Y-103118969D01*
X164129977Y-103118969D02*
X164272834Y-103118969D01*
X164272834Y-103118969D02*
X164320453Y-103095160D01*
X164320453Y-103095160D02*
X164344263Y-103071350D01*
X128343935Y-97848493D02*
X127962983Y-97848493D01*
X128153459Y-98038969D02*
X128153459Y-97658017D01*
X127772506Y-97538969D02*
X127462982Y-97538969D01*
X127462982Y-97538969D02*
X127629649Y-97729445D01*
X127629649Y-97729445D02*
X127558220Y-97729445D01*
X127558220Y-97729445D02*
X127510601Y-97753255D01*
X127510601Y-97753255D02*
X127486792Y-97777064D01*
X127486792Y-97777064D02*
X127462982Y-97824683D01*
X127462982Y-97824683D02*
X127462982Y-97943731D01*
X127462982Y-97943731D02*
X127486792Y-97991350D01*
X127486792Y-97991350D02*
X127510601Y-98015160D01*
X127510601Y-98015160D02*
X127558220Y-98038969D01*
X127558220Y-98038969D02*
X127701077Y-98038969D01*
X127701077Y-98038969D02*
X127748696Y-98015160D01*
X127748696Y-98015160D02*
X127772506Y-97991350D01*
X127248697Y-97991350D02*
X127224887Y-98015160D01*
X127224887Y-98015160D02*
X127248697Y-98038969D01*
X127248697Y-98038969D02*
X127272506Y-98015160D01*
X127272506Y-98015160D02*
X127248697Y-97991350D01*
X127248697Y-97991350D02*
X127248697Y-98038969D01*
X127058221Y-97538969D02*
X126748697Y-97538969D01*
X126748697Y-97538969D02*
X126915364Y-97729445D01*
X126915364Y-97729445D02*
X126843935Y-97729445D01*
X126843935Y-97729445D02*
X126796316Y-97753255D01*
X126796316Y-97753255D02*
X126772507Y-97777064D01*
X126772507Y-97777064D02*
X126748697Y-97824683D01*
X126748697Y-97824683D02*
X126748697Y-97943731D01*
X126748697Y-97943731D02*
X126772507Y-97991350D01*
X126772507Y-97991350D02*
X126796316Y-98015160D01*
X126796316Y-98015160D02*
X126843935Y-98038969D01*
X126843935Y-98038969D02*
X126986792Y-98038969D01*
X126986792Y-98038969D02*
X127034411Y-98015160D01*
X127034411Y-98015160D02*
X127058221Y-97991350D01*
X126605840Y-97538969D02*
X126439174Y-98038969D01*
X126439174Y-98038969D02*
X126272507Y-97538969D01*
X127367746Y-107722779D02*
X127415365Y-107698969D01*
X127415365Y-107698969D02*
X127486794Y-107698969D01*
X127486794Y-107698969D02*
X127558222Y-107722779D01*
X127558222Y-107722779D02*
X127605841Y-107770398D01*
X127605841Y-107770398D02*
X127629651Y-107818017D01*
X127629651Y-107818017D02*
X127653460Y-107913255D01*
X127653460Y-107913255D02*
X127653460Y-107984683D01*
X127653460Y-107984683D02*
X127629651Y-108079921D01*
X127629651Y-108079921D02*
X127605841Y-108127540D01*
X127605841Y-108127540D02*
X127558222Y-108175160D01*
X127558222Y-108175160D02*
X127486794Y-108198969D01*
X127486794Y-108198969D02*
X127439175Y-108198969D01*
X127439175Y-108198969D02*
X127367746Y-108175160D01*
X127367746Y-108175160D02*
X127343937Y-108151350D01*
X127343937Y-108151350D02*
X127343937Y-107984683D01*
X127343937Y-107984683D02*
X127439175Y-107984683D01*
X127129651Y-108198969D02*
X127129651Y-107698969D01*
X127129651Y-107698969D02*
X126843937Y-108198969D01*
X126843937Y-108198969D02*
X126843937Y-107698969D01*
X126605841Y-108198969D02*
X126605841Y-107698969D01*
X126605841Y-107698969D02*
X126486793Y-107698969D01*
X126486793Y-107698969D02*
X126415365Y-107722779D01*
X126415365Y-107722779D02*
X126367746Y-107770398D01*
X126367746Y-107770398D02*
X126343936Y-107818017D01*
X126343936Y-107818017D02*
X126320127Y-107913255D01*
X126320127Y-107913255D02*
X126320127Y-107984683D01*
X126320127Y-107984683D02*
X126343936Y-108079921D01*
X126343936Y-108079921D02*
X126367746Y-108127540D01*
X126367746Y-108127540D02*
X126415365Y-108175160D01*
X126415365Y-108175160D02*
X126486793Y-108198969D01*
X126486793Y-108198969D02*
X126605841Y-108198969D01*
X127653459Y-103095160D02*
X127582031Y-103118969D01*
X127582031Y-103118969D02*
X127462983Y-103118969D01*
X127462983Y-103118969D02*
X127415364Y-103095160D01*
X127415364Y-103095160D02*
X127391555Y-103071350D01*
X127391555Y-103071350D02*
X127367745Y-103023731D01*
X127367745Y-103023731D02*
X127367745Y-102976112D01*
X127367745Y-102976112D02*
X127391555Y-102928493D01*
X127391555Y-102928493D02*
X127415364Y-102904683D01*
X127415364Y-102904683D02*
X127462983Y-102880874D01*
X127462983Y-102880874D02*
X127558221Y-102857064D01*
X127558221Y-102857064D02*
X127605840Y-102833255D01*
X127605840Y-102833255D02*
X127629650Y-102809445D01*
X127629650Y-102809445D02*
X127653459Y-102761826D01*
X127653459Y-102761826D02*
X127653459Y-102714207D01*
X127653459Y-102714207D02*
X127629650Y-102666588D01*
X127629650Y-102666588D02*
X127605840Y-102642779D01*
X127605840Y-102642779D02*
X127558221Y-102618969D01*
X127558221Y-102618969D02*
X127439174Y-102618969D01*
X127439174Y-102618969D02*
X127367745Y-102642779D01*
X127201079Y-102618969D02*
X127082031Y-103118969D01*
X127082031Y-103118969D02*
X126986793Y-102761826D01*
X126986793Y-102761826D02*
X126891555Y-103118969D01*
X126891555Y-103118969D02*
X126772508Y-102618969D01*
X126343936Y-102618969D02*
X126582031Y-102618969D01*
X126582031Y-102618969D02*
X126605840Y-102857064D01*
X126605840Y-102857064D02*
X126582031Y-102833255D01*
X126582031Y-102833255D02*
X126534412Y-102809445D01*
X126534412Y-102809445D02*
X126415364Y-102809445D01*
X126415364Y-102809445D02*
X126367745Y-102833255D01*
X126367745Y-102833255D02*
X126343936Y-102857064D01*
X126343936Y-102857064D02*
X126320126Y-102904683D01*
X126320126Y-102904683D02*
X126320126Y-103023731D01*
X126320126Y-103023731D02*
X126343936Y-103071350D01*
X126343936Y-103071350D02*
X126367745Y-103095160D01*
X126367745Y-103095160D02*
X126415364Y-103118969D01*
X126415364Y-103118969D02*
X126534412Y-103118969D01*
X126534412Y-103118969D02*
X126582031Y-103095160D01*
X126582031Y-103095160D02*
X126605840Y-103071350D01*
D11*
X141833862Y-82151679D02*
X141357672Y-82151679D01*
X141357672Y-82151679D02*
X141310053Y-82627869D01*
X141310053Y-82627869D02*
X141357672Y-82580250D01*
X141357672Y-82580250D02*
X141452910Y-82532631D01*
X141452910Y-82532631D02*
X141691005Y-82532631D01*
X141691005Y-82532631D02*
X141786243Y-82580250D01*
X141786243Y-82580250D02*
X141833862Y-82627869D01*
X141833862Y-82627869D02*
X141881481Y-82723107D01*
X141881481Y-82723107D02*
X141881481Y-82961202D01*
X141881481Y-82961202D02*
X141833862Y-83056440D01*
X141833862Y-83056440D02*
X141786243Y-83104060D01*
X141786243Y-83104060D02*
X141691005Y-83151679D01*
X141691005Y-83151679D02*
X141452910Y-83151679D01*
X141452910Y-83151679D02*
X141357672Y-83104060D01*
X141357672Y-83104060D02*
X141310053Y-83056440D01*
X142214815Y-82151679D02*
X142833862Y-82151679D01*
X142833862Y-82151679D02*
X142500529Y-82532631D01*
X142500529Y-82532631D02*
X142643386Y-82532631D01*
X142643386Y-82532631D02*
X142738624Y-82580250D01*
X142738624Y-82580250D02*
X142786243Y-82627869D01*
X142786243Y-82627869D02*
X142833862Y-82723107D01*
X142833862Y-82723107D02*
X142833862Y-82961202D01*
X142833862Y-82961202D02*
X142786243Y-83056440D01*
X142786243Y-83056440D02*
X142738624Y-83104060D01*
X142738624Y-83104060D02*
X142643386Y-83151679D01*
X142643386Y-83151679D02*
X142357672Y-83151679D01*
X142357672Y-83151679D02*
X142262434Y-83104060D01*
X142262434Y-83104060D02*
X142214815Y-83056440D01*
X143262434Y-83056440D02*
X143310053Y-83104060D01*
X143310053Y-83104060D02*
X143262434Y-83151679D01*
X143262434Y-83151679D02*
X143214815Y-83104060D01*
X143214815Y-83104060D02*
X143262434Y-83056440D01*
X143262434Y-83056440D02*
X143262434Y-83151679D01*
X143929100Y-82151679D02*
X144024338Y-82151679D01*
X144024338Y-82151679D02*
X144119576Y-82199298D01*
X144119576Y-82199298D02*
X144167195Y-82246917D01*
X144167195Y-82246917D02*
X144214814Y-82342155D01*
X144214814Y-82342155D02*
X144262433Y-82532631D01*
X144262433Y-82532631D02*
X144262433Y-82770726D01*
X144262433Y-82770726D02*
X144214814Y-82961202D01*
X144214814Y-82961202D02*
X144167195Y-83056440D01*
X144167195Y-83056440D02*
X144119576Y-83104060D01*
X144119576Y-83104060D02*
X144024338Y-83151679D01*
X144024338Y-83151679D02*
X143929100Y-83151679D01*
X143929100Y-83151679D02*
X143833862Y-83104060D01*
X143833862Y-83104060D02*
X143786243Y-83056440D01*
X143786243Y-83056440D02*
X143738624Y-82961202D01*
X143738624Y-82961202D02*
X143691005Y-82770726D01*
X143691005Y-82770726D02*
X143691005Y-82532631D01*
X143691005Y-82532631D02*
X143738624Y-82342155D01*
X143738624Y-82342155D02*
X143786243Y-82246917D01*
X143786243Y-82246917D02*
X143833862Y-82199298D01*
X143833862Y-82199298D02*
X143929100Y-82151679D01*
X144881481Y-82151679D02*
X144976719Y-82151679D01*
X144976719Y-82151679D02*
X145071957Y-82199298D01*
X145071957Y-82199298D02*
X145119576Y-82246917D01*
X145119576Y-82246917D02*
X145167195Y-82342155D01*
X145167195Y-82342155D02*
X145214814Y-82532631D01*
X145214814Y-82532631D02*
X145214814Y-82770726D01*
X145214814Y-82770726D02*
X145167195Y-82961202D01*
X145167195Y-82961202D02*
X145119576Y-83056440D01*
X145119576Y-83056440D02*
X145071957Y-83104060D01*
X145071957Y-83104060D02*
X144976719Y-83151679D01*
X144976719Y-83151679D02*
X144881481Y-83151679D01*
X144881481Y-83151679D02*
X144786243Y-83104060D01*
X144786243Y-83104060D02*
X144738624Y-83056440D01*
X144738624Y-83056440D02*
X144691005Y-82961202D01*
X144691005Y-82961202D02*
X144643386Y-82770726D01*
X144643386Y-82770726D02*
X144643386Y-82532631D01*
X144643386Y-82532631D02*
X144691005Y-82342155D01*
X144691005Y-82342155D02*
X144738624Y-82246917D01*
X144738624Y-82246917D02*
X144786243Y-82199298D01*
X144786243Y-82199298D02*
X144881481Y-82151679D01*
X145833862Y-82151679D02*
X145929100Y-82151679D01*
X145929100Y-82151679D02*
X146024338Y-82199298D01*
X146024338Y-82199298D02*
X146071957Y-82246917D01*
X146071957Y-82246917D02*
X146119576Y-82342155D01*
X146119576Y-82342155D02*
X146167195Y-82532631D01*
X146167195Y-82532631D02*
X146167195Y-82770726D01*
X146167195Y-82770726D02*
X146119576Y-82961202D01*
X146119576Y-82961202D02*
X146071957Y-83056440D01*
X146071957Y-83056440D02*
X146024338Y-83104060D01*
X146024338Y-83104060D02*
X145929100Y-83151679D01*
X145929100Y-83151679D02*
X145833862Y-83151679D01*
X145833862Y-83151679D02*
X145738624Y-83104060D01*
X145738624Y-83104060D02*
X145691005Y-83056440D01*
X145691005Y-83056440D02*
X145643386Y-82961202D01*
X145643386Y-82961202D02*
X145595767Y-82770726D01*
X145595767Y-82770726D02*
X145595767Y-82532631D01*
X145595767Y-82532631D02*
X145643386Y-82342155D01*
X145643386Y-82342155D02*
X145691005Y-82246917D01*
X145691005Y-82246917D02*
X145738624Y-82199298D01*
X145738624Y-82199298D02*
X145833862Y-82151679D01*
X146786243Y-82151679D02*
X146881481Y-82151679D01*
X146881481Y-82151679D02*
X146976719Y-82199298D01*
X146976719Y-82199298D02*
X147024338Y-82246917D01*
X147024338Y-82246917D02*
X147071957Y-82342155D01*
X147071957Y-82342155D02*
X147119576Y-82532631D01*
X147119576Y-82532631D02*
X147119576Y-82770726D01*
X147119576Y-82770726D02*
X147071957Y-82961202D01*
X147071957Y-82961202D02*
X147024338Y-83056440D01*
X147024338Y-83056440D02*
X146976719Y-83104060D01*
X146976719Y-83104060D02*
X146881481Y-83151679D01*
X146881481Y-83151679D02*
X146786243Y-83151679D01*
X146786243Y-83151679D02*
X146691005Y-83104060D01*
X146691005Y-83104060D02*
X146643386Y-83056440D01*
X146643386Y-83056440D02*
X146595767Y-82961202D01*
X146595767Y-82961202D02*
X146548148Y-82770726D01*
X146548148Y-82770726D02*
X146548148Y-82532631D01*
X146548148Y-82532631D02*
X146595767Y-82342155D01*
X146595767Y-82342155D02*
X146643386Y-82246917D01*
X146643386Y-82246917D02*
X146691005Y-82199298D01*
X146691005Y-82199298D02*
X146786243Y-82151679D01*
X148310053Y-83151679D02*
X148310053Y-82485012D01*
X148310053Y-82580250D02*
X148357672Y-82532631D01*
X148357672Y-82532631D02*
X148452910Y-82485012D01*
X148452910Y-82485012D02*
X148595767Y-82485012D01*
X148595767Y-82485012D02*
X148691005Y-82532631D01*
X148691005Y-82532631D02*
X148738624Y-82627869D01*
X148738624Y-82627869D02*
X148738624Y-83151679D01*
X148738624Y-82627869D02*
X148786243Y-82532631D01*
X148786243Y-82532631D02*
X148881481Y-82485012D01*
X148881481Y-82485012D02*
X149024338Y-82485012D01*
X149024338Y-82485012D02*
X149119577Y-82532631D01*
X149119577Y-82532631D02*
X149167196Y-82627869D01*
X149167196Y-82627869D02*
X149167196Y-83151679D01*
X149643386Y-83151679D02*
X149643386Y-82485012D01*
X149643386Y-82580250D02*
X149691005Y-82532631D01*
X149691005Y-82532631D02*
X149786243Y-82485012D01*
X149786243Y-82485012D02*
X149929100Y-82485012D01*
X149929100Y-82485012D02*
X150024338Y-82532631D01*
X150024338Y-82532631D02*
X150071957Y-82627869D01*
X150071957Y-82627869D02*
X150071957Y-83151679D01*
X150071957Y-82627869D02*
X150119576Y-82532631D01*
X150119576Y-82532631D02*
X150214814Y-82485012D01*
X150214814Y-82485012D02*
X150357671Y-82485012D01*
X150357671Y-82485012D02*
X150452910Y-82532631D01*
X150452910Y-82532631D02*
X150500529Y-82627869D01*
X150500529Y-82627869D02*
X150500529Y-83151679D01*
D10*
X119429100Y-87346860D02*
X119429100Y-83260440D01*
X172429100Y-87346860D02*
X172429100Y-83260440D01*
X119429100Y-83846860D02*
X172429100Y-83846860D01*
X119429100Y-83846860D02*
X172429100Y-83846860D01*
X119429100Y-83846860D02*
X120555604Y-83260439D01*
X119429100Y-83846860D02*
X120555604Y-84433281D01*
X172429100Y-83846860D02*
X171302596Y-84433281D01*
X172429100Y-83846860D02*
X171302596Y-83260439D01*
D11*
X112829157Y-106965906D02*
X112781538Y-106918287D01*
X112781538Y-106918287D02*
X112733919Y-106823049D01*
X112733919Y-106823049D02*
X112733919Y-106584954D01*
X112733919Y-106584954D02*
X112781538Y-106489716D01*
X112781538Y-106489716D02*
X112829157Y-106442097D01*
X112829157Y-106442097D02*
X112924395Y-106394478D01*
X112924395Y-106394478D02*
X113019633Y-106394478D01*
X113019633Y-106394478D02*
X113162490Y-106442097D01*
X113162490Y-106442097D02*
X113733919Y-107013525D01*
X113733919Y-107013525D02*
X113733919Y-106394478D01*
X113733919Y-105918287D02*
X113733919Y-105727811D01*
X113733919Y-105727811D02*
X113686300Y-105632573D01*
X113686300Y-105632573D02*
X113638680Y-105584954D01*
X113638680Y-105584954D02*
X113495823Y-105489716D01*
X113495823Y-105489716D02*
X113305347Y-105442097D01*
X113305347Y-105442097D02*
X112924395Y-105442097D01*
X112924395Y-105442097D02*
X112829157Y-105489716D01*
X112829157Y-105489716D02*
X112781538Y-105537335D01*
X112781538Y-105537335D02*
X112733919Y-105632573D01*
X112733919Y-105632573D02*
X112733919Y-105823049D01*
X112733919Y-105823049D02*
X112781538Y-105918287D01*
X112781538Y-105918287D02*
X112829157Y-105965906D01*
X112829157Y-105965906D02*
X112924395Y-106013525D01*
X112924395Y-106013525D02*
X113162490Y-106013525D01*
X113162490Y-106013525D02*
X113257728Y-105965906D01*
X113257728Y-105965906D02*
X113305347Y-105918287D01*
X113305347Y-105918287D02*
X113352966Y-105823049D01*
X113352966Y-105823049D02*
X113352966Y-105632573D01*
X113352966Y-105632573D02*
X113305347Y-105537335D01*
X113305347Y-105537335D02*
X113257728Y-105489716D01*
X113257728Y-105489716D02*
X113162490Y-105442097D01*
X113638680Y-105013525D02*
X113686300Y-104965906D01*
X113686300Y-104965906D02*
X113733919Y-105013525D01*
X113733919Y-105013525D02*
X113686300Y-105061144D01*
X113686300Y-105061144D02*
X113638680Y-105013525D01*
X113638680Y-105013525D02*
X113733919Y-105013525D01*
X112733919Y-104346859D02*
X112733919Y-104251621D01*
X112733919Y-104251621D02*
X112781538Y-104156383D01*
X112781538Y-104156383D02*
X112829157Y-104108764D01*
X112829157Y-104108764D02*
X112924395Y-104061145D01*
X112924395Y-104061145D02*
X113114871Y-104013526D01*
X113114871Y-104013526D02*
X113352966Y-104013526D01*
X113352966Y-104013526D02*
X113543442Y-104061145D01*
X113543442Y-104061145D02*
X113638680Y-104108764D01*
X113638680Y-104108764D02*
X113686300Y-104156383D01*
X113686300Y-104156383D02*
X113733919Y-104251621D01*
X113733919Y-104251621D02*
X113733919Y-104346859D01*
X113733919Y-104346859D02*
X113686300Y-104442097D01*
X113686300Y-104442097D02*
X113638680Y-104489716D01*
X113638680Y-104489716D02*
X113543442Y-104537335D01*
X113543442Y-104537335D02*
X113352966Y-104584954D01*
X113352966Y-104584954D02*
X113114871Y-104584954D01*
X113114871Y-104584954D02*
X112924395Y-104537335D01*
X112924395Y-104537335D02*
X112829157Y-104489716D01*
X112829157Y-104489716D02*
X112781538Y-104442097D01*
X112781538Y-104442097D02*
X112733919Y-104346859D01*
X112733919Y-103394478D02*
X112733919Y-103299240D01*
X112733919Y-103299240D02*
X112781538Y-103204002D01*
X112781538Y-103204002D02*
X112829157Y-103156383D01*
X112829157Y-103156383D02*
X112924395Y-103108764D01*
X112924395Y-103108764D02*
X113114871Y-103061145D01*
X113114871Y-103061145D02*
X113352966Y-103061145D01*
X113352966Y-103061145D02*
X113543442Y-103108764D01*
X113543442Y-103108764D02*
X113638680Y-103156383D01*
X113638680Y-103156383D02*
X113686300Y-103204002D01*
X113686300Y-103204002D02*
X113733919Y-103299240D01*
X113733919Y-103299240D02*
X113733919Y-103394478D01*
X113733919Y-103394478D02*
X113686300Y-103489716D01*
X113686300Y-103489716D02*
X113638680Y-103537335D01*
X113638680Y-103537335D02*
X113543442Y-103584954D01*
X113543442Y-103584954D02*
X113352966Y-103632573D01*
X113352966Y-103632573D02*
X113114871Y-103632573D01*
X113114871Y-103632573D02*
X112924395Y-103584954D01*
X112924395Y-103584954D02*
X112829157Y-103537335D01*
X112829157Y-103537335D02*
X112781538Y-103489716D01*
X112781538Y-103489716D02*
X112733919Y-103394478D01*
X112733919Y-102442097D02*
X112733919Y-102346859D01*
X112733919Y-102346859D02*
X112781538Y-102251621D01*
X112781538Y-102251621D02*
X112829157Y-102204002D01*
X112829157Y-102204002D02*
X112924395Y-102156383D01*
X112924395Y-102156383D02*
X113114871Y-102108764D01*
X113114871Y-102108764D02*
X113352966Y-102108764D01*
X113352966Y-102108764D02*
X113543442Y-102156383D01*
X113543442Y-102156383D02*
X113638680Y-102204002D01*
X113638680Y-102204002D02*
X113686300Y-102251621D01*
X113686300Y-102251621D02*
X113733919Y-102346859D01*
X113733919Y-102346859D02*
X113733919Y-102442097D01*
X113733919Y-102442097D02*
X113686300Y-102537335D01*
X113686300Y-102537335D02*
X113638680Y-102584954D01*
X113638680Y-102584954D02*
X113543442Y-102632573D01*
X113543442Y-102632573D02*
X113352966Y-102680192D01*
X113352966Y-102680192D02*
X113114871Y-102680192D01*
X113114871Y-102680192D02*
X112924395Y-102632573D01*
X112924395Y-102632573D02*
X112829157Y-102584954D01*
X112829157Y-102584954D02*
X112781538Y-102537335D01*
X112781538Y-102537335D02*
X112733919Y-102442097D01*
X112733919Y-101489716D02*
X112733919Y-101394478D01*
X112733919Y-101394478D02*
X112781538Y-101299240D01*
X112781538Y-101299240D02*
X112829157Y-101251621D01*
X112829157Y-101251621D02*
X112924395Y-101204002D01*
X112924395Y-101204002D02*
X113114871Y-101156383D01*
X113114871Y-101156383D02*
X113352966Y-101156383D01*
X113352966Y-101156383D02*
X113543442Y-101204002D01*
X113543442Y-101204002D02*
X113638680Y-101251621D01*
X113638680Y-101251621D02*
X113686300Y-101299240D01*
X113686300Y-101299240D02*
X113733919Y-101394478D01*
X113733919Y-101394478D02*
X113733919Y-101489716D01*
X113733919Y-101489716D02*
X113686300Y-101584954D01*
X113686300Y-101584954D02*
X113638680Y-101632573D01*
X113638680Y-101632573D02*
X113543442Y-101680192D01*
X113543442Y-101680192D02*
X113352966Y-101727811D01*
X113352966Y-101727811D02*
X113114871Y-101727811D01*
X113114871Y-101727811D02*
X112924395Y-101680192D01*
X112924395Y-101680192D02*
X112829157Y-101632573D01*
X112829157Y-101632573D02*
X112781538Y-101584954D01*
X112781538Y-101584954D02*
X112733919Y-101489716D01*
X113733919Y-99965906D02*
X113067252Y-99965906D01*
X113162490Y-99965906D02*
X113114871Y-99918287D01*
X113114871Y-99918287D02*
X113067252Y-99823049D01*
X113067252Y-99823049D02*
X113067252Y-99680192D01*
X113067252Y-99680192D02*
X113114871Y-99584954D01*
X113114871Y-99584954D02*
X113210109Y-99537335D01*
X113210109Y-99537335D02*
X113733919Y-99537335D01*
X113210109Y-99537335D02*
X113114871Y-99489716D01*
X113114871Y-99489716D02*
X113067252Y-99394478D01*
X113067252Y-99394478D02*
X113067252Y-99251621D01*
X113067252Y-99251621D02*
X113114871Y-99156382D01*
X113114871Y-99156382D02*
X113210109Y-99108763D01*
X113210109Y-99108763D02*
X113733919Y-99108763D01*
X113733919Y-98632573D02*
X113067252Y-98632573D01*
X113162490Y-98632573D02*
X113114871Y-98584954D01*
X113114871Y-98584954D02*
X113067252Y-98489716D01*
X113067252Y-98489716D02*
X113067252Y-98346859D01*
X113067252Y-98346859D02*
X113114871Y-98251621D01*
X113114871Y-98251621D02*
X113210109Y-98204002D01*
X113210109Y-98204002D02*
X113733919Y-98204002D01*
X113210109Y-98204002D02*
X113114871Y-98156383D01*
X113114871Y-98156383D02*
X113067252Y-98061145D01*
X113067252Y-98061145D02*
X113067252Y-97918288D01*
X113067252Y-97918288D02*
X113114871Y-97823049D01*
X113114871Y-97823049D02*
X113210109Y-97775430D01*
X113210109Y-97775430D02*
X113733919Y-97775430D01*
D10*
X118929100Y-87846860D02*
X113842680Y-87846860D01*
X118929100Y-116846860D02*
X113842680Y-116846860D01*
X114429100Y-87846860D02*
X114429100Y-116846860D01*
X114429100Y-87846860D02*
X114429100Y-116846860D01*
X114429100Y-87846860D02*
X115015521Y-88973364D01*
X114429100Y-87846860D02*
X113842679Y-88973364D01*
X114429100Y-116846860D02*
X113842679Y-115720356D01*
X114429100Y-116846860D02*
X115015521Y-115720356D01*
D11*
X145998666Y-105569919D02*
X146331999Y-105093728D01*
X146570094Y-105569919D02*
X146570094Y-104569919D01*
X146570094Y-104569919D02*
X146189142Y-104569919D01*
X146189142Y-104569919D02*
X146093904Y-104617538D01*
X146093904Y-104617538D02*
X146046285Y-104665157D01*
X146046285Y-104665157D02*
X145998666Y-104760395D01*
X145998666Y-104760395D02*
X145998666Y-104903252D01*
X145998666Y-104903252D02*
X146046285Y-104998490D01*
X146046285Y-104998490D02*
X146093904Y-105046109D01*
X146093904Y-105046109D02*
X146189142Y-105093728D01*
X146189142Y-105093728D02*
X146570094Y-105093728D01*
X145617713Y-104665157D02*
X145570094Y-104617538D01*
X145570094Y-104617538D02*
X145474856Y-104569919D01*
X145474856Y-104569919D02*
X145236761Y-104569919D01*
X145236761Y-104569919D02*
X145141523Y-104617538D01*
X145141523Y-104617538D02*
X145093904Y-104665157D01*
X145093904Y-104665157D02*
X145046285Y-104760395D01*
X145046285Y-104760395D02*
X145046285Y-104855633D01*
X145046285Y-104855633D02*
X145093904Y-104998490D01*
X145093904Y-104998490D02*
X145665332Y-105569919D01*
X145665332Y-105569919D02*
X145046285Y-105569919D01*
X148379619Y-100829919D02*
X148951047Y-100829919D01*
X148665333Y-100829919D02*
X148665333Y-99829919D01*
X148665333Y-99829919D02*
X148760571Y-99972776D01*
X148760571Y-99972776D02*
X148855809Y-100068014D01*
X148855809Y-100068014D02*
X148951047Y-100115633D01*
X147760571Y-99829919D02*
X147665333Y-99829919D01*
X147665333Y-99829919D02*
X147570095Y-99877538D01*
X147570095Y-99877538D02*
X147522476Y-99925157D01*
X147522476Y-99925157D02*
X147474857Y-100020395D01*
X147474857Y-100020395D02*
X147427238Y-100210871D01*
X147427238Y-100210871D02*
X147427238Y-100448966D01*
X147427238Y-100448966D02*
X147474857Y-100639442D01*
X147474857Y-100639442D02*
X147522476Y-100734680D01*
X147522476Y-100734680D02*
X147570095Y-100782300D01*
X147570095Y-100782300D02*
X147665333Y-100829919D01*
X147665333Y-100829919D02*
X147760571Y-100829919D01*
X147760571Y-100829919D02*
X147855809Y-100782300D01*
X147855809Y-100782300D02*
X147903428Y-100734680D01*
X147903428Y-100734680D02*
X147951047Y-100639442D01*
X147951047Y-100639442D02*
X147998666Y-100448966D01*
X147998666Y-100448966D02*
X147998666Y-100210871D01*
X147998666Y-100210871D02*
X147951047Y-100020395D01*
X147951047Y-100020395D02*
X147903428Y-99925157D01*
X147903428Y-99925157D02*
X147855809Y-99877538D01*
X147855809Y-99877538D02*
X147760571Y-99829919D01*
X146998666Y-100829919D02*
X146998666Y-99829919D01*
X146903428Y-100448966D02*
X146617714Y-100829919D01*
X146617714Y-100163252D02*
X146998666Y-100544204D01*
X145284380Y-100829919D02*
X145379618Y-100782300D01*
X145379618Y-100782300D02*
X145427237Y-100734680D01*
X145427237Y-100734680D02*
X145474856Y-100639442D01*
X145474856Y-100639442D02*
X145474856Y-100353728D01*
X145474856Y-100353728D02*
X145427237Y-100258490D01*
X145427237Y-100258490D02*
X145379618Y-100210871D01*
X145379618Y-100210871D02*
X145284380Y-100163252D01*
X145284380Y-100163252D02*
X145141523Y-100163252D01*
X145141523Y-100163252D02*
X145046285Y-100210871D01*
X145046285Y-100210871D02*
X144998666Y-100258490D01*
X144998666Y-100258490D02*
X144951047Y-100353728D01*
X144951047Y-100353728D02*
X144951047Y-100639442D01*
X144951047Y-100639442D02*
X144998666Y-100734680D01*
X144998666Y-100734680D02*
X145046285Y-100782300D01*
X145046285Y-100782300D02*
X145141523Y-100829919D01*
X145141523Y-100829919D02*
X145284380Y-100829919D01*
X144522475Y-100829919D02*
X144522475Y-99829919D01*
X144093904Y-100829919D02*
X144093904Y-100306109D01*
X144093904Y-100306109D02*
X144141523Y-100210871D01*
X144141523Y-100210871D02*
X144236761Y-100163252D01*
X144236761Y-100163252D02*
X144379618Y-100163252D01*
X144379618Y-100163252D02*
X144474856Y-100210871D01*
X144474856Y-100210871D02*
X144522475Y-100258490D01*
X143617713Y-100829919D02*
X143617713Y-100163252D01*
X143617713Y-100258490D02*
X143570094Y-100210871D01*
X143570094Y-100210871D02*
X143474856Y-100163252D01*
X143474856Y-100163252D02*
X143331999Y-100163252D01*
X143331999Y-100163252D02*
X143236761Y-100210871D01*
X143236761Y-100210871D02*
X143189142Y-100306109D01*
X143189142Y-100306109D02*
X143189142Y-100829919D01*
X143189142Y-100306109D02*
X143141523Y-100210871D01*
X143141523Y-100210871D02*
X143046285Y-100163252D01*
X143046285Y-100163252D02*
X142903428Y-100163252D01*
X142903428Y-100163252D02*
X142808189Y-100210871D01*
X142808189Y-100210871D02*
X142760570Y-100306109D01*
X142760570Y-100306109D02*
X142760570Y-100829919D01*
X169418433Y-111237679D02*
X169418433Y-111951964D01*
X169418433Y-111951964D02*
X169466052Y-112094821D01*
X169466052Y-112094821D02*
X169561290Y-112190060D01*
X169561290Y-112190060D02*
X169704147Y-112237679D01*
X169704147Y-112237679D02*
X169799385Y-112237679D01*
X168418433Y-112237679D02*
X168989861Y-112237679D01*
X168704147Y-112237679D02*
X168704147Y-111237679D01*
X168704147Y-111237679D02*
X168799385Y-111380536D01*
X168799385Y-111380536D02*
X168894623Y-111475774D01*
X168894623Y-111475774D02*
X168989861Y-111523393D01*
X132796506Y-105569919D02*
X133129839Y-105093728D01*
X133367934Y-105569919D02*
X133367934Y-104569919D01*
X133367934Y-104569919D02*
X132986982Y-104569919D01*
X132986982Y-104569919D02*
X132891744Y-104617538D01*
X132891744Y-104617538D02*
X132844125Y-104665157D01*
X132844125Y-104665157D02*
X132796506Y-104760395D01*
X132796506Y-104760395D02*
X132796506Y-104903252D01*
X132796506Y-104903252D02*
X132844125Y-104998490D01*
X132844125Y-104998490D02*
X132891744Y-105046109D01*
X132891744Y-105046109D02*
X132986982Y-105093728D01*
X132986982Y-105093728D02*
X133367934Y-105093728D01*
X131844125Y-105569919D02*
X132415553Y-105569919D01*
X132129839Y-105569919D02*
X132129839Y-104569919D01*
X132129839Y-104569919D02*
X132225077Y-104712776D01*
X132225077Y-104712776D02*
X132320315Y-104808014D01*
X132320315Y-104808014D02*
X132415553Y-104855633D01*
X135177459Y-100829919D02*
X135748887Y-100829919D01*
X135463173Y-100829919D02*
X135463173Y-99829919D01*
X135463173Y-99829919D02*
X135558411Y-99972776D01*
X135558411Y-99972776D02*
X135653649Y-100068014D01*
X135653649Y-100068014D02*
X135748887Y-100115633D01*
X134558411Y-99829919D02*
X134463173Y-99829919D01*
X134463173Y-99829919D02*
X134367935Y-99877538D01*
X134367935Y-99877538D02*
X134320316Y-99925157D01*
X134320316Y-99925157D02*
X134272697Y-100020395D01*
X134272697Y-100020395D02*
X134225078Y-100210871D01*
X134225078Y-100210871D02*
X134225078Y-100448966D01*
X134225078Y-100448966D02*
X134272697Y-100639442D01*
X134272697Y-100639442D02*
X134320316Y-100734680D01*
X134320316Y-100734680D02*
X134367935Y-100782300D01*
X134367935Y-100782300D02*
X134463173Y-100829919D01*
X134463173Y-100829919D02*
X134558411Y-100829919D01*
X134558411Y-100829919D02*
X134653649Y-100782300D01*
X134653649Y-100782300D02*
X134701268Y-100734680D01*
X134701268Y-100734680D02*
X134748887Y-100639442D01*
X134748887Y-100639442D02*
X134796506Y-100448966D01*
X134796506Y-100448966D02*
X134796506Y-100210871D01*
X134796506Y-100210871D02*
X134748887Y-100020395D01*
X134748887Y-100020395D02*
X134701268Y-99925157D01*
X134701268Y-99925157D02*
X134653649Y-99877538D01*
X134653649Y-99877538D02*
X134558411Y-99829919D01*
X133796506Y-100829919D02*
X133796506Y-99829919D01*
X133701268Y-100448966D02*
X133415554Y-100829919D01*
X133415554Y-100163252D02*
X133796506Y-100544204D01*
X132082220Y-100829919D02*
X132177458Y-100782300D01*
X132177458Y-100782300D02*
X132225077Y-100734680D01*
X132225077Y-100734680D02*
X132272696Y-100639442D01*
X132272696Y-100639442D02*
X132272696Y-100353728D01*
X132272696Y-100353728D02*
X132225077Y-100258490D01*
X132225077Y-100258490D02*
X132177458Y-100210871D01*
X132177458Y-100210871D02*
X132082220Y-100163252D01*
X132082220Y-100163252D02*
X131939363Y-100163252D01*
X131939363Y-100163252D02*
X131844125Y-100210871D01*
X131844125Y-100210871D02*
X131796506Y-100258490D01*
X131796506Y-100258490D02*
X131748887Y-100353728D01*
X131748887Y-100353728D02*
X131748887Y-100639442D01*
X131748887Y-100639442D02*
X131796506Y-100734680D01*
X131796506Y-100734680D02*
X131844125Y-100782300D01*
X131844125Y-100782300D02*
X131939363Y-100829919D01*
X131939363Y-100829919D02*
X132082220Y-100829919D01*
X131320315Y-100829919D02*
X131320315Y-99829919D01*
X130891744Y-100829919D02*
X130891744Y-100306109D01*
X130891744Y-100306109D02*
X130939363Y-100210871D01*
X130939363Y-100210871D02*
X131034601Y-100163252D01*
X131034601Y-100163252D02*
X131177458Y-100163252D01*
X131177458Y-100163252D02*
X131272696Y-100210871D01*
X131272696Y-100210871D02*
X131320315Y-100258490D01*
X130415553Y-100829919D02*
X130415553Y-100163252D01*
X130415553Y-100258490D02*
X130367934Y-100210871D01*
X130367934Y-100210871D02*
X130272696Y-100163252D01*
X130272696Y-100163252D02*
X130129839Y-100163252D01*
X130129839Y-100163252D02*
X130034601Y-100210871D01*
X130034601Y-100210871D02*
X129986982Y-100306109D01*
X129986982Y-100306109D02*
X129986982Y-100829919D01*
X129986982Y-100306109D02*
X129939363Y-100210871D01*
X129939363Y-100210871D02*
X129844125Y-100163252D01*
X129844125Y-100163252D02*
X129701268Y-100163252D01*
X129701268Y-100163252D02*
X129606029Y-100210871D01*
X129606029Y-100210871D02*
X129558410Y-100306109D01*
X129558410Y-100306109D02*
X129558410Y-100829919D01*
X159200826Y-105569919D02*
X159534159Y-105093728D01*
X159772254Y-105569919D02*
X159772254Y-104569919D01*
X159772254Y-104569919D02*
X159391302Y-104569919D01*
X159391302Y-104569919D02*
X159296064Y-104617538D01*
X159296064Y-104617538D02*
X159248445Y-104665157D01*
X159248445Y-104665157D02*
X159200826Y-104760395D01*
X159200826Y-104760395D02*
X159200826Y-104903252D01*
X159200826Y-104903252D02*
X159248445Y-104998490D01*
X159248445Y-104998490D02*
X159296064Y-105046109D01*
X159296064Y-105046109D02*
X159391302Y-105093728D01*
X159391302Y-105093728D02*
X159772254Y-105093728D01*
X158867492Y-104569919D02*
X158248445Y-104569919D01*
X158248445Y-104569919D02*
X158581778Y-104950871D01*
X158581778Y-104950871D02*
X158438921Y-104950871D01*
X158438921Y-104950871D02*
X158343683Y-104998490D01*
X158343683Y-104998490D02*
X158296064Y-105046109D01*
X158296064Y-105046109D02*
X158248445Y-105141347D01*
X158248445Y-105141347D02*
X158248445Y-105379442D01*
X158248445Y-105379442D02*
X158296064Y-105474680D01*
X158296064Y-105474680D02*
X158343683Y-105522300D01*
X158343683Y-105522300D02*
X158438921Y-105569919D01*
X158438921Y-105569919D02*
X158724635Y-105569919D01*
X158724635Y-105569919D02*
X158819873Y-105522300D01*
X158819873Y-105522300D02*
X158867492Y-105474680D01*
X161581779Y-100829919D02*
X162153207Y-100829919D01*
X161867493Y-100829919D02*
X161867493Y-99829919D01*
X161867493Y-99829919D02*
X161962731Y-99972776D01*
X161962731Y-99972776D02*
X162057969Y-100068014D01*
X162057969Y-100068014D02*
X162153207Y-100115633D01*
X160962731Y-99829919D02*
X160867493Y-99829919D01*
X160867493Y-99829919D02*
X160772255Y-99877538D01*
X160772255Y-99877538D02*
X160724636Y-99925157D01*
X160724636Y-99925157D02*
X160677017Y-100020395D01*
X160677017Y-100020395D02*
X160629398Y-100210871D01*
X160629398Y-100210871D02*
X160629398Y-100448966D01*
X160629398Y-100448966D02*
X160677017Y-100639442D01*
X160677017Y-100639442D02*
X160724636Y-100734680D01*
X160724636Y-100734680D02*
X160772255Y-100782300D01*
X160772255Y-100782300D02*
X160867493Y-100829919D01*
X160867493Y-100829919D02*
X160962731Y-100829919D01*
X160962731Y-100829919D02*
X161057969Y-100782300D01*
X161057969Y-100782300D02*
X161105588Y-100734680D01*
X161105588Y-100734680D02*
X161153207Y-100639442D01*
X161153207Y-100639442D02*
X161200826Y-100448966D01*
X161200826Y-100448966D02*
X161200826Y-100210871D01*
X161200826Y-100210871D02*
X161153207Y-100020395D01*
X161153207Y-100020395D02*
X161105588Y-99925157D01*
X161105588Y-99925157D02*
X161057969Y-99877538D01*
X161057969Y-99877538D02*
X160962731Y-99829919D01*
X160200826Y-100829919D02*
X160200826Y-99829919D01*
X160105588Y-100448966D02*
X159819874Y-100829919D01*
X159819874Y-100163252D02*
X160200826Y-100544204D01*
X158486540Y-100829919D02*
X158581778Y-100782300D01*
X158581778Y-100782300D02*
X158629397Y-100734680D01*
X158629397Y-100734680D02*
X158677016Y-100639442D01*
X158677016Y-100639442D02*
X158677016Y-100353728D01*
X158677016Y-100353728D02*
X158629397Y-100258490D01*
X158629397Y-100258490D02*
X158581778Y-100210871D01*
X158581778Y-100210871D02*
X158486540Y-100163252D01*
X158486540Y-100163252D02*
X158343683Y-100163252D01*
X158343683Y-100163252D02*
X158248445Y-100210871D01*
X158248445Y-100210871D02*
X158200826Y-100258490D01*
X158200826Y-100258490D02*
X158153207Y-100353728D01*
X158153207Y-100353728D02*
X158153207Y-100639442D01*
X158153207Y-100639442D02*
X158200826Y-100734680D01*
X158200826Y-100734680D02*
X158248445Y-100782300D01*
X158248445Y-100782300D02*
X158343683Y-100829919D01*
X158343683Y-100829919D02*
X158486540Y-100829919D01*
X157724635Y-100829919D02*
X157724635Y-99829919D01*
X157296064Y-100829919D02*
X157296064Y-100306109D01*
X157296064Y-100306109D02*
X157343683Y-100210871D01*
X157343683Y-100210871D02*
X157438921Y-100163252D01*
X157438921Y-100163252D02*
X157581778Y-100163252D01*
X157581778Y-100163252D02*
X157677016Y-100210871D01*
X157677016Y-100210871D02*
X157724635Y-100258490D01*
X156819873Y-100829919D02*
X156819873Y-100163252D01*
X156819873Y-100258490D02*
X156772254Y-100210871D01*
X156772254Y-100210871D02*
X156677016Y-100163252D01*
X156677016Y-100163252D02*
X156534159Y-100163252D01*
X156534159Y-100163252D02*
X156438921Y-100210871D01*
X156438921Y-100210871D02*
X156391302Y-100306109D01*
X156391302Y-100306109D02*
X156391302Y-100829919D01*
X156391302Y-100306109D02*
X156343683Y-100210871D01*
X156343683Y-100210871D02*
X156248445Y-100163252D01*
X156248445Y-100163252D02*
X156105588Y-100163252D01*
X156105588Y-100163252D02*
X156010349Y-100210871D01*
X156010349Y-100210871D02*
X155962730Y-100306109D01*
X155962730Y-100306109D02*
X155962730Y-100829919D01*
X122936433Y-111237679D02*
X122936433Y-111951964D01*
X122936433Y-111951964D02*
X122984052Y-112094821D01*
X122984052Y-112094821D02*
X123079290Y-112190060D01*
X123079290Y-112190060D02*
X123222147Y-112237679D01*
X123222147Y-112237679D02*
X123317385Y-112237679D01*
X122507861Y-111332917D02*
X122460242Y-111285298D01*
X122460242Y-111285298D02*
X122365004Y-111237679D01*
X122365004Y-111237679D02*
X122126909Y-111237679D01*
X122126909Y-111237679D02*
X122031671Y-111285298D01*
X122031671Y-111285298D02*
X121984052Y-111332917D01*
X121984052Y-111332917D02*
X121936433Y-111428155D01*
X121936433Y-111428155D02*
X121936433Y-111523393D01*
X121936433Y-111523393D02*
X121984052Y-111666250D01*
X121984052Y-111666250D02*
X122555480Y-112237679D01*
X122555480Y-112237679D02*
X121936433Y-112237679D01*
D12*
%TO.C,R2*%
X142562000Y-101375100D02*
X142562000Y-101705100D01*
X142562000Y-104115100D02*
X142562000Y-103785100D01*
X149102000Y-101375100D02*
X142562000Y-101375100D01*
X149102000Y-101705100D02*
X149102000Y-101375100D01*
X149102000Y-103785100D02*
X149102000Y-104115100D01*
X149102000Y-104115100D02*
X142562000Y-104115100D01*
%TO.C,J1*%
X165549700Y-97818260D02*
X165549700Y-110438260D01*
X165549700Y-110438260D02*
X171519700Y-110438260D01*
X166309700Y-98578260D02*
X169259700Y-98578260D01*
X166309700Y-104128260D02*
X166309700Y-98578260D01*
X166309700Y-104128260D02*
X166309700Y-109678260D01*
X166309700Y-109678260D02*
X169259700Y-109678260D01*
X169259700Y-98578260D02*
X169259700Y-97828260D01*
X169259700Y-109678260D02*
X169259700Y-110428260D01*
X170559700Y-110728260D02*
X171809700Y-110728260D01*
X170759700Y-97828260D02*
X170759700Y-99628260D01*
X170759700Y-99628260D02*
X171509700Y-99628260D01*
X170759700Y-101128260D02*
X170759700Y-107128260D01*
X170759700Y-107128260D02*
X171509700Y-107128260D01*
X170759700Y-108628260D02*
X170759700Y-110428260D01*
X170759700Y-110428260D02*
X171509700Y-110428260D01*
X171509700Y-97828260D02*
X170759700Y-97828260D01*
X171509700Y-99628260D02*
X171509700Y-97828260D01*
X171509700Y-101128260D02*
X170759700Y-101128260D01*
X171509700Y-107128260D02*
X171509700Y-101128260D01*
X171509700Y-108628260D02*
X170759700Y-108628260D01*
X171509700Y-110428260D02*
X171509700Y-108628260D01*
X171519700Y-97818260D02*
X165549700Y-97818260D01*
X171519700Y-110438260D02*
X171519700Y-97818260D01*
X171809700Y-110728260D02*
X171809700Y-109478260D01*
%TO.C,R1*%
X129359840Y-101375100D02*
X129359840Y-101705100D01*
X129359840Y-104115100D02*
X129359840Y-103785100D01*
X135899840Y-101375100D02*
X129359840Y-101375100D01*
X135899840Y-101705100D02*
X135899840Y-101375100D01*
X135899840Y-103785100D02*
X135899840Y-104115100D01*
X135899840Y-104115100D02*
X129359840Y-104115100D01*
%TO.C,R3*%
X155764160Y-101375100D02*
X155764160Y-101705100D01*
X155764160Y-104115100D02*
X155764160Y-103785100D01*
X162304160Y-101375100D02*
X155764160Y-101375100D01*
X162304160Y-101705100D02*
X162304160Y-101375100D01*
X162304160Y-103785100D02*
X162304160Y-104115100D01*
X162304160Y-104115100D02*
X155764160Y-104115100D01*
%TO.C,J2*%
X119853100Y-95028260D02*
X119853100Y-96278260D01*
X120143100Y-95318260D02*
X120143100Y-110438260D01*
X120143100Y-110438260D02*
X126113100Y-110438260D01*
X120153100Y-95328260D02*
X120153100Y-97128260D01*
X120153100Y-97128260D02*
X120903100Y-97128260D01*
X120153100Y-98628260D02*
X120153100Y-107128260D01*
X120153100Y-107128260D02*
X120903100Y-107128260D01*
X120153100Y-108628260D02*
X120153100Y-110428260D01*
X120153100Y-110428260D02*
X120903100Y-110428260D01*
X120903100Y-95328260D02*
X120153100Y-95328260D01*
X120903100Y-97128260D02*
X120903100Y-95328260D01*
X120903100Y-98628260D02*
X120153100Y-98628260D01*
X120903100Y-107128260D02*
X120903100Y-98628260D01*
X120903100Y-108628260D02*
X120153100Y-108628260D01*
X120903100Y-110428260D02*
X120903100Y-108628260D01*
X121103100Y-95028260D02*
X119853100Y-95028260D01*
X122403100Y-96078260D02*
X122403100Y-95328260D01*
X122403100Y-109678260D02*
X122403100Y-110428260D01*
X125353100Y-96078260D02*
X122403100Y-96078260D01*
X125353100Y-102878260D02*
X125353100Y-96078260D01*
X125353100Y-102878260D02*
X125353100Y-109678260D01*
X125353100Y-109678260D02*
X122403100Y-109678260D01*
X126113100Y-95318260D02*
X120143100Y-95318260D01*
X126113100Y-110438260D02*
X126113100Y-95318260D01*
%TD*%
%LPC*%
D13*
%TO.C,SW3*%
X161533520Y-96496700D03*
X161533520Y-108993500D03*
X156534800Y-96496700D03*
X156534800Y-108993500D03*
%TD*%
D14*
%TO.C,SW5*%
X141732000Y-91948000D03*
X149932000Y-91948000D03*
D15*
X143832000Y-91948000D03*
D16*
X145832000Y-91948000D03*
X147832000Y-91948000D03*
%TD*%
D13*
%TO.C,SW1*%
X135129200Y-96496700D03*
X135129200Y-108993500D03*
X130130480Y-96496700D03*
X130130480Y-108993500D03*
%TD*%
D14*
%TO.C,SW6*%
X154308080Y-91948000D03*
X162508080Y-91948000D03*
D15*
X156408080Y-91948000D03*
D16*
X158408080Y-91948000D03*
X160408080Y-91948000D03*
%TD*%
D17*
%TO.C,MountingHole1*%
X123593700Y-91437460D03*
%TD*%
D13*
%TO.C,SW2*%
X148331360Y-96496700D03*
X148331360Y-108993500D03*
X143332640Y-96496700D03*
X143332640Y-108993500D03*
%TD*%
D17*
%TO.C,MountingHole2*%
X167992900Y-91437460D03*
%TD*%
%TO.C,MountingHole3*%
X145844100Y-113078260D03*
%TD*%
D14*
%TO.C,SW4*%
X129155920Y-91948000D03*
X137355920Y-91948000D03*
D15*
X131255920Y-91948000D03*
D16*
X133255920Y-91948000D03*
X135255920Y-91948000D03*
%TD*%
D18*
%TO.C,R2*%
X142022000Y-102745100D03*
D19*
X149642000Y-102745100D03*
%TD*%
D20*
%TO.C,J1*%
X169059700Y-107878260D03*
D21*
X169059700Y-105378260D03*
X169059700Y-102878260D03*
X169059700Y-100378260D03*
%TD*%
D18*
%TO.C,R1*%
X128819840Y-102745100D03*
D19*
X136439840Y-102745100D03*
%TD*%
D18*
%TO.C,R3*%
X155224160Y-102745100D03*
D19*
X162844160Y-102745100D03*
%TD*%
D22*
%TO.C,J2*%
X122603100Y-97878260D03*
D21*
X122603100Y-100378260D03*
X122603100Y-102878260D03*
X122603100Y-105378260D03*
X122603100Y-107878260D03*
%TD*%
%LPD*%
M02*
